%TF.GenerationSoftware,KiCad,Pcbnew,7.0.10*%
%TF.CreationDate,2025-06-08T00:19:01+02:00*%
%TF.ProjectId,ConnectorInterfaceBoard,436f6e6e-6563-4746-9f72-496e74657266,rev?*%
%TF.SameCoordinates,Original*%
%TF.FileFunction,Copper,L1,Top*%
%TF.FilePolarity,Positive*%
%FSLAX46Y46*%
G04 Gerber Fmt 4.6, Leading zero omitted, Abs format (unit mm)*
G04 Created by KiCad (PCBNEW 7.0.10) date 2025-06-08 00:19:01*
%MOMM*%
%LPD*%
G01*
G04 APERTURE LIST*
%TA.AperFunction,ComponentPad*%
%ADD10R,1.000000X1.000000*%
%TD*%
%TA.AperFunction,ComponentPad*%
%ADD11O,1.000000X1.000000*%
%TD*%
%TA.AperFunction,ComponentPad*%
%ADD12C,1.520000*%
%TD*%
%TA.AperFunction,ComponentPad*%
%ADD13C,2.000000*%
%TD*%
%TA.AperFunction,ViaPad*%
%ADD14C,0.800000*%
%TD*%
%TA.AperFunction,Conductor*%
%ADD15C,0.750000*%
%TD*%
%TA.AperFunction,Conductor*%
%ADD16C,0.300000*%
%TD*%
G04 APERTURE END LIST*
D10*
%TO.P,J4,1,Pin_1*%
%TO.N,Analog0_In*%
X16713200Y-15875000D03*
D11*
%TO.P,J4,2,Pin_2*%
%TO.N,Analog1_In*%
X17983200Y-15875000D03*
%TO.P,J4,3,Pin_3*%
%TO.N,Analog2_In*%
X16713200Y-17145000D03*
%TO.P,J4,4,Pin_4*%
%TO.N,Analog3_In*%
X17983200Y-17145000D03*
%TO.P,J4,5,Pin_5*%
%TO.N,GND*%
X16713200Y-18415000D03*
%TO.P,J4,6,Pin_6*%
%TO.N,GPIO1_out{slash}in*%
X17983200Y-18415000D03*
%TO.P,J4,7,Pin_7*%
%TO.N,GPIO2_out{slash}in*%
X16713200Y-19685000D03*
%TO.P,J4,8,Pin_8*%
%TO.N,GPIO3_out{slash}in*%
X17983200Y-19685000D03*
%TO.P,J4,9,Pin_9*%
%TO.N,GPIO4_out{slash}in*%
X16713200Y-20955000D03*
%TO.P,J4,10,Pin_10*%
%TO.N,GPIO5_out{slash}in*%
X17983200Y-20955000D03*
%TO.P,J4,11,Pin_11*%
%TO.N,GPIO6_out{slash}in*%
X16713200Y-22225000D03*
%TO.P,J4,12,Pin_12*%
%TO.N,+BATT*%
X17983200Y-22225000D03*
%TO.P,J4,13,Pin_13*%
X16713200Y-23495000D03*
%TO.P,J4,14,Pin_14*%
%TO.N,CAN1_P*%
X17983200Y-23495000D03*
%TO.P,J4,15,Pin_15*%
%TO.N,CAN1_N*%
X16713200Y-24765000D03*
%TO.P,J4,16,Pin_16*%
%TO.N,GND*%
X17983200Y-24765000D03*
%TD*%
D12*
%TO.P,J1,1,Pin_1*%
%TO.N,GPIO1_out{slash}in*%
X26695400Y-19177000D03*
%TO.P,J1,2,Pin_2*%
%TO.N,GPIO2_out{slash}in*%
X26847800Y-20878800D03*
%TO.P,J1,3,Pin_3*%
%TO.N,GPIO3_out{slash}in*%
X27559000Y-22453600D03*
%TO.P,J1,4,Pin_4*%
%TO.N,GPIO4_out{slash}in*%
X30099000Y-22453600D03*
%TO.P,J1,5,Pin_5*%
%TO.N,GPIO5_out{slash}in*%
X30810200Y-20878800D03*
%TO.P,J1,6,Pin_6*%
%TO.N,GPIO6_out{slash}in*%
X30962600Y-19177000D03*
%TO.P,J1,7,Pin_7*%
%TO.N,GND*%
X28829000Y-19685000D03*
%TD*%
D13*
%TO.P,J3,1,Pin_1*%
%TO.N,+BATT*%
X60655200Y-19685000D03*
%TO.P,J3,2,Pin_2*%
%TO.N,GND*%
X61468000Y-22301200D03*
%TO.P,J3,3,Pin_3*%
%TO.N,CAN1_N*%
X64262000Y-22301200D03*
%TO.P,J3,4,Pin_4*%
%TO.N,CAN1_P*%
X65074800Y-19685000D03*
%TO.P,J3,5,Pin_5*%
%TO.N,GND*%
X62865000Y-20370800D03*
%TD*%
%TO.P,J2,1,Pin_1*%
%TO.N,+BATT*%
X43764200Y-19354800D03*
%TO.P,J2,2,Pin_2*%
%TO.N,Analog0_In*%
X43764200Y-21615400D03*
%TO.P,J2,3,Pin_3*%
%TO.N,Analog1_In*%
X45821600Y-22707600D03*
%TO.P,J2,4,Pin_4*%
%TO.N,Analog2_In*%
X47879000Y-21615400D03*
%TO.P,J2,5,Pin_5*%
%TO.N,Analog3_In*%
X47879000Y-19354800D03*
%TO.P,J2,6,Pin_6*%
%TO.N,GND*%
X45821600Y-20396200D03*
%TD*%
D14*
%TO.N,GPIO2_out{slash}in*%
X23065310Y-23036006D03*
%TO.N,GPIO6_out{slash}in*%
X14332046Y-26813404D03*
%TO.N,GND*%
X58000000Y-19250000D03*
X20828000Y-24485600D03*
X26250000Y-17000000D03*
X21000000Y-22211600D03*
X22910800Y-25755600D03*
X30000000Y-17750000D03*
X14579600Y-18389600D03*
X57500000Y-24750000D03*
X24587200Y-24993600D03*
X35250000Y-17250000D03*
X13500000Y-19750000D03*
X46250000Y-17000000D03*
X28803600Y-25755600D03*
X51500000Y-24750000D03*
X38750000Y-22000000D03*
X52500000Y-17750000D03*
X31343600Y-25806400D03*
X44250000Y-17250000D03*
X13250000Y-16750000D03*
X39000000Y-18250000D03*
X64000000Y-17750000D03*
X60750000Y-16500000D03*
X22000000Y-19750000D03*
%TO.N,+BATT*%
X19259567Y-23711600D03*
X35602270Y-21385530D03*
X20332926Y-21094920D03*
X36961521Y-19987062D03*
%TO.N,Analog0_In*%
X40995600Y-13802000D03*
%TO.N,Analog2_In*%
X50429000Y-21463000D03*
%TO.N,CAN1_N*%
X25400000Y-26084000D03*
X34463181Y-25815581D03*
%TO.N,CAN1_P*%
X34540370Y-26812600D03*
X23814451Y-23785148D03*
X21486228Y-23236228D03*
%TD*%
D15*
%TO.N,GPIO1_out{slash}in*%
X26675767Y-19177000D02*
X26695400Y-19177000D01*
X18946982Y-18415000D02*
X20734982Y-16627000D01*
X20734982Y-16627000D02*
X24125767Y-16627000D01*
X17983200Y-18415000D02*
X18946982Y-18415000D01*
X24125767Y-16627000D02*
X26675767Y-19177000D01*
%TO.N,GPIO2_out{slash}in*%
X15443200Y-19964400D02*
X15722600Y-19685000D01*
X23065310Y-23036006D02*
X21894800Y-24206516D01*
X14442400Y-25544898D02*
X14442400Y-23685698D01*
X15735102Y-26837600D02*
X14442400Y-25544898D01*
X15443200Y-22684898D02*
X15443200Y-19964400D01*
X21894800Y-24206516D02*
X21894800Y-25196800D01*
X14442400Y-23685698D02*
X15443200Y-22684898D01*
X21894800Y-25196800D02*
X20254000Y-26837600D01*
X20254000Y-26837600D02*
X15735102Y-26837600D01*
X15722600Y-19685000D02*
X16713200Y-19685000D01*
%TO.N,GPIO3_out{slash}in*%
X17983200Y-19685000D02*
X19020484Y-19685000D01*
X25146000Y-18990735D02*
X25146000Y-21050833D01*
X25146000Y-21050833D02*
X26548767Y-22453600D01*
X19020484Y-19685000D02*
X21128484Y-17577000D01*
X26548767Y-22453600D02*
X27559000Y-22453600D01*
X23732265Y-17577000D02*
X25146000Y-18990735D01*
X21128484Y-17577000D02*
X23732265Y-17577000D01*
%TO.N,GPIO5_out{slash}in*%
X17983200Y-20955000D02*
X19093986Y-20955000D01*
X24196000Y-19384237D02*
X24196000Y-21444335D01*
X23338763Y-18527000D02*
X24196000Y-19384237D01*
X31560200Y-22922800D02*
X31560200Y-21628800D01*
X24196000Y-21444335D02*
X26530265Y-23778600D01*
X26530265Y-23778600D02*
X30704400Y-23778600D01*
X30704400Y-23778600D02*
X31560200Y-22922800D01*
X21521986Y-18527000D02*
X23338763Y-18527000D01*
X19093986Y-20955000D02*
X21521986Y-18527000D01*
X31560200Y-21628800D02*
X30810200Y-20878800D01*
%TO.N,GPIO6_out{slash}in*%
X34772600Y-19177000D02*
X30962600Y-19177000D01*
X36626800Y-26111200D02*
X36626800Y-21031200D01*
X15341600Y-27787600D02*
X34950400Y-27787600D01*
X36626800Y-21031200D02*
X34772600Y-19177000D01*
X14332046Y-26813404D02*
X14367404Y-26813404D01*
X14367404Y-26813404D02*
X15341600Y-27787600D01*
X34950400Y-27787600D02*
X36626800Y-26111200D01*
%TO.N,GND*%
X62865000Y-18885000D02*
X64000000Y-17750000D01*
X62865000Y-20370800D02*
X62865000Y-18885000D01*
X28829000Y-18921000D02*
X30000000Y-17750000D01*
X28829000Y-19685000D02*
X28829000Y-18921000D01*
%TO.N,+BATT*%
X20332926Y-21094920D02*
X22669720Y-21094920D01*
X20332926Y-21094920D02*
X19202846Y-22225000D01*
X23246000Y-21671200D02*
X23246000Y-21837837D01*
X34440972Y-21385530D02*
X35602270Y-21385530D01*
X19259567Y-23711600D02*
X19259567Y-25008913D01*
X50698400Y-22606000D02*
X57734200Y-22606000D01*
X41859200Y-20015200D02*
X41859200Y-21937787D01*
X41831062Y-19987062D02*
X41859200Y-20015200D01*
X23246000Y-21837837D02*
X26136763Y-24728600D01*
X22669720Y-21094920D02*
X23246000Y-21671200D01*
X44579013Y-24657600D02*
X48646800Y-24657600D01*
X16306800Y-25887600D02*
X15392400Y-24973200D01*
X15976600Y-23495000D02*
X16713200Y-23495000D01*
X31097902Y-24728600D02*
X34440972Y-21385530D01*
X36961521Y-19987062D02*
X41831062Y-19987062D01*
X48646800Y-24657600D02*
X50698400Y-22606000D01*
X18380880Y-25887600D02*
X16306800Y-25887600D01*
X19202846Y-22225000D02*
X17983200Y-22225000D01*
X41859200Y-21937787D02*
X44579013Y-24657600D01*
X57734200Y-22606000D02*
X60655200Y-19685000D01*
X19259567Y-25008913D02*
X18380880Y-25887600D01*
X15392400Y-24079200D02*
X15976600Y-23495000D01*
X15392400Y-24973200D02*
X15392400Y-24079200D01*
X42491462Y-19354800D02*
X41859200Y-19987062D01*
X26136763Y-24728600D02*
X31097902Y-24728600D01*
X41859200Y-19987062D02*
X41859200Y-20015200D01*
X43764200Y-19354800D02*
X42491462Y-19354800D01*
%TO.N,Analog0_In*%
X18560920Y-13777000D02*
X16713200Y-15624720D01*
X16713200Y-15624720D02*
X16713200Y-15875000D01*
X40995600Y-13802000D02*
X40970600Y-13777000D01*
X40970600Y-13777000D02*
X18560920Y-13777000D01*
%TO.N,Analog1_In*%
X39681498Y-14777000D02*
X41399459Y-14777000D01*
X17983200Y-15875000D02*
X19131200Y-14727000D01*
X48047400Y-23707600D02*
X46821600Y-23707600D01*
X39631498Y-14727000D02*
X39681498Y-14777000D01*
X42399459Y-13777000D02*
X48095098Y-13777000D01*
X48095098Y-13777000D02*
X49454000Y-15135902D01*
X41399459Y-14777000D02*
X42399459Y-13777000D01*
X49454000Y-22301000D02*
X48047400Y-23707600D01*
X19131200Y-14727000D02*
X39631498Y-14727000D01*
X49454000Y-15135902D02*
X49454000Y-22301000D01*
X46821600Y-23707600D02*
X45821600Y-22707600D01*
%TO.N,Analog2_In*%
X50429000Y-14767400D02*
X50429000Y-21463000D01*
X15443200Y-16755000D02*
X15443200Y-14795500D01*
X48488600Y-12827000D02*
X50429000Y-14767400D01*
X17411700Y-12827000D02*
X48488600Y-12827000D01*
X15833200Y-17145000D02*
X15443200Y-16755000D01*
X16713200Y-17145000D02*
X15833200Y-17145000D01*
X15443200Y-14795500D02*
X17411700Y-12827000D01*
%TO.N,Analog3_In*%
X46883400Y-14727000D02*
X47879000Y-15722600D01*
X19701480Y-15677000D02*
X39237995Y-15677000D01*
X47879000Y-15722600D02*
X47879000Y-19354800D01*
X41792961Y-15727000D02*
X42792961Y-14727000D01*
X39287995Y-15727000D02*
X41792961Y-15727000D01*
X17983200Y-17145000D02*
X18233480Y-17145000D01*
X18233480Y-17145000D02*
X19701480Y-15677000D01*
X39237995Y-15677000D02*
X39287995Y-15727000D01*
X42792961Y-14727000D02*
X46883400Y-14727000D01*
D16*
%TO.N,CAN1_N*%
X25878600Y-26562600D02*
X25400000Y-26084000D01*
X33716162Y-26562600D02*
X25878600Y-26562600D01*
X34463181Y-25815581D02*
X33716162Y-26562600D01*
%TO.N,CAN1_P*%
X23814451Y-23785148D02*
X23814451Y-25559112D01*
X25317939Y-27062600D02*
X34290370Y-27062600D01*
X19858628Y-23250000D02*
X19570228Y-22961600D01*
X34290370Y-27062600D02*
X34540370Y-26812600D01*
X21486228Y-23236228D02*
X21472456Y-23250000D01*
X19570228Y-22961600D02*
X18516600Y-22961600D01*
X18516600Y-22961600D02*
X17983200Y-23495000D01*
X21472456Y-23250000D02*
X19858628Y-23250000D01*
X23814451Y-25559112D02*
X25317939Y-27062600D01*
%TD*%
%TA.AperFunction,Conductor*%
%TO.N,GND*%
G36*
X16829733Y-11958185D02*
G01*
X16875488Y-12010989D01*
X16885432Y-12080147D01*
X16856407Y-12143703D01*
X16850373Y-12150183D01*
X16802193Y-12198361D01*
X16799790Y-12200701D01*
X16740492Y-12256872D01*
X16740381Y-12257036D01*
X16725437Y-12275117D01*
X14852853Y-14147701D01*
X14845450Y-14154526D01*
X14803841Y-14189870D01*
X14754403Y-14254905D01*
X14752335Y-14257550D01*
X14701170Y-14321201D01*
X14701168Y-14321204D01*
X14701079Y-14321385D01*
X14688729Y-14341296D01*
X14688600Y-14341464D01*
X14688600Y-14341465D01*
X14654293Y-14415617D01*
X14652844Y-14418641D01*
X14616558Y-14491808D01*
X14616554Y-14491819D01*
X14616509Y-14492003D01*
X14608727Y-14514109D01*
X14608641Y-14514294D01*
X14608635Y-14514310D01*
X14591072Y-14594095D01*
X14590307Y-14597360D01*
X14570599Y-14676611D01*
X14570594Y-14676810D01*
X14567745Y-14700075D01*
X14567700Y-14700278D01*
X14567700Y-14781962D01*
X14567655Y-14785320D01*
X14565443Y-14866972D01*
X14565478Y-14867155D01*
X14567700Y-14890523D01*
X14567700Y-16714378D01*
X14567291Y-16724442D01*
X14562860Y-16778845D01*
X14573888Y-16859790D01*
X14574296Y-16863120D01*
X14583127Y-16944316D01*
X14583129Y-16944327D01*
X14583190Y-16944506D01*
X14588540Y-16967331D01*
X14588566Y-16967525D01*
X14588569Y-16967537D01*
X14616740Y-17044219D01*
X14617855Y-17047385D01*
X14643931Y-17124776D01*
X14643934Y-17124782D01*
X14644032Y-17124945D01*
X14654169Y-17146099D01*
X14654236Y-17146283D01*
X14654240Y-17146290D01*
X14698246Y-17215139D01*
X14700015Y-17217990D01*
X14742112Y-17287955D01*
X14742242Y-17288092D01*
X14756692Y-17306575D01*
X14756800Y-17306744D01*
X14814595Y-17364539D01*
X14816902Y-17366910D01*
X14873066Y-17426203D01*
X14873068Y-17426204D01*
X14873071Y-17426207D01*
X14873228Y-17426314D01*
X14891321Y-17441265D01*
X15185399Y-17735343D01*
X15192226Y-17742749D01*
X15227561Y-17784350D01*
X15227568Y-17784355D01*
X15227569Y-17784357D01*
X15292628Y-17833813D01*
X15295212Y-17835832D01*
X15318186Y-17854300D01*
X15358902Y-17887030D01*
X15359072Y-17887114D01*
X15379014Y-17899483D01*
X15379171Y-17899602D01*
X15453343Y-17933917D01*
X15456320Y-17935344D01*
X15529507Y-17971641D01*
X15529683Y-17971684D01*
X15551826Y-17979480D01*
X15552003Y-17979562D01*
X15552006Y-17979563D01*
X15605312Y-17991296D01*
X15631773Y-17997120D01*
X15635022Y-17997881D01*
X15656925Y-18003328D01*
X15717231Y-18038610D01*
X15748890Y-18100895D01*
X15745659Y-18159657D01*
X15744038Y-18164998D01*
X15744040Y-18165000D01*
X16498717Y-18165000D01*
X16427399Y-18249993D01*
X16388200Y-18357694D01*
X16388200Y-18472306D01*
X16427399Y-18580007D01*
X16498717Y-18665000D01*
X15744040Y-18665000D01*
X15740830Y-18669326D01*
X15741317Y-18723839D01*
X15704069Y-18782951D01*
X15640775Y-18812542D01*
X15638774Y-18812832D01*
X15617814Y-18815688D01*
X15614481Y-18816096D01*
X15533280Y-18824927D01*
X15533090Y-18824992D01*
X15510265Y-18830341D01*
X15510069Y-18830367D01*
X15510063Y-18830368D01*
X15510063Y-18830369D01*
X15487167Y-18838780D01*
X15433378Y-18858541D01*
X15430214Y-18859654D01*
X15352826Y-18885730D01*
X15352817Y-18885734D01*
X15352640Y-18885841D01*
X15331511Y-18895965D01*
X15331313Y-18896037D01*
X15262492Y-18940026D01*
X15259642Y-18941794D01*
X15189646Y-18983910D01*
X15189641Y-18983914D01*
X15189490Y-18984058D01*
X15171036Y-18998485D01*
X15170860Y-18998597D01*
X15170855Y-18998601D01*
X15113094Y-19056361D01*
X15110690Y-19058701D01*
X15070991Y-19096307D01*
X15051392Y-19114872D01*
X15051281Y-19115036D01*
X15036337Y-19133117D01*
X14852853Y-19316601D01*
X14845450Y-19323426D01*
X14803841Y-19358770D01*
X14754403Y-19423805D01*
X14752335Y-19426450D01*
X14701170Y-19490101D01*
X14701168Y-19490104D01*
X14701079Y-19490285D01*
X14688729Y-19510196D01*
X14688600Y-19510364D01*
X14688600Y-19510365D01*
X14654293Y-19584517D01*
X14652844Y-19587541D01*
X14616558Y-19660708D01*
X14616554Y-19660719D01*
X14616509Y-19660903D01*
X14608727Y-19683009D01*
X14608641Y-19683194D01*
X14608635Y-19683210D01*
X14591072Y-19762995D01*
X14590307Y-19766260D01*
X14570599Y-19845511D01*
X14570594Y-19845710D01*
X14567745Y-19868975D01*
X14567700Y-19869178D01*
X14567700Y-19950862D01*
X14567655Y-19954220D01*
X14565443Y-20035872D01*
X14565478Y-20036055D01*
X14567700Y-20059423D01*
X14567700Y-22270891D01*
X14548015Y-22337930D01*
X14531381Y-22358572D01*
X13852053Y-23037899D01*
X13844650Y-23044724D01*
X13803041Y-23080068D01*
X13753603Y-23145103D01*
X13751535Y-23147748D01*
X13700370Y-23211399D01*
X13700368Y-23211402D01*
X13700279Y-23211583D01*
X13687929Y-23231494D01*
X13687800Y-23231662D01*
X13687800Y-23231663D01*
X13653493Y-23305815D01*
X13652044Y-23308839D01*
X13615758Y-23382006D01*
X13615754Y-23382017D01*
X13615709Y-23382201D01*
X13607927Y-23404307D01*
X13607841Y-23404492D01*
X13607835Y-23404508D01*
X13590272Y-23484293D01*
X13589507Y-23487558D01*
X13569799Y-23566809D01*
X13569794Y-23567008D01*
X13566945Y-23590273D01*
X13566900Y-23590476D01*
X13566900Y-23672160D01*
X13566855Y-23675518D01*
X13564643Y-23757170D01*
X13564678Y-23757353D01*
X13566900Y-23780721D01*
X13566900Y-25504276D01*
X13566491Y-25514340D01*
X13562060Y-25568743D01*
X13573088Y-25649688D01*
X13573496Y-25653018D01*
X13582327Y-25734214D01*
X13582329Y-25734225D01*
X13582390Y-25734404D01*
X13587740Y-25757229D01*
X13587766Y-25757423D01*
X13587769Y-25757435D01*
X13615940Y-25834117D01*
X13617055Y-25837283D01*
X13643131Y-25914674D01*
X13643134Y-25914680D01*
X13643232Y-25914843D01*
X13653369Y-25935997D01*
X13653436Y-25936181D01*
X13653440Y-25936188D01*
X13697446Y-26005037D01*
X13699214Y-26007887D01*
X13710513Y-26026665D01*
X13728210Y-26094256D01*
X13706555Y-26160685D01*
X13696414Y-26173568D01*
X13599512Y-26281189D01*
X13504867Y-26445119D01*
X13504864Y-26445126D01*
X13462742Y-26574766D01*
X13446372Y-26625148D01*
X13426586Y-26813404D01*
X13446372Y-27001660D01*
X13446373Y-27001663D01*
X13504864Y-27181681D01*
X13504867Y-27181688D01*
X13599513Y-27345620D01*
X13726175Y-27486292D01*
X13879311Y-27597552D01*
X13879316Y-27597555D01*
X13919780Y-27615571D01*
X13957025Y-27641169D01*
X14693799Y-28377943D01*
X14700626Y-28385349D01*
X14735961Y-28426950D01*
X14735968Y-28426955D01*
X14735969Y-28426957D01*
X14801028Y-28476413D01*
X14803620Y-28478439D01*
X14806124Y-28480452D01*
X14806634Y-28480862D01*
X14846546Y-28538210D01*
X14849117Y-28608033D01*
X14813532Y-28668161D01*
X14751087Y-28699505D01*
X14728935Y-28701500D01*
X12062500Y-28701500D01*
X11995461Y-28681815D01*
X11949706Y-28629011D01*
X11938500Y-28577500D01*
X11938500Y-12062500D01*
X11958185Y-11995461D01*
X12010989Y-11949706D01*
X12062500Y-11938500D01*
X16762694Y-11938500D01*
X16829733Y-11958185D01*
G37*
%TD.AperFunction*%
%TA.AperFunction,Conductor*%
G36*
X68776539Y-11958185D02*
G01*
X68822294Y-12010989D01*
X68833500Y-12062500D01*
X68833500Y-28577500D01*
X68813815Y-28644539D01*
X68761011Y-28690294D01*
X68709500Y-28701500D01*
X35570460Y-28701500D01*
X35503421Y-28681815D01*
X35457666Y-28629011D01*
X35447722Y-28559853D01*
X35476747Y-28496297D01*
X35497217Y-28478604D01*
X35496903Y-28478213D01*
X35502136Y-28474004D01*
X35502144Y-28474000D01*
X35559938Y-28416204D01*
X35562233Y-28413969D01*
X35621607Y-28357729D01*
X35621706Y-28357583D01*
X35636664Y-28339478D01*
X37217160Y-26758982D01*
X37224540Y-26752179D01*
X37266157Y-26716831D01*
X37315641Y-26651733D01*
X37317663Y-26649149D01*
X37368830Y-26585497D01*
X37368909Y-26585338D01*
X37381289Y-26565377D01*
X37381402Y-26565229D01*
X37415705Y-26491083D01*
X37417131Y-26488103D01*
X37453441Y-26414893D01*
X37453485Y-26414714D01*
X37461284Y-26392563D01*
X37461362Y-26392397D01*
X37478927Y-26312597D01*
X37479694Y-26309325D01*
X37499399Y-26230092D01*
X37499400Y-26230089D01*
X37499404Y-26229915D01*
X37502261Y-26206591D01*
X37502300Y-26206416D01*
X37502300Y-26124736D01*
X37502345Y-26121378D01*
X37503015Y-26096642D01*
X37504557Y-26039727D01*
X37504520Y-26039534D01*
X37502300Y-26016175D01*
X37502300Y-21071829D01*
X37502709Y-21061764D01*
X37506265Y-21018103D01*
X37507140Y-21007352D01*
X37506588Y-21003298D01*
X37506962Y-21000820D01*
X37506958Y-21000639D01*
X37506990Y-21000638D01*
X37517044Y-20934215D01*
X37563189Y-20881752D01*
X37629453Y-20862562D01*
X40859700Y-20862562D01*
X40926739Y-20882247D01*
X40972494Y-20935051D01*
X40983700Y-20986562D01*
X40983700Y-21897165D01*
X40983291Y-21907229D01*
X40978860Y-21961632D01*
X40989888Y-22042577D01*
X40990296Y-22045907D01*
X40999127Y-22127103D01*
X40999129Y-22127114D01*
X40999190Y-22127293D01*
X41004540Y-22150118D01*
X41004566Y-22150312D01*
X41004569Y-22150324D01*
X41032740Y-22227006D01*
X41033855Y-22230172D01*
X41059931Y-22307563D01*
X41059934Y-22307569D01*
X41060032Y-22307732D01*
X41070169Y-22328886D01*
X41070236Y-22329070D01*
X41070240Y-22329077D01*
X41114246Y-22397926D01*
X41116009Y-22400768D01*
X41146882Y-22452079D01*
X41158112Y-22470742D01*
X41158242Y-22470879D01*
X41172692Y-22489362D01*
X41172800Y-22489531D01*
X41230595Y-22547326D01*
X41232902Y-22549697D01*
X41289066Y-22608990D01*
X41289068Y-22608991D01*
X41289071Y-22608994D01*
X41289228Y-22609101D01*
X41307321Y-22624052D01*
X43931212Y-25247943D01*
X43938039Y-25255349D01*
X43973374Y-25296950D01*
X43973381Y-25296955D01*
X43973382Y-25296957D01*
X44038441Y-25346413D01*
X44041025Y-25348432D01*
X44051984Y-25357242D01*
X44104715Y-25399630D01*
X44104885Y-25399714D01*
X44124827Y-25412083D01*
X44124984Y-25412202D01*
X44199156Y-25446517D01*
X44202133Y-25447944D01*
X44275320Y-25484241D01*
X44275496Y-25484284D01*
X44297639Y-25492080D01*
X44297816Y-25492162D01*
X44297819Y-25492163D01*
X44351125Y-25503896D01*
X44377586Y-25509720D01*
X44380835Y-25510481D01*
X44460123Y-25530200D01*
X44460296Y-25530204D01*
X44483615Y-25533060D01*
X44483797Y-25533100D01*
X44565475Y-25533100D01*
X44568833Y-25533145D01*
X44650486Y-25535357D01*
X44650668Y-25535321D01*
X44674036Y-25533100D01*
X48606179Y-25533100D01*
X48616242Y-25533508D01*
X48670648Y-25537939D01*
X48751606Y-25526907D01*
X48754923Y-25526502D01*
X48836116Y-25517673D01*
X48836281Y-25517617D01*
X48859157Y-25512255D01*
X48859337Y-25512231D01*
X48936060Y-25484042D01*
X48939106Y-25482969D01*
X49016580Y-25456867D01*
X49016728Y-25456778D01*
X49037916Y-25446624D01*
X49038088Y-25446561D01*
X49106950Y-25402544D01*
X49109751Y-25400807D01*
X49179754Y-25358689D01*
X49179883Y-25358566D01*
X49198397Y-25344094D01*
X49198402Y-25344090D01*
X49198544Y-25344000D01*
X49256338Y-25286204D01*
X49258633Y-25283969D01*
X49318007Y-25227729D01*
X49318106Y-25227583D01*
X49333064Y-25209478D01*
X51024725Y-23517819D01*
X51086048Y-23484334D01*
X51112406Y-23481500D01*
X57693579Y-23481500D01*
X57703642Y-23481908D01*
X57758048Y-23486339D01*
X57839006Y-23475307D01*
X57842323Y-23474902D01*
X57923516Y-23466073D01*
X57923681Y-23466017D01*
X57946557Y-23460655D01*
X57946737Y-23460631D01*
X58023460Y-23432442D01*
X58026506Y-23431369D01*
X58103980Y-23405267D01*
X58104128Y-23405178D01*
X58125316Y-23395024D01*
X58125488Y-23394961D01*
X58194350Y-23350944D01*
X58197151Y-23349207D01*
X58267154Y-23307089D01*
X58267283Y-23306966D01*
X58285797Y-23292494D01*
X58285802Y-23292490D01*
X58285944Y-23292400D01*
X58343738Y-23234604D01*
X58346033Y-23232369D01*
X58405407Y-23176129D01*
X58405506Y-23175983D01*
X58420464Y-23157878D01*
X59820433Y-21757909D01*
X59881754Y-21724426D01*
X59951446Y-21729410D01*
X60007379Y-21771282D01*
X60031796Y-21836746D01*
X60028318Y-21876032D01*
X59983387Y-22053458D01*
X59983385Y-22053470D01*
X59962859Y-22301194D01*
X59962859Y-22301205D01*
X59983385Y-22548929D01*
X59983387Y-22548938D01*
X60044412Y-22789917D01*
X60144266Y-23017564D01*
X60244564Y-23171082D01*
X60751338Y-22664307D01*
X60838577Y-22803148D01*
X60966052Y-22930623D01*
X61104891Y-23017861D01*
X60597942Y-23524809D01*
X60644768Y-23561255D01*
X60644770Y-23561256D01*
X60863385Y-23679564D01*
X60863396Y-23679569D01*
X61098506Y-23760283D01*
X61343707Y-23801200D01*
X61592293Y-23801200D01*
X61837493Y-23760283D01*
X62072603Y-23679569D01*
X62072614Y-23679564D01*
X62291228Y-23561257D01*
X62291231Y-23561255D01*
X62338056Y-23524809D01*
X61831108Y-23017861D01*
X61969948Y-22930623D01*
X62097423Y-22803148D01*
X62184661Y-22664309D01*
X62691434Y-23171082D01*
X62760893Y-23064770D01*
X62814039Y-23019413D01*
X62883271Y-23009990D01*
X62946606Y-23039492D01*
X62968510Y-23064771D01*
X63073833Y-23225982D01*
X63080705Y-23233447D01*
X63242256Y-23408938D01*
X63438491Y-23561674D01*
X63491724Y-23590482D01*
X63656332Y-23679564D01*
X63657190Y-23680028D01*
X63876141Y-23755194D01*
X63890964Y-23760283D01*
X63892386Y-23760771D01*
X64137665Y-23801700D01*
X64386335Y-23801700D01*
X64631614Y-23760771D01*
X64866810Y-23680028D01*
X65085509Y-23561674D01*
X65281744Y-23408938D01*
X65450164Y-23225985D01*
X65586173Y-23017807D01*
X65686063Y-22790081D01*
X65747108Y-22549021D01*
X65750856Y-22503790D01*
X65767643Y-22301205D01*
X65767643Y-22301194D01*
X65747109Y-22053387D01*
X65747107Y-22053375D01*
X65686063Y-21812318D01*
X65586173Y-21584593D01*
X65450166Y-21376417D01*
X65415153Y-21338383D01*
X65384231Y-21275728D01*
X65392091Y-21206302D01*
X65436239Y-21152147D01*
X65466121Y-21137119D01*
X65679599Y-21063832D01*
X65679602Y-21063830D01*
X65679610Y-21063828D01*
X65898309Y-20945474D01*
X66094544Y-20792738D01*
X66262964Y-20609785D01*
X66398973Y-20401607D01*
X66498863Y-20173881D01*
X66559908Y-19932821D01*
X66565182Y-19869178D01*
X66580443Y-19685005D01*
X66580443Y-19684994D01*
X66559909Y-19437187D01*
X66559907Y-19437175D01*
X66498863Y-19196118D01*
X66398973Y-18968393D01*
X66262966Y-18760217D01*
X66230649Y-18725112D01*
X66094544Y-18577262D01*
X65898309Y-18424526D01*
X65898307Y-18424525D01*
X65898306Y-18424524D01*
X65679611Y-18306172D01*
X65679602Y-18306169D01*
X65444416Y-18225429D01*
X65199135Y-18184500D01*
X64950465Y-18184500D01*
X64705183Y-18225429D01*
X64469997Y-18306169D01*
X64469988Y-18306172D01*
X64251293Y-18424524D01*
X64055057Y-18577261D01*
X63886633Y-18760217D01*
X63750625Y-18968395D01*
X63742300Y-18987373D01*
X63697342Y-19040858D01*
X63630605Y-19061545D01*
X63569729Y-19046614D01*
X63469614Y-18992435D01*
X63469603Y-18992430D01*
X63234493Y-18911716D01*
X62989293Y-18870800D01*
X62740707Y-18870800D01*
X62495506Y-18911716D01*
X62260396Y-18992430D01*
X62260384Y-18992435D01*
X62160270Y-19046614D01*
X62091941Y-19061209D01*
X62026569Y-19036546D01*
X61987697Y-18987369D01*
X61979373Y-18968393D01*
X61843366Y-18760217D01*
X61811049Y-18725112D01*
X61674944Y-18577262D01*
X61478709Y-18424526D01*
X61478707Y-18424525D01*
X61478706Y-18424524D01*
X61260011Y-18306172D01*
X61260002Y-18306169D01*
X61024816Y-18225429D01*
X60779535Y-18184500D01*
X60530865Y-18184500D01*
X60285583Y-18225429D01*
X60050397Y-18306169D01*
X60050388Y-18306172D01*
X59831693Y-18424524D01*
X59635457Y-18577261D01*
X59467033Y-18760217D01*
X59331026Y-18968393D01*
X59231136Y-19196118D01*
X59170092Y-19437175D01*
X59170090Y-19437187D01*
X59149705Y-19683210D01*
X59149557Y-19685000D01*
X59162857Y-19845511D01*
X59165280Y-19874750D01*
X59151198Y-19943185D01*
X59129384Y-19972670D01*
X57407875Y-21694181D01*
X57346552Y-21727666D01*
X57320194Y-21730500D01*
X51444061Y-21730500D01*
X51377022Y-21710815D01*
X51331267Y-21658011D01*
X51320740Y-21593539D01*
X51322598Y-21575864D01*
X51334460Y-21463000D01*
X51314674Y-21274744D01*
X51310567Y-21262105D01*
X51304500Y-21223792D01*
X51304500Y-14808021D01*
X51304909Y-14797957D01*
X51306211Y-14781962D01*
X51309339Y-14743552D01*
X51298309Y-14662601D01*
X51297901Y-14659266D01*
X51289073Y-14578084D01*
X51289014Y-14577909D01*
X51283656Y-14555049D01*
X51283631Y-14554863D01*
X51255462Y-14478190D01*
X51254346Y-14475020D01*
X51228269Y-14397623D01*
X51228266Y-14397618D01*
X51228172Y-14397461D01*
X51218025Y-14376287D01*
X51217960Y-14376110D01*
X51173959Y-14307271D01*
X51172188Y-14304416D01*
X51130091Y-14234449D01*
X51130090Y-14234448D01*
X51130089Y-14234446D01*
X51129955Y-14234304D01*
X51115504Y-14215819D01*
X51115400Y-14215656D01*
X51057658Y-14157914D01*
X51055316Y-14155509D01*
X51047920Y-14147701D01*
X50999129Y-14096193D01*
X50998970Y-14096085D01*
X50980877Y-14081133D01*
X49136393Y-12236649D01*
X49129579Y-12229258D01*
X49094231Y-12187643D01*
X49059467Y-12161216D01*
X49018009Y-12104975D01*
X49013540Y-12035248D01*
X49047477Y-11974174D01*
X49109045Y-11941142D01*
X49134508Y-11938500D01*
X68709500Y-11938500D01*
X68776539Y-11958185D01*
G37*
%TD.AperFunction*%
%TA.AperFunction,Conductor*%
G36*
X23083285Y-24358688D02*
G01*
X23139218Y-24400560D01*
X23163635Y-24466024D01*
X23163951Y-24474870D01*
X23163951Y-25473606D01*
X23162183Y-25489617D01*
X23162425Y-25489640D01*
X23161691Y-25497406D01*
X23163890Y-25567374D01*
X23163951Y-25571269D01*
X23163951Y-25600032D01*
X23163952Y-25600050D01*
X23164504Y-25604423D01*
X23165419Y-25616053D01*
X23166853Y-25661679D01*
X23166854Y-25661682D01*
X23172774Y-25682060D01*
X23176719Y-25701108D01*
X23179379Y-25722166D01*
X23179382Y-25722177D01*
X23196188Y-25764626D01*
X23199971Y-25775675D01*
X23212705Y-25819507D01*
X23212706Y-25819509D01*
X23223511Y-25837778D01*
X23232068Y-25855246D01*
X23237677Y-25869412D01*
X23239883Y-25874984D01*
X23266717Y-25911918D01*
X23273129Y-25921680D01*
X23296370Y-25960977D01*
X23296374Y-25960981D01*
X23311376Y-25975983D01*
X23324014Y-25990781D01*
X23336484Y-26007945D01*
X23336487Y-26007949D01*
X23371664Y-26037049D01*
X23380305Y-26044912D01*
X24035812Y-26700419D01*
X24069297Y-26761742D01*
X24064313Y-26831434D01*
X24022441Y-26887367D01*
X23956977Y-26911784D01*
X23948131Y-26912100D01*
X21717006Y-26912100D01*
X21649967Y-26892415D01*
X21604212Y-26839611D01*
X21594268Y-26770453D01*
X21623293Y-26706897D01*
X21629325Y-26700419D01*
X21841693Y-26488051D01*
X22485160Y-25844582D01*
X22492542Y-25837778D01*
X22534157Y-25802431D01*
X22583641Y-25737333D01*
X22585663Y-25734749D01*
X22636830Y-25671097D01*
X22636909Y-25670938D01*
X22649289Y-25650977D01*
X22649402Y-25650829D01*
X22660278Y-25627322D01*
X22683705Y-25576683D01*
X22685131Y-25573703D01*
X22721441Y-25500493D01*
X22721485Y-25500314D01*
X22729284Y-25478163D01*
X22729362Y-25477997D01*
X22730338Y-25473566D01*
X22746927Y-25398197D01*
X22747694Y-25394925D01*
X22759251Y-25348454D01*
X22767400Y-25315689D01*
X22767404Y-25315515D01*
X22770261Y-25292191D01*
X22770300Y-25292016D01*
X22770300Y-25210310D01*
X22770345Y-25206978D01*
X22772035Y-25144583D01*
X22772557Y-25125327D01*
X22772520Y-25125134D01*
X22770300Y-25101775D01*
X22770300Y-24620521D01*
X22789985Y-24553482D01*
X22806615Y-24532844D01*
X22952270Y-24387188D01*
X23013593Y-24353704D01*
X23083285Y-24358688D01*
G37*
%TD.AperFunction*%
%TA.AperFunction,Conductor*%
G36*
X35402756Y-22263739D02*
G01*
X35507624Y-22286030D01*
X35507625Y-22286030D01*
X35627300Y-22286030D01*
X35694339Y-22305715D01*
X35740094Y-22358519D01*
X35751300Y-22410030D01*
X35751300Y-25697193D01*
X35731615Y-25764232D01*
X35714981Y-25784874D01*
X35579174Y-25920681D01*
X35517851Y-25954166D01*
X35448159Y-25949182D01*
X35392226Y-25907310D01*
X35367809Y-25841846D01*
X35368171Y-25820044D01*
X35368641Y-25815581D01*
X35348855Y-25627325D01*
X35290360Y-25447297D01*
X35195714Y-25283365D01*
X35069052Y-25142693D01*
X35069051Y-25142692D01*
X34915915Y-25031432D01*
X34915910Y-25031429D01*
X34742988Y-24954438D01*
X34742983Y-24954436D01*
X34597182Y-24923446D01*
X34557827Y-24915081D01*
X34368535Y-24915081D01*
X34336078Y-24921979D01*
X34183378Y-24954436D01*
X34183373Y-24954438D01*
X34010451Y-25031429D01*
X34010446Y-25031432D01*
X33857310Y-25142692D01*
X33730647Y-25283366D01*
X33636002Y-25447296D01*
X33635999Y-25447303D01*
X33577508Y-25627320D01*
X33577507Y-25627322D01*
X33564012Y-25755723D01*
X33537427Y-25820338D01*
X33528373Y-25830441D01*
X33483035Y-25875780D01*
X33421712Y-25909266D01*
X33395353Y-25912100D01*
X26381080Y-25912100D01*
X26314041Y-25892415D01*
X26268286Y-25839611D01*
X26263149Y-25826420D01*
X26260904Y-25819510D01*
X26243652Y-25766417D01*
X26241657Y-25696578D01*
X26277737Y-25636745D01*
X26340438Y-25605916D01*
X26361584Y-25604100D01*
X31057281Y-25604100D01*
X31067344Y-25604508D01*
X31121750Y-25608939D01*
X31202708Y-25597907D01*
X31206025Y-25597502D01*
X31287218Y-25588673D01*
X31287383Y-25588617D01*
X31310259Y-25583255D01*
X31310439Y-25583231D01*
X31387162Y-25555042D01*
X31390208Y-25553969D01*
X31467682Y-25527867D01*
X31467830Y-25527778D01*
X31489018Y-25517624D01*
X31489190Y-25517561D01*
X31558052Y-25473544D01*
X31560853Y-25471807D01*
X31630856Y-25429689D01*
X31630985Y-25429566D01*
X31649499Y-25415094D01*
X31649504Y-25415090D01*
X31649646Y-25415000D01*
X31707440Y-25357204D01*
X31709735Y-25354969D01*
X31769109Y-25298729D01*
X31769208Y-25298583D01*
X31784166Y-25280478D01*
X34767297Y-22297349D01*
X34828620Y-22263864D01*
X34854978Y-22261030D01*
X35376976Y-22261030D01*
X35402756Y-22263739D01*
G37*
%TD.AperFunction*%
%TA.AperFunction,Conductor*%
G36*
X20895247Y-23920185D02*
G01*
X20901093Y-23924182D01*
X20971564Y-23975382D01*
X21014230Y-24030712D01*
X21020172Y-24080853D01*
X21022382Y-24080914D01*
X21022194Y-24087826D01*
X21019345Y-24111091D01*
X21019300Y-24111294D01*
X21019300Y-24192978D01*
X21019255Y-24196336D01*
X21017043Y-24277988D01*
X21017078Y-24278171D01*
X21019300Y-24301539D01*
X21019300Y-24782794D01*
X20999615Y-24849833D01*
X20982981Y-24870475D01*
X20114260Y-25739195D01*
X20052937Y-25772680D01*
X19983245Y-25767696D01*
X19927312Y-25725824D01*
X19902895Y-25660360D01*
X19917747Y-25592087D01*
X19927854Y-25576485D01*
X19948408Y-25549446D01*
X19950430Y-25546862D01*
X19957603Y-25537939D01*
X20001597Y-25483210D01*
X20001676Y-25483051D01*
X20014056Y-25463090D01*
X20014169Y-25462942D01*
X20015547Y-25459965D01*
X20048472Y-25388796D01*
X20049898Y-25385816D01*
X20086208Y-25312606D01*
X20086252Y-25312427D01*
X20094051Y-25290276D01*
X20094129Y-25290110D01*
X20094981Y-25286242D01*
X20111694Y-25210310D01*
X20112461Y-25207038D01*
X20118315Y-25183500D01*
X20132167Y-25127802D01*
X20132171Y-25127628D01*
X20135028Y-25104304D01*
X20135067Y-25104129D01*
X20135067Y-25022449D01*
X20135112Y-25019091D01*
X20135301Y-25012100D01*
X20137324Y-24937440D01*
X20137287Y-24937247D01*
X20135067Y-24913888D01*
X20135067Y-24024500D01*
X20154752Y-23957461D01*
X20207556Y-23911706D01*
X20259067Y-23900500D01*
X20828208Y-23900500D01*
X20895247Y-23920185D01*
G37*
%TD.AperFunction*%
%TA.AperFunction,Conductor*%
G36*
X24670154Y-24500581D02*
G01*
X24676632Y-24506613D01*
X25183587Y-25013568D01*
X25217072Y-25074891D01*
X25212088Y-25144583D01*
X25170216Y-25200516D01*
X25126250Y-25220468D01*
X25126374Y-25220849D01*
X25122987Y-25221949D01*
X25121688Y-25222539D01*
X25120196Y-25222856D01*
X25120192Y-25222857D01*
X24947270Y-25299848D01*
X24947265Y-25299851D01*
X24794135Y-25411106D01*
X24794125Y-25411115D01*
X24783136Y-25423319D01*
X24723648Y-25459965D01*
X24653791Y-25458632D01*
X24603309Y-25428024D01*
X24501270Y-25325985D01*
X24467785Y-25264662D01*
X24464951Y-25238304D01*
X24464951Y-24594294D01*
X24484636Y-24527255D01*
X24537440Y-24481500D01*
X24606598Y-24471556D01*
X24670154Y-24500581D01*
G37*
%TD.AperFunction*%
%TA.AperFunction,Conductor*%
G36*
X22322753Y-21990105D02*
G01*
X22343395Y-22006739D01*
X22374588Y-22037932D01*
X22403301Y-22082852D01*
X22419533Y-22127035D01*
X22420648Y-22130202D01*
X22446731Y-22207613D01*
X22446734Y-22207619D01*
X22446832Y-22207782D01*
X22456969Y-22228936D01*
X22457036Y-22229120D01*
X22457038Y-22229123D01*
X22457263Y-22229475D01*
X22457334Y-22229720D01*
X22460027Y-22235150D01*
X22459054Y-22235632D01*
X22476782Y-22296563D01*
X22456931Y-22363554D01*
X22444932Y-22379229D01*
X22332776Y-22503791D01*
X22304594Y-22552602D01*
X22284889Y-22578281D01*
X22282918Y-22580252D01*
X22221595Y-22613737D01*
X22151903Y-22608753D01*
X22103088Y-22575544D01*
X22092099Y-22563340D01*
X22092092Y-22563334D01*
X21938962Y-22452079D01*
X21938957Y-22452076D01*
X21766035Y-22375085D01*
X21766030Y-22375083D01*
X21620229Y-22344093D01*
X21580874Y-22335728D01*
X21391582Y-22335728D01*
X21359125Y-22342626D01*
X21206425Y-22375083D01*
X21206420Y-22375085D01*
X21033498Y-22452076D01*
X21033493Y-22452079D01*
X20880363Y-22563334D01*
X20875574Y-22567647D01*
X20812584Y-22597879D01*
X20792598Y-22599500D01*
X20365850Y-22599500D01*
X20298811Y-22579815D01*
X20253056Y-22527011D01*
X20243112Y-22457853D01*
X20272137Y-22394297D01*
X20278169Y-22387819D01*
X20402125Y-22263864D01*
X20659250Y-22006739D01*
X20720573Y-21973254D01*
X20746931Y-21970420D01*
X22255714Y-21970420D01*
X22322753Y-21990105D01*
G37*
%TD.AperFunction*%
%TA.AperFunction,Conductor*%
G36*
X22991796Y-19422185D02*
G01*
X23012438Y-19438819D01*
X23284181Y-19710562D01*
X23317666Y-19771885D01*
X23320500Y-19798243D01*
X23320500Y-20239860D01*
X23300815Y-20306899D01*
X23248011Y-20352654D01*
X23178853Y-20362598D01*
X23130390Y-20342319D01*
X23129510Y-20343784D01*
X23123750Y-20340318D01*
X23049617Y-20306020D01*
X23046592Y-20304570D01*
X22973420Y-20268282D01*
X22973416Y-20268280D01*
X22973413Y-20268279D01*
X22973407Y-20268277D01*
X22973400Y-20268275D01*
X22973208Y-20268227D01*
X22951105Y-20260445D01*
X22950918Y-20260358D01*
X22950915Y-20260357D01*
X22871132Y-20242795D01*
X22867865Y-20242029D01*
X22788607Y-20222319D01*
X22788409Y-20222314D01*
X22765133Y-20219463D01*
X22764942Y-20219421D01*
X22764939Y-20219420D01*
X22764936Y-20219420D01*
X22764932Y-20219420D01*
X22683257Y-20219420D01*
X22679899Y-20219375D01*
X22598247Y-20217163D01*
X22598065Y-20217198D01*
X22574697Y-20219420D01*
X21367072Y-20219420D01*
X21300033Y-20199735D01*
X21254278Y-20146931D01*
X21244334Y-20077773D01*
X21273359Y-20014217D01*
X21279391Y-20007739D01*
X21848311Y-19438819D01*
X21909634Y-19405334D01*
X21935992Y-19402500D01*
X22924757Y-19402500D01*
X22991796Y-19422185D01*
G37*
%TD.AperFunction*%
%TA.AperFunction,Conductor*%
G36*
X46536433Y-15622185D02*
G01*
X46557075Y-15638819D01*
X46967181Y-16048925D01*
X47000666Y-16110248D01*
X47003500Y-16136606D01*
X47003500Y-18074172D01*
X46983815Y-18141211D01*
X46955663Y-18172025D01*
X46859258Y-18247060D01*
X46690833Y-18430017D01*
X46554826Y-18638193D01*
X46454936Y-18865920D01*
X46450312Y-18884179D01*
X46414771Y-18944334D01*
X46352350Y-18975725D01*
X46289845Y-18971018D01*
X46191089Y-18937115D01*
X45945893Y-18896200D01*
X45697307Y-18896200D01*
X45452109Y-18937115D01*
X45353354Y-18971018D01*
X45283555Y-18974167D01*
X45223134Y-18939080D01*
X45192886Y-18884174D01*
X45188265Y-18865925D01*
X45188264Y-18865923D01*
X45188263Y-18865919D01*
X45088373Y-18638193D01*
X45069834Y-18609817D01*
X44952366Y-18430017D01*
X44930757Y-18406544D01*
X44783944Y-18247062D01*
X44587709Y-18094326D01*
X44587707Y-18094325D01*
X44587706Y-18094324D01*
X44369011Y-17975972D01*
X44369002Y-17975969D01*
X44133816Y-17895229D01*
X43888535Y-17854300D01*
X43639865Y-17854300D01*
X43394583Y-17895229D01*
X43159397Y-17975969D01*
X43159388Y-17975972D01*
X42940693Y-18094324D01*
X42744457Y-18247061D01*
X42744456Y-18247062D01*
X42576036Y-18430015D01*
X42576035Y-18430017D01*
X42572563Y-18433789D01*
X42571050Y-18432396D01*
X42521437Y-18468076D01*
X42474330Y-18474153D01*
X42474334Y-18474279D01*
X42473098Y-18474312D01*
X42470273Y-18474677D01*
X42467618Y-18474460D01*
X42467609Y-18474461D01*
X42386677Y-18485487D01*
X42383347Y-18485895D01*
X42302142Y-18494727D01*
X42301952Y-18494792D01*
X42279127Y-18500141D01*
X42278925Y-18500168D01*
X42278923Y-18500169D01*
X42202226Y-18528346D01*
X42199060Y-18529460D01*
X42121681Y-18555533D01*
X42121679Y-18555534D01*
X42121505Y-18555639D01*
X42100365Y-18565769D01*
X42100174Y-18565839D01*
X42100171Y-18565840D01*
X42031368Y-18609817D01*
X42028519Y-18611585D01*
X41958508Y-18653710D01*
X41958503Y-18653714D01*
X41958352Y-18653858D01*
X41939898Y-18668285D01*
X41939722Y-18668397D01*
X41939717Y-18668401D01*
X41881956Y-18726161D01*
X41879552Y-18728501D01*
X41820253Y-18784672D01*
X41820251Y-18784675D01*
X41820139Y-18784841D01*
X41805198Y-18802918D01*
X41532873Y-19075244D01*
X41471553Y-19108728D01*
X41445194Y-19111562D01*
X37186815Y-19111562D01*
X37161034Y-19108852D01*
X37152222Y-19106979D01*
X37056167Y-19086562D01*
X36866875Y-19086562D01*
X36834418Y-19093460D01*
X36681718Y-19125917D01*
X36681713Y-19125919D01*
X36508791Y-19202910D01*
X36508786Y-19202913D01*
X36355656Y-19314168D01*
X36355646Y-19314177D01*
X36344657Y-19326381D01*
X36285169Y-19363027D01*
X36215312Y-19361694D01*
X36164830Y-19331086D01*
X35420393Y-18586649D01*
X35413579Y-18579258D01*
X35378231Y-18537643D01*
X35378230Y-18537642D01*
X35313207Y-18488213D01*
X35310561Y-18486144D01*
X35246902Y-18434973D01*
X35246894Y-18434968D01*
X35246720Y-18434882D01*
X35226782Y-18422514D01*
X35226629Y-18422398D01*
X35152497Y-18388100D01*
X35149472Y-18386650D01*
X35076300Y-18350362D01*
X35076296Y-18350360D01*
X35076293Y-18350359D01*
X35076287Y-18350357D01*
X35076280Y-18350355D01*
X35076088Y-18350307D01*
X35053985Y-18342525D01*
X35053798Y-18342438D01*
X35053795Y-18342437D01*
X34974012Y-18324875D01*
X34970745Y-18324109D01*
X34891487Y-18304399D01*
X34891289Y-18304394D01*
X34868013Y-18301543D01*
X34867822Y-18301501D01*
X34867819Y-18301500D01*
X34867816Y-18301500D01*
X34867812Y-18301500D01*
X34786137Y-18301500D01*
X34782779Y-18301455D01*
X34701127Y-18299243D01*
X34700945Y-18299278D01*
X34677577Y-18301500D01*
X31921079Y-18301500D01*
X31854040Y-18281815D01*
X31833402Y-18265185D01*
X31775929Y-18207712D01*
X31775928Y-18207711D01*
X31775927Y-18207710D01*
X31595262Y-18081207D01*
X31595254Y-18081203D01*
X31395369Y-17987995D01*
X31395355Y-17987990D01*
X31182324Y-17930909D01*
X31182322Y-17930908D01*
X31182320Y-17930908D01*
X31182318Y-17930907D01*
X31182314Y-17930907D01*
X30962602Y-17911685D01*
X30962598Y-17911685D01*
X30742885Y-17930907D01*
X30742875Y-17930909D01*
X30529844Y-17987990D01*
X30529835Y-17987994D01*
X30329944Y-18081204D01*
X30329942Y-18081205D01*
X30149268Y-18207713D01*
X29993313Y-18363668D01*
X29866806Y-18544341D01*
X29813548Y-18658552D01*
X29767375Y-18710991D01*
X29700181Y-18730142D01*
X29633300Y-18709926D01*
X29630042Y-18707721D01*
X29461406Y-18589639D01*
X29261593Y-18496466D01*
X29261587Y-18496463D01*
X29048634Y-18439402D01*
X29048626Y-18439401D01*
X28829002Y-18420187D01*
X28828998Y-18420187D01*
X28609373Y-18439401D01*
X28609366Y-18439402D01*
X28396404Y-18496466D01*
X28196593Y-18589640D01*
X28196589Y-18589643D01*
X28027955Y-18707720D01*
X27961748Y-18730047D01*
X27893981Y-18713036D01*
X27846169Y-18662088D01*
X27844450Y-18658549D01*
X27820897Y-18608039D01*
X27791195Y-18544343D01*
X27664688Y-18363671D01*
X27664686Y-18363668D01*
X27508730Y-18207712D01*
X27328062Y-18081207D01*
X27328054Y-18081203D01*
X27128169Y-17987995D01*
X27128155Y-17987990D01*
X26915124Y-17930909D01*
X26915122Y-17930908D01*
X26915120Y-17930908D01*
X26915118Y-17930907D01*
X26915114Y-17930907D01*
X26690007Y-17911213D01*
X26690215Y-17908824D01*
X26632919Y-17892000D01*
X26612277Y-17875366D01*
X25501092Y-16764181D01*
X25467607Y-16702858D01*
X25472591Y-16633166D01*
X25514463Y-16577233D01*
X25579927Y-16552816D01*
X25588773Y-16552500D01*
X38959916Y-16552500D01*
X38999803Y-16561275D01*
X39000430Y-16559416D01*
X39006792Y-16561559D01*
X39006798Y-16561562D01*
X39086574Y-16579121D01*
X39089822Y-16579882D01*
X39169106Y-16599600D01*
X39169279Y-16599604D01*
X39192597Y-16602460D01*
X39192779Y-16602500D01*
X39274458Y-16602500D01*
X39277816Y-16602545D01*
X39359468Y-16604757D01*
X39359650Y-16604721D01*
X39383018Y-16602500D01*
X41752340Y-16602500D01*
X41762403Y-16602908D01*
X41816809Y-16607339D01*
X41897767Y-16596307D01*
X41901084Y-16595902D01*
X41982277Y-16587073D01*
X41982442Y-16587017D01*
X42005318Y-16581655D01*
X42005498Y-16581631D01*
X42082221Y-16553442D01*
X42085267Y-16552369D01*
X42162741Y-16526267D01*
X42162889Y-16526178D01*
X42184077Y-16516024D01*
X42184249Y-16515961D01*
X42253111Y-16471944D01*
X42255912Y-16470207D01*
X42325915Y-16428089D01*
X42326044Y-16427966D01*
X42344558Y-16413494D01*
X42344563Y-16413490D01*
X42344705Y-16413400D01*
X42402499Y-16355604D01*
X42404794Y-16353369D01*
X42464168Y-16297129D01*
X42464267Y-16296983D01*
X42479225Y-16278878D01*
X43119286Y-15638819D01*
X43180609Y-15605334D01*
X43206967Y-15602500D01*
X46469394Y-15602500D01*
X46536433Y-15622185D01*
G37*
%TD.AperFunction*%
%TD*%
M02*
