M48
; DRILL file {KiCad 7.0.10} date Sun Jun  8 09:53:18 2025
; FORMAT={-:-/ absolute / inch / decimal}
; #@! TF.CreationDate,2025-06-08T09:53:18+02:00
; #@! TF.GenerationSoftware,Kicad,Pcbnew,7.0.10
; #@! TF.FileFunction,Plated,1,2,PTH
FMAT,2
INCH
; #@! TA.AperFunction,Plated,PTH,ViaDrill
T1C0.0157
; #@! TA.AperFunction,Plated,PTH,ComponentDrill
T2C0.0256
; #@! TA.AperFunction,Plated,PTH,ComponentDrill
T3C0.0520
; #@! TA.AperFunction,Plated,PTH,ComponentDrill
T4C0.0630
%
G90
G05
T1
X0.5217Y-0.6594
X0.5315Y-0.7776
X0.5643Y-1.0556
X0.574Y-0.724
X0.7583Y-0.9335
X0.8005Y-0.8305
X0.82Y-0.964
X0.8268Y-0.8745
X0.8459Y-0.9148
X0.8661Y-0.7776
X0.902Y-1.014
X0.9081Y-0.9069
X0.9376Y-0.9364
X0.968Y-0.984
X1.0Y-1.0269
X1.0335Y-0.6693
X1.134Y-1.014
X1.1811Y-0.6988
X1.234Y-1.016
X1.3568Y-1.0164
X1.3599Y-1.0556
X1.3878Y-0.6791
X1.4017Y-0.8419
X1.4552Y-0.7869
X1.5256Y-0.8661
X1.5354Y-0.7185
X1.614Y-0.5434
X1.7421Y-0.6791
X1.8209Y-0.6693
X1.9854Y-0.845
X2.0276Y-0.9744
X2.0669Y-0.6988
X2.2638Y-0.9744
X2.2835Y-0.7579
X2.3917Y-0.6496
X2.5197Y-0.6988
T2
X0.658Y-0.625
X0.658Y-0.675
X0.658Y-0.725
X0.658Y-0.775
X0.658Y-0.825
X0.658Y-0.875
X0.658Y-0.925
X0.658Y-0.975
X0.708Y-0.625
X0.708Y-0.675
X0.708Y-0.725
X0.708Y-0.775
X0.708Y-0.825
X0.708Y-0.875
X0.708Y-0.925
X0.708Y-0.975
T3
X1.051Y-0.755
X1.057Y-0.822
X1.085Y-0.884
X1.135Y-0.775
X1.185Y-0.884
X1.213Y-0.822
X1.219Y-0.755
T4
X1.723Y-0.762
X1.723Y-0.851
X1.804Y-0.803
X1.804Y-0.894
X1.885Y-0.762
X1.885Y-0.851
X2.388Y-0.775
X2.42Y-0.878
X2.475Y-0.802
X2.53Y-0.878
X2.562Y-0.775
M30
