%TF.GenerationSoftware,KiCad,Pcbnew,7.0.10*%
%TF.CreationDate,2025-03-26T19:51:21+01:00*%
%TF.ProjectId,DIC,4449432e-6b69-4636-9164-5f7063625858,rev?*%
%TF.SameCoordinates,Original*%
%TF.FileFunction,Copper,L4,Bot*%
%TF.FilePolarity,Positive*%
%FSLAX46Y46*%
G04 Gerber Fmt 4.6, Leading zero omitted, Abs format (unit mm)*
G04 Created by KiCad (PCBNEW 7.0.10) date 2025-03-26 19:51:21*
%MOMM*%
%LPD*%
G01*
G04 APERTURE LIST*
G04 Aperture macros list*
%AMRoundRect*
0 Rectangle with rounded corners*
0 $1 Rounding radius*
0 $2 $3 $4 $5 $6 $7 $8 $9 X,Y pos of 4 corners*
0 Add a 4 corners polygon primitive as box body*
4,1,4,$2,$3,$4,$5,$6,$7,$8,$9,$2,$3,0*
0 Add four circle primitives for the rounded corners*
1,1,$1+$1,$2,$3*
1,1,$1+$1,$4,$5*
1,1,$1+$1,$6,$7*
1,1,$1+$1,$8,$9*
0 Add four rect primitives between the rounded corners*
20,1,$1+$1,$2,$3,$4,$5,0*
20,1,$1+$1,$4,$5,$6,$7,0*
20,1,$1+$1,$6,$7,$8,$9,0*
20,1,$1+$1,$8,$9,$2,$3,0*%
%AMFreePoly0*
4,1,19,0.500000,-0.750000,0.000000,-0.750000,0.000000,-0.744911,-0.071157,-0.744911,-0.207708,-0.704816,-0.327430,-0.627875,-0.420627,-0.520320,-0.479746,-0.390866,-0.500000,-0.250000,-0.500000,0.250000,-0.479746,0.390866,-0.420627,0.520320,-0.327430,0.627875,-0.207708,0.704816,-0.071157,0.744911,0.000000,0.744911,0.000000,0.750000,0.500000,0.750000,0.500000,-0.750000,0.500000,-0.750000,
$1*%
%AMFreePoly1*
4,1,19,0.000000,0.744911,0.071157,0.744911,0.207708,0.704816,0.327430,0.627875,0.420627,0.520320,0.479746,0.390866,0.500000,0.250000,0.500000,-0.250000,0.479746,-0.390866,0.420627,-0.520320,0.327430,-0.627875,0.207708,-0.704816,0.071157,-0.744911,0.000000,-0.744911,0.000000,-0.750000,-0.500000,-0.750000,-0.500000,0.750000,0.000000,0.750000,0.000000,0.744911,0.000000,0.744911,
$1*%
G04 Aperture macros list end*
%TA.AperFunction,ComponentPad*%
%ADD10C,1.524000*%
%TD*%
%TA.AperFunction,SMDPad,CuDef*%
%ADD11RoundRect,0.250000X0.475000X-0.337500X0.475000X0.337500X-0.475000X0.337500X-0.475000X-0.337500X0*%
%TD*%
%TA.AperFunction,SMDPad,CuDef*%
%ADD12RoundRect,0.237500X-0.300000X-0.237500X0.300000X-0.237500X0.300000X0.237500X-0.300000X0.237500X0*%
%TD*%
%TA.AperFunction,SMDPad,CuDef*%
%ADD13RoundRect,0.237500X-0.250000X-0.237500X0.250000X-0.237500X0.250000X0.237500X-0.250000X0.237500X0*%
%TD*%
%TA.AperFunction,SMDPad,CuDef*%
%ADD14RoundRect,0.237500X0.250000X0.237500X-0.250000X0.237500X-0.250000X-0.237500X0.250000X-0.237500X0*%
%TD*%
%TA.AperFunction,ComponentPad*%
%ADD15R,1.600000X1.600000*%
%TD*%
%TA.AperFunction,ComponentPad*%
%ADD16C,1.600000*%
%TD*%
%TA.AperFunction,SMDPad,CuDef*%
%ADD17RoundRect,0.250000X0.337500X0.475000X-0.337500X0.475000X-0.337500X-0.475000X0.337500X-0.475000X0*%
%TD*%
%TA.AperFunction,ComponentPad*%
%ADD18R,1.000000X1.000000*%
%TD*%
%TA.AperFunction,ComponentPad*%
%ADD19O,1.000000X1.000000*%
%TD*%
%TA.AperFunction,SMDPad,CuDef*%
%ADD20RoundRect,0.237500X0.237500X-0.250000X0.237500X0.250000X-0.237500X0.250000X-0.237500X-0.250000X0*%
%TD*%
%TA.AperFunction,SMDPad,CuDef*%
%ADD21RoundRect,0.150000X-0.150000X0.587500X-0.150000X-0.587500X0.150000X-0.587500X0.150000X0.587500X0*%
%TD*%
%TA.AperFunction,SMDPad,CuDef*%
%ADD22RoundRect,0.150000X0.150000X-0.587500X0.150000X0.587500X-0.150000X0.587500X-0.150000X-0.587500X0*%
%TD*%
%TA.AperFunction,SMDPad,CuDef*%
%ADD23RoundRect,0.237500X0.237500X-0.300000X0.237500X0.300000X-0.237500X0.300000X-0.237500X-0.300000X0*%
%TD*%
%TA.AperFunction,SMDPad,CuDef*%
%ADD24RoundRect,0.237500X0.300000X0.237500X-0.300000X0.237500X-0.300000X-0.237500X0.300000X-0.237500X0*%
%TD*%
%TA.AperFunction,SMDPad,CuDef*%
%ADD25RoundRect,0.250000X0.325000X0.450000X-0.325000X0.450000X-0.325000X-0.450000X0.325000X-0.450000X0*%
%TD*%
%TA.AperFunction,SMDPad,CuDef*%
%ADD26FreePoly0,0.000000*%
%TD*%
%TA.AperFunction,SMDPad,CuDef*%
%ADD27FreePoly1,0.000000*%
%TD*%
%TA.AperFunction,SMDPad,CuDef*%
%ADD28RoundRect,0.250000X-0.337500X-0.475000X0.337500X-0.475000X0.337500X0.475000X-0.337500X0.475000X0*%
%TD*%
%TA.AperFunction,SMDPad,CuDef*%
%ADD29RoundRect,0.100000X0.100000X-0.712500X0.100000X0.712500X-0.100000X0.712500X-0.100000X-0.712500X0*%
%TD*%
%TA.AperFunction,SMDPad,CuDef*%
%ADD30RoundRect,0.150000X-0.587500X-0.150000X0.587500X-0.150000X0.587500X0.150000X-0.587500X0.150000X0*%
%TD*%
%TA.AperFunction,SMDPad,CuDef*%
%ADD31RoundRect,0.100000X-0.712500X-0.100000X0.712500X-0.100000X0.712500X0.100000X-0.712500X0.100000X0*%
%TD*%
%TA.AperFunction,SMDPad,CuDef*%
%ADD32RoundRect,0.250000X-0.250000X-0.250000X0.250000X-0.250000X0.250000X0.250000X-0.250000X0.250000X0*%
%TD*%
%TA.AperFunction,SMDPad,CuDef*%
%ADD33RoundRect,0.237500X-0.237500X0.250000X-0.237500X-0.250000X0.237500X-0.250000X0.237500X0.250000X0*%
%TD*%
%TA.AperFunction,SMDPad,CuDef*%
%ADD34RoundRect,0.250000X0.250000X-0.250000X0.250000X0.250000X-0.250000X0.250000X-0.250000X-0.250000X0*%
%TD*%
%TA.AperFunction,ComponentPad*%
%ADD35R,1.500000X2.300000*%
%TD*%
%TA.AperFunction,ComponentPad*%
%ADD36O,1.500000X2.300000*%
%TD*%
%TA.AperFunction,SMDPad,CuDef*%
%ADD37R,0.900000X1.750000*%
%TD*%
%TA.AperFunction,SMDPad,CuDef*%
%ADD38RoundRect,0.150000X0.150000X-0.825000X0.150000X0.825000X-0.150000X0.825000X-0.150000X-0.825000X0*%
%TD*%
%TA.AperFunction,SMDPad,CuDef*%
%ADD39RoundRect,0.237500X-0.237500X0.300000X-0.237500X-0.300000X0.237500X-0.300000X0.237500X0.300000X0*%
%TD*%
%TA.AperFunction,SMDPad,CuDef*%
%ADD40RoundRect,0.250000X-0.325000X-0.450000X0.325000X-0.450000X0.325000X0.450000X-0.325000X0.450000X0*%
%TD*%
%TA.AperFunction,SMDPad,CuDef*%
%ADD41FreePoly0,90.000000*%
%TD*%
%TA.AperFunction,SMDPad,CuDef*%
%ADD42FreePoly1,90.000000*%
%TD*%
%TA.AperFunction,SMDPad,CuDef*%
%ADD43RoundRect,0.250000X0.350000X-0.850000X0.350000X0.850000X-0.350000X0.850000X-0.350000X-0.850000X0*%
%TD*%
%TA.AperFunction,SMDPad,CuDef*%
%ADD44RoundRect,0.250000X1.125000X-1.275000X1.125000X1.275000X-1.125000X1.275000X-1.125000X-1.275000X0*%
%TD*%
%TA.AperFunction,SMDPad,CuDef*%
%ADD45RoundRect,0.249997X2.650003X-2.950003X2.650003X2.950003X-2.650003X2.950003X-2.650003X-2.950003X0*%
%TD*%
%TA.AperFunction,SMDPad,CuDef*%
%ADD46RoundRect,0.250000X-0.475000X0.337500X-0.475000X-0.337500X0.475000X-0.337500X0.475000X0.337500X0*%
%TD*%
%TA.AperFunction,SMDPad,CuDef*%
%ADD47RoundRect,0.112500X-0.112500X0.187500X-0.112500X-0.187500X0.112500X-0.187500X0.112500X0.187500X0*%
%TD*%
%TA.AperFunction,SMDPad,CuDef*%
%ADD48RoundRect,0.112500X-0.187500X-0.112500X0.187500X-0.112500X0.187500X0.112500X-0.187500X0.112500X0*%
%TD*%
%TA.AperFunction,SMDPad,CuDef*%
%ADD49RoundRect,0.250000X-0.250000X0.250000X-0.250000X-0.250000X0.250000X-0.250000X0.250000X0.250000X0*%
%TD*%
%TA.AperFunction,SMDPad,CuDef*%
%ADD50RoundRect,0.075000X-0.700000X-0.075000X0.700000X-0.075000X0.700000X0.075000X-0.700000X0.075000X0*%
%TD*%
%TA.AperFunction,SMDPad,CuDef*%
%ADD51RoundRect,0.075000X-0.075000X-0.700000X0.075000X-0.700000X0.075000X0.700000X-0.075000X0.700000X0*%
%TD*%
%TA.AperFunction,ViaPad*%
%ADD52C,0.800000*%
%TD*%
%TA.AperFunction,Conductor*%
%ADD53C,0.500000*%
%TD*%
%TA.AperFunction,Conductor*%
%ADD54C,0.250000*%
%TD*%
%TA.AperFunction,Conductor*%
%ADD55C,0.750000*%
%TD*%
%TA.AperFunction,Conductor*%
%ADD56C,0.200000*%
%TD*%
G04 APERTURE END LIST*
D10*
%TO.P,U6,1,NC*%
%TO.N,unconnected-(U6-NC-Pad1)*%
X21717000Y-61159000D03*
%TO.P,U6,2,NC*%
%TO.N,unconnected-(U6-NC-Pad2)*%
X24257000Y-61159000D03*
%TO.P,U6,3,NC*%
%TO.N,unconnected-(U6-NC-Pad3)*%
X26797000Y-61159000D03*
%TO.P,U6,18,NC*%
%TO.N,unconnected-(U6-NC-Pad18)*%
X64897000Y-61159000D03*
%TO.P,U6,19,NC*%
%TO.N,unconnected-(U6-NC-Pad19)*%
X67437000Y-61159000D03*
%TO.P,U6,20,NC*%
%TO.N,unconnected-(U6-NC-Pad20)*%
X69977000Y-61159000D03*
%TO.P,U6,21,VCC*%
%TO.N,+12V*%
X69977000Y-13199000D03*
%TO.P,U6,22,VCC*%
X67437000Y-13199000D03*
%TO.P,U6,23,GND*%
%TO.N,GND*%
X64897000Y-13199000D03*
%TO.P,U6,24,GND*%
X62357000Y-13199000D03*
%TO.P,U6,25,VDD*%
%TO.N,+3.3V*%
X59817000Y-13199000D03*
%TO.P,U6,26,BS0*%
%TO.N,GND*%
X57277000Y-13199000D03*
%TO.P,U6,27,BS1*%
X54737000Y-13199000D03*
%TO.P,U6,28,GND*%
X52197000Y-13199000D03*
%TO.P,U6,29,nCS*%
%TO.N,/nCS_Display*%
X49657000Y-13199000D03*
%TO.P,U6,30,nRes*%
%TO.N,/nRES_Display*%
X47117000Y-13199000D03*
%TO.P,U6,31,D/nC*%
%TO.N,/D_nC_Display*%
X44577000Y-13199000D03*
%TO.P,U6,32,D0*%
%TO.N,/SPI1_SCK_Display*%
X42037000Y-13199000D03*
%TO.P,U6,33,D1*%
%TO.N,/SPI1_MOSI_Display*%
X39497000Y-13199000D03*
%TO.P,U6,34,D2*%
%TO.N,unconnected-(U6-D2-Pad34)*%
X36957000Y-13199000D03*
%TO.P,U6,35,GND*%
%TO.N,GND*%
X34417000Y-13199000D03*
%TO.P,U6,36,IREF*%
%TO.N,Net-(U6-IREF)*%
X31877000Y-13199000D03*
%TO.P,U6,37,VCOMH*%
%TO.N,Net-(C20-Pad2)*%
X29337000Y-13199000D03*
%TO.P,U6,38,VCOMH*%
X26797000Y-13199000D03*
%TO.P,U6,39,VCC*%
%TO.N,+12V*%
X24257000Y-13199000D03*
%TO.P,U6,40,VCC*%
X21717000Y-13199000D03*
%TD*%
%TO.P,U4,1,I2C_Data*%
%TO.N,/SPI2_MOSI_RGBLED*%
X44577000Y-10733000D03*
%TO.P,U4,2,I2C_CLK*%
%TO.N,/SPI2_SCK_RGBLED*%
X47117000Y-10733000D03*
%TO.P,U4,3,5V*%
%TO.N,+5V*%
X17907000Y-62803000D03*
%TO.P,U4,4,GND*%
%TO.N,GND*%
X73787000Y-62803000D03*
%TD*%
D11*
%TO.P,C19,1*%
%TO.N,GND*%
X24257000Y-17485500D03*
%TO.P,C19,2*%
%TO.N,+12V*%
X24257000Y-15410500D03*
%TD*%
D12*
%TO.P,C18,1*%
%TO.N,GND*%
X39015500Y-20193000D03*
%TO.P,C18,2*%
%TO.N,+3.3V*%
X40740500Y-20193000D03*
%TD*%
D13*
%TO.P,R42,1*%
%TO.N,Net-(Q6-C)*%
X70080500Y-25146000D03*
%TO.P,R42,2*%
%TO.N,Analog3_In*%
X71905500Y-25146000D03*
%TD*%
%TO.P,R3,1*%
%TO.N,/Boot0*%
X34774500Y-42037000D03*
%TO.P,R3,2*%
%TO.N,GND*%
X36599500Y-42037000D03*
%TD*%
D14*
%TO.P,R2,1*%
%TO.N,GND*%
X28177500Y-19939000D03*
%TO.P,R2,2*%
%TO.N,Net-(Error1-K)*%
X26352500Y-19939000D03*
%TD*%
D15*
%TO.P,C21,1*%
%TO.N,+3.3V*%
X28067000Y-57531000D03*
D16*
%TO.P,C21,2*%
%TO.N,GND*%
X28067000Y-54031000D03*
%TD*%
D17*
%TO.P,C12,1*%
%TO.N,+3.3V*%
X31009500Y-40386000D03*
%TO.P,C12,2*%
%TO.N,GND*%
X28934500Y-40386000D03*
%TD*%
D18*
%TO.P,JTAG1,1,Pin_1*%
%TO.N,unconnected-(JTAG1-Pin_1-Pad1)*%
X76835000Y-29718000D03*
D19*
%TO.P,JTAG1,2,Pin_2*%
%TO.N,unconnected-(JTAG1-Pin_2-Pad2)*%
X75565000Y-29718000D03*
%TO.P,JTAG1,3,Pin_3*%
%TO.N,+3.3V*%
X76835000Y-30988000D03*
%TO.P,JTAG1,4,Pin_4*%
%TO.N,JTMS{slash}SWDIO*%
X75565000Y-30988000D03*
%TO.P,JTAG1,5,Pin_5*%
%TO.N,GND*%
X76835000Y-32258000D03*
%TO.P,JTAG1,6,Pin_6*%
%TO.N,JCLK{slash}SWCLK*%
X75565000Y-32258000D03*
%TO.P,JTAG1,7,Pin_7*%
%TO.N,GND*%
X76835000Y-33528000D03*
%TO.P,JTAG1,8,Pin_8*%
%TO.N,JTDO{slash}SWO*%
X75565000Y-33528000D03*
%TO.P,JTAG1,9,Pin_9*%
%TO.N,unconnected-(JTAG1-Pin_9-Pad9)*%
X76835000Y-34798000D03*
%TO.P,JTAG1,10,Pin_10*%
%TO.N,JTDI{slash}NC*%
X75565000Y-34798000D03*
%TO.P,JTAG1,11,Pin_11*%
%TO.N,GND*%
X76835000Y-36068000D03*
%TO.P,JTAG1,12,Pin_12*%
%TO.N,Reset*%
X75565000Y-36068000D03*
%TO.P,JTAG1,13,Pin_13*%
%TO.N,T_VCP_RX*%
X76835000Y-37338000D03*
%TO.P,JTAG1,14,Pin_14*%
%TO.N,T_VCP_TX*%
X75565000Y-37338000D03*
%TD*%
D14*
%TO.P,R29,1*%
%TO.N,Net-(Q5-C)*%
X61491500Y-46228000D03*
%TO.P,R29,2*%
%TO.N,Net-(U9A-+)*%
X59666500Y-46228000D03*
%TD*%
D12*
%TO.P,C29,1*%
%TO.N,GND*%
X49683500Y-26035000D03*
%TO.P,C29,2*%
%TO.N,ADC0*%
X51408500Y-26035000D03*
%TD*%
D14*
%TO.P,R36,1*%
%TO.N,Net-(D8-A)*%
X54760500Y-26035000D03*
%TO.P,R36,2*%
%TO.N,ADC0*%
X52935500Y-26035000D03*
%TD*%
D20*
%TO.P,R39,1*%
%TO.N,Net-(Q7-C)*%
X69215000Y-30757500D03*
%TO.P,R39,2*%
%TO.N,Net-(U10A-+)*%
X69215000Y-28932500D03*
%TD*%
D21*
%TO.P,U2,1,~{RST}*%
%TO.N,Reset*%
X30927000Y-42750500D03*
%TO.P,U2,2,VDD*%
%TO.N,+3.3V*%
X32827000Y-42750500D03*
%TO.P,U2,3,VSS*%
%TO.N,GND*%
X31877000Y-44625500D03*
%TD*%
D22*
%TO.P,Q2,1,B*%
%TO.N,Net-(Q2-B)*%
X66736000Y-39672500D03*
%TO.P,Q2,2,E*%
%TO.N,GND*%
X64836000Y-39672500D03*
%TO.P,Q2,3,C*%
%TO.N,Net-(Q2-C)*%
X65786000Y-37797500D03*
%TD*%
D14*
%TO.P,R31,1*%
%TO.N,Net-(Q7-B)*%
X60221500Y-28702000D03*
%TO.P,R31,2*%
%TO.N,ADC0_CTRL*%
X58396500Y-28702000D03*
%TD*%
D23*
%TO.P,C5,1*%
%TO.N,GND*%
X34417000Y-45312500D03*
%TO.P,C5,2*%
%TO.N,+3.3V*%
X34417000Y-43587500D03*
%TD*%
D24*
%TO.P,C6,1*%
%TO.N,+3.3V*%
X39978500Y-24322000D03*
%TO.P,C6,2*%
%TO.N,GND*%
X38253500Y-24322000D03*
%TD*%
D25*
%TO.P,12VGood,1,K*%
%TO.N,GND*%
X70494000Y-36195000D03*
%TO.P,12VGood,2,A*%
%TO.N,Net-(12VGood1-A)*%
X68444000Y-36195000D03*
%TD*%
D26*
%TO.P,JP2,1,A*%
%TO.N,+12V*%
X69454000Y-57404000D03*
D27*
%TO.P,JP2,2,B*%
%TO.N,+BATT*%
X70754000Y-57404000D03*
%TD*%
D28*
%TO.P,C14,1*%
%TO.N,+BATT*%
X41380500Y-49911000D03*
%TO.P,C14,2*%
%TO.N,GND*%
X43455500Y-49911000D03*
%TD*%
D14*
%TO.P,R30,1*%
%TO.N,Net-(U9A-+)*%
X51712500Y-42926000D03*
%TO.P,R30,2*%
%TO.N,GND*%
X49887500Y-42926000D03*
%TD*%
D12*
%TO.P,C17,1*%
%TO.N,GND*%
X39015500Y-21971000D03*
%TO.P,C17,2*%
%TO.N,+5V*%
X40740500Y-21971000D03*
%TD*%
D14*
%TO.P,R25,1*%
%TO.N,+3.3V*%
X65682500Y-44704000D03*
%TO.P,R25,2*%
%TO.N,Net-(U9A-+)*%
X63857500Y-44704000D03*
%TD*%
D29*
%TO.P,U10,1*%
%TO.N,Net-(D8-A)*%
X64475000Y-25353500D03*
%TO.P,U10,2,-*%
X63825000Y-25353500D03*
%TO.P,U10,3,+*%
%TO.N,Net-(U10A-+)*%
X63175000Y-25353500D03*
%TO.P,U10,4,V-*%
%TO.N,GND*%
X62525000Y-25353500D03*
%TO.P,U10,5,+*%
%TO.N,Net-(U10B-+)*%
X62525000Y-21128500D03*
%TO.P,U10,6,-*%
%TO.N,Net-(D3-A)*%
X63175000Y-21128500D03*
%TO.P,U10,7*%
X63825000Y-21128500D03*
%TO.P,U10,8,V+*%
%TO.N,+5V*%
X64475000Y-21128500D03*
%TD*%
D30*
%TO.P,Q1,1,B*%
%TO.N,Net-(Q1-B)*%
X67134500Y-34224000D03*
%TO.P,Q1,2,E*%
%TO.N,GND*%
X67134500Y-32324000D03*
%TO.P,Q1,3,C*%
%TO.N,Net-(Q1-C)*%
X69009500Y-33274000D03*
%TD*%
D17*
%TO.P,C11,1*%
%TO.N,+5V*%
X55245000Y-49530000D03*
%TO.P,C11,2*%
%TO.N,GND*%
X53170000Y-49530000D03*
%TD*%
D18*
%TO.P,J3,1,Pin_1*%
%TO.N,+BATT*%
X75819000Y-54473000D03*
D19*
%TO.P,J3,2,Pin_2*%
X74549000Y-54473000D03*
%TO.P,J3,3,Pin_3*%
%TO.N,+12V*%
X75819000Y-55743000D03*
%TO.P,J3,4,Pin_4*%
X74549000Y-55743000D03*
%TO.P,J3,5,Pin_5*%
%TO.N,GND*%
X75819000Y-57013000D03*
%TO.P,J3,6,Pin_6*%
X74549000Y-57013000D03*
%TO.P,J3,7,Pin_7*%
%TO.N,+3.3V*%
X75819000Y-58283000D03*
%TO.P,J3,8,Pin_8*%
X74549000Y-58283000D03*
%TO.P,J3,9,Pin_9*%
%TO.N,+5V*%
X75819000Y-59553000D03*
%TO.P,J3,10,Pin_10*%
X74549000Y-59553000D03*
%TD*%
D13*
%TO.P,R1,1*%
%TO.N,Net-(Heart1-K)*%
X26352500Y-22733000D03*
%TO.P,R1,2*%
%TO.N,GND*%
X28177500Y-22733000D03*
%TD*%
D28*
%TO.P,C7,1*%
%TO.N,+BATT*%
X49233000Y-49530000D03*
%TO.P,C7,2*%
%TO.N,GND*%
X51308000Y-49530000D03*
%TD*%
D31*
%TO.P,U9,1*%
%TO.N,Net-(D2-A)*%
X54910500Y-42885000D03*
%TO.P,U9,2,-*%
X54910500Y-42235000D03*
%TO.P,U9,3,+*%
%TO.N,Net-(U9A-+)*%
X54910500Y-41585000D03*
%TO.P,U9,4,V-*%
%TO.N,GND*%
X54910500Y-40935000D03*
%TO.P,U9,5,+*%
%TO.N,Net-(U9B-+)*%
X59135500Y-40935000D03*
%TO.P,U9,6,-*%
%TO.N,Net-(D1-A)*%
X59135500Y-41585000D03*
%TO.P,U9,7*%
X59135500Y-42235000D03*
%TO.P,U9,8,V+*%
%TO.N,+5V*%
X59135500Y-42885000D03*
%TD*%
D25*
%TO.P,5VGood,1,K*%
%TO.N,GND*%
X52968000Y-60960000D03*
%TO.P,5VGood,2,A*%
%TO.N,Net-(5VGood1-A)*%
X50918000Y-60960000D03*
%TD*%
D30*
%TO.P,Q3,1,B*%
%TO.N,Net-(Q3-B)*%
X58117500Y-33716000D03*
%TO.P,Q3,2,E*%
%TO.N,GND*%
X58117500Y-31816000D03*
%TO.P,Q3,3,C*%
%TO.N,Net-(Q3-C)*%
X59992500Y-32766000D03*
%TD*%
D23*
%TO.P,C2,1*%
%TO.N,GND*%
X27178000Y-38142500D03*
%TO.P,C2,2*%
%TO.N,Net-(U3-PF0)*%
X27178000Y-36417500D03*
%TD*%
D32*
%TO.P,D10,1,K*%
%TO.N,+3.3V*%
X30119000Y-61087000D03*
%TO.P,D10,2,A*%
%TO.N,GND*%
X32619000Y-61087000D03*
%TD*%
%TO.P,D8,1,K*%
%TO.N,+3.3V*%
X51074000Y-24257000D03*
%TO.P,D8,2,A*%
%TO.N,Net-(D8-A)*%
X53574000Y-24257000D03*
%TD*%
D13*
%TO.P,R46,1*%
%TO.N,GND*%
X54967500Y-18923000D03*
%TO.P,R46,2*%
%TO.N,Net-(D3-A)*%
X56792500Y-18923000D03*
%TD*%
D14*
%TO.P,R44,1*%
%TO.N,Net-(Q8-C)*%
X71905500Y-21590000D03*
%TO.P,R44,2*%
%TO.N,Net-(U10B-+)*%
X70080500Y-21590000D03*
%TD*%
D33*
%TO.P,R24,1*%
%TO.N,Analog2_In*%
X62357000Y-42902500D03*
%TO.P,R24,2*%
%TO.N,Net-(U9A-+)*%
X62357000Y-44727500D03*
%TD*%
D30*
%TO.P,Q6,1,B*%
%TO.N,Net-(Q6-B)*%
X66372500Y-24826000D03*
%TO.P,Q6,2,E*%
%TO.N,GND*%
X66372500Y-22926000D03*
%TO.P,Q6,3,C*%
%TO.N,Net-(Q6-C)*%
X68247500Y-23876000D03*
%TD*%
D12*
%TO.P,C31,1*%
%TO.N,+5V*%
X57938500Y-24638000D03*
%TO.P,C31,2*%
%TO.N,GND*%
X59663500Y-24638000D03*
%TD*%
%TO.P,C25,1*%
%TO.N,GND*%
X47397500Y-46101000D03*
%TO.P,C25,2*%
%TO.N,ADC2*%
X49122500Y-46101000D03*
%TD*%
D18*
%TO.P,J5,1,Pin_1*%
%TO.N,GPIO5_5VOut*%
X16891000Y-54483000D03*
D19*
%TO.P,J5,2,Pin_2*%
%TO.N,GPIO4_12VOut*%
X15621000Y-54483000D03*
%TO.P,J5,3,Pin_3*%
%TO.N,GPIO6_12VOut*%
X16891000Y-55753000D03*
%TO.P,J5,4,Pin_4*%
%TO.N,GPIO4_5VOut*%
X15621000Y-55753000D03*
%TO.P,J5,5,Pin_5*%
%TO.N,GPIO6_5VOut*%
X16891000Y-57023000D03*
%TO.P,J5,6,Pin_6*%
%TO.N,GPIO5_12VOut*%
X15621000Y-57023000D03*
%TO.P,J5,7,Pin_7*%
%TO.N,GPIO6_In*%
X16891000Y-58293000D03*
%TO.P,J5,8,Pin_8*%
%TO.N,GPIO4_In*%
X15621000Y-58293000D03*
%TO.P,J5,9,Pin_9*%
%TO.N,GPIO5_In*%
X16891000Y-59563000D03*
%TO.P,J5,10,Pin_10*%
%TO.N,GND*%
X15621000Y-59563000D03*
%TD*%
D34*
%TO.P,D2,1,K*%
%TO.N,+3.3V*%
X47371000Y-50145000D03*
%TO.P,D2,2,A*%
%TO.N,Net-(D2-A)*%
X47371000Y-47645000D03*
%TD*%
D20*
%TO.P,R28,1*%
%TO.N,Net-(Q5-B)*%
X59738500Y-50508500D03*
%TO.P,R28,2*%
%TO.N,ADC2_CTRL*%
X59738500Y-48683500D03*
%TD*%
%TO.P,R9,1*%
%TO.N,GND*%
X31877000Y-19519500D03*
%TO.P,R9,2*%
%TO.N,Net-(U6-IREF)*%
X31877000Y-17694500D03*
%TD*%
D23*
%TO.P,C28,1*%
%TO.N,GND*%
X53467000Y-19150500D03*
%TO.P,C28,2*%
%TO.N,ADC3*%
X53467000Y-17425500D03*
%TD*%
D33*
%TO.P,R23,1*%
%TO.N,Net-(Q4-B)*%
X68199000Y-50395500D03*
%TO.P,R23,2*%
%TO.N,ADC2_NTC_CTRL*%
X68199000Y-52220500D03*
%TD*%
D17*
%TO.P,C23,1*%
%TO.N,+12V*%
X71268500Y-40386000D03*
%TO.P,C23,2*%
%TO.N,GND*%
X69193500Y-40386000D03*
%TD*%
D35*
%TO.P,U1,1,IN*%
%TO.N,+BATT*%
X49877000Y-53213000D03*
D36*
%TO.P,U1,2,GND*%
%TO.N,GND*%
X52417000Y-53213000D03*
%TO.P,U1,3,OUT*%
%TO.N,+5V*%
X54957000Y-53213000D03*
%TD*%
D25*
%TO.P,Error,1,K*%
%TO.N,Net-(Error1-K)*%
X24480000Y-19939000D03*
%TO.P,Error,2,A*%
%TO.N,Net-(Error1-A)*%
X22430000Y-19939000D03*
%TD*%
D11*
%TO.P,C15,1*%
%TO.N,+3.3V*%
X45339000Y-50059500D03*
%TO.P,C15,2*%
%TO.N,GND*%
X45339000Y-47984500D03*
%TD*%
D13*
%TO.P,R11,1*%
%TO.N,CAN1_N*%
X43537500Y-16699000D03*
%TO.P,R11,2*%
%TO.N,CAN1_P*%
X45362500Y-16699000D03*
%TD*%
D14*
%TO.P,R43,1*%
%TO.N,Net-(Q8-B)*%
X66698500Y-17907000D03*
%TO.P,R43,2*%
%TO.N,ADC3_CTRL*%
X64873500Y-17907000D03*
%TD*%
D37*
%TO.P,Y1,1,1_Crystal*%
%TO.N,Net-(U3-PF1)*%
X25667000Y-34110000D03*
%TO.P,Y1,2,2_GND*%
%TO.N,GND*%
X25667000Y-37010000D03*
%TO.P,Y1,3,3_Crystal*%
%TO.N,Net-(U3-PF0)*%
X24117000Y-37010000D03*
%TO.P,Y1,4,4_GND*%
%TO.N,GND*%
X24117000Y-34110000D03*
%TD*%
D32*
%TO.P,D3,1,K*%
%TO.N,+3.3V*%
X57424000Y-22225000D03*
%TO.P,D3,2,A*%
%TO.N,Net-(D3-A)*%
X59924000Y-22225000D03*
%TD*%
D20*
%TO.P,R38,1*%
%TO.N,Analog0_In*%
X70739000Y-28598500D03*
%TO.P,R38,2*%
%TO.N,Net-(U10A-+)*%
X70739000Y-26773500D03*
%TD*%
D17*
%TO.P,C20,1*%
%TO.N,GND*%
X32914500Y-15686000D03*
%TO.P,C20,2*%
%TO.N,Net-(C20-Pad2)*%
X30839500Y-15686000D03*
%TD*%
D14*
%TO.P,R37,1*%
%TO.N,Analog3_In*%
X71905500Y-23241000D03*
%TO.P,R37,2*%
%TO.N,Net-(U10B-+)*%
X70080500Y-23241000D03*
%TD*%
D38*
%TO.P,U7,1,TXD*%
%TO.N,/CAN_TX*%
X46355000Y-23684000D03*
%TO.P,U7,2,VSS*%
%TO.N,GND*%
X45085000Y-23684000D03*
%TO.P,U7,3,VDD*%
%TO.N,+5V*%
X43815000Y-23684000D03*
%TO.P,U7,4,RXD*%
%TO.N,/CAN_RX*%
X42545000Y-23684000D03*
%TO.P,U7,5,Vio*%
%TO.N,+3.3V*%
X42545000Y-18734000D03*
%TO.P,U7,6,CANL*%
%TO.N,CAN1_N*%
X43815000Y-18734000D03*
%TO.P,U7,7,CANH*%
%TO.N,CAN1_P*%
X45085000Y-18734000D03*
%TO.P,U7,8,STBY*%
%TO.N,Net-(U7-STBY)*%
X46355000Y-18734000D03*
%TD*%
D20*
%TO.P,R10,1*%
%TO.N,GND*%
X48133000Y-20470500D03*
%TO.P,R10,2*%
%TO.N,Net-(U7-STBY)*%
X48133000Y-18645500D03*
%TD*%
%TO.P,R7,1*%
%TO.N,Net-(JP1-B)*%
X78105000Y-44600500D03*
%TO.P,R7,2*%
%TO.N,+12V*%
X78105000Y-42775500D03*
%TD*%
D24*
%TO.P,C4,1*%
%TO.N,+3.3V*%
X32993500Y-25146000D03*
%TO.P,C4,2*%
%TO.N,GND*%
X31268500Y-25146000D03*
%TD*%
D20*
%TO.P,R17,1*%
%TO.N,Net-(Q1-C)*%
X70739000Y-31900500D03*
%TO.P,R17,2*%
%TO.N,Analog0_In*%
X70739000Y-30075500D03*
%TD*%
D30*
%TO.P,Q7,1,B*%
%TO.N,Net-(Q7-B)*%
X62689500Y-30795000D03*
%TO.P,Q7,2,E*%
%TO.N,GND*%
X62689500Y-28895000D03*
%TO.P,Q7,3,C*%
%TO.N,Net-(Q7-C)*%
X64564500Y-29845000D03*
%TD*%
D35*
%TO.P,U5,1,IN*%
%TO.N,+BATT*%
X36542000Y-53213000D03*
D36*
%TO.P,U5,2,GND*%
%TO.N,GND*%
X39082000Y-53213000D03*
%TO.P,U5,3,OUT*%
%TO.N,+3.3V*%
X41622000Y-53213000D03*
%TD*%
D33*
%TO.P,R26,1*%
%TO.N,+3.3V*%
X67691000Y-27916500D03*
%TO.P,R26,2*%
%TO.N,Net-(U10A-+)*%
X67691000Y-29741500D03*
%TD*%
D20*
%TO.P,R27,1*%
%TO.N,Net-(Q4-C)*%
X67183000Y-44727500D03*
%TO.P,R27,2*%
%TO.N,Analog2_In*%
X67183000Y-42902500D03*
%TD*%
D14*
%TO.P,R14,1*%
%TO.N,Analog1_In*%
X59840500Y-37592000D03*
%TO.P,R14,2*%
%TO.N,Net-(U9B-+)*%
X58015500Y-37592000D03*
%TD*%
%TO.P,R35,1*%
%TO.N,Net-(Q6-B)*%
X67968500Y-26416000D03*
%TO.P,R35,2*%
%TO.N,ADC3_NTC_CTRL*%
X66143500Y-26416000D03*
%TD*%
%TO.P,R12,1*%
%TO.N,Net-(Q2-B)*%
X66698500Y-41402000D03*
%TO.P,R12,2*%
%TO.N,ADC1_NTC_CTRL*%
X64873500Y-41402000D03*
%TD*%
D24*
%TO.P,C1,1*%
%TO.N,+3.3V*%
X32993500Y-23495000D03*
%TO.P,C1,2*%
%TO.N,GND*%
X31268500Y-23495000D03*
%TD*%
D30*
%TO.P,Q5,1,B*%
%TO.N,Net-(Q5-B)*%
X61976000Y-50546000D03*
%TO.P,Q5,2,E*%
%TO.N,GND*%
X61976000Y-48646000D03*
%TO.P,Q5,3,C*%
%TO.N,Net-(Q5-C)*%
X63851000Y-49596000D03*
%TD*%
D25*
%TO.P,Heart,1,K*%
%TO.N,Net-(Heart1-K)*%
X24480000Y-22733000D03*
%TO.P,Heart,2,A*%
%TO.N,Net-(Heart1-A)*%
X22430000Y-22733000D03*
%TD*%
D24*
%TO.P,C8,1*%
%TO.N,+3.3V*%
X39978500Y-25973000D03*
%TO.P,C8,2*%
%TO.N,GND*%
X38253500Y-25973000D03*
%TD*%
D17*
%TO.P,C22,1*%
%TO.N,+BATT*%
X71014500Y-54610000D03*
%TO.P,C22,2*%
%TO.N,GND*%
X68939500Y-54610000D03*
%TD*%
D39*
%TO.P,C3,1*%
%TO.N,GND*%
X27178000Y-32919500D03*
%TO.P,C3,2*%
%TO.N,Net-(U3-PF1)*%
X27178000Y-34644500D03*
%TD*%
D13*
%TO.P,R20,1*%
%TO.N,Net-(U9B-+)*%
X56491500Y-39116000D03*
%TO.P,R20,2*%
%TO.N,GND*%
X58316500Y-39116000D03*
%TD*%
%TO.P,R8,1*%
%TO.N,Net-(12VGood1-A)*%
X68683500Y-38354000D03*
%TO.P,R8,2*%
%TO.N,+12V*%
X70508500Y-38354000D03*
%TD*%
%TO.P,R6,1*%
%TO.N,Net-(3V3Good1-A)*%
X42521500Y-60960000D03*
%TO.P,R6,2*%
%TO.N,+3.3V*%
X44346500Y-60960000D03*
%TD*%
D14*
%TO.P,R15,1*%
%TO.N,+3.3V*%
X58062500Y-36068000D03*
%TO.P,R15,2*%
%TO.N,Net-(U9B-+)*%
X56237500Y-36068000D03*
%TD*%
D40*
%TO.P,3V3Good,1,K*%
%TO.N,GND*%
X38599000Y-60960000D03*
%TO.P,3V3Good,2,A*%
%TO.N,Net-(3V3Good1-A)*%
X40649000Y-60960000D03*
%TD*%
D14*
%TO.P,R13,1*%
%TO.N,Net-(Q1-B)*%
X65301500Y-33528000D03*
%TO.P,R13,2*%
%TO.N,ADC0_NTC_CTRL*%
X63476500Y-33528000D03*
%TD*%
%TO.P,R18,1*%
%TO.N,Net-(Q3-B)*%
X55903500Y-33655000D03*
%TO.P,R18,2*%
%TO.N,ADC1_CTRL*%
X54078500Y-33655000D03*
%TD*%
D33*
%TO.P,R41,1*%
%TO.N,+3.3V*%
X59436000Y-17883500D03*
%TO.P,R41,2*%
%TO.N,Net-(U10B-+)*%
X59436000Y-19708500D03*
%TD*%
D41*
%TO.P,JP1,1,A*%
%TO.N,GND*%
X77851000Y-50942000D03*
D42*
%TO.P,JP1,2,B*%
%TO.N,Net-(JP1-B)*%
X77851000Y-49642000D03*
%TD*%
D24*
%TO.P,C30,1*%
%TO.N,GND*%
X51662500Y-41402000D03*
%TO.P,C30,2*%
%TO.N,+5V*%
X49937500Y-41402000D03*
%TD*%
D13*
%TO.P,R21,1*%
%TO.N,GND*%
X50395500Y-36957000D03*
%TO.P,R21,2*%
%TO.N,Net-(D1-A)*%
X52220500Y-36957000D03*
%TD*%
D18*
%TO.P,J4,1,Pin_1*%
%TO.N,GPIO2_In*%
X16129000Y-20701000D03*
D19*
%TO.P,J4,2,Pin_2*%
%TO.N,GPIO2_5VOut*%
X17399000Y-20701000D03*
%TO.P,J4,3,Pin_3*%
%TO.N,GPIO3_12VOut*%
X16129000Y-19431000D03*
%TO.P,J4,4,Pin_4*%
%TO.N,GPIO2_12VOut*%
X17399000Y-19431000D03*
%TO.P,J4,5,Pin_5*%
%TO.N,GPIO3_5VOut*%
X16129000Y-18161000D03*
%TO.P,J4,6,Pin_6*%
%TO.N,GPIO1_In*%
X17399000Y-18161000D03*
%TO.P,J4,7,Pin_7*%
%TO.N,GPIO3_In*%
X16129000Y-16891000D03*
%TO.P,J4,8,Pin_8*%
%TO.N,GPIO1_5VOut*%
X17399000Y-16891000D03*
%TO.P,J4,9,Pin_9*%
%TO.N,GND*%
X16129000Y-15621000D03*
%TO.P,J4,10,Pin_10*%
%TO.N,GPIO1_12VOut*%
X17399000Y-15621000D03*
%TD*%
D43*
%TO.P,U8,1,GND*%
%TO.N,Net-(JP1-B)*%
X75305000Y-51512000D03*
D44*
%TO.P,U8,2,VO*%
%TO.N,+12V*%
X71500000Y-46887000D03*
X74550000Y-46887000D03*
D45*
X73025000Y-45212000D03*
D44*
X71500000Y-43537000D03*
X74550000Y-43537000D03*
D43*
%TO.P,U8,3,VI*%
%TO.N,+BATT*%
X70745000Y-51512000D03*
%TD*%
D46*
%TO.P,C26,1*%
%TO.N,+5V*%
X57150000Y-46206500D03*
%TO.P,C26,2*%
%TO.N,GND*%
X57150000Y-48281500D03*
%TD*%
D33*
%TO.P,R19,1*%
%TO.N,Net-(Q3-C)*%
X54483000Y-36044500D03*
%TO.P,R19,2*%
%TO.N,Net-(U9B-+)*%
X54483000Y-37869500D03*
%TD*%
D30*
%TO.P,Q8,1,B*%
%TO.N,Net-(Q8-B)*%
X68912500Y-18476000D03*
%TO.P,Q8,2,E*%
%TO.N,GND*%
X68912500Y-16576000D03*
%TO.P,Q8,3,C*%
%TO.N,Net-(Q8-C)*%
X70787500Y-17526000D03*
%TD*%
D14*
%TO.P,R33,1*%
%TO.N,Net-(D2-A)*%
X50061500Y-44577000D03*
%TO.P,R33,2*%
%TO.N,ADC2*%
X48236500Y-44577000D03*
%TD*%
D13*
%TO.P,R34,1*%
%TO.N,GND*%
X52935500Y-27686000D03*
%TO.P,R34,2*%
%TO.N,Net-(D8-A)*%
X54760500Y-27686000D03*
%TD*%
D14*
%TO.P,R16,1*%
%TO.N,Net-(Q2-C)*%
X63269500Y-37592000D03*
%TO.P,R16,2*%
%TO.N,Analog1_In*%
X61444500Y-37592000D03*
%TD*%
D22*
%TO.P,Q4,1,B*%
%TO.N,Net-(Q4-B)*%
X68133000Y-48562500D03*
%TO.P,Q4,2,E*%
%TO.N,GND*%
X66233000Y-48562500D03*
%TO.P,Q4,3,C*%
%TO.N,Net-(Q4-C)*%
X67183000Y-46687500D03*
%TD*%
D47*
%TO.P,D5,1,K*%
%TO.N,CAN1_P*%
X49911000Y-18508000D03*
%TO.P,D5,2,A*%
%TO.N,GND*%
X49911000Y-20608000D03*
%TD*%
D48*
%TO.P,D4,1,K*%
%TO.N,CAN1_N*%
X52798000Y-15240000D03*
%TO.P,D4,2,A*%
%TO.N,GND*%
X54898000Y-15240000D03*
%TD*%
D39*
%TO.P,C10,1*%
%TO.N,+3.3V*%
X41529000Y-40285500D03*
%TO.P,C10,2*%
%TO.N,GND*%
X41529000Y-42010500D03*
%TD*%
%TO.P,C9,1*%
%TO.N,+3.3V*%
X43053000Y-39269500D03*
%TO.P,C9,2*%
%TO.N,GND*%
X43053000Y-40994500D03*
%TD*%
D14*
%TO.P,R40,1*%
%TO.N,Net-(U10A-+)*%
X63777500Y-27178000D03*
%TO.P,R40,2*%
%TO.N,GND*%
X61952500Y-27178000D03*
%TD*%
D49*
%TO.P,D1,1,K*%
%TO.N,+3.3V*%
X52197000Y-31262000D03*
%TO.P,D1,2,A*%
%TO.N,Net-(D1-A)*%
X52197000Y-33762000D03*
%TD*%
D20*
%TO.P,R32,1*%
%TO.N,GND*%
X51816000Y-46632500D03*
%TO.P,R32,2*%
%TO.N,Net-(D2-A)*%
X51816000Y-44807500D03*
%TD*%
D33*
%TO.P,R5,1*%
%TO.N,GND*%
X77343000Y-46077500D03*
%TO.P,R5,2*%
%TO.N,Net-(JP1-B)*%
X77343000Y-47902500D03*
%TD*%
D14*
%TO.P,R4,1*%
%TO.N,Net-(5VGood1-A)*%
X49045500Y-60960000D03*
%TO.P,R4,2*%
%TO.N,+5V*%
X47220500Y-60960000D03*
%TD*%
D24*
%TO.P,C16,1*%
%TO.N,GND*%
X61695500Y-14986000D03*
%TO.P,C16,2*%
%TO.N,+3.3V*%
X59970500Y-14986000D03*
%TD*%
D18*
%TO.P,J2,1,Pin_1*%
%TO.N,CAN1_N*%
X76200000Y-14859000D03*
D19*
%TO.P,J2,2,Pin_2*%
%TO.N,CAN1_P*%
X74930000Y-14859000D03*
%TO.P,J2,3,Pin_3*%
%TO.N,Analog0_In*%
X76200000Y-16129000D03*
%TO.P,J2,4,Pin_4*%
%TO.N,GND*%
X74930000Y-16129000D03*
%TO.P,J2,5,Pin_5*%
X76200000Y-17399000D03*
%TO.P,J2,6,Pin_6*%
%TO.N,Analog1_In*%
X74930000Y-17399000D03*
%TO.P,J2,7,Pin_7*%
%TO.N,GND*%
X76200000Y-18669000D03*
%TO.P,J2,8,Pin_8*%
%TO.N,Analog2_In*%
X74930000Y-18669000D03*
%TO.P,J2,9,Pin_9*%
%TO.N,GND*%
X76200000Y-19939000D03*
%TO.P,J2,10,Pin_10*%
%TO.N,Analog3_In*%
X74930000Y-19939000D03*
%TD*%
D46*
%TO.P,C27,1*%
%TO.N,GND*%
X55372000Y-22330500D03*
%TO.P,C27,2*%
%TO.N,+5V*%
X55372000Y-24405500D03*
%TD*%
D50*
%TO.P,U3,1,VBAT*%
%TO.N,+3.3V*%
X30901000Y-37851000D03*
%TO.P,U3,2,PC13*%
%TO.N,unconnected-(U3-PC13-Pad2)*%
X30901000Y-37351000D03*
%TO.P,U3,3,PC14*%
%TO.N,unconnected-(U3-PC14-Pad3)*%
X30901000Y-36851000D03*
%TO.P,U3,4,PC15*%
%TO.N,unconnected-(U3-PC15-Pad4)*%
X30901000Y-36351000D03*
%TO.P,U3,5,PF0*%
%TO.N,Net-(U3-PF0)*%
X30901000Y-35851000D03*
%TO.P,U3,6,PF1*%
%TO.N,Net-(U3-PF1)*%
X30901000Y-35351000D03*
%TO.P,U3,7,NRST*%
%TO.N,Reset*%
X30901000Y-34851000D03*
%TO.P,U3,8,PC0*%
%TO.N,Net-(Heart1-A)*%
X30901000Y-34351000D03*
%TO.P,U3,9,PC1*%
%TO.N,Net-(Error1-A)*%
X30901000Y-33851000D03*
%TO.P,U3,10,PC2*%
%TO.N,unconnected-(U3-PC2-Pad10)*%
X30901000Y-33351000D03*
%TO.P,U3,11,PC3*%
%TO.N,/SPI2_MOSI_RGBLED*%
X30901000Y-32851000D03*
%TO.P,U3,12,VSSA*%
%TO.N,GND*%
X30901000Y-32351000D03*
%TO.P,U3,13,VDDA*%
%TO.N,+3.3V*%
X30901000Y-31851000D03*
%TO.P,U3,14,PA0*%
%TO.N,ADC0*%
X30901000Y-31351000D03*
%TO.P,U3,15,PA1*%
%TO.N,ADC1*%
X30901000Y-30851000D03*
%TO.P,U3,16,PA2*%
%TO.N,ADC2*%
X30901000Y-30351000D03*
D51*
%TO.P,U3,17,PA3*%
%TO.N,ADC3*%
X32826000Y-28426000D03*
%TO.P,U3,18,VSS*%
%TO.N,GND*%
X33326000Y-28426000D03*
%TO.P,U3,19,VDD*%
%TO.N,+3.3V*%
X33826000Y-28426000D03*
%TO.P,U3,20,PA4*%
%TO.N,/nCS_Display*%
X34326000Y-28426000D03*
%TO.P,U3,21,PA5*%
%TO.N,/SPI1_SCK_Display*%
X34826000Y-28426000D03*
%TO.P,U3,22,PA6*%
%TO.N,/D_nC_Display*%
X35326000Y-28426000D03*
%TO.P,U3,23,PA7*%
%TO.N,/SPI1_MOSI_Display*%
X35826000Y-28426000D03*
%TO.P,U3,24,PC4*%
%TO.N,/nRES_Display*%
X36326000Y-28426000D03*
%TO.P,U3,25,PC5*%
%TO.N,unconnected-(U3-PC5-Pad25)*%
X36826000Y-28426000D03*
%TO.P,U3,26,PB0*%
%TO.N,ADC2_NTC_CTRL*%
X37326000Y-28426000D03*
%TO.P,U3,27,PB1*%
%TO.N,ADC1_NTC_CTRL*%
X37826000Y-28426000D03*
%TO.P,U3,28,PB2*%
%TO.N,ADC0_NTC_CTRL*%
X38326000Y-28426000D03*
%TO.P,U3,29,PB10*%
%TO.N,/SPI2_SCK_RGBLED*%
X38826000Y-28426000D03*
%TO.P,U3,30,PB11*%
%TO.N,ADC1_CTRL*%
X39326000Y-28426000D03*
%TO.P,U3,31,VSS*%
%TO.N,GND*%
X39826000Y-28426000D03*
%TO.P,U3,32,VDD*%
%TO.N,+3.3V*%
X40326000Y-28426000D03*
D50*
%TO.P,U3,33,PB12*%
%TO.N,ADC2_CTRL*%
X42251000Y-30351000D03*
%TO.P,U3,34,PB13*%
%TO.N,ADC3_CTRL*%
X42251000Y-30851000D03*
%TO.P,U3,35,PB14*%
%TO.N,GPIO3_In*%
X42251000Y-31351000D03*
%TO.P,U3,36,PB15*%
%TO.N,GPIO3_5VOut*%
X42251000Y-31851000D03*
%TO.P,U3,37,PC6*%
%TO.N,GPIO3_12VOut*%
X42251000Y-32351000D03*
%TO.P,U3,38,PC7*%
%TO.N,GPIO2_In*%
X42251000Y-32851000D03*
%TO.P,U3,39,PC8*%
%TO.N,GPIO2_5VOut*%
X42251000Y-33351000D03*
%TO.P,U3,40,PC9*%
%TO.N,GPIO2_12VOut*%
X42251000Y-33851000D03*
%TO.P,U3,41,PA8*%
%TO.N,GPIO1_In*%
X42251000Y-34351000D03*
%TO.P,U3,42,PA9*%
%TO.N,GPIO1_5VOut*%
X42251000Y-34851000D03*
%TO.P,U3,43,PA10*%
%TO.N,GPIO1_12VOut*%
X42251000Y-35351000D03*
%TO.P,U3,44,PA11*%
%TO.N,/CAN_RX*%
X42251000Y-35851000D03*
%TO.P,U3,45,PA12*%
%TO.N,/CAN_TX*%
X42251000Y-36351000D03*
%TO.P,U3,46,PA13*%
%TO.N,JTMS{slash}SWDIO*%
X42251000Y-36851000D03*
%TO.P,U3,47,VSS*%
%TO.N,GND*%
X42251000Y-37351000D03*
%TO.P,U3,48,VDDIO2*%
%TO.N,+3.3V*%
X42251000Y-37851000D03*
D51*
%TO.P,U3,49,PA14*%
%TO.N,JCLK{slash}SWCLK*%
X40326000Y-39776000D03*
%TO.P,U3,50,PA15*%
%TO.N,unconnected-(U3-PA15-Pad50)*%
X39826000Y-39776000D03*
%TO.P,U3,51,PC10*%
%TO.N,GPIO6_In*%
X39326000Y-39776000D03*
%TO.P,U3,52,PC11*%
%TO.N,GPIO6_5VOut*%
X38826000Y-39776000D03*
%TO.P,U3,53,PC12*%
%TO.N,GPIO6_12VOut*%
X38326000Y-39776000D03*
%TO.P,U3,54,PD2*%
%TO.N,GPIO5_In*%
X37826000Y-39776000D03*
%TO.P,U3,55,PB3*%
%TO.N,GPIO5_5VOut*%
X37326000Y-39776000D03*
%TO.P,U3,56,PB4*%
%TO.N,GPIO5_12VOut*%
X36826000Y-39776000D03*
%TO.P,U3,57,PB5*%
%TO.N,GPIO4_In*%
X36326000Y-39776000D03*
%TO.P,U3,58,PB6*%
%TO.N,GPIO4_5VOut*%
X35826000Y-39776000D03*
%TO.P,U3,59,PB7*%
%TO.N,GPIO4_12VOut*%
X35326000Y-39776000D03*
%TO.P,U3,60,BOOT0*%
%TO.N,/Boot0*%
X34826000Y-39776000D03*
%TO.P,U3,61,PB8*%
%TO.N,ADC3_NTC_CTRL*%
X34326000Y-39776000D03*
%TO.P,U3,62,PB9*%
%TO.N,ADC0_CTRL*%
X33826000Y-39776000D03*
%TO.P,U3,63,VSS*%
%TO.N,GND*%
X33326000Y-39776000D03*
%TO.P,U3,64,VDD*%
%TO.N,+3.3V*%
X32826000Y-39776000D03*
%TD*%
D14*
%TO.P,R45,1*%
%TO.N,Net-(U10B-+)*%
X70381500Y-20066000D03*
%TO.P,R45,2*%
%TO.N,GND*%
X68556500Y-20066000D03*
%TD*%
D39*
%TO.P,C24,1*%
%TO.N,GND*%
X50292000Y-32030500D03*
%TO.P,C24,2*%
%TO.N,ADC1*%
X50292000Y-33755500D03*
%TD*%
D14*
%TO.P,R22,1*%
%TO.N,Net-(D1-A)*%
X52093500Y-35433000D03*
%TO.P,R22,2*%
%TO.N,ADC1*%
X50268500Y-35433000D03*
%TD*%
%TO.P,R47,1*%
%TO.N,Net-(D3-A)*%
X56792500Y-17399000D03*
%TO.P,R47,2*%
%TO.N,ADC3*%
X54967500Y-17399000D03*
%TD*%
D15*
%TO.P,C13,1*%
%TO.N,+BATT*%
X65222000Y-55753000D03*
D16*
%TO.P,C13,2*%
%TO.N,GND*%
X61722000Y-55753000D03*
%TD*%
D52*
%TO.N,GND*%
X68707000Y-45339000D03*
X50136531Y-25051000D03*
X68072000Y-17526000D03*
X78232000Y-46736000D03*
X50800000Y-57023000D03*
X34163000Y-15621000D03*
X55626000Y-30226000D03*
X63881000Y-40005000D03*
X25518744Y-31961280D03*
X25527000Y-54864000D03*
X76536232Y-61980268D03*
X61849000Y-53340000D03*
X18288000Y-29591000D03*
X52578000Y-20193000D03*
X30480000Y-19431000D03*
X35052000Y-59846000D03*
X67552250Y-21070250D03*
X59182000Y-31115000D03*
X16256000Y-26797000D03*
X63754000Y-35306000D03*
X29210000Y-51816000D03*
X22606000Y-58166000D03*
X61341000Y-28321000D03*
X38862000Y-57150000D03*
X24257000Y-56388000D03*
X72898000Y-49657000D03*
X72517000Y-14224000D03*
X25146000Y-28956000D03*
X25019000Y-26035000D03*
X20320000Y-49276000D03*
X31877000Y-43053000D03*
X22352000Y-48895000D03*
X28067000Y-21463000D03*
X58801000Y-56896000D03*
X40458804Y-42091194D03*
X24003000Y-47244000D03*
X57150000Y-49530000D03*
X14478000Y-24638000D03*
X76962000Y-52197000D03*
X29464000Y-24765000D03*
X54229000Y-60452000D03*
X76962000Y-28067000D03*
X67056000Y-37465000D03*
X31750000Y-22225000D03*
X33274000Y-56388000D03*
X25908000Y-17399000D03*
X52070000Y-39751000D03*
X66167000Y-50165000D03*
X75311000Y-24765000D03*
X49911000Y-16764000D03*
X59309000Y-25781000D03*
X57926747Y-40117253D03*
X46228000Y-57023000D03*
X38862000Y-25146000D03*
X69469000Y-41783000D03*
X61595000Y-39116000D03*
X51435000Y-27686000D03*
X68580000Y-32131000D03*
X49403000Y-31115000D03*
X29210000Y-32131000D03*
X32639000Y-41402000D03*
X51308000Y-17780000D03*
X28956000Y-39116000D03*
X66802000Y-58293000D03*
X30226000Y-50800000D03*
X61214000Y-47625000D03*
X25146000Y-46101000D03*
X67970400Y-54254400D03*
X46482000Y-21525000D03*
X36576000Y-43180000D03*
X71374000Y-37211000D03*
X59055000Y-54102000D03*
X73025000Y-16637000D03*
%TO.N,+3.3V*%
X57023000Y-21209000D03*
X42164000Y-20636000D03*
X39893997Y-23114000D03*
X51149551Y-31161078D03*
X40144616Y-41142777D03*
X65659000Y-46101000D03*
X32893000Y-22225000D03*
X59563000Y-36195000D03*
X60452000Y-17907000D03*
X52265153Y-23690153D03*
X45720000Y-60960000D03*
X33580000Y-42750500D03*
X66802000Y-28194000D03*
%TO.N,+BATT*%
X55932000Y-55245000D03*
X53982000Y-55245000D03*
%TO.N,+5V*%
X64389000Y-22733000D03*
X59055000Y-43688000D03*
X50165000Y-40132000D03*
X43746847Y-26199000D03*
X55361250Y-47995250D03*
X56261000Y-25781000D03*
%TO.N,Analog0_In*%
X74766000Y-27559000D03*
X72263000Y-27559000D03*
%TO.N,JCLK{slash}SWCLK*%
X41384467Y-38579766D03*
%TO.N,JTMS{slash}SWDIO*%
X40485915Y-37681213D03*
%TO.N,Reset*%
X73664653Y-29214653D03*
X28702000Y-34544000D03*
X28194000Y-37084000D03*
X74417347Y-34068000D03*
%TO.N,Analog3_In*%
X72808000Y-22355667D03*
%TO.N,+12V*%
X39624000Y-15875000D03*
X55793347Y-15438161D03*
X51562000Y-14986000D03*
%TO.N,ADC1*%
X35909186Y-33199174D03*
X47281000Y-30381413D03*
%TO.N,ADC2*%
X36615695Y-32491466D03*
X44843547Y-30351154D03*
%TO.N,ADC3*%
X32004000Y-28829000D03*
X48450500Y-25082500D03*
%TO.N,ADC0*%
X49082251Y-27058798D03*
X34417000Y-33020000D03*
%TO.N,/CAN_TX*%
X40426000Y-30771000D03*
X42924502Y-29601803D03*
%TO.N,GPIO3_In*%
X42746539Y-48370500D03*
X37677721Y-50195607D03*
%TO.N,GPIO3_5VOut*%
X41770172Y-48586632D03*
X38481000Y-49600000D03*
%TO.N,GPIO4_In*%
X35560000Y-37592000D03*
%TO.N,GPIO4_5VOut*%
X36559782Y-45450000D03*
%TO.N,GPIO4_12VOut*%
X35560000Y-45450000D03*
%TO.N,GPIO5_12VOut*%
X36703000Y-37211000D03*
%TO.N,GPIO5_5VOut*%
X37719000Y-45450000D03*
%TO.N,GPIO5_In*%
X37592000Y-38100000D03*
%TO.N,GPIO6_12VOut*%
X38711298Y-45326102D03*
%TO.N,GPIO6_5VOut*%
X39497000Y-44704000D03*
%TO.N,GPIO6_In*%
X40402885Y-44085885D03*
%TO.N,ADC1_NTC_CTRL*%
X60960000Y-41275000D03*
X37088653Y-34835000D03*
%TO.N,ADC0_NTC_CTRL*%
X60960000Y-33655000D03*
X38113168Y-34835791D03*
%TO.N,ADC1_CTRL*%
X46478089Y-28157000D03*
X39254399Y-29706601D03*
%TO.N,ADC2_NTC_CTRL*%
X35941000Y-34798000D03*
X56642000Y-53086000D03*
%TO.N,ADC2_CTRL*%
X53340000Y-39751000D03*
X59219000Y-47752000D03*
%TO.N,ADC0_CTRL*%
X45080347Y-27427347D03*
X32766000Y-37211000D03*
%TO.N,ADC3_NTC_CTRL*%
X65024000Y-26924000D03*
X39633306Y-35433000D03*
%TO.N,/SPI2_MOSI_RGBLED*%
X50267269Y-15010731D03*
X40894000Y-23114000D03*
%TO.N,/nCS_Display*%
X34634296Y-24931496D03*
%TO.N,/SPI1_SCK_Display*%
X35246918Y-15934082D03*
X38481000Y-14859000D03*
X34271466Y-23270328D03*
X36503195Y-14786195D03*
%TO.N,/D_nC_Display*%
X35500633Y-22963000D03*
%TO.N,/SPI1_MOSI_Display*%
X36015138Y-16637916D03*
X36205916Y-21712316D03*
%TO.N,/nRES_Display*%
X41402000Y-18669000D03*
%TO.N,/SPI2_SCK_RGBLED*%
X50678465Y-14099182D03*
X37852049Y-22739049D03*
%TO.N,ADC3_CTRL*%
X46179376Y-29607000D03*
X58293000Y-18542000D03*
%TD*%
D53*
%TO.N,GND*%
X26476964Y-32919500D02*
X27178000Y-32919500D01*
X66233000Y-50099000D02*
X66167000Y-50165000D01*
X61976000Y-48387000D02*
X61214000Y-47625000D01*
X61976000Y-48646000D02*
X61976000Y-48387000D01*
X32564000Y-45312500D02*
X31877000Y-44625500D01*
X38253500Y-25973000D02*
X38253500Y-25754500D01*
X52968000Y-60960000D02*
X53721000Y-60960000D01*
D54*
X33326000Y-27583236D02*
X33068764Y-27326000D01*
D53*
X62357000Y-14324500D02*
X61695500Y-14986000D01*
X50292000Y-32004000D02*
X49403000Y-31115000D01*
X31877000Y-19519500D02*
X30568500Y-19519500D01*
D55*
X77851000Y-50942000D02*
X77851000Y-51308000D01*
D53*
X24117000Y-33363024D02*
X25518744Y-31961280D01*
D54*
X32362396Y-27326000D02*
X31268500Y-26232104D01*
D53*
X38599000Y-60849400D02*
X38599000Y-60960000D01*
X58316500Y-39116000D02*
X58316500Y-39727500D01*
X50138500Y-42926000D02*
X51662500Y-41402000D01*
X50136531Y-25581969D02*
X49683500Y-26035000D01*
X53467000Y-19150500D02*
X54740000Y-19150500D01*
D55*
X68326000Y-54610000D02*
X68939500Y-54610000D01*
D53*
X49911000Y-20608000D02*
X48270500Y-20608000D01*
X68912500Y-16685500D02*
X68072000Y-17526000D01*
X28151500Y-39116000D02*
X27178000Y-38142500D01*
X51662500Y-40427418D02*
X52070000Y-40019918D01*
D55*
X71374000Y-37211000D02*
X71374000Y-37075000D01*
D53*
X52417000Y-53213000D02*
X52417000Y-50283000D01*
X66372500Y-22926000D02*
X66372500Y-22250000D01*
X42545000Y-40994500D02*
X41529000Y-42010500D01*
D54*
X39053500Y-26773000D02*
X38253500Y-25973000D01*
D53*
X54740000Y-19150500D02*
X54967500Y-18923000D01*
D54*
X39473000Y-26773000D02*
X39053500Y-26773000D01*
D53*
X28177500Y-21573500D02*
X28067000Y-21463000D01*
D54*
X43853000Y-40194500D02*
X43053000Y-40994500D01*
D53*
X50136531Y-25051000D02*
X50136531Y-25581969D01*
D54*
X62525000Y-25353500D02*
X62525000Y-26605500D01*
D55*
X71374000Y-37075000D02*
X70494000Y-36195000D01*
D53*
X64836000Y-39672500D02*
X64213500Y-39672500D01*
X36599500Y-42037000D02*
X36599500Y-43156500D01*
X25821500Y-17485500D02*
X25908000Y-17399000D01*
X35052000Y-59846000D02*
X34845200Y-59639200D01*
D54*
X42251000Y-37351000D02*
X43194396Y-37351000D01*
D53*
X51662500Y-40427418D02*
X51662500Y-41402000D01*
X28177500Y-21352500D02*
X28067000Y-21463000D01*
X47536500Y-20470500D02*
X46482000Y-21525000D01*
D55*
X74857752Y-62803000D02*
X76483673Y-62032827D01*
D53*
X47222500Y-46101000D02*
X45339000Y-47984500D01*
D55*
X69193500Y-41507500D02*
X69469000Y-41783000D01*
D53*
X25667000Y-37010000D02*
X26045500Y-37010000D01*
X67134500Y-32324000D02*
X68387000Y-32324000D01*
X37388800Y-59639200D02*
X38599000Y-60849400D01*
X31877000Y-44625500D02*
X31877000Y-43053000D01*
X28177500Y-19939000D02*
X28177500Y-21352500D01*
X34845200Y-59639200D02*
X33121600Y-59639200D01*
X77573500Y-46077500D02*
X78232000Y-46736000D01*
X58117500Y-31816000D02*
X58481000Y-31816000D01*
X35052000Y-59846000D02*
X35258800Y-59639200D01*
X66233000Y-48562500D02*
X66233000Y-50099000D01*
X36599500Y-43156500D02*
X36576000Y-43180000D01*
X28956000Y-39116000D02*
X28151500Y-39116000D01*
D54*
X33068764Y-27326000D02*
X32362396Y-27326000D01*
D53*
X45085000Y-22922000D02*
X45085000Y-23684000D01*
X51308000Y-49530000D02*
X51308000Y-47140500D01*
X28956000Y-40901500D02*
X28894500Y-40963000D01*
D54*
X33326000Y-28426000D02*
X33326000Y-27583236D01*
D55*
X73787000Y-62803000D02*
X74857752Y-62803000D01*
D53*
X58481000Y-31816000D02*
X59182000Y-31115000D01*
D54*
X53254000Y-40935000D02*
X52070000Y-39751000D01*
D53*
X30568500Y-19519500D02*
X30480000Y-19431000D01*
X34417000Y-45312500D02*
X32564000Y-45312500D01*
X34098000Y-15686000D02*
X34163000Y-15621000D01*
X48133000Y-20470500D02*
X47536500Y-20470500D01*
X43455500Y-49911000D02*
X43455500Y-49868000D01*
X62689500Y-28895000D02*
X61915000Y-28895000D01*
D54*
X30901000Y-32351000D02*
X29430000Y-32351000D01*
D53*
X24257000Y-17485500D02*
X25821500Y-17485500D01*
X32619000Y-60141800D02*
X32619000Y-61087000D01*
X47397500Y-46101000D02*
X47222500Y-46101000D01*
X33121600Y-59639200D02*
X32619000Y-60141800D01*
X67552250Y-21070250D02*
X68556500Y-20066000D01*
X43053000Y-40994500D02*
X42545000Y-40994500D01*
X68387000Y-32324000D02*
X68580000Y-32131000D01*
D54*
X33326000Y-39776000D02*
X33326000Y-40715000D01*
D53*
X62357000Y-13199000D02*
X62357000Y-14324500D01*
X55372000Y-22330500D02*
X55372000Y-19327500D01*
X26045500Y-37010000D02*
X27178000Y-38142500D01*
X61341000Y-28321000D02*
X61341000Y-27789500D01*
X51308000Y-47140500D02*
X51816000Y-46632500D01*
D54*
X39826000Y-27126000D02*
X39473000Y-26773000D01*
D53*
X53721000Y-60960000D02*
X54229000Y-60452000D01*
X50395500Y-39160418D02*
X51662500Y-40427418D01*
D55*
X69193500Y-40386000D02*
X69193500Y-41507500D01*
D53*
X25518744Y-31961280D02*
X26476964Y-32919500D01*
X52070000Y-40019918D02*
X52070000Y-39751000D01*
X49887500Y-42926000D02*
X50138500Y-42926000D01*
X31750000Y-22225000D02*
X31268500Y-22706500D01*
X48270500Y-20608000D02*
X48133000Y-20470500D01*
X24117000Y-34110000D02*
X24117000Y-33363024D01*
X59663500Y-25426500D02*
X59309000Y-25781000D01*
X46482000Y-21525000D02*
X45085000Y-22922000D01*
X52417000Y-50283000D02*
X53170000Y-49530000D01*
D54*
X62525000Y-26605500D02*
X61952500Y-27178000D01*
X54910500Y-40935000D02*
X53254000Y-40935000D01*
D53*
X50395500Y-36957000D02*
X50395500Y-39160418D01*
X50292000Y-32030500D02*
X50292000Y-32004000D01*
D54*
X29430000Y-32351000D02*
X29210000Y-32131000D01*
D53*
X31268500Y-22706500D02*
X31268500Y-25146000D01*
D54*
X43853000Y-38009604D02*
X43853000Y-40194500D01*
D53*
X39015500Y-20193000D02*
X39015500Y-21971000D01*
X39015500Y-21971000D02*
X39015500Y-23560000D01*
X61341000Y-27789500D02*
X61952500Y-27178000D01*
X59663500Y-24638000D02*
X59663500Y-25426500D01*
X32914500Y-15686000D02*
X34098000Y-15686000D01*
D54*
X39826000Y-28426000D02*
X39826000Y-27126000D01*
D53*
X38253500Y-24322000D02*
X38253500Y-24537500D01*
X77343000Y-46077500D02*
X77573500Y-46077500D01*
X28956000Y-39116000D02*
X28956000Y-40901500D01*
X40458804Y-42091194D02*
X40539498Y-42010500D01*
X28177500Y-22733000D02*
X28177500Y-21573500D01*
X39015500Y-23560000D02*
X38253500Y-24322000D01*
X57150000Y-48281500D02*
X57150000Y-49530000D01*
D54*
X43194396Y-37351000D02*
X43853000Y-38009604D01*
D55*
X67970400Y-54254400D02*
X68326000Y-54610000D01*
D53*
X38253500Y-25754500D02*
X38862000Y-25146000D01*
D55*
X76483673Y-62032827D02*
X76536232Y-61980268D01*
D53*
X41753500Y-51613000D02*
X43455500Y-49911000D01*
X40539498Y-42010500D02*
X41529000Y-42010500D01*
X35258800Y-59639200D02*
X37388800Y-59639200D01*
X55372000Y-19327500D02*
X54967500Y-18923000D01*
D54*
X33326000Y-40715000D02*
X32639000Y-41402000D01*
D53*
X58316500Y-39727500D02*
X57926747Y-40117253D01*
X54898000Y-15240000D02*
X54898000Y-13360000D01*
X61915000Y-28895000D02*
X61341000Y-28321000D01*
X66372500Y-22250000D02*
X67552250Y-21070250D01*
X64213500Y-39672500D02*
X63881000Y-40005000D01*
X53467000Y-19150500D02*
X53467000Y-19304000D01*
X43455500Y-49868000D02*
X45339000Y-47984500D01*
X52935500Y-27686000D02*
X51435000Y-27686000D01*
X39082000Y-53213000D02*
X40682000Y-51613000D01*
X53170000Y-49530000D02*
X51308000Y-49530000D01*
X38253500Y-24537500D02*
X38862000Y-25146000D01*
X54898000Y-13360000D02*
X54737000Y-13199000D01*
D55*
X77851000Y-51308000D02*
X76962000Y-52197000D01*
D53*
X68912500Y-16576000D02*
X68912500Y-16685500D01*
D54*
X31268500Y-26232104D02*
X31268500Y-25146000D01*
D53*
X53467000Y-19304000D02*
X52578000Y-20193000D01*
X40682000Y-51613000D02*
X41753500Y-51613000D01*
D54*
%TO.N,Net-(3V3Good1-A)*%
X42521500Y-60960000D02*
X40649000Y-60960000D01*
%TO.N,Net-(5VGood1-A)*%
X49045500Y-60960000D02*
X50918000Y-60960000D01*
D53*
%TO.N,+3.3V*%
X32993500Y-22325500D02*
X32893000Y-22225000D01*
D55*
X41183500Y-20636000D02*
X40740500Y-20193000D01*
D54*
X31009500Y-40386000D02*
X31009500Y-40933000D01*
X32136000Y-37851000D02*
X32826000Y-38541000D01*
D53*
X59436000Y-17883500D02*
X60428500Y-17883500D01*
D54*
X33826000Y-28426000D02*
X33826000Y-25978500D01*
D53*
X43053000Y-39269500D02*
X42545000Y-39269500D01*
X39978500Y-23198503D02*
X39893997Y-23114000D01*
D54*
X42251000Y-38467500D02*
X43053000Y-39269500D01*
X30033236Y-29876000D02*
X33376000Y-29876000D01*
D53*
X51698306Y-24257000D02*
X52265153Y-23690153D01*
D54*
X40326000Y-28426000D02*
X40326000Y-26320500D01*
X32826000Y-38541000D02*
X32826000Y-39776000D01*
D53*
X30119000Y-59583000D02*
X28067000Y-57531000D01*
D54*
X30901000Y-31851000D02*
X30058236Y-31851000D01*
D53*
X32993500Y-23495000D02*
X32993500Y-22325500D01*
D54*
X42251000Y-37851000D02*
X42251000Y-38467500D01*
X33376000Y-29876000D02*
X33401000Y-29901000D01*
D53*
X39978500Y-24322000D02*
X39978500Y-25973000D01*
X57424000Y-22225000D02*
X57424000Y-21610000D01*
D54*
X32827000Y-42750500D02*
X33580000Y-42750500D01*
X30901000Y-37851000D02*
X30901000Y-40277500D01*
D55*
X42545000Y-20255000D02*
X42545000Y-18734000D01*
D53*
X59436000Y-36068000D02*
X59563000Y-36195000D01*
X65682500Y-46077500D02*
X65659000Y-46101000D01*
X65682500Y-44704000D02*
X65682500Y-46077500D01*
D54*
X33401000Y-29901000D02*
X33826000Y-29476000D01*
D53*
X30119000Y-61087000D02*
X30119000Y-59583000D01*
D54*
X29801000Y-30108236D02*
X30033236Y-29876000D01*
D53*
X40671723Y-41142777D02*
X41529000Y-40285500D01*
D54*
X30058236Y-31851000D02*
X29801000Y-31593764D01*
D53*
X67079500Y-27916500D02*
X66802000Y-28194000D01*
D54*
X31009500Y-40933000D02*
X32827000Y-42750500D01*
D55*
X42164000Y-20636000D02*
X42545000Y-20255000D01*
D53*
X59970500Y-13352500D02*
X59817000Y-13199000D01*
D54*
X29801000Y-31593764D02*
X29801000Y-30108236D01*
D53*
X47371000Y-50145000D02*
X45424500Y-50145000D01*
X45720000Y-60960000D02*
X44346500Y-60960000D01*
D54*
X33826000Y-25978500D02*
X32993500Y-25146000D01*
D53*
X59970500Y-14986000D02*
X59970500Y-13352500D01*
D54*
X33580000Y-42750500D02*
X34417000Y-43587500D01*
D53*
X40144616Y-41142777D02*
X40671723Y-41142777D01*
X67691000Y-27916500D02*
X67079500Y-27916500D01*
D54*
X30901000Y-37851000D02*
X32136000Y-37851000D01*
D55*
X42164000Y-20636000D02*
X41183500Y-20636000D01*
D53*
X51250473Y-31262000D02*
X51149551Y-31161078D01*
X58062500Y-36068000D02*
X59436000Y-36068000D01*
X39978500Y-24322000D02*
X39978500Y-23198503D01*
X57424000Y-21610000D02*
X57023000Y-21209000D01*
X45339000Y-50059500D02*
X42185500Y-53213000D01*
X42185500Y-53213000D02*
X41622000Y-53213000D01*
X60428500Y-17883500D02*
X60452000Y-17907000D01*
X45424500Y-50145000D02*
X45339000Y-50059500D01*
D54*
X40326000Y-26320500D02*
X39978500Y-25973000D01*
X30901000Y-40277500D02*
X31009500Y-40386000D01*
D53*
X52197000Y-31262000D02*
X51250473Y-31262000D01*
D54*
X33826000Y-29476000D02*
X33826000Y-28426000D01*
D53*
X32993500Y-23495000D02*
X32993500Y-25146000D01*
X51074000Y-24257000D02*
X51698306Y-24257000D01*
X42545000Y-39269500D02*
X41529000Y-40285500D01*
D54*
%TO.N,Net-(U3-PF0)*%
X27178000Y-36417500D02*
X26570500Y-35810000D01*
X24117000Y-36585000D02*
X24117000Y-37010000D01*
X26570500Y-35810000D02*
X24892000Y-35810000D01*
X30901000Y-35851000D02*
X27744500Y-35851000D01*
X24892000Y-35810000D02*
X24117000Y-36585000D01*
X27744500Y-35851000D02*
X27178000Y-36417500D01*
%TO.N,Net-(U3-PF1)*%
X30901000Y-35351000D02*
X27884500Y-35351000D01*
X26201500Y-34644500D02*
X25667000Y-34110000D01*
X27884500Y-35351000D02*
X27178000Y-34644500D01*
X27178000Y-34644500D02*
X26201500Y-34644500D01*
D53*
%TO.N,+BATT*%
X36542000Y-53213000D02*
X38142000Y-54813000D01*
X70754000Y-55880000D02*
X70754000Y-54870500D01*
X48277000Y-54813000D02*
X49877000Y-53213000D01*
X53982000Y-55245000D02*
X51909000Y-55245000D01*
X39844000Y-49911000D02*
X36542000Y-53213000D01*
X70745000Y-51512000D02*
X70745000Y-54340500D01*
X55932000Y-55245000D02*
X55932000Y-57559274D01*
X75829000Y-54473000D02*
X71151500Y-54473000D01*
X49877000Y-50174000D02*
X49233000Y-49530000D01*
X71151500Y-54473000D02*
X71014500Y-54610000D01*
X70754000Y-57404000D02*
X70754000Y-55880000D01*
X65349000Y-55880000D02*
X70754000Y-55880000D01*
X62122000Y-58853000D02*
X65222000Y-55753000D01*
X49877000Y-53213000D02*
X49877000Y-50174000D01*
X65222000Y-55753000D02*
X65349000Y-55880000D01*
X70745000Y-54340500D02*
X71014500Y-54610000D01*
X38142000Y-54813000D02*
X48277000Y-54813000D01*
X51909000Y-55245000D02*
X49877000Y-53213000D01*
X57225726Y-58853000D02*
X62122000Y-58853000D01*
X70754000Y-54870500D02*
X71014500Y-54610000D01*
X41380500Y-49911000D02*
X39844000Y-49911000D01*
X55932000Y-57559274D02*
X57225726Y-58853000D01*
D54*
%TO.N,+5V*%
X64475000Y-21128500D02*
X64475000Y-22647000D01*
D55*
X48311750Y-59868750D02*
X47220500Y-60960000D01*
D54*
X59135500Y-43607500D02*
X59055000Y-43688000D01*
X64475000Y-22647000D02*
X64389000Y-22733000D01*
D55*
X20888000Y-59822000D02*
X17907000Y-62803000D01*
D53*
X57706000Y-24405500D02*
X57938500Y-24638000D01*
D55*
X55361250Y-47995250D02*
X55245000Y-48111500D01*
X43815000Y-22709001D02*
X43076999Y-21971000D01*
D54*
X59135500Y-42885000D02*
X59135500Y-43607500D01*
D55*
X48663000Y-59517500D02*
X48311750Y-59868750D01*
X47220500Y-60960000D02*
X44578900Y-58318400D01*
X75829000Y-59553000D02*
X75704000Y-59678000D01*
X55361250Y-47995250D02*
X57150000Y-46206500D01*
X48311750Y-59868750D02*
X48703500Y-59477000D01*
X54957000Y-53213000D02*
X54957000Y-57751000D01*
X56884000Y-59678000D02*
X56683000Y-59477000D01*
X43076999Y-21971000D02*
X40740500Y-21971000D01*
X48703500Y-59477000D02*
X56683000Y-59477000D01*
X43746847Y-26199000D02*
X43815000Y-26130847D01*
X43815000Y-26130847D02*
X43815000Y-23684000D01*
X29105000Y-56156000D02*
X26521000Y-56156000D01*
X43815000Y-23684000D02*
X43815000Y-22709001D01*
X55245000Y-49530000D02*
X55245000Y-52925000D01*
X44578900Y-58318400D02*
X31267400Y-58318400D01*
D53*
X49937500Y-41402000D02*
X49937500Y-40359500D01*
D55*
X54957000Y-57751000D02*
X56683000Y-59477000D01*
X55245000Y-52925000D02*
X54957000Y-53213000D01*
D53*
X49937500Y-40359500D02*
X50165000Y-40132000D01*
D55*
X31267400Y-58318400D02*
X29105000Y-56156000D01*
D53*
X55372000Y-24892000D02*
X56261000Y-25781000D01*
D55*
X75704000Y-59678000D02*
X56884000Y-59678000D01*
X22855000Y-59822000D02*
X20888000Y-59822000D01*
X55245000Y-48111500D02*
X55245000Y-49530000D01*
D53*
X55372000Y-24405500D02*
X55372000Y-24892000D01*
X55372000Y-24405500D02*
X57706000Y-24405500D01*
D55*
X26521000Y-56156000D02*
X22855000Y-59822000D01*
D53*
%TO.N,Net-(C20-Pad2)*%
X26797000Y-13199000D02*
X29337000Y-13199000D01*
X30235000Y-14097000D02*
X30235000Y-14106000D01*
X30235000Y-14106000D02*
X30839500Y-14710500D01*
X29337000Y-13199000D02*
X30235000Y-14097000D01*
X30839500Y-14710500D02*
X30839500Y-15686000D01*
D54*
%TO.N,Net-(Error1-K)*%
X26352500Y-19939000D02*
X24480000Y-19939000D01*
%TO.N,Net-(Error1-A)*%
X23368000Y-20877000D02*
X23368000Y-23216100D01*
X28428000Y-26396000D02*
X28428000Y-32608299D01*
X29670701Y-33851000D02*
X30901000Y-33851000D01*
X23368000Y-23216100D02*
X23909900Y-23758000D01*
X22430000Y-19939000D02*
X23368000Y-20877000D01*
X25790000Y-23758000D02*
X28428000Y-26396000D01*
X28428000Y-32608299D02*
X29670701Y-33851000D01*
X23909900Y-23758000D02*
X25790000Y-23758000D01*
%TO.N,Net-(Heart1-K)*%
X26352500Y-22733000D02*
X24480000Y-22733000D01*
%TO.N,Net-(Heart1-A)*%
X22430000Y-22914496D02*
X23723504Y-24208000D01*
X29427000Y-34253000D02*
X29525000Y-34351000D01*
X23723504Y-24208000D02*
X25603604Y-24208000D01*
X29427000Y-34243695D02*
X29427000Y-34253000D01*
X27978000Y-26582396D02*
X27978000Y-32804000D01*
X27978000Y-32804000D02*
X28993000Y-33819000D01*
X28993000Y-33819000D02*
X29002305Y-33819000D01*
X29525000Y-34351000D02*
X30901000Y-34351000D01*
X29002305Y-33819000D02*
X29427000Y-34243695D01*
X22430000Y-22733000D02*
X22430000Y-22914496D01*
X25603604Y-24208000D02*
X27978000Y-26582396D01*
D53*
%TO.N,Net-(12VGood1-A)*%
X68444000Y-38114500D02*
X68683500Y-38354000D01*
X68444000Y-36195000D02*
X68444000Y-38114500D01*
D54*
%TO.N,Analog0_In*%
X74766000Y-27559000D02*
X74930000Y-27559000D01*
X72263000Y-27559000D02*
X71778500Y-27559000D01*
X77216000Y-25273000D02*
X77216000Y-17125000D01*
X77216000Y-17125000D02*
X76210000Y-16119000D01*
X74930000Y-27559000D02*
X77216000Y-25273000D01*
X71778500Y-27559000D02*
X70739000Y-28598500D01*
X70739000Y-30075500D02*
X70739000Y-28598500D01*
%TO.N,JCLK{slash}SWCLK*%
X41384467Y-38579766D02*
X41384467Y-38717533D01*
X41384467Y-38717533D02*
X40326000Y-39776000D01*
%TO.N,JTMS{slash}SWDIO*%
X40485915Y-37681213D02*
X41316128Y-36851000D01*
X41316128Y-36851000D02*
X42251000Y-36851000D01*
%TO.N,/Boot0*%
X34826000Y-42150500D02*
X34885000Y-42209500D01*
X34826000Y-39776000D02*
X34826000Y-42150500D01*
%TO.N,Analog1_In*%
X69512076Y-34417000D02*
X71539000Y-32390076D01*
X62244500Y-36792000D02*
X64935000Y-36792000D01*
X61444500Y-37592000D02*
X62244500Y-36792000D01*
X73533000Y-18796000D02*
X74940000Y-17389000D01*
X66878000Y-34849000D02*
X68148000Y-34849000D01*
X73533000Y-27559000D02*
X73533000Y-18796000D01*
X71539000Y-29553000D02*
X73533000Y-27559000D01*
X71539000Y-32390076D02*
X71539000Y-29553000D01*
X59840500Y-37592000D02*
X61444500Y-37592000D01*
X68148000Y-34849000D02*
X68580000Y-34417000D01*
X68580000Y-34417000D02*
X69512076Y-34417000D01*
X64935000Y-36792000D02*
X66878000Y-34849000D01*
%TO.N,Reset*%
X73664653Y-29214653D02*
X73664653Y-33315306D01*
X29009000Y-34851000D02*
X28702000Y-34544000D01*
X29972000Y-41795500D02*
X29972000Y-38862000D01*
X30901000Y-34851000D02*
X29009000Y-34851000D01*
X29972000Y-38862000D02*
X28194000Y-37084000D01*
X73664653Y-33315306D02*
X74417347Y-34068000D01*
X30927000Y-42750500D02*
X29972000Y-41795500D01*
X30891811Y-42785689D02*
X30927000Y-42750500D01*
%TO.N,Analog2_In*%
X67183000Y-42902500D02*
X68193924Y-41891576D01*
X68193924Y-41891576D02*
X68193924Y-39154000D01*
X74041000Y-19558000D02*
X74940000Y-18659000D01*
X69496000Y-38831076D02*
X69496000Y-35597900D01*
X74041000Y-27813000D02*
X74041000Y-19558000D01*
X72644000Y-29210000D02*
X74041000Y-27813000D01*
X62357000Y-42902500D02*
X67183000Y-42902500D01*
X69496000Y-35597900D02*
X72644000Y-32449900D01*
X68193924Y-39154000D02*
X69173076Y-39154000D01*
X72644000Y-32449900D02*
X72644000Y-29210000D01*
X69173076Y-39154000D02*
X69496000Y-38831076D01*
%TO.N,Analog3_In*%
X71905500Y-25146000D02*
X71905500Y-23241000D01*
X74740000Y-19876000D02*
X74740000Y-20003000D01*
X71922667Y-23241000D02*
X72808000Y-22355667D01*
X71905500Y-23241000D02*
X71922667Y-23241000D01*
D53*
%TO.N,+12V*%
X69977000Y-13199000D02*
X67437000Y-13199000D01*
X24257000Y-13199000D02*
X21717000Y-13199000D01*
X78448086Y-14643286D02*
X77003800Y-13199000D01*
X69454000Y-57404000D02*
X69454000Y-58154000D01*
X77003800Y-13199000D02*
X69977000Y-13199000D01*
X71268500Y-40386000D02*
X71268500Y-43305500D01*
X78359000Y-24943172D02*
X78448086Y-24854086D01*
X77177000Y-55102106D02*
X77177000Y-53809000D01*
X71268500Y-43305500D02*
X71500000Y-43537000D01*
X77035503Y-40386000D02*
X77035503Y-40563003D01*
X72136000Y-57658000D02*
X72136000Y-56896000D01*
X70508500Y-39626000D02*
X71268500Y-40386000D01*
X75829000Y-55743000D02*
X76536106Y-55743000D01*
X69904000Y-58604000D02*
X71190000Y-58604000D01*
X78359000Y-39062503D02*
X78359000Y-24943172D01*
X77035503Y-40563003D02*
X78105000Y-41632500D01*
X77177000Y-53809000D02*
X76430000Y-53062000D01*
X74255000Y-52665000D02*
X74255000Y-47182000D01*
X73289000Y-55743000D02*
X75829000Y-55743000D01*
X69454000Y-58154000D02*
X69904000Y-58604000D01*
X58277212Y-16096000D02*
X64540000Y-16096000D01*
X74652000Y-53062000D02*
X74255000Y-52665000D01*
X71268500Y-40386000D02*
X77035503Y-40386000D01*
X70508500Y-38354000D02*
X70508500Y-39626000D01*
X76536106Y-55743000D02*
X77177000Y-55102106D01*
X78448086Y-24854086D02*
X78448086Y-14643286D01*
X74255000Y-47182000D02*
X74550000Y-46887000D01*
X57619373Y-15438161D02*
X58277212Y-16096000D01*
X64540000Y-16096000D02*
X67437000Y-13199000D01*
X72136000Y-56896000D02*
X73289000Y-55743000D01*
X24257000Y-15410500D02*
X24257000Y-13199000D01*
X55793347Y-15438161D02*
X57619373Y-15438161D01*
X78105000Y-42775500D02*
X78105000Y-41632500D01*
X77035503Y-40386000D02*
X78359000Y-39062503D01*
X71190000Y-58604000D02*
X72136000Y-57658000D01*
X73025000Y-45212000D02*
X72189000Y-44376000D01*
X76430000Y-53062000D02*
X74652000Y-53062000D01*
D56*
%TO.N,CAN1_N*%
X43815000Y-16976500D02*
X43537500Y-16699000D01*
D54*
X57531040Y-16163000D02*
X55025000Y-16163000D01*
X64827645Y-16671000D02*
X58039040Y-16671000D01*
X66385645Y-15113000D02*
X64827645Y-16671000D01*
D56*
X43815000Y-18734000D02*
X43815000Y-16976500D01*
X53086000Y-15240000D02*
X53594000Y-15748000D01*
D54*
X76210000Y-14469000D02*
X75765000Y-14024000D01*
D56*
X52798000Y-15240000D02*
X53086000Y-15240000D01*
D54*
X55025000Y-16163000D02*
X54737000Y-15875000D01*
X76210000Y-14849000D02*
X76210000Y-14469000D01*
D56*
X44525769Y-15710731D02*
X52327269Y-15710731D01*
D54*
X58039040Y-16671000D02*
X57531040Y-16163000D01*
D56*
X43537500Y-16699000D02*
X44525769Y-15710731D01*
D54*
X73025000Y-15113000D02*
X66385645Y-15113000D01*
X74114000Y-14024000D02*
X73025000Y-15113000D01*
D56*
X53721000Y-15875000D02*
X54610000Y-15875000D01*
X52327269Y-15710731D02*
X52798000Y-15240000D01*
D54*
X75765000Y-14024000D02*
X74114000Y-14024000D01*
D56*
X54610000Y-15875000D02*
X54737000Y-15875000D01*
X53594000Y-15748000D02*
X53721000Y-15875000D01*
D53*
%TO.N,ADC1*%
X50268500Y-33779000D02*
X50268500Y-35433000D01*
X50292000Y-33755500D02*
X50268500Y-33779000D01*
D54*
X35909186Y-33199174D02*
X33561012Y-30851000D01*
X50292000Y-33655000D02*
X47556000Y-30919000D01*
X33561012Y-30851000D02*
X30901000Y-30851000D01*
X50292000Y-33755500D02*
X50292000Y-33655000D01*
X47556000Y-30919000D02*
X47556000Y-30656413D01*
X47556000Y-30656413D02*
X47281000Y-30381413D01*
%TO.N,ADC2*%
X36615695Y-32491466D02*
X34475229Y-30351000D01*
X49022000Y-43791500D02*
X48236500Y-44577000D01*
X49149000Y-40386000D02*
X49022000Y-40513000D01*
X49149000Y-33401000D02*
X49149000Y-40386000D01*
D53*
X48236500Y-44577000D02*
X48236500Y-45215000D01*
D54*
X44843547Y-30351154D02*
X46099154Y-30351154D01*
D53*
X48236500Y-45215000D02*
X49122500Y-46101000D01*
D54*
X49022000Y-40513000D02*
X49022000Y-43791500D01*
X34475229Y-30351000D02*
X30901000Y-30351000D01*
X46099154Y-30351154D02*
X49149000Y-33401000D01*
D53*
%TO.N,ADC3*%
X53467000Y-17425500D02*
X54941000Y-17425500D01*
X54941000Y-17425500D02*
X54967500Y-17399000D01*
D54*
X51308000Y-19177000D02*
X53059500Y-17425500D01*
X32407000Y-28426000D02*
X32826000Y-28426000D01*
X48450500Y-25082500D02*
X51308000Y-22225000D01*
X51308000Y-22225000D02*
X51308000Y-19177000D01*
X53059500Y-17425500D02*
X53467000Y-17425500D01*
X32004000Y-28829000D02*
X32407000Y-28426000D01*
%TO.N,ADC0*%
X30901000Y-31351000D02*
X32748000Y-31351000D01*
X49082251Y-27058798D02*
X50384702Y-27058798D01*
D53*
X51408500Y-26035000D02*
X52935500Y-26035000D01*
D54*
X50384702Y-27058798D02*
X51408500Y-26035000D01*
X32748000Y-31351000D02*
X34417000Y-33020000D01*
D53*
%TO.N,Net-(D1-A)*%
X55406146Y-40259000D02*
X56866412Y-40259000D01*
X56866412Y-40259000D02*
X58517412Y-41910000D01*
D54*
X59135500Y-41585000D02*
X59135500Y-41910000D01*
D53*
X52220500Y-37073354D02*
X55406146Y-40259000D01*
X58517412Y-41910000D02*
X59135500Y-41910000D01*
D54*
X59135500Y-41910000D02*
X59135500Y-42235000D01*
D53*
X52093500Y-33865500D02*
X52093500Y-35433000D01*
X52093500Y-36830000D02*
X52220500Y-36957000D01*
X52220500Y-36957000D02*
X52220500Y-37073354D01*
X52197000Y-33762000D02*
X52093500Y-33865500D01*
X52093500Y-35433000D02*
X52093500Y-36830000D01*
%TO.N,Net-(D2-A)*%
X50145000Y-44660500D02*
X50145000Y-46594854D01*
X51816000Y-44807500D02*
X51816000Y-44577000D01*
X50145000Y-46594854D02*
X49094854Y-47645000D01*
X49094854Y-47645000D02*
X47371000Y-47645000D01*
D54*
X54910500Y-42545000D02*
X54910500Y-42885000D01*
D53*
X53848000Y-42545000D02*
X54910500Y-42545000D01*
D54*
X54910500Y-42235000D02*
X54910500Y-42545000D01*
D53*
X50061500Y-44577000D02*
X50145000Y-44660500D01*
X51816000Y-44807500D02*
X50292000Y-44807500D01*
X50292000Y-44807500D02*
X50061500Y-44577000D01*
X51816000Y-44577000D02*
X53848000Y-42545000D01*
%TO.N,Net-(D3-A)*%
X56792500Y-17399000D02*
X56792500Y-19093500D01*
X62953000Y-22391000D02*
X63500000Y-21844000D01*
X59924000Y-22225000D02*
X60090000Y-22391000D01*
D54*
X63500000Y-21128500D02*
X63825000Y-21128500D01*
D53*
X60090000Y-22391000D02*
X62953000Y-22391000D01*
X56792500Y-19093500D02*
X59924000Y-22225000D01*
X63500000Y-21844000D02*
X63500000Y-21128500D01*
D54*
X63175000Y-21128500D02*
X63500000Y-21128500D01*
D53*
%TO.N,Net-(D8-A)*%
X63505588Y-24091000D02*
X64135000Y-24720412D01*
X54760500Y-27686000D02*
X59690000Y-27686000D01*
X61468000Y-25908000D02*
X61468000Y-24817412D01*
X59690000Y-27686000D02*
X61468000Y-25908000D01*
D54*
X63825000Y-25353500D02*
X64135000Y-25353500D01*
D53*
X64135000Y-24720412D02*
X64135000Y-25353500D01*
X54760500Y-26035000D02*
X54760500Y-27686000D01*
X53574000Y-24848500D02*
X54760500Y-26035000D01*
X53574000Y-24257000D02*
X53574000Y-24848500D01*
X61468000Y-24817412D02*
X62194412Y-24091000D01*
X62194412Y-24091000D02*
X63505588Y-24091000D01*
D54*
X64135000Y-25353500D02*
X64475000Y-25353500D01*
%TO.N,GPIO1_In*%
X22352000Y-25783792D02*
X20309000Y-23740792D01*
X45223000Y-36207444D02*
X45223000Y-41563868D01*
X19039000Y-18161000D02*
X17399000Y-18161000D01*
X22352000Y-38492792D02*
X22352000Y-25783792D01*
X42251000Y-34351000D02*
X43366556Y-34351000D01*
X22969208Y-39110000D02*
X22352000Y-38492792D01*
X23675300Y-39110000D02*
X22969208Y-39110000D01*
X43366556Y-34351000D02*
X45223000Y-36207444D01*
X20309000Y-23740792D02*
X20309000Y-19431000D01*
X31640300Y-47075000D02*
X23675300Y-39110000D01*
X45223000Y-41563868D02*
X39711868Y-47075000D01*
X39711868Y-47075000D02*
X31640300Y-47075000D01*
X20309000Y-19431000D02*
X19039000Y-18161000D01*
%TO.N,GPIO1_5VOut*%
X23155604Y-38660000D02*
X22892000Y-38396396D01*
X23861696Y-38660000D02*
X23155604Y-38660000D01*
X44773000Y-41377472D02*
X39525472Y-46625000D01*
X31826696Y-46625000D02*
X23861696Y-38660000D01*
X43230160Y-34851000D02*
X44773000Y-36393840D01*
X44773000Y-36393840D02*
X44773000Y-41377472D01*
X20759000Y-23554396D02*
X20759000Y-18923000D01*
X39525472Y-46625000D02*
X31826696Y-46625000D01*
X22892000Y-25687396D02*
X20759000Y-23554396D01*
X20759000Y-18923000D02*
X18727000Y-16891000D01*
X42251000Y-34851000D02*
X43230160Y-34851000D01*
X18727000Y-16891000D02*
X17399000Y-16891000D01*
X22892000Y-38396396D02*
X22892000Y-25687396D01*
%TO.N,GPIO1_12VOut*%
X42251000Y-35351000D02*
X43093764Y-35351000D01*
X23342000Y-25501000D02*
X21209000Y-23368000D01*
X44323000Y-36580236D02*
X44323000Y-41191076D01*
X21209000Y-23368000D02*
X21209000Y-18161000D01*
X18669000Y-15621000D02*
X17399000Y-15621000D01*
X24048092Y-38210000D02*
X23342000Y-38210000D01*
X32013092Y-46175000D02*
X24048092Y-38210000D01*
X39339076Y-46175000D02*
X32013092Y-46175000D01*
X43093764Y-35351000D02*
X44323000Y-36580236D01*
X44323000Y-41191076D02*
X39339076Y-46175000D01*
X23342000Y-38210000D02*
X23342000Y-25501000D01*
X21209000Y-18161000D02*
X18669000Y-15621000D01*
%TO.N,GPIO2_In*%
X42251000Y-32851000D02*
X43775744Y-32851000D01*
X46573000Y-42123056D02*
X40271056Y-48425000D01*
X46573000Y-35648256D02*
X46573000Y-42123056D01*
X22410020Y-40460000D02*
X21002000Y-39051980D01*
X21002000Y-26342980D02*
X16129000Y-21469980D01*
X16129000Y-21469980D02*
X16129000Y-20701000D01*
X23116112Y-40460000D02*
X22410020Y-40460000D01*
X31081112Y-48425000D02*
X23116112Y-40460000D01*
X40271056Y-48425000D02*
X31081112Y-48425000D01*
X43775744Y-32851000D02*
X46573000Y-35648256D01*
X21002000Y-39051980D02*
X21002000Y-26342980D01*
%TO.N,GPIO2_5VOut*%
X46123000Y-41936660D02*
X40084660Y-47975000D01*
X21452000Y-26156584D02*
X19050000Y-23754584D01*
X22596416Y-40010000D02*
X21452000Y-38865584D01*
X43639348Y-33351000D02*
X46123000Y-35834652D01*
X42251000Y-33351000D02*
X43639348Y-33351000D01*
X19050000Y-23754584D02*
X19050000Y-22418292D01*
X40084660Y-47975000D02*
X31267508Y-47975000D01*
X23302508Y-40010000D02*
X22596416Y-40010000D01*
X46123000Y-35834652D02*
X46123000Y-41936660D01*
X21452000Y-38865584D02*
X21452000Y-26156584D01*
X31267508Y-47975000D02*
X23302508Y-40010000D01*
X19050000Y-22418292D02*
X17399000Y-20767292D01*
X17399000Y-20767292D02*
X17399000Y-20701000D01*
%TO.N,GPIO2_12VOut*%
X21902000Y-25970188D02*
X19859000Y-23927188D01*
X19859000Y-20557500D02*
X18732500Y-19431000D01*
X19859000Y-23927188D02*
X19859000Y-20557500D01*
X43502952Y-33851000D02*
X45673000Y-36021048D01*
X21902000Y-38679188D02*
X21902000Y-25970188D01*
X42251000Y-33851000D02*
X43502952Y-33851000D01*
X23488904Y-39560000D02*
X22782812Y-39560000D01*
X22782812Y-39560000D02*
X21902000Y-38679188D01*
X39898264Y-47525000D02*
X31453904Y-47525000D01*
X31453904Y-47525000D02*
X23488904Y-39560000D01*
X45673000Y-36021048D02*
X45673000Y-41750264D01*
X45673000Y-41750264D02*
X39898264Y-47525000D01*
X18732500Y-19431000D02*
X17399000Y-19431000D01*
%TO.N,/CAN_RX*%
X42545000Y-28956000D02*
X42545000Y-23684000D01*
X42273000Y-35873000D02*
X42251000Y-35851000D01*
X41151000Y-30108236D02*
X41383236Y-29876000D01*
X41383236Y-29876000D02*
X41625000Y-29876000D01*
X41408236Y-35851000D02*
X41151000Y-35593764D01*
X41151000Y-35593764D02*
X41151000Y-30108236D01*
X41625000Y-29876000D02*
X42545000Y-28956000D01*
X42251000Y-35851000D02*
X41408236Y-35851000D01*
%TO.N,/CAN_TX*%
X40426000Y-30771000D02*
X40426000Y-30774000D01*
X42995000Y-29142396D02*
X42995000Y-28125000D01*
X46355000Y-24765000D02*
X46355000Y-23684000D01*
X41271840Y-36351000D02*
X42251000Y-36351000D01*
X42924502Y-29601803D02*
X42924502Y-29212894D01*
X42995000Y-28125000D02*
X46355000Y-24765000D01*
X40701000Y-35780160D02*
X41271840Y-36351000D01*
X40701000Y-31049000D02*
X40701000Y-35780160D01*
X42924502Y-29212894D02*
X42995000Y-29142396D01*
X40426000Y-30774000D02*
X40701000Y-31049000D01*
%TO.N,GPIO3_In*%
X42799000Y-47806244D02*
X42799000Y-48006000D01*
X37677721Y-50195607D02*
X30942531Y-50195607D01*
X19431000Y-26924000D02*
X14404000Y-21897000D01*
X48017000Y-35060208D02*
X48017000Y-42588244D01*
X42251000Y-31351000D02*
X44307792Y-31351000D01*
X14404000Y-18616000D02*
X16129000Y-16891000D01*
X30942531Y-50195607D02*
X22556924Y-41810000D01*
X22556924Y-41810000D02*
X21741208Y-41810000D01*
X42799000Y-48318039D02*
X42746539Y-48370500D01*
X48017000Y-42588244D02*
X42799000Y-47806244D01*
X42799000Y-48006000D02*
X42799000Y-48318039D01*
X44307792Y-31351000D02*
X48017000Y-35060208D01*
X14404000Y-21897000D02*
X14404000Y-18616000D01*
X19431000Y-39499792D02*
X19431000Y-26924000D01*
X21741208Y-41810000D02*
X19431000Y-39499792D01*
%TO.N,GPIO3_5VOut*%
X38206000Y-49325000D02*
X30708320Y-49325000D01*
X44171396Y-31851000D02*
X47567000Y-35246604D01*
X30708320Y-49325000D02*
X22743320Y-41360000D01*
X47567000Y-42401848D02*
X41770172Y-48198676D01*
X21927604Y-41360000D02*
X19997000Y-39429396D01*
X14854000Y-19436000D02*
X16129000Y-18161000D01*
X19997000Y-26729396D02*
X14854000Y-21586396D01*
X47567000Y-35246604D02*
X47567000Y-42401848D01*
X19997000Y-39429396D02*
X19997000Y-26729396D01*
X41770172Y-48198676D02*
X41770172Y-48586632D01*
X14854000Y-21586396D02*
X14854000Y-19436000D01*
X38481000Y-49600000D02*
X38206000Y-49325000D01*
X42251000Y-31851000D02*
X44171396Y-31851000D01*
X22743320Y-41360000D02*
X21927604Y-41360000D01*
%TO.N,GPIO3_12VOut*%
X20447000Y-26543000D02*
X15304000Y-21400000D01*
X15304000Y-19849600D02*
X15722600Y-19431000D01*
X42251000Y-32351000D02*
X44035000Y-32351000D01*
X22929716Y-40910000D02*
X22114000Y-40910000D01*
X40457452Y-48875000D02*
X30894716Y-48875000D01*
X20447000Y-39243000D02*
X20447000Y-26543000D01*
X22114000Y-40910000D02*
X20447000Y-39243000D01*
X47117000Y-35433000D02*
X47117000Y-42215452D01*
X15722600Y-19431000D02*
X16129000Y-19431000D01*
X47117000Y-42215452D02*
X40457452Y-48875000D01*
X15304000Y-21400000D02*
X15304000Y-19849600D01*
X30894716Y-48875000D02*
X22929716Y-40910000D01*
X44035000Y-32351000D02*
X47117000Y-35433000D01*
%TO.N,GPIO4_In*%
X36326000Y-39776000D02*
X36326000Y-38358000D01*
X36326000Y-38358000D02*
X35560000Y-37592000D01*
%TO.N,GPIO4_5VOut*%
X37412000Y-44597782D02*
X36559782Y-45450000D01*
X35826000Y-40618764D02*
X36083236Y-40876000D01*
X36083236Y-40876000D02*
X36812000Y-40876000D01*
X36812000Y-40876000D02*
X37412000Y-41476000D01*
X37412000Y-41476000D02*
X37412000Y-44597782D01*
X35826000Y-39776000D02*
X35826000Y-40618764D01*
%TO.N,GPIO4_12VOut*%
X35326000Y-39776000D02*
X35326000Y-41295000D01*
X35326000Y-41295000D02*
X35587000Y-41556000D01*
X35587000Y-45423000D02*
X35560000Y-45450000D01*
X35587000Y-41556000D02*
X35587000Y-45423000D01*
D56*
%TO.N,CAN1_P*%
X49911000Y-17907000D02*
X51230000Y-16588000D01*
X57355000Y-16588000D02*
X57863000Y-17096000D01*
X45085000Y-18734000D02*
X45085000Y-16976500D01*
X74251000Y-15538000D02*
X74940000Y-14849000D01*
X66561686Y-15538000D02*
X74251000Y-15538000D01*
X65003686Y-17096000D02*
X66561686Y-15538000D01*
X45362500Y-16699000D02*
X48102000Y-16699000D01*
X45085000Y-16976500D02*
X45362500Y-16699000D01*
X48102000Y-16699000D02*
X49911000Y-18508000D01*
X57863000Y-17096000D02*
X65003686Y-17096000D01*
X51230000Y-16588000D02*
X57355000Y-16588000D01*
X49911000Y-18508000D02*
X49911000Y-17907000D01*
D54*
%TO.N,GPIO5_12VOut*%
X36703000Y-37211000D02*
X36826000Y-37334000D01*
X36826000Y-37334000D02*
X36826000Y-39776000D01*
%TO.N,GPIO5_5VOut*%
X37326000Y-39776000D02*
X37326000Y-40618764D01*
X37326000Y-40618764D02*
X37862000Y-41154764D01*
X37862000Y-45307000D02*
X37719000Y-45450000D01*
X37862000Y-41154764D02*
X37862000Y-45307000D01*
%TO.N,GPIO5_In*%
X37826000Y-39776000D02*
X37826000Y-38334000D01*
X37826000Y-38334000D02*
X37592000Y-38100000D01*
%TO.N,GPIO6_12VOut*%
X38326000Y-39776000D02*
X38326000Y-44940804D01*
X38326000Y-44940804D02*
X38711298Y-45326102D01*
%TO.N,GPIO6_5VOut*%
X38826000Y-39776000D02*
X38826000Y-44033000D01*
X38826000Y-44033000D02*
X39497000Y-44704000D01*
%TO.N,GPIO6_In*%
X39326000Y-43009000D02*
X40402885Y-44085885D01*
X39326000Y-39776000D02*
X39326000Y-43009000D01*
D53*
%TO.N,Net-(U6-IREF)*%
X31877000Y-13199000D02*
X31877000Y-17694500D01*
D54*
%TO.N,Net-(U7-STBY)*%
X46355000Y-18734000D02*
X48044500Y-18734000D01*
X48044500Y-18734000D02*
X48133000Y-18645500D01*
D53*
%TO.N,Net-(JP1-B)*%
X76418000Y-46618854D02*
X76418000Y-45536146D01*
X75305000Y-51512000D02*
X77175000Y-49642000D01*
X77851000Y-49642000D02*
X77343000Y-49134000D01*
X77175000Y-49642000D02*
X77851000Y-49642000D01*
X77353646Y-44600500D02*
X78105000Y-44600500D01*
X77343000Y-47140500D02*
X77217500Y-47015000D01*
X76418000Y-45536146D02*
X77353646Y-44600500D01*
X77343000Y-49134000D02*
X77343000Y-47140500D01*
X76814146Y-47015000D02*
X76418000Y-46618854D01*
X77217500Y-47015000D02*
X76814146Y-47015000D01*
%TO.N,Net-(Q1-B)*%
X65301500Y-33528000D02*
X66438500Y-33528000D01*
X66438500Y-33528000D02*
X67134500Y-34224000D01*
%TO.N,Net-(Q1-C)*%
X70739000Y-31900500D02*
X70383000Y-31900500D01*
X70383000Y-31900500D02*
X69009500Y-33274000D01*
%TO.N,Net-(Q2-B)*%
X66736000Y-41364500D02*
X66698500Y-41402000D01*
X66736000Y-39672500D02*
X66736000Y-41364500D01*
%TO.N,Net-(Q2-C)*%
X65580500Y-37592000D02*
X65786000Y-37797500D01*
X63269500Y-37592000D02*
X65580500Y-37592000D01*
%TO.N,Net-(Q3-B)*%
X55964500Y-33716000D02*
X55903500Y-33655000D01*
X58117500Y-33716000D02*
X55964500Y-33716000D01*
%TO.N,Net-(Q3-C)*%
X54483000Y-36044500D02*
X55384500Y-35143000D01*
X58280684Y-35143000D02*
X59992500Y-33431184D01*
X55384500Y-35143000D02*
X58280684Y-35143000D01*
X59992500Y-33431184D02*
X59992500Y-32766000D01*
%TO.N,Net-(Q4-B)*%
X68199000Y-48628500D02*
X68133000Y-48562500D01*
X68199000Y-50395500D02*
X68199000Y-48628500D01*
%TO.N,Net-(Q4-C)*%
X67183000Y-46687500D02*
X67183000Y-44727500D01*
%TO.N,Net-(Q5-B)*%
X59776000Y-50546000D02*
X59738500Y-50508500D01*
X61976000Y-50546000D02*
X59776000Y-50546000D01*
%TO.N,Net-(Q5-C)*%
X61491500Y-46228000D02*
X63851000Y-48587500D01*
X63851000Y-48587500D02*
X63851000Y-49596000D01*
%TO.N,Net-(Q6-B)*%
X66372500Y-24826000D02*
X66378500Y-24826000D01*
X66378500Y-24826000D02*
X67968500Y-26416000D01*
%TO.N,Net-(Q6-C)*%
X68247500Y-23876000D02*
X68810500Y-23876000D01*
X68810500Y-23876000D02*
X70080500Y-25146000D01*
%TO.N,Net-(Q7-B)*%
X62689500Y-30795000D02*
X62314500Y-30795000D01*
X62314500Y-30795000D02*
X60221500Y-28702000D01*
%TO.N,Net-(Q7-C)*%
X65477000Y-30757500D02*
X69215000Y-30757500D01*
X64564500Y-29845000D02*
X65477000Y-30757500D01*
%TO.N,Net-(Q8-B)*%
X67267500Y-18476000D02*
X66698500Y-17907000D01*
X68912500Y-18476000D02*
X67267500Y-18476000D01*
%TO.N,Net-(Q8-C)*%
X70787500Y-17526000D02*
X71905500Y-18644000D01*
X71905500Y-18644000D02*
X71905500Y-21590000D01*
D54*
%TO.N,ADC1_NTC_CTRL*%
X38497945Y-33425708D02*
X37088653Y-34835000D01*
X60960000Y-41275000D02*
X61087000Y-41402000D01*
X61087000Y-41402000D02*
X64873500Y-41402000D01*
X37826000Y-29939903D02*
X38497945Y-30611848D01*
X38497945Y-30611848D02*
X38497945Y-33425708D01*
X37826000Y-28426000D02*
X37826000Y-29939903D01*
%TO.N,ADC0_NTC_CTRL*%
X38947347Y-30424854D02*
X38326000Y-29803507D01*
X38326000Y-29803507D02*
X38326000Y-28426000D01*
X61087000Y-33528000D02*
X63476500Y-33528000D01*
X38113168Y-34835791D02*
X38947347Y-34001612D01*
X60960000Y-33655000D02*
X61087000Y-33528000D01*
X38947347Y-34001612D02*
X38947347Y-30424854D01*
%TO.N,Net-(U9B-+)*%
X59182000Y-40888500D02*
X59182000Y-38481000D01*
X59135500Y-40935000D02*
X59182000Y-40888500D01*
D53*
X55833000Y-37869500D02*
X56134000Y-37568500D01*
X56491500Y-39116000D02*
X56491500Y-38528000D01*
X57992000Y-37568500D02*
X58015500Y-37592000D01*
X54483000Y-37869500D02*
X55833000Y-37869500D01*
X56491500Y-38528000D02*
X55833000Y-37869500D01*
X56134000Y-37568500D02*
X57992000Y-37568500D01*
D54*
X58293000Y-37592000D02*
X58015500Y-37592000D01*
D53*
X56237500Y-37465000D02*
X56134000Y-37568500D01*
X56237500Y-36068000D02*
X56237500Y-37465000D01*
D54*
X59182000Y-38481000D02*
X58293000Y-37592000D01*
%TO.N,ADC1_CTRL*%
X54078500Y-30329500D02*
X54078500Y-33655000D01*
X46478089Y-28157000D02*
X48518752Y-28157000D01*
X49513752Y-29152000D02*
X52901000Y-29152000D01*
X39326000Y-28426000D02*
X39326000Y-29635000D01*
X48518752Y-28157000D02*
X49513752Y-29152000D01*
X52901000Y-29152000D02*
X54078500Y-30329500D01*
X39326000Y-29635000D02*
X39254399Y-29706601D01*
%TO.N,ADC2_NTC_CTRL*%
X38047945Y-32691055D02*
X35941000Y-34798000D01*
X57507500Y-52220500D02*
X68199000Y-52220500D01*
X56642000Y-53086000D02*
X57507500Y-52220500D01*
X37326000Y-30076299D02*
X38047945Y-30798244D01*
X38047945Y-30798244D02*
X38047945Y-32691055D01*
X37326000Y-28426000D02*
X37326000Y-30076299D01*
D53*
%TO.N,Net-(U10A-+)*%
X69215000Y-28932500D02*
X68500000Y-28932500D01*
D54*
X63175000Y-25353500D02*
X63175000Y-26575500D01*
D53*
X66341000Y-29741500D02*
X63777500Y-27178000D01*
X68500000Y-28932500D02*
X67691000Y-29741500D01*
X67691000Y-29741500D02*
X66341000Y-29741500D01*
D54*
X63175000Y-26575500D02*
X63777500Y-27178000D01*
D53*
X70739000Y-26773500D02*
X69215000Y-28297500D01*
X69215000Y-28297500D02*
X69215000Y-28932500D01*
D54*
%TO.N,ADC2_CTRL*%
X43649502Y-29883498D02*
X44651000Y-28882000D01*
X52692100Y-32937000D02*
X51701900Y-32937000D01*
X51701900Y-32937000D02*
X51281000Y-33357900D01*
X43649502Y-29902108D02*
X43649502Y-29883498D01*
X53266000Y-32363100D02*
X52692100Y-32937000D01*
X50162356Y-30437000D02*
X52692100Y-30437000D01*
X42251000Y-30351000D02*
X43200610Y-30351000D01*
X51281000Y-37692000D02*
X53340000Y-39751000D01*
X53266000Y-31010900D02*
X53266000Y-32363100D01*
X52692100Y-30437000D02*
X53266000Y-31010900D01*
X43200610Y-30351000D02*
X43649502Y-29902108D01*
X59219000Y-47752000D02*
X59219000Y-48164000D01*
X44651000Y-28882000D02*
X48607356Y-28882000D01*
X48607356Y-28882000D02*
X50162356Y-30437000D01*
X59219000Y-48164000D02*
X59738500Y-48683500D01*
X51281000Y-33357900D02*
X51281000Y-37692000D01*
%TO.N,ADC0_CTRL*%
X48430148Y-27432000D02*
X49700148Y-28702000D01*
X45080347Y-27427347D02*
X45085000Y-27432000D01*
X33826000Y-38271000D02*
X33826000Y-39776000D01*
X49700148Y-28702000D02*
X58396500Y-28702000D01*
X45085000Y-27432000D02*
X48430148Y-27432000D01*
X32766000Y-37211000D02*
X33826000Y-38271000D01*
%TO.N,ADC3_NTC_CTRL*%
X65024000Y-26924000D02*
X65635500Y-26924000D01*
X35618000Y-36010000D02*
X34326000Y-37302000D01*
X34326000Y-37302000D02*
X34326000Y-39776000D01*
X39633306Y-35433000D02*
X39056306Y-36010000D01*
X65635500Y-26924000D02*
X66143500Y-26416000D01*
X39056306Y-36010000D02*
X35618000Y-36010000D01*
%TO.N,/SPI2_MOSI_RGBLED*%
X40894000Y-29210000D02*
X39397347Y-30706653D01*
X31880160Y-32858330D02*
X30901000Y-32858330D01*
X45847000Y-13832251D02*
X45847000Y-12003000D01*
X50267000Y-15011000D02*
X47025749Y-15011000D01*
X45847000Y-12003000D02*
X44577000Y-10733000D01*
X47025749Y-15011000D02*
X45847000Y-13832251D01*
X34581830Y-35560000D02*
X31880160Y-32858330D01*
X39397347Y-34643653D02*
X38481000Y-35560000D01*
X50267269Y-15010731D02*
X50267000Y-15011000D01*
X39397347Y-30706653D02*
X39397347Y-34643653D01*
X40894000Y-23114000D02*
X40894000Y-29210000D01*
X38481000Y-35560000D02*
X34581830Y-35560000D01*
%TO.N,/nCS_Display*%
X34634296Y-24931496D02*
X34326000Y-25239792D01*
X34326000Y-25239792D02*
X34326000Y-28426000D01*
%TO.N,/SPI1_SCK_Display*%
X34826000Y-26890568D02*
X35631000Y-26085568D01*
X35463600Y-23678000D02*
X34679138Y-23678000D01*
X34679138Y-23678000D02*
X34271466Y-23270328D01*
X35355308Y-15934082D02*
X36503195Y-14786195D01*
X34826000Y-28426000D02*
X34826000Y-26890568D01*
X40377000Y-14859000D02*
X42037000Y-13199000D01*
X35631000Y-23845400D02*
X35463600Y-23678000D01*
X35631000Y-26085568D02*
X35631000Y-23845400D01*
X38481000Y-14859000D02*
X40377000Y-14859000D01*
X35246918Y-15934082D02*
X35355308Y-15934082D01*
%TO.N,/D_nC_Display*%
X35326000Y-27012822D02*
X35326000Y-28426000D01*
X36071000Y-23533367D02*
X36071000Y-26267822D01*
X36071000Y-26267822D02*
X35326000Y-27012822D01*
X35500633Y-22963000D02*
X36071000Y-23533367D01*
%TO.N,/SPI1_MOSI_Display*%
X36205916Y-21712316D02*
X36205916Y-22845516D01*
X36205916Y-22845516D02*
X36511000Y-23150600D01*
X35826000Y-27135076D02*
X35826000Y-28426000D01*
X39115695Y-13199000D02*
X39497000Y-13199000D01*
X36511000Y-23150600D02*
X36511000Y-26450076D01*
X36015138Y-16299557D02*
X39115695Y-13199000D01*
X36015138Y-16637916D02*
X36015138Y-16299557D01*
X36511000Y-26450076D02*
X35826000Y-27135076D01*
%TO.N,/nRES_Display*%
X40894000Y-18669000D02*
X40513000Y-19050000D01*
X36326000Y-27257330D02*
X36326000Y-28426000D01*
X36951000Y-26632330D02*
X36326000Y-27257330D01*
X36951000Y-20917924D02*
X36951000Y-26632330D01*
X41402000Y-18669000D02*
X40894000Y-18669000D01*
X38818924Y-19050000D02*
X36951000Y-20917924D01*
X40513000Y-19050000D02*
X38818924Y-19050000D01*
%TO.N,/SPI2_SCK_RGBLED*%
X50491647Y-14286000D02*
X49206749Y-14286000D01*
X38417104Y-26773000D02*
X38826000Y-27181896D01*
X37391000Y-23200098D02*
X37391000Y-26450076D01*
X48387000Y-13466251D02*
X48387000Y-12565749D01*
X50678465Y-14099182D02*
X50491647Y-14286000D01*
X48387000Y-12565749D02*
X47117000Y-11295749D01*
X49206749Y-14286000D02*
X48387000Y-13466251D01*
X47117000Y-11295749D02*
X47117000Y-10733000D01*
X38826000Y-27181896D02*
X38826000Y-28426000D01*
X37852049Y-22739049D02*
X37391000Y-23200098D01*
X37713924Y-26773000D02*
X38417104Y-26773000D01*
X37391000Y-26450076D02*
X37713924Y-26773000D01*
%TO.N,ADC3_CTRL*%
X64084500Y-18696000D02*
X64873500Y-17907000D01*
X44099502Y-30088504D02*
X43337006Y-30851000D01*
X44562396Y-29607000D02*
X44099502Y-30069894D01*
X44099502Y-30069894D02*
X44099502Y-30088504D01*
X46179376Y-29607000D02*
X44562396Y-29607000D01*
X58447000Y-18696000D02*
X64084500Y-18696000D01*
X43337006Y-30851000D02*
X42251000Y-30851000D01*
X58293000Y-18542000D02*
X58447000Y-18696000D01*
%TO.N,Net-(U9A-+)*%
X54910500Y-41585000D02*
X53053500Y-41585000D01*
D53*
X63857500Y-44704000D02*
X61190500Y-44704000D01*
X61190500Y-44704000D02*
X59666500Y-46228000D01*
D54*
X59666500Y-45528501D02*
X59666500Y-46228000D01*
X54910500Y-41585000D02*
X55722999Y-41585000D01*
X55722999Y-41585000D02*
X59666500Y-45528501D01*
X53053500Y-41585000D02*
X51712500Y-42926000D01*
%TO.N,Net-(U10B-+)*%
X61105000Y-19708500D02*
X59436000Y-19708500D01*
X62525000Y-21128500D02*
X62525000Y-20316001D01*
X62525000Y-21128500D02*
X61105000Y-19708500D01*
X62525000Y-20316001D02*
X63575001Y-19266000D01*
D53*
X70080500Y-20367000D02*
X70381500Y-20066000D01*
D54*
X63575001Y-19266000D02*
X69581500Y-19266000D01*
X69581500Y-19266000D02*
X70381500Y-20066000D01*
D53*
X70080500Y-23241000D02*
X70080500Y-20367000D01*
%TD*%
M02*
