%TF.GenerationSoftware,KiCad,Pcbnew,7.0.10*%
%TF.CreationDate,2024-04-14T19:03:43+02:00*%
%TF.ProjectId,DIC,4449432e-6b69-4636-9164-5f7063625858,rev?*%
%TF.SameCoordinates,Original*%
%TF.FileFunction,Soldermask,Top*%
%TF.FilePolarity,Negative*%
%FSLAX46Y46*%
G04 Gerber Fmt 4.6, Leading zero omitted, Abs format (unit mm)*
G04 Created by KiCad (PCBNEW 7.0.10) date 2024-04-14 19:03:43*
%MOMM*%
%LPD*%
G01*
G04 APERTURE LIST*
G04 Aperture macros list*
%AMRoundRect*
0 Rectangle with rounded corners*
0 $1 Rounding radius*
0 $2 $3 $4 $5 $6 $7 $8 $9 X,Y pos of 4 corners*
0 Add a 4 corners polygon primitive as box body*
4,1,4,$2,$3,$4,$5,$6,$7,$8,$9,$2,$3,0*
0 Add four circle primitives for the rounded corners*
1,1,$1+$1,$2,$3*
1,1,$1+$1,$4,$5*
1,1,$1+$1,$6,$7*
1,1,$1+$1,$8,$9*
0 Add four rect primitives between the rounded corners*
20,1,$1+$1,$2,$3,$4,$5,0*
20,1,$1+$1,$4,$5,$6,$7,0*
20,1,$1+$1,$6,$7,$8,$9,0*
20,1,$1+$1,$8,$9,$2,$3,0*%
G04 Aperture macros list end*
%ADD10C,1.524000*%
%ADD11R,1.600000X1.600000*%
%ADD12C,1.600000*%
%ADD13R,1.700000X1.700000*%
%ADD14O,1.700000X1.700000*%
%ADD15R,1.000000X1.000000*%
%ADD16O,1.000000X1.000000*%
%ADD17R,1.500000X2.300000*%
%ADD18O,1.500000X2.300000*%
%ADD19C,1.020000*%
%ADD20RoundRect,0.250001X-0.499999X0.499999X-0.499999X-0.499999X0.499999X-0.499999X0.499999X0.499999X0*%
%ADD21C,1.500000*%
G04 APERTURE END LIST*
D10*
%TO.C,U6*%
X21717000Y-61159000D03*
X24257000Y-61159000D03*
X26797000Y-61159000D03*
X64897000Y-61159000D03*
X67437000Y-61159000D03*
X69977000Y-61159000D03*
X69977000Y-13199000D03*
X67437000Y-13199000D03*
X64897000Y-13199000D03*
X62357000Y-13199000D03*
X59817000Y-13199000D03*
X57277000Y-13199000D03*
X54737000Y-13199000D03*
X52197000Y-13199000D03*
X49657000Y-13199000D03*
X47117000Y-13199000D03*
X44577000Y-13199000D03*
X42037000Y-13199000D03*
X39497000Y-13199000D03*
X36957000Y-13199000D03*
X34417000Y-13199000D03*
X31877000Y-13199000D03*
X29337000Y-13199000D03*
X26797000Y-13199000D03*
X24257000Y-13199000D03*
X21717000Y-13199000D03*
%TD*%
%TO.C,U4*%
X44577000Y-10733000D03*
X47117000Y-10733000D03*
X17907000Y-62803000D03*
X73787000Y-62803000D03*
%TD*%
D11*
%TO.C,C21*%
X28067000Y-57531000D03*
D12*
X28067000Y-54031000D03*
%TD*%
D13*
%TO.C,J19*%
X14000000Y-47500000D03*
D14*
X14000000Y-50040000D03*
X14000000Y-52580000D03*
X14000000Y-55120000D03*
X14000000Y-57660000D03*
X14000000Y-60200000D03*
%TD*%
D15*
%TO.C,JTAG1*%
X16002000Y-34544000D03*
D16*
X14732000Y-34544000D03*
X16002000Y-35814000D03*
X14732000Y-35814000D03*
X16002000Y-37084000D03*
X14732000Y-37084000D03*
X16002000Y-38354000D03*
X14732000Y-38354000D03*
X16002000Y-39624000D03*
X14732000Y-39624000D03*
%TD*%
D17*
%TO.C,U1*%
X49877000Y-53213000D03*
D18*
X52417000Y-53213000D03*
X54957000Y-53213000D03*
%TD*%
D13*
%TO.C,J22*%
X78000000Y-47500000D03*
D14*
X78000000Y-50040000D03*
X78000000Y-52580000D03*
X78000000Y-55120000D03*
X78000000Y-57660000D03*
X78000000Y-60200000D03*
%TD*%
D17*
%TO.C,U5*%
X36542000Y-53213000D03*
D18*
X39082000Y-53213000D03*
X41622000Y-53213000D03*
%TD*%
D19*
%TO.C,CAN1*%
X78410000Y-31657000D03*
X78410000Y-40657000D03*
D20*
X74470000Y-34657000D03*
D21*
X74470000Y-37657000D03*
X77470000Y-34657000D03*
X77470000Y-37657000D03*
%TD*%
D13*
%TO.C,J20*%
X78000000Y-14000000D03*
D14*
X78000000Y-16540000D03*
X78000000Y-19080000D03*
X78000000Y-21620000D03*
X78000000Y-24160000D03*
X78000000Y-26700000D03*
%TD*%
D13*
%TO.C,J18*%
X14000000Y-14000000D03*
D14*
X14000000Y-16540000D03*
X14000000Y-19080000D03*
X14000000Y-21620000D03*
X14000000Y-24160000D03*
X14000000Y-26700000D03*
%TD*%
D11*
%TO.C,C13*%
X65222000Y-55753000D03*
D12*
X61722000Y-55753000D03*
%TD*%
M02*
