%TF.GenerationSoftware,KiCad,Pcbnew,7.0.10*%
%TF.CreationDate,2024-04-14T19:03:43+02:00*%
%TF.ProjectId,DIC,4449432e-6b69-4636-9164-5f7063625858,rev?*%
%TF.SameCoordinates,Original*%
%TF.FileFunction,Paste,Bot*%
%TF.FilePolarity,Positive*%
%FSLAX46Y46*%
G04 Gerber Fmt 4.6, Leading zero omitted, Abs format (unit mm)*
G04 Created by KiCad (PCBNEW 7.0.10) date 2024-04-14 19:03:43*
%MOMM*%
%LPD*%
G01*
G04 APERTURE LIST*
G04 Aperture macros list*
%AMRoundRect*
0 Rectangle with rounded corners*
0 $1 Rounding radius*
0 $2 $3 $4 $5 $6 $7 $8 $9 X,Y pos of 4 corners*
0 Add a 4 corners polygon primitive as box body*
4,1,4,$2,$3,$4,$5,$6,$7,$8,$9,$2,$3,0*
0 Add four circle primitives for the rounded corners*
1,1,$1+$1,$2,$3*
1,1,$1+$1,$4,$5*
1,1,$1+$1,$6,$7*
1,1,$1+$1,$8,$9*
0 Add four rect primitives between the rounded corners*
20,1,$1+$1,$2,$3,$4,$5,0*
20,1,$1+$1,$4,$5,$6,$7,0*
20,1,$1+$1,$6,$7,$8,$9,0*
20,1,$1+$1,$8,$9,$2,$3,0*%
G04 Aperture macros list end*
%ADD10RoundRect,0.250000X0.475000X-0.337500X0.475000X0.337500X-0.475000X0.337500X-0.475000X-0.337500X0*%
%ADD11RoundRect,0.237500X-0.300000X-0.237500X0.300000X-0.237500X0.300000X0.237500X-0.300000X0.237500X0*%
%ADD12RoundRect,0.237500X-0.237500X0.250000X-0.237500X-0.250000X0.237500X-0.250000X0.237500X0.250000X0*%
%ADD13RoundRect,0.237500X0.250000X0.237500X-0.250000X0.237500X-0.250000X-0.237500X0.250000X-0.237500X0*%
%ADD14RoundRect,0.250000X0.337500X0.475000X-0.337500X0.475000X-0.337500X-0.475000X0.337500X-0.475000X0*%
%ADD15RoundRect,0.150000X-0.150000X0.587500X-0.150000X-0.587500X0.150000X-0.587500X0.150000X0.587500X0*%
%ADD16RoundRect,0.237500X0.300000X0.237500X-0.300000X0.237500X-0.300000X-0.237500X0.300000X-0.237500X0*%
%ADD17RoundRect,0.250000X-0.337500X-0.475000X0.337500X-0.475000X0.337500X0.475000X-0.337500X0.475000X0*%
%ADD18RoundRect,0.237500X-0.250000X-0.237500X0.250000X-0.237500X0.250000X0.237500X-0.250000X0.237500X0*%
%ADD19RoundRect,0.250000X0.325000X0.450000X-0.325000X0.450000X-0.325000X-0.450000X0.325000X-0.450000X0*%
%ADD20RoundRect,0.237500X0.237500X-0.300000X0.237500X0.300000X-0.237500X0.300000X-0.237500X-0.300000X0*%
%ADD21RoundRect,0.237500X0.237500X-0.250000X0.237500X0.250000X-0.237500X0.250000X-0.237500X-0.250000X0*%
%ADD22R,2.000000X7.875000*%
%ADD23RoundRect,0.150000X0.150000X-0.825000X0.150000X0.825000X-0.150000X0.825000X-0.150000X-0.825000X0*%
%ADD24RoundRect,0.237500X-0.237500X0.300000X-0.237500X-0.300000X0.237500X-0.300000X0.237500X0.300000X0*%
%ADD25RoundRect,0.250000X-0.325000X-0.450000X0.325000X-0.450000X0.325000X0.450000X-0.325000X0.450000X0*%
%ADD26RoundRect,0.075000X-0.700000X-0.075000X0.700000X-0.075000X0.700000X0.075000X-0.700000X0.075000X0*%
%ADD27RoundRect,0.075000X-0.075000X-0.700000X0.075000X-0.700000X0.075000X0.700000X-0.075000X0.700000X0*%
G04 APERTURE END LIST*
D10*
%TO.C,C19*%
X24257000Y-17485500D03*
X24257000Y-15410500D03*
%TD*%
D11*
%TO.C,C18*%
X52350500Y-30164000D03*
X54075500Y-30164000D03*
%TD*%
D12*
%TO.C,R3*%
X34885000Y-42209500D03*
X34885000Y-44034500D03*
%TD*%
D13*
%TO.C,R2*%
X28177500Y-19939000D03*
X26352500Y-19939000D03*
%TD*%
D14*
%TO.C,C12*%
X30969500Y-40963000D03*
X28894500Y-40963000D03*
%TD*%
D15*
%TO.C,U2*%
X30927000Y-44164000D03*
X32827000Y-44164000D03*
X31877000Y-46039000D03*
%TD*%
D11*
%TO.C,C5*%
X31014500Y-48022500D03*
X32739500Y-48022500D03*
%TD*%
D16*
%TO.C,C6*%
X39978500Y-24322000D03*
X38253500Y-24322000D03*
%TD*%
D17*
%TO.C,C14*%
X38078500Y-49530000D03*
X40153500Y-49530000D03*
%TD*%
D11*
%TO.C,C17*%
X52350500Y-31942000D03*
X54075500Y-31942000D03*
%TD*%
D14*
%TO.C,C11*%
X55245000Y-49530000D03*
X53170000Y-49530000D03*
%TD*%
D18*
%TO.C,R1*%
X26352500Y-22733000D03*
X28177500Y-22733000D03*
%TD*%
D17*
%TO.C,C7*%
X49233000Y-49530000D03*
X51308000Y-49530000D03*
%TD*%
D19*
%TO.C,5VGood1*%
X52968000Y-60960000D03*
X50918000Y-60960000D03*
%TD*%
D20*
%TO.C,C2*%
X27178000Y-38142500D03*
X27178000Y-36417500D03*
%TD*%
D18*
%TO.C,R8*%
X16891000Y-24516000D03*
X18716000Y-24516000D03*
%TD*%
D21*
%TO.C,R9*%
X31877000Y-19519500D03*
X31877000Y-17694500D03*
%TD*%
D19*
%TO.C,Error1*%
X24480000Y-19939000D03*
X22430000Y-19939000D03*
%TD*%
D14*
%TO.C,C15*%
X44090500Y-49530000D03*
X42015500Y-49530000D03*
%TD*%
D18*
%TO.C,R11*%
X56872500Y-23814000D03*
X58697500Y-23814000D03*
%TD*%
D22*
%TO.C,Y1*%
X23495000Y-29814500D03*
X23495000Y-41689500D03*
%TD*%
D14*
%TO.C,C20*%
X32914500Y-15686000D03*
X30839500Y-15686000D03*
%TD*%
D23*
%TO.C,U7*%
X59690000Y-33655000D03*
X58420000Y-33655000D03*
X57150000Y-33655000D03*
X55880000Y-33655000D03*
X55880000Y-28705000D03*
X57150000Y-28705000D03*
X58420000Y-28705000D03*
X59690000Y-28705000D03*
%TD*%
D21*
%TO.C,R10*%
X61468000Y-30441500D03*
X61468000Y-28616500D03*
%TD*%
D16*
%TO.C,C4*%
X32993500Y-25146000D03*
X31268500Y-25146000D03*
%TD*%
D13*
%TO.C,R7*%
X18716000Y-22006000D03*
X16891000Y-22006000D03*
%TD*%
D16*
%TO.C,C1*%
X32993500Y-23495000D03*
X31268500Y-23495000D03*
%TD*%
D19*
%TO.C,Heart1*%
X24480000Y-22733000D03*
X22430000Y-22733000D03*
%TD*%
D16*
%TO.C,C8*%
X39978500Y-25973000D03*
X38253500Y-25973000D03*
%TD*%
D24*
%TO.C,C3*%
X27178000Y-32919500D03*
X27178000Y-34644500D03*
%TD*%
D18*
%TO.C,R6*%
X42521500Y-60960000D03*
X44346500Y-60960000D03*
%TD*%
D25*
%TO.C,3V3Good1*%
X38599000Y-60960000D03*
X40649000Y-60960000D03*
%TD*%
D18*
%TO.C,R5*%
X16891000Y-19496000D03*
X18716000Y-19496000D03*
%TD*%
D11*
%TO.C,C10*%
X43039500Y-39693000D03*
X44764500Y-39693000D03*
%TD*%
%TO.C,C9*%
X43039500Y-41344000D03*
X44764500Y-41344000D03*
%TD*%
D13*
%TO.C,R4*%
X49045500Y-60960000D03*
X47220500Y-60960000D03*
%TD*%
D16*
%TO.C,C16*%
X61695500Y-15432000D03*
X59970500Y-15432000D03*
%TD*%
D26*
%TO.C,U3*%
X30901000Y-37851000D03*
X30901000Y-37351000D03*
X30901000Y-36851000D03*
X30901000Y-36351000D03*
X30901000Y-35851000D03*
X30901000Y-35351000D03*
X30901000Y-34851000D03*
X30901000Y-34351000D03*
X30901000Y-33851000D03*
X30901000Y-33351000D03*
X30901000Y-32851000D03*
X30901000Y-32351000D03*
X30901000Y-31851000D03*
X30901000Y-31351000D03*
X30901000Y-30851000D03*
X30901000Y-30351000D03*
D27*
X32826000Y-28426000D03*
X33326000Y-28426000D03*
X33826000Y-28426000D03*
X34326000Y-28426000D03*
X34826000Y-28426000D03*
X35326000Y-28426000D03*
X35826000Y-28426000D03*
X36326000Y-28426000D03*
X36826000Y-28426000D03*
X37326000Y-28426000D03*
X37826000Y-28426000D03*
X38326000Y-28426000D03*
X38826000Y-28426000D03*
X39326000Y-28426000D03*
X39826000Y-28426000D03*
X40326000Y-28426000D03*
D26*
X42251000Y-30351000D03*
X42251000Y-30851000D03*
X42251000Y-31351000D03*
X42251000Y-31851000D03*
X42251000Y-32351000D03*
X42251000Y-32851000D03*
X42251000Y-33351000D03*
X42251000Y-33851000D03*
X42251000Y-34351000D03*
X42251000Y-34851000D03*
X42251000Y-35351000D03*
X42251000Y-35851000D03*
X42251000Y-36351000D03*
X42251000Y-36851000D03*
X42251000Y-37351000D03*
X42251000Y-37851000D03*
D27*
X40326000Y-39776000D03*
X39826000Y-39776000D03*
X39326000Y-39776000D03*
X38826000Y-39776000D03*
X38326000Y-39776000D03*
X37826000Y-39776000D03*
X37326000Y-39776000D03*
X36826000Y-39776000D03*
X36326000Y-39776000D03*
X35826000Y-39776000D03*
X35326000Y-39776000D03*
X34826000Y-39776000D03*
X34326000Y-39776000D03*
X33826000Y-39776000D03*
X33326000Y-39776000D03*
X32826000Y-39776000D03*
%TD*%
M02*
