M48
; DRILL file {KiCad 7.0.10} date Sun Apr 14 19:03:45 2024
; FORMAT={-:-/ absolute / inch / decimal}
; #@! TF.CreationDate,2024-04-14T19:03:45+02:00
; #@! TF.GenerationSoftware,Kicad,Pcbnew,7.0.10
; #@! TF.FileFunction,Plated,1,2,PTH
FMAT,2
INCH
; #@! TA.AperFunction,Plated,PTH,ViaDrill
T1C0.0157
; #@! TA.AperFunction,Plated,PTH,ComponentDrill
T2C0.0256
; #@! TA.AperFunction,Plated,PTH,ComponentDrill
T3C0.0300
; #@! TA.AperFunction,Plated,PTH,ComponentDrill
T4C0.0315
; #@! TA.AperFunction,Plated,PTH,ComponentDrill
T5C0.0394
; #@! TA.AperFunction,Plated,PTH,ComponentDrill
T6C0.0402
%
G90
G05
T1
X0.5941Y-1.6225
X0.62Y-0.72
X0.62Y-0.815
X0.66Y-0.55
X0.665Y-1.91
X0.68Y-1.115
X0.705Y-1.02
X0.71Y-2.03
X0.7389Y-1.8411
X0.745Y-0.71
X0.795Y-2.25
X0.8Y-0.77
X0.82Y-1.0379
X0.8221Y-1.0808
X0.845Y-0.68
X0.845Y-1.4
X0.862Y-1.04
X0.885Y-0.58
X0.97Y-1.4
X0.9937Y-1.2205
X1.0Y-1.555
X1.0044Y-1.1826
X1.0047Y-1.2583
X1.02Y-0.685
X1.021Y-1.5996
X1.08Y-1.675
X1.0803Y-1.5653
X1.095Y-1.895
X1.1Y-0.97
X1.105Y-0.845
X1.11Y-1.46
X1.13Y-1.36
X1.13Y-1.71
X1.14Y-0.595
X1.1498Y-1.9898
X1.15Y-1.265
X1.15Y-1.44
X1.1515Y-1.5452
X1.1585Y-1.945
X1.171Y-1.6845
X1.1749Y-1.1573
X1.177Y-1.118
X1.1785Y-1.765
X1.19Y-0.835
X1.2Y-0.765
X1.2085Y-1.665
X1.21Y-1.82
X1.2187Y-1.1194
X1.25Y-0.875
X1.285Y-1.63
X1.2898Y-1.3898
X1.295Y-1.04
X1.2973Y-1.2827
X1.3157Y-1.2112
X1.322Y-0.8544
X1.3273Y-1.99
X1.3285Y-1.6765
X1.33Y-1.3137
X1.33Y-1.5
X1.33Y-1.945
X1.3386Y-1.2433
X1.3426Y-0.99
X1.345Y-0.615
X1.36Y-1.1985
X1.36Y-1.43
X1.36Y-2.04
X1.375Y-0.835
X1.382Y-0.9381
X1.4016Y-1.705
X1.4271Y-0.7871
X1.435Y-1.25
X1.4521Y-1.3937
X1.46Y-2.365
X1.4857Y-1.2544
X1.515Y-0.585
X1.515Y-1.765
X1.5231Y-1.1973
X1.525Y-1.335
X1.53Y-0.99
X1.53Y-1.3937
X1.5331Y-1.4681
X1.555Y-1.3
X1.595Y-1.31
X1.5985Y-0.7294
X1.6Y-0.925
X1.6121Y-1.4508
X1.63Y-0.99
X1.63Y-1.1
X1.65Y-0.68
X1.65Y-1.765
X1.65Y-1.81
X1.655Y-1.72
X1.6585Y-1.0715
X1.665Y-2.2013
X1.68Y-0.79
X1.6909Y-1.0491
X1.7179Y-0.6985
X1.7195Y-1.0206
X1.7237Y-0.9146
X1.73Y-1.16
X1.73Y-1.38
X1.735Y-1.33
X1.75Y-0.775
X1.75Y-1.465
X1.765Y-1.7
X1.7779Y-1.7975
X1.7788Y-1.7581
X1.78Y-1.84
X1.8Y-2.07
X1.805Y-1.46
X1.835Y-1.57
X1.87Y-1.47
X1.875Y-1.69
X1.925Y-0.945
X1.935Y-0.79
X1.94Y-0.64
X2.0247Y-2.2103
X2.065Y-1.11
X2.075Y-1.335
X2.09Y-1.7
X2.135Y-2.38
X2.15Y-1.855
X2.185Y-0.73
X2.2Y-1.205
X2.245Y-1.85
X2.25Y-1.395
X2.29Y-1.24
X2.355Y-0.745
X2.39Y-1.695
X2.415Y-1.89
X2.44Y-1.3
X2.53Y-1.2
X2.565Y-1.755
X2.565Y-1.86
X2.575Y-0.845
X2.5816Y-1.8966
X2.622Y-1.8563
X2.6322Y-1.9546
X2.6607Y-1.9261
X2.675Y-1.56
X2.6878Y-1.7905
X2.6947Y-1.952
X2.7164Y-1.7619
X2.7369Y-2.1185
X2.7442Y-1.7341
X2.7704Y-1.8188
X2.79Y-1.055
X2.805Y-1.8
X2.83Y-0.815
X2.865Y-2.19
X2.88Y-0.59
X2.905Y-2.395
X2.96Y-0.84
T2
X0.58Y-1.36
X0.58Y-1.41
X0.58Y-1.46
X0.58Y-1.51
X0.58Y-1.56
X0.63Y-1.36
X0.63Y-1.41
X0.63Y-1.46
X0.63Y-1.51
X0.63Y-1.56
T3
X0.705Y-2.4726
X0.855Y-0.5196
X0.855Y-2.4078
X0.955Y-0.5196
X0.955Y-2.4078
X1.055Y-0.5196
X1.055Y-2.4078
X1.155Y-0.5196
X1.255Y-0.5196
X1.355Y-0.5196
X1.455Y-0.5196
X1.555Y-0.5196
X1.655Y-0.5196
X1.755Y-0.4226
X1.755Y-0.5196
X1.855Y-0.4226
X1.855Y-0.5196
X1.955Y-0.5196
X2.055Y-0.5196
X2.155Y-0.5196
X2.255Y-0.5196
X2.355Y-0.5196
X2.455Y-0.5196
X2.555Y-0.5196
X2.555Y-2.4078
X2.655Y-0.5196
X2.655Y-2.4078
X2.755Y-0.5196
X2.755Y-2.4078
X2.905Y-2.4726
T4
X1.105Y-2.1272
X1.105Y-2.265
X2.43Y-2.195
X2.5678Y-2.195
T5
X0.5512Y-0.5512
X0.5512Y-0.6512
X0.5512Y-0.7512
X0.5512Y-0.8512
X0.5512Y-0.9512
X0.5512Y-1.0512
X0.5512Y-1.8701
X0.5512Y-1.9701
X0.5512Y-2.0701
X0.5512Y-2.1701
X0.5512Y-2.2701
X0.5512Y-2.3701
X1.4387Y-2.095
X1.5387Y-2.095
X1.6387Y-2.095
X1.9637Y-2.095
X2.0637Y-2.095
X2.1637Y-2.095
X3.0709Y-0.5512
X3.0709Y-0.6512
X3.0709Y-0.7512
X3.0709Y-0.8512
X3.0709Y-0.9512
X3.0709Y-1.0512
X3.0709Y-1.8701
X3.0709Y-1.9701
X3.0709Y-2.0701
X3.0709Y-2.1701
X3.0709Y-2.2701
X3.0709Y-2.3701
T6
X2.9319Y-1.3644
X2.9319Y-1.4826
X3.05Y-1.3644
X3.05Y-1.4826
M30
