%TF.GenerationSoftware,KiCad,Pcbnew,7.0.10*%
%TF.CreationDate,2024-04-14T19:03:43+02:00*%
%TF.ProjectId,DIC,4449432e-6b69-4636-9164-5f7063625858,rev?*%
%TF.SameCoordinates,Original*%
%TF.FileFunction,Legend,Top*%
%TF.FilePolarity,Positive*%
%FSLAX46Y46*%
G04 Gerber Fmt 4.6, Leading zero omitted, Abs format (unit mm)*
G04 Created by KiCad (PCBNEW 7.0.10) date 2024-04-14 19:03:43*
%MOMM*%
%LPD*%
G01*
G04 APERTURE LIST*
%ADD10C,0.100000*%
G04 APERTURE END LIST*
D10*
X13335095Y-12656419D02*
X13335095Y-13465942D01*
X13335095Y-13465942D02*
X13382714Y-13561180D01*
X13382714Y-13561180D02*
X13430333Y-13608800D01*
X13430333Y-13608800D02*
X13525571Y-13656419D01*
X13525571Y-13656419D02*
X13716047Y-13656419D01*
X13716047Y-13656419D02*
X13811285Y-13608800D01*
X13811285Y-13608800D02*
X13858904Y-13561180D01*
X13858904Y-13561180D02*
X13906523Y-13465942D01*
X13906523Y-13465942D02*
X13906523Y-12656419D01*
X14811285Y-12656419D02*
X14620809Y-12656419D01*
X14620809Y-12656419D02*
X14525571Y-12704038D01*
X14525571Y-12704038D02*
X14477952Y-12751657D01*
X14477952Y-12751657D02*
X14382714Y-12894514D01*
X14382714Y-12894514D02*
X14335095Y-13084990D01*
X14335095Y-13084990D02*
X14335095Y-13465942D01*
X14335095Y-13465942D02*
X14382714Y-13561180D01*
X14382714Y-13561180D02*
X14430333Y-13608800D01*
X14430333Y-13608800D02*
X14525571Y-13656419D01*
X14525571Y-13656419D02*
X14716047Y-13656419D01*
X14716047Y-13656419D02*
X14811285Y-13608800D01*
X14811285Y-13608800D02*
X14858904Y-13561180D01*
X14858904Y-13561180D02*
X14906523Y-13465942D01*
X14906523Y-13465942D02*
X14906523Y-13227847D01*
X14906523Y-13227847D02*
X14858904Y-13132609D01*
X14858904Y-13132609D02*
X14811285Y-13084990D01*
X14811285Y-13084990D02*
X14716047Y-13037371D01*
X14716047Y-13037371D02*
X14525571Y-13037371D01*
X14525571Y-13037371D02*
X14430333Y-13084990D01*
X14430333Y-13084990D02*
X14382714Y-13132609D01*
X14382714Y-13132609D02*
X14335095Y-13227847D01*
X22044693Y-60071419D02*
X21473265Y-60071419D01*
X21758979Y-60071419D02*
X21758979Y-59071419D01*
X21758979Y-59071419D02*
X21663741Y-59214276D01*
X21663741Y-59214276D02*
X21568503Y-59309514D01*
X21568503Y-59309514D02*
X21473265Y-59357133D01*
X39800884Y-37947609D02*
X40134217Y-37947609D01*
X40277074Y-38471419D02*
X39800884Y-38471419D01*
X39800884Y-38471419D02*
X39800884Y-37471419D01*
X39800884Y-37471419D02*
X40277074Y-37471419D01*
X40658027Y-38185704D02*
X41134217Y-38185704D01*
X40562789Y-38471419D02*
X40896122Y-37471419D01*
X40896122Y-37471419D02*
X41229455Y-38471419D01*
X42515170Y-37471419D02*
X42705646Y-37471419D01*
X42705646Y-37471419D02*
X42800884Y-37519038D01*
X42800884Y-37519038D02*
X42896122Y-37614276D01*
X42896122Y-37614276D02*
X42943741Y-37804752D01*
X42943741Y-37804752D02*
X42943741Y-38138085D01*
X42943741Y-38138085D02*
X42896122Y-38328561D01*
X42896122Y-38328561D02*
X42800884Y-38423800D01*
X42800884Y-38423800D02*
X42705646Y-38471419D01*
X42705646Y-38471419D02*
X42515170Y-38471419D01*
X42515170Y-38471419D02*
X42419932Y-38423800D01*
X42419932Y-38423800D02*
X42324694Y-38328561D01*
X42324694Y-38328561D02*
X42277075Y-38138085D01*
X42277075Y-38138085D02*
X42277075Y-37804752D01*
X42277075Y-37804752D02*
X42324694Y-37614276D01*
X42324694Y-37614276D02*
X42419932Y-37519038D01*
X42419932Y-37519038D02*
X42515170Y-37471419D01*
X43848503Y-38471419D02*
X43372313Y-38471419D01*
X43372313Y-38471419D02*
X43372313Y-37471419D01*
X44181837Y-37947609D02*
X44515170Y-37947609D01*
X44658027Y-38471419D02*
X44181837Y-38471419D01*
X44181837Y-38471419D02*
X44181837Y-37471419D01*
X44181837Y-37471419D02*
X44658027Y-37471419D01*
X45086599Y-38471419D02*
X45086599Y-37471419D01*
X45086599Y-37471419D02*
X45324694Y-37471419D01*
X45324694Y-37471419D02*
X45467551Y-37519038D01*
X45467551Y-37519038D02*
X45562789Y-37614276D01*
X45562789Y-37614276D02*
X45610408Y-37709514D01*
X45610408Y-37709514D02*
X45658027Y-37899990D01*
X45658027Y-37899990D02*
X45658027Y-38042847D01*
X45658027Y-38042847D02*
X45610408Y-38233323D01*
X45610408Y-38233323D02*
X45562789Y-38328561D01*
X45562789Y-38328561D02*
X45467551Y-38423800D01*
X45467551Y-38423800D02*
X45324694Y-38471419D01*
X45324694Y-38471419D02*
X45086599Y-38471419D01*
X46562789Y-38471419D02*
X46086599Y-38471419D01*
X46086599Y-38471419D02*
X46086599Y-37471419D01*
X47419932Y-38471419D02*
X46848504Y-38471419D01*
X47134218Y-38471419D02*
X47134218Y-37471419D01*
X47134218Y-37471419D02*
X47038980Y-37614276D01*
X47038980Y-37614276D02*
X46943742Y-37709514D01*
X46943742Y-37709514D02*
X46848504Y-37757133D01*
X47800885Y-37566657D02*
X47848504Y-37519038D01*
X47848504Y-37519038D02*
X47943742Y-37471419D01*
X47943742Y-37471419D02*
X48181837Y-37471419D01*
X48181837Y-37471419D02*
X48277075Y-37519038D01*
X48277075Y-37519038D02*
X48324694Y-37566657D01*
X48324694Y-37566657D02*
X48372313Y-37661895D01*
X48372313Y-37661895D02*
X48372313Y-37757133D01*
X48372313Y-37757133D02*
X48324694Y-37899990D01*
X48324694Y-37899990D02*
X47753266Y-38471419D01*
X47753266Y-38471419D02*
X48372313Y-38471419D01*
X48943742Y-37899990D02*
X48848504Y-37852371D01*
X48848504Y-37852371D02*
X48800885Y-37804752D01*
X48800885Y-37804752D02*
X48753266Y-37709514D01*
X48753266Y-37709514D02*
X48753266Y-37661895D01*
X48753266Y-37661895D02*
X48800885Y-37566657D01*
X48800885Y-37566657D02*
X48848504Y-37519038D01*
X48848504Y-37519038D02*
X48943742Y-37471419D01*
X48943742Y-37471419D02*
X49134218Y-37471419D01*
X49134218Y-37471419D02*
X49229456Y-37519038D01*
X49229456Y-37519038D02*
X49277075Y-37566657D01*
X49277075Y-37566657D02*
X49324694Y-37661895D01*
X49324694Y-37661895D02*
X49324694Y-37709514D01*
X49324694Y-37709514D02*
X49277075Y-37804752D01*
X49277075Y-37804752D02*
X49229456Y-37852371D01*
X49229456Y-37852371D02*
X49134218Y-37899990D01*
X49134218Y-37899990D02*
X48943742Y-37899990D01*
X48943742Y-37899990D02*
X48848504Y-37947609D01*
X48848504Y-37947609D02*
X48800885Y-37995228D01*
X48800885Y-37995228D02*
X48753266Y-38090466D01*
X48753266Y-38090466D02*
X48753266Y-38280942D01*
X48753266Y-38280942D02*
X48800885Y-38376180D01*
X48800885Y-38376180D02*
X48848504Y-38423800D01*
X48848504Y-38423800D02*
X48943742Y-38471419D01*
X48943742Y-38471419D02*
X49134218Y-38471419D01*
X49134218Y-38471419D02*
X49229456Y-38423800D01*
X49229456Y-38423800D02*
X49277075Y-38376180D01*
X49277075Y-38376180D02*
X49324694Y-38280942D01*
X49324694Y-38280942D02*
X49324694Y-38090466D01*
X49324694Y-38090466D02*
X49277075Y-37995228D01*
X49277075Y-37995228D02*
X49229456Y-37947609D01*
X49229456Y-37947609D02*
X49134218Y-37899990D01*
X49753266Y-38090466D02*
X50515171Y-38090466D01*
X51419932Y-37471419D02*
X51229456Y-37471419D01*
X51229456Y-37471419D02*
X51134218Y-37519038D01*
X51134218Y-37519038D02*
X51086599Y-37566657D01*
X51086599Y-37566657D02*
X50991361Y-37709514D01*
X50991361Y-37709514D02*
X50943742Y-37899990D01*
X50943742Y-37899990D02*
X50943742Y-38280942D01*
X50943742Y-38280942D02*
X50991361Y-38376180D01*
X50991361Y-38376180D02*
X51038980Y-38423800D01*
X51038980Y-38423800D02*
X51134218Y-38471419D01*
X51134218Y-38471419D02*
X51324694Y-38471419D01*
X51324694Y-38471419D02*
X51419932Y-38423800D01*
X51419932Y-38423800D02*
X51467551Y-38376180D01*
X51467551Y-38376180D02*
X51515170Y-38280942D01*
X51515170Y-38280942D02*
X51515170Y-38042847D01*
X51515170Y-38042847D02*
X51467551Y-37947609D01*
X51467551Y-37947609D02*
X51419932Y-37899990D01*
X51419932Y-37899990D02*
X51324694Y-37852371D01*
X51324694Y-37852371D02*
X51134218Y-37852371D01*
X51134218Y-37852371D02*
X51038980Y-37899990D01*
X51038980Y-37899990D02*
X50991361Y-37947609D01*
X50991361Y-37947609D02*
X50943742Y-38042847D01*
%TO.C,U6*%
X11947000Y-12299000D02*
X79747000Y-12299000D01*
X11947000Y-61999000D02*
X11947000Y-12299000D01*
X11947000Y-61999000D02*
X79747000Y-61999000D01*
X79747000Y-12299000D02*
X79747000Y-61999000D01*
%TD*%
M02*
