%TF.GenerationSoftware,KiCad,Pcbnew,7.0.10*%
%TF.CreationDate,2024-04-14T19:03:43+02:00*%
%TF.ProjectId,DIC,4449432e-6b69-4636-9164-5f7063625858,rev?*%
%TF.SameCoordinates,Original*%
%TF.FileFunction,Soldermask,Bot*%
%TF.FilePolarity,Negative*%
%FSLAX46Y46*%
G04 Gerber Fmt 4.6, Leading zero omitted, Abs format (unit mm)*
G04 Created by KiCad (PCBNEW 7.0.10) date 2024-04-14 19:03:43*
%MOMM*%
%LPD*%
G01*
G04 APERTURE LIST*
G04 Aperture macros list*
%AMRoundRect*
0 Rectangle with rounded corners*
0 $1 Rounding radius*
0 $2 $3 $4 $5 $6 $7 $8 $9 X,Y pos of 4 corners*
0 Add a 4 corners polygon primitive as box body*
4,1,4,$2,$3,$4,$5,$6,$7,$8,$9,$2,$3,0*
0 Add four circle primitives for the rounded corners*
1,1,$1+$1,$2,$3*
1,1,$1+$1,$4,$5*
1,1,$1+$1,$6,$7*
1,1,$1+$1,$8,$9*
0 Add four rect primitives between the rounded corners*
20,1,$1+$1,$2,$3,$4,$5,0*
20,1,$1+$1,$4,$5,$6,$7,0*
20,1,$1+$1,$6,$7,$8,$9,0*
20,1,$1+$1,$8,$9,$2,$3,0*%
%AMFreePoly0*
4,1,19,0.500000,-0.750000,0.000000,-0.750000,0.000000,-0.744911,-0.071157,-0.744911,-0.207708,-0.704816,-0.327430,-0.627875,-0.420627,-0.520320,-0.479746,-0.390866,-0.500000,-0.250000,-0.500000,0.250000,-0.479746,0.390866,-0.420627,0.520320,-0.327430,0.627875,-0.207708,0.704816,-0.071157,0.744911,0.000000,0.744911,0.000000,0.750000,0.500000,0.750000,0.500000,-0.750000,0.500000,-0.750000,
$1*%
%AMFreePoly1*
4,1,19,0.000000,0.744911,0.071157,0.744911,0.207708,0.704816,0.327430,0.627875,0.420627,0.520320,0.479746,0.390866,0.500000,0.250000,0.500000,-0.250000,0.479746,-0.390866,0.420627,-0.520320,0.327430,-0.627875,0.207708,-0.704816,0.071157,-0.744911,0.000000,-0.744911,0.000000,-0.750000,-0.500000,-0.750000,-0.500000,0.750000,0.000000,0.750000,0.000000,0.744911,0.000000,0.744911,
$1*%
G04 Aperture macros list end*
%ADD10C,1.524000*%
%ADD11RoundRect,0.250000X0.475000X-0.337500X0.475000X0.337500X-0.475000X0.337500X-0.475000X-0.337500X0*%
%ADD12RoundRect,0.237500X-0.300000X-0.237500X0.300000X-0.237500X0.300000X0.237500X-0.300000X0.237500X0*%
%ADD13FreePoly0,90.000000*%
%ADD14FreePoly1,90.000000*%
%ADD15FreePoly0,270.000000*%
%ADD16FreePoly1,270.000000*%
%ADD17RoundRect,0.237500X-0.237500X0.250000X-0.237500X-0.250000X0.237500X-0.250000X0.237500X0.250000X0*%
%ADD18RoundRect,0.237500X0.250000X0.237500X-0.250000X0.237500X-0.250000X-0.237500X0.250000X-0.237500X0*%
%ADD19R,1.600000X1.600000*%
%ADD20C,1.600000*%
%ADD21RoundRect,0.250000X0.337500X0.475000X-0.337500X0.475000X-0.337500X-0.475000X0.337500X-0.475000X0*%
%ADD22RoundRect,0.150000X-0.150000X0.587500X-0.150000X-0.587500X0.150000X-0.587500X0.150000X0.587500X0*%
%ADD23RoundRect,0.237500X0.300000X0.237500X-0.300000X0.237500X-0.300000X-0.237500X0.300000X-0.237500X0*%
%ADD24RoundRect,0.250000X-0.337500X-0.475000X0.337500X-0.475000X0.337500X0.475000X-0.337500X0.475000X0*%
%ADD25FreePoly0,0.000000*%
%ADD26FreePoly1,0.000000*%
%ADD27R,1.700000X1.700000*%
%ADD28O,1.700000X1.700000*%
%ADD29RoundRect,0.237500X-0.250000X-0.237500X0.250000X-0.237500X0.250000X0.237500X-0.250000X0.237500X0*%
%ADD30RoundRect,0.250000X0.325000X0.450000X-0.325000X0.450000X-0.325000X-0.450000X0.325000X-0.450000X0*%
%ADD31RoundRect,0.237500X0.237500X-0.300000X0.237500X0.300000X-0.237500X0.300000X-0.237500X-0.300000X0*%
%ADD32RoundRect,0.237500X0.237500X-0.250000X0.237500X0.250000X-0.237500X0.250000X-0.237500X-0.250000X0*%
%ADD33R,1.000000X1.000000*%
%ADD34O,1.000000X1.000000*%
%ADD35R,1.500000X2.300000*%
%ADD36O,1.500000X2.300000*%
%ADD37R,2.000000X7.875000*%
%ADD38RoundRect,0.150000X0.150000X-0.825000X0.150000X0.825000X-0.150000X0.825000X-0.150000X-0.825000X0*%
%ADD39C,1.020000*%
%ADD40RoundRect,0.250001X-0.499999X0.499999X-0.499999X-0.499999X0.499999X-0.499999X0.499999X0.499999X0*%
%ADD41C,1.500000*%
%ADD42C,1.000000*%
%ADD43RoundRect,0.237500X-0.237500X0.300000X-0.237500X-0.300000X0.237500X-0.300000X0.237500X0.300000X0*%
%ADD44RoundRect,0.250000X-0.325000X-0.450000X0.325000X-0.450000X0.325000X0.450000X-0.325000X0.450000X0*%
%ADD45RoundRect,0.075000X-0.700000X-0.075000X0.700000X-0.075000X0.700000X0.075000X-0.700000X0.075000X0*%
%ADD46RoundRect,0.075000X-0.075000X-0.700000X0.075000X-0.700000X0.075000X0.700000X-0.075000X0.700000X0*%
G04 APERTURE END LIST*
D10*
%TO.C,U6*%
X21717000Y-61159000D03*
X24257000Y-61159000D03*
X26797000Y-61159000D03*
X64897000Y-61159000D03*
X67437000Y-61159000D03*
X69977000Y-61159000D03*
X69977000Y-13199000D03*
X67437000Y-13199000D03*
X64897000Y-13199000D03*
X62357000Y-13199000D03*
X59817000Y-13199000D03*
X57277000Y-13199000D03*
X54737000Y-13199000D03*
X52197000Y-13199000D03*
X49657000Y-13199000D03*
X47117000Y-13199000D03*
X44577000Y-13199000D03*
X42037000Y-13199000D03*
X39497000Y-13199000D03*
X36957000Y-13199000D03*
X34417000Y-13199000D03*
X31877000Y-13199000D03*
X29337000Y-13199000D03*
X26797000Y-13199000D03*
X24257000Y-13199000D03*
X21717000Y-13199000D03*
%TD*%
%TO.C,U4*%
X44577000Y-10733000D03*
X47117000Y-10733000D03*
X17907000Y-62803000D03*
X73787000Y-62803000D03*
%TD*%
D11*
%TO.C,C19*%
X24257000Y-17485500D03*
X24257000Y-15410500D03*
%TD*%
D12*
%TO.C,C18*%
X52350500Y-30164000D03*
X54075500Y-30164000D03*
%TD*%
D13*
%TO.C,J3*%
X37084000Y-17160000D03*
D14*
X37084000Y-15860000D03*
%TD*%
D15*
%TO.C,J10*%
X35179000Y-46579000D03*
D16*
X35179000Y-47879000D03*
%TD*%
D17*
%TO.C,R3*%
X34885000Y-42209500D03*
X34885000Y-44034500D03*
%TD*%
D18*
%TO.C,R2*%
X28177500Y-19939000D03*
X26352500Y-19939000D03*
%TD*%
D19*
%TO.C,C21*%
X28067000Y-57531000D03*
D20*
X28067000Y-54031000D03*
%TD*%
D21*
%TO.C,C12*%
X30969500Y-40963000D03*
X28894500Y-40963000D03*
%TD*%
D22*
%TO.C,U2*%
X30927000Y-44164000D03*
X32827000Y-44164000D03*
X31877000Y-46039000D03*
%TD*%
D12*
%TO.C,C5*%
X31014500Y-48022500D03*
X32739500Y-48022500D03*
%TD*%
D23*
%TO.C,C6*%
X39978500Y-24322000D03*
X38253500Y-24322000D03*
%TD*%
D24*
%TO.C,C14*%
X38078500Y-49530000D03*
X40153500Y-49530000D03*
%TD*%
D12*
%TO.C,C17*%
X52350500Y-31942000D03*
X54075500Y-31942000D03*
%TD*%
D25*
%TO.C,J11*%
X38466000Y-22225000D03*
D26*
X39766000Y-22225000D03*
%TD*%
D21*
%TO.C,C11*%
X55245000Y-49530000D03*
X53170000Y-49530000D03*
%TD*%
D27*
%TO.C,J19*%
X14000000Y-47500000D03*
D28*
X14000000Y-50040000D03*
X14000000Y-52580000D03*
X14000000Y-55120000D03*
X14000000Y-57660000D03*
X14000000Y-60200000D03*
%TD*%
D29*
%TO.C,R1*%
X26352500Y-22733000D03*
X28177500Y-22733000D03*
%TD*%
D24*
%TO.C,C7*%
X49233000Y-49530000D03*
X51308000Y-49530000D03*
%TD*%
D30*
%TO.C,5VGood1*%
X52968000Y-60960000D03*
X50918000Y-60960000D03*
%TD*%
D31*
%TO.C,C2*%
X27178000Y-38142500D03*
X27178000Y-36417500D03*
%TD*%
D29*
%TO.C,R8*%
X16891000Y-24516000D03*
X18716000Y-24516000D03*
%TD*%
D25*
%TO.C,J5*%
X49134000Y-33401000D03*
D26*
X50434000Y-33401000D03*
%TD*%
D32*
%TO.C,R9*%
X31877000Y-19519500D03*
X31877000Y-17694500D03*
%TD*%
D13*
%TO.C,J4*%
X39878000Y-17160000D03*
D14*
X39878000Y-15860000D03*
%TD*%
D33*
%TO.C,JTAG1*%
X16002000Y-34544000D03*
D34*
X14732000Y-34544000D03*
X16002000Y-35814000D03*
X14732000Y-35814000D03*
X16002000Y-37084000D03*
X14732000Y-37084000D03*
X16002000Y-38354000D03*
X14732000Y-38354000D03*
X16002000Y-39624000D03*
X14732000Y-39624000D03*
%TD*%
D13*
%TO.C,J12*%
X42164000Y-23271000D03*
D14*
X42164000Y-21971000D03*
%TD*%
D13*
%TO.C,J17*%
X34163000Y-19192000D03*
D14*
X34163000Y-17892000D03*
%TD*%
D35*
%TO.C,U1*%
X49877000Y-53213000D03*
D36*
X52417000Y-53213000D03*
X54957000Y-53213000D03*
%TD*%
D30*
%TO.C,Error1*%
X24480000Y-19939000D03*
X22430000Y-19939000D03*
%TD*%
D21*
%TO.C,C15*%
X44090500Y-49530000D03*
X42015500Y-49530000D03*
%TD*%
D29*
%TO.C,R11*%
X56872500Y-23814000D03*
X58697500Y-23814000D03*
%TD*%
D37*
%TO.C,Y1*%
X23495000Y-29814500D03*
X23495000Y-41689500D03*
%TD*%
D27*
%TO.C,J22*%
X78000000Y-47500000D03*
D28*
X78000000Y-50040000D03*
X78000000Y-52580000D03*
X78000000Y-55120000D03*
X78000000Y-57660000D03*
X78000000Y-60200000D03*
%TD*%
D25*
%TO.C,J1*%
X45959000Y-23495000D03*
D26*
X47259000Y-23495000D03*
%TD*%
D21*
%TO.C,C20*%
X32914500Y-15686000D03*
X30839500Y-15686000D03*
%TD*%
D38*
%TO.C,U7*%
X59690000Y-33655000D03*
X58420000Y-33655000D03*
X57150000Y-33655000D03*
X55880000Y-33655000D03*
X55880000Y-28705000D03*
X57150000Y-28705000D03*
X58420000Y-28705000D03*
X59690000Y-28705000D03*
%TD*%
D32*
%TO.C,R10*%
X61468000Y-30441500D03*
X61468000Y-28616500D03*
%TD*%
D23*
%TO.C,C4*%
X32993500Y-25146000D03*
X31268500Y-25146000D03*
%TD*%
D25*
%TO.C,J2*%
X49530000Y-22098000D03*
D26*
X50830000Y-22098000D03*
%TD*%
D35*
%TO.C,U5*%
X36542000Y-53213000D03*
D36*
X39082000Y-53213000D03*
X41622000Y-53213000D03*
%TD*%
D39*
%TO.C,CAN1*%
X78410000Y-31657000D03*
X78410000Y-40657000D03*
D40*
X74470000Y-34657000D03*
D41*
X74470000Y-37657000D03*
X77470000Y-34657000D03*
X77470000Y-37657000D03*
%TD*%
D25*
%TO.C,J9*%
X46101000Y-16256000D03*
D26*
X47401000Y-16256000D03*
%TD*%
D18*
%TO.C,R7*%
X18716000Y-22006000D03*
X16891000Y-22006000D03*
%TD*%
D42*
%TO.C,TP2*%
X56259000Y-25846000D03*
%TD*%
D23*
%TO.C,C1*%
X32993500Y-23495000D03*
X31268500Y-23495000D03*
%TD*%
D30*
%TO.C,Heart1*%
X24480000Y-22733000D03*
X22430000Y-22733000D03*
%TD*%
D23*
%TO.C,C8*%
X39978500Y-25973000D03*
X38253500Y-25973000D03*
%TD*%
D43*
%TO.C,C3*%
X27178000Y-32919500D03*
X27178000Y-34644500D03*
%TD*%
D27*
%TO.C,J20*%
X78000000Y-14000000D03*
D28*
X78000000Y-16540000D03*
X78000000Y-19080000D03*
X78000000Y-21620000D03*
X78000000Y-24160000D03*
X78000000Y-26700000D03*
%TD*%
D25*
%TO.C,J15*%
X49134000Y-30226000D03*
D26*
X50434000Y-30226000D03*
%TD*%
D29*
%TO.C,R6*%
X42521500Y-60960000D03*
X44346500Y-60960000D03*
%TD*%
D25*
%TO.C,J14*%
X45705000Y-28194000D03*
D26*
X47005000Y-28194000D03*
%TD*%
D44*
%TO.C,3V3Good1*%
X38599000Y-60960000D03*
X40649000Y-60960000D03*
%TD*%
D25*
%TO.C,J13*%
X49134000Y-26924000D03*
D26*
X50434000Y-26924000D03*
%TD*%
D29*
%TO.C,R5*%
X16891000Y-19496000D03*
X18716000Y-19496000D03*
%TD*%
D25*
%TO.C,J8*%
X49530000Y-18161000D03*
D26*
X50830000Y-18161000D03*
%TD*%
D12*
%TO.C,C10*%
X43039500Y-39693000D03*
X44764500Y-39693000D03*
%TD*%
D25*
%TO.C,J7*%
X46086000Y-20066000D03*
D26*
X47386000Y-20066000D03*
%TD*%
D12*
%TO.C,C9*%
X43039500Y-41344000D03*
X44764500Y-41344000D03*
%TD*%
D42*
%TO.C,TP1*%
X59309000Y-25846000D03*
%TD*%
D25*
%TO.C,J16*%
X45705000Y-31623000D03*
D26*
X47005000Y-31623000D03*
%TD*%
D27*
%TO.C,J18*%
X14000000Y-14000000D03*
D28*
X14000000Y-16540000D03*
X14000000Y-19080000D03*
X14000000Y-21620000D03*
X14000000Y-24160000D03*
X14000000Y-26700000D03*
%TD*%
D18*
%TO.C,R4*%
X49045500Y-60960000D03*
X47220500Y-60960000D03*
%TD*%
D23*
%TO.C,C16*%
X61695500Y-15432000D03*
X59970500Y-15432000D03*
%TD*%
D45*
%TO.C,U3*%
X30901000Y-37851000D03*
X30901000Y-37351000D03*
X30901000Y-36851000D03*
X30901000Y-36351000D03*
X30901000Y-35851000D03*
X30901000Y-35351000D03*
X30901000Y-34851000D03*
X30901000Y-34351000D03*
X30901000Y-33851000D03*
X30901000Y-33351000D03*
X30901000Y-32851000D03*
X30901000Y-32351000D03*
X30901000Y-31851000D03*
X30901000Y-31351000D03*
X30901000Y-30851000D03*
X30901000Y-30351000D03*
D46*
X32826000Y-28426000D03*
X33326000Y-28426000D03*
X33826000Y-28426000D03*
X34326000Y-28426000D03*
X34826000Y-28426000D03*
X35326000Y-28426000D03*
X35826000Y-28426000D03*
X36326000Y-28426000D03*
X36826000Y-28426000D03*
X37326000Y-28426000D03*
X37826000Y-28426000D03*
X38326000Y-28426000D03*
X38826000Y-28426000D03*
X39326000Y-28426000D03*
X39826000Y-28426000D03*
X40326000Y-28426000D03*
D45*
X42251000Y-30351000D03*
X42251000Y-30851000D03*
X42251000Y-31351000D03*
X42251000Y-31851000D03*
X42251000Y-32351000D03*
X42251000Y-32851000D03*
X42251000Y-33351000D03*
X42251000Y-33851000D03*
X42251000Y-34351000D03*
X42251000Y-34851000D03*
X42251000Y-35351000D03*
X42251000Y-35851000D03*
X42251000Y-36351000D03*
X42251000Y-36851000D03*
X42251000Y-37351000D03*
X42251000Y-37851000D03*
D46*
X40326000Y-39776000D03*
X39826000Y-39776000D03*
X39326000Y-39776000D03*
X38826000Y-39776000D03*
X38326000Y-39776000D03*
X37826000Y-39776000D03*
X37326000Y-39776000D03*
X36826000Y-39776000D03*
X36326000Y-39776000D03*
X35826000Y-39776000D03*
X35326000Y-39776000D03*
X34826000Y-39776000D03*
X34326000Y-39776000D03*
X33826000Y-39776000D03*
X33326000Y-39776000D03*
X32826000Y-39776000D03*
%TD*%
D19*
%TO.C,C13*%
X65222000Y-55753000D03*
D20*
X61722000Y-55753000D03*
%TD*%
D25*
%TO.C,J6*%
X45705000Y-34798000D03*
D26*
X47005000Y-34798000D03*
%TD*%
M02*
