%TF.GenerationSoftware,KiCad,Pcbnew,7.0.10*%
%TF.CreationDate,2025-06-08T09:47:41+02:00*%
%TF.ProjectId,DIC,4449432e-6b69-4636-9164-5f7063625858,rev?*%
%TF.SameCoordinates,Original*%
%TF.FileFunction,Legend,Top*%
%TF.FilePolarity,Positive*%
%FSLAX46Y46*%
G04 Gerber Fmt 4.6, Leading zero omitted, Abs format (unit mm)*
G04 Created by KiCad (PCBNEW 7.0.10) date 2025-06-08 09:47:41*
%MOMM*%
%LPD*%
G01*
G04 APERTURE LIST*
%ADD10C,0.130000*%
%ADD11C,0.100000*%
G04 APERTURE END LIST*
D10*
X13487476Y-12762335D02*
X13487476Y-13409954D01*
X13487476Y-13409954D02*
X13525571Y-13486144D01*
X13525571Y-13486144D02*
X13563666Y-13524240D01*
X13563666Y-13524240D02*
X13639857Y-13562335D01*
X13639857Y-13562335D02*
X13792238Y-13562335D01*
X13792238Y-13562335D02*
X13868428Y-13524240D01*
X13868428Y-13524240D02*
X13906523Y-13486144D01*
X13906523Y-13486144D02*
X13944619Y-13409954D01*
X13944619Y-13409954D02*
X13944619Y-12762335D01*
X14668428Y-12762335D02*
X14516047Y-12762335D01*
X14516047Y-12762335D02*
X14439856Y-12800430D01*
X14439856Y-12800430D02*
X14401761Y-12838525D01*
X14401761Y-12838525D02*
X14325571Y-12952811D01*
X14325571Y-12952811D02*
X14287475Y-13105192D01*
X14287475Y-13105192D02*
X14287475Y-13409954D01*
X14287475Y-13409954D02*
X14325571Y-13486144D01*
X14325571Y-13486144D02*
X14363666Y-13524240D01*
X14363666Y-13524240D02*
X14439856Y-13562335D01*
X14439856Y-13562335D02*
X14592237Y-13562335D01*
X14592237Y-13562335D02*
X14668428Y-13524240D01*
X14668428Y-13524240D02*
X14706523Y-13486144D01*
X14706523Y-13486144D02*
X14744618Y-13409954D01*
X14744618Y-13409954D02*
X14744618Y-13219478D01*
X14744618Y-13219478D02*
X14706523Y-13143287D01*
X14706523Y-13143287D02*
X14668428Y-13105192D01*
X14668428Y-13105192D02*
X14592237Y-13067097D01*
X14592237Y-13067097D02*
X14439856Y-13067097D01*
X14439856Y-13067097D02*
X14363666Y-13105192D01*
X14363666Y-13105192D02*
X14325571Y-13143287D01*
X14325571Y-13143287D02*
X14287475Y-13219478D01*
X21912049Y-60094335D02*
X21454906Y-60094335D01*
X21683478Y-60094335D02*
X21683478Y-59294335D01*
X21683478Y-59294335D02*
X21607287Y-59408620D01*
X21607287Y-59408620D02*
X21531097Y-59484811D01*
X21531097Y-59484811D02*
X21454906Y-59522906D01*
X39773002Y-38075287D02*
X40039668Y-38075287D01*
X40153954Y-38494335D02*
X39773002Y-38494335D01*
X39773002Y-38494335D02*
X39773002Y-37694335D01*
X39773002Y-37694335D02*
X40153954Y-37694335D01*
X40458716Y-38265763D02*
X40839669Y-38265763D01*
X40382526Y-38494335D02*
X40649193Y-37694335D01*
X40649193Y-37694335D02*
X40915859Y-38494335D01*
X41944431Y-37694335D02*
X42096812Y-37694335D01*
X42096812Y-37694335D02*
X42173002Y-37732430D01*
X42173002Y-37732430D02*
X42249193Y-37808620D01*
X42249193Y-37808620D02*
X42287288Y-37961001D01*
X42287288Y-37961001D02*
X42287288Y-38227668D01*
X42287288Y-38227668D02*
X42249193Y-38380049D01*
X42249193Y-38380049D02*
X42173002Y-38456240D01*
X42173002Y-38456240D02*
X42096812Y-38494335D01*
X42096812Y-38494335D02*
X41944431Y-38494335D01*
X41944431Y-38494335D02*
X41868240Y-38456240D01*
X41868240Y-38456240D02*
X41792050Y-38380049D01*
X41792050Y-38380049D02*
X41753954Y-38227668D01*
X41753954Y-38227668D02*
X41753954Y-37961001D01*
X41753954Y-37961001D02*
X41792050Y-37808620D01*
X41792050Y-37808620D02*
X41868240Y-37732430D01*
X41868240Y-37732430D02*
X41944431Y-37694335D01*
X43011097Y-38494335D02*
X42630145Y-38494335D01*
X42630145Y-38494335D02*
X42630145Y-37694335D01*
X43277764Y-38075287D02*
X43544430Y-38075287D01*
X43658716Y-38494335D02*
X43277764Y-38494335D01*
X43277764Y-38494335D02*
X43277764Y-37694335D01*
X43277764Y-37694335D02*
X43658716Y-37694335D01*
X44001574Y-38494335D02*
X44001574Y-37694335D01*
X44001574Y-37694335D02*
X44192050Y-37694335D01*
X44192050Y-37694335D02*
X44306336Y-37732430D01*
X44306336Y-37732430D02*
X44382526Y-37808620D01*
X44382526Y-37808620D02*
X44420621Y-37884811D01*
X44420621Y-37884811D02*
X44458717Y-38037192D01*
X44458717Y-38037192D02*
X44458717Y-38151478D01*
X44458717Y-38151478D02*
X44420621Y-38303859D01*
X44420621Y-38303859D02*
X44382526Y-38380049D01*
X44382526Y-38380049D02*
X44306336Y-38456240D01*
X44306336Y-38456240D02*
X44192050Y-38494335D01*
X44192050Y-38494335D02*
X44001574Y-38494335D01*
X45182526Y-38494335D02*
X44801574Y-38494335D01*
X44801574Y-38494335D02*
X44801574Y-37694335D01*
X45868240Y-38494335D02*
X45411097Y-38494335D01*
X45639669Y-38494335D02*
X45639669Y-37694335D01*
X45639669Y-37694335D02*
X45563478Y-37808620D01*
X45563478Y-37808620D02*
X45487288Y-37884811D01*
X45487288Y-37884811D02*
X45411097Y-37922906D01*
X46173002Y-37770525D02*
X46211098Y-37732430D01*
X46211098Y-37732430D02*
X46287288Y-37694335D01*
X46287288Y-37694335D02*
X46477764Y-37694335D01*
X46477764Y-37694335D02*
X46553955Y-37732430D01*
X46553955Y-37732430D02*
X46592050Y-37770525D01*
X46592050Y-37770525D02*
X46630145Y-37846716D01*
X46630145Y-37846716D02*
X46630145Y-37922906D01*
X46630145Y-37922906D02*
X46592050Y-38037192D01*
X46592050Y-38037192D02*
X46134907Y-38494335D01*
X46134907Y-38494335D02*
X46630145Y-38494335D01*
X47087288Y-38037192D02*
X47011098Y-37999097D01*
X47011098Y-37999097D02*
X46973003Y-37961001D01*
X46973003Y-37961001D02*
X46934907Y-37884811D01*
X46934907Y-37884811D02*
X46934907Y-37846716D01*
X46934907Y-37846716D02*
X46973003Y-37770525D01*
X46973003Y-37770525D02*
X47011098Y-37732430D01*
X47011098Y-37732430D02*
X47087288Y-37694335D01*
X47087288Y-37694335D02*
X47239669Y-37694335D01*
X47239669Y-37694335D02*
X47315860Y-37732430D01*
X47315860Y-37732430D02*
X47353955Y-37770525D01*
X47353955Y-37770525D02*
X47392050Y-37846716D01*
X47392050Y-37846716D02*
X47392050Y-37884811D01*
X47392050Y-37884811D02*
X47353955Y-37961001D01*
X47353955Y-37961001D02*
X47315860Y-37999097D01*
X47315860Y-37999097D02*
X47239669Y-38037192D01*
X47239669Y-38037192D02*
X47087288Y-38037192D01*
X47087288Y-38037192D02*
X47011098Y-38075287D01*
X47011098Y-38075287D02*
X46973003Y-38113382D01*
X46973003Y-38113382D02*
X46934907Y-38189573D01*
X46934907Y-38189573D02*
X46934907Y-38341954D01*
X46934907Y-38341954D02*
X46973003Y-38418144D01*
X46973003Y-38418144D02*
X47011098Y-38456240D01*
X47011098Y-38456240D02*
X47087288Y-38494335D01*
X47087288Y-38494335D02*
X47239669Y-38494335D01*
X47239669Y-38494335D02*
X47315860Y-38456240D01*
X47315860Y-38456240D02*
X47353955Y-38418144D01*
X47353955Y-38418144D02*
X47392050Y-38341954D01*
X47392050Y-38341954D02*
X47392050Y-38189573D01*
X47392050Y-38189573D02*
X47353955Y-38113382D01*
X47353955Y-38113382D02*
X47315860Y-38075287D01*
X47315860Y-38075287D02*
X47239669Y-38037192D01*
X47734908Y-38189573D02*
X48344432Y-38189573D01*
X49068241Y-37694335D02*
X48915860Y-37694335D01*
X48915860Y-37694335D02*
X48839669Y-37732430D01*
X48839669Y-37732430D02*
X48801574Y-37770525D01*
X48801574Y-37770525D02*
X48725384Y-37884811D01*
X48725384Y-37884811D02*
X48687288Y-38037192D01*
X48687288Y-38037192D02*
X48687288Y-38341954D01*
X48687288Y-38341954D02*
X48725384Y-38418144D01*
X48725384Y-38418144D02*
X48763479Y-38456240D01*
X48763479Y-38456240D02*
X48839669Y-38494335D01*
X48839669Y-38494335D02*
X48992050Y-38494335D01*
X48992050Y-38494335D02*
X49068241Y-38456240D01*
X49068241Y-38456240D02*
X49106336Y-38418144D01*
X49106336Y-38418144D02*
X49144431Y-38341954D01*
X49144431Y-38341954D02*
X49144431Y-38151478D01*
X49144431Y-38151478D02*
X49106336Y-38075287D01*
X49106336Y-38075287D02*
X49068241Y-38037192D01*
X49068241Y-38037192D02*
X48992050Y-37999097D01*
X48992050Y-37999097D02*
X48839669Y-37999097D01*
X48839669Y-37999097D02*
X48763479Y-38037192D01*
X48763479Y-38037192D02*
X48725384Y-38075287D01*
X48725384Y-38075287D02*
X48687288Y-38151478D01*
D11*
%TO.C,U6*%
X11947000Y-12299000D02*
X79747000Y-12299000D01*
X11947000Y-61999000D02*
X11947000Y-12299000D01*
X11947000Y-61999000D02*
X79747000Y-61999000D01*
X79747000Y-12299000D02*
X79747000Y-61999000D01*
%TD*%
M02*
