%TF.GenerationSoftware,KiCad,Pcbnew,7.0.10*%
%TF.CreationDate,2025-06-08T09:47:41+02:00*%
%TF.ProjectId,DIC,4449432e-6b69-4636-9164-5f7063625858,rev?*%
%TF.SameCoordinates,Original*%
%TF.FileFunction,Soldermask,Bot*%
%TF.FilePolarity,Negative*%
%FSLAX46Y46*%
G04 Gerber Fmt 4.6, Leading zero omitted, Abs format (unit mm)*
G04 Created by KiCad (PCBNEW 7.0.10) date 2025-06-08 09:47:41*
%MOMM*%
%LPD*%
G01*
G04 APERTURE LIST*
G04 Aperture macros list*
%AMRoundRect*
0 Rectangle with rounded corners*
0 $1 Rounding radius*
0 $2 $3 $4 $5 $6 $7 $8 $9 X,Y pos of 4 corners*
0 Add a 4 corners polygon primitive as box body*
4,1,4,$2,$3,$4,$5,$6,$7,$8,$9,$2,$3,0*
0 Add four circle primitives for the rounded corners*
1,1,$1+$1,$2,$3*
1,1,$1+$1,$4,$5*
1,1,$1+$1,$6,$7*
1,1,$1+$1,$8,$9*
0 Add four rect primitives between the rounded corners*
20,1,$1+$1,$2,$3,$4,$5,0*
20,1,$1+$1,$4,$5,$6,$7,0*
20,1,$1+$1,$6,$7,$8,$9,0*
20,1,$1+$1,$8,$9,$2,$3,0*%
%AMFreePoly0*
4,1,19,0.500000,-0.750000,0.000000,-0.750000,0.000000,-0.744911,-0.071157,-0.744911,-0.207708,-0.704816,-0.327430,-0.627875,-0.420627,-0.520320,-0.479746,-0.390866,-0.500000,-0.250000,-0.500000,0.250000,-0.479746,0.390866,-0.420627,0.520320,-0.327430,0.627875,-0.207708,0.704816,-0.071157,0.744911,0.000000,0.744911,0.000000,0.750000,0.500000,0.750000,0.500000,-0.750000,0.500000,-0.750000,
$1*%
%AMFreePoly1*
4,1,19,0.000000,0.744911,0.071157,0.744911,0.207708,0.704816,0.327430,0.627875,0.420627,0.520320,0.479746,0.390866,0.500000,0.250000,0.500000,-0.250000,0.479746,-0.390866,0.420627,-0.520320,0.327430,-0.627875,0.207708,-0.704816,0.071157,-0.744911,0.000000,-0.744911,0.000000,-0.750000,-0.500000,-0.750000,-0.500000,0.750000,0.000000,0.750000,0.000000,0.744911,0.000000,0.744911,
$1*%
G04 Aperture macros list end*
%ADD10C,1.524000*%
%ADD11RoundRect,0.250000X0.475000X-0.337500X0.475000X0.337500X-0.475000X0.337500X-0.475000X-0.337500X0*%
%ADD12RoundRect,0.237500X-0.300000X-0.237500X0.300000X-0.237500X0.300000X0.237500X-0.300000X0.237500X0*%
%ADD13RoundRect,0.237500X-0.250000X-0.237500X0.250000X-0.237500X0.250000X0.237500X-0.250000X0.237500X0*%
%ADD14RoundRect,0.237500X0.250000X0.237500X-0.250000X0.237500X-0.250000X-0.237500X0.250000X-0.237500X0*%
%ADD15R,1.600000X1.600000*%
%ADD16C,1.600000*%
%ADD17RoundRect,0.250000X0.337500X0.475000X-0.337500X0.475000X-0.337500X-0.475000X0.337500X-0.475000X0*%
%ADD18R,1.000000X1.000000*%
%ADD19O,1.000000X1.000000*%
%ADD20RoundRect,0.237500X0.237500X-0.250000X0.237500X0.250000X-0.237500X0.250000X-0.237500X-0.250000X0*%
%ADD21RoundRect,0.150000X-0.150000X0.587500X-0.150000X-0.587500X0.150000X-0.587500X0.150000X0.587500X0*%
%ADD22RoundRect,0.150000X0.150000X-0.587500X0.150000X0.587500X-0.150000X0.587500X-0.150000X-0.587500X0*%
%ADD23RoundRect,0.237500X0.237500X-0.300000X0.237500X0.300000X-0.237500X0.300000X-0.237500X-0.300000X0*%
%ADD24RoundRect,0.237500X0.300000X0.237500X-0.300000X0.237500X-0.300000X-0.237500X0.300000X-0.237500X0*%
%ADD25RoundRect,0.250000X0.325000X0.450000X-0.325000X0.450000X-0.325000X-0.450000X0.325000X-0.450000X0*%
%ADD26FreePoly0,0.000000*%
%ADD27FreePoly1,0.000000*%
%ADD28RoundRect,0.250000X-0.337500X-0.475000X0.337500X-0.475000X0.337500X0.475000X-0.337500X0.475000X0*%
%ADD29RoundRect,0.100000X0.100000X-0.712500X0.100000X0.712500X-0.100000X0.712500X-0.100000X-0.712500X0*%
%ADD30RoundRect,0.150000X-0.587500X-0.150000X0.587500X-0.150000X0.587500X0.150000X-0.587500X0.150000X0*%
%ADD31RoundRect,0.100000X-0.712500X-0.100000X0.712500X-0.100000X0.712500X0.100000X-0.712500X0.100000X0*%
%ADD32RoundRect,0.250000X-0.250000X-0.250000X0.250000X-0.250000X0.250000X0.250000X-0.250000X0.250000X0*%
%ADD33RoundRect,0.237500X-0.237500X0.250000X-0.237500X-0.250000X0.237500X-0.250000X0.237500X0.250000X0*%
%ADD34RoundRect,0.250000X0.250000X-0.250000X0.250000X0.250000X-0.250000X0.250000X-0.250000X-0.250000X0*%
%ADD35R,1.500000X2.300000*%
%ADD36O,1.500000X2.300000*%
%ADD37R,0.900000X1.750000*%
%ADD38RoundRect,0.150000X0.150000X-0.825000X0.150000X0.825000X-0.150000X0.825000X-0.150000X-0.825000X0*%
%ADD39RoundRect,0.237500X-0.237500X0.300000X-0.237500X-0.300000X0.237500X-0.300000X0.237500X0.300000X0*%
%ADD40RoundRect,0.250000X-0.325000X-0.450000X0.325000X-0.450000X0.325000X0.450000X-0.325000X0.450000X0*%
%ADD41FreePoly0,90.000000*%
%ADD42FreePoly1,90.000000*%
%ADD43RoundRect,0.250000X0.350000X-0.850000X0.350000X0.850000X-0.350000X0.850000X-0.350000X-0.850000X0*%
%ADD44RoundRect,0.249997X2.650003X-2.950003X2.650003X2.950003X-2.650003X2.950003X-2.650003X-2.950003X0*%
%ADD45RoundRect,0.250000X-0.475000X0.337500X-0.475000X-0.337500X0.475000X-0.337500X0.475000X0.337500X0*%
%ADD46RoundRect,0.112500X-0.112500X0.187500X-0.112500X-0.187500X0.112500X-0.187500X0.112500X0.187500X0*%
%ADD47RoundRect,0.112500X-0.187500X-0.112500X0.187500X-0.112500X0.187500X0.112500X-0.187500X0.112500X0*%
%ADD48RoundRect,0.250000X-0.250000X0.250000X-0.250000X-0.250000X0.250000X-0.250000X0.250000X0.250000X0*%
%ADD49RoundRect,0.075000X-0.700000X-0.075000X0.700000X-0.075000X0.700000X0.075000X-0.700000X0.075000X0*%
%ADD50RoundRect,0.075000X-0.075000X-0.700000X0.075000X-0.700000X0.075000X0.700000X-0.075000X0.700000X0*%
G04 APERTURE END LIST*
D10*
%TO.C,U6*%
X21717000Y-61159000D03*
X24257000Y-61159000D03*
X26797000Y-61159000D03*
X64897000Y-61159000D03*
X67437000Y-61159000D03*
X69977000Y-61159000D03*
X69977000Y-13199000D03*
X67437000Y-13199000D03*
X64897000Y-13199000D03*
X62357000Y-13199000D03*
X59817000Y-13199000D03*
X57277000Y-13199000D03*
X54737000Y-13199000D03*
X52197000Y-13199000D03*
X49657000Y-13199000D03*
X47117000Y-13199000D03*
X44577000Y-13199000D03*
X42037000Y-13199000D03*
X39497000Y-13199000D03*
X36957000Y-13199000D03*
X34417000Y-13199000D03*
X31877000Y-13199000D03*
X29337000Y-13199000D03*
X26797000Y-13199000D03*
X24257000Y-13199000D03*
X21717000Y-13199000D03*
%TD*%
%TO.C,U4*%
X44577000Y-10733000D03*
X47117000Y-10733000D03*
X17907000Y-62803000D03*
X73787000Y-62803000D03*
%TD*%
D11*
%TO.C,C19*%
X24257000Y-17485500D03*
X24257000Y-15410500D03*
%TD*%
D12*
%TO.C,C18*%
X39015500Y-20193000D03*
X40740500Y-20193000D03*
%TD*%
D13*
%TO.C,R42*%
X70080500Y-25146000D03*
X71905500Y-25146000D03*
%TD*%
%TO.C,R58*%
X49587500Y-29500000D03*
X51412500Y-29500000D03*
%TD*%
%TO.C,R3*%
X34774500Y-42037000D03*
X36599500Y-42037000D03*
%TD*%
D14*
%TO.C,R2*%
X28177500Y-19939000D03*
X26352500Y-19939000D03*
%TD*%
D15*
%TO.C,C21*%
X28067000Y-57531000D03*
D16*
X28067000Y-54031000D03*
%TD*%
D17*
%TO.C,C12*%
X31009500Y-40386000D03*
X28934500Y-40386000D03*
%TD*%
D18*
%TO.C,JTAG1*%
X76835000Y-29718000D03*
D19*
X75565000Y-29718000D03*
X76835000Y-30988000D03*
X75565000Y-30988000D03*
X76835000Y-32258000D03*
X75565000Y-32258000D03*
X76835000Y-33528000D03*
X75565000Y-33528000D03*
X76835000Y-34798000D03*
X75565000Y-34798000D03*
X76835000Y-36068000D03*
X75565000Y-36068000D03*
X76835000Y-37338000D03*
X75565000Y-37338000D03*
%TD*%
D14*
%TO.C,R29*%
X61491500Y-46228000D03*
X59666500Y-46228000D03*
%TD*%
D12*
%TO.C,C29*%
X49683500Y-26035000D03*
X51408500Y-26035000D03*
%TD*%
D14*
%TO.C,R36*%
X54760500Y-26035000D03*
X52935500Y-26035000D03*
%TD*%
D20*
%TO.C,R39*%
X69215000Y-30757500D03*
X69215000Y-28932500D03*
%TD*%
D21*
%TO.C,U2*%
X30927000Y-42750500D03*
X32827000Y-42750500D03*
X31877000Y-44625500D03*
%TD*%
D22*
%TO.C,Q2*%
X66736000Y-39672500D03*
X64836000Y-39672500D03*
X65786000Y-37797500D03*
%TD*%
D14*
%TO.C,R31*%
X60221500Y-28702000D03*
X58396500Y-28702000D03*
%TD*%
D23*
%TO.C,C5*%
X34417000Y-45312500D03*
X34417000Y-43587500D03*
%TD*%
D24*
%TO.C,C6*%
X40750000Y-24322000D03*
X39025000Y-24322000D03*
%TD*%
D25*
%TO.C,12VGood1*%
X70494000Y-36195000D03*
X68444000Y-36195000D03*
%TD*%
D26*
%TO.C,JP2*%
X69454000Y-57404000D03*
D27*
X70754000Y-57404000D03*
%TD*%
D28*
%TO.C,C14*%
X41380500Y-49911000D03*
X43455500Y-49911000D03*
%TD*%
D14*
%TO.C,R30*%
X51712500Y-42926000D03*
X49887500Y-42926000D03*
%TD*%
D20*
%TO.C,R48*%
X28750000Y-31162500D03*
X28750000Y-29337500D03*
%TD*%
D12*
%TO.C,C17*%
X39015500Y-21971000D03*
X40740500Y-21971000D03*
%TD*%
D14*
%TO.C,R25*%
X65682500Y-44704000D03*
X63857500Y-44704000D03*
%TD*%
D29*
%TO.C,U10*%
X64475000Y-25353500D03*
X63825000Y-25353500D03*
X63175000Y-25353500D03*
X62525000Y-25353500D03*
X62525000Y-21128500D03*
X63175000Y-21128500D03*
X63825000Y-21128500D03*
X64475000Y-21128500D03*
%TD*%
D30*
%TO.C,Q1*%
X67134500Y-34224000D03*
X67134500Y-32324000D03*
X69009500Y-33274000D03*
%TD*%
D17*
%TO.C,C11*%
X55245000Y-49530000D03*
X53170000Y-49530000D03*
%TD*%
D18*
%TO.C,J3*%
X75819000Y-54473000D03*
D19*
X74549000Y-54473000D03*
X75819000Y-55743000D03*
X74549000Y-55743000D03*
X75819000Y-57013000D03*
X74549000Y-57013000D03*
X75819000Y-58283000D03*
X74549000Y-58283000D03*
X75819000Y-59553000D03*
X74549000Y-59553000D03*
%TD*%
D13*
%TO.C,R1*%
X26352500Y-22733000D03*
X28177500Y-22733000D03*
%TD*%
D28*
%TO.C,C7*%
X49233000Y-49530000D03*
X51308000Y-49530000D03*
%TD*%
D31*
%TO.C,U9*%
X54910500Y-42885000D03*
X54910500Y-42235000D03*
X54910500Y-41585000D03*
X54910500Y-40935000D03*
X59135500Y-40935000D03*
X59135500Y-41585000D03*
X59135500Y-42235000D03*
X59135500Y-42885000D03*
%TD*%
D25*
%TO.C,5VGood1*%
X52968000Y-60960000D03*
X50918000Y-60960000D03*
%TD*%
D30*
%TO.C,Q3*%
X58117500Y-33716000D03*
X58117500Y-31816000D03*
X59992500Y-32766000D03*
%TD*%
D23*
%TO.C,C2*%
X27178000Y-38142500D03*
X27178000Y-36417500D03*
%TD*%
D32*
%TO.C,D10*%
X30119000Y-61087000D03*
X32619000Y-61087000D03*
%TD*%
%TO.C,D8*%
X51074000Y-24257000D03*
X53574000Y-24257000D03*
%TD*%
D14*
%TO.C,R52*%
X40912500Y-17250000D03*
X39087500Y-17250000D03*
%TD*%
D13*
%TO.C,R46*%
X54967500Y-18923000D03*
X56792500Y-18923000D03*
%TD*%
D14*
%TO.C,R44*%
X71905500Y-21590000D03*
X70080500Y-21590000D03*
%TD*%
D33*
%TO.C,R24*%
X62357000Y-42902500D03*
X62357000Y-44727500D03*
%TD*%
D30*
%TO.C,Q6*%
X66372500Y-24826000D03*
X66372500Y-22926000D03*
X68247500Y-23876000D03*
%TD*%
D12*
%TO.C,C31*%
X57938500Y-24638000D03*
X59663500Y-24638000D03*
%TD*%
%TO.C,C25*%
X47397500Y-46101000D03*
X49122500Y-46101000D03*
%TD*%
D18*
%TO.C,J5*%
X16891000Y-54483000D03*
D19*
X15621000Y-54483000D03*
X16891000Y-55753000D03*
X15621000Y-55753000D03*
X16891000Y-57023000D03*
X15621000Y-57023000D03*
X16891000Y-58293000D03*
X15621000Y-58293000D03*
X16891000Y-59563000D03*
X15621000Y-59563000D03*
%TD*%
D13*
%TO.C,R50*%
X32837500Y-21000000D03*
X34662500Y-21000000D03*
%TD*%
D33*
%TO.C,R56*%
X37500000Y-24337500D03*
X37500000Y-26162500D03*
%TD*%
D34*
%TO.C,D2*%
X47371000Y-50145000D03*
X47371000Y-47645000D03*
%TD*%
D13*
%TO.C,R60*%
X54087500Y-44500000D03*
X55912500Y-44500000D03*
%TD*%
D20*
%TO.C,R28*%
X59738500Y-50508500D03*
X59738500Y-48683500D03*
%TD*%
%TO.C,R9*%
X31877000Y-19519500D03*
X31877000Y-17694500D03*
%TD*%
D23*
%TO.C,C28*%
X53467000Y-19150500D03*
X53467000Y-17425500D03*
%TD*%
D13*
%TO.C,R59*%
X61337500Y-18000000D03*
X63162500Y-18000000D03*
%TD*%
D33*
%TO.C,R23*%
X68199000Y-50395500D03*
X68199000Y-52220500D03*
%TD*%
D17*
%TO.C,C23*%
X71268500Y-40386000D03*
X69193500Y-40386000D03*
%TD*%
D35*
%TO.C,U1*%
X49877000Y-53213000D03*
D36*
X52417000Y-53213000D03*
X54957000Y-53213000D03*
%TD*%
D25*
%TO.C,Error1*%
X24480000Y-19939000D03*
X22430000Y-19939000D03*
%TD*%
D11*
%TO.C,C15*%
X45339000Y-50059500D03*
X45339000Y-47984500D03*
%TD*%
D13*
%TO.C,R11*%
X43537500Y-16699000D03*
X45362500Y-16699000D03*
%TD*%
D14*
%TO.C,R43*%
X66698500Y-17907000D03*
X64873500Y-17907000D03*
%TD*%
D37*
%TO.C,Y1*%
X25667000Y-34110000D03*
X25667000Y-37010000D03*
X24117000Y-37010000D03*
X24117000Y-34110000D03*
%TD*%
D32*
%TO.C,D3*%
X57424000Y-22225000D03*
X59924000Y-22225000D03*
%TD*%
D20*
%TO.C,R38*%
X70739000Y-28598500D03*
X70739000Y-26773500D03*
%TD*%
D17*
%TO.C,C20*%
X32914500Y-15686000D03*
X30839500Y-15686000D03*
%TD*%
D14*
%TO.C,R37*%
X71905500Y-23241000D03*
X70080500Y-23241000D03*
%TD*%
D38*
%TO.C,U7*%
X46355000Y-23684000D03*
X45085000Y-23684000D03*
X43815000Y-23684000D03*
X42545000Y-23684000D03*
X42545000Y-18734000D03*
X43815000Y-18734000D03*
X45085000Y-18734000D03*
X46355000Y-18734000D03*
%TD*%
D20*
%TO.C,R10*%
X48133000Y-20470500D03*
X48133000Y-18645500D03*
%TD*%
%TO.C,R7*%
X78105000Y-44600500D03*
X78105000Y-42775500D03*
%TD*%
D24*
%TO.C,C4*%
X32993500Y-25146000D03*
X31268500Y-25146000D03*
%TD*%
D20*
%TO.C,R17*%
X70739000Y-31900500D03*
X70739000Y-30075500D03*
%TD*%
D30*
%TO.C,Q7*%
X62689500Y-30795000D03*
X62689500Y-28895000D03*
X64564500Y-29845000D03*
%TD*%
D35*
%TO.C,U5*%
X36542000Y-53213000D03*
D36*
X39082000Y-53213000D03*
X41622000Y-53213000D03*
%TD*%
D13*
%TO.C,R57*%
X55087500Y-30000000D03*
X56912500Y-30000000D03*
%TD*%
D33*
%TO.C,R26*%
X67691000Y-27916500D03*
X67691000Y-29741500D03*
%TD*%
D20*
%TO.C,R27*%
X67183000Y-44727500D03*
X67183000Y-42902500D03*
%TD*%
D14*
%TO.C,R14*%
X59840500Y-37592000D03*
X58015500Y-37592000D03*
%TD*%
D20*
%TO.C,R55*%
X37000000Y-20662500D03*
X37000000Y-18837500D03*
%TD*%
D14*
%TO.C,R35*%
X67968500Y-26416000D03*
X66143500Y-26416000D03*
%TD*%
%TO.C,R12*%
X66698500Y-41402000D03*
X64873500Y-41402000D03*
%TD*%
D24*
%TO.C,C1*%
X32993500Y-23495000D03*
X31268500Y-23495000D03*
%TD*%
D30*
%TO.C,Q5*%
X61976000Y-50546000D03*
X61976000Y-48646000D03*
X63851000Y-49596000D03*
%TD*%
D25*
%TO.C,Heart1*%
X24480000Y-22733000D03*
X22430000Y-22733000D03*
%TD*%
D24*
%TO.C,C8*%
X40750000Y-25973000D03*
X39025000Y-25973000D03*
%TD*%
D17*
%TO.C,C22*%
X71014500Y-54610000D03*
X68939500Y-54610000D03*
%TD*%
D39*
%TO.C,C3*%
X27178000Y-32919500D03*
X27178000Y-34644500D03*
%TD*%
D13*
%TO.C,R20*%
X56491500Y-39116000D03*
X58316500Y-39116000D03*
%TD*%
%TO.C,R8*%
X68683500Y-38354000D03*
X70508500Y-38354000D03*
%TD*%
%TO.C,R6*%
X42521500Y-60960000D03*
X44346500Y-60960000D03*
%TD*%
D14*
%TO.C,R15*%
X58062500Y-36068000D03*
X56237500Y-36068000D03*
%TD*%
D40*
%TO.C,3V3Good1*%
X38599000Y-60960000D03*
X40649000Y-60960000D03*
%TD*%
D14*
%TO.C,R13*%
X65301500Y-33528000D03*
X63476500Y-33528000D03*
%TD*%
%TO.C,R18*%
X55903500Y-33655000D03*
X54078500Y-33655000D03*
%TD*%
D33*
%TO.C,R41*%
X59436000Y-17883500D03*
X59436000Y-19708500D03*
%TD*%
D41*
%TO.C,JP1*%
X77851000Y-50942000D03*
D42*
X77851000Y-49642000D03*
%TD*%
D24*
%TO.C,C30*%
X51662500Y-41402000D03*
X49937500Y-41402000D03*
%TD*%
D13*
%TO.C,R21*%
X50395500Y-36957000D03*
X52220500Y-36957000D03*
%TD*%
D18*
%TO.C,J4*%
X16129000Y-20701000D03*
D19*
X17399000Y-20701000D03*
X16129000Y-19431000D03*
X17399000Y-19431000D03*
X16129000Y-18161000D03*
X17399000Y-18161000D03*
X16129000Y-16891000D03*
X17399000Y-16891000D03*
X16129000Y-15621000D03*
X17399000Y-15621000D03*
%TD*%
D43*
%TO.C,U8*%
X75305000Y-51512000D03*
D44*
X73025000Y-45212000D03*
D43*
X70745000Y-51512000D03*
%TD*%
D45*
%TO.C,C26*%
X57150000Y-46206500D03*
X57150000Y-48281500D03*
%TD*%
D33*
%TO.C,R19*%
X54483000Y-36044500D03*
X54483000Y-37869500D03*
%TD*%
D30*
%TO.C,Q8*%
X68912500Y-18476000D03*
X68912500Y-16576000D03*
X70787500Y-17526000D03*
%TD*%
D14*
%TO.C,R33*%
X50061500Y-44577000D03*
X48236500Y-44577000D03*
%TD*%
D13*
%TO.C,R34*%
X52935500Y-27686000D03*
X54760500Y-27686000D03*
%TD*%
D14*
%TO.C,R16*%
X63269500Y-37592000D03*
X61444500Y-37592000D03*
%TD*%
D22*
%TO.C,Q4*%
X68133000Y-48562500D03*
X66233000Y-48562500D03*
X67183000Y-46687500D03*
%TD*%
D46*
%TO.C,D5*%
X49911000Y-18508000D03*
X49911000Y-20608000D03*
%TD*%
D47*
%TO.C,D4*%
X52798000Y-15240000D03*
X54898000Y-15240000D03*
%TD*%
D39*
%TO.C,C10*%
X41529000Y-40285500D03*
X41529000Y-42010500D03*
%TD*%
%TO.C,C9*%
X43053000Y-39269500D03*
X43053000Y-40994500D03*
%TD*%
D14*
%TO.C,R40*%
X63777500Y-27178000D03*
X61952500Y-27178000D03*
%TD*%
D48*
%TO.C,D1*%
X52197000Y-31262000D03*
X52197000Y-33762000D03*
%TD*%
D20*
%TO.C,R32*%
X51816000Y-46632500D03*
X51816000Y-44807500D03*
%TD*%
D33*
%TO.C,R5*%
X77343000Y-46077500D03*
X77343000Y-47902500D03*
%TD*%
D14*
%TO.C,R4*%
X49045500Y-60960000D03*
X47220500Y-60960000D03*
%TD*%
D24*
%TO.C,C16*%
X61695500Y-14986000D03*
X59970500Y-14986000D03*
%TD*%
D18*
%TO.C,J2*%
X76200000Y-14859000D03*
D19*
X74930000Y-14859000D03*
X76200000Y-16129000D03*
X74930000Y-16129000D03*
X76200000Y-17399000D03*
X74930000Y-17399000D03*
X76200000Y-18669000D03*
X74930000Y-18669000D03*
X76200000Y-19939000D03*
X74930000Y-19939000D03*
%TD*%
D45*
%TO.C,C27*%
X55372000Y-22330500D03*
X55372000Y-24405500D03*
%TD*%
D49*
%TO.C,U3*%
X30901000Y-37851000D03*
X30901000Y-37351000D03*
X30901000Y-36851000D03*
X30901000Y-36351000D03*
X30901000Y-35851000D03*
X30901000Y-35351000D03*
X30901000Y-34851000D03*
X30901000Y-34351000D03*
X30901000Y-33851000D03*
X30901000Y-33351000D03*
X30901000Y-32851000D03*
X30901000Y-32351000D03*
X30901000Y-31851000D03*
X30901000Y-31351000D03*
X30901000Y-30851000D03*
X30901000Y-30351000D03*
D50*
X32826000Y-28426000D03*
X33326000Y-28426000D03*
X33826000Y-28426000D03*
X34326000Y-28426000D03*
X34826000Y-28426000D03*
X35326000Y-28426000D03*
X35826000Y-28426000D03*
X36326000Y-28426000D03*
X36826000Y-28426000D03*
X37326000Y-28426000D03*
X37826000Y-28426000D03*
X38326000Y-28426000D03*
X38826000Y-28426000D03*
X39326000Y-28426000D03*
X39826000Y-28426000D03*
X40326000Y-28426000D03*
D49*
X42251000Y-30351000D03*
X42251000Y-30851000D03*
X42251000Y-31351000D03*
X42251000Y-31851000D03*
X42251000Y-32351000D03*
X42251000Y-32851000D03*
X42251000Y-33351000D03*
X42251000Y-33851000D03*
X42251000Y-34351000D03*
X42251000Y-34851000D03*
X42251000Y-35351000D03*
X42251000Y-35851000D03*
X42251000Y-36351000D03*
X42251000Y-36851000D03*
X42251000Y-37351000D03*
X42251000Y-37851000D03*
D50*
X40326000Y-39776000D03*
X39826000Y-39776000D03*
X39326000Y-39776000D03*
X38826000Y-39776000D03*
X38326000Y-39776000D03*
X37826000Y-39776000D03*
X37326000Y-39776000D03*
X36826000Y-39776000D03*
X36326000Y-39776000D03*
X35826000Y-39776000D03*
X35326000Y-39776000D03*
X34826000Y-39776000D03*
X34326000Y-39776000D03*
X33826000Y-39776000D03*
X33326000Y-39776000D03*
X32826000Y-39776000D03*
%TD*%
D14*
%TO.C,R45*%
X70381500Y-20066000D03*
X68556500Y-20066000D03*
%TD*%
D39*
%TO.C,C24*%
X50292000Y-32030500D03*
X50292000Y-33755500D03*
%TD*%
D14*
%TO.C,R22*%
X52093500Y-35433000D03*
X50268500Y-35433000D03*
%TD*%
%TO.C,R47*%
X56792500Y-17399000D03*
X54967500Y-17399000D03*
%TD*%
D15*
%TO.C,C13*%
X65222000Y-55753000D03*
D16*
X61722000Y-55753000D03*
%TD*%
M02*
