%TF.GenerationSoftware,KiCad,Pcbnew,7.0.10*%
%TF.CreationDate,2025-06-08T09:47:41+02:00*%
%TF.ProjectId,DIC,4449432e-6b69-4636-9164-5f7063625858,rev?*%
%TF.SameCoordinates,Original*%
%TF.FileFunction,Soldermask,Top*%
%TF.FilePolarity,Negative*%
%FSLAX46Y46*%
G04 Gerber Fmt 4.6, Leading zero omitted, Abs format (unit mm)*
G04 Created by KiCad (PCBNEW 7.0.10) date 2025-06-08 09:47:41*
%MOMM*%
%LPD*%
G01*
G04 APERTURE LIST*
%ADD10C,1.524000*%
%ADD11R,1.600000X1.600000*%
%ADD12C,1.600000*%
%ADD13R,1.000000X1.000000*%
%ADD14O,1.000000X1.000000*%
%ADD15R,1.500000X2.300000*%
%ADD16O,1.500000X2.300000*%
G04 APERTURE END LIST*
D10*
%TO.C,U6*%
X21717000Y-61159000D03*
X24257000Y-61159000D03*
X26797000Y-61159000D03*
X64897000Y-61159000D03*
X67437000Y-61159000D03*
X69977000Y-61159000D03*
X69977000Y-13199000D03*
X67437000Y-13199000D03*
X64897000Y-13199000D03*
X62357000Y-13199000D03*
X59817000Y-13199000D03*
X57277000Y-13199000D03*
X54737000Y-13199000D03*
X52197000Y-13199000D03*
X49657000Y-13199000D03*
X47117000Y-13199000D03*
X44577000Y-13199000D03*
X42037000Y-13199000D03*
X39497000Y-13199000D03*
X36957000Y-13199000D03*
X34417000Y-13199000D03*
X31877000Y-13199000D03*
X29337000Y-13199000D03*
X26797000Y-13199000D03*
X24257000Y-13199000D03*
X21717000Y-13199000D03*
%TD*%
%TO.C,U4*%
X44577000Y-10733000D03*
X47117000Y-10733000D03*
X17907000Y-62803000D03*
X73787000Y-62803000D03*
%TD*%
D11*
%TO.C,C21*%
X28067000Y-57531000D03*
D12*
X28067000Y-54031000D03*
%TD*%
D13*
%TO.C,JTAG1*%
X76835000Y-29718000D03*
D14*
X75565000Y-29718000D03*
X76835000Y-30988000D03*
X75565000Y-30988000D03*
X76835000Y-32258000D03*
X75565000Y-32258000D03*
X76835000Y-33528000D03*
X75565000Y-33528000D03*
X76835000Y-34798000D03*
X75565000Y-34798000D03*
X76835000Y-36068000D03*
X75565000Y-36068000D03*
X76835000Y-37338000D03*
X75565000Y-37338000D03*
%TD*%
D13*
%TO.C,J3*%
X75819000Y-54473000D03*
D14*
X74549000Y-54473000D03*
X75819000Y-55743000D03*
X74549000Y-55743000D03*
X75819000Y-57013000D03*
X74549000Y-57013000D03*
X75819000Y-58283000D03*
X74549000Y-58283000D03*
X75819000Y-59553000D03*
X74549000Y-59553000D03*
%TD*%
D13*
%TO.C,J5*%
X16891000Y-54483000D03*
D14*
X15621000Y-54483000D03*
X16891000Y-55753000D03*
X15621000Y-55753000D03*
X16891000Y-57023000D03*
X15621000Y-57023000D03*
X16891000Y-58293000D03*
X15621000Y-58293000D03*
X16891000Y-59563000D03*
X15621000Y-59563000D03*
%TD*%
D15*
%TO.C,U1*%
X49877000Y-53213000D03*
D16*
X52417000Y-53213000D03*
X54957000Y-53213000D03*
%TD*%
D15*
%TO.C,U5*%
X36542000Y-53213000D03*
D16*
X39082000Y-53213000D03*
X41622000Y-53213000D03*
%TD*%
D13*
%TO.C,J4*%
X16129000Y-20701000D03*
D14*
X17399000Y-20701000D03*
X16129000Y-19431000D03*
X17399000Y-19431000D03*
X16129000Y-18161000D03*
X17399000Y-18161000D03*
X16129000Y-16891000D03*
X17399000Y-16891000D03*
X16129000Y-15621000D03*
X17399000Y-15621000D03*
%TD*%
D13*
%TO.C,J2*%
X76200000Y-14859000D03*
D14*
X74930000Y-14859000D03*
X76200000Y-16129000D03*
X74930000Y-16129000D03*
X76200000Y-17399000D03*
X74930000Y-17399000D03*
X76200000Y-18669000D03*
X74930000Y-18669000D03*
X76200000Y-19939000D03*
X74930000Y-19939000D03*
%TD*%
D11*
%TO.C,C13*%
X65222000Y-55753000D03*
D12*
X61722000Y-55753000D03*
%TD*%
M02*
