M48
; DRILL file {KiCad 7.0.10} date Sun Jun  8 09:47:51 2025
; FORMAT={-:-/ absolute / inch / decimal}
; #@! TF.CreationDate,2025-06-08T09:47:51+02:00
; #@! TF.GenerationSoftware,Kicad,Pcbnew,7.0.10
; #@! TF.FileFunction,Plated,1,4,PTH
FMAT,2
INCH
; #@! TA.AperFunction,Plated,PTH,ViaDrill
T1C0.0157
; #@! TA.AperFunction,Plated,PTH,ComponentDrill
T2C0.0256
; #@! TA.AperFunction,Plated,PTH,ComponentDrill
T3C0.0300
; #@! TA.AperFunction,Plated,PTH,ComponentDrill
T4C0.0315
; #@! TA.AperFunction,Plated,PTH,ComponentDrill
T5C0.0394
%
G90
G05
T1
X0.57Y-0.97
X0.64Y-1.055
X0.72Y-1.165
X0.8Y-1.94
X0.88Y-1.925
X0.89Y-2.29
X0.945Y-1.86
X0.955Y-2.22
X0.985Y-1.025
X0.9871Y-1.2795
X0.99Y-1.14
X0.99Y-1.815
X1.005Y-2.16
X1.02Y-0.685
X1.0925Y-1.1909
X1.105Y-0.845
X1.11Y-1.46
X1.13Y-1.36
X1.14Y-1.54
X1.15Y-2.04
X1.16Y-0.975
X1.19Y-2.0
X1.2Y-0.765
X1.25Y-0.875
X1.255Y-1.695
X1.26Y-1.135
X1.2805Y-1.3104
X1.285Y-1.63
X1.29Y-1.465
X1.295Y-0.875
X1.31Y-2.22
X1.322Y-1.6831
X1.3408Y-0.9475
X1.345Y-0.615
X1.3546Y-1.3394
X1.355Y-1.3
X1.3583Y-0.876
X1.38Y-2.3561
X1.3878Y-1.4961
X1.3977Y-0.9041
X1.4Y-1.7894
X1.4137Y-1.3071
X1.415Y-1.37
X1.4272Y-0.6988
X1.4371Y-0.5821
X1.4394Y-1.7894
X1.44Y-1.7
X1.4416Y-1.2792
X1.4469Y-1.4665
X1.4602Y-1.3715
X1.4828Y-0.9021
X1.4834Y-1.9762
X1.485Y-1.7894
X1.5005Y-1.3715
X1.5134Y-1.5082
X1.515Y-0.585
X1.515Y-1.9528
X1.5241Y-1.7845
X1.53Y-2.25
X1.5454Y-1.1696
X1.555Y-1.76
X1.56Y-0.625
X1.5604Y-1.395
X1.5604Y-0.99
X1.5797Y-0.7219
X1.5805Y-1.6198
X1.5907Y-1.7357
X1.5916Y-1.2115
X1.5929Y-1.6571
X1.5939Y-1.4835
X1.601Y-0.91
X1.6293Y-1.5189
X1.63Y-0.735
X1.64Y-0.903
X1.6445Y-1.9129
X1.66Y-0.8124
X1.6829Y-1.9044
X1.6899Y-1.1654
X1.7223Y-1.0315
X1.7655Y-1.1949
X1.7748Y-1.0798
X1.8Y-2.4
X1.8181Y-1.1656
X1.82Y-2.245
X1.8298Y-1.1085
X1.83Y-0.8474
X1.8615Y-1.1961
X1.9075Y-0.9875
X1.9324Y-1.0653
X1.945Y-1.225
X1.965Y-0.66
X1.9739Y-0.9863
X1.975Y-1.58
X1.979Y-0.591
X1.9817Y-1.1659
X1.9952Y-0.5551
X2.0Y-2.245
X2.0138Y-1.2268
X2.02Y-0.7
X2.025Y-1.09
X2.03Y-0.59
X2.0481Y-0.8366
X2.05Y-1.565
X2.0577Y-0.9327
X2.1Y-1.565
X2.1253Y-2.175
X2.1329Y-1.1581
X2.135Y-2.38
X2.1796Y-1.8896
X2.1966Y-0.6078
X2.202Y-2.175
X2.215Y-1.015
X2.2244Y-1.2697
X2.23Y-2.09
X2.2343Y-1.7564
X2.245Y-0.835
X2.25Y-1.95
X2.2806Y-1.5794
X2.2981Y-0.7671
X2.315Y-2.24
X2.325Y-1.72
X2.325Y-2.13
X2.33Y-1.225
X2.3315Y-1.88
X2.335Y-1.015
X2.345Y-1.425
X2.38Y-0.705
X2.4Y-1.325
X2.4Y-1.625
X2.41Y-1.875
X2.415Y-1.115
X2.425Y-1.54
X2.435Y-2.1
X2.51Y-1.39
X2.515Y-1.575
X2.535Y-0.895
X2.575Y-1.0873
X2.585Y-1.815
X2.605Y-1.975
X2.63Y-1.11
X2.63Y-2.295
X2.64Y-1.475
X2.6595Y-0.8295
X2.676Y-2.136
X2.68Y-0.69
X2.7Y-1.265
X2.705Y-1.785
X2.735Y-1.645
X2.81Y-1.465
X2.8346Y-1.0433
X2.855Y-0.56
X2.8637Y-1.1525
X2.8665Y-0.8801
X2.87Y-1.955
X2.875Y-0.655
X2.9298Y-1.3413
X2.9431Y-1.0236
X2.965Y-0.975
X3.0132Y-2.4402
X3.03Y-1.105
X3.03Y-2.055
X3.08Y-1.84
T2
X0.615Y-2.145
X0.615Y-2.195
X0.615Y-2.245
X0.615Y-2.295
X0.615Y-2.345
X0.635Y-0.615
X0.635Y-0.665
X0.635Y-0.715
X0.635Y-0.765
X0.635Y-0.815
X0.665Y-2.145
X0.665Y-2.195
X0.665Y-2.245
X0.665Y-2.295
X0.665Y-2.345
X0.685Y-0.615
X0.685Y-0.665
X0.685Y-0.715
X0.685Y-0.765
X0.685Y-0.815
X2.935Y-2.1446
X2.935Y-2.1946
X2.935Y-2.2446
X2.935Y-2.2946
X2.935Y-2.3446
X2.95Y-0.585
X2.95Y-0.635
X2.95Y-0.685
X2.95Y-0.735
X2.95Y-0.785
X2.975Y-1.17
X2.975Y-1.22
X2.975Y-1.27
X2.975Y-1.32
X2.975Y-1.37
X2.975Y-1.42
X2.975Y-1.47
X2.985Y-2.1446
X2.985Y-2.1946
X2.985Y-2.2446
X2.985Y-2.2946
X2.985Y-2.3446
X3.0Y-0.585
X3.0Y-0.635
X3.0Y-0.685
X3.0Y-0.735
X3.0Y-0.785
X3.025Y-1.17
X3.025Y-1.22
X3.025Y-1.27
X3.025Y-1.32
X3.025Y-1.37
X3.025Y-1.42
X3.025Y-1.47
T3
X0.855Y-0.5196
X0.855Y-2.4078
X0.955Y-0.5196
X0.955Y-2.4078
X1.055Y-0.5196
X1.055Y-2.4078
X1.155Y-0.5196
X1.255Y-0.5196
X1.355Y-0.5196
X1.455Y-0.5196
X1.555Y-0.5196
X1.655Y-0.5196
X1.755Y-0.5196
X1.855Y-0.5196
X1.955Y-0.5196
X2.055Y-0.5196
X2.155Y-0.5196
X2.255Y-0.5196
X2.355Y-0.5196
X2.455Y-0.5196
X2.555Y-0.5196
X2.555Y-2.4078
X2.655Y-0.5196
X2.655Y-2.4078
X2.755Y-0.5196
X2.755Y-2.4078
T4
X1.105Y-2.1272
X1.105Y-2.265
X2.43Y-2.195
X2.5678Y-2.195
T5
X0.705Y-2.4726
X1.4387Y-2.095
X1.5387Y-2.095
X1.6387Y-2.095
X1.755Y-0.4226
X1.855Y-0.4226
X1.9637Y-2.095
X2.0637Y-2.095
X2.1637Y-2.095
X2.905Y-2.4726
M30
