%TF.GenerationSoftware,KiCad,Pcbnew,7.0.10*%
%TF.CreationDate,2025-03-26T19:51:21+01:00*%
%TF.ProjectId,DIC,4449432e-6b69-4636-9164-5f7063625858,rev?*%
%TF.SameCoordinates,Original*%
%TF.FileFunction,Copper,L1,Top*%
%TF.FilePolarity,Positive*%
%FSLAX46Y46*%
G04 Gerber Fmt 4.6, Leading zero omitted, Abs format (unit mm)*
G04 Created by KiCad (PCBNEW 7.0.10) date 2025-03-26 19:51:21*
%MOMM*%
%LPD*%
G01*
G04 APERTURE LIST*
%TA.AperFunction,ComponentPad*%
%ADD10C,1.524000*%
%TD*%
%TA.AperFunction,ComponentPad*%
%ADD11R,1.600000X1.600000*%
%TD*%
%TA.AperFunction,ComponentPad*%
%ADD12C,1.600000*%
%TD*%
%TA.AperFunction,ComponentPad*%
%ADD13R,1.000000X1.000000*%
%TD*%
%TA.AperFunction,ComponentPad*%
%ADD14O,1.000000X1.000000*%
%TD*%
%TA.AperFunction,ComponentPad*%
%ADD15R,1.500000X2.300000*%
%TD*%
%TA.AperFunction,ComponentPad*%
%ADD16O,1.500000X2.300000*%
%TD*%
%TA.AperFunction,ViaPad*%
%ADD17C,0.800000*%
%TD*%
%TA.AperFunction,Conductor*%
%ADD18C,0.500000*%
%TD*%
%TA.AperFunction,Conductor*%
%ADD19C,0.250000*%
%TD*%
G04 APERTURE END LIST*
D10*
%TO.P,U6,1,NC*%
%TO.N,unconnected-(U6-NC-Pad1)*%
X21717000Y-61159000D03*
%TO.P,U6,2,NC*%
%TO.N,unconnected-(U6-NC-Pad2)*%
X24257000Y-61159000D03*
%TO.P,U6,3,NC*%
%TO.N,unconnected-(U6-NC-Pad3)*%
X26797000Y-61159000D03*
%TO.P,U6,18,NC*%
%TO.N,unconnected-(U6-NC-Pad18)*%
X64897000Y-61159000D03*
%TO.P,U6,19,NC*%
%TO.N,unconnected-(U6-NC-Pad19)*%
X67437000Y-61159000D03*
%TO.P,U6,20,NC*%
%TO.N,unconnected-(U6-NC-Pad20)*%
X69977000Y-61159000D03*
%TO.P,U6,21,VCC*%
%TO.N,+12V*%
X69977000Y-13199000D03*
%TO.P,U6,22,VCC*%
X67437000Y-13199000D03*
%TO.P,U6,23,GND*%
%TO.N,GND*%
X64897000Y-13199000D03*
%TO.P,U6,24,GND*%
X62357000Y-13199000D03*
%TO.P,U6,25,VDD*%
%TO.N,+3.3V*%
X59817000Y-13199000D03*
%TO.P,U6,26,BS0*%
%TO.N,GND*%
X57277000Y-13199000D03*
%TO.P,U6,27,BS1*%
X54737000Y-13199000D03*
%TO.P,U6,28,GND*%
X52197000Y-13199000D03*
%TO.P,U6,29,nCS*%
%TO.N,/nCS_Display*%
X49657000Y-13199000D03*
%TO.P,U6,30,nRes*%
%TO.N,/nRES_Display*%
X47117000Y-13199000D03*
%TO.P,U6,31,D/nC*%
%TO.N,/D_nC_Display*%
X44577000Y-13199000D03*
%TO.P,U6,32,D0*%
%TO.N,/SPI1_SCK_Display*%
X42037000Y-13199000D03*
%TO.P,U6,33,D1*%
%TO.N,/SPI1_MOSI_Display*%
X39497000Y-13199000D03*
%TO.P,U6,34,D2*%
%TO.N,unconnected-(U6-D2-Pad34)*%
X36957000Y-13199000D03*
%TO.P,U6,35,GND*%
%TO.N,GND*%
X34417000Y-13199000D03*
%TO.P,U6,36,IREF*%
%TO.N,Net-(U6-IREF)*%
X31877000Y-13199000D03*
%TO.P,U6,37,VCOMH*%
%TO.N,Net-(C20-Pad2)*%
X29337000Y-13199000D03*
%TO.P,U6,38,VCOMH*%
X26797000Y-13199000D03*
%TO.P,U6,39,VCC*%
%TO.N,+12V*%
X24257000Y-13199000D03*
%TO.P,U6,40,VCC*%
X21717000Y-13199000D03*
%TD*%
%TO.P,U4,1,I2C_Data*%
%TO.N,/SPI2_MOSI_RGBLED*%
X44577000Y-10733000D03*
%TO.P,U4,2,I2C_CLK*%
%TO.N,/SPI2_SCK_RGBLED*%
X47117000Y-10733000D03*
%TO.P,U4,3,5V*%
%TO.N,+5V*%
X17907000Y-62803000D03*
%TO.P,U4,4,GND*%
%TO.N,GND*%
X73787000Y-62803000D03*
%TD*%
D11*
%TO.P,C21,1*%
%TO.N,+3.3V*%
X28067000Y-57531000D03*
D12*
%TO.P,C21,2*%
%TO.N,GND*%
X28067000Y-54031000D03*
%TD*%
D13*
%TO.P,JTAG1,1,Pin_1*%
%TO.N,unconnected-(JTAG1-Pin_1-Pad1)*%
X76835000Y-29718000D03*
D14*
%TO.P,JTAG1,2,Pin_2*%
%TO.N,unconnected-(JTAG1-Pin_2-Pad2)*%
X75565000Y-29718000D03*
%TO.P,JTAG1,3,Pin_3*%
%TO.N,+3.3V*%
X76835000Y-30988000D03*
%TO.P,JTAG1,4,Pin_4*%
%TO.N,JTMS{slash}SWDIO*%
X75565000Y-30988000D03*
%TO.P,JTAG1,5,Pin_5*%
%TO.N,GND*%
X76835000Y-32258000D03*
%TO.P,JTAG1,6,Pin_6*%
%TO.N,JCLK{slash}SWCLK*%
X75565000Y-32258000D03*
%TO.P,JTAG1,7,Pin_7*%
%TO.N,GND*%
X76835000Y-33528000D03*
%TO.P,JTAG1,8,Pin_8*%
%TO.N,JTDO{slash}SWO*%
X75565000Y-33528000D03*
%TO.P,JTAG1,9,Pin_9*%
%TO.N,unconnected-(JTAG1-Pin_9-Pad9)*%
X76835000Y-34798000D03*
%TO.P,JTAG1,10,Pin_10*%
%TO.N,JTDI{slash}NC*%
X75565000Y-34798000D03*
%TO.P,JTAG1,11,Pin_11*%
%TO.N,GND*%
X76835000Y-36068000D03*
%TO.P,JTAG1,12,Pin_12*%
%TO.N,Reset*%
X75565000Y-36068000D03*
%TO.P,JTAG1,13,Pin_13*%
%TO.N,T_VCP_RX*%
X76835000Y-37338000D03*
%TO.P,JTAG1,14,Pin_14*%
%TO.N,T_VCP_TX*%
X75565000Y-37338000D03*
%TD*%
D13*
%TO.P,J3,1,Pin_1*%
%TO.N,+BATT*%
X75819000Y-54473000D03*
D14*
%TO.P,J3,2,Pin_2*%
X74549000Y-54473000D03*
%TO.P,J3,3,Pin_3*%
%TO.N,+12V*%
X75819000Y-55743000D03*
%TO.P,J3,4,Pin_4*%
X74549000Y-55743000D03*
%TO.P,J3,5,Pin_5*%
%TO.N,GND*%
X75819000Y-57013000D03*
%TO.P,J3,6,Pin_6*%
X74549000Y-57013000D03*
%TO.P,J3,7,Pin_7*%
%TO.N,+3.3V*%
X75819000Y-58283000D03*
%TO.P,J3,8,Pin_8*%
X74549000Y-58283000D03*
%TO.P,J3,9,Pin_9*%
%TO.N,+5V*%
X75819000Y-59553000D03*
%TO.P,J3,10,Pin_10*%
X74549000Y-59553000D03*
%TD*%
D13*
%TO.P,J5,1,Pin_1*%
%TO.N,GPIO5_5VOut*%
X16891000Y-54483000D03*
D14*
%TO.P,J5,2,Pin_2*%
%TO.N,GPIO4_12VOut*%
X15621000Y-54483000D03*
%TO.P,J5,3,Pin_3*%
%TO.N,GPIO6_12VOut*%
X16891000Y-55753000D03*
%TO.P,J5,4,Pin_4*%
%TO.N,GPIO4_5VOut*%
X15621000Y-55753000D03*
%TO.P,J5,5,Pin_5*%
%TO.N,GPIO6_5VOut*%
X16891000Y-57023000D03*
%TO.P,J5,6,Pin_6*%
%TO.N,GPIO5_12VOut*%
X15621000Y-57023000D03*
%TO.P,J5,7,Pin_7*%
%TO.N,GPIO6_In*%
X16891000Y-58293000D03*
%TO.P,J5,8,Pin_8*%
%TO.N,GPIO4_In*%
X15621000Y-58293000D03*
%TO.P,J5,9,Pin_9*%
%TO.N,GPIO5_In*%
X16891000Y-59563000D03*
%TO.P,J5,10,Pin_10*%
%TO.N,GND*%
X15621000Y-59563000D03*
%TD*%
D15*
%TO.P,U1,1,IN*%
%TO.N,+BATT*%
X49877000Y-53213000D03*
D16*
%TO.P,U1,2,GND*%
%TO.N,GND*%
X52417000Y-53213000D03*
%TO.P,U1,3,OUT*%
%TO.N,+5V*%
X54957000Y-53213000D03*
%TD*%
D15*
%TO.P,U5,1,IN*%
%TO.N,+BATT*%
X36542000Y-53213000D03*
D16*
%TO.P,U5,2,GND*%
%TO.N,GND*%
X39082000Y-53213000D03*
%TO.P,U5,3,OUT*%
%TO.N,+3.3V*%
X41622000Y-53213000D03*
%TD*%
D13*
%TO.P,J4,1,Pin_1*%
%TO.N,GPIO2_In*%
X16129000Y-20701000D03*
D14*
%TO.P,J4,2,Pin_2*%
%TO.N,GPIO2_5VOut*%
X17399000Y-20701000D03*
%TO.P,J4,3,Pin_3*%
%TO.N,GPIO3_12VOut*%
X16129000Y-19431000D03*
%TO.P,J4,4,Pin_4*%
%TO.N,GPIO2_12VOut*%
X17399000Y-19431000D03*
%TO.P,J4,5,Pin_5*%
%TO.N,GPIO3_5VOut*%
X16129000Y-18161000D03*
%TO.P,J4,6,Pin_6*%
%TO.N,GPIO1_In*%
X17399000Y-18161000D03*
%TO.P,J4,7,Pin_7*%
%TO.N,GPIO3_In*%
X16129000Y-16891000D03*
%TO.P,J4,8,Pin_8*%
%TO.N,GPIO1_5VOut*%
X17399000Y-16891000D03*
%TO.P,J4,9,Pin_9*%
%TO.N,GND*%
X16129000Y-15621000D03*
%TO.P,J4,10,Pin_10*%
%TO.N,GPIO1_12VOut*%
X17399000Y-15621000D03*
%TD*%
D13*
%TO.P,J2,1,Pin_1*%
%TO.N,CAN1_N*%
X76200000Y-14859000D03*
D14*
%TO.P,J2,2,Pin_2*%
%TO.N,CAN1_P*%
X74930000Y-14859000D03*
%TO.P,J2,3,Pin_3*%
%TO.N,Analog0_In*%
X76200000Y-16129000D03*
%TO.P,J2,4,Pin_4*%
%TO.N,GND*%
X74930000Y-16129000D03*
%TO.P,J2,5,Pin_5*%
X76200000Y-17399000D03*
%TO.P,J2,6,Pin_6*%
%TO.N,Analog1_In*%
X74930000Y-17399000D03*
%TO.P,J2,7,Pin_7*%
%TO.N,GND*%
X76200000Y-18669000D03*
%TO.P,J2,8,Pin_8*%
%TO.N,Analog2_In*%
X74930000Y-18669000D03*
%TO.P,J2,9,Pin_9*%
%TO.N,GND*%
X76200000Y-19939000D03*
%TO.P,J2,10,Pin_10*%
%TO.N,Analog3_In*%
X74930000Y-19939000D03*
%TD*%
D11*
%TO.P,C13,1*%
%TO.N,+BATT*%
X65222000Y-55753000D03*
D12*
%TO.P,C13,2*%
%TO.N,GND*%
X61722000Y-55753000D03*
%TD*%
D17*
%TO.N,GND*%
X68707000Y-45339000D03*
X50136531Y-25051000D03*
X68072000Y-17526000D03*
X78232000Y-46736000D03*
X50800000Y-57023000D03*
X34163000Y-15621000D03*
X55626000Y-30226000D03*
X63881000Y-40005000D03*
X25518744Y-31961280D03*
X25527000Y-54864000D03*
X76536232Y-61980268D03*
X61849000Y-53340000D03*
X18288000Y-29591000D03*
X52578000Y-20193000D03*
X30480000Y-19431000D03*
X35052000Y-59846000D03*
X67552250Y-21070250D03*
X59182000Y-31115000D03*
X16256000Y-26797000D03*
X63754000Y-35306000D03*
X29210000Y-51816000D03*
X22606000Y-58166000D03*
X61341000Y-28321000D03*
X38862000Y-57150000D03*
X24257000Y-56388000D03*
X72898000Y-49657000D03*
X72517000Y-14224000D03*
X25146000Y-28956000D03*
X25019000Y-26035000D03*
X20320000Y-49276000D03*
X31877000Y-43053000D03*
X22352000Y-48895000D03*
X28067000Y-21463000D03*
X58801000Y-56896000D03*
X40458804Y-42091194D03*
X24003000Y-47244000D03*
X57150000Y-49530000D03*
X14478000Y-24638000D03*
X76962000Y-52197000D03*
X29464000Y-24765000D03*
X54229000Y-60452000D03*
X76962000Y-28067000D03*
X67056000Y-37465000D03*
X31750000Y-22225000D03*
X33274000Y-56388000D03*
X25908000Y-17399000D03*
X52070000Y-39751000D03*
X66167000Y-50165000D03*
X75311000Y-24765000D03*
X49911000Y-16764000D03*
X59309000Y-25781000D03*
X57926747Y-40117253D03*
X46228000Y-57023000D03*
X38862000Y-25146000D03*
X69469000Y-41783000D03*
X61595000Y-39116000D03*
X51435000Y-27686000D03*
X68580000Y-32131000D03*
X49403000Y-31115000D03*
X29210000Y-32131000D03*
X32639000Y-41402000D03*
X51308000Y-17780000D03*
X28956000Y-39116000D03*
X66802000Y-58293000D03*
X30226000Y-50800000D03*
X61214000Y-47625000D03*
X25146000Y-46101000D03*
X67970400Y-54254400D03*
X46482000Y-21525000D03*
X36576000Y-43180000D03*
X71374000Y-37211000D03*
X59055000Y-54102000D03*
X73025000Y-16637000D03*
%TO.N,+3.3V*%
X57023000Y-21209000D03*
X42164000Y-20636000D03*
X39893997Y-23114000D03*
X51149551Y-31161078D03*
X40144616Y-41142777D03*
X65659000Y-46101000D03*
X32893000Y-22225000D03*
X59563000Y-36195000D03*
X60452000Y-17907000D03*
X52265153Y-23690153D03*
X45720000Y-60960000D03*
X33580000Y-42750500D03*
X66802000Y-28194000D03*
%TO.N,+BATT*%
X55932000Y-55245000D03*
X53982000Y-55245000D03*
%TO.N,+5V*%
X64389000Y-22733000D03*
X59055000Y-43688000D03*
X50165000Y-40132000D03*
X43746847Y-26199000D03*
X55361250Y-47995250D03*
X56261000Y-25781000D03*
%TO.N,Analog0_In*%
X74766000Y-27559000D03*
X72263000Y-27559000D03*
%TO.N,JCLK{slash}SWCLK*%
X41384467Y-38579766D03*
%TO.N,JTMS{slash}SWDIO*%
X40485915Y-37681213D03*
%TO.N,Reset*%
X73664653Y-29214653D03*
X28702000Y-34544000D03*
X28194000Y-37084000D03*
X74417347Y-34068000D03*
%TO.N,Analog3_In*%
X72808000Y-22355667D03*
%TO.N,+12V*%
X39624000Y-15875000D03*
X55793347Y-15438161D03*
X51562000Y-14986000D03*
%TO.N,ADC1*%
X35909186Y-33199174D03*
X47281000Y-30381413D03*
%TO.N,ADC2*%
X36615695Y-32491466D03*
X44843547Y-30351154D03*
%TO.N,ADC3*%
X32004000Y-28829000D03*
X48450500Y-25082500D03*
%TO.N,ADC0*%
X49082251Y-27058798D03*
X34417000Y-33020000D03*
%TO.N,/CAN_TX*%
X40426000Y-30771000D03*
X42924502Y-29601803D03*
%TO.N,GPIO3_In*%
X42746539Y-48370500D03*
X37677721Y-50195607D03*
%TO.N,GPIO3_5VOut*%
X41770172Y-48586632D03*
X38481000Y-49600000D03*
%TO.N,GPIO4_In*%
X35560000Y-37592000D03*
%TO.N,GPIO4_5VOut*%
X36559782Y-45450000D03*
%TO.N,GPIO4_12VOut*%
X35560000Y-45450000D03*
%TO.N,GPIO5_12VOut*%
X36703000Y-37211000D03*
%TO.N,GPIO5_5VOut*%
X37719000Y-45450000D03*
%TO.N,GPIO5_In*%
X37592000Y-38100000D03*
%TO.N,GPIO6_12VOut*%
X38711298Y-45326102D03*
%TO.N,GPIO6_5VOut*%
X39497000Y-44704000D03*
%TO.N,GPIO6_In*%
X40402885Y-44085885D03*
%TO.N,ADC1_NTC_CTRL*%
X60960000Y-41275000D03*
X37088653Y-34835000D03*
%TO.N,ADC0_NTC_CTRL*%
X60960000Y-33655000D03*
X38113168Y-34835791D03*
%TO.N,ADC1_CTRL*%
X46478089Y-28157000D03*
X39254399Y-29706601D03*
%TO.N,ADC2_NTC_CTRL*%
X35941000Y-34798000D03*
X56642000Y-53086000D03*
%TO.N,ADC2_CTRL*%
X53340000Y-39751000D03*
X59219000Y-47752000D03*
%TO.N,ADC0_CTRL*%
X45080347Y-27427347D03*
X32766000Y-37211000D03*
%TO.N,ADC3_NTC_CTRL*%
X65024000Y-26924000D03*
X39633306Y-35433000D03*
%TO.N,/SPI2_MOSI_RGBLED*%
X50267269Y-15010731D03*
X40894000Y-23114000D03*
%TO.N,/nCS_Display*%
X34634296Y-24931496D03*
%TO.N,/SPI1_SCK_Display*%
X35246918Y-15934082D03*
X38481000Y-14859000D03*
X34271466Y-23270328D03*
X36503195Y-14786195D03*
%TO.N,/D_nC_Display*%
X35500633Y-22963000D03*
%TO.N,/SPI1_MOSI_Display*%
X36015138Y-16637916D03*
X36205916Y-21712316D03*
%TO.N,/nRES_Display*%
X41402000Y-18669000D03*
%TO.N,/SPI2_SCK_RGBLED*%
X50678465Y-14099182D03*
X37852049Y-22739049D03*
%TO.N,ADC3_CTRL*%
X46179376Y-29607000D03*
X58293000Y-18542000D03*
%TD*%
D18*
%TO.N,+BATT*%
X53982000Y-55245000D02*
X55932000Y-55245000D01*
D19*
%TO.N,Analog0_In*%
X74766000Y-27559000D02*
X72263000Y-27559000D01*
%TO.N,JCLK{slash}SWCLK*%
X72734000Y-34581000D02*
X75057000Y-32258000D01*
X41384467Y-38579766D02*
X43843234Y-38579766D01*
X47429000Y-34994000D02*
X63040695Y-34994000D01*
X43843234Y-38579766D02*
X47429000Y-34994000D01*
X75057000Y-32258000D02*
X75565000Y-32258000D01*
X63453695Y-34581000D02*
X72734000Y-34581000D01*
X63040695Y-34994000D02*
X63453695Y-34581000D01*
%TO.N,JTMS{slash}SWDIO*%
X47242604Y-34544000D02*
X62854299Y-34544000D01*
X44105391Y-37681213D02*
X47242604Y-34544000D01*
X63267299Y-34131000D02*
X72422000Y-34131000D01*
X40485915Y-37681213D02*
X44105391Y-37681213D01*
X62854299Y-34544000D02*
X63267299Y-34131000D01*
X72422000Y-34131000D02*
X75565000Y-30988000D01*
%TO.N,Reset*%
X26416000Y-30224604D02*
X27919000Y-31727604D01*
X44558389Y-26924000D02*
X29083000Y-26924000D01*
X73664653Y-29214653D02*
X69092653Y-29214653D01*
X53665389Y-17817000D02*
X44558389Y-26924000D01*
X74417347Y-34068000D02*
X74417347Y-34920347D01*
X74417347Y-34920347D02*
X75565000Y-36068000D01*
X27919000Y-31727604D02*
X27919000Y-33761000D01*
X62775000Y-22897000D02*
X62775000Y-22008000D01*
X62775000Y-22008000D02*
X59018000Y-18251000D01*
X26416000Y-29591000D02*
X26416000Y-30224604D01*
X59018000Y-18251000D02*
X59018000Y-18241695D01*
X29083000Y-26924000D02*
X26416000Y-29591000D01*
X28194000Y-35052000D02*
X28194000Y-37084000D01*
X69092653Y-29214653D02*
X62775000Y-22897000D01*
X58593305Y-17817000D02*
X53665389Y-17817000D01*
X27919000Y-33761000D02*
X28702000Y-34544000D01*
X59018000Y-18241695D02*
X58593305Y-17817000D01*
X28702000Y-34544000D02*
X28194000Y-35052000D01*
%TO.N,Analog3_In*%
X74418333Y-22355667D02*
X72808000Y-22355667D01*
X75057000Y-21717000D02*
X74418333Y-22355667D01*
X74940000Y-19929000D02*
X75057000Y-20046000D01*
X75057000Y-20046000D02*
X75057000Y-21717000D01*
D18*
%TO.N,+12V*%
X39624000Y-15875000D02*
X36389918Y-15875000D01*
X25469000Y-14411000D02*
X24257000Y-13199000D01*
X34925918Y-14411000D02*
X25469000Y-14411000D01*
X55793347Y-15438161D02*
X55214186Y-14859000D01*
X36389918Y-15875000D02*
X34925918Y-14411000D01*
X51689000Y-14859000D02*
X51562000Y-14986000D01*
X55214186Y-14859000D02*
X51689000Y-14859000D01*
D19*
%TO.N,ADC1*%
X35926478Y-33216466D02*
X35909186Y-33199174D01*
X44445947Y-33216466D02*
X35926478Y-33216466D01*
X47281000Y-30381413D02*
X44445947Y-33216466D01*
%TO.N,ADC2*%
X36633727Y-32509498D02*
X36615695Y-32491466D01*
X40894000Y-31496000D02*
X38636748Y-31496000D01*
X38636748Y-31496000D02*
X37623250Y-32509498D01*
X37623250Y-32509498D02*
X36633727Y-32509498D01*
X44843547Y-30351154D02*
X42038846Y-30351154D01*
X42038846Y-30351154D02*
X40894000Y-31496000D01*
%TO.N,ADC3*%
X32955653Y-27877347D02*
X41282665Y-27877347D01*
X41282665Y-27877347D02*
X41599318Y-28194000D01*
X41599318Y-28194000D02*
X45339000Y-28194000D01*
X32004000Y-28829000D02*
X32955653Y-27877347D01*
X45339000Y-28194000D02*
X48450500Y-25082500D01*
%TO.N,ADC0*%
X44872652Y-33924174D02*
X35321174Y-33924174D01*
X49149000Y-29647826D02*
X44872652Y-33924174D01*
X35321174Y-33924174D02*
X34417000Y-33020000D01*
X49149000Y-27125547D02*
X49149000Y-29647826D01*
X49082251Y-27058798D02*
X49149000Y-27125547D01*
%TO.N,/CAN_TX*%
X41595197Y-29601803D02*
X42924502Y-29601803D01*
X40426000Y-30771000D02*
X41595197Y-29601803D01*
%TO.N,GPIO3_In*%
X42237671Y-47861632D02*
X42746539Y-48370500D01*
X37677721Y-50195607D02*
X37756000Y-50117328D01*
X39194063Y-47861632D02*
X42237671Y-47861632D01*
X37756000Y-49299695D02*
X39194063Y-47861632D01*
X37756000Y-50117328D02*
X37756000Y-49299695D01*
%TO.N,GPIO3_5VOut*%
X41770172Y-48586632D02*
X39494368Y-48586632D01*
X39494368Y-48586632D02*
X38481000Y-49600000D01*
%TO.N,GPIO4_In*%
X13832000Y-53349208D02*
X13832000Y-56504000D01*
X32602000Y-43353305D02*
X32130305Y-43825000D01*
X22800604Y-50731000D02*
X21082000Y-50731000D01*
X16450208Y-50731000D02*
X13832000Y-53349208D01*
X35560000Y-39745195D02*
X32602000Y-42703195D01*
X29706604Y-43825000D02*
X28637802Y-44893802D01*
X20828000Y-50731000D02*
X16450208Y-50731000D01*
X21082000Y-50731000D02*
X20828000Y-50731000D01*
X35560000Y-37592000D02*
X35560000Y-39745195D01*
X28637802Y-44893802D02*
X22800604Y-50731000D01*
X32602000Y-42703195D02*
X32602000Y-43353305D01*
X13832000Y-56504000D02*
X15621000Y-58293000D01*
X32130305Y-43825000D02*
X29706604Y-43825000D01*
%TO.N,GPIO4_5VOut*%
X15241000Y-55753000D02*
X15621000Y-55753000D01*
X23232624Y-51689000D02*
X16765000Y-51689000D01*
X16765000Y-51689000D02*
X14796000Y-53658000D01*
X30196624Y-44725000D02*
X23232624Y-51689000D01*
X14796000Y-55308000D02*
X15241000Y-55753000D01*
X36559782Y-45424477D02*
X35860305Y-44725000D01*
X36559782Y-45450000D02*
X36559782Y-45424477D01*
X14796000Y-53658000D02*
X14796000Y-55308000D01*
X35860305Y-44725000D02*
X30196624Y-44725000D01*
%TO.N,GPIO4_12VOut*%
X35560000Y-45450000D02*
X30108020Y-45450000D01*
X30108020Y-45450000D02*
X21900020Y-53658000D01*
X15621000Y-53924200D02*
X15621000Y-54483000D01*
X21900020Y-53658000D02*
X15887200Y-53658000D01*
X15887200Y-53658000D02*
X15621000Y-53924200D01*
%TO.N,GPIO5_12VOut*%
X14282000Y-53535604D02*
X14282000Y-55684000D01*
X14282000Y-55684000D02*
X15621000Y-57023000D01*
X22987000Y-51181000D02*
X16636604Y-51181000D01*
X36703000Y-37211000D02*
X36703000Y-40652805D01*
X16636604Y-51181000D02*
X14282000Y-53535604D01*
X33080805Y-44275000D02*
X30010228Y-44275000D01*
X28511500Y-45656500D02*
X22987000Y-51181000D01*
X29893000Y-44275000D02*
X28511500Y-45656500D01*
X30010228Y-44275000D02*
X29893000Y-44275000D01*
X36703000Y-40652805D02*
X33080805Y-44275000D01*
%TO.N,GPIO5_5VOut*%
X36994000Y-46175000D02*
X30019416Y-46175000D01*
X17145000Y-54229000D02*
X16891000Y-54483000D01*
X21965416Y-54229000D02*
X17145000Y-54229000D01*
X30019416Y-46175000D02*
X21965416Y-54229000D01*
X37719000Y-45450000D02*
X36994000Y-46175000D01*
%TO.N,GPIO5_In*%
X41127885Y-43785580D02*
X37592000Y-40249695D01*
X37592000Y-40249695D02*
X37592000Y-38100000D01*
X30734000Y-48006000D02*
X38329497Y-48006000D01*
X38329497Y-48006000D02*
X41127885Y-45207612D01*
X41127885Y-45207612D02*
X41127885Y-43785580D01*
X16891000Y-59563000D02*
X19177000Y-59563000D01*
X19177000Y-59563000D02*
X30734000Y-48006000D01*
%TO.N,GPIO6_12VOut*%
X38711298Y-45483007D02*
X38711298Y-45326102D01*
X30205812Y-46625000D02*
X37569305Y-46625000D01*
X27556906Y-49273906D02*
X30205812Y-46625000D01*
X21077812Y-55753000D02*
X16891000Y-55753000D01*
X37569305Y-46625000D02*
X38711298Y-45483007D01*
X27556906Y-49273906D02*
X21077812Y-55753000D01*
%TO.N,GPIO6_5VOut*%
X30361208Y-47106000D02*
X26732104Y-50735104D01*
X37956705Y-47106000D02*
X30361208Y-47106000D01*
X39497000Y-45565705D02*
X37956705Y-47106000D01*
X39497000Y-44704000D02*
X39497000Y-45565705D01*
X20444208Y-57023000D02*
X16891000Y-57023000D01*
X26732104Y-50735104D02*
X20444208Y-57023000D01*
%TO.N,GPIO6_In*%
X30547604Y-47556000D02*
X19810604Y-58293000D01*
X38143101Y-47556000D02*
X30547604Y-47556000D01*
X40402885Y-45296216D02*
X38143101Y-47556000D01*
X19810604Y-58293000D02*
X16891000Y-58293000D01*
X40402885Y-44085885D02*
X40402885Y-45296216D01*
%TO.N,ADC1_NTC_CTRL*%
X37088653Y-35309257D02*
X41149396Y-39370000D01*
X41149396Y-39370000D02*
X43689396Y-39370000D01*
X43689396Y-39370000D02*
X46483396Y-36576000D01*
X46483396Y-36576000D02*
X56261000Y-36576000D01*
X56261000Y-36576000D02*
X60960000Y-41275000D01*
X37088653Y-34835000D02*
X37088653Y-35309257D01*
%TO.N,ADC0_NTC_CTRL*%
X40132000Y-36957000D02*
X38113168Y-34938168D01*
X38113168Y-34938168D02*
X38113168Y-34835791D01*
X44193208Y-36957000D02*
X40132000Y-36957000D01*
X60960000Y-33655000D02*
X47495208Y-33655000D01*
X47495208Y-33655000D02*
X44193208Y-36957000D01*
%TO.N,ADC1_CTRL*%
X46478089Y-28157000D02*
X45991089Y-28644000D01*
X41785714Y-28644000D02*
X40723113Y-29706601D01*
X40723113Y-29706601D02*
X39254399Y-29706601D01*
X45991089Y-28644000D02*
X41785714Y-28644000D01*
%TO.N,ADC2_NTC_CTRL*%
X59944000Y-49784000D02*
X56642000Y-53086000D01*
X59944000Y-40895396D02*
X59944000Y-49784000D01*
X43875792Y-39820000D02*
X46669792Y-37026000D01*
X40963000Y-39820000D02*
X43875792Y-39820000D01*
X35941000Y-34798000D02*
X40963000Y-39820000D01*
X56074604Y-37026000D02*
X59944000Y-40895396D01*
X46669792Y-37026000D02*
X56074604Y-37026000D01*
%TO.N,ADC2_CTRL*%
X53340000Y-39751000D02*
X59219000Y-45630000D01*
X59219000Y-45630000D02*
X59219000Y-47752000D01*
%TO.N,ADC0_CTRL*%
X33692000Y-36285000D02*
X33692000Y-32719695D01*
X33692000Y-32719695D02*
X31279000Y-30306695D01*
X31279000Y-30306695D02*
X31279000Y-28528695D01*
X32766000Y-37211000D02*
X33692000Y-36285000D01*
X31279000Y-28528695D02*
X32380348Y-27427347D01*
X32380348Y-27427347D02*
X45080347Y-27427347D01*
%TO.N,ADC3_NTC_CTRL*%
X58743000Y-33205000D02*
X65024000Y-26924000D01*
X46298396Y-33205000D02*
X58743000Y-33205000D01*
X40692132Y-34374174D02*
X45129222Y-34374174D01*
X39633306Y-35433000D02*
X40692132Y-34374174D01*
X45129222Y-34374174D02*
X46298396Y-33205000D01*
%TO.N,/SPI2_MOSI_RGBLED*%
X50267269Y-15010731D02*
X48997269Y-15010731D01*
X48997269Y-15010731D02*
X40894000Y-23114000D01*
%TO.N,/nCS_Display*%
X41996913Y-19431000D02*
X42885913Y-18542000D01*
X49285000Y-13199000D02*
X49657000Y-13199000D01*
X40134792Y-19431000D02*
X41996913Y-19431000D01*
X43942000Y-18542000D02*
X49285000Y-13199000D01*
X42885913Y-18542000D02*
X43942000Y-18542000D01*
X34634296Y-24931496D02*
X40134792Y-19431000D01*
%TO.N,/SPI1_SCK_Display*%
X36503195Y-14786195D02*
X36576000Y-14859000D01*
X34271466Y-16909534D02*
X35246918Y-15934082D01*
X36576000Y-14859000D02*
X38481000Y-14859000D01*
X34271466Y-23270328D02*
X34271466Y-16909534D01*
%TO.N,/D_nC_Display*%
X35500633Y-22963000D02*
X35966396Y-22963000D01*
X35966396Y-22963000D02*
X44577000Y-14352396D01*
X44577000Y-14352396D02*
X44577000Y-13199000D01*
%TO.N,/SPI1_MOSI_Display*%
X34711466Y-20217866D02*
X34711466Y-17941588D01*
X36205916Y-21712316D02*
X34711466Y-20217866D01*
X34711466Y-17941588D02*
X36015138Y-16637916D01*
%TO.N,/nRES_Display*%
X44104604Y-17743000D02*
X47117000Y-14730604D01*
X41402000Y-18669000D02*
X42328000Y-17743000D01*
X42328000Y-17743000D02*
X44104604Y-17743000D01*
X47117000Y-14730604D02*
X47117000Y-13199000D01*
%TO.N,/SPI2_SCK_RGBLED*%
X50678465Y-14099182D02*
X50491647Y-14286000D01*
X38137000Y-22454098D02*
X37852049Y-22739049D01*
X48960000Y-14286000D02*
X44196000Y-19050000D01*
X42183309Y-19881000D02*
X40444000Y-19881000D01*
X50491647Y-14286000D02*
X48960000Y-14286000D01*
X43014309Y-19050000D02*
X42183309Y-19881000D01*
X40444000Y-19881000D02*
X38137000Y-22188000D01*
X38137000Y-22188000D02*
X38137000Y-22454098D01*
X44196000Y-19050000D02*
X43014309Y-19050000D01*
%TO.N,ADC3_CTRL*%
X50604000Y-24326000D02*
X49715000Y-24326000D01*
X47202347Y-27355958D02*
X47202347Y-28584029D01*
X47202347Y-28584029D02*
X46179376Y-29607000D01*
X49175500Y-24865500D02*
X49175500Y-25382805D01*
X49715000Y-24326000D02*
X49175500Y-24865500D01*
X58293000Y-18542000D02*
X56388000Y-18542000D01*
X56388000Y-18542000D02*
X50604000Y-24326000D01*
X49175500Y-25382805D02*
X47202347Y-27355958D01*
%TD*%
%TA.AperFunction,Conductor*%
%TO.N,GND*%
G36*
X37426284Y-40968569D02*
G01*
X39748725Y-43291010D01*
X39782210Y-43352333D01*
X39777226Y-43422025D01*
X39753194Y-43461663D01*
X39670351Y-43553670D01*
X39575708Y-43717594D01*
X39575706Y-43717601D01*
X39575637Y-43717812D01*
X39575563Y-43717920D01*
X39573065Y-43723533D01*
X39572038Y-43723076D01*
X39536205Y-43775488D01*
X39471849Y-43802691D01*
X39457705Y-43803500D01*
X39402354Y-43803500D01*
X39369897Y-43810398D01*
X39217197Y-43842855D01*
X39217192Y-43842857D01*
X39044270Y-43919848D01*
X39044265Y-43919851D01*
X38891129Y-44031111D01*
X38764466Y-44171785D01*
X38669821Y-44335715D01*
X38669817Y-44335723D01*
X38664514Y-44352046D01*
X38625075Y-44409721D01*
X38572365Y-44435015D01*
X38431495Y-44464957D01*
X38431490Y-44464959D01*
X38258569Y-44541950D01*
X38177756Y-44600664D01*
X38111949Y-44624143D01*
X38054436Y-44613625D01*
X37998804Y-44588856D01*
X37998802Y-44588855D01*
X37853001Y-44557865D01*
X37813646Y-44549500D01*
X37624354Y-44549500D01*
X37591897Y-44556398D01*
X37439197Y-44588855D01*
X37439192Y-44588857D01*
X37266270Y-44665848D01*
X37266265Y-44665851D01*
X37212276Y-44705077D01*
X37146470Y-44728557D01*
X37078416Y-44712731D01*
X37066506Y-44705077D01*
X37012516Y-44665851D01*
X37012511Y-44665848D01*
X36839589Y-44588857D01*
X36839584Y-44588855D01*
X36693783Y-44557865D01*
X36654428Y-44549500D01*
X36654427Y-44549500D01*
X36620758Y-44549500D01*
X36553719Y-44529815D01*
X36533077Y-44513181D01*
X36361108Y-44341212D01*
X36351285Y-44328950D01*
X36351064Y-44329134D01*
X36346091Y-44323122D01*
X36297081Y-44277099D01*
X36294282Y-44274386D01*
X36274782Y-44254885D01*
X36274776Y-44254880D01*
X36271591Y-44252409D01*
X36262739Y-44244848D01*
X36230887Y-44214938D01*
X36230885Y-44214936D01*
X36230882Y-44214935D01*
X36213334Y-44205288D01*
X36197068Y-44194604D01*
X36181237Y-44182324D01*
X36141154Y-44164978D01*
X36130668Y-44159841D01*
X36092399Y-44138803D01*
X36092397Y-44138802D01*
X36072998Y-44133822D01*
X36054586Y-44127518D01*
X36036203Y-44119562D01*
X36036197Y-44119560D01*
X35993065Y-44112729D01*
X35981627Y-44110361D01*
X35939325Y-44099500D01*
X35939324Y-44099500D01*
X35919289Y-44099500D01*
X35899891Y-44097973D01*
X35892467Y-44096797D01*
X35880110Y-44094840D01*
X35880109Y-44094840D01*
X35836630Y-44098950D01*
X35824961Y-44099500D01*
X34440257Y-44099500D01*
X34373218Y-44079815D01*
X34327463Y-44027011D01*
X34317519Y-43957853D01*
X34346544Y-43894297D01*
X34352576Y-43887819D01*
X35713098Y-42527297D01*
X37086788Y-41153606D01*
X37099042Y-41143791D01*
X37098859Y-41143569D01*
X37104868Y-41138596D01*
X37104877Y-41138591D01*
X37150949Y-41089527D01*
X37153566Y-41086828D01*
X37173120Y-41067276D01*
X37175576Y-41064108D01*
X37183156Y-41055232D01*
X37213062Y-41023387D01*
X37222713Y-41005829D01*
X37233396Y-40989566D01*
X37240629Y-40980242D01*
X37297274Y-40939340D01*
X37367041Y-40935555D01*
X37426284Y-40968569D01*
G37*
%TD.AperFunction*%
%TA.AperFunction,Conductor*%
G36*
X66067851Y-27083815D02*
G01*
X66100821Y-27107411D01*
X66277878Y-27284468D01*
X66311363Y-27345791D01*
X66306379Y-27415483D01*
X66264507Y-27471416D01*
X66263083Y-27472467D01*
X66196127Y-27521113D01*
X66069466Y-27661785D01*
X65974821Y-27825715D01*
X65974818Y-27825722D01*
X65941819Y-27927284D01*
X65916326Y-28005744D01*
X65896540Y-28194000D01*
X65916326Y-28382256D01*
X65916327Y-28382259D01*
X65974818Y-28562277D01*
X65974821Y-28562284D01*
X66069467Y-28726216D01*
X66176833Y-28845458D01*
X66196129Y-28866888D01*
X66349265Y-28978148D01*
X66349270Y-28978151D01*
X66522192Y-29055142D01*
X66522197Y-29055144D01*
X66707354Y-29094500D01*
X66707355Y-29094500D01*
X66896644Y-29094500D01*
X66896646Y-29094500D01*
X67081803Y-29055144D01*
X67254730Y-28978151D01*
X67407871Y-28866888D01*
X67534533Y-28726216D01*
X67534536Y-28726210D01*
X67534794Y-28725924D01*
X67594280Y-28689276D01*
X67664137Y-28690605D01*
X67714625Y-28721215D01*
X68591847Y-29598437D01*
X68601672Y-29610701D01*
X68601893Y-29610519D01*
X68606863Y-29616527D01*
X68655892Y-29662568D01*
X68658689Y-29665279D01*
X68678183Y-29684773D01*
X68681348Y-29687228D01*
X68690224Y-29694809D01*
X68722071Y-29724715D01*
X68728898Y-29728468D01*
X68739626Y-29734366D01*
X68755884Y-29745045D01*
X68771717Y-29757327D01*
X68799047Y-29769153D01*
X68811808Y-29774675D01*
X68822288Y-29779808D01*
X68860561Y-29800850D01*
X68879965Y-29805832D01*
X68898363Y-29812131D01*
X68916758Y-29820091D01*
X68959907Y-29826924D01*
X68971333Y-29829291D01*
X69013634Y-29840153D01*
X69033669Y-29840153D01*
X69053066Y-29841679D01*
X69072849Y-29844813D01*
X69116328Y-29840703D01*
X69127997Y-29840153D01*
X72960905Y-29840153D01*
X73027944Y-29859838D01*
X73053053Y-29881179D01*
X73058779Y-29887538D01*
X73058783Y-29887542D01*
X73211918Y-29998801D01*
X73211923Y-29998804D01*
X73384845Y-30075795D01*
X73384850Y-30075797D01*
X73570007Y-30115153D01*
X73570008Y-30115153D01*
X73759297Y-30115153D01*
X73759299Y-30115153D01*
X73944456Y-30075797D01*
X74117383Y-29998804D01*
X74270524Y-29887541D01*
X74358191Y-29790176D01*
X74417675Y-29753529D01*
X74487532Y-29754859D01*
X74545581Y-29793746D01*
X74573391Y-29857842D01*
X74573742Y-29860995D01*
X74578975Y-29914129D01*
X74578976Y-29914132D01*
X74630259Y-30083190D01*
X74636188Y-30102733D01*
X74729086Y-30276532D01*
X74732473Y-30281601D01*
X74730836Y-30282694D01*
X74754596Y-30338663D01*
X74742795Y-30407529D01*
X74732109Y-30424156D01*
X74732473Y-30424399D01*
X74729086Y-30429467D01*
X74636188Y-30603266D01*
X74578975Y-30791870D01*
X74559659Y-30988000D01*
X74559659Y-30988001D01*
X74564736Y-31039560D01*
X74551716Y-31108206D01*
X74529014Y-31139393D01*
X72199228Y-33469181D01*
X72137905Y-33502666D01*
X72111547Y-33505500D01*
X63350036Y-33505500D01*
X63334419Y-33503776D01*
X63334392Y-33504062D01*
X63326630Y-33503327D01*
X63259443Y-33505439D01*
X63255549Y-33505500D01*
X63227949Y-33505500D01*
X63224261Y-33505965D01*
X63223948Y-33506005D01*
X63212330Y-33506918D01*
X63168672Y-33508290D01*
X63168671Y-33508290D01*
X63149428Y-33513881D01*
X63130378Y-33517825D01*
X63110510Y-33520334D01*
X63110509Y-33520335D01*
X63069899Y-33536413D01*
X63058852Y-33540195D01*
X63016909Y-33552381D01*
X63016908Y-33552382D01*
X62999666Y-33562579D01*
X62982198Y-33571137D01*
X62963568Y-33578513D01*
X62963565Y-33578515D01*
X62928238Y-33604181D01*
X62918479Y-33610592D01*
X62880878Y-33632830D01*
X62866707Y-33647000D01*
X62851922Y-33659628D01*
X62835711Y-33671407D01*
X62807870Y-33705059D01*
X62800010Y-33713696D01*
X62631525Y-33882182D01*
X62570205Y-33915666D01*
X62543846Y-33918500D01*
X61975481Y-33918500D01*
X61908442Y-33898815D01*
X61862687Y-33846011D01*
X61852160Y-33781541D01*
X61865460Y-33655000D01*
X61845674Y-33466744D01*
X61787179Y-33286716D01*
X61692533Y-33122784D01*
X61565871Y-32982112D01*
X61565870Y-32982111D01*
X61412734Y-32870851D01*
X61412729Y-32870848D01*
X61239807Y-32793857D01*
X61239802Y-32793855D01*
X61094001Y-32762865D01*
X61054646Y-32754500D01*
X60865354Y-32754500D01*
X60832897Y-32761398D01*
X60680197Y-32793855D01*
X60680192Y-32793857D01*
X60507270Y-32870848D01*
X60507265Y-32870851D01*
X60354130Y-32982110D01*
X60354126Y-32982114D01*
X60348400Y-32988474D01*
X60288913Y-33025121D01*
X60256252Y-33029500D01*
X60102452Y-33029500D01*
X60035413Y-33009815D01*
X59989658Y-32957011D01*
X59979714Y-32887853D01*
X60008739Y-32824297D01*
X60014771Y-32817819D01*
X62408038Y-30424553D01*
X64971772Y-27860819D01*
X65033095Y-27827334D01*
X65059453Y-27824500D01*
X65118644Y-27824500D01*
X65118646Y-27824500D01*
X65303803Y-27785144D01*
X65476730Y-27708151D01*
X65629871Y-27596888D01*
X65756533Y-27456216D01*
X65851179Y-27292284D01*
X65895209Y-27156773D01*
X65934646Y-27099099D01*
X65999005Y-27071900D01*
X66067851Y-27083815D01*
G37*
%TD.AperFunction*%
%TA.AperFunction,Conductor*%
G36*
X57656291Y-19187185D02*
G01*
X57681400Y-19208526D01*
X57687126Y-19214885D01*
X57687130Y-19214889D01*
X57840265Y-19326148D01*
X57840270Y-19326151D01*
X58013192Y-19403142D01*
X58013197Y-19403144D01*
X58198354Y-19442500D01*
X58198355Y-19442500D01*
X58387644Y-19442500D01*
X58387646Y-19442500D01*
X58572803Y-19403144D01*
X58745730Y-19326151D01*
X58898871Y-19214888D01*
X58905449Y-19207581D01*
X58964931Y-19170933D01*
X59034788Y-19172260D01*
X59085281Y-19202871D01*
X62113181Y-22230771D01*
X62146666Y-22292094D01*
X62149500Y-22318452D01*
X62149500Y-22814255D01*
X62147775Y-22829872D01*
X62148061Y-22829899D01*
X62147326Y-22837665D01*
X62149439Y-22904872D01*
X62149500Y-22908767D01*
X62149500Y-22936357D01*
X62150003Y-22940335D01*
X62150918Y-22951967D01*
X62152290Y-22995624D01*
X62152291Y-22995627D01*
X62157880Y-23014867D01*
X62161824Y-23033911D01*
X62164336Y-23053792D01*
X62180414Y-23094403D01*
X62184197Y-23105452D01*
X62192592Y-23134347D01*
X62196382Y-23147390D01*
X62202619Y-23157937D01*
X62206580Y-23164634D01*
X62215138Y-23182103D01*
X62222514Y-23200732D01*
X62248181Y-23236060D01*
X62254593Y-23245821D01*
X62276828Y-23283417D01*
X62276833Y-23283424D01*
X62290990Y-23297580D01*
X62303628Y-23312376D01*
X62315405Y-23328586D01*
X62315406Y-23328587D01*
X62349057Y-23356425D01*
X62357698Y-23364288D01*
X64840073Y-25846663D01*
X64873558Y-25907986D01*
X64868574Y-25977678D01*
X64826702Y-26033611D01*
X64778173Y-26055634D01*
X64744197Y-26062855D01*
X64744192Y-26062857D01*
X64571270Y-26139848D01*
X64571265Y-26139851D01*
X64418129Y-26251111D01*
X64291466Y-26391785D01*
X64196821Y-26555715D01*
X64196818Y-26555722D01*
X64150636Y-26697857D01*
X64138326Y-26735744D01*
X64120679Y-26903649D01*
X64094094Y-26968263D01*
X64085039Y-26978368D01*
X58520228Y-32543181D01*
X58458905Y-32576666D01*
X58432547Y-32579500D01*
X47401278Y-32579500D01*
X47334239Y-32559815D01*
X47288484Y-32507011D01*
X47278540Y-32437853D01*
X47307565Y-32374297D01*
X47313597Y-32367819D01*
X48421103Y-31260313D01*
X48520338Y-31161078D01*
X50244091Y-31161078D01*
X50263877Y-31349334D01*
X50263878Y-31349337D01*
X50322369Y-31529355D01*
X50322372Y-31529362D01*
X50417018Y-31693294D01*
X50529819Y-31818572D01*
X50543680Y-31833966D01*
X50696816Y-31945226D01*
X50696821Y-31945229D01*
X50869743Y-32022220D01*
X50869748Y-32022222D01*
X51054905Y-32061578D01*
X51054906Y-32061578D01*
X51244195Y-32061578D01*
X51244197Y-32061578D01*
X51429354Y-32022222D01*
X51602281Y-31945229D01*
X51755422Y-31833966D01*
X51882084Y-31693294D01*
X51976730Y-31529362D01*
X52035225Y-31349334D01*
X52055011Y-31161078D01*
X52035225Y-30972822D01*
X51976730Y-30792794D01*
X51882084Y-30628862D01*
X51755422Y-30488190D01*
X51749918Y-30484191D01*
X51602285Y-30376929D01*
X51602280Y-30376926D01*
X51429358Y-30299935D01*
X51429353Y-30299933D01*
X51269066Y-30265864D01*
X51244197Y-30260578D01*
X51054905Y-30260578D01*
X51030036Y-30265864D01*
X50869748Y-30299933D01*
X50869743Y-30299935D01*
X50696821Y-30376926D01*
X50696816Y-30376929D01*
X50543680Y-30488189D01*
X50417017Y-30628863D01*
X50322372Y-30792793D01*
X50322369Y-30792800D01*
X50264585Y-30970642D01*
X50263877Y-30972822D01*
X50244091Y-31161078D01*
X48520338Y-31161078D01*
X49532788Y-30148627D01*
X49545042Y-30138812D01*
X49544859Y-30138590D01*
X49550868Y-30133617D01*
X49550877Y-30133612D01*
X49596949Y-30084548D01*
X49599566Y-30081849D01*
X49619120Y-30062297D01*
X49621576Y-30059129D01*
X49629156Y-30050253D01*
X49659062Y-30018408D01*
X49668713Y-30000850D01*
X49679396Y-29984587D01*
X49691673Y-29968762D01*
X49709021Y-29928670D01*
X49714151Y-29918197D01*
X49735197Y-29879918D01*
X49740180Y-29860506D01*
X49746481Y-29842106D01*
X49754437Y-29823722D01*
X49761270Y-29780574D01*
X49763633Y-29769164D01*
X49774500Y-29726845D01*
X49774500Y-29706809D01*
X49776027Y-29687408D01*
X49779160Y-29667630D01*
X49775050Y-29624150D01*
X49774500Y-29612481D01*
X49774500Y-27683353D01*
X49794185Y-27616314D01*
X49806353Y-27600378D01*
X49814781Y-27591018D01*
X49814782Y-27591015D01*
X49814784Y-27591014D01*
X49909430Y-27427082D01*
X49967925Y-27247054D01*
X49987711Y-27058798D01*
X49967925Y-26870542D01*
X49909430Y-26690514D01*
X49814784Y-26526582D01*
X49688122Y-26385910D01*
X49668308Y-26371514D01*
X49534985Y-26274649D01*
X49534983Y-26274648D01*
X49446047Y-26235050D01*
X49392811Y-26189799D01*
X49372490Y-26122950D01*
X49391536Y-26055726D01*
X49408799Y-26034094D01*
X49559286Y-25883607D01*
X49571548Y-25873785D01*
X49571365Y-25873564D01*
X49577368Y-25868596D01*
X49577377Y-25868591D01*
X49623434Y-25819544D01*
X49626082Y-25816811D01*
X49645620Y-25797275D01*
X49648070Y-25794115D01*
X49655654Y-25785234D01*
X49659630Y-25781000D01*
X55355540Y-25781000D01*
X55375326Y-25969256D01*
X55375327Y-25969259D01*
X55433818Y-26149277D01*
X55433821Y-26149284D01*
X55528467Y-26313216D01*
X55642620Y-26439995D01*
X55655129Y-26453888D01*
X55808265Y-26565148D01*
X55808270Y-26565151D01*
X55981192Y-26642142D01*
X55981197Y-26642144D01*
X56166354Y-26681500D01*
X56166355Y-26681500D01*
X56355644Y-26681500D01*
X56355646Y-26681500D01*
X56540803Y-26642144D01*
X56713730Y-26565151D01*
X56866871Y-26453888D01*
X56993533Y-26313216D01*
X57088179Y-26149284D01*
X57146674Y-25969256D01*
X57166460Y-25781000D01*
X57146674Y-25592744D01*
X57088179Y-25412716D01*
X56993533Y-25248784D01*
X56866871Y-25108112D01*
X56839561Y-25088270D01*
X56713734Y-24996851D01*
X56713729Y-24996848D01*
X56540807Y-24919857D01*
X56540802Y-24919855D01*
X56380872Y-24885862D01*
X56355646Y-24880500D01*
X56166354Y-24880500D01*
X56141128Y-24885862D01*
X55981197Y-24919855D01*
X55981192Y-24919857D01*
X55808270Y-24996848D01*
X55808265Y-24996851D01*
X55655129Y-25108111D01*
X55528466Y-25248785D01*
X55433821Y-25412715D01*
X55433818Y-25412722D01*
X55380416Y-25577079D01*
X55375326Y-25592744D01*
X55355540Y-25781000D01*
X49659630Y-25781000D01*
X49685562Y-25753387D01*
X49695214Y-25735828D01*
X49705889Y-25719577D01*
X49718174Y-25703741D01*
X49735530Y-25663630D01*
X49740661Y-25653159D01*
X49761694Y-25614903D01*
X49761694Y-25614902D01*
X49761697Y-25614897D01*
X49766680Y-25595485D01*
X49772977Y-25577096D01*
X49780938Y-25558700D01*
X49787770Y-25515553D01*
X49790139Y-25504121D01*
X49800515Y-25463712D01*
X49801000Y-25461824D01*
X49801000Y-25441788D01*
X49802527Y-25422387D01*
X49805660Y-25402609D01*
X49801550Y-25359129D01*
X49801000Y-25347460D01*
X49801000Y-25175952D01*
X49820685Y-25108913D01*
X49837313Y-25088276D01*
X49937773Y-24987817D01*
X49999096Y-24954334D01*
X50025453Y-24951500D01*
X50521257Y-24951500D01*
X50536877Y-24953224D01*
X50536904Y-24952939D01*
X50544660Y-24953671D01*
X50544667Y-24953673D01*
X50611873Y-24951561D01*
X50615768Y-24951500D01*
X50643346Y-24951500D01*
X50643350Y-24951500D01*
X50647324Y-24950997D01*
X50658963Y-24950080D01*
X50702627Y-24948709D01*
X50721869Y-24943117D01*
X50740912Y-24939174D01*
X50760792Y-24936664D01*
X50801401Y-24920585D01*
X50812444Y-24916803D01*
X50854390Y-24904618D01*
X50871629Y-24894422D01*
X50889103Y-24885862D01*
X50907727Y-24878488D01*
X50907727Y-24878487D01*
X50907732Y-24878486D01*
X50943083Y-24852800D01*
X50952814Y-24846408D01*
X50990420Y-24824170D01*
X51004589Y-24809999D01*
X51019379Y-24797368D01*
X51035587Y-24785594D01*
X51063438Y-24751926D01*
X51071279Y-24743309D01*
X51468463Y-24346125D01*
X51529784Y-24312642D01*
X51599476Y-24317626D01*
X51648290Y-24350834D01*
X51659280Y-24363039D01*
X51659288Y-24363046D01*
X51812418Y-24474301D01*
X51812423Y-24474304D01*
X51985345Y-24551295D01*
X51985350Y-24551297D01*
X52170507Y-24590653D01*
X52170508Y-24590653D01*
X52359797Y-24590653D01*
X52359799Y-24590653D01*
X52544956Y-24551297D01*
X52717883Y-24474304D01*
X52871024Y-24363041D01*
X52997686Y-24222369D01*
X53092332Y-24058437D01*
X53150827Y-23878409D01*
X53170613Y-23690153D01*
X53150827Y-23501897D01*
X53094515Y-23328587D01*
X53092334Y-23321875D01*
X53092333Y-23321874D01*
X53092332Y-23321869D01*
X52997686Y-23157937D01*
X52933043Y-23086144D01*
X52914843Y-23065930D01*
X52884613Y-23002938D01*
X52893239Y-22933603D01*
X52919309Y-22895280D01*
X54605590Y-21209000D01*
X56117540Y-21209000D01*
X56137326Y-21397256D01*
X56137327Y-21397259D01*
X56195818Y-21577277D01*
X56195821Y-21577284D01*
X56290467Y-21741216D01*
X56407401Y-21871084D01*
X56417129Y-21881888D01*
X56570265Y-21993148D01*
X56570270Y-21993151D01*
X56743192Y-22070142D01*
X56743197Y-22070144D01*
X56928354Y-22109500D01*
X56928355Y-22109500D01*
X57117644Y-22109500D01*
X57117646Y-22109500D01*
X57302803Y-22070144D01*
X57475730Y-21993151D01*
X57628871Y-21881888D01*
X57755533Y-21741216D01*
X57850179Y-21577284D01*
X57908674Y-21397256D01*
X57928460Y-21209000D01*
X57908674Y-21020744D01*
X57850179Y-20840716D01*
X57755533Y-20676784D01*
X57628871Y-20536112D01*
X57615208Y-20526185D01*
X57475734Y-20424851D01*
X57475729Y-20424848D01*
X57302807Y-20347857D01*
X57302802Y-20347855D01*
X57154197Y-20316269D01*
X57117646Y-20308500D01*
X56928354Y-20308500D01*
X56895897Y-20315398D01*
X56743197Y-20347855D01*
X56743192Y-20347857D01*
X56570270Y-20424848D01*
X56570265Y-20424851D01*
X56417129Y-20536111D01*
X56290466Y-20676785D01*
X56195821Y-20840715D01*
X56195818Y-20840722D01*
X56142676Y-21004277D01*
X56137326Y-21020744D01*
X56117540Y-21209000D01*
X54605590Y-21209000D01*
X56610772Y-19203819D01*
X56672095Y-19170334D01*
X56698453Y-19167500D01*
X57589252Y-19167500D01*
X57656291Y-19187185D01*
G37*
%TD.AperFunction*%
%TA.AperFunction,Conductor*%
G36*
X55370586Y-18462185D02*
G01*
X55416341Y-18514989D01*
X55426285Y-18584147D01*
X55397260Y-18647703D01*
X55391228Y-18654181D01*
X50381228Y-23664181D01*
X50319905Y-23697666D01*
X50293547Y-23700500D01*
X49797737Y-23700500D01*
X49782120Y-23698776D01*
X49782093Y-23699062D01*
X49774331Y-23698327D01*
X49707144Y-23700439D01*
X49703250Y-23700500D01*
X49675650Y-23700500D01*
X49671962Y-23700965D01*
X49671649Y-23701005D01*
X49660031Y-23701918D01*
X49616373Y-23703290D01*
X49616372Y-23703290D01*
X49597129Y-23708881D01*
X49578079Y-23712825D01*
X49558211Y-23715334D01*
X49558210Y-23715335D01*
X49517600Y-23731413D01*
X49506553Y-23735195D01*
X49464610Y-23747381D01*
X49464609Y-23747382D01*
X49447367Y-23757579D01*
X49429899Y-23766137D01*
X49411269Y-23773513D01*
X49411266Y-23773515D01*
X49375939Y-23799181D01*
X49366180Y-23805592D01*
X49328579Y-23827830D01*
X49314408Y-23842000D01*
X49299623Y-23854628D01*
X49286992Y-23863806D01*
X49283412Y-23866407D01*
X49255571Y-23900059D01*
X49247711Y-23908696D01*
X48932236Y-24224171D01*
X48870913Y-24257656D01*
X48801221Y-24252672D01*
X48794131Y-24249774D01*
X48764567Y-24236611D01*
X48730302Y-24221355D01*
X48584501Y-24190365D01*
X48545146Y-24182000D01*
X48484341Y-24182000D01*
X48417302Y-24162315D01*
X48371547Y-24109511D01*
X48361603Y-24040353D01*
X48390628Y-23976797D01*
X48396660Y-23970319D01*
X51035539Y-21331441D01*
X53888161Y-18478819D01*
X53949484Y-18445334D01*
X53975842Y-18442500D01*
X55303547Y-18442500D01*
X55370586Y-18462185D01*
G37*
%TD.AperFunction*%
%TA.AperFunction,Conductor*%
G36*
X75533199Y-56847993D02*
G01*
X75494000Y-56955694D01*
X75494000Y-57070306D01*
X75533199Y-57178007D01*
X75604517Y-57263000D01*
X74763483Y-57263000D01*
X74834801Y-57178007D01*
X74874000Y-57070306D01*
X74874000Y-56955694D01*
X74834801Y-56847993D01*
X74763483Y-56763000D01*
X75604517Y-56763000D01*
X75533199Y-56847993D01*
G37*
%TD.AperFunction*%
%TA.AperFunction,Conductor*%
G36*
X20583460Y-12391893D02*
G01*
X20629241Y-12444675D01*
X20639219Y-12513828D01*
X20620979Y-12559964D01*
X20622172Y-12560653D01*
X20619465Y-12565340D01*
X20526107Y-12765548D01*
X20526104Y-12765554D01*
X20468930Y-12978929D01*
X20468929Y-12978937D01*
X20449677Y-13198997D01*
X20449677Y-13199002D01*
X20468929Y-13419062D01*
X20468930Y-13419070D01*
X20526104Y-13632445D01*
X20526105Y-13632447D01*
X20526106Y-13632450D01*
X20589262Y-13767889D01*
X20619466Y-13832662D01*
X20619468Y-13832666D01*
X20746170Y-14013615D01*
X20746175Y-14013621D01*
X20902378Y-14169824D01*
X20902384Y-14169829D01*
X21083333Y-14296531D01*
X21083335Y-14296532D01*
X21083338Y-14296534D01*
X21283550Y-14389894D01*
X21496932Y-14447070D01*
X21654123Y-14460822D01*
X21716998Y-14466323D01*
X21717000Y-14466323D01*
X21717002Y-14466323D01*
X21772017Y-14461509D01*
X21937068Y-14447070D01*
X22150450Y-14389894D01*
X22350662Y-14296534D01*
X22531620Y-14169826D01*
X22687826Y-14013620D01*
X22814534Y-13832662D01*
X22874618Y-13703811D01*
X22920790Y-13651371D01*
X22987983Y-13632219D01*
X23054865Y-13652435D01*
X23099382Y-13703811D01*
X23159464Y-13832658D01*
X23159468Y-13832666D01*
X23286170Y-14013615D01*
X23286175Y-14013621D01*
X23442378Y-14169824D01*
X23442384Y-14169829D01*
X23623333Y-14296531D01*
X23623335Y-14296532D01*
X23623338Y-14296534D01*
X23823550Y-14389894D01*
X24036932Y-14447070D01*
X24194123Y-14460822D01*
X24256998Y-14466323D01*
X24257000Y-14466323D01*
X24257001Y-14466323D01*
X24274521Y-14464790D01*
X24388784Y-14454793D01*
X24457283Y-14468559D01*
X24487272Y-14490640D01*
X24893270Y-14896638D01*
X24905051Y-14910270D01*
X24919388Y-14929528D01*
X24957337Y-14961372D01*
X24965310Y-14968679D01*
X24969217Y-14972586D01*
X24969223Y-14972591D01*
X24993537Y-14991816D01*
X24996318Y-14994080D01*
X25013152Y-15008206D01*
X25053789Y-15042305D01*
X25059818Y-15046270D01*
X25059785Y-15046319D01*
X25066147Y-15050372D01*
X25066179Y-15050321D01*
X25072319Y-15054108D01*
X25072323Y-15054111D01*
X25090826Y-15062739D01*
X25140320Y-15085819D01*
X25143566Y-15087391D01*
X25210562Y-15121038D01*
X25217357Y-15123511D01*
X25217336Y-15123567D01*
X25224457Y-15126043D01*
X25224476Y-15125986D01*
X25231319Y-15128253D01*
X25231327Y-15128257D01*
X25304895Y-15143447D01*
X25308228Y-15144186D01*
X25381279Y-15161500D01*
X25381281Y-15161500D01*
X25381285Y-15161501D01*
X25388453Y-15162339D01*
X25388446Y-15162398D01*
X25395944Y-15163164D01*
X25395950Y-15163105D01*
X25403139Y-15163734D01*
X25403143Y-15163733D01*
X25403144Y-15163734D01*
X25478130Y-15161552D01*
X25481737Y-15161500D01*
X34452303Y-15161500D01*
X34519342Y-15181185D01*
X34565097Y-15233989D01*
X34575041Y-15303147D01*
X34546016Y-15366703D01*
X34544453Y-15368472D01*
X34514384Y-15401867D01*
X34419739Y-15565797D01*
X34419736Y-15565804D01*
X34361688Y-15744458D01*
X34361244Y-15745826D01*
X34349266Y-15859794D01*
X34343597Y-15913731D01*
X34317012Y-15978345D01*
X34307957Y-15988450D01*
X33887674Y-16408733D01*
X33875417Y-16418554D01*
X33875600Y-16418775D01*
X33869588Y-16423748D01*
X33823564Y-16472757D01*
X33820857Y-16475550D01*
X33801355Y-16495051D01*
X33801341Y-16495068D01*
X33798873Y-16498249D01*
X33791309Y-16507104D01*
X33761403Y-16538952D01*
X33761402Y-16538954D01*
X33751750Y-16556510D01*
X33741076Y-16572760D01*
X33728795Y-16588595D01*
X33728790Y-16588602D01*
X33711441Y-16628692D01*
X33706304Y-16639178D01*
X33685269Y-16677440D01*
X33680288Y-16696841D01*
X33673987Y-16715244D01*
X33666028Y-16733636D01*
X33666027Y-16733639D01*
X33659194Y-16776777D01*
X33656826Y-16788208D01*
X33645967Y-16830505D01*
X33645966Y-16830516D01*
X33645966Y-16850550D01*
X33644439Y-16869949D01*
X33641306Y-16889728D01*
X33641306Y-16889729D01*
X33645416Y-16933208D01*
X33645966Y-16944877D01*
X33645966Y-21415619D01*
X33626281Y-21482658D01*
X33573477Y-21528413D01*
X33504319Y-21538357D01*
X33449081Y-21515937D01*
X33345734Y-21440851D01*
X33345729Y-21440848D01*
X33172807Y-21363857D01*
X33172802Y-21363855D01*
X33020301Y-21331441D01*
X32987646Y-21324500D01*
X32798354Y-21324500D01*
X32765897Y-21331398D01*
X32613197Y-21363855D01*
X32613192Y-21363857D01*
X32440270Y-21440848D01*
X32440265Y-21440851D01*
X32287129Y-21552111D01*
X32160466Y-21692785D01*
X32065821Y-21856715D01*
X32065818Y-21856722D01*
X32019962Y-21997854D01*
X32007326Y-22036744D01*
X31987540Y-22225000D01*
X32007326Y-22413256D01*
X32007327Y-22413259D01*
X32065818Y-22593277D01*
X32065821Y-22593284D01*
X32160467Y-22757216D01*
X32228498Y-22832772D01*
X32287129Y-22897888D01*
X32440265Y-23009148D01*
X32440270Y-23009151D01*
X32613192Y-23086142D01*
X32613197Y-23086144D01*
X32798354Y-23125500D01*
X32798355Y-23125500D01*
X32987644Y-23125500D01*
X32987646Y-23125500D01*
X33172803Y-23086144D01*
X33199591Y-23074216D01*
X33268841Y-23064930D01*
X33332118Y-23094557D01*
X33369332Y-23153691D01*
X33373349Y-23200454D01*
X33366006Y-23270328D01*
X33385792Y-23458584D01*
X33385793Y-23458587D01*
X33444284Y-23638605D01*
X33444287Y-23638612D01*
X33538933Y-23802544D01*
X33625018Y-23898151D01*
X33665595Y-23943216D01*
X33818731Y-24054476D01*
X33818736Y-24054479D01*
X33943704Y-24110119D01*
X33996941Y-24155369D01*
X34017262Y-24222218D01*
X33998217Y-24289442D01*
X33985419Y-24306369D01*
X33901762Y-24399281D01*
X33807117Y-24563211D01*
X33807114Y-24563218D01*
X33748623Y-24743236D01*
X33748622Y-24743240D01*
X33728836Y-24931496D01*
X33748622Y-25119752D01*
X33748623Y-25119755D01*
X33807114Y-25299773D01*
X33807117Y-25299780D01*
X33901763Y-25463712D01*
X34011912Y-25586044D01*
X34028425Y-25604384D01*
X34181561Y-25715644D01*
X34181566Y-25715647D01*
X34354488Y-25792638D01*
X34354493Y-25792640D01*
X34539650Y-25831996D01*
X34539651Y-25831996D01*
X34728940Y-25831996D01*
X34728942Y-25831996D01*
X34914099Y-25792640D01*
X35087026Y-25715647D01*
X35240167Y-25604384D01*
X35366829Y-25463712D01*
X35461475Y-25299780D01*
X35519970Y-25119752D01*
X35537617Y-24951841D01*
X35564201Y-24887228D01*
X35573248Y-24877132D01*
X37055359Y-23395021D01*
X37116680Y-23361538D01*
X37186372Y-23366522D01*
X37235186Y-23399730D01*
X37246176Y-23411935D01*
X37246184Y-23411942D01*
X37399314Y-23523197D01*
X37399319Y-23523200D01*
X37572241Y-23600191D01*
X37572246Y-23600193D01*
X37757403Y-23639549D01*
X37757404Y-23639549D01*
X37946693Y-23639549D01*
X37946695Y-23639549D01*
X38131852Y-23600193D01*
X38304779Y-23523200D01*
X38457920Y-23411937D01*
X38584582Y-23271265D01*
X38679228Y-23107333D01*
X38737723Y-22927305D01*
X38757509Y-22739049D01*
X38746313Y-22632527D01*
X38747161Y-22600169D01*
X38749270Y-22586854D01*
X38751639Y-22575413D01*
X38759725Y-22543923D01*
X38762500Y-22533117D01*
X38762500Y-22513081D01*
X38764025Y-22493692D01*
X38766780Y-22476299D01*
X38796707Y-22413166D01*
X38801554Y-22408034D01*
X40666771Y-20542819D01*
X40728094Y-20509334D01*
X40754452Y-20506500D01*
X41134540Y-20506500D01*
X41201579Y-20526185D01*
X41247334Y-20578989D01*
X41258540Y-20630500D01*
X41258540Y-20635997D01*
X41258540Y-20636000D01*
X41278326Y-20824256D01*
X41278327Y-20824259D01*
X41336818Y-21004277D01*
X41336821Y-21004284D01*
X41431467Y-21168216D01*
X41504094Y-21248876D01*
X41558129Y-21308888D01*
X41558133Y-21308892D01*
X41589170Y-21331441D01*
X41631837Y-21386771D01*
X41637816Y-21456384D01*
X41605211Y-21518179D01*
X41603967Y-21519441D01*
X40946228Y-22177181D01*
X40884905Y-22210666D01*
X40858547Y-22213500D01*
X40799354Y-22213500D01*
X40779091Y-22217807D01*
X40614197Y-22252855D01*
X40614192Y-22252857D01*
X40444434Y-22328440D01*
X40375184Y-22337725D01*
X40343562Y-22328440D01*
X40173803Y-22252857D01*
X40173799Y-22252855D01*
X40008906Y-22217807D01*
X39988643Y-22213500D01*
X39799351Y-22213500D01*
X39779088Y-22217807D01*
X39614194Y-22252855D01*
X39614189Y-22252857D01*
X39441267Y-22329848D01*
X39441262Y-22329851D01*
X39288126Y-22441111D01*
X39161463Y-22581785D01*
X39066818Y-22745715D01*
X39066815Y-22745722D01*
X39014038Y-22908155D01*
X39008323Y-22925744D01*
X38988537Y-23114000D01*
X39008323Y-23302256D01*
X39008324Y-23302259D01*
X39066815Y-23482277D01*
X39066818Y-23482284D01*
X39161464Y-23646216D01*
X39252554Y-23747381D01*
X39288126Y-23786888D01*
X39441262Y-23898148D01*
X39441267Y-23898151D01*
X39614189Y-23975142D01*
X39614194Y-23975144D01*
X39799351Y-24014500D01*
X39799352Y-24014500D01*
X39988641Y-24014500D01*
X39988643Y-24014500D01*
X40173800Y-23975144D01*
X40343562Y-23899559D01*
X40412812Y-23890275D01*
X40444434Y-23899560D01*
X40614192Y-23975142D01*
X40614197Y-23975144D01*
X40799354Y-24014500D01*
X40799355Y-24014500D01*
X40988644Y-24014500D01*
X40988646Y-24014500D01*
X41173803Y-23975144D01*
X41346730Y-23898151D01*
X41499871Y-23786888D01*
X41626533Y-23646216D01*
X41721179Y-23482284D01*
X41779674Y-23302256D01*
X41797321Y-23134345D01*
X41823905Y-23069732D01*
X41832952Y-23059636D01*
X49220041Y-15672550D01*
X49281364Y-15639065D01*
X49307722Y-15636231D01*
X49563521Y-15636231D01*
X49630560Y-15655916D01*
X49655669Y-15677257D01*
X49661395Y-15683616D01*
X49661399Y-15683620D01*
X49814534Y-15794879D01*
X49814539Y-15794882D01*
X49987461Y-15871873D01*
X49987466Y-15871875D01*
X50172623Y-15911231D01*
X50172624Y-15911231D01*
X50361913Y-15911231D01*
X50361915Y-15911231D01*
X50547072Y-15871875D01*
X50719999Y-15794882D01*
X50858771Y-15694058D01*
X50924573Y-15670580D01*
X50992627Y-15686405D01*
X51004538Y-15694060D01*
X51109265Y-15770148D01*
X51109270Y-15770151D01*
X51282192Y-15847142D01*
X51282197Y-15847144D01*
X51467354Y-15886500D01*
X51467355Y-15886500D01*
X51656644Y-15886500D01*
X51656646Y-15886500D01*
X51841803Y-15847144D01*
X52014730Y-15770151D01*
X52167871Y-15658888D01*
X52170547Y-15655916D01*
X52175398Y-15650529D01*
X52234884Y-15613880D01*
X52267549Y-15609500D01*
X54812085Y-15609500D01*
X54879124Y-15629185D01*
X54924879Y-15681989D01*
X54930016Y-15695182D01*
X54966165Y-15806438D01*
X54966168Y-15806445D01*
X55060814Y-15970377D01*
X55187476Y-16111049D01*
X55340612Y-16222309D01*
X55340617Y-16222312D01*
X55513539Y-16299303D01*
X55513544Y-16299305D01*
X55698701Y-16338661D01*
X55698702Y-16338661D01*
X55887991Y-16338661D01*
X55887993Y-16338661D01*
X56073150Y-16299305D01*
X56246077Y-16222312D01*
X56399218Y-16111049D01*
X56525880Y-15970377D01*
X56620526Y-15806445D01*
X56679021Y-15626417D01*
X56698807Y-15438161D01*
X56679021Y-15249905D01*
X56620526Y-15069877D01*
X56525880Y-14905945D01*
X56399218Y-14765273D01*
X56384817Y-14754810D01*
X56246081Y-14654012D01*
X56246076Y-14654009D01*
X56073154Y-14577018D01*
X56073150Y-14577017D01*
X56008016Y-14563172D01*
X55946535Y-14529979D01*
X55946117Y-14529563D01*
X55789915Y-14373361D01*
X55778135Y-14359730D01*
X55763796Y-14340470D01*
X55725837Y-14308619D01*
X55717872Y-14301318D01*
X55713966Y-14297411D01*
X55689629Y-14278168D01*
X55686833Y-14275890D01*
X55629400Y-14227698D01*
X55623366Y-14223729D01*
X55623398Y-14223680D01*
X55617039Y-14219628D01*
X55617008Y-14219679D01*
X55610866Y-14215891D01*
X55610864Y-14215890D01*
X55610863Y-14215889D01*
X55542874Y-14184184D01*
X55539633Y-14182615D01*
X55508716Y-14167088D01*
X55472619Y-14148960D01*
X55472617Y-14148959D01*
X55472616Y-14148959D01*
X55465831Y-14146489D01*
X55465851Y-14146433D01*
X55458735Y-14143959D01*
X55458717Y-14144015D01*
X55451860Y-14141743D01*
X55378396Y-14126573D01*
X55374878Y-14125793D01*
X55324382Y-14113826D01*
X55265296Y-14080849D01*
X54764447Y-13580000D01*
X54768569Y-13580000D01*
X54862421Y-13564339D01*
X54974251Y-13503820D01*
X55060371Y-13410269D01*
X55111448Y-13293823D01*
X55117105Y-13225552D01*
X55788741Y-13897188D01*
X55834094Y-13832417D01*
X55834100Y-13832407D01*
X55894618Y-13702627D01*
X55940790Y-13650187D01*
X56007983Y-13631035D01*
X56074865Y-13651251D01*
X56119382Y-13702627D01*
X56179898Y-13832405D01*
X56179901Y-13832411D01*
X56225258Y-13897187D01*
X56225258Y-13897188D01*
X56892096Y-13230350D01*
X56892051Y-13230898D01*
X56923266Y-13354162D01*
X56992813Y-13460612D01*
X57093157Y-13538713D01*
X57213422Y-13580000D01*
X57249553Y-13580000D01*
X56578810Y-14250740D01*
X56643590Y-14296099D01*
X56643592Y-14296100D01*
X56843715Y-14389419D01*
X56843729Y-14389424D01*
X57057013Y-14446573D01*
X57057023Y-14446575D01*
X57276999Y-14465821D01*
X57277001Y-14465821D01*
X57496976Y-14446575D01*
X57496986Y-14446573D01*
X57710270Y-14389424D01*
X57710284Y-14389419D01*
X57910407Y-14296100D01*
X57910417Y-14296094D01*
X57975188Y-14250741D01*
X57304448Y-13580000D01*
X57308569Y-13580000D01*
X57402421Y-13564339D01*
X57514251Y-13503820D01*
X57600371Y-13410269D01*
X57651448Y-13293823D01*
X57657105Y-13225552D01*
X58328741Y-13897188D01*
X58374094Y-13832417D01*
X58374095Y-13832416D01*
X58434340Y-13703219D01*
X58480512Y-13650780D01*
X58547706Y-13631627D01*
X58614587Y-13651842D01*
X58659105Y-13703218D01*
X58719466Y-13832662D01*
X58719468Y-13832666D01*
X58846170Y-14013615D01*
X58846175Y-14013621D01*
X59002378Y-14169824D01*
X59002384Y-14169829D01*
X59183333Y-14296531D01*
X59183335Y-14296532D01*
X59183338Y-14296534D01*
X59383550Y-14389894D01*
X59596932Y-14447070D01*
X59754123Y-14460822D01*
X59816998Y-14466323D01*
X59817000Y-14466323D01*
X59817002Y-14466323D01*
X59872017Y-14461509D01*
X60037068Y-14447070D01*
X60250450Y-14389894D01*
X60450662Y-14296534D01*
X60631620Y-14169826D01*
X60787826Y-14013620D01*
X60914534Y-13832662D01*
X60974894Y-13703218D01*
X61021066Y-13650779D01*
X61088259Y-13631627D01*
X61155141Y-13651843D01*
X61199658Y-13703219D01*
X61259898Y-13832405D01*
X61259901Y-13832411D01*
X61305258Y-13897187D01*
X61305258Y-13897188D01*
X61972096Y-13230350D01*
X61972051Y-13230898D01*
X62003266Y-13354162D01*
X62072813Y-13460612D01*
X62173157Y-13538713D01*
X62293422Y-13580000D01*
X62329553Y-13580000D01*
X61658810Y-14250740D01*
X61723590Y-14296099D01*
X61723592Y-14296100D01*
X61923715Y-14389419D01*
X61923729Y-14389424D01*
X62137013Y-14446573D01*
X62137023Y-14446575D01*
X62356999Y-14465821D01*
X62357001Y-14465821D01*
X62576976Y-14446575D01*
X62576986Y-14446573D01*
X62790270Y-14389424D01*
X62790284Y-14389419D01*
X62990407Y-14296100D01*
X62990417Y-14296094D01*
X63055188Y-14250741D01*
X62384448Y-13580000D01*
X62388569Y-13580000D01*
X62482421Y-13564339D01*
X62594251Y-13503820D01*
X62680371Y-13410269D01*
X62731448Y-13293823D01*
X62737105Y-13225552D01*
X63408741Y-13897188D01*
X63454094Y-13832417D01*
X63454100Y-13832407D01*
X63514618Y-13702627D01*
X63560790Y-13650187D01*
X63627983Y-13631035D01*
X63694865Y-13651251D01*
X63739382Y-13702627D01*
X63799898Y-13832405D01*
X63799901Y-13832411D01*
X63845258Y-13897187D01*
X63845258Y-13897188D01*
X64512096Y-13230350D01*
X64512051Y-13230898D01*
X64543266Y-13354162D01*
X64612813Y-13460612D01*
X64713157Y-13538713D01*
X64833422Y-13580000D01*
X64869553Y-13580000D01*
X64198810Y-14250740D01*
X64263590Y-14296099D01*
X64263592Y-14296100D01*
X64463715Y-14389419D01*
X64463729Y-14389424D01*
X64677013Y-14446573D01*
X64677023Y-14446575D01*
X64896999Y-14465821D01*
X64897001Y-14465821D01*
X65116976Y-14446575D01*
X65116986Y-14446573D01*
X65330270Y-14389424D01*
X65330284Y-14389419D01*
X65530407Y-14296100D01*
X65530417Y-14296094D01*
X65595188Y-14250741D01*
X64924448Y-13580000D01*
X64928569Y-13580000D01*
X65022421Y-13564339D01*
X65134251Y-13503820D01*
X65220371Y-13410269D01*
X65271448Y-13293823D01*
X65277105Y-13225552D01*
X65948741Y-13897188D01*
X65994094Y-13832417D01*
X65994095Y-13832416D01*
X66054340Y-13703219D01*
X66100512Y-13650780D01*
X66167706Y-13631627D01*
X66234587Y-13651842D01*
X66279105Y-13703218D01*
X66339466Y-13832662D01*
X66339468Y-13832666D01*
X66466170Y-14013615D01*
X66466175Y-14013621D01*
X66622378Y-14169824D01*
X66622384Y-14169829D01*
X66803333Y-14296531D01*
X66803335Y-14296532D01*
X66803338Y-14296534D01*
X67003550Y-14389894D01*
X67216932Y-14447070D01*
X67374123Y-14460822D01*
X67436998Y-14466323D01*
X67437000Y-14466323D01*
X67437002Y-14466323D01*
X67492017Y-14461509D01*
X67657068Y-14447070D01*
X67870450Y-14389894D01*
X68070662Y-14296534D01*
X68251620Y-14169826D01*
X68407826Y-14013620D01*
X68534534Y-13832662D01*
X68594618Y-13703811D01*
X68640790Y-13651371D01*
X68707983Y-13632219D01*
X68774865Y-13652435D01*
X68819382Y-13703811D01*
X68879464Y-13832658D01*
X68879468Y-13832666D01*
X69006170Y-14013615D01*
X69006175Y-14013621D01*
X69162378Y-14169824D01*
X69162384Y-14169829D01*
X69343333Y-14296531D01*
X69343335Y-14296532D01*
X69343338Y-14296534D01*
X69543550Y-14389894D01*
X69756932Y-14447070D01*
X69914123Y-14460822D01*
X69976998Y-14466323D01*
X69977000Y-14466323D01*
X69977002Y-14466323D01*
X70032017Y-14461509D01*
X70197068Y-14447070D01*
X70410450Y-14389894D01*
X70610662Y-14296534D01*
X70791620Y-14169826D01*
X70947826Y-14013620D01*
X71074534Y-13832662D01*
X71167894Y-13632450D01*
X71225070Y-13419068D01*
X71244323Y-13199000D01*
X71241532Y-13167102D01*
X71230748Y-13043838D01*
X71225070Y-12978932D01*
X71167894Y-12765550D01*
X71074534Y-12565339D01*
X71074530Y-12565333D01*
X71072893Y-12562497D01*
X71072550Y-12561084D01*
X71072246Y-12560433D01*
X71072377Y-12560371D01*
X71056423Y-12494596D01*
X71079277Y-12428570D01*
X71134199Y-12385381D01*
X71180282Y-12376500D01*
X79322000Y-12376500D01*
X79389039Y-12396185D01*
X79434794Y-12448989D01*
X79446000Y-12500500D01*
X79446000Y-61518796D01*
X79426315Y-61585835D01*
X79375083Y-61630859D01*
X78939764Y-61837063D01*
X78886681Y-61849000D01*
X74663873Y-61849000D01*
X74596834Y-61829315D01*
X74592749Y-61826575D01*
X74420409Y-61705900D01*
X74420407Y-61705899D01*
X74220284Y-61612580D01*
X74220270Y-61612575D01*
X74006986Y-61555426D01*
X74006976Y-61555424D01*
X73787001Y-61536179D01*
X73786999Y-61536179D01*
X73567023Y-61555424D01*
X73567013Y-61555426D01*
X73353729Y-61612575D01*
X73353720Y-61612579D01*
X73153591Y-61705900D01*
X73153589Y-61705901D01*
X72981249Y-61826575D01*
X72915043Y-61848902D01*
X72910126Y-61849000D01*
X71242904Y-61849000D01*
X71175865Y-61829315D01*
X71130110Y-61776511D01*
X71120166Y-61707353D01*
X71130522Y-61672596D01*
X71167891Y-61592456D01*
X71167894Y-61592450D01*
X71225070Y-61379068D01*
X71244323Y-61159000D01*
X71243383Y-61148259D01*
X71225070Y-60938937D01*
X71225070Y-60938932D01*
X71167894Y-60725550D01*
X71074534Y-60525339D01*
X70979004Y-60388907D01*
X70947827Y-60344381D01*
X70876974Y-60273528D01*
X70791620Y-60188174D01*
X70791616Y-60188171D01*
X70791615Y-60188170D01*
X70610666Y-60061468D01*
X70610662Y-60061466D01*
X70552543Y-60034365D01*
X70410450Y-59968106D01*
X70410447Y-59968105D01*
X70410445Y-59968104D01*
X70197070Y-59910930D01*
X70197062Y-59910929D01*
X69977002Y-59891677D01*
X69976998Y-59891677D01*
X69756937Y-59910929D01*
X69756929Y-59910930D01*
X69543554Y-59968104D01*
X69543548Y-59968107D01*
X69343340Y-60061465D01*
X69343338Y-60061466D01*
X69162377Y-60188175D01*
X69006175Y-60344377D01*
X68879466Y-60525338D01*
X68879465Y-60525340D01*
X68819382Y-60654189D01*
X68773209Y-60706628D01*
X68706016Y-60725780D01*
X68639135Y-60705564D01*
X68594618Y-60654189D01*
X68554586Y-60568341D01*
X68534534Y-60525339D01*
X68439004Y-60388907D01*
X68407827Y-60344381D01*
X68336974Y-60273528D01*
X68251620Y-60188174D01*
X68251616Y-60188171D01*
X68251615Y-60188170D01*
X68070666Y-60061468D01*
X68070662Y-60061466D01*
X68012543Y-60034365D01*
X67870450Y-59968106D01*
X67870447Y-59968105D01*
X67870445Y-59968104D01*
X67657070Y-59910930D01*
X67657062Y-59910929D01*
X67437002Y-59891677D01*
X67436998Y-59891677D01*
X67216937Y-59910929D01*
X67216929Y-59910930D01*
X67003554Y-59968104D01*
X67003548Y-59968107D01*
X66803340Y-60061465D01*
X66803338Y-60061466D01*
X66622377Y-60188175D01*
X66466175Y-60344377D01*
X66339466Y-60525338D01*
X66339465Y-60525340D01*
X66279382Y-60654189D01*
X66233209Y-60706628D01*
X66166016Y-60725780D01*
X66099135Y-60705564D01*
X66054618Y-60654189D01*
X66014586Y-60568341D01*
X65994534Y-60525339D01*
X65899004Y-60388907D01*
X65867827Y-60344381D01*
X65796974Y-60273528D01*
X65711620Y-60188174D01*
X65711616Y-60188171D01*
X65711615Y-60188170D01*
X65530666Y-60061468D01*
X65530662Y-60061466D01*
X65472543Y-60034365D01*
X65330450Y-59968106D01*
X65330447Y-59968105D01*
X65330445Y-59968104D01*
X65117070Y-59910930D01*
X65117062Y-59910929D01*
X64897002Y-59891677D01*
X64896998Y-59891677D01*
X64676937Y-59910929D01*
X64676929Y-59910930D01*
X64463554Y-59968104D01*
X64463548Y-59968107D01*
X64263340Y-60061465D01*
X64263338Y-60061466D01*
X64082377Y-60188175D01*
X63926175Y-60344377D01*
X63799466Y-60525338D01*
X63799465Y-60525340D01*
X63706107Y-60725548D01*
X63706104Y-60725554D01*
X63648930Y-60938929D01*
X63648929Y-60938937D01*
X63629677Y-61158997D01*
X63629677Y-61159002D01*
X63648929Y-61379062D01*
X63648930Y-61379070D01*
X63706104Y-61592445D01*
X63706108Y-61592456D01*
X63743478Y-61672596D01*
X63753970Y-61741673D01*
X63725450Y-61805457D01*
X63666973Y-61843696D01*
X63631096Y-61849000D01*
X46408885Y-61849000D01*
X46341846Y-61829315D01*
X46296091Y-61776511D01*
X46286147Y-61707353D01*
X46315172Y-61643797D01*
X46325817Y-61632947D01*
X46325868Y-61632889D01*
X46325871Y-61632888D01*
X46452533Y-61492216D01*
X46547179Y-61328284D01*
X46605674Y-61148256D01*
X46625460Y-60960000D01*
X46605674Y-60771744D01*
X46547179Y-60591716D01*
X46452533Y-60427784D01*
X46325871Y-60287112D01*
X46307663Y-60273883D01*
X46172734Y-60175851D01*
X46172729Y-60175848D01*
X45999807Y-60098857D01*
X45999802Y-60098855D01*
X45854001Y-60067865D01*
X45814646Y-60059500D01*
X45625354Y-60059500D01*
X45592897Y-60066398D01*
X45440197Y-60098855D01*
X45440192Y-60098857D01*
X45267270Y-60175848D01*
X45267265Y-60175851D01*
X45114129Y-60287111D01*
X44987466Y-60427785D01*
X44892821Y-60591715D01*
X44892818Y-60591722D01*
X44834327Y-60771740D01*
X44834326Y-60771744D01*
X44814540Y-60960000D01*
X44834326Y-61148256D01*
X44834327Y-61148259D01*
X44892818Y-61328277D01*
X44892821Y-61328284D01*
X44987467Y-61492216D01*
X45077724Y-61592456D01*
X45118478Y-61637718D01*
X45117582Y-61638524D01*
X45150735Y-61692333D01*
X45149406Y-61762190D01*
X45110521Y-61820240D01*
X45046425Y-61848051D01*
X45031115Y-61849000D01*
X28062904Y-61849000D01*
X27995865Y-61829315D01*
X27950110Y-61776511D01*
X27940166Y-61707353D01*
X27950522Y-61672596D01*
X27987891Y-61592456D01*
X27987894Y-61592450D01*
X28045070Y-61379068D01*
X28064323Y-61159000D01*
X28063383Y-61148259D01*
X28045070Y-60938937D01*
X28045070Y-60938932D01*
X27987894Y-60725550D01*
X27894534Y-60525339D01*
X27799004Y-60388907D01*
X27767827Y-60344381D01*
X27696974Y-60273528D01*
X27611620Y-60188174D01*
X27611616Y-60188171D01*
X27611615Y-60188170D01*
X27430666Y-60061468D01*
X27430662Y-60061466D01*
X27372543Y-60034365D01*
X27230450Y-59968106D01*
X27230447Y-59968105D01*
X27230445Y-59968104D01*
X27017070Y-59910930D01*
X27017062Y-59910929D01*
X26797002Y-59891677D01*
X26796998Y-59891677D01*
X26576937Y-59910929D01*
X26576929Y-59910930D01*
X26363554Y-59968104D01*
X26363548Y-59968107D01*
X26163340Y-60061465D01*
X26163338Y-60061466D01*
X25982377Y-60188175D01*
X25826175Y-60344377D01*
X25699466Y-60525338D01*
X25699465Y-60525340D01*
X25639382Y-60654189D01*
X25593209Y-60706628D01*
X25526016Y-60725780D01*
X25459135Y-60705564D01*
X25414618Y-60654189D01*
X25374586Y-60568341D01*
X25354534Y-60525339D01*
X25259004Y-60388907D01*
X25227827Y-60344381D01*
X25156974Y-60273528D01*
X25071620Y-60188174D01*
X25071616Y-60188171D01*
X25071615Y-60188170D01*
X24890666Y-60061468D01*
X24890662Y-60061466D01*
X24832543Y-60034365D01*
X24690450Y-59968106D01*
X24690447Y-59968105D01*
X24690445Y-59968104D01*
X24477070Y-59910930D01*
X24477062Y-59910929D01*
X24257002Y-59891677D01*
X24256998Y-59891677D01*
X24036937Y-59910929D01*
X24036929Y-59910930D01*
X23823554Y-59968104D01*
X23823548Y-59968107D01*
X23623340Y-60061465D01*
X23623338Y-60061466D01*
X23442377Y-60188175D01*
X23286175Y-60344377D01*
X23159466Y-60525338D01*
X23159465Y-60525340D01*
X23099382Y-60654189D01*
X23053209Y-60706628D01*
X22986016Y-60725780D01*
X22919135Y-60705564D01*
X22874618Y-60654189D01*
X22834586Y-60568341D01*
X22814534Y-60525339D01*
X22719004Y-60388907D01*
X22687827Y-60344381D01*
X22616974Y-60273528D01*
X22531620Y-60188174D01*
X22531616Y-60188171D01*
X22531615Y-60188170D01*
X22350666Y-60061468D01*
X22350662Y-60061466D01*
X22292543Y-60034365D01*
X22150450Y-59968106D01*
X22150447Y-59968105D01*
X22150445Y-59968104D01*
X21937070Y-59910930D01*
X21937062Y-59910929D01*
X21717002Y-59891677D01*
X21716998Y-59891677D01*
X21496937Y-59910929D01*
X21496929Y-59910930D01*
X21283554Y-59968104D01*
X21283548Y-59968107D01*
X21083340Y-60061465D01*
X21083338Y-60061466D01*
X20902377Y-60188175D01*
X20746175Y-60344377D01*
X20619466Y-60525338D01*
X20619465Y-60525340D01*
X20526107Y-60725548D01*
X20526104Y-60725554D01*
X20468930Y-60938929D01*
X20468929Y-60938937D01*
X20449677Y-61158997D01*
X20449677Y-61159002D01*
X20468929Y-61379062D01*
X20468930Y-61379070D01*
X20526104Y-61592445D01*
X20526108Y-61592456D01*
X20563478Y-61672596D01*
X20573970Y-61741673D01*
X20545450Y-61805457D01*
X20486973Y-61843696D01*
X20451096Y-61849000D01*
X18784747Y-61849000D01*
X18717708Y-61829315D01*
X18713624Y-61826575D01*
X18540666Y-61705468D01*
X18540662Y-61705466D01*
X18512498Y-61692333D01*
X18340450Y-61612106D01*
X18340447Y-61612105D01*
X18340445Y-61612104D01*
X18127070Y-61554930D01*
X18127062Y-61554929D01*
X17907002Y-61535677D01*
X17906998Y-61535677D01*
X17686937Y-61554929D01*
X17686929Y-61554930D01*
X17473554Y-61612104D01*
X17473548Y-61612107D01*
X17273340Y-61705465D01*
X17273338Y-61705466D01*
X17100376Y-61826575D01*
X17034170Y-61848902D01*
X17029253Y-61849000D01*
X12499141Y-61849000D01*
X12432102Y-61829315D01*
X12386347Y-61776511D01*
X12375141Y-61724961D01*
X12375749Y-59813000D01*
X14651840Y-59813000D01*
X14692652Y-59947541D01*
X14785503Y-60121253D01*
X14785507Y-60121260D01*
X14910471Y-60273528D01*
X15062739Y-60398491D01*
X15236465Y-60491349D01*
X15371000Y-60532159D01*
X15371000Y-59813000D01*
X14651840Y-59813000D01*
X12375749Y-59813000D01*
X12377812Y-53329403D01*
X13201840Y-53329403D01*
X13205950Y-53372882D01*
X13206500Y-53384551D01*
X13206500Y-56421255D01*
X13204775Y-56436872D01*
X13205061Y-56436899D01*
X13204326Y-56444665D01*
X13206439Y-56511872D01*
X13206500Y-56515767D01*
X13206500Y-56543357D01*
X13207003Y-56547335D01*
X13207918Y-56558967D01*
X13209290Y-56602624D01*
X13209291Y-56602627D01*
X13214880Y-56621867D01*
X13218824Y-56640911D01*
X13221297Y-56660482D01*
X13221336Y-56660792D01*
X13237414Y-56701403D01*
X13241197Y-56712452D01*
X13253381Y-56754388D01*
X13263580Y-56771634D01*
X13272136Y-56789100D01*
X13279514Y-56807732D01*
X13305181Y-56843060D01*
X13311593Y-56852821D01*
X13333828Y-56890417D01*
X13333833Y-56890424D01*
X13347990Y-56904580D01*
X13360627Y-56919375D01*
X13372406Y-56935587D01*
X13396711Y-56955694D01*
X13406057Y-56963425D01*
X13414698Y-56971288D01*
X14585014Y-58141605D01*
X14618499Y-58202928D01*
X14620736Y-58241437D01*
X14615659Y-58292997D01*
X14615659Y-58292999D01*
X14634975Y-58489129D01*
X14634976Y-58489132D01*
X14689154Y-58667733D01*
X14692188Y-58677733D01*
X14785086Y-58851532D01*
X14788473Y-58856601D01*
X14786955Y-58857615D01*
X14810918Y-58914042D01*
X14799124Y-58982909D01*
X14788515Y-58999420D01*
X14788893Y-58999673D01*
X14785505Y-59004742D01*
X14692652Y-59178458D01*
X14651839Y-59312999D01*
X14651840Y-59313000D01*
X15406517Y-59313000D01*
X15335199Y-59397993D01*
X15296000Y-59505694D01*
X15296000Y-59620306D01*
X15335199Y-59728007D01*
X15408871Y-59815805D01*
X15508129Y-59873112D01*
X15592564Y-59888000D01*
X15649436Y-59888000D01*
X15733871Y-59873112D01*
X15833129Y-59815805D01*
X15871000Y-59770672D01*
X15871000Y-60532159D01*
X16005534Y-60491349D01*
X16179259Y-60398492D01*
X16184320Y-60395111D01*
X16185444Y-60396793D01*
X16241203Y-60373086D01*
X16310075Y-60384851D01*
X16327186Y-60395843D01*
X16327399Y-60395526D01*
X16332457Y-60398906D01*
X16332462Y-60398910D01*
X16470594Y-60472743D01*
X16487560Y-60481812D01*
X16506273Y-60491814D01*
X16694868Y-60549024D01*
X16891000Y-60568341D01*
X17087132Y-60549024D01*
X17275727Y-60491814D01*
X17294440Y-60481812D01*
X17395517Y-60427785D01*
X17449538Y-60398910D01*
X17601883Y-60273883D01*
X17634750Y-60233835D01*
X17692495Y-60194501D01*
X17730603Y-60188500D01*
X19094257Y-60188500D01*
X19109877Y-60190224D01*
X19109904Y-60189939D01*
X19117660Y-60190671D01*
X19117667Y-60190673D01*
X19184873Y-60188561D01*
X19188768Y-60188500D01*
X19216346Y-60188500D01*
X19216350Y-60188500D01*
X19220324Y-60187997D01*
X19231963Y-60187080D01*
X19275627Y-60185709D01*
X19294869Y-60180117D01*
X19313912Y-60176174D01*
X19333792Y-60173664D01*
X19374401Y-60157585D01*
X19385444Y-60153803D01*
X19427390Y-60141618D01*
X19444629Y-60131422D01*
X19462103Y-60122862D01*
X19480727Y-60115488D01*
X19480727Y-60115487D01*
X19480732Y-60115486D01*
X19516083Y-60089800D01*
X19525814Y-60083408D01*
X19563420Y-60061170D01*
X19577589Y-60046999D01*
X19592379Y-60034368D01*
X19608587Y-60022594D01*
X19636438Y-59988926D01*
X19644279Y-59980309D01*
X20071588Y-59553000D01*
X73543659Y-59553000D01*
X73562975Y-59749129D01*
X73562976Y-59749132D01*
X73605101Y-59888000D01*
X73620188Y-59937733D01*
X73713086Y-60111532D01*
X73713090Y-60111539D01*
X73838116Y-60263883D01*
X73990460Y-60388909D01*
X73990467Y-60388913D01*
X74164266Y-60481811D01*
X74164269Y-60481811D01*
X74164273Y-60481814D01*
X74352868Y-60539024D01*
X74549000Y-60558341D01*
X74745132Y-60539024D01*
X74933727Y-60481814D01*
X75107538Y-60388910D01*
X75107544Y-60388904D01*
X75112607Y-60385523D01*
X75113703Y-60387164D01*
X75169639Y-60363405D01*
X75238507Y-60375194D01*
X75255148Y-60385888D01*
X75255393Y-60385523D01*
X75260458Y-60388907D01*
X75260462Y-60388910D01*
X75434273Y-60481814D01*
X75622868Y-60539024D01*
X75819000Y-60558341D01*
X76015132Y-60539024D01*
X76203727Y-60481814D01*
X76377538Y-60388910D01*
X76529883Y-60263883D01*
X76654910Y-60111538D01*
X76747814Y-59937727D01*
X76805024Y-59749132D01*
X76824341Y-59553000D01*
X76805024Y-59356868D01*
X76747814Y-59168273D01*
X76654910Y-58994462D01*
X76654907Y-58994458D01*
X76651523Y-58989393D01*
X76653164Y-58988296D01*
X76629405Y-58932361D01*
X76641194Y-58863493D01*
X76651888Y-58846851D01*
X76651523Y-58846607D01*
X76654904Y-58841544D01*
X76654910Y-58841538D01*
X76747814Y-58667727D01*
X76805024Y-58479132D01*
X76824341Y-58283000D01*
X76805024Y-58086868D01*
X76747814Y-57898273D01*
X76654910Y-57724462D01*
X76654906Y-57724457D01*
X76651526Y-57719399D01*
X76653044Y-57718384D01*
X76629081Y-57661962D01*
X76640872Y-57593094D01*
X76651492Y-57576574D01*
X76651111Y-57576320D01*
X76654497Y-57571252D01*
X76747347Y-57397541D01*
X76788160Y-57263000D01*
X76033483Y-57263000D01*
X76104801Y-57178007D01*
X76144000Y-57070306D01*
X76144000Y-56955694D01*
X76104801Y-56847993D01*
X76033483Y-56763000D01*
X76788160Y-56763000D01*
X76788160Y-56762999D01*
X76747347Y-56628458D01*
X76654496Y-56454746D01*
X76651110Y-56449678D01*
X76652784Y-56448559D01*
X76629081Y-56392746D01*
X76640874Y-56323879D01*
X76651839Y-56306818D01*
X76651523Y-56306607D01*
X76654904Y-56301544D01*
X76654910Y-56301538D01*
X76747814Y-56127727D01*
X76805024Y-55939132D01*
X76824341Y-55743000D01*
X76805024Y-55546868D01*
X76747814Y-55358273D01*
X76746677Y-55356146D01*
X76746418Y-55354904D01*
X76745483Y-55352645D01*
X76745911Y-55352467D01*
X76732435Y-55287746D01*
X76756771Y-55223379D01*
X76762796Y-55215331D01*
X76813091Y-55080483D01*
X76819500Y-55020873D01*
X76819499Y-53925128D01*
X76813091Y-53865517D01*
X76774525Y-53762117D01*
X76762797Y-53730671D01*
X76762793Y-53730664D01*
X76676547Y-53615455D01*
X76676544Y-53615452D01*
X76561335Y-53529206D01*
X76561328Y-53529202D01*
X76426482Y-53478908D01*
X76426483Y-53478908D01*
X76366883Y-53472501D01*
X76366881Y-53472500D01*
X76366873Y-53472500D01*
X76366864Y-53472500D01*
X75271129Y-53472500D01*
X75271123Y-53472501D01*
X75211516Y-53478908D01*
X75076671Y-53529202D01*
X75076666Y-53529205D01*
X75068614Y-53535233D01*
X75003149Y-53559648D01*
X74939530Y-53546104D01*
X74939359Y-53546518D01*
X74937123Y-53545592D01*
X74935850Y-53545321D01*
X74933729Y-53544187D01*
X74933728Y-53544186D01*
X74933727Y-53544186D01*
X74745132Y-53486976D01*
X74745129Y-53486975D01*
X74549000Y-53467659D01*
X74352870Y-53486975D01*
X74164266Y-53544188D01*
X73990467Y-53637086D01*
X73990460Y-53637090D01*
X73838116Y-53762116D01*
X73713090Y-53914460D01*
X73713086Y-53914467D01*
X73620188Y-54088266D01*
X73562975Y-54276870D01*
X73543659Y-54473000D01*
X73562975Y-54669129D01*
X73564445Y-54673974D01*
X73620023Y-54857191D01*
X73620188Y-54857733D01*
X73713086Y-55031532D01*
X73716473Y-55036601D01*
X73714836Y-55037694D01*
X73738596Y-55093663D01*
X73726795Y-55162529D01*
X73716109Y-55179156D01*
X73716473Y-55179399D01*
X73713086Y-55184467D01*
X73620188Y-55358266D01*
X73562975Y-55546870D01*
X73543659Y-55743000D01*
X73562975Y-55939129D01*
X73620188Y-56127733D01*
X73713086Y-56301532D01*
X73716473Y-56306601D01*
X73714955Y-56307615D01*
X73738918Y-56364042D01*
X73727124Y-56432909D01*
X73716515Y-56449420D01*
X73716893Y-56449673D01*
X73713505Y-56454742D01*
X73620652Y-56628458D01*
X73579839Y-56762999D01*
X73579840Y-56763000D01*
X74334517Y-56763000D01*
X74263199Y-56847993D01*
X74224000Y-56955694D01*
X74224000Y-57070306D01*
X74263199Y-57178007D01*
X74334517Y-57263000D01*
X73579840Y-57263000D01*
X73620652Y-57397541D01*
X73713503Y-57571253D01*
X73716890Y-57576322D01*
X73715215Y-57577440D01*
X73738918Y-57633259D01*
X73727123Y-57702125D01*
X73716158Y-57719188D01*
X73716473Y-57719399D01*
X73713086Y-57724467D01*
X73620188Y-57898266D01*
X73562975Y-58086870D01*
X73543659Y-58283000D01*
X73562975Y-58479129D01*
X73620188Y-58667733D01*
X73713086Y-58841532D01*
X73716473Y-58846601D01*
X73714836Y-58847694D01*
X73738596Y-58903663D01*
X73726795Y-58972529D01*
X73716109Y-58989156D01*
X73716473Y-58989399D01*
X73713086Y-58994467D01*
X73620188Y-59168266D01*
X73562975Y-59356870D01*
X73543659Y-59553000D01*
X20071588Y-59553000D01*
X21245719Y-58378870D01*
X26766500Y-58378870D01*
X26766501Y-58378876D01*
X26772908Y-58438483D01*
X26823202Y-58573328D01*
X26823206Y-58573335D01*
X26909452Y-58688544D01*
X26909455Y-58688547D01*
X27024664Y-58774793D01*
X27024671Y-58774797D01*
X27159517Y-58825091D01*
X27159516Y-58825091D01*
X27166444Y-58825835D01*
X27219127Y-58831500D01*
X28914872Y-58831499D01*
X28974483Y-58825091D01*
X29109331Y-58774796D01*
X29224546Y-58688546D01*
X29310796Y-58573331D01*
X29361091Y-58438483D01*
X29367500Y-58378873D01*
X29367499Y-56683128D01*
X29361091Y-56623517D01*
X29360472Y-56621858D01*
X29310797Y-56488671D01*
X29310793Y-56488664D01*
X29224547Y-56373455D01*
X29224544Y-56373452D01*
X29109335Y-56287206D01*
X29109328Y-56287202D01*
X28974482Y-56236908D01*
X28974483Y-56236908D01*
X28914883Y-56230501D01*
X28914881Y-56230500D01*
X28914873Y-56230500D01*
X28914864Y-56230500D01*
X27219129Y-56230500D01*
X27219123Y-56230501D01*
X27159516Y-56236908D01*
X27024671Y-56287202D01*
X27024664Y-56287206D01*
X26909455Y-56373452D01*
X26909452Y-56373455D01*
X26823206Y-56488664D01*
X26823202Y-56488671D01*
X26772908Y-56623517D01*
X26768901Y-56660792D01*
X26766501Y-56683123D01*
X26766500Y-56683135D01*
X26766500Y-58378870D01*
X21245719Y-58378870D01*
X25593588Y-54031002D01*
X26762034Y-54031002D01*
X26781858Y-54257599D01*
X26781860Y-54257610D01*
X26840730Y-54477317D01*
X26840735Y-54477331D01*
X26936863Y-54683478D01*
X26987974Y-54756472D01*
X27669046Y-54075400D01*
X27681835Y-54156148D01*
X27739359Y-54269045D01*
X27828955Y-54358641D01*
X27941852Y-54416165D01*
X28022599Y-54428953D01*
X27341526Y-55110025D01*
X27414513Y-55161132D01*
X27414521Y-55161136D01*
X27620668Y-55257264D01*
X27620682Y-55257269D01*
X27840389Y-55316139D01*
X27840400Y-55316141D01*
X28066998Y-55335966D01*
X28067002Y-55335966D01*
X28293599Y-55316141D01*
X28293610Y-55316139D01*
X28513317Y-55257269D01*
X28513331Y-55257264D01*
X28719478Y-55161136D01*
X28792471Y-55110024D01*
X28111400Y-54428953D01*
X28192148Y-54416165D01*
X28305045Y-54358641D01*
X28394641Y-54269045D01*
X28452165Y-54156148D01*
X28464953Y-54075400D01*
X29146024Y-54756471D01*
X29197136Y-54683478D01*
X29293264Y-54477331D01*
X29293269Y-54477317D01*
X29311073Y-54410870D01*
X35291500Y-54410870D01*
X35291501Y-54410876D01*
X35297908Y-54470483D01*
X35348202Y-54605328D01*
X35348206Y-54605335D01*
X35434452Y-54720544D01*
X35434455Y-54720547D01*
X35549664Y-54806793D01*
X35549671Y-54806797D01*
X35684517Y-54857091D01*
X35684516Y-54857091D01*
X35690432Y-54857727D01*
X35744127Y-54863500D01*
X37339872Y-54863499D01*
X37399483Y-54857091D01*
X37534331Y-54806796D01*
X37649546Y-54720546D01*
X37735796Y-54605331D01*
X37786091Y-54470483D01*
X37792500Y-54410873D01*
X37792499Y-54346411D01*
X37812183Y-54279375D01*
X37864986Y-54233619D01*
X37934144Y-54223675D01*
X37997700Y-54252699D01*
X38016817Y-54273528D01*
X38136851Y-54438741D01*
X38136857Y-54438749D01*
X38299486Y-54594237D01*
X38487266Y-54718191D01*
X38694169Y-54806624D01*
X38694178Y-54806627D01*
X38831999Y-54838084D01*
X38832000Y-54838084D01*
X38832000Y-53648501D01*
X38939685Y-53697680D01*
X39046237Y-53713000D01*
X39117763Y-53713000D01*
X39224315Y-53697680D01*
X39332000Y-53648501D01*
X39332000Y-54840549D01*
X39361267Y-54836586D01*
X39361273Y-54836585D01*
X39575268Y-54767054D01*
X39773401Y-54660434D01*
X39773404Y-54660432D01*
X39949320Y-54520145D01*
X40097352Y-54350707D01*
X40097359Y-54350699D01*
X40212759Y-54157553D01*
X40212765Y-54157542D01*
X40235007Y-54098277D01*
X40276991Y-54042428D01*
X40342505Y-54018144D01*
X40410748Y-54033135D01*
X40460053Y-54082640D01*
X40462820Y-54088045D01*
X40544167Y-54256966D01*
X40544171Y-54256974D01*
X40676473Y-54439072D01*
X40676474Y-54439074D01*
X40676477Y-54439077D01*
X40676478Y-54439078D01*
X40697219Y-54458908D01*
X40839176Y-54594633D01*
X41027033Y-54718636D01*
X41234004Y-54807100D01*
X41234007Y-54807101D01*
X41234012Y-54807103D01*
X41453463Y-54857191D01*
X41678330Y-54867290D01*
X41901387Y-54837075D01*
X42115464Y-54767517D01*
X42313681Y-54660852D01*
X42489666Y-54520508D01*
X42637765Y-54350996D01*
X42753215Y-54157764D01*
X42832307Y-53947024D01*
X42860267Y-53792955D01*
X42872500Y-53725549D01*
X42872500Y-52756852D01*
X42872500Y-52756845D01*
X42857377Y-52588812D01*
X42827064Y-52478976D01*
X42797496Y-52371839D01*
X42797491Y-52371826D01*
X42699832Y-52169033D01*
X42699828Y-52169025D01*
X42567526Y-51986927D01*
X42567525Y-51986925D01*
X42404823Y-51831366D01*
X42216966Y-51707363D01*
X42009995Y-51618899D01*
X42009982Y-51618895D01*
X41790542Y-51568810D01*
X41790538Y-51568809D01*
X41790537Y-51568809D01*
X41790536Y-51568808D01*
X41790531Y-51568808D01*
X41565674Y-51558710D01*
X41565673Y-51558710D01*
X41565670Y-51558710D01*
X41342613Y-51588925D01*
X41342610Y-51588925D01*
X41342609Y-51588926D01*
X41128534Y-51658483D01*
X40930321Y-51765146D01*
X40930318Y-51765148D01*
X40754336Y-51905489D01*
X40606236Y-52075003D01*
X40490787Y-52268231D01*
X40468449Y-52327750D01*
X40426463Y-52383597D01*
X40360948Y-52407880D01*
X40292706Y-52392888D01*
X40243402Y-52343381D01*
X40240636Y-52337979D01*
X40159401Y-52169290D01*
X40159397Y-52169283D01*
X40027148Y-51987258D01*
X40027142Y-51987250D01*
X39864513Y-51831762D01*
X39676733Y-51707808D01*
X39469830Y-51619375D01*
X39469823Y-51619373D01*
X39332000Y-51587915D01*
X39332000Y-52777498D01*
X39224315Y-52728320D01*
X39117763Y-52713000D01*
X39046237Y-52713000D01*
X38939685Y-52728320D01*
X38832000Y-52777498D01*
X38832000Y-51585449D01*
X38831999Y-51585449D01*
X38802721Y-51589415D01*
X38588731Y-51658945D01*
X38390598Y-51765565D01*
X38390595Y-51765567D01*
X38214679Y-51905854D01*
X38066647Y-52075292D01*
X38066644Y-52075296D01*
X38022946Y-52148433D01*
X37971663Y-52195886D01*
X37902865Y-52208080D01*
X37838397Y-52181144D01*
X37798725Y-52123630D01*
X37792499Y-52084832D01*
X37792499Y-52015129D01*
X37792498Y-52015123D01*
X37792497Y-52015116D01*
X37786091Y-51955517D01*
X37739933Y-51831762D01*
X37735797Y-51820671D01*
X37735793Y-51820664D01*
X37649547Y-51705455D01*
X37649544Y-51705452D01*
X37534335Y-51619206D01*
X37534328Y-51619202D01*
X37399482Y-51568908D01*
X37399483Y-51568908D01*
X37339883Y-51562501D01*
X37339881Y-51562500D01*
X37339873Y-51562500D01*
X37339864Y-51562500D01*
X35744129Y-51562500D01*
X35744123Y-51562501D01*
X35684516Y-51568908D01*
X35549671Y-51619202D01*
X35549664Y-51619206D01*
X35434455Y-51705452D01*
X35434452Y-51705455D01*
X35348206Y-51820664D01*
X35348202Y-51820671D01*
X35297908Y-51955517D01*
X35294497Y-51987250D01*
X35291501Y-52015123D01*
X35291500Y-52015135D01*
X35291500Y-54410870D01*
X29311073Y-54410870D01*
X29352139Y-54257610D01*
X29352141Y-54257599D01*
X29371966Y-54031002D01*
X29371966Y-54030997D01*
X29352141Y-53804400D01*
X29352139Y-53804389D01*
X29293269Y-53584682D01*
X29293264Y-53584668D01*
X29197136Y-53378521D01*
X29197132Y-53378513D01*
X29146025Y-53305526D01*
X28464953Y-53986598D01*
X28452165Y-53905852D01*
X28394641Y-53792955D01*
X28305045Y-53703359D01*
X28192148Y-53645835D01*
X28111401Y-53633046D01*
X28792472Y-52951974D01*
X28719478Y-52900863D01*
X28513331Y-52804735D01*
X28513317Y-52804730D01*
X28293610Y-52745860D01*
X28293599Y-52745858D01*
X28067002Y-52726034D01*
X28066998Y-52726034D01*
X27840400Y-52745858D01*
X27840389Y-52745860D01*
X27620682Y-52804730D01*
X27620673Y-52804734D01*
X27414516Y-52900866D01*
X27414512Y-52900868D01*
X27341526Y-52951973D01*
X27341526Y-52951974D01*
X28022599Y-53633046D01*
X27941852Y-53645835D01*
X27828955Y-53703359D01*
X27739359Y-53792955D01*
X27681835Y-53905852D01*
X27669046Y-53986598D01*
X26987974Y-53305526D01*
X26987973Y-53305526D01*
X26936868Y-53378512D01*
X26936866Y-53378516D01*
X26840734Y-53584673D01*
X26840730Y-53584682D01*
X26781860Y-53804389D01*
X26781858Y-53804400D01*
X26762034Y-54030997D01*
X26762034Y-54031002D01*
X25593588Y-54031002D01*
X30956772Y-48667819D01*
X31018095Y-48634334D01*
X31044453Y-48631500D01*
X37238869Y-48631500D01*
X37305908Y-48651185D01*
X37351663Y-48703989D01*
X37361607Y-48773147D01*
X37332582Y-48836703D01*
X37329257Y-48840388D01*
X37308096Y-48862920D01*
X37305391Y-48865711D01*
X37285889Y-48885212D01*
X37285875Y-48885229D01*
X37283407Y-48888410D01*
X37275843Y-48897265D01*
X37245937Y-48929113D01*
X37245936Y-48929115D01*
X37236284Y-48946671D01*
X37225610Y-48962921D01*
X37213329Y-48978756D01*
X37213324Y-48978763D01*
X37195975Y-49018853D01*
X37190838Y-49029339D01*
X37169803Y-49067601D01*
X37164822Y-49087002D01*
X37158521Y-49105405D01*
X37150562Y-49123797D01*
X37150561Y-49123800D01*
X37143728Y-49166938D01*
X37141360Y-49178369D01*
X37130501Y-49220666D01*
X37130500Y-49220677D01*
X37130500Y-49240711D01*
X37128973Y-49260110D01*
X37125840Y-49279889D01*
X37125840Y-49279890D01*
X37129950Y-49323369D01*
X37130500Y-49335038D01*
X37130500Y-49416926D01*
X37110815Y-49483965D01*
X37079387Y-49517243D01*
X37071849Y-49522719D01*
X37071844Y-49522723D01*
X36945187Y-49663392D01*
X36850542Y-49827322D01*
X36850539Y-49827329D01*
X36801495Y-49978272D01*
X36792047Y-50007351D01*
X36772261Y-50195607D01*
X36792047Y-50383863D01*
X36792048Y-50383866D01*
X36850539Y-50563884D01*
X36850542Y-50563891D01*
X36945188Y-50727823D01*
X37071850Y-50868495D01*
X37224986Y-50979755D01*
X37224991Y-50979758D01*
X37397913Y-51056749D01*
X37397918Y-51056751D01*
X37583075Y-51096107D01*
X37583076Y-51096107D01*
X37772365Y-51096107D01*
X37772367Y-51096107D01*
X37957524Y-51056751D01*
X38130451Y-50979758D01*
X38283592Y-50868495D01*
X38410254Y-50727823D01*
X38504900Y-50563891D01*
X38504900Y-50563889D01*
X38508149Y-50558263D01*
X38510351Y-50559534D01*
X38548210Y-50514977D01*
X38590470Y-50497349D01*
X38760803Y-50461144D01*
X38760807Y-50461142D01*
X38760808Y-50461142D01*
X38819058Y-50435206D01*
X38933730Y-50384151D01*
X39086871Y-50272888D01*
X39213533Y-50132216D01*
X39308179Y-49968284D01*
X39366674Y-49788256D01*
X39384321Y-49620346D01*
X39410905Y-49555733D01*
X39419961Y-49545628D01*
X39717139Y-49248451D01*
X39778462Y-49214966D01*
X39804820Y-49212132D01*
X41066424Y-49212132D01*
X41133463Y-49231817D01*
X41158572Y-49253158D01*
X41164298Y-49259517D01*
X41164302Y-49259521D01*
X41317437Y-49370780D01*
X41317442Y-49370783D01*
X41490364Y-49447774D01*
X41490369Y-49447776D01*
X41675526Y-49487132D01*
X41675527Y-49487132D01*
X41864816Y-49487132D01*
X41864818Y-49487132D01*
X42049975Y-49447776D01*
X42222902Y-49370783D01*
X42376043Y-49259520D01*
X42376042Y-49259520D01*
X42381301Y-49255700D01*
X42383047Y-49258103D01*
X42434366Y-49233432D01*
X42480210Y-49234507D01*
X42651893Y-49271000D01*
X42651894Y-49271000D01*
X42841183Y-49271000D01*
X42841185Y-49271000D01*
X43026342Y-49231644D01*
X43199269Y-49154651D01*
X43352410Y-49043388D01*
X43479072Y-48902716D01*
X43573718Y-48738784D01*
X43632213Y-48558756D01*
X43651999Y-48370500D01*
X43632213Y-48182244D01*
X43573718Y-48002216D01*
X43569696Y-47995250D01*
X54455790Y-47995250D01*
X54475576Y-48183506D01*
X54475577Y-48183509D01*
X54534068Y-48363527D01*
X54534071Y-48363534D01*
X54628717Y-48527466D01*
X54755092Y-48667819D01*
X54755379Y-48668138D01*
X54908515Y-48779398D01*
X54908520Y-48779401D01*
X55081442Y-48856392D01*
X55081447Y-48856394D01*
X55266604Y-48895750D01*
X55266605Y-48895750D01*
X55455894Y-48895750D01*
X55455896Y-48895750D01*
X55641053Y-48856394D01*
X55813980Y-48779401D01*
X55967121Y-48668138D01*
X56093783Y-48527466D01*
X56188429Y-48363534D01*
X56246924Y-48183506D01*
X56266710Y-47995250D01*
X56246924Y-47806994D01*
X56188429Y-47626966D01*
X56093783Y-47463034D01*
X55967121Y-47322362D01*
X55967120Y-47322361D01*
X55813984Y-47211101D01*
X55813979Y-47211098D01*
X55641057Y-47134107D01*
X55641052Y-47134105D01*
X55484886Y-47100912D01*
X55455896Y-47094750D01*
X55266604Y-47094750D01*
X55237614Y-47100912D01*
X55081447Y-47134105D01*
X55081442Y-47134107D01*
X54908520Y-47211098D01*
X54908515Y-47211101D01*
X54755379Y-47322361D01*
X54628716Y-47463035D01*
X54534071Y-47626965D01*
X54534068Y-47626972D01*
X54475577Y-47806990D01*
X54475576Y-47806994D01*
X54455790Y-47995250D01*
X43569696Y-47995250D01*
X43479072Y-47838284D01*
X43352410Y-47697612D01*
X43352409Y-47697611D01*
X43199273Y-47586351D01*
X43199268Y-47586348D01*
X43026346Y-47509357D01*
X43026341Y-47509355D01*
X42880540Y-47478365D01*
X42841185Y-47470000D01*
X42841184Y-47470000D01*
X42783462Y-47470000D01*
X42716423Y-47450315D01*
X42698577Y-47436391D01*
X42674446Y-47413730D01*
X42671648Y-47411018D01*
X42652148Y-47391517D01*
X42652142Y-47391512D01*
X42648957Y-47389041D01*
X42640105Y-47381480D01*
X42608253Y-47351570D01*
X42608251Y-47351568D01*
X42608248Y-47351567D01*
X42590700Y-47341920D01*
X42574434Y-47331236D01*
X42558603Y-47318956D01*
X42518520Y-47301610D01*
X42508034Y-47296473D01*
X42469765Y-47275435D01*
X42469763Y-47275434D01*
X42450364Y-47270454D01*
X42431952Y-47264150D01*
X42413569Y-47256194D01*
X42413563Y-47256192D01*
X42370431Y-47249361D01*
X42358993Y-47246993D01*
X42316691Y-47236132D01*
X42316690Y-47236132D01*
X42296655Y-47236132D01*
X42277257Y-47234605D01*
X42269833Y-47233429D01*
X42257476Y-47231472D01*
X42257475Y-47231472D01*
X42213996Y-47235582D01*
X42202327Y-47236132D01*
X40283317Y-47236132D01*
X40216278Y-47216447D01*
X40170523Y-47163643D01*
X40160579Y-47094485D01*
X40189604Y-47030929D01*
X40195636Y-47024451D01*
X40750810Y-46469277D01*
X41511673Y-45708413D01*
X41523927Y-45698598D01*
X41523744Y-45698376D01*
X41529753Y-45693403D01*
X41529762Y-45693398D01*
X41575834Y-45644334D01*
X41578451Y-45641635D01*
X41598005Y-45622083D01*
X41600461Y-45618915D01*
X41608041Y-45610039D01*
X41637947Y-45578194D01*
X41647598Y-45560636D01*
X41658281Y-45544373D01*
X41670558Y-45528548D01*
X41687906Y-45488456D01*
X41693036Y-45477983D01*
X41714082Y-45439704D01*
X41719065Y-45420292D01*
X41725366Y-45401892D01*
X41733322Y-45383508D01*
X41740155Y-45340360D01*
X41742518Y-45328950D01*
X41753385Y-45286631D01*
X41753385Y-45266595D01*
X41754912Y-45247194D01*
X41756074Y-45239857D01*
X41758045Y-45227416D01*
X41753935Y-45183936D01*
X41753385Y-45172267D01*
X41753385Y-43868322D01*
X41755109Y-43852702D01*
X41754824Y-43852675D01*
X41755558Y-43844913D01*
X41753446Y-43777692D01*
X41753385Y-43773798D01*
X41753385Y-43746236D01*
X41753385Y-43746230D01*
X41752881Y-43742248D01*
X41751966Y-43730609D01*
X41751744Y-43723533D01*
X41750595Y-43686953D01*
X41745004Y-43667710D01*
X41741058Y-43648658D01*
X41738549Y-43628788D01*
X41722464Y-43588163D01*
X41718689Y-43577135D01*
X41706503Y-43535190D01*
X41696304Y-43517944D01*
X41687743Y-43500468D01*
X41680372Y-43481851D01*
X41680371Y-43481848D01*
X41654690Y-43446501D01*
X41648294Y-43436762D01*
X41631104Y-43407696D01*
X41626058Y-43399163D01*
X41626051Y-43399154D01*
X41611890Y-43384993D01*
X41599255Y-43370200D01*
X41587478Y-43353992D01*
X41553830Y-43326156D01*
X41545189Y-43318293D01*
X40418036Y-42191140D01*
X40384551Y-42129817D01*
X40389535Y-42060125D01*
X40431407Y-42004192D01*
X40455281Y-41990180D01*
X40597346Y-41926928D01*
X40750487Y-41815665D01*
X40877149Y-41674993D01*
X40971795Y-41511061D01*
X41030290Y-41331033D01*
X41050076Y-41142777D01*
X41030290Y-40954521D01*
X40971795Y-40774493D01*
X40889326Y-40631653D01*
X40872854Y-40563754D01*
X40895707Y-40497727D01*
X40950628Y-40454536D01*
X40985051Y-40446204D01*
X40986681Y-40446050D01*
X40998344Y-40445500D01*
X43793049Y-40445500D01*
X43808669Y-40447224D01*
X43808696Y-40446939D01*
X43816452Y-40447671D01*
X43816459Y-40447673D01*
X43883665Y-40445561D01*
X43887560Y-40445500D01*
X43915138Y-40445500D01*
X43915142Y-40445500D01*
X43919116Y-40444997D01*
X43930755Y-40444080D01*
X43974419Y-40442709D01*
X43993661Y-40437117D01*
X44012704Y-40433174D01*
X44032584Y-40430664D01*
X44073193Y-40414585D01*
X44084236Y-40410803D01*
X44126182Y-40398618D01*
X44143421Y-40388422D01*
X44160895Y-40379862D01*
X44179519Y-40372488D01*
X44179519Y-40372487D01*
X44179524Y-40372486D01*
X44214875Y-40346800D01*
X44224606Y-40340408D01*
X44262212Y-40318170D01*
X44276381Y-40303999D01*
X44291171Y-40291368D01*
X44307379Y-40279594D01*
X44335230Y-40245926D01*
X44343071Y-40237309D01*
X44448380Y-40132000D01*
X49259540Y-40132000D01*
X49279326Y-40320256D01*
X49279327Y-40320259D01*
X49337818Y-40500277D01*
X49337821Y-40500284D01*
X49432467Y-40664216D01*
X49503211Y-40742785D01*
X49559129Y-40804888D01*
X49712265Y-40916148D01*
X49712270Y-40916151D01*
X49885192Y-40993142D01*
X49885197Y-40993144D01*
X50070354Y-41032500D01*
X50070355Y-41032500D01*
X50259644Y-41032500D01*
X50259646Y-41032500D01*
X50444803Y-40993144D01*
X50617730Y-40916151D01*
X50770871Y-40804888D01*
X50897533Y-40664216D01*
X50992179Y-40500284D01*
X51050674Y-40320256D01*
X51070460Y-40132000D01*
X51050674Y-39943744D01*
X50992179Y-39763716D01*
X50897533Y-39599784D01*
X50770871Y-39459112D01*
X50770870Y-39459111D01*
X50617734Y-39347851D01*
X50617729Y-39347848D01*
X50444807Y-39270857D01*
X50444802Y-39270855D01*
X50299001Y-39239865D01*
X50259646Y-39231500D01*
X50070354Y-39231500D01*
X50037897Y-39238398D01*
X49885197Y-39270855D01*
X49885192Y-39270857D01*
X49712270Y-39347848D01*
X49712265Y-39347851D01*
X49559129Y-39459111D01*
X49432466Y-39599785D01*
X49337821Y-39763715D01*
X49337818Y-39763722D01*
X49280784Y-39939256D01*
X49279326Y-39943744D01*
X49259540Y-40132000D01*
X44448380Y-40132000D01*
X46892563Y-37687819D01*
X46953886Y-37654334D01*
X46980244Y-37651500D01*
X55764152Y-37651500D01*
X55831191Y-37671185D01*
X55851833Y-37687819D01*
X59282181Y-41118167D01*
X59315666Y-41179490D01*
X59318500Y-41205848D01*
X59318500Y-42670263D01*
X59298815Y-42737302D01*
X59246011Y-42783057D01*
X59176853Y-42793001D01*
X59168720Y-42791554D01*
X59149646Y-42787500D01*
X58960354Y-42787500D01*
X58934474Y-42793001D01*
X58775197Y-42826855D01*
X58775192Y-42826857D01*
X58602270Y-42903848D01*
X58602265Y-42903851D01*
X58449129Y-43015111D01*
X58322466Y-43155785D01*
X58227821Y-43319715D01*
X58227818Y-43319722D01*
X58183791Y-43455225D01*
X58144353Y-43512901D01*
X58079995Y-43540099D01*
X58011148Y-43528184D01*
X57978179Y-43504588D01*
X54278960Y-39805369D01*
X54245475Y-39744046D01*
X54243323Y-39730668D01*
X54225674Y-39562744D01*
X54167179Y-39382716D01*
X54072533Y-39218784D01*
X53945871Y-39078112D01*
X53945870Y-39078111D01*
X53792734Y-38966851D01*
X53792729Y-38966848D01*
X53619807Y-38889857D01*
X53619802Y-38889855D01*
X53474001Y-38858865D01*
X53434646Y-38850500D01*
X53245354Y-38850500D01*
X53212897Y-38857398D01*
X53060197Y-38889855D01*
X53060192Y-38889857D01*
X52887270Y-38966848D01*
X52887265Y-38966851D01*
X52734129Y-39078111D01*
X52607466Y-39218785D01*
X52512821Y-39382715D01*
X52512818Y-39382722D01*
X52467427Y-39522422D01*
X52454326Y-39562744D01*
X52434540Y-39751000D01*
X52454326Y-39939256D01*
X52454327Y-39939259D01*
X52512818Y-40119277D01*
X52512821Y-40119284D01*
X52607467Y-40283216D01*
X52687848Y-40372488D01*
X52734129Y-40423888D01*
X52887265Y-40535148D01*
X52887270Y-40535151D01*
X53060192Y-40612142D01*
X53060197Y-40612144D01*
X53245354Y-40651500D01*
X53304548Y-40651500D01*
X53371587Y-40671185D01*
X53392229Y-40687819D01*
X58557181Y-45852771D01*
X58590666Y-45914094D01*
X58593500Y-45940452D01*
X58593500Y-47053312D01*
X58573815Y-47120351D01*
X58561650Y-47136284D01*
X58486466Y-47219784D01*
X58391821Y-47383715D01*
X58391818Y-47383722D01*
X58333327Y-47563740D01*
X58333326Y-47563744D01*
X58313540Y-47752000D01*
X58333326Y-47940256D01*
X58333327Y-47940259D01*
X58391818Y-48120277D01*
X58391821Y-48120284D01*
X58486467Y-48284216D01*
X58564158Y-48370500D01*
X58613129Y-48424888D01*
X58766265Y-48536148D01*
X58766270Y-48536151D01*
X58939192Y-48613142D01*
X58939197Y-48613144D01*
X59124354Y-48652500D01*
X59124355Y-48652500D01*
X59194500Y-48652500D01*
X59261539Y-48672185D01*
X59307294Y-48724989D01*
X59318500Y-48776500D01*
X59318500Y-49473547D01*
X59298815Y-49540586D01*
X59282181Y-49561228D01*
X56694228Y-52149181D01*
X56632905Y-52182666D01*
X56606547Y-52185500D01*
X56547354Y-52185500D01*
X56514897Y-52192398D01*
X56362197Y-52224855D01*
X56362192Y-52224857D01*
X56224707Y-52286071D01*
X56155457Y-52295356D01*
X56092180Y-52265728D01*
X56062551Y-52226593D01*
X56034829Y-52169027D01*
X56001846Y-52123630D01*
X55902526Y-51986927D01*
X55902525Y-51986925D01*
X55739823Y-51831366D01*
X55551966Y-51707363D01*
X55344995Y-51618899D01*
X55344982Y-51618895D01*
X55125542Y-51568810D01*
X55125538Y-51568809D01*
X55125537Y-51568809D01*
X55125536Y-51568808D01*
X55125531Y-51568808D01*
X54900674Y-51558710D01*
X54900673Y-51558710D01*
X54900670Y-51558710D01*
X54677613Y-51588925D01*
X54677610Y-51588925D01*
X54677609Y-51588926D01*
X54463534Y-51658483D01*
X54265321Y-51765146D01*
X54265318Y-51765148D01*
X54089336Y-51905489D01*
X53941236Y-52075003D01*
X53825787Y-52268231D01*
X53803449Y-52327750D01*
X53761463Y-52383597D01*
X53695948Y-52407880D01*
X53627706Y-52392888D01*
X53578402Y-52343381D01*
X53575636Y-52337979D01*
X53494401Y-52169290D01*
X53494397Y-52169283D01*
X53362148Y-51987258D01*
X53362142Y-51987250D01*
X53199513Y-51831762D01*
X53011733Y-51707808D01*
X52804830Y-51619375D01*
X52804823Y-51619373D01*
X52667000Y-51587915D01*
X52667000Y-52777498D01*
X52559315Y-52728320D01*
X52452763Y-52713000D01*
X52381237Y-52713000D01*
X52274685Y-52728320D01*
X52167000Y-52777498D01*
X52167000Y-51585449D01*
X52166999Y-51585449D01*
X52137721Y-51589415D01*
X51923731Y-51658945D01*
X51725598Y-51765565D01*
X51725595Y-51765567D01*
X51549679Y-51905854D01*
X51401647Y-52075292D01*
X51401644Y-52075296D01*
X51357946Y-52148433D01*
X51306663Y-52195886D01*
X51237865Y-52208080D01*
X51173397Y-52181144D01*
X51133725Y-52123630D01*
X51127499Y-52084832D01*
X51127499Y-52015129D01*
X51127498Y-52015123D01*
X51127497Y-52015116D01*
X51121091Y-51955517D01*
X51074933Y-51831762D01*
X51070797Y-51820671D01*
X51070793Y-51820664D01*
X50984547Y-51705455D01*
X50984544Y-51705452D01*
X50869335Y-51619206D01*
X50869328Y-51619202D01*
X50734482Y-51568908D01*
X50734483Y-51568908D01*
X50674883Y-51562501D01*
X50674881Y-51562500D01*
X50674873Y-51562500D01*
X50674864Y-51562500D01*
X49079129Y-51562500D01*
X49079123Y-51562501D01*
X49019516Y-51568908D01*
X48884671Y-51619202D01*
X48884664Y-51619206D01*
X48769455Y-51705452D01*
X48769452Y-51705455D01*
X48683206Y-51820664D01*
X48683202Y-51820671D01*
X48632908Y-51955517D01*
X48629497Y-51987250D01*
X48626501Y-52015123D01*
X48626500Y-52015135D01*
X48626500Y-54410870D01*
X48626501Y-54410876D01*
X48632908Y-54470483D01*
X48683202Y-54605328D01*
X48683206Y-54605335D01*
X48769452Y-54720544D01*
X48769455Y-54720547D01*
X48884664Y-54806793D01*
X48884671Y-54806797D01*
X49019517Y-54857091D01*
X49019516Y-54857091D01*
X49025432Y-54857727D01*
X49079127Y-54863500D01*
X50674872Y-54863499D01*
X50734483Y-54857091D01*
X50869331Y-54806796D01*
X50984546Y-54720546D01*
X51070796Y-54605331D01*
X51121091Y-54470483D01*
X51127500Y-54410873D01*
X51127499Y-54346411D01*
X51147183Y-54279375D01*
X51199986Y-54233619D01*
X51269144Y-54223675D01*
X51332700Y-54252699D01*
X51351817Y-54273528D01*
X51471851Y-54438741D01*
X51471857Y-54438749D01*
X51634486Y-54594237D01*
X51822266Y-54718191D01*
X52029169Y-54806624D01*
X52029178Y-54806627D01*
X52166999Y-54838084D01*
X52167000Y-54838084D01*
X52167000Y-53648501D01*
X52274685Y-53697680D01*
X52381237Y-53713000D01*
X52452763Y-53713000D01*
X52559315Y-53697680D01*
X52667000Y-53648501D01*
X52667000Y-54840549D01*
X52696267Y-54836586D01*
X52696273Y-54836585D01*
X52910269Y-54767053D01*
X52910270Y-54767053D01*
X52977603Y-54730819D01*
X53045965Y-54716384D01*
X53111279Y-54741200D01*
X53152808Y-54797388D01*
X53157367Y-54867109D01*
X53154295Y-54878329D01*
X53096327Y-55056739D01*
X53096327Y-55056740D01*
X53096326Y-55056744D01*
X53076540Y-55245000D01*
X53096326Y-55433256D01*
X53096327Y-55433259D01*
X53154818Y-55613277D01*
X53154821Y-55613284D01*
X53249467Y-55777216D01*
X53340347Y-55878148D01*
X53376129Y-55917888D01*
X53529265Y-56029148D01*
X53529270Y-56029151D01*
X53702192Y-56106142D01*
X53702197Y-56106144D01*
X53887354Y-56145500D01*
X53887355Y-56145500D01*
X54076644Y-56145500D01*
X54076646Y-56145500D01*
X54261803Y-56106144D01*
X54434730Y-56029151D01*
X54436776Y-56027664D01*
X54448452Y-56019182D01*
X54514258Y-55995702D01*
X54521337Y-55995500D01*
X55392663Y-55995500D01*
X55459702Y-56015185D01*
X55465548Y-56019182D01*
X55479265Y-56029148D01*
X55479270Y-56029151D01*
X55652192Y-56106142D01*
X55652197Y-56106144D01*
X55837354Y-56145500D01*
X55837355Y-56145500D01*
X56026644Y-56145500D01*
X56026646Y-56145500D01*
X56211803Y-56106144D01*
X56384730Y-56029151D01*
X56537871Y-55917888D01*
X56664533Y-55777216D01*
X56678513Y-55753002D01*
X60417034Y-55753002D01*
X60436858Y-55979599D01*
X60436860Y-55979610D01*
X60495730Y-56199317D01*
X60495735Y-56199331D01*
X60591863Y-56405478D01*
X60642974Y-56478472D01*
X61324046Y-55797400D01*
X61336835Y-55878148D01*
X61394359Y-55991045D01*
X61483955Y-56080641D01*
X61596852Y-56138165D01*
X61677599Y-56150953D01*
X60996526Y-56832025D01*
X61069513Y-56883132D01*
X61069521Y-56883136D01*
X61275668Y-56979264D01*
X61275682Y-56979269D01*
X61495389Y-57038139D01*
X61495400Y-57038141D01*
X61721998Y-57057966D01*
X61722002Y-57057966D01*
X61948599Y-57038141D01*
X61948610Y-57038139D01*
X62168317Y-56979269D01*
X62168331Y-56979264D01*
X62374478Y-56883136D01*
X62447471Y-56832024D01*
X62216317Y-56600870D01*
X63921500Y-56600870D01*
X63921501Y-56600876D01*
X63927908Y-56660483D01*
X63978202Y-56795328D01*
X63978206Y-56795335D01*
X64064452Y-56910544D01*
X64064455Y-56910547D01*
X64179664Y-56996793D01*
X64179671Y-56996797D01*
X64314517Y-57047091D01*
X64314516Y-57047091D01*
X64321444Y-57047835D01*
X64374127Y-57053500D01*
X66069872Y-57053499D01*
X66129483Y-57047091D01*
X66264331Y-56996796D01*
X66379546Y-56910546D01*
X66465796Y-56795331D01*
X66516091Y-56660483D01*
X66522500Y-56600873D01*
X66522499Y-54905128D01*
X66516091Y-54845517D01*
X66512942Y-54837075D01*
X66465797Y-54710671D01*
X66465793Y-54710664D01*
X66379547Y-54595455D01*
X66379544Y-54595452D01*
X66264335Y-54509206D01*
X66264328Y-54509202D01*
X66129482Y-54458908D01*
X66129483Y-54458908D01*
X66069883Y-54452501D01*
X66069881Y-54452500D01*
X66069873Y-54452500D01*
X66069864Y-54452500D01*
X64374129Y-54452500D01*
X64374123Y-54452501D01*
X64314516Y-54458908D01*
X64179671Y-54509202D01*
X64179664Y-54509206D01*
X64064455Y-54595452D01*
X64064452Y-54595455D01*
X63978206Y-54710664D01*
X63978202Y-54710671D01*
X63927908Y-54845517D01*
X63924381Y-54878329D01*
X63921501Y-54905123D01*
X63921500Y-54905135D01*
X63921500Y-56600870D01*
X62216317Y-56600870D01*
X61766400Y-56150953D01*
X61847148Y-56138165D01*
X61960045Y-56080641D01*
X62049641Y-55991045D01*
X62107165Y-55878148D01*
X62119953Y-55797400D01*
X62801024Y-56478471D01*
X62852136Y-56405478D01*
X62948264Y-56199331D01*
X62948269Y-56199317D01*
X63007139Y-55979610D01*
X63007141Y-55979599D01*
X63026966Y-55753002D01*
X63026966Y-55752997D01*
X63007141Y-55526400D01*
X63007139Y-55526389D01*
X62948269Y-55306682D01*
X62948264Y-55306668D01*
X62852136Y-55100521D01*
X62852132Y-55100513D01*
X62801025Y-55027526D01*
X62119953Y-55708598D01*
X62107165Y-55627852D01*
X62049641Y-55514955D01*
X61960045Y-55425359D01*
X61847148Y-55367835D01*
X61766401Y-55355046D01*
X62447472Y-54673974D01*
X62374478Y-54622863D01*
X62168331Y-54526735D01*
X62168317Y-54526730D01*
X61948610Y-54467860D01*
X61948599Y-54467858D01*
X61722002Y-54448034D01*
X61721998Y-54448034D01*
X61495400Y-54467858D01*
X61495389Y-54467860D01*
X61275682Y-54526730D01*
X61275673Y-54526734D01*
X61069516Y-54622866D01*
X61069512Y-54622868D01*
X60996526Y-54673973D01*
X60996526Y-54673974D01*
X61677599Y-55355046D01*
X61596852Y-55367835D01*
X61483955Y-55425359D01*
X61394359Y-55514955D01*
X61336835Y-55627852D01*
X61324046Y-55708598D01*
X60642974Y-55027526D01*
X60642973Y-55027526D01*
X60591868Y-55100512D01*
X60591866Y-55100516D01*
X60495734Y-55306673D01*
X60495730Y-55306682D01*
X60436860Y-55526389D01*
X60436858Y-55526400D01*
X60417034Y-55752997D01*
X60417034Y-55753002D01*
X56678513Y-55753002D01*
X56759179Y-55613284D01*
X56817674Y-55433256D01*
X56837460Y-55245000D01*
X56817674Y-55056744D01*
X56759179Y-54876716D01*
X56664533Y-54712784D01*
X56537871Y-54572112D01*
X56475415Y-54526735D01*
X56384734Y-54460851D01*
X56384729Y-54460848D01*
X56211807Y-54383857D01*
X56211803Y-54383856D01*
X56151874Y-54371117D01*
X56090392Y-54337924D01*
X56056616Y-54276760D01*
X56061270Y-54207046D01*
X56071205Y-54186232D01*
X56088215Y-54157764D01*
X56148912Y-53996034D01*
X56190897Y-53940188D01*
X56256411Y-53915904D01*
X56315441Y-53926327D01*
X56344697Y-53939352D01*
X56362197Y-53947144D01*
X56547354Y-53986500D01*
X56547355Y-53986500D01*
X56736644Y-53986500D01*
X56736646Y-53986500D01*
X56921803Y-53947144D01*
X57094730Y-53870151D01*
X57247871Y-53758888D01*
X57374533Y-53618216D01*
X57469179Y-53454284D01*
X57527674Y-53274256D01*
X57545321Y-53106345D01*
X57571905Y-53041732D01*
X57580952Y-53031636D01*
X60327788Y-50284801D01*
X60340042Y-50274986D01*
X60339859Y-50274764D01*
X60345868Y-50269791D01*
X60345877Y-50269786D01*
X60391949Y-50220722D01*
X60394566Y-50218023D01*
X60414120Y-50198471D01*
X60416576Y-50195303D01*
X60424156Y-50186427D01*
X60454062Y-50154582D01*
X60463713Y-50137024D01*
X60474396Y-50120761D01*
X60486673Y-50104936D01*
X60504021Y-50064844D01*
X60509151Y-50054371D01*
X60530197Y-50016092D01*
X60535180Y-49996680D01*
X60541481Y-49978280D01*
X60549437Y-49959896D01*
X60556270Y-49916748D01*
X60558633Y-49905338D01*
X60569500Y-49863019D01*
X60569500Y-49842983D01*
X60571027Y-49823582D01*
X60574160Y-49803804D01*
X60570050Y-49760324D01*
X60569500Y-49748655D01*
X60569500Y-46101000D01*
X64753540Y-46101000D01*
X64773326Y-46289256D01*
X64773327Y-46289259D01*
X64831818Y-46469277D01*
X64831821Y-46469284D01*
X64926467Y-46633216D01*
X65053129Y-46773888D01*
X65206265Y-46885148D01*
X65206270Y-46885151D01*
X65379192Y-46962142D01*
X65379197Y-46962144D01*
X65564354Y-47001500D01*
X65564355Y-47001500D01*
X65753644Y-47001500D01*
X65753646Y-47001500D01*
X65938803Y-46962144D01*
X66111730Y-46885151D01*
X66264871Y-46773888D01*
X66391533Y-46633216D01*
X66486179Y-46469284D01*
X66544674Y-46289256D01*
X66564460Y-46101000D01*
X66544674Y-45912744D01*
X66486179Y-45732716D01*
X66391533Y-45568784D01*
X66264871Y-45428112D01*
X66241108Y-45410847D01*
X66111734Y-45316851D01*
X66111729Y-45316848D01*
X65938807Y-45239857D01*
X65938802Y-45239855D01*
X65793001Y-45208865D01*
X65753646Y-45200500D01*
X65564354Y-45200500D01*
X65531897Y-45207398D01*
X65379197Y-45239855D01*
X65379192Y-45239857D01*
X65206270Y-45316848D01*
X65206265Y-45316851D01*
X65053129Y-45428111D01*
X64926466Y-45568785D01*
X64831821Y-45732715D01*
X64831818Y-45732722D01*
X64773327Y-45912740D01*
X64773326Y-45912744D01*
X64753540Y-46101000D01*
X60569500Y-46101000D01*
X60569500Y-42265741D01*
X60589185Y-42198702D01*
X60641989Y-42152947D01*
X60711147Y-42143003D01*
X60719266Y-42144448D01*
X60865354Y-42175500D01*
X60865355Y-42175500D01*
X61054644Y-42175500D01*
X61054646Y-42175500D01*
X61239803Y-42136144D01*
X61412730Y-42059151D01*
X61565871Y-41947888D01*
X61692533Y-41807216D01*
X61787179Y-41643284D01*
X61845674Y-41463256D01*
X61865460Y-41275000D01*
X61845674Y-41086744D01*
X61787179Y-40906716D01*
X61692533Y-40742784D01*
X61565871Y-40602112D01*
X61513076Y-40563754D01*
X61412734Y-40490851D01*
X61412729Y-40490848D01*
X61239807Y-40413857D01*
X61239802Y-40413855D01*
X61079872Y-40379862D01*
X61054646Y-40374500D01*
X61054645Y-40374500D01*
X60995452Y-40374500D01*
X60928413Y-40354815D01*
X60907771Y-40338181D01*
X58840296Y-38270706D01*
X56761803Y-36192212D01*
X56751980Y-36179950D01*
X56751759Y-36180134D01*
X56746786Y-36174122D01*
X56697776Y-36128099D01*
X56694977Y-36125386D01*
X56675477Y-36105885D01*
X56675471Y-36105880D01*
X56672286Y-36103409D01*
X56663434Y-36095848D01*
X56631582Y-36065938D01*
X56631580Y-36065936D01*
X56631577Y-36065935D01*
X56614029Y-36056288D01*
X56597763Y-36045604D01*
X56581932Y-36033324D01*
X56541849Y-36015978D01*
X56531363Y-36010841D01*
X56493094Y-35989803D01*
X56493092Y-35989802D01*
X56473693Y-35984822D01*
X56455281Y-35978518D01*
X56436898Y-35970562D01*
X56436892Y-35970560D01*
X56393760Y-35963729D01*
X56382322Y-35961361D01*
X56340020Y-35950500D01*
X56340019Y-35950500D01*
X56319984Y-35950500D01*
X56300586Y-35948973D01*
X56293162Y-35947797D01*
X56280805Y-35945840D01*
X56280804Y-35945840D01*
X56237325Y-35949950D01*
X56225656Y-35950500D01*
X47656453Y-35950500D01*
X47589414Y-35930815D01*
X47543659Y-35878011D01*
X47533715Y-35808853D01*
X47562740Y-35745297D01*
X47568772Y-35738819D01*
X47651772Y-35655819D01*
X47713095Y-35622334D01*
X47739453Y-35619500D01*
X58640683Y-35619500D01*
X58707722Y-35639185D01*
X58753477Y-35691989D01*
X58763421Y-35761147D01*
X58748071Y-35805497D01*
X58742473Y-35815195D01*
X58735820Y-35826718D01*
X58735818Y-35826722D01*
X58682830Y-35989803D01*
X58677326Y-36006744D01*
X58657540Y-36195000D01*
X58677326Y-36383256D01*
X58677327Y-36383259D01*
X58735818Y-36563277D01*
X58735821Y-36563284D01*
X58830467Y-36727216D01*
X58957129Y-36867888D01*
X59110265Y-36979148D01*
X59110270Y-36979151D01*
X59283192Y-37056142D01*
X59283197Y-37056144D01*
X59468354Y-37095500D01*
X59468355Y-37095500D01*
X59657644Y-37095500D01*
X59657646Y-37095500D01*
X59842803Y-37056144D01*
X60015730Y-36979151D01*
X60168871Y-36867888D01*
X60295533Y-36727216D01*
X60390179Y-36563284D01*
X60448674Y-36383256D01*
X60468460Y-36195000D01*
X60448674Y-36006744D01*
X60390179Y-35826716D01*
X60377928Y-35805497D01*
X60361458Y-35737598D01*
X60384310Y-35671572D01*
X60439232Y-35628382D01*
X60485317Y-35619500D01*
X62957952Y-35619500D01*
X62973572Y-35621224D01*
X62973599Y-35620939D01*
X62981355Y-35621671D01*
X62981362Y-35621673D01*
X63048568Y-35619561D01*
X63052463Y-35619500D01*
X63080041Y-35619500D01*
X63080045Y-35619500D01*
X63084019Y-35618997D01*
X63095658Y-35618080D01*
X63139322Y-35616709D01*
X63158564Y-35611117D01*
X63177607Y-35607174D01*
X63197487Y-35604664D01*
X63238096Y-35588585D01*
X63249139Y-35584803D01*
X63291085Y-35572618D01*
X63308324Y-35562422D01*
X63325798Y-35553862D01*
X63344422Y-35546488D01*
X63344422Y-35546487D01*
X63344427Y-35546486D01*
X63379778Y-35520800D01*
X63389509Y-35514408D01*
X63427115Y-35492170D01*
X63441284Y-35477999D01*
X63456074Y-35465368D01*
X63472282Y-35453594D01*
X63500128Y-35419932D01*
X63507981Y-35411303D01*
X63676469Y-35242818D01*
X63737792Y-35209334D01*
X63764149Y-35206500D01*
X72651257Y-35206500D01*
X72666877Y-35208224D01*
X72666904Y-35207939D01*
X72674660Y-35208671D01*
X72674667Y-35208673D01*
X72741873Y-35206561D01*
X72745768Y-35206500D01*
X72773346Y-35206500D01*
X72773350Y-35206500D01*
X72777324Y-35205997D01*
X72788963Y-35205080D01*
X72832627Y-35203709D01*
X72851869Y-35198117D01*
X72870912Y-35194174D01*
X72890792Y-35191664D01*
X72931401Y-35175585D01*
X72942444Y-35171803D01*
X72984390Y-35159618D01*
X73001629Y-35149422D01*
X73019103Y-35140862D01*
X73037727Y-35133488D01*
X73037727Y-35133487D01*
X73037732Y-35133486D01*
X73073083Y-35107800D01*
X73082814Y-35101408D01*
X73120420Y-35079170D01*
X73134589Y-35064999D01*
X73149379Y-35052368D01*
X73165587Y-35040594D01*
X73193438Y-35006926D01*
X73201279Y-34998309D01*
X73551937Y-34647651D01*
X73613258Y-34614168D01*
X73682950Y-34619152D01*
X73731765Y-34652361D01*
X73759996Y-34683714D01*
X73790226Y-34746705D01*
X73791847Y-34766687D01*
X73791847Y-34837602D01*
X73790122Y-34853219D01*
X73790408Y-34853246D01*
X73789673Y-34861012D01*
X73791786Y-34928219D01*
X73791847Y-34932114D01*
X73791847Y-34959704D01*
X73792350Y-34963682D01*
X73793265Y-34975314D01*
X73794637Y-35018971D01*
X73794638Y-35018974D01*
X73800227Y-35038214D01*
X73804171Y-35057258D01*
X73806498Y-35075674D01*
X73806683Y-35077139D01*
X73822761Y-35117750D01*
X73826544Y-35128799D01*
X73830182Y-35141321D01*
X73838729Y-35170737D01*
X73845821Y-35182730D01*
X73848927Y-35187981D01*
X73857483Y-35205447D01*
X73858761Y-35208673D01*
X73864861Y-35224079D01*
X73890528Y-35259407D01*
X73896940Y-35269168D01*
X73919175Y-35306764D01*
X73919180Y-35306771D01*
X73933337Y-35320927D01*
X73945974Y-35335722D01*
X73957753Y-35351934D01*
X73990324Y-35378879D01*
X73991404Y-35379772D01*
X74000045Y-35387635D01*
X74529015Y-35916605D01*
X74562500Y-35977928D01*
X74564737Y-36016439D01*
X74559659Y-36067999D01*
X74578975Y-36264129D01*
X74578976Y-36264132D01*
X74625579Y-36417762D01*
X74636188Y-36452733D01*
X74729086Y-36626532D01*
X74732473Y-36631601D01*
X74730836Y-36632694D01*
X74754596Y-36688663D01*
X74742795Y-36757529D01*
X74732109Y-36774156D01*
X74732473Y-36774399D01*
X74729086Y-36779467D01*
X74636188Y-36953266D01*
X74578975Y-37141870D01*
X74559659Y-37338000D01*
X74578975Y-37534129D01*
X74636188Y-37722733D01*
X74729086Y-37896532D01*
X74729090Y-37896539D01*
X74854116Y-38048883D01*
X75006460Y-38173909D01*
X75006467Y-38173913D01*
X75180266Y-38266811D01*
X75180269Y-38266811D01*
X75180273Y-38266814D01*
X75368868Y-38324024D01*
X75565000Y-38343341D01*
X75761132Y-38324024D01*
X75949727Y-38266814D01*
X76123538Y-38173910D01*
X76123544Y-38173904D01*
X76128607Y-38170523D01*
X76129703Y-38172164D01*
X76185639Y-38148405D01*
X76254507Y-38160194D01*
X76271148Y-38170888D01*
X76271393Y-38170523D01*
X76276458Y-38173907D01*
X76276462Y-38173910D01*
X76450273Y-38266814D01*
X76638868Y-38324024D01*
X76835000Y-38343341D01*
X77031132Y-38324024D01*
X77219727Y-38266814D01*
X77393538Y-38173910D01*
X77545883Y-38048883D01*
X77670910Y-37896538D01*
X77717362Y-37809632D01*
X77763811Y-37722733D01*
X77763811Y-37722732D01*
X77763814Y-37722727D01*
X77821024Y-37534132D01*
X77840341Y-37338000D01*
X77821024Y-37141868D01*
X77763814Y-36953273D01*
X77670910Y-36779462D01*
X77670906Y-36779457D01*
X77667526Y-36774399D01*
X77669044Y-36773384D01*
X77645081Y-36716962D01*
X77656872Y-36648094D01*
X77667492Y-36631574D01*
X77667111Y-36631320D01*
X77670497Y-36626252D01*
X77763347Y-36452541D01*
X77804160Y-36318000D01*
X77049483Y-36318000D01*
X77120801Y-36233007D01*
X77160000Y-36125306D01*
X77160000Y-36010694D01*
X77120801Y-35902993D01*
X77049483Y-35818000D01*
X77804160Y-35818000D01*
X77804160Y-35817999D01*
X77763347Y-35683458D01*
X77670496Y-35509746D01*
X77667110Y-35504678D01*
X77668784Y-35503559D01*
X77645081Y-35447746D01*
X77656874Y-35378879D01*
X77667839Y-35361818D01*
X77667523Y-35361607D01*
X77670904Y-35356544D01*
X77670910Y-35356538D01*
X77763814Y-35182727D01*
X77821024Y-34994132D01*
X77840341Y-34798000D01*
X77821024Y-34601868D01*
X77763814Y-34413273D01*
X77670910Y-34239462D01*
X77670906Y-34239457D01*
X77667526Y-34234399D01*
X77669044Y-34233384D01*
X77645081Y-34176962D01*
X77656872Y-34108094D01*
X77667492Y-34091574D01*
X77667111Y-34091320D01*
X77670497Y-34086252D01*
X77763347Y-33912541D01*
X77804160Y-33778000D01*
X77049483Y-33778000D01*
X77120801Y-33693007D01*
X77160000Y-33585306D01*
X77160000Y-33470694D01*
X77120801Y-33362993D01*
X77047129Y-33275195D01*
X76947871Y-33217888D01*
X76863436Y-33203000D01*
X76806564Y-33203000D01*
X76722129Y-33217888D01*
X76622871Y-33275195D01*
X76585000Y-33320327D01*
X76585000Y-32465672D01*
X76622871Y-32510805D01*
X76722129Y-32568112D01*
X76806564Y-32583000D01*
X76863436Y-32583000D01*
X76947871Y-32568112D01*
X77047129Y-32510805D01*
X77049483Y-32508000D01*
X77085000Y-32508000D01*
X77085000Y-33278000D01*
X77804160Y-33278000D01*
X77804160Y-33277999D01*
X77763347Y-33143458D01*
X77670497Y-32969747D01*
X77667111Y-32964680D01*
X77668665Y-32963641D01*
X77644759Y-32907361D01*
X77656547Y-32838493D01*
X77667441Y-32821540D01*
X77667111Y-32821320D01*
X77670497Y-32816252D01*
X77763347Y-32642541D01*
X77804160Y-32508000D01*
X77085000Y-32508000D01*
X77049483Y-32508000D01*
X77120801Y-32423007D01*
X77160000Y-32315306D01*
X77160000Y-32200694D01*
X77120801Y-32092993D01*
X77049483Y-32008000D01*
X77804160Y-32008000D01*
X77804160Y-32007999D01*
X77763347Y-31873458D01*
X77670496Y-31699746D01*
X77667110Y-31694678D01*
X77668784Y-31693559D01*
X77645081Y-31637746D01*
X77656874Y-31568879D01*
X77667839Y-31551818D01*
X77667523Y-31551607D01*
X77670904Y-31546544D01*
X77670910Y-31546538D01*
X77763814Y-31372727D01*
X77821024Y-31184132D01*
X77840341Y-30988000D01*
X77821024Y-30791868D01*
X77763814Y-30603273D01*
X77762677Y-30601146D01*
X77762418Y-30599904D01*
X77761483Y-30597645D01*
X77761911Y-30597467D01*
X77748435Y-30532746D01*
X77772771Y-30468379D01*
X77772947Y-30468144D01*
X77778796Y-30460331D01*
X77829091Y-30325483D01*
X77835500Y-30265873D01*
X77835499Y-29170128D01*
X77829091Y-29110517D01*
X77828213Y-29108164D01*
X77778797Y-28975671D01*
X77778793Y-28975664D01*
X77692547Y-28860455D01*
X77692544Y-28860452D01*
X77577335Y-28774206D01*
X77577328Y-28774202D01*
X77442482Y-28723908D01*
X77442483Y-28723908D01*
X77382883Y-28717501D01*
X77382881Y-28717500D01*
X77382873Y-28717500D01*
X77382864Y-28717500D01*
X76287129Y-28717500D01*
X76287123Y-28717501D01*
X76227516Y-28723908D01*
X76092671Y-28774202D01*
X76092666Y-28774205D01*
X76084614Y-28780233D01*
X76019149Y-28804648D01*
X75955530Y-28791104D01*
X75955359Y-28791518D01*
X75953123Y-28790592D01*
X75951850Y-28790321D01*
X75949729Y-28789187D01*
X75949728Y-28789186D01*
X75949727Y-28789186D01*
X75761132Y-28731976D01*
X75761129Y-28731975D01*
X75565000Y-28712659D01*
X75368870Y-28731975D01*
X75180266Y-28789188D01*
X75006467Y-28882086D01*
X75006460Y-28882090D01*
X74854116Y-29007116D01*
X74771188Y-29108164D01*
X74713442Y-29147498D01*
X74643597Y-29149369D01*
X74583829Y-29113181D01*
X74553113Y-29050425D01*
X74552017Y-29042485D01*
X74550327Y-29026397D01*
X74530828Y-28966387D01*
X74491834Y-28846375D01*
X74491833Y-28846374D01*
X74491832Y-28846369D01*
X74397186Y-28682437D01*
X74379727Y-28663047D01*
X74333781Y-28612018D01*
X74303551Y-28549026D01*
X74312177Y-28479691D01*
X74356918Y-28426026D01*
X74423571Y-28405068D01*
X74476368Y-28415768D01*
X74486197Y-28420144D01*
X74671354Y-28459500D01*
X74671355Y-28459500D01*
X74860644Y-28459500D01*
X74860646Y-28459500D01*
X75045803Y-28420144D01*
X75218730Y-28343151D01*
X75371871Y-28231888D01*
X75498533Y-28091216D01*
X75593179Y-27927284D01*
X75651674Y-27747256D01*
X75671460Y-27559000D01*
X75651674Y-27370744D01*
X75593179Y-27190716D01*
X75498533Y-27026784D01*
X75371871Y-26886112D01*
X75371870Y-26886111D01*
X75218734Y-26774851D01*
X75218729Y-26774848D01*
X75045807Y-26697857D01*
X75045802Y-26697855D01*
X74900001Y-26666865D01*
X74860646Y-26658500D01*
X74671354Y-26658500D01*
X74638897Y-26665398D01*
X74486197Y-26697855D01*
X74486192Y-26697857D01*
X74313270Y-26774848D01*
X74313265Y-26774851D01*
X74160130Y-26886110D01*
X74160126Y-26886114D01*
X74154400Y-26892474D01*
X74094913Y-26929121D01*
X74062252Y-26933500D01*
X72966748Y-26933500D01*
X72899709Y-26913815D01*
X72874600Y-26892474D01*
X72868873Y-26886114D01*
X72868869Y-26886110D01*
X72715734Y-26774851D01*
X72715729Y-26774848D01*
X72542807Y-26697857D01*
X72542802Y-26697855D01*
X72397001Y-26666865D01*
X72357646Y-26658500D01*
X72168354Y-26658500D01*
X72135897Y-26665398D01*
X71983197Y-26697855D01*
X71983192Y-26697857D01*
X71810270Y-26774848D01*
X71810265Y-26774851D01*
X71657129Y-26886111D01*
X71530466Y-27026785D01*
X71435821Y-27190715D01*
X71435818Y-27190722D01*
X71382239Y-27355622D01*
X71377326Y-27370744D01*
X71357540Y-27559000D01*
X71377326Y-27747256D01*
X71377327Y-27747259D01*
X71435818Y-27927277D01*
X71435821Y-27927284D01*
X71530467Y-28091216D01*
X71635403Y-28207759D01*
X71657129Y-28231888D01*
X71810265Y-28343148D01*
X71810270Y-28343151D01*
X71829862Y-28351874D01*
X71883099Y-28397124D01*
X71903420Y-28463973D01*
X71884374Y-28531197D01*
X71832008Y-28577452D01*
X71779426Y-28589153D01*
X69403105Y-28589153D01*
X69336066Y-28569468D01*
X69315424Y-28552834D01*
X64572927Y-23810336D01*
X64539442Y-23749013D01*
X64544426Y-23679321D01*
X64586298Y-23623388D01*
X64634825Y-23601366D01*
X64668803Y-23594144D01*
X64841730Y-23517151D01*
X64994871Y-23405888D01*
X65121533Y-23265216D01*
X65216179Y-23101284D01*
X65274674Y-22921256D01*
X65294460Y-22733000D01*
X65274674Y-22544744D01*
X65216179Y-22364716D01*
X65210955Y-22355667D01*
X71902540Y-22355667D01*
X71922326Y-22543923D01*
X71922327Y-22543926D01*
X71980818Y-22723944D01*
X71980821Y-22723951D01*
X72075467Y-22887883D01*
X72179063Y-23002938D01*
X72202129Y-23028555D01*
X72355265Y-23139815D01*
X72355270Y-23139818D01*
X72528192Y-23216809D01*
X72528197Y-23216811D01*
X72713354Y-23256167D01*
X72713355Y-23256167D01*
X72902644Y-23256167D01*
X72902646Y-23256167D01*
X73087803Y-23216811D01*
X73260730Y-23139818D01*
X73413871Y-23028555D01*
X73417763Y-23024233D01*
X73419600Y-23022193D01*
X73479087Y-22985546D01*
X73511748Y-22981167D01*
X74335590Y-22981167D01*
X74351210Y-22982891D01*
X74351237Y-22982606D01*
X74358993Y-22983338D01*
X74359000Y-22983340D01*
X74426206Y-22981228D01*
X74430101Y-22981167D01*
X74457679Y-22981167D01*
X74457683Y-22981167D01*
X74461657Y-22980664D01*
X74473296Y-22979747D01*
X74516960Y-22978376D01*
X74536202Y-22972784D01*
X74555245Y-22968841D01*
X74575125Y-22966331D01*
X74615734Y-22950252D01*
X74626777Y-22946470D01*
X74668723Y-22934285D01*
X74685962Y-22924089D01*
X74703436Y-22915529D01*
X74722060Y-22908155D01*
X74722060Y-22908154D01*
X74722065Y-22908153D01*
X74757416Y-22882467D01*
X74767147Y-22876075D01*
X74804753Y-22853837D01*
X74818922Y-22839666D01*
X74833712Y-22827035D01*
X74849920Y-22815261D01*
X74877771Y-22781593D01*
X74885612Y-22772976D01*
X75440786Y-22217802D01*
X75453048Y-22207980D01*
X75452865Y-22207759D01*
X75458868Y-22202791D01*
X75458877Y-22202786D01*
X75504934Y-22153739D01*
X75507582Y-22151006D01*
X75527120Y-22131470D01*
X75529570Y-22128310D01*
X75537154Y-22119429D01*
X75567062Y-22087582D01*
X75576714Y-22070023D01*
X75587389Y-22053772D01*
X75599674Y-22037936D01*
X75617030Y-21997825D01*
X75622161Y-21987354D01*
X75643194Y-21949098D01*
X75643194Y-21949097D01*
X75643197Y-21949092D01*
X75648180Y-21929680D01*
X75654477Y-21911291D01*
X75662438Y-21892895D01*
X75669270Y-21849748D01*
X75671639Y-21838316D01*
X75678757Y-21810594D01*
X75682500Y-21796019D01*
X75682500Y-21775983D01*
X75684027Y-21756582D01*
X75687160Y-21736804D01*
X75683217Y-21695091D01*
X75683050Y-21693324D01*
X75682500Y-21681655D01*
X75682500Y-20994209D01*
X75702185Y-20927170D01*
X75754989Y-20881415D01*
X75824147Y-20871471D01*
X75842495Y-20875548D01*
X75950000Y-20908159D01*
X75950000Y-20146672D01*
X75987871Y-20191805D01*
X76087129Y-20249112D01*
X76171564Y-20264000D01*
X76228436Y-20264000D01*
X76312871Y-20249112D01*
X76412129Y-20191805D01*
X76414483Y-20189000D01*
X76450000Y-20189000D01*
X76450000Y-20908159D01*
X76584534Y-20867349D01*
X76758260Y-20774491D01*
X76910528Y-20649528D01*
X77035492Y-20497260D01*
X77035496Y-20497253D01*
X77128347Y-20323541D01*
X77169160Y-20189000D01*
X76450000Y-20189000D01*
X76414483Y-20189000D01*
X76485801Y-20104007D01*
X76525000Y-19996306D01*
X76525000Y-19881694D01*
X76485801Y-19773993D01*
X76412129Y-19686195D01*
X76312871Y-19628888D01*
X76228436Y-19614000D01*
X76171564Y-19614000D01*
X76087129Y-19628888D01*
X75987871Y-19686195D01*
X75950000Y-19731327D01*
X75950000Y-18876672D01*
X75987871Y-18921805D01*
X76087129Y-18979112D01*
X76171564Y-18994000D01*
X76228436Y-18994000D01*
X76312871Y-18979112D01*
X76412129Y-18921805D01*
X76414483Y-18919000D01*
X76450000Y-18919000D01*
X76450000Y-19689000D01*
X77169160Y-19689000D01*
X77169160Y-19688999D01*
X77128347Y-19554458D01*
X77035497Y-19380747D01*
X77032111Y-19375680D01*
X77033665Y-19374641D01*
X77009759Y-19318361D01*
X77021547Y-19249493D01*
X77032441Y-19232540D01*
X77032111Y-19232320D01*
X77035497Y-19227252D01*
X77128347Y-19053541D01*
X77169160Y-18919000D01*
X76450000Y-18919000D01*
X76414483Y-18919000D01*
X76485801Y-18834007D01*
X76525000Y-18726306D01*
X76525000Y-18611694D01*
X76485801Y-18503993D01*
X76412129Y-18416195D01*
X76312871Y-18358888D01*
X76228436Y-18344000D01*
X76171564Y-18344000D01*
X76087129Y-18358888D01*
X75987871Y-18416195D01*
X75950000Y-18461327D01*
X75950000Y-17606672D01*
X75987871Y-17651805D01*
X76087129Y-17709112D01*
X76171564Y-17724000D01*
X76228436Y-17724000D01*
X76312871Y-17709112D01*
X76412129Y-17651805D01*
X76414483Y-17649000D01*
X76450000Y-17649000D01*
X76450000Y-18419000D01*
X77169160Y-18419000D01*
X77169160Y-18418999D01*
X77128347Y-18284458D01*
X77035497Y-18110747D01*
X77032111Y-18105680D01*
X77033665Y-18104641D01*
X77009759Y-18048361D01*
X77021547Y-17979493D01*
X77032441Y-17962540D01*
X77032111Y-17962320D01*
X77035497Y-17957252D01*
X77128347Y-17783541D01*
X77169160Y-17649000D01*
X76450000Y-17649000D01*
X76414483Y-17649000D01*
X76485801Y-17564007D01*
X76525000Y-17456306D01*
X76525000Y-17341694D01*
X76485801Y-17233993D01*
X76414483Y-17149000D01*
X77169160Y-17149000D01*
X77169160Y-17148999D01*
X77128347Y-17014458D01*
X77035496Y-16840746D01*
X77032110Y-16835678D01*
X77033784Y-16834559D01*
X77010081Y-16778746D01*
X77021874Y-16709879D01*
X77032839Y-16692818D01*
X77032523Y-16692607D01*
X77035904Y-16687544D01*
X77035910Y-16687538D01*
X77128814Y-16513727D01*
X77186024Y-16325132D01*
X77205341Y-16129000D01*
X77186024Y-15932868D01*
X77128814Y-15744273D01*
X77127677Y-15742146D01*
X77127418Y-15740904D01*
X77126483Y-15738645D01*
X77126911Y-15738467D01*
X77113435Y-15673746D01*
X77137771Y-15609379D01*
X77143796Y-15601331D01*
X77194091Y-15466483D01*
X77200500Y-15406873D01*
X77200499Y-14311128D01*
X77194091Y-14251517D01*
X77193801Y-14250740D01*
X77143797Y-14116671D01*
X77143793Y-14116664D01*
X77057547Y-14001455D01*
X77057544Y-14001452D01*
X76942335Y-13915206D01*
X76942328Y-13915202D01*
X76807482Y-13864908D01*
X76807483Y-13864908D01*
X76747883Y-13858501D01*
X76747881Y-13858500D01*
X76747873Y-13858500D01*
X76747864Y-13858500D01*
X75652129Y-13858500D01*
X75652123Y-13858501D01*
X75592516Y-13864908D01*
X75457671Y-13915202D01*
X75457666Y-13915205D01*
X75449614Y-13921233D01*
X75384149Y-13945648D01*
X75320530Y-13932104D01*
X75320359Y-13932518D01*
X75318123Y-13931592D01*
X75316850Y-13931321D01*
X75314729Y-13930187D01*
X75314728Y-13930186D01*
X75314727Y-13930186D01*
X75126132Y-13872976D01*
X75126129Y-13872975D01*
X74930000Y-13853659D01*
X74733870Y-13872975D01*
X74545266Y-13930188D01*
X74371467Y-14023086D01*
X74371460Y-14023090D01*
X74219116Y-14148116D01*
X74094090Y-14300460D01*
X74094086Y-14300467D01*
X74001188Y-14474266D01*
X73943975Y-14662870D01*
X73924659Y-14859000D01*
X73943975Y-15055129D01*
X73946286Y-15062746D01*
X73976729Y-15163105D01*
X74001188Y-15243733D01*
X74094086Y-15417532D01*
X74097473Y-15422601D01*
X74095955Y-15423615D01*
X74119918Y-15480042D01*
X74108124Y-15548909D01*
X74097515Y-15565420D01*
X74097893Y-15565673D01*
X74094505Y-15570742D01*
X74001652Y-15744458D01*
X73960839Y-15878999D01*
X73960840Y-15879000D01*
X74715517Y-15879000D01*
X74644199Y-15963993D01*
X74605000Y-16071694D01*
X74605000Y-16186306D01*
X74644199Y-16294007D01*
X74715517Y-16379000D01*
X73960840Y-16379000D01*
X74001652Y-16513541D01*
X74094503Y-16687253D01*
X74097890Y-16692322D01*
X74096215Y-16693440D01*
X74119918Y-16749259D01*
X74108123Y-16818125D01*
X74097158Y-16835188D01*
X74097473Y-16835399D01*
X74094086Y-16840467D01*
X74001188Y-17014266D01*
X73943975Y-17202870D01*
X73924659Y-17399000D01*
X73943975Y-17595129D01*
X73946201Y-17602467D01*
X73999614Y-17778546D01*
X74001188Y-17783733D01*
X74094086Y-17957532D01*
X74097473Y-17962601D01*
X74095836Y-17963694D01*
X74119596Y-18019663D01*
X74107795Y-18088529D01*
X74097109Y-18105156D01*
X74097473Y-18105399D01*
X74094086Y-18110467D01*
X74001188Y-18284266D01*
X73943975Y-18472870D01*
X73924659Y-18669000D01*
X73943975Y-18865129D01*
X74001188Y-19053733D01*
X74094086Y-19227532D01*
X74097473Y-19232601D01*
X74095836Y-19233694D01*
X74119596Y-19289663D01*
X74107795Y-19358529D01*
X74097109Y-19375156D01*
X74097473Y-19375399D01*
X74094086Y-19380467D01*
X74001188Y-19554266D01*
X73943975Y-19742870D01*
X73924659Y-19939000D01*
X73943975Y-20135129D01*
X74001188Y-20323733D01*
X74094086Y-20497532D01*
X74094090Y-20497539D01*
X74219116Y-20649883D01*
X74371464Y-20774912D01*
X74376392Y-20778205D01*
X74421197Y-20831818D01*
X74431500Y-20881306D01*
X74431500Y-21406547D01*
X74411815Y-21473586D01*
X74395181Y-21494228D01*
X74195561Y-21693848D01*
X74134238Y-21727333D01*
X74107880Y-21730167D01*
X73511748Y-21730167D01*
X73444709Y-21710482D01*
X73419600Y-21689141D01*
X73413873Y-21682781D01*
X73413869Y-21682777D01*
X73260734Y-21571518D01*
X73260729Y-21571515D01*
X73087807Y-21494524D01*
X73087802Y-21494522D01*
X72915546Y-21457909D01*
X72902646Y-21455167D01*
X72713354Y-21455167D01*
X72700454Y-21457909D01*
X72528197Y-21494522D01*
X72528192Y-21494524D01*
X72355270Y-21571515D01*
X72355265Y-21571518D01*
X72202129Y-21682778D01*
X72075466Y-21823452D01*
X71980821Y-21987382D01*
X71980818Y-21987389D01*
X71922327Y-22167407D01*
X71922326Y-22167411D01*
X71902540Y-22355667D01*
X65210955Y-22355667D01*
X65121533Y-22200784D01*
X64994871Y-22060112D01*
X64994870Y-22060111D01*
X64841734Y-21948851D01*
X64841729Y-21948848D01*
X64668807Y-21871857D01*
X64668802Y-21871855D01*
X64511008Y-21838316D01*
X64483646Y-21832500D01*
X64294354Y-21832500D01*
X64266992Y-21838316D01*
X64109197Y-21871855D01*
X64109192Y-21871857D01*
X63936270Y-21948848D01*
X63936265Y-21948851D01*
X63783129Y-22060111D01*
X63656465Y-22200785D01*
X63631887Y-22243357D01*
X63581320Y-22291573D01*
X63512713Y-22304795D01*
X63447848Y-22278827D01*
X63407320Y-22221913D01*
X63400500Y-22181357D01*
X63400500Y-22090737D01*
X63402224Y-22075123D01*
X63401938Y-22075096D01*
X63402672Y-22067333D01*
X63400561Y-22000143D01*
X63400500Y-21996249D01*
X63400500Y-21968651D01*
X63400500Y-21968650D01*
X63399997Y-21964670D01*
X63399080Y-21953021D01*
X63397709Y-21909374D01*
X63397709Y-21909372D01*
X63392120Y-21890137D01*
X63388174Y-21871084D01*
X63386360Y-21856722D01*
X63385664Y-21851208D01*
X63369578Y-21810581D01*
X63365803Y-21799554D01*
X63353617Y-21757610D01*
X63343922Y-21741216D01*
X63343421Y-21740369D01*
X63334860Y-21722893D01*
X63329946Y-21710482D01*
X63327486Y-21704268D01*
X63301809Y-21668926D01*
X63295412Y-21659190D01*
X63273170Y-21621579D01*
X63273167Y-21621576D01*
X63273165Y-21621573D01*
X63259005Y-21607413D01*
X63246370Y-21592620D01*
X63234593Y-21576412D01*
X63200945Y-21548576D01*
X63192304Y-21540713D01*
X60635927Y-18984336D01*
X60602442Y-18923013D01*
X60607426Y-18853321D01*
X60649298Y-18797388D01*
X60697825Y-18775366D01*
X60731803Y-18768144D01*
X60904730Y-18691151D01*
X61057871Y-18579888D01*
X61184533Y-18439216D01*
X61279179Y-18275284D01*
X61337674Y-18095256D01*
X61357460Y-17907000D01*
X61337674Y-17718744D01*
X61280002Y-17541250D01*
X61279181Y-17538722D01*
X61279180Y-17538721D01*
X61279179Y-17538716D01*
X61184533Y-17374784D01*
X61057871Y-17234112D01*
X61057870Y-17234111D01*
X60904734Y-17122851D01*
X60904729Y-17122848D01*
X60731807Y-17045857D01*
X60731802Y-17045855D01*
X60583182Y-17014266D01*
X60546646Y-17006500D01*
X60357354Y-17006500D01*
X60324897Y-17013398D01*
X60172197Y-17045855D01*
X60172192Y-17045857D01*
X59999270Y-17122848D01*
X59999265Y-17122851D01*
X59846129Y-17234111D01*
X59719466Y-17374785D01*
X59624821Y-17538715D01*
X59624818Y-17538722D01*
X59583073Y-17667202D01*
X59543636Y-17724878D01*
X59479277Y-17752076D01*
X59410431Y-17740161D01*
X59377461Y-17716565D01*
X59094108Y-17433212D01*
X59084285Y-17420950D01*
X59084064Y-17421134D01*
X59079091Y-17415122D01*
X59030081Y-17369099D01*
X59027282Y-17366386D01*
X59007782Y-17346885D01*
X59007776Y-17346880D01*
X59004591Y-17344409D01*
X58995739Y-17336848D01*
X58963887Y-17306938D01*
X58963885Y-17306936D01*
X58963882Y-17306935D01*
X58946334Y-17297288D01*
X58930068Y-17286604D01*
X58916053Y-17275733D01*
X58914241Y-17274327D01*
X58914240Y-17274326D01*
X58914237Y-17274324D01*
X58874154Y-17256978D01*
X58863668Y-17251841D01*
X58825399Y-17230803D01*
X58825397Y-17230802D01*
X58805998Y-17225822D01*
X58787586Y-17219518D01*
X58769203Y-17211562D01*
X58769197Y-17211560D01*
X58726065Y-17204729D01*
X58714627Y-17202361D01*
X58672325Y-17191500D01*
X58672324Y-17191500D01*
X58652289Y-17191500D01*
X58632891Y-17189973D01*
X58625467Y-17188797D01*
X58613110Y-17186840D01*
X58613109Y-17186840D01*
X58569630Y-17190950D01*
X58557961Y-17191500D01*
X53748132Y-17191500D01*
X53732511Y-17189775D01*
X53732485Y-17190061D01*
X53724723Y-17189327D01*
X53724722Y-17189327D01*
X53673077Y-17190950D01*
X53657516Y-17191439D01*
X53653621Y-17191500D01*
X53626036Y-17191500D01*
X53622050Y-17192003D01*
X53610422Y-17192918D01*
X53566762Y-17194290D01*
X53547518Y-17199881D01*
X53528468Y-17203825D01*
X53508600Y-17206334D01*
X53508599Y-17206334D01*
X53467988Y-17222413D01*
X53456943Y-17226194D01*
X53415003Y-17238379D01*
X53414999Y-17238381D01*
X53397755Y-17248579D01*
X53380294Y-17257133D01*
X53361663Y-17264510D01*
X53361651Y-17264517D01*
X53326322Y-17290185D01*
X53316562Y-17296596D01*
X53278969Y-17318829D01*
X53264803Y-17332995D01*
X53250013Y-17345627D01*
X53233803Y-17357404D01*
X53233800Y-17357407D01*
X53205962Y-17391058D01*
X53198100Y-17399697D01*
X44758957Y-25838839D01*
X44697634Y-25872324D01*
X44627942Y-25867340D01*
X44572009Y-25825468D01*
X44563889Y-25813158D01*
X44547760Y-25785222D01*
X44479380Y-25666784D01*
X44352718Y-25526112D01*
X44338204Y-25515567D01*
X44199581Y-25414851D01*
X44199576Y-25414848D01*
X44026654Y-25337857D01*
X44026649Y-25337855D01*
X43880848Y-25306865D01*
X43841493Y-25298500D01*
X43652201Y-25298500D01*
X43619744Y-25305398D01*
X43467044Y-25337855D01*
X43467039Y-25337857D01*
X43294117Y-25414848D01*
X43294112Y-25414851D01*
X43140976Y-25526111D01*
X43014313Y-25666785D01*
X42919668Y-25830715D01*
X42919665Y-25830722D01*
X42861174Y-26010740D01*
X42861173Y-26010744D01*
X42843681Y-26177177D01*
X42842600Y-26187462D01*
X42816015Y-26252076D01*
X42758718Y-26292061D01*
X42719279Y-26298500D01*
X29165743Y-26298500D01*
X29150122Y-26296775D01*
X29150095Y-26297061D01*
X29142333Y-26296326D01*
X29075113Y-26298439D01*
X29071219Y-26298500D01*
X29043650Y-26298500D01*
X29039673Y-26299002D01*
X29028042Y-26299917D01*
X28984374Y-26301289D01*
X28984368Y-26301290D01*
X28965126Y-26306880D01*
X28946087Y-26310823D01*
X28926217Y-26313334D01*
X28926203Y-26313337D01*
X28885598Y-26329413D01*
X28874554Y-26333194D01*
X28832614Y-26345379D01*
X28832610Y-26345381D01*
X28815366Y-26355579D01*
X28797905Y-26364133D01*
X28779274Y-26371510D01*
X28779262Y-26371517D01*
X28743933Y-26397185D01*
X28734173Y-26403596D01*
X28696580Y-26425829D01*
X28682414Y-26439995D01*
X28667624Y-26452627D01*
X28651414Y-26464404D01*
X28651411Y-26464407D01*
X28623573Y-26498058D01*
X28615711Y-26506697D01*
X26032208Y-29090199D01*
X26019951Y-29100020D01*
X26020134Y-29100241D01*
X26014122Y-29105214D01*
X25968098Y-29154223D01*
X25965391Y-29157016D01*
X25945889Y-29176517D01*
X25945875Y-29176534D01*
X25943407Y-29179715D01*
X25935843Y-29188570D01*
X25905937Y-29220418D01*
X25905936Y-29220420D01*
X25896284Y-29237976D01*
X25885610Y-29254226D01*
X25873329Y-29270061D01*
X25873324Y-29270068D01*
X25855975Y-29310158D01*
X25850838Y-29320644D01*
X25829803Y-29358906D01*
X25824822Y-29378307D01*
X25818521Y-29396710D01*
X25810562Y-29415102D01*
X25810561Y-29415105D01*
X25803728Y-29458243D01*
X25801360Y-29469674D01*
X25790501Y-29511971D01*
X25790500Y-29511982D01*
X25790500Y-29532016D01*
X25788973Y-29551415D01*
X25785840Y-29571194D01*
X25785840Y-29571195D01*
X25789950Y-29614674D01*
X25790500Y-29626343D01*
X25790500Y-30141859D01*
X25788775Y-30157476D01*
X25789061Y-30157503D01*
X25788326Y-30165269D01*
X25790439Y-30232476D01*
X25790500Y-30236371D01*
X25790500Y-30263961D01*
X25791003Y-30267939D01*
X25791918Y-30279571D01*
X25793290Y-30323228D01*
X25793291Y-30323231D01*
X25798880Y-30342471D01*
X25802824Y-30361515D01*
X25804772Y-30376929D01*
X25805336Y-30381396D01*
X25821414Y-30422007D01*
X25825197Y-30433056D01*
X25837381Y-30474992D01*
X25847580Y-30492238D01*
X25856136Y-30509704D01*
X25863514Y-30528336D01*
X25889181Y-30563664D01*
X25895593Y-30573425D01*
X25917828Y-30611021D01*
X25917833Y-30611028D01*
X25931990Y-30625184D01*
X25944628Y-30639980D01*
X25956405Y-30656190D01*
X25956406Y-30656191D01*
X25990057Y-30684029D01*
X25998698Y-30691892D01*
X27257181Y-31950375D01*
X27290666Y-32011698D01*
X27293500Y-32038056D01*
X27293500Y-33678255D01*
X27291775Y-33693872D01*
X27292061Y-33693899D01*
X27291326Y-33701665D01*
X27293439Y-33768872D01*
X27293500Y-33772767D01*
X27293500Y-33800357D01*
X27294003Y-33804335D01*
X27294918Y-33815967D01*
X27296290Y-33859624D01*
X27296291Y-33859627D01*
X27301880Y-33878867D01*
X27305824Y-33897911D01*
X27305939Y-33898815D01*
X27308336Y-33917792D01*
X27324414Y-33958403D01*
X27328197Y-33969452D01*
X27340381Y-34011388D01*
X27350580Y-34028634D01*
X27359138Y-34046103D01*
X27366514Y-34064732D01*
X27392181Y-34100060D01*
X27398593Y-34109821D01*
X27420828Y-34147417D01*
X27420833Y-34147424D01*
X27434990Y-34161580D01*
X27447628Y-34176376D01*
X27459405Y-34192586D01*
X27459406Y-34192587D01*
X27493057Y-34220425D01*
X27501698Y-34228288D01*
X27729727Y-34456318D01*
X27763212Y-34517641D01*
X27758228Y-34587333D01*
X27729732Y-34631675D01*
X27723891Y-34637516D01*
X27723875Y-34637534D01*
X27721407Y-34640715D01*
X27713843Y-34649570D01*
X27683937Y-34681418D01*
X27683936Y-34681420D01*
X27674284Y-34698976D01*
X27663610Y-34715226D01*
X27651329Y-34731061D01*
X27651324Y-34731068D01*
X27633975Y-34771158D01*
X27628838Y-34781644D01*
X27607803Y-34819906D01*
X27602822Y-34839307D01*
X27596521Y-34857710D01*
X27588562Y-34876102D01*
X27588561Y-34876105D01*
X27581728Y-34919243D01*
X27579360Y-34930674D01*
X27568501Y-34972971D01*
X27568500Y-34972982D01*
X27568500Y-34993016D01*
X27566973Y-35012415D01*
X27563840Y-35032194D01*
X27563840Y-35032195D01*
X27567950Y-35075674D01*
X27568500Y-35087343D01*
X27568500Y-36385312D01*
X27548815Y-36452351D01*
X27536650Y-36468284D01*
X27461466Y-36551784D01*
X27366821Y-36715715D01*
X27366818Y-36715722D01*
X27317377Y-36867888D01*
X27308326Y-36895744D01*
X27288540Y-37084000D01*
X27308326Y-37272256D01*
X27308327Y-37272259D01*
X27366818Y-37452277D01*
X27366821Y-37452284D01*
X27461467Y-37616216D01*
X27525939Y-37687819D01*
X27588129Y-37756888D01*
X27741265Y-37868148D01*
X27741270Y-37868151D01*
X27914192Y-37945142D01*
X27914197Y-37945144D01*
X28099354Y-37984500D01*
X28099355Y-37984500D01*
X28288644Y-37984500D01*
X28288646Y-37984500D01*
X28473803Y-37945144D01*
X28646730Y-37868151D01*
X28799871Y-37756888D01*
X28926533Y-37616216D01*
X29021179Y-37452284D01*
X29079674Y-37272256D01*
X29099460Y-37084000D01*
X29079674Y-36895744D01*
X29021179Y-36715716D01*
X28926533Y-36551784D01*
X28895296Y-36517092D01*
X28851350Y-36468284D01*
X28821120Y-36405292D01*
X28819500Y-36385312D01*
X28819500Y-35540055D01*
X28839185Y-35473016D01*
X28891989Y-35427261D01*
X28917720Y-35418765D01*
X28933377Y-35415437D01*
X28981803Y-35405144D01*
X28981806Y-35405142D01*
X28981808Y-35405142D01*
X29041356Y-35378629D01*
X29154730Y-35328151D01*
X29307871Y-35216888D01*
X29434533Y-35076216D01*
X29529179Y-34912284D01*
X29587674Y-34732256D01*
X29607460Y-34544000D01*
X29587674Y-34355744D01*
X29529179Y-34175716D01*
X29434533Y-34011784D01*
X29307871Y-33871112D01*
X29305220Y-33869186D01*
X29154734Y-33759851D01*
X29154729Y-33759848D01*
X28981807Y-33682857D01*
X28981802Y-33682855D01*
X28813112Y-33647000D01*
X28796646Y-33643500D01*
X28796645Y-33643500D01*
X28737453Y-33643500D01*
X28670414Y-33623815D01*
X28649772Y-33607181D01*
X28580819Y-33538228D01*
X28547334Y-33476905D01*
X28544500Y-33450547D01*
X28544500Y-31810346D01*
X28546224Y-31794726D01*
X28545939Y-31794700D01*
X28546671Y-31786944D01*
X28546673Y-31786937D01*
X28544561Y-31719730D01*
X28544500Y-31715835D01*
X28544500Y-31688258D01*
X28544500Y-31688254D01*
X28543996Y-31684269D01*
X28543080Y-31672625D01*
X28541984Y-31637746D01*
X28541709Y-31628977D01*
X28536122Y-31609748D01*
X28532174Y-31590688D01*
X28529663Y-31570808D01*
X28513588Y-31530208D01*
X28509804Y-31519156D01*
X28497618Y-31477213D01*
X28497616Y-31477210D01*
X28487423Y-31459975D01*
X28478861Y-31442498D01*
X28471487Y-31423873D01*
X28445816Y-31388541D01*
X28439405Y-31378781D01*
X28417170Y-31341184D01*
X28417168Y-31341182D01*
X28417165Y-31341178D01*
X28403006Y-31327019D01*
X28390368Y-31312223D01*
X28378594Y-31296017D01*
X28344940Y-31268176D01*
X28336299Y-31260313D01*
X27077819Y-30001832D01*
X27044334Y-29940509D01*
X27041500Y-29914151D01*
X27041500Y-29901452D01*
X27061185Y-29834413D01*
X27077819Y-29813771D01*
X29305771Y-27585819D01*
X29367094Y-27552334D01*
X29393452Y-27549500D01*
X31074242Y-27549500D01*
X31141281Y-27569185D01*
X31187036Y-27621989D01*
X31196980Y-27691147D01*
X31167955Y-27754703D01*
X31161942Y-27761161D01*
X30917363Y-28005740D01*
X30895208Y-28027895D01*
X30882951Y-28037715D01*
X30883134Y-28037936D01*
X30877122Y-28042909D01*
X30831098Y-28091918D01*
X30828391Y-28094711D01*
X30808889Y-28114212D01*
X30808875Y-28114229D01*
X30806407Y-28117410D01*
X30798843Y-28126265D01*
X30768937Y-28158113D01*
X30768936Y-28158115D01*
X30759284Y-28175671D01*
X30748610Y-28191921D01*
X30736329Y-28207756D01*
X30736324Y-28207763D01*
X30718975Y-28247853D01*
X30713838Y-28258339D01*
X30692803Y-28296601D01*
X30687822Y-28316002D01*
X30681521Y-28334405D01*
X30673562Y-28352797D01*
X30673561Y-28352800D01*
X30666728Y-28395938D01*
X30664360Y-28407369D01*
X30653501Y-28449666D01*
X30653500Y-28449677D01*
X30653500Y-28469711D01*
X30651973Y-28489108D01*
X30648840Y-28508891D01*
X30650949Y-28531197D01*
X30652950Y-28552369D01*
X30653500Y-28564038D01*
X30653500Y-30223950D01*
X30651775Y-30239567D01*
X30652061Y-30239594D01*
X30651326Y-30247360D01*
X30653439Y-30314567D01*
X30653500Y-30318462D01*
X30653500Y-30346052D01*
X30654003Y-30350030D01*
X30654918Y-30361662D01*
X30656290Y-30405319D01*
X30656291Y-30405322D01*
X30661880Y-30424562D01*
X30665824Y-30443606D01*
X30667516Y-30456992D01*
X30668336Y-30463487D01*
X30684414Y-30504098D01*
X30688197Y-30515147D01*
X30695246Y-30539410D01*
X30700382Y-30557085D01*
X30707073Y-30568400D01*
X30710580Y-30574329D01*
X30719136Y-30591795D01*
X30722840Y-30601149D01*
X30726514Y-30610427D01*
X30752181Y-30645755D01*
X30758593Y-30655516D01*
X30780828Y-30693112D01*
X30780833Y-30693119D01*
X30794990Y-30707275D01*
X30807628Y-30722071D01*
X30819405Y-30738281D01*
X30819406Y-30738282D01*
X30853057Y-30766120D01*
X30861698Y-30773983D01*
X33030181Y-32942466D01*
X33063666Y-33003789D01*
X33066500Y-33030147D01*
X33066500Y-35974547D01*
X33046815Y-36041586D01*
X33030181Y-36062228D01*
X32818228Y-36274181D01*
X32756905Y-36307666D01*
X32730547Y-36310500D01*
X32671354Y-36310500D01*
X32638897Y-36317398D01*
X32486197Y-36349855D01*
X32486192Y-36349857D01*
X32313270Y-36426848D01*
X32313265Y-36426851D01*
X32160129Y-36538111D01*
X32033466Y-36678785D01*
X31938821Y-36842715D01*
X31938818Y-36842722D01*
X31894491Y-36979148D01*
X31880326Y-37022744D01*
X31860540Y-37211000D01*
X31880326Y-37399256D01*
X31880327Y-37399259D01*
X31938818Y-37579277D01*
X31938821Y-37579284D01*
X32033467Y-37743216D01*
X32066821Y-37780259D01*
X32160129Y-37883888D01*
X32313265Y-37995148D01*
X32313270Y-37995151D01*
X32486192Y-38072142D01*
X32486197Y-38072144D01*
X32671354Y-38111500D01*
X32671355Y-38111500D01*
X32860644Y-38111500D01*
X32860646Y-38111500D01*
X33045803Y-38072144D01*
X33218730Y-37995151D01*
X33371871Y-37883888D01*
X33498533Y-37743216D01*
X33593179Y-37579284D01*
X33651674Y-37399256D01*
X33669321Y-37231345D01*
X33695905Y-37166732D01*
X33704952Y-37156636D01*
X34075786Y-36785802D01*
X34088048Y-36775980D01*
X34087865Y-36775759D01*
X34093868Y-36770791D01*
X34093877Y-36770786D01*
X34139934Y-36721739D01*
X34142582Y-36719006D01*
X34162120Y-36699470D01*
X34164570Y-36696310D01*
X34172154Y-36687429D01*
X34202062Y-36655582D01*
X34211714Y-36638023D01*
X34222389Y-36621772D01*
X34234674Y-36605936D01*
X34252030Y-36565825D01*
X34257161Y-36555354D01*
X34278194Y-36517098D01*
X34278194Y-36517097D01*
X34278197Y-36517092D01*
X34283180Y-36497680D01*
X34289477Y-36479291D01*
X34297438Y-36460895D01*
X34304270Y-36417748D01*
X34306639Y-36406316D01*
X34310058Y-36393000D01*
X34317500Y-36364019D01*
X34317500Y-36343983D01*
X34319027Y-36324582D01*
X34322160Y-36304804D01*
X34318050Y-36261324D01*
X34317500Y-36249655D01*
X34317500Y-34104453D01*
X34337185Y-34037414D01*
X34389989Y-33991659D01*
X34459147Y-33981715D01*
X34522703Y-34010740D01*
X34529181Y-34016772D01*
X34820371Y-34307962D01*
X34830196Y-34320225D01*
X34830417Y-34320043D01*
X34835385Y-34326048D01*
X34835387Y-34326050D01*
X34835388Y-34326051D01*
X34884396Y-34372073D01*
X34887195Y-34374786D01*
X34906696Y-34394288D01*
X34906700Y-34394291D01*
X34906703Y-34394294D01*
X34909876Y-34396755D01*
X34918748Y-34404333D01*
X34950592Y-34434236D01*
X34968150Y-34443888D01*
X34984411Y-34454570D01*
X35006404Y-34471630D01*
X35005560Y-34472717D01*
X35047568Y-34517709D01*
X35060071Y-34586451D01*
X35056473Y-34603342D01*
X35056678Y-34603386D01*
X35055326Y-34609743D01*
X35055326Y-34609744D01*
X35035540Y-34798000D01*
X35055326Y-34986256D01*
X35055327Y-34986259D01*
X35113818Y-35166277D01*
X35113821Y-35166284D01*
X35208467Y-35330216D01*
X35306995Y-35439642D01*
X35335129Y-35470888D01*
X35488265Y-35582148D01*
X35488270Y-35582151D01*
X35661192Y-35659142D01*
X35661197Y-35659144D01*
X35846354Y-35698500D01*
X35905548Y-35698500D01*
X35972587Y-35718185D01*
X35993229Y-35734819D01*
X36423675Y-36165265D01*
X36457160Y-36226588D01*
X36452176Y-36296280D01*
X36410304Y-36352213D01*
X36386431Y-36366225D01*
X36250267Y-36426850D01*
X36250265Y-36426851D01*
X36097129Y-36538111D01*
X35970467Y-36678784D01*
X35967543Y-36682808D01*
X35912210Y-36725469D01*
X35842596Y-36731443D01*
X35841450Y-36731205D01*
X35654647Y-36691500D01*
X35654646Y-36691500D01*
X35465354Y-36691500D01*
X35442692Y-36696317D01*
X35280197Y-36730855D01*
X35280192Y-36730857D01*
X35107270Y-36807848D01*
X35107265Y-36807851D01*
X34954129Y-36919111D01*
X34827466Y-37059785D01*
X34732821Y-37223715D01*
X34732818Y-37223722D01*
X34675784Y-37399256D01*
X34674326Y-37403744D01*
X34654540Y-37592000D01*
X34674326Y-37780256D01*
X34674327Y-37780259D01*
X34732818Y-37960277D01*
X34732821Y-37960284D01*
X34827467Y-38124216D01*
X34849247Y-38148405D01*
X34902650Y-38207715D01*
X34932880Y-38270706D01*
X34934500Y-38290687D01*
X34934500Y-39434741D01*
X34914815Y-39501780D01*
X34898181Y-39522422D01*
X32218208Y-42202394D01*
X32205951Y-42212215D01*
X32206134Y-42212436D01*
X32200122Y-42217409D01*
X32154098Y-42266418D01*
X32151391Y-42269211D01*
X32131889Y-42288712D01*
X32131875Y-42288729D01*
X32129407Y-42291910D01*
X32121843Y-42300765D01*
X32091937Y-42332613D01*
X32091936Y-42332615D01*
X32082284Y-42350171D01*
X32071610Y-42366421D01*
X32059329Y-42382256D01*
X32059324Y-42382263D01*
X32041975Y-42422353D01*
X32036838Y-42432839D01*
X32015803Y-42471101D01*
X32010822Y-42490502D01*
X32004521Y-42508905D01*
X31996562Y-42527297D01*
X31996561Y-42527300D01*
X31989728Y-42570438D01*
X31987360Y-42581869D01*
X31976501Y-42624166D01*
X31976500Y-42624177D01*
X31976500Y-42644211D01*
X31974973Y-42663610D01*
X31971840Y-42683389D01*
X31971840Y-42683390D01*
X31975950Y-42726869D01*
X31976500Y-42738538D01*
X31976500Y-43042852D01*
X31956815Y-43109891D01*
X31940181Y-43130533D01*
X31907533Y-43163181D01*
X31846210Y-43196666D01*
X31819852Y-43199500D01*
X29789341Y-43199500D01*
X29773724Y-43197776D01*
X29773697Y-43198062D01*
X29765935Y-43197327D01*
X29698748Y-43199439D01*
X29694854Y-43199500D01*
X29667254Y-43199500D01*
X29663566Y-43199965D01*
X29663253Y-43200005D01*
X29651635Y-43200918D01*
X29607977Y-43202290D01*
X29607976Y-43202290D01*
X29588733Y-43207881D01*
X29569683Y-43211825D01*
X29549815Y-43214334D01*
X29549814Y-43214335D01*
X29509204Y-43230413D01*
X29498157Y-43234195D01*
X29456214Y-43246381D01*
X29456213Y-43246382D01*
X29438971Y-43256579D01*
X29421503Y-43265137D01*
X29402873Y-43272513D01*
X29402870Y-43272515D01*
X29367543Y-43298181D01*
X29357784Y-43304592D01*
X29320183Y-43326830D01*
X29306012Y-43341000D01*
X29291227Y-43353628D01*
X29275016Y-43365407D01*
X29247175Y-43399059D01*
X29239315Y-43407696D01*
X28167682Y-44479331D01*
X22577832Y-50069181D01*
X22516509Y-50102666D01*
X22490151Y-50105500D01*
X16532945Y-50105500D01*
X16517328Y-50103776D01*
X16517301Y-50104062D01*
X16509539Y-50103327D01*
X16442352Y-50105439D01*
X16438458Y-50105500D01*
X16410858Y-50105500D01*
X16407170Y-50105965D01*
X16406857Y-50106005D01*
X16395239Y-50106918D01*
X16351581Y-50108290D01*
X16351580Y-50108290D01*
X16332337Y-50113881D01*
X16313287Y-50117825D01*
X16293419Y-50120334D01*
X16293418Y-50120335D01*
X16252808Y-50136413D01*
X16241761Y-50140195D01*
X16199818Y-50152381D01*
X16199817Y-50152382D01*
X16182575Y-50162579D01*
X16165107Y-50171137D01*
X16146477Y-50178513D01*
X16146474Y-50178515D01*
X16111147Y-50204181D01*
X16101388Y-50210592D01*
X16063787Y-50232830D01*
X16049616Y-50247000D01*
X16034831Y-50259628D01*
X16018620Y-50271407D01*
X15990779Y-50305059D01*
X15982919Y-50313696D01*
X13448208Y-52848407D01*
X13435951Y-52858228D01*
X13436134Y-52858449D01*
X13430122Y-52863422D01*
X13384098Y-52912431D01*
X13381391Y-52915224D01*
X13361889Y-52934725D01*
X13361875Y-52934742D01*
X13359407Y-52937923D01*
X13351843Y-52946778D01*
X13321937Y-52978626D01*
X13321936Y-52978628D01*
X13312284Y-52996184D01*
X13301610Y-53012434D01*
X13289329Y-53028269D01*
X13289324Y-53028276D01*
X13271975Y-53068366D01*
X13266838Y-53078852D01*
X13245803Y-53117114D01*
X13240822Y-53136515D01*
X13234521Y-53154918D01*
X13226562Y-53173310D01*
X13226561Y-53173313D01*
X13219728Y-53216451D01*
X13217360Y-53227882D01*
X13206501Y-53270179D01*
X13206500Y-53270190D01*
X13206500Y-53290224D01*
X13204973Y-53309623D01*
X13201840Y-53329402D01*
X13201840Y-53329403D01*
X12377812Y-53329403D01*
X12380267Y-45610026D01*
X12388595Y-19431000D01*
X15123659Y-19431000D01*
X15142975Y-19627129D01*
X15142976Y-19627132D01*
X15178084Y-19742868D01*
X15200187Y-19815729D01*
X15201321Y-19817850D01*
X15201580Y-19819094D01*
X15202518Y-19821359D01*
X15202088Y-19821536D01*
X15215564Y-19886253D01*
X15191233Y-19950614D01*
X15185205Y-19958666D01*
X15185202Y-19958671D01*
X15134908Y-20093517D01*
X15128501Y-20153116D01*
X15128500Y-20153135D01*
X15128500Y-21248870D01*
X15128501Y-21248876D01*
X15134908Y-21308483D01*
X15185202Y-21443328D01*
X15185206Y-21443335D01*
X15271452Y-21558544D01*
X15271455Y-21558547D01*
X15386664Y-21644793D01*
X15386671Y-21644797D01*
X15521517Y-21695091D01*
X15521516Y-21695091D01*
X15528444Y-21695835D01*
X15581127Y-21701500D01*
X16676872Y-21701499D01*
X16736483Y-21695091D01*
X16871331Y-21644796D01*
X16879379Y-21638770D01*
X16944842Y-21614351D01*
X17008474Y-21627895D01*
X17008645Y-21627483D01*
X17010875Y-21628406D01*
X17012146Y-21628677D01*
X17014273Y-21629814D01*
X17202868Y-21687024D01*
X17399000Y-21706341D01*
X17595132Y-21687024D01*
X17783727Y-21629814D01*
X17785853Y-21628678D01*
X17917060Y-21558546D01*
X17957538Y-21536910D01*
X18109883Y-21411883D01*
X18234910Y-21259538D01*
X18327814Y-21085727D01*
X18385024Y-20897132D01*
X18404341Y-20701000D01*
X18385024Y-20504868D01*
X18327814Y-20316273D01*
X18234910Y-20142462D01*
X18234907Y-20142458D01*
X18231523Y-20137393D01*
X18233164Y-20136296D01*
X18209405Y-20080361D01*
X18221194Y-20011493D01*
X18231888Y-19994851D01*
X18231523Y-19994607D01*
X18234904Y-19989544D01*
X18234910Y-19989538D01*
X18327814Y-19815727D01*
X18385024Y-19627132D01*
X18404341Y-19431000D01*
X18385024Y-19234868D01*
X18327814Y-19046273D01*
X18234910Y-18872462D01*
X18234907Y-18872458D01*
X18231523Y-18867393D01*
X18233164Y-18866296D01*
X18209405Y-18810361D01*
X18221194Y-18741493D01*
X18231888Y-18724851D01*
X18231523Y-18724607D01*
X18234904Y-18719544D01*
X18234910Y-18719538D01*
X18327814Y-18545727D01*
X18385024Y-18357132D01*
X18404341Y-18161000D01*
X18385024Y-17964868D01*
X18327814Y-17776273D01*
X18234910Y-17602462D01*
X18234907Y-17602458D01*
X18231523Y-17597393D01*
X18233164Y-17596296D01*
X18209405Y-17540361D01*
X18221194Y-17471493D01*
X18231888Y-17454851D01*
X18231523Y-17454607D01*
X18234904Y-17449544D01*
X18234910Y-17449538D01*
X18327814Y-17275727D01*
X18385024Y-17087132D01*
X18404341Y-16891000D01*
X18385024Y-16694868D01*
X18327814Y-16506273D01*
X18234910Y-16332462D01*
X18234907Y-16332458D01*
X18231523Y-16327393D01*
X18233164Y-16326296D01*
X18209405Y-16270361D01*
X18221194Y-16201493D01*
X18231888Y-16184851D01*
X18231523Y-16184607D01*
X18234904Y-16179544D01*
X18234910Y-16179538D01*
X18327814Y-16005727D01*
X18385024Y-15817132D01*
X18404341Y-15621000D01*
X18385024Y-15424868D01*
X18327814Y-15236273D01*
X18327811Y-15236269D01*
X18327811Y-15236266D01*
X18234913Y-15062467D01*
X18234909Y-15062460D01*
X18109883Y-14910116D01*
X17957539Y-14785090D01*
X17957532Y-14785086D01*
X17783733Y-14692188D01*
X17783727Y-14692186D01*
X17595132Y-14634976D01*
X17595129Y-14634975D01*
X17399000Y-14615659D01*
X17202870Y-14634975D01*
X17014266Y-14692188D01*
X16840467Y-14785086D01*
X16835399Y-14788473D01*
X16834386Y-14786958D01*
X16777936Y-14810920D01*
X16709071Y-14799115D01*
X16692574Y-14788511D01*
X16692322Y-14788890D01*
X16687253Y-14785503D01*
X16513541Y-14692652D01*
X16379000Y-14651839D01*
X16379000Y-15413327D01*
X16341129Y-15368195D01*
X16241871Y-15310888D01*
X16157436Y-15296000D01*
X16100564Y-15296000D01*
X16016129Y-15310888D01*
X15916871Y-15368195D01*
X15843199Y-15455993D01*
X15804000Y-15563694D01*
X15804000Y-15678306D01*
X15843199Y-15786007D01*
X15914517Y-15871000D01*
X15159840Y-15871000D01*
X15200652Y-16005541D01*
X15293503Y-16179253D01*
X15296890Y-16184322D01*
X15295215Y-16185440D01*
X15318918Y-16241259D01*
X15307123Y-16310125D01*
X15296158Y-16327188D01*
X15296473Y-16327399D01*
X15293086Y-16332467D01*
X15200188Y-16506266D01*
X15142975Y-16694870D01*
X15123659Y-16891000D01*
X15142975Y-17087129D01*
X15142976Y-17087132D01*
X15199760Y-17274324D01*
X15200188Y-17275733D01*
X15293086Y-17449532D01*
X15296473Y-17454601D01*
X15294836Y-17455694D01*
X15318596Y-17511663D01*
X15306795Y-17580529D01*
X15296109Y-17597156D01*
X15296473Y-17597399D01*
X15293086Y-17602467D01*
X15200188Y-17776266D01*
X15142975Y-17964870D01*
X15123659Y-18161000D01*
X15142975Y-18357129D01*
X15200188Y-18545733D01*
X15293086Y-18719532D01*
X15296473Y-18724601D01*
X15294836Y-18725694D01*
X15318596Y-18781663D01*
X15306795Y-18850529D01*
X15296109Y-18867156D01*
X15296473Y-18867399D01*
X15293086Y-18872467D01*
X15200188Y-19046266D01*
X15142975Y-19234870D01*
X15123659Y-19431000D01*
X12388595Y-19431000D01*
X12389887Y-15370999D01*
X15159839Y-15370999D01*
X15159840Y-15371000D01*
X15879000Y-15371000D01*
X15879000Y-14651839D01*
X15878999Y-14651839D01*
X15744458Y-14692652D01*
X15570746Y-14785503D01*
X15570739Y-14785507D01*
X15418471Y-14910471D01*
X15293507Y-15062739D01*
X15293503Y-15062746D01*
X15200652Y-15236458D01*
X15159839Y-15370999D01*
X12389887Y-15370999D01*
X12390800Y-12500150D01*
X12410506Y-12433118D01*
X12463324Y-12387380D01*
X12514735Y-12376191D01*
X20516412Y-12372242D01*
X20583460Y-12391893D01*
G37*
%TD.AperFunction*%
%TD*%
M02*
