%TF.GenerationSoftware,KiCad,Pcbnew,7.0.10*%
%TF.CreationDate,2025-06-08T09:47:40+02:00*%
%TF.ProjectId,DIC,4449432e-6b69-4636-9164-5f7063625858,rev?*%
%TF.SameCoordinates,Original*%
%TF.FileFunction,Copper,L3,Inr*%
%TF.FilePolarity,Positive*%
%FSLAX46Y46*%
G04 Gerber Fmt 4.6, Leading zero omitted, Abs format (unit mm)*
G04 Created by KiCad (PCBNEW 7.0.10) date 2025-06-08 09:47:40*
%MOMM*%
%LPD*%
G01*
G04 APERTURE LIST*
%TA.AperFunction,ComponentPad*%
%ADD10C,1.524000*%
%TD*%
%TA.AperFunction,ComponentPad*%
%ADD11R,1.600000X1.600000*%
%TD*%
%TA.AperFunction,ComponentPad*%
%ADD12C,1.600000*%
%TD*%
%TA.AperFunction,ComponentPad*%
%ADD13R,1.000000X1.000000*%
%TD*%
%TA.AperFunction,ComponentPad*%
%ADD14O,1.000000X1.000000*%
%TD*%
%TA.AperFunction,ComponentPad*%
%ADD15R,1.500000X2.300000*%
%TD*%
%TA.AperFunction,ComponentPad*%
%ADD16O,1.500000X2.300000*%
%TD*%
%TA.AperFunction,ViaPad*%
%ADD17C,0.800000*%
%TD*%
%TA.AperFunction,Conductor*%
%ADD18C,0.750000*%
%TD*%
%TA.AperFunction,Conductor*%
%ADD19C,0.500000*%
%TD*%
%TA.AperFunction,Conductor*%
%ADD20C,0.250000*%
%TD*%
G04 APERTURE END LIST*
D10*
%TO.N,unconnected-(U6-NC-Pad1)*%
%TO.C,U6*%
X21717000Y-61159000D03*
%TO.N,unconnected-(U6-NC-Pad2)*%
X24257000Y-61159000D03*
%TO.N,unconnected-(U6-NC-Pad3)*%
X26797000Y-61159000D03*
%TO.N,unconnected-(U6-NC-Pad18)*%
X64897000Y-61159000D03*
%TO.N,unconnected-(U6-NC-Pad19)*%
X67437000Y-61159000D03*
%TO.N,unconnected-(U6-NC-Pad20)*%
X69977000Y-61159000D03*
%TO.N,+12V*%
X69977000Y-13199000D03*
X67437000Y-13199000D03*
%TO.N,GND*%
X64897000Y-13199000D03*
X62357000Y-13199000D03*
%TO.N,+3.3V*%
X59817000Y-13199000D03*
%TO.N,GND*%
X57277000Y-13199000D03*
X54737000Y-13199000D03*
X52197000Y-13199000D03*
%TO.N,/nCS_Display*%
X49657000Y-13199000D03*
%TO.N,/nRES_Display*%
X47117000Y-13199000D03*
%TO.N,/D_nC_Display*%
X44577000Y-13199000D03*
%TO.N,/SPI1_SCK_Display*%
X42037000Y-13199000D03*
%TO.N,/SPI1_MOSI_Display*%
X39497000Y-13199000D03*
%TO.N,unconnected-(U6-D2-Pad34)*%
X36957000Y-13199000D03*
%TO.N,GND*%
X34417000Y-13199000D03*
%TO.N,Net-(U6-IREF)*%
X31877000Y-13199000D03*
%TO.N,Net-(C20-Pad2)*%
X29337000Y-13199000D03*
X26797000Y-13199000D03*
%TO.N,+12V*%
X24257000Y-13199000D03*
X21717000Y-13199000D03*
%TD*%
%TO.N,/SPI2_MOSI_RGBLED*%
%TO.C,U4*%
X44577000Y-10733000D03*
%TO.N,/SPI2_SCK_RGBLED*%
X47117000Y-10733000D03*
%TO.N,+5V*%
X17907000Y-62803000D03*
%TO.N,GND*%
X73787000Y-62803000D03*
%TD*%
D11*
%TO.N,+3.3V*%
%TO.C,C21*%
X28067000Y-57531000D03*
D12*
%TO.N,GND*%
X28067000Y-54031000D03*
%TD*%
D13*
%TO.N,unconnected-(JTAG1-Pin_1-Pad1)*%
%TO.C,JTAG1*%
X76835000Y-29718000D03*
D14*
%TO.N,unconnected-(JTAG1-Pin_2-Pad2)*%
X75565000Y-29718000D03*
%TO.N,+3.3V*%
X76835000Y-30988000D03*
%TO.N,JTMS{slash}SWDIO*%
X75565000Y-30988000D03*
%TO.N,GND*%
X76835000Y-32258000D03*
%TO.N,JCLK{slash}SWCLK*%
X75565000Y-32258000D03*
%TO.N,GND*%
X76835000Y-33528000D03*
%TO.N,JTDO{slash}SWO*%
X75565000Y-33528000D03*
%TO.N,unconnected-(JTAG1-Pin_9-Pad9)*%
X76835000Y-34798000D03*
%TO.N,JTDI{slash}NC*%
X75565000Y-34798000D03*
%TO.N,GND*%
X76835000Y-36068000D03*
%TO.N,Reset*%
X75565000Y-36068000D03*
%TO.N,T_VCP_RX*%
X76835000Y-37338000D03*
%TO.N,T_VCP_TX*%
X75565000Y-37338000D03*
%TD*%
D13*
%TO.N,+BATT*%
%TO.C,J3*%
X75819000Y-54473000D03*
D14*
X74549000Y-54473000D03*
%TO.N,+12V*%
X75819000Y-55743000D03*
X74549000Y-55743000D03*
%TO.N,GND*%
X75819000Y-57013000D03*
X74549000Y-57013000D03*
%TO.N,+3.3V*%
X75819000Y-58283000D03*
X74549000Y-58283000D03*
%TO.N,+5V*%
X75819000Y-59553000D03*
X74549000Y-59553000D03*
%TD*%
D13*
%TO.N,GPIO5_5VOut*%
%TO.C,J5*%
X16891000Y-54483000D03*
D14*
%TO.N,GPIO4_12VOut*%
X15621000Y-54483000D03*
%TO.N,GPIO6_12VOut*%
X16891000Y-55753000D03*
%TO.N,GPIO4_5VOut*%
X15621000Y-55753000D03*
%TO.N,GPIO6_5VOut*%
X16891000Y-57023000D03*
%TO.N,GPIO5_12VOut*%
X15621000Y-57023000D03*
%TO.N,GPIO6_In*%
X16891000Y-58293000D03*
%TO.N,GPIO4_In*%
X15621000Y-58293000D03*
%TO.N,GPIO5_In*%
X16891000Y-59563000D03*
%TO.N,GND*%
X15621000Y-59563000D03*
%TD*%
D15*
%TO.N,+BATT*%
%TO.C,U1*%
X49877000Y-53213000D03*
D16*
%TO.N,GND*%
X52417000Y-53213000D03*
%TO.N,+5V*%
X54957000Y-53213000D03*
%TD*%
D15*
%TO.N,+BATT*%
%TO.C,U5*%
X36542000Y-53213000D03*
D16*
%TO.N,GND*%
X39082000Y-53213000D03*
%TO.N,+3.3V*%
X41622000Y-53213000D03*
%TD*%
D13*
%TO.N,GPIO2_In*%
%TO.C,J4*%
X16129000Y-20701000D03*
D14*
%TO.N,GPIO2_5VOut*%
X17399000Y-20701000D03*
%TO.N,GPIO3_12VOut*%
X16129000Y-19431000D03*
%TO.N,GPIO2_12VOut*%
X17399000Y-19431000D03*
%TO.N,GPIO3_5VOut*%
X16129000Y-18161000D03*
%TO.N,GPIO1_In*%
X17399000Y-18161000D03*
%TO.N,GPIO3_In*%
X16129000Y-16891000D03*
%TO.N,GPIO1_5VOut*%
X17399000Y-16891000D03*
%TO.N,GND*%
X16129000Y-15621000D03*
%TO.N,GPIO1_12VOut*%
X17399000Y-15621000D03*
%TD*%
D13*
%TO.N,CAN1_N*%
%TO.C,J2*%
X76200000Y-14859000D03*
D14*
%TO.N,CAN1_P*%
X74930000Y-14859000D03*
%TO.N,Analog0_In*%
X76200000Y-16129000D03*
%TO.N,GND*%
X74930000Y-16129000D03*
X76200000Y-17399000D03*
%TO.N,Analog1_In*%
X74930000Y-17399000D03*
%TO.N,GND*%
X76200000Y-18669000D03*
%TO.N,Analog2_In*%
X74930000Y-18669000D03*
%TO.N,GND*%
X76200000Y-19939000D03*
%TO.N,Analog3_In*%
X74930000Y-19939000D03*
%TD*%
D11*
%TO.N,+BATT*%
%TO.C,C13*%
X65222000Y-55753000D03*
D12*
%TO.N,GND*%
X61722000Y-55753000D03*
%TD*%
D17*
%TO.N,GND*%
X68707000Y-45339000D03*
X50136531Y-25051000D03*
X68072000Y-17526000D03*
X78232000Y-46736000D03*
X50800000Y-57023000D03*
X34163000Y-15621000D03*
X56500000Y-32250000D03*
X63881000Y-40005000D03*
X25072000Y-32500000D03*
X25527000Y-54864000D03*
X76536232Y-61980268D03*
X61849000Y-53340000D03*
X18288000Y-29591000D03*
X52023000Y-21250000D03*
X30480000Y-19431000D03*
X35052000Y-59846000D03*
X67552250Y-21070250D03*
X59182000Y-31115000D03*
X16256000Y-26797000D03*
X63754000Y-35306000D03*
X29210000Y-51816000D03*
X22606000Y-58166000D03*
X61341000Y-28321000D03*
X38862000Y-57150000D03*
X24257000Y-56388000D03*
X72898000Y-49657000D03*
X72517000Y-14224000D03*
X25146000Y-28956000D03*
X25019000Y-26035000D03*
X20320000Y-49276000D03*
X31877000Y-43053000D03*
X22352000Y-48895000D03*
X28067000Y-21463000D03*
X58801000Y-56896000D03*
X40458804Y-42091194D03*
X24003000Y-47244000D03*
X57150000Y-49530000D03*
X14478000Y-24638000D03*
X76962000Y-52197000D03*
X29464000Y-24765000D03*
X54229000Y-60452000D03*
X76962000Y-28067000D03*
X67056000Y-37465000D03*
X31750000Y-22225000D03*
X36250000Y-17750000D03*
X33274000Y-56388000D03*
X25908000Y-17399000D03*
X52070000Y-39751000D03*
X66167000Y-50165000D03*
X75311000Y-24765000D03*
X49911000Y-16764000D03*
X59309000Y-25781000D03*
X57926747Y-40117253D03*
X46228000Y-57023000D03*
X39633500Y-25146000D03*
X69469000Y-41783000D03*
X61595000Y-39116000D03*
X51435000Y-27686000D03*
X68580000Y-32131000D03*
X49403000Y-31115000D03*
X34407000Y-34019760D03*
X32639000Y-41402000D03*
X51308000Y-17780000D03*
X28956000Y-39116000D03*
X66802000Y-58293000D03*
X30226000Y-50800000D03*
X61214000Y-47625000D03*
X25146000Y-46101000D03*
X67970400Y-54254400D03*
X46482000Y-21525000D03*
X36576000Y-43180000D03*
X71374000Y-37211000D03*
X59055000Y-54102000D03*
X73025000Y-16637000D03*
%TO.N,+3.3V*%
X57023000Y-21209000D03*
X42164000Y-20636000D03*
X40665497Y-23114000D03*
X51149551Y-31161078D03*
X40144616Y-41142777D03*
X65659000Y-46101000D03*
X32893000Y-22225000D03*
X59563000Y-36195000D03*
X60452000Y-17907000D03*
X54176428Y-29416264D03*
X50335000Y-29613627D03*
X52265153Y-23690153D03*
X45720000Y-60960000D03*
X33580000Y-42750500D03*
X66802000Y-28194000D03*
%TO.N,+BATT*%
X55932000Y-55245000D03*
X53982000Y-55245000D03*
%TO.N,+5V*%
X64389000Y-22733000D03*
X59055000Y-43688000D03*
X50165000Y-40132000D03*
X43746847Y-26199000D03*
X55361250Y-47995250D03*
X56261000Y-25781000D03*
%TO.N,Analog0_In*%
X74756000Y-26000000D03*
X72000000Y-26500000D03*
%TO.N,JCLK{slash}SWCLK*%
X41384467Y-38579766D03*
%TO.N,JTMS{slash}SWDIO*%
X40485915Y-37681213D03*
%TO.N,Reset*%
X72738082Y-29273082D03*
X28702000Y-34544000D03*
X28194000Y-37084000D03*
X74417347Y-34068000D03*
%TO.N,Analog3_In*%
X72808000Y-22355667D03*
%TO.N,+12V*%
X39624000Y-15875000D03*
X55793347Y-15438161D03*
X51562000Y-14986000D03*
%TO.N,ADC1*%
X35909186Y-33199174D03*
X47281000Y-30381413D03*
%TO.N,ADC2*%
X36615695Y-32491466D03*
X44843547Y-30351154D03*
%TO.N,ADC3*%
X32004000Y-28829000D03*
X48450500Y-25082500D03*
%TO.N,ADC0*%
X49082251Y-27058798D03*
X34417000Y-33020000D03*
%TO.N,/CAN_TX*%
X40426000Y-30771000D03*
X42924502Y-29601803D03*
%TO.N,GPIO3_In*%
X42746539Y-48370500D03*
X37677721Y-50195607D03*
%TO.N,GPIO3_5VOut*%
X41770172Y-48586632D03*
X38481000Y-49600000D03*
%TO.N,GPIO4_In*%
X35250000Y-38000000D03*
%TO.N,GPIO4_5VOut*%
X36559782Y-45450000D03*
%TO.N,GPIO4_12VOut*%
X35560000Y-45450000D03*
%TO.N,GPIO5_12VOut*%
X36750000Y-37250000D03*
%TO.N,GPIO5_5VOut*%
X37719000Y-45450000D03*
%TO.N,GPIO5_In*%
X38440918Y-38309082D03*
%TO.N,GPIO6_12VOut*%
X38711298Y-45326102D03*
%TO.N,GPIO6_5VOut*%
X39497000Y-44704000D03*
%TO.N,GPIO6_In*%
X40402885Y-44085885D03*
%TO.N,ADC1_NTC_CTRL*%
X60960000Y-41275000D03*
X37088653Y-34835000D03*
%TO.N,ADC0_NTC_CTRL*%
X60960000Y-33655000D03*
X38113168Y-34835791D03*
%TO.N,ADC1_CTRL*%
X46478089Y-28157000D03*
X39254399Y-29706601D03*
%TO.N,ADC2_NTC_CTRL*%
X35941000Y-34798000D03*
X56642000Y-53086000D03*
%TO.N,ADC2_CTRL*%
X56750000Y-44613250D03*
X53340000Y-39751000D03*
X59219000Y-47752000D03*
%TO.N,ADC0_CTRL*%
X45080347Y-27427347D03*
X32766000Y-37211000D03*
%TO.N,ADC3_NTC_CTRL*%
X65405720Y-27618280D03*
X39633306Y-35433000D03*
%TO.N,/SPI2_MOSI_RGBLED*%
X27750000Y-30250000D03*
X32523849Y-33285012D03*
X50267269Y-15010731D03*
X41655000Y-22936000D03*
%TO.N,/nCS_Display*%
X34500000Y-22250000D03*
X34055718Y-24066249D03*
%TO.N,/SPI1_SCK_Display*%
X38481000Y-14859000D03*
X36503195Y-14786195D03*
%TO.N,/D_nC_Display*%
X35500633Y-22963000D03*
X40124588Y-18335000D03*
%TO.N,/nRES_Display*%
X41402000Y-18669000D03*
%TO.N,/SPI2_SCK_RGBLED*%
X50678465Y-14099182D03*
X37663210Y-22913210D03*
%TO.N,ADC3_CTRL*%
X46179376Y-29607000D03*
X58371000Y-19485192D03*
%TD*%
D18*
%TO.N,+5V*%
X55361250Y-47995250D02*
X55361250Y-45328250D01*
D19*
X54826060Y-53213000D02*
X54957000Y-53213000D01*
X57785000Y-27432000D02*
X61468000Y-27432000D01*
X61468000Y-27432000D02*
X64389000Y-24511000D01*
D20*
X59055000Y-43688000D02*
X57414750Y-45328250D01*
D19*
X55880000Y-26162000D02*
X56261000Y-25781000D01*
D20*
X57414750Y-45328250D02*
X55361250Y-45328250D01*
D18*
X44439688Y-28165547D02*
X44439688Y-29376154D01*
D19*
X47420000Y-59006000D02*
X51528940Y-54897060D01*
X43783847Y-26162000D02*
X55880000Y-26162000D01*
D18*
X44439688Y-29376154D02*
X43868547Y-29947295D01*
D19*
X51528940Y-54897060D02*
X53142000Y-54897060D01*
X56261000Y-25781000D02*
X56261000Y-25908000D01*
X43746847Y-26199000D02*
X43783847Y-26162000D01*
X64389000Y-24511000D02*
X64389000Y-22733000D01*
X17907000Y-62803000D02*
X21704000Y-59006000D01*
D18*
X43868547Y-33835547D02*
X50165000Y-40132000D01*
D19*
X21704000Y-59006000D02*
X47420000Y-59006000D01*
D18*
X43746847Y-26199000D02*
X43746847Y-27472706D01*
X43868547Y-29947295D02*
X43868547Y-33835547D01*
D19*
X56261000Y-25908000D02*
X57785000Y-27432000D01*
D18*
X43746847Y-27472706D02*
X44439688Y-28165547D01*
D19*
X53142000Y-54897060D02*
X54826060Y-53213000D01*
D18*
X55361250Y-45328250D02*
X50165000Y-40132000D01*
D19*
%TO.N,+12V*%
X50687269Y-15860731D02*
X39638269Y-15860731D01*
X51562000Y-14986000D02*
X50687269Y-15860731D01*
X39638269Y-15860731D02*
X39624000Y-15875000D01*
%TD*%
%TA.AperFunction,Conductor*%
%TO.N,GND*%
G36*
X75533199Y-56847993D02*
G01*
X75494000Y-56955694D01*
X75494000Y-57070306D01*
X75533199Y-57178007D01*
X75604517Y-57263000D01*
X74763483Y-57263000D01*
X74834801Y-57178007D01*
X74874000Y-57070306D01*
X74874000Y-56955694D01*
X74834801Y-56847993D01*
X74763483Y-56763000D01*
X75604517Y-56763000D01*
X75533199Y-56847993D01*
G37*
%TD.AperFunction*%
%TA.AperFunction,Conductor*%
G36*
X20583460Y-12391893D02*
G01*
X20629241Y-12444675D01*
X20639219Y-12513828D01*
X20620979Y-12559964D01*
X20622172Y-12560653D01*
X20619465Y-12565340D01*
X20526107Y-12765548D01*
X20526104Y-12765554D01*
X20468930Y-12978929D01*
X20468929Y-12978937D01*
X20449677Y-13198997D01*
X20449677Y-13199002D01*
X20468929Y-13419062D01*
X20468930Y-13419070D01*
X20526104Y-13632445D01*
X20526105Y-13632447D01*
X20526106Y-13632450D01*
X20558830Y-13702627D01*
X20619466Y-13832662D01*
X20619468Y-13832666D01*
X20746170Y-14013615D01*
X20746175Y-14013621D01*
X20902378Y-14169824D01*
X20902384Y-14169829D01*
X21083333Y-14296531D01*
X21083335Y-14296532D01*
X21083338Y-14296534D01*
X21283550Y-14389894D01*
X21496932Y-14447070D01*
X21654123Y-14460822D01*
X21716998Y-14466323D01*
X21717000Y-14466323D01*
X21717002Y-14466323D01*
X21772017Y-14461509D01*
X21937068Y-14447070D01*
X22150450Y-14389894D01*
X22350662Y-14296534D01*
X22531620Y-14169826D01*
X22687826Y-14013620D01*
X22814534Y-13832662D01*
X22874618Y-13703811D01*
X22920790Y-13651371D01*
X22987983Y-13632219D01*
X23054865Y-13652435D01*
X23099382Y-13703811D01*
X23159464Y-13832658D01*
X23159468Y-13832666D01*
X23286170Y-14013615D01*
X23286175Y-14013621D01*
X23442378Y-14169824D01*
X23442384Y-14169829D01*
X23623333Y-14296531D01*
X23623335Y-14296532D01*
X23623338Y-14296534D01*
X23823550Y-14389894D01*
X24036932Y-14447070D01*
X24194123Y-14460822D01*
X24256998Y-14466323D01*
X24257000Y-14466323D01*
X24257002Y-14466323D01*
X24312017Y-14461509D01*
X24477068Y-14447070D01*
X24690450Y-14389894D01*
X24890662Y-14296534D01*
X25071620Y-14169826D01*
X25227826Y-14013620D01*
X25354534Y-13832662D01*
X25414618Y-13703811D01*
X25460790Y-13651371D01*
X25527983Y-13632219D01*
X25594865Y-13652435D01*
X25639382Y-13703811D01*
X25699464Y-13832658D01*
X25699468Y-13832666D01*
X25826170Y-14013615D01*
X25826175Y-14013621D01*
X25982378Y-14169824D01*
X25982384Y-14169829D01*
X26163333Y-14296531D01*
X26163335Y-14296532D01*
X26163338Y-14296534D01*
X26363550Y-14389894D01*
X26576932Y-14447070D01*
X26734123Y-14460822D01*
X26796998Y-14466323D01*
X26797000Y-14466323D01*
X26797002Y-14466323D01*
X26852017Y-14461509D01*
X27017068Y-14447070D01*
X27230450Y-14389894D01*
X27430662Y-14296534D01*
X27611620Y-14169826D01*
X27767826Y-14013620D01*
X27894534Y-13832662D01*
X27954618Y-13703811D01*
X28000790Y-13651371D01*
X28067983Y-13632219D01*
X28134865Y-13652435D01*
X28179382Y-13703811D01*
X28239464Y-13832658D01*
X28239468Y-13832666D01*
X28366170Y-14013615D01*
X28366175Y-14013621D01*
X28522378Y-14169824D01*
X28522384Y-14169829D01*
X28703333Y-14296531D01*
X28703335Y-14296532D01*
X28703338Y-14296534D01*
X28903550Y-14389894D01*
X29116932Y-14447070D01*
X29274123Y-14460822D01*
X29336998Y-14466323D01*
X29337000Y-14466323D01*
X29337002Y-14466323D01*
X29392017Y-14461509D01*
X29557068Y-14447070D01*
X29770450Y-14389894D01*
X29970662Y-14296534D01*
X30151620Y-14169826D01*
X30307826Y-14013620D01*
X30434534Y-13832662D01*
X30494618Y-13703811D01*
X30540790Y-13651371D01*
X30607983Y-13632219D01*
X30674865Y-13652435D01*
X30719382Y-13703811D01*
X30779464Y-13832658D01*
X30779468Y-13832666D01*
X30906170Y-14013615D01*
X30906175Y-14013621D01*
X31062378Y-14169824D01*
X31062384Y-14169829D01*
X31243333Y-14296531D01*
X31243335Y-14296532D01*
X31243338Y-14296534D01*
X31443550Y-14389894D01*
X31656932Y-14447070D01*
X31814123Y-14460822D01*
X31876998Y-14466323D01*
X31877000Y-14466323D01*
X31877002Y-14466323D01*
X31932017Y-14461509D01*
X32097068Y-14447070D01*
X32310450Y-14389894D01*
X32510662Y-14296534D01*
X32691620Y-14169826D01*
X32847826Y-14013620D01*
X32974534Y-13832662D01*
X33034894Y-13703218D01*
X33081066Y-13650779D01*
X33148259Y-13631627D01*
X33215141Y-13651843D01*
X33259658Y-13703219D01*
X33319898Y-13832405D01*
X33319901Y-13832411D01*
X33365258Y-13897187D01*
X33365258Y-13897188D01*
X34032096Y-13230350D01*
X34032051Y-13230898D01*
X34063266Y-13354162D01*
X34132813Y-13460612D01*
X34233157Y-13538713D01*
X34353422Y-13580000D01*
X34389553Y-13580000D01*
X33718810Y-14250740D01*
X33783590Y-14296099D01*
X33783592Y-14296100D01*
X33983715Y-14389419D01*
X33983729Y-14389424D01*
X34197013Y-14446573D01*
X34197023Y-14446575D01*
X34416999Y-14465821D01*
X34417001Y-14465821D01*
X34636976Y-14446575D01*
X34636986Y-14446573D01*
X34850270Y-14389424D01*
X34850284Y-14389419D01*
X35050407Y-14296100D01*
X35050417Y-14296094D01*
X35115188Y-14250741D01*
X34444448Y-13580000D01*
X34448569Y-13580000D01*
X34542421Y-13564339D01*
X34654251Y-13503820D01*
X34740371Y-13410269D01*
X34791448Y-13293823D01*
X34797105Y-13225552D01*
X35468741Y-13897188D01*
X35514094Y-13832417D01*
X35514095Y-13832416D01*
X35574340Y-13703219D01*
X35620512Y-13650780D01*
X35687706Y-13631627D01*
X35754587Y-13651842D01*
X35799105Y-13703218D01*
X35859466Y-13832662D01*
X35859469Y-13832666D01*
X35932586Y-13937090D01*
X35954913Y-14003296D01*
X35937903Y-14071064D01*
X35903902Y-14108527D01*
X35897325Y-14113305D01*
X35897318Y-14113311D01*
X35770661Y-14253980D01*
X35676016Y-14417910D01*
X35676013Y-14417917D01*
X35617522Y-14597935D01*
X35617521Y-14597939D01*
X35597735Y-14786195D01*
X35617521Y-14974451D01*
X35617522Y-14974454D01*
X35676013Y-15154472D01*
X35676016Y-15154479D01*
X35770662Y-15318411D01*
X35878486Y-15438161D01*
X35897324Y-15459083D01*
X36050460Y-15570343D01*
X36050465Y-15570346D01*
X36223387Y-15647337D01*
X36223392Y-15647339D01*
X36408549Y-15686695D01*
X36408550Y-15686695D01*
X36597839Y-15686695D01*
X36597841Y-15686695D01*
X36782998Y-15647339D01*
X36955925Y-15570346D01*
X37109066Y-15459083D01*
X37235728Y-15318411D01*
X37330374Y-15154479D01*
X37362338Y-15056103D01*
X37401775Y-14998428D01*
X37466133Y-14971229D01*
X37534980Y-14983143D01*
X37586456Y-15030387D01*
X37598200Y-15056103D01*
X37653818Y-15227277D01*
X37653821Y-15227284D01*
X37748467Y-15391216D01*
X37790737Y-15438161D01*
X37875129Y-15531888D01*
X38028265Y-15643148D01*
X38028270Y-15643151D01*
X38201192Y-15720142D01*
X38201197Y-15720144D01*
X38386354Y-15759500D01*
X38386355Y-15759500D01*
X38575643Y-15759500D01*
X38575646Y-15759500D01*
X38575648Y-15759499D01*
X38581644Y-15758869D01*
X38650374Y-15771435D01*
X38701401Y-15819164D01*
X38717933Y-15869227D01*
X38723366Y-15920921D01*
X38738326Y-16063256D01*
X38738327Y-16063259D01*
X38796818Y-16243277D01*
X38796821Y-16243284D01*
X38891467Y-16407216D01*
X38980655Y-16506269D01*
X39018129Y-16547888D01*
X39171265Y-16659148D01*
X39171270Y-16659151D01*
X39344192Y-16736142D01*
X39344197Y-16736144D01*
X39529354Y-16775500D01*
X39529355Y-16775500D01*
X39718644Y-16775500D01*
X39718646Y-16775500D01*
X39903803Y-16736144D01*
X40076730Y-16659151D01*
X40110092Y-16634911D01*
X40175899Y-16611433D01*
X40182977Y-16611231D01*
X50623564Y-16611231D01*
X50641534Y-16612540D01*
X50665292Y-16616020D01*
X50714638Y-16611702D01*
X50725445Y-16611231D01*
X50730973Y-16611231D01*
X50730978Y-16611231D01*
X50761825Y-16607624D01*
X50765299Y-16607270D01*
X50840066Y-16600730D01*
X50840074Y-16600727D01*
X50847135Y-16599270D01*
X50847147Y-16599329D01*
X50854512Y-16597696D01*
X50854498Y-16597637D01*
X50861518Y-16595972D01*
X50861524Y-16595972D01*
X50932048Y-16570303D01*
X50935386Y-16569143D01*
X51006603Y-16545545D01*
X51006611Y-16545539D01*
X51013151Y-16542491D01*
X51013177Y-16542547D01*
X51019959Y-16539263D01*
X51019932Y-16539209D01*
X51026382Y-16535969D01*
X51026386Y-16535968D01*
X51089106Y-16494715D01*
X51092001Y-16492871D01*
X51155925Y-16453443D01*
X51155931Y-16453436D01*
X51161594Y-16448960D01*
X51161631Y-16449008D01*
X51167473Y-16444249D01*
X51167433Y-16444202D01*
X51172955Y-16439566D01*
X51172965Y-16439561D01*
X51224455Y-16384983D01*
X51226902Y-16382464D01*
X51714770Y-15894595D01*
X51776091Y-15861112D01*
X51776427Y-15861039D01*
X51841803Y-15847144D01*
X52014730Y-15770151D01*
X52167871Y-15658888D01*
X52294533Y-15518216D01*
X52340753Y-15438161D01*
X54887887Y-15438161D01*
X54907673Y-15626417D01*
X54907674Y-15626420D01*
X54966165Y-15806438D01*
X54966168Y-15806445D01*
X55060814Y-15970377D01*
X55187476Y-16111049D01*
X55340612Y-16222309D01*
X55340617Y-16222312D01*
X55513539Y-16299303D01*
X55513544Y-16299305D01*
X55698701Y-16338661D01*
X55698702Y-16338661D01*
X55887991Y-16338661D01*
X55887993Y-16338661D01*
X56073150Y-16299305D01*
X56246077Y-16222312D01*
X56399218Y-16111049D01*
X56525880Y-15970377D01*
X56620526Y-15806445D01*
X56679021Y-15626417D01*
X56698807Y-15438161D01*
X56679021Y-15249905D01*
X56620526Y-15069877D01*
X56525880Y-14905945D01*
X56399218Y-14765273D01*
X56399217Y-14765272D01*
X56246081Y-14654012D01*
X56246076Y-14654009D01*
X56073154Y-14577018D01*
X56073149Y-14577016D01*
X55927348Y-14546026D01*
X55887993Y-14537661D01*
X55698701Y-14537661D01*
X55666244Y-14544559D01*
X55513544Y-14577016D01*
X55513539Y-14577018D01*
X55340617Y-14654009D01*
X55340612Y-14654012D01*
X55187476Y-14765272D01*
X55060813Y-14905946D01*
X54966168Y-15069876D01*
X54966165Y-15069883D01*
X54912102Y-15236273D01*
X54907673Y-15249905D01*
X54887887Y-15438161D01*
X52340753Y-15438161D01*
X52389179Y-15354284D01*
X52447674Y-15174256D01*
X52467460Y-14986000D01*
X52447674Y-14797744D01*
X52389179Y-14617716D01*
X52388134Y-14615906D01*
X52387848Y-14614728D01*
X52386538Y-14611786D01*
X52387076Y-14611546D01*
X52371659Y-14548010D01*
X52394508Y-14481982D01*
X52449427Y-14438789D01*
X52463426Y-14434129D01*
X52630270Y-14389424D01*
X52630284Y-14389419D01*
X52830407Y-14296100D01*
X52830417Y-14296094D01*
X52895188Y-14250741D01*
X52224447Y-13580000D01*
X52228569Y-13580000D01*
X52322421Y-13564339D01*
X52434251Y-13503820D01*
X52520371Y-13410269D01*
X52571448Y-13293823D01*
X52577105Y-13225552D01*
X53248741Y-13897188D01*
X53294094Y-13832417D01*
X53294100Y-13832407D01*
X53354618Y-13702627D01*
X53400790Y-13650187D01*
X53467983Y-13631035D01*
X53534865Y-13651251D01*
X53579382Y-13702627D01*
X53639898Y-13832405D01*
X53639901Y-13832411D01*
X53685258Y-13897187D01*
X53685258Y-13897188D01*
X54352096Y-13230350D01*
X54352051Y-13230898D01*
X54383266Y-13354162D01*
X54452813Y-13460612D01*
X54553157Y-13538713D01*
X54673422Y-13580000D01*
X54709553Y-13580000D01*
X54038810Y-14250740D01*
X54103590Y-14296099D01*
X54103592Y-14296100D01*
X54303715Y-14389419D01*
X54303729Y-14389424D01*
X54517013Y-14446573D01*
X54517023Y-14446575D01*
X54736999Y-14465821D01*
X54737001Y-14465821D01*
X54956976Y-14446575D01*
X54956986Y-14446573D01*
X55170270Y-14389424D01*
X55170284Y-14389419D01*
X55370407Y-14296100D01*
X55370417Y-14296094D01*
X55435188Y-14250741D01*
X54764448Y-13580000D01*
X54768569Y-13580000D01*
X54862421Y-13564339D01*
X54974251Y-13503820D01*
X55060371Y-13410269D01*
X55111448Y-13293823D01*
X55117105Y-13225552D01*
X55788741Y-13897188D01*
X55834094Y-13832417D01*
X55834100Y-13832407D01*
X55894618Y-13702627D01*
X55940790Y-13650187D01*
X56007983Y-13631035D01*
X56074865Y-13651251D01*
X56119382Y-13702627D01*
X56179898Y-13832405D01*
X56179901Y-13832411D01*
X56225258Y-13897187D01*
X56225258Y-13897188D01*
X56892096Y-13230350D01*
X56892051Y-13230898D01*
X56923266Y-13354162D01*
X56992813Y-13460612D01*
X57093157Y-13538713D01*
X57213422Y-13580000D01*
X57249553Y-13580000D01*
X56578810Y-14250740D01*
X56643590Y-14296099D01*
X56643592Y-14296100D01*
X56843715Y-14389419D01*
X56843729Y-14389424D01*
X57057013Y-14446573D01*
X57057023Y-14446575D01*
X57276999Y-14465821D01*
X57277001Y-14465821D01*
X57496976Y-14446575D01*
X57496986Y-14446573D01*
X57710270Y-14389424D01*
X57710284Y-14389419D01*
X57910407Y-14296100D01*
X57910417Y-14296094D01*
X57975188Y-14250741D01*
X57304448Y-13580000D01*
X57308569Y-13580000D01*
X57402421Y-13564339D01*
X57514251Y-13503820D01*
X57600371Y-13410269D01*
X57651448Y-13293823D01*
X57657105Y-13225552D01*
X58328741Y-13897188D01*
X58374094Y-13832417D01*
X58374095Y-13832416D01*
X58434340Y-13703219D01*
X58480512Y-13650780D01*
X58547706Y-13631627D01*
X58614587Y-13651842D01*
X58659105Y-13703218D01*
X58719466Y-13832662D01*
X58719468Y-13832666D01*
X58846170Y-14013615D01*
X58846175Y-14013621D01*
X59002378Y-14169824D01*
X59002384Y-14169829D01*
X59183333Y-14296531D01*
X59183335Y-14296532D01*
X59183338Y-14296534D01*
X59383550Y-14389894D01*
X59596932Y-14447070D01*
X59754123Y-14460822D01*
X59816998Y-14466323D01*
X59817000Y-14466323D01*
X59817002Y-14466323D01*
X59872017Y-14461509D01*
X60037068Y-14447070D01*
X60250450Y-14389894D01*
X60450662Y-14296534D01*
X60631620Y-14169826D01*
X60787826Y-14013620D01*
X60914534Y-13832662D01*
X60974894Y-13703218D01*
X61021066Y-13650779D01*
X61088259Y-13631627D01*
X61155141Y-13651843D01*
X61199658Y-13703219D01*
X61259898Y-13832405D01*
X61259901Y-13832411D01*
X61305258Y-13897187D01*
X61305258Y-13897188D01*
X61972096Y-13230350D01*
X61972051Y-13230898D01*
X62003266Y-13354162D01*
X62072813Y-13460612D01*
X62173157Y-13538713D01*
X62293422Y-13580000D01*
X62329553Y-13580000D01*
X61658810Y-14250740D01*
X61723590Y-14296099D01*
X61723592Y-14296100D01*
X61923715Y-14389419D01*
X61923729Y-14389424D01*
X62137013Y-14446573D01*
X62137023Y-14446575D01*
X62356999Y-14465821D01*
X62357001Y-14465821D01*
X62576976Y-14446575D01*
X62576986Y-14446573D01*
X62790270Y-14389424D01*
X62790284Y-14389419D01*
X62990407Y-14296100D01*
X62990417Y-14296094D01*
X63055188Y-14250741D01*
X62384448Y-13580000D01*
X62388569Y-13580000D01*
X62482421Y-13564339D01*
X62594251Y-13503820D01*
X62680371Y-13410269D01*
X62731448Y-13293823D01*
X62737105Y-13225552D01*
X63408741Y-13897188D01*
X63454094Y-13832417D01*
X63454100Y-13832407D01*
X63514618Y-13702627D01*
X63560790Y-13650187D01*
X63627983Y-13631035D01*
X63694865Y-13651251D01*
X63739382Y-13702627D01*
X63799898Y-13832405D01*
X63799901Y-13832411D01*
X63845258Y-13897187D01*
X63845258Y-13897188D01*
X64512096Y-13230350D01*
X64512051Y-13230898D01*
X64543266Y-13354162D01*
X64612813Y-13460612D01*
X64713157Y-13538713D01*
X64833422Y-13580000D01*
X64869553Y-13580000D01*
X64198810Y-14250740D01*
X64263590Y-14296099D01*
X64263592Y-14296100D01*
X64463715Y-14389419D01*
X64463729Y-14389424D01*
X64677013Y-14446573D01*
X64677023Y-14446575D01*
X64896999Y-14465821D01*
X64897001Y-14465821D01*
X65116976Y-14446575D01*
X65116986Y-14446573D01*
X65330270Y-14389424D01*
X65330284Y-14389419D01*
X65530407Y-14296100D01*
X65530417Y-14296094D01*
X65595188Y-14250741D01*
X64924448Y-13580000D01*
X64928569Y-13580000D01*
X65022421Y-13564339D01*
X65134251Y-13503820D01*
X65220371Y-13410269D01*
X65271448Y-13293823D01*
X65277105Y-13225552D01*
X65948741Y-13897188D01*
X65994094Y-13832417D01*
X65994095Y-13832416D01*
X66054340Y-13703219D01*
X66100512Y-13650780D01*
X66167706Y-13631627D01*
X66234587Y-13651842D01*
X66279105Y-13703218D01*
X66339466Y-13832662D01*
X66339468Y-13832666D01*
X66466170Y-14013615D01*
X66466175Y-14013621D01*
X66622378Y-14169824D01*
X66622384Y-14169829D01*
X66803333Y-14296531D01*
X66803335Y-14296532D01*
X66803338Y-14296534D01*
X67003550Y-14389894D01*
X67216932Y-14447070D01*
X67374123Y-14460822D01*
X67436998Y-14466323D01*
X67437000Y-14466323D01*
X67437002Y-14466323D01*
X67492017Y-14461509D01*
X67657068Y-14447070D01*
X67870450Y-14389894D01*
X68070662Y-14296534D01*
X68251620Y-14169826D01*
X68407826Y-14013620D01*
X68534534Y-13832662D01*
X68594618Y-13703811D01*
X68640790Y-13651371D01*
X68707983Y-13632219D01*
X68774865Y-13652435D01*
X68819382Y-13703811D01*
X68879464Y-13832658D01*
X68879468Y-13832666D01*
X69006170Y-14013615D01*
X69006175Y-14013621D01*
X69162378Y-14169824D01*
X69162384Y-14169829D01*
X69343333Y-14296531D01*
X69343335Y-14296532D01*
X69343338Y-14296534D01*
X69543550Y-14389894D01*
X69756932Y-14447070D01*
X69914123Y-14460822D01*
X69976998Y-14466323D01*
X69977000Y-14466323D01*
X69977002Y-14466323D01*
X70032017Y-14461509D01*
X70197068Y-14447070D01*
X70410450Y-14389894D01*
X70610662Y-14296534D01*
X70791620Y-14169826D01*
X70947826Y-14013620D01*
X71074534Y-13832662D01*
X71167894Y-13632450D01*
X71225070Y-13419068D01*
X71244323Y-13199000D01*
X71241532Y-13167102D01*
X71230748Y-13043838D01*
X71225070Y-12978932D01*
X71167894Y-12765550D01*
X71074534Y-12565339D01*
X71074530Y-12565333D01*
X71072893Y-12562497D01*
X71072550Y-12561084D01*
X71072246Y-12560433D01*
X71072377Y-12560371D01*
X71056423Y-12494596D01*
X71079277Y-12428570D01*
X71134199Y-12385381D01*
X71180282Y-12376500D01*
X79322000Y-12376500D01*
X79389039Y-12396185D01*
X79434794Y-12448989D01*
X79446000Y-12500500D01*
X79446000Y-61518796D01*
X79426315Y-61585835D01*
X79375083Y-61630859D01*
X78939764Y-61837063D01*
X78886681Y-61849000D01*
X74663873Y-61849000D01*
X74596834Y-61829315D01*
X74592749Y-61826575D01*
X74420409Y-61705900D01*
X74420407Y-61705899D01*
X74220284Y-61612580D01*
X74220270Y-61612575D01*
X74006986Y-61555426D01*
X74006976Y-61555424D01*
X73787001Y-61536179D01*
X73786999Y-61536179D01*
X73567023Y-61555424D01*
X73567013Y-61555426D01*
X73353729Y-61612575D01*
X73353720Y-61612579D01*
X73153591Y-61705900D01*
X73153589Y-61705901D01*
X72981249Y-61826575D01*
X72915043Y-61848902D01*
X72910126Y-61849000D01*
X71242904Y-61849000D01*
X71175865Y-61829315D01*
X71130110Y-61776511D01*
X71120166Y-61707353D01*
X71130522Y-61672596D01*
X71167891Y-61592456D01*
X71167894Y-61592450D01*
X71225070Y-61379068D01*
X71244323Y-61159000D01*
X71243383Y-61148259D01*
X71225070Y-60938937D01*
X71225070Y-60938932D01*
X71167894Y-60725550D01*
X71074534Y-60525339D01*
X70979004Y-60388907D01*
X70947827Y-60344381D01*
X70876974Y-60273528D01*
X70791620Y-60188174D01*
X70791616Y-60188171D01*
X70791615Y-60188170D01*
X70610666Y-60061468D01*
X70610662Y-60061466D01*
X70606446Y-60059500D01*
X70410450Y-59968106D01*
X70410447Y-59968105D01*
X70410445Y-59968104D01*
X70197070Y-59910930D01*
X70197062Y-59910929D01*
X69977002Y-59891677D01*
X69976998Y-59891677D01*
X69756937Y-59910929D01*
X69756929Y-59910930D01*
X69543554Y-59968104D01*
X69543548Y-59968107D01*
X69343340Y-60061465D01*
X69343338Y-60061466D01*
X69162377Y-60188175D01*
X69006175Y-60344377D01*
X68879466Y-60525338D01*
X68879465Y-60525340D01*
X68819382Y-60654189D01*
X68773209Y-60706628D01*
X68706016Y-60725780D01*
X68639135Y-60705564D01*
X68594618Y-60654189D01*
X68554586Y-60568341D01*
X68534534Y-60525339D01*
X68439004Y-60388907D01*
X68407827Y-60344381D01*
X68336974Y-60273528D01*
X68251620Y-60188174D01*
X68251616Y-60188171D01*
X68251615Y-60188170D01*
X68070666Y-60061468D01*
X68070662Y-60061466D01*
X68066446Y-60059500D01*
X67870450Y-59968106D01*
X67870447Y-59968105D01*
X67870445Y-59968104D01*
X67657070Y-59910930D01*
X67657062Y-59910929D01*
X67437002Y-59891677D01*
X67436998Y-59891677D01*
X67216937Y-59910929D01*
X67216929Y-59910930D01*
X67003554Y-59968104D01*
X67003548Y-59968107D01*
X66803340Y-60061465D01*
X66803338Y-60061466D01*
X66622377Y-60188175D01*
X66466175Y-60344377D01*
X66339466Y-60525338D01*
X66339465Y-60525340D01*
X66279382Y-60654189D01*
X66233209Y-60706628D01*
X66166016Y-60725780D01*
X66099135Y-60705564D01*
X66054618Y-60654189D01*
X66014586Y-60568341D01*
X65994534Y-60525339D01*
X65899004Y-60388907D01*
X65867827Y-60344381D01*
X65796974Y-60273528D01*
X65711620Y-60188174D01*
X65711616Y-60188171D01*
X65711615Y-60188170D01*
X65530666Y-60061468D01*
X65530662Y-60061466D01*
X65526446Y-60059500D01*
X65330450Y-59968106D01*
X65330447Y-59968105D01*
X65330445Y-59968104D01*
X65117070Y-59910930D01*
X65117062Y-59910929D01*
X64897002Y-59891677D01*
X64896998Y-59891677D01*
X64676937Y-59910929D01*
X64676929Y-59910930D01*
X64463554Y-59968104D01*
X64463548Y-59968107D01*
X64263340Y-60061465D01*
X64263338Y-60061466D01*
X64082377Y-60188175D01*
X63926175Y-60344377D01*
X63799466Y-60525338D01*
X63799465Y-60525340D01*
X63706107Y-60725548D01*
X63706104Y-60725554D01*
X63648930Y-60938929D01*
X63648929Y-60938937D01*
X63629677Y-61158997D01*
X63629677Y-61159002D01*
X63648929Y-61379062D01*
X63648930Y-61379070D01*
X63706104Y-61592445D01*
X63706108Y-61592456D01*
X63743478Y-61672596D01*
X63753970Y-61741673D01*
X63725450Y-61805457D01*
X63666973Y-61843696D01*
X63631096Y-61849000D01*
X46408885Y-61849000D01*
X46341846Y-61829315D01*
X46296091Y-61776511D01*
X46286147Y-61707353D01*
X46315172Y-61643797D01*
X46325817Y-61632947D01*
X46325868Y-61632889D01*
X46325871Y-61632888D01*
X46452533Y-61492216D01*
X46547179Y-61328284D01*
X46605674Y-61148256D01*
X46625460Y-60960000D01*
X46605674Y-60771744D01*
X46547179Y-60591716D01*
X46452533Y-60427784D01*
X46325871Y-60287112D01*
X46307663Y-60273883D01*
X46172734Y-60175851D01*
X46172729Y-60175848D01*
X45999807Y-60098857D01*
X45999802Y-60098855D01*
X45854001Y-60067865D01*
X45814646Y-60059500D01*
X45625354Y-60059500D01*
X45592897Y-60066398D01*
X45440197Y-60098855D01*
X45440192Y-60098857D01*
X45267270Y-60175848D01*
X45267265Y-60175851D01*
X45114129Y-60287111D01*
X44987466Y-60427785D01*
X44892821Y-60591715D01*
X44892818Y-60591722D01*
X44834327Y-60771740D01*
X44834326Y-60771744D01*
X44814540Y-60960000D01*
X44834326Y-61148256D01*
X44834327Y-61148259D01*
X44892818Y-61328277D01*
X44892821Y-61328284D01*
X44987467Y-61492216D01*
X45077724Y-61592456D01*
X45118478Y-61637718D01*
X45117582Y-61638524D01*
X45150735Y-61692333D01*
X45149406Y-61762190D01*
X45110521Y-61820240D01*
X45046425Y-61848051D01*
X45031115Y-61849000D01*
X28062904Y-61849000D01*
X27995865Y-61829315D01*
X27950110Y-61776511D01*
X27940166Y-61707353D01*
X27950522Y-61672596D01*
X27987891Y-61592456D01*
X27987894Y-61592450D01*
X28045070Y-61379068D01*
X28064323Y-61159000D01*
X28063383Y-61148259D01*
X28045070Y-60938937D01*
X28045070Y-60938932D01*
X27987894Y-60725550D01*
X27894534Y-60525339D01*
X27799004Y-60388907D01*
X27767827Y-60344381D01*
X27696974Y-60273528D01*
X27611620Y-60188174D01*
X27611616Y-60188171D01*
X27611615Y-60188170D01*
X27430666Y-60061468D01*
X27430662Y-60061466D01*
X27426446Y-60059500D01*
X27283581Y-59992881D01*
X27231143Y-59946710D01*
X27211991Y-59879516D01*
X27232207Y-59812635D01*
X27285372Y-59767301D01*
X27335987Y-59756500D01*
X47356295Y-59756500D01*
X47374265Y-59757809D01*
X47398023Y-59761289D01*
X47447369Y-59756971D01*
X47458176Y-59756500D01*
X47463704Y-59756500D01*
X47463709Y-59756500D01*
X47494556Y-59752893D01*
X47498030Y-59752539D01*
X47572797Y-59745999D01*
X47572805Y-59745996D01*
X47579866Y-59744539D01*
X47579878Y-59744598D01*
X47587243Y-59742965D01*
X47587229Y-59742906D01*
X47594249Y-59741241D01*
X47594255Y-59741241D01*
X47664779Y-59715572D01*
X47668117Y-59714412D01*
X47739334Y-59690814D01*
X47739342Y-59690808D01*
X47745882Y-59687760D01*
X47745908Y-59687816D01*
X47752690Y-59684532D01*
X47752663Y-59684478D01*
X47759113Y-59681238D01*
X47759117Y-59681237D01*
X47821837Y-59639984D01*
X47824732Y-59638140D01*
X47888656Y-59598712D01*
X47888662Y-59598705D01*
X47894325Y-59594229D01*
X47894362Y-59594277D01*
X47900204Y-59589518D01*
X47900164Y-59589471D01*
X47905686Y-59584835D01*
X47905696Y-59584830D01*
X47935725Y-59553000D01*
X73543659Y-59553000D01*
X73562975Y-59749129D01*
X73571182Y-59776185D01*
X73608179Y-59898147D01*
X73620188Y-59937733D01*
X73713086Y-60111532D01*
X73713090Y-60111539D01*
X73838116Y-60263883D01*
X73990460Y-60388909D01*
X73990467Y-60388913D01*
X74164266Y-60481811D01*
X74164269Y-60481811D01*
X74164273Y-60481814D01*
X74352868Y-60539024D01*
X74549000Y-60558341D01*
X74745132Y-60539024D01*
X74933727Y-60481814D01*
X75107538Y-60388910D01*
X75107544Y-60388904D01*
X75112607Y-60385523D01*
X75113703Y-60387164D01*
X75169639Y-60363405D01*
X75238507Y-60375194D01*
X75255148Y-60385888D01*
X75255393Y-60385523D01*
X75260458Y-60388907D01*
X75260462Y-60388910D01*
X75434273Y-60481814D01*
X75622868Y-60539024D01*
X75819000Y-60558341D01*
X76015132Y-60539024D01*
X76203727Y-60481814D01*
X76377538Y-60388910D01*
X76529883Y-60263883D01*
X76654910Y-60111538D01*
X76742568Y-59947541D01*
X76747811Y-59937733D01*
X76747811Y-59937732D01*
X76747814Y-59937727D01*
X76805024Y-59749132D01*
X76824341Y-59553000D01*
X76805024Y-59356868D01*
X76747814Y-59168273D01*
X76654910Y-58994462D01*
X76654907Y-58994458D01*
X76651523Y-58989393D01*
X76653164Y-58988296D01*
X76629405Y-58932361D01*
X76641194Y-58863493D01*
X76651888Y-58846851D01*
X76651523Y-58846607D01*
X76654904Y-58841544D01*
X76654910Y-58841538D01*
X76747814Y-58667727D01*
X76805024Y-58479132D01*
X76824341Y-58283000D01*
X76805024Y-58086868D01*
X76747814Y-57898273D01*
X76654910Y-57724462D01*
X76654906Y-57724457D01*
X76651526Y-57719399D01*
X76653044Y-57718384D01*
X76629081Y-57661962D01*
X76640872Y-57593094D01*
X76651492Y-57576574D01*
X76651111Y-57576320D01*
X76654497Y-57571252D01*
X76747347Y-57397541D01*
X76788160Y-57263000D01*
X76033483Y-57263000D01*
X76104801Y-57178007D01*
X76144000Y-57070306D01*
X76144000Y-56955694D01*
X76104801Y-56847993D01*
X76033483Y-56763000D01*
X76788160Y-56763000D01*
X76788160Y-56762999D01*
X76747347Y-56628458D01*
X76654496Y-56454746D01*
X76651110Y-56449678D01*
X76652784Y-56448559D01*
X76629081Y-56392746D01*
X76640874Y-56323879D01*
X76651839Y-56306818D01*
X76651523Y-56306607D01*
X76654904Y-56301544D01*
X76654910Y-56301538D01*
X76747814Y-56127727D01*
X76805024Y-55939132D01*
X76824341Y-55743000D01*
X76805024Y-55546868D01*
X76747814Y-55358273D01*
X76746677Y-55356146D01*
X76746418Y-55354904D01*
X76745483Y-55352645D01*
X76745911Y-55352467D01*
X76732435Y-55287746D01*
X76756771Y-55223379D01*
X76762796Y-55215331D01*
X76813091Y-55080483D01*
X76819500Y-55020873D01*
X76819499Y-53925128D01*
X76813091Y-53865517D01*
X76774525Y-53762117D01*
X76762797Y-53730671D01*
X76762793Y-53730664D01*
X76676547Y-53615455D01*
X76676544Y-53615452D01*
X76561335Y-53529206D01*
X76561328Y-53529202D01*
X76426482Y-53478908D01*
X76426483Y-53478908D01*
X76366883Y-53472501D01*
X76366881Y-53472500D01*
X76366873Y-53472500D01*
X76366864Y-53472500D01*
X75271129Y-53472500D01*
X75271123Y-53472501D01*
X75211516Y-53478908D01*
X75076671Y-53529202D01*
X75076666Y-53529205D01*
X75068614Y-53535233D01*
X75003149Y-53559648D01*
X74939530Y-53546104D01*
X74939359Y-53546518D01*
X74937123Y-53545592D01*
X74935850Y-53545321D01*
X74935685Y-53545233D01*
X74933727Y-53544186D01*
X74745132Y-53486976D01*
X74745129Y-53486975D01*
X74549000Y-53467659D01*
X74352870Y-53486975D01*
X74164266Y-53544188D01*
X73990467Y-53637086D01*
X73990460Y-53637090D01*
X73838116Y-53762116D01*
X73713090Y-53914460D01*
X73713086Y-53914467D01*
X73620188Y-54088266D01*
X73562975Y-54276870D01*
X73543659Y-54473000D01*
X73562975Y-54669129D01*
X73566009Y-54679132D01*
X73620155Y-54857626D01*
X73620188Y-54857733D01*
X73713086Y-55031532D01*
X73716473Y-55036601D01*
X73714836Y-55037694D01*
X73738596Y-55093663D01*
X73726795Y-55162529D01*
X73716109Y-55179156D01*
X73716473Y-55179399D01*
X73713086Y-55184467D01*
X73620188Y-55358266D01*
X73562975Y-55546870D01*
X73543659Y-55743000D01*
X73562975Y-55939129D01*
X73620188Y-56127733D01*
X73713086Y-56301532D01*
X73716473Y-56306601D01*
X73714955Y-56307615D01*
X73738918Y-56364042D01*
X73727124Y-56432909D01*
X73716515Y-56449420D01*
X73716893Y-56449673D01*
X73713505Y-56454742D01*
X73620652Y-56628458D01*
X73579839Y-56762999D01*
X73579840Y-56763000D01*
X74334517Y-56763000D01*
X74263199Y-56847993D01*
X74224000Y-56955694D01*
X74224000Y-57070306D01*
X74263199Y-57178007D01*
X74334517Y-57263000D01*
X73579840Y-57263000D01*
X73620652Y-57397541D01*
X73713503Y-57571253D01*
X73716890Y-57576322D01*
X73715215Y-57577440D01*
X73738918Y-57633259D01*
X73727123Y-57702125D01*
X73716158Y-57719188D01*
X73716473Y-57719399D01*
X73713086Y-57724467D01*
X73620188Y-57898266D01*
X73562975Y-58086870D01*
X73543659Y-58283000D01*
X73562975Y-58479129D01*
X73620188Y-58667733D01*
X73713086Y-58841532D01*
X73716473Y-58846601D01*
X73714836Y-58847694D01*
X73738596Y-58903663D01*
X73726795Y-58972529D01*
X73716109Y-58989156D01*
X73716473Y-58989399D01*
X73713086Y-58994467D01*
X73620188Y-59168266D01*
X73562975Y-59356870D01*
X73543659Y-59553000D01*
X47935725Y-59553000D01*
X47957185Y-59530253D01*
X47959632Y-59527734D01*
X51803488Y-55683879D01*
X51864811Y-55650394D01*
X51891169Y-55647560D01*
X53078293Y-55647560D01*
X53096264Y-55648869D01*
X53123273Y-55652825D01*
X53186751Y-55682017D01*
X53212689Y-55713515D01*
X53249467Y-55777216D01*
X53376129Y-55917888D01*
X53529265Y-56029148D01*
X53529270Y-56029151D01*
X53702192Y-56106142D01*
X53702197Y-56106144D01*
X53887354Y-56145500D01*
X53887355Y-56145500D01*
X54076644Y-56145500D01*
X54076646Y-56145500D01*
X54261803Y-56106144D01*
X54434730Y-56029151D01*
X54587871Y-55917888D01*
X54714533Y-55777216D01*
X54809179Y-55613284D01*
X54830759Y-55546868D01*
X54839069Y-55521293D01*
X54878506Y-55463617D01*
X54942865Y-55436419D01*
X55011711Y-55448334D01*
X55063187Y-55495578D01*
X55074931Y-55521293D01*
X55104818Y-55613278D01*
X55104821Y-55613284D01*
X55199467Y-55777216D01*
X55290347Y-55878148D01*
X55326129Y-55917888D01*
X55479265Y-56029148D01*
X55479270Y-56029151D01*
X55652192Y-56106142D01*
X55652197Y-56106144D01*
X55837354Y-56145500D01*
X55837355Y-56145500D01*
X56026644Y-56145500D01*
X56026646Y-56145500D01*
X56211803Y-56106144D01*
X56384730Y-56029151D01*
X56537871Y-55917888D01*
X56664533Y-55777216D01*
X56678513Y-55753002D01*
X60417034Y-55753002D01*
X60436858Y-55979599D01*
X60436860Y-55979610D01*
X60495730Y-56199317D01*
X60495735Y-56199331D01*
X60591863Y-56405478D01*
X60642974Y-56478472D01*
X61324046Y-55797400D01*
X61336835Y-55878148D01*
X61394359Y-55991045D01*
X61483955Y-56080641D01*
X61596852Y-56138165D01*
X61677599Y-56150953D01*
X60996526Y-56832025D01*
X61069513Y-56883132D01*
X61069521Y-56883136D01*
X61275668Y-56979264D01*
X61275682Y-56979269D01*
X61495389Y-57038139D01*
X61495400Y-57038141D01*
X61721998Y-57057966D01*
X61722002Y-57057966D01*
X61948599Y-57038141D01*
X61948610Y-57038139D01*
X62168317Y-56979269D01*
X62168331Y-56979264D01*
X62374478Y-56883136D01*
X62447471Y-56832024D01*
X62216317Y-56600870D01*
X63921500Y-56600870D01*
X63921501Y-56600876D01*
X63927908Y-56660483D01*
X63978202Y-56795328D01*
X63978206Y-56795335D01*
X64064452Y-56910544D01*
X64064455Y-56910547D01*
X64179664Y-56996793D01*
X64179671Y-56996797D01*
X64314517Y-57047091D01*
X64314516Y-57047091D01*
X64321444Y-57047835D01*
X64374127Y-57053500D01*
X66069872Y-57053499D01*
X66129483Y-57047091D01*
X66264331Y-56996796D01*
X66379546Y-56910546D01*
X66465796Y-56795331D01*
X66516091Y-56660483D01*
X66522500Y-56600873D01*
X66522499Y-54905128D01*
X66516091Y-54845517D01*
X66512942Y-54837075D01*
X66465797Y-54710671D01*
X66465793Y-54710664D01*
X66379547Y-54595455D01*
X66379544Y-54595452D01*
X66264335Y-54509206D01*
X66264328Y-54509202D01*
X66129482Y-54458908D01*
X66129483Y-54458908D01*
X66069883Y-54452501D01*
X66069881Y-54452500D01*
X66069873Y-54452500D01*
X66069864Y-54452500D01*
X64374129Y-54452500D01*
X64374123Y-54452501D01*
X64314516Y-54458908D01*
X64179671Y-54509202D01*
X64179664Y-54509206D01*
X64064455Y-54595452D01*
X64064452Y-54595455D01*
X63978206Y-54710664D01*
X63978202Y-54710671D01*
X63927908Y-54845517D01*
X63923859Y-54883184D01*
X63921501Y-54905123D01*
X63921500Y-54905135D01*
X63921500Y-56600870D01*
X62216317Y-56600870D01*
X61766400Y-56150953D01*
X61847148Y-56138165D01*
X61960045Y-56080641D01*
X62049641Y-55991045D01*
X62107165Y-55878148D01*
X62119953Y-55797400D01*
X62801024Y-56478471D01*
X62852136Y-56405478D01*
X62948264Y-56199331D01*
X62948269Y-56199317D01*
X63007139Y-55979610D01*
X63007141Y-55979599D01*
X63026966Y-55753002D01*
X63026966Y-55752997D01*
X63007141Y-55526400D01*
X63007139Y-55526389D01*
X62948269Y-55306682D01*
X62948264Y-55306668D01*
X62852136Y-55100521D01*
X62852132Y-55100513D01*
X62801025Y-55027526D01*
X62119953Y-55708598D01*
X62107165Y-55627852D01*
X62049641Y-55514955D01*
X61960045Y-55425359D01*
X61847148Y-55367835D01*
X61766401Y-55355046D01*
X62447472Y-54673974D01*
X62374478Y-54622863D01*
X62168331Y-54526735D01*
X62168317Y-54526730D01*
X61948610Y-54467860D01*
X61948599Y-54467858D01*
X61722002Y-54448034D01*
X61721998Y-54448034D01*
X61495400Y-54467858D01*
X61495389Y-54467860D01*
X61275682Y-54526730D01*
X61275673Y-54526734D01*
X61069516Y-54622866D01*
X61069512Y-54622868D01*
X60996526Y-54673973D01*
X60996526Y-54673974D01*
X61677599Y-55355046D01*
X61596852Y-55367835D01*
X61483955Y-55425359D01*
X61394359Y-55514955D01*
X61336835Y-55627852D01*
X61324046Y-55708598D01*
X60642974Y-55027526D01*
X60642973Y-55027526D01*
X60591868Y-55100512D01*
X60591866Y-55100516D01*
X60495734Y-55306673D01*
X60495730Y-55306682D01*
X60436860Y-55526389D01*
X60436858Y-55526400D01*
X60417034Y-55752997D01*
X60417034Y-55753002D01*
X56678513Y-55753002D01*
X56759179Y-55613284D01*
X56817674Y-55433256D01*
X56837460Y-55245000D01*
X56817674Y-55056744D01*
X56759179Y-54876716D01*
X56664533Y-54712784D01*
X56537871Y-54572112D01*
X56475415Y-54526735D01*
X56384734Y-54460851D01*
X56384729Y-54460848D01*
X56211807Y-54383857D01*
X56211803Y-54383856D01*
X56151874Y-54371117D01*
X56090392Y-54337924D01*
X56056616Y-54276760D01*
X56061270Y-54207046D01*
X56071205Y-54186232D01*
X56088215Y-54157764D01*
X56148912Y-53996034D01*
X56190897Y-53940188D01*
X56256411Y-53915904D01*
X56315441Y-53926327D01*
X56335209Y-53935128D01*
X56362197Y-53947144D01*
X56547354Y-53986500D01*
X56547355Y-53986500D01*
X56736644Y-53986500D01*
X56736646Y-53986500D01*
X56921803Y-53947144D01*
X57094730Y-53870151D01*
X57247871Y-53758888D01*
X57374533Y-53618216D01*
X57469179Y-53454284D01*
X57527674Y-53274256D01*
X57547460Y-53086000D01*
X57527674Y-52897744D01*
X57469179Y-52717716D01*
X57374533Y-52553784D01*
X57247871Y-52413112D01*
X57220035Y-52392888D01*
X57094734Y-52301851D01*
X57094729Y-52301848D01*
X56921807Y-52224857D01*
X56921802Y-52224855D01*
X56776001Y-52193865D01*
X56736646Y-52185500D01*
X56547354Y-52185500D01*
X56514897Y-52192398D01*
X56362197Y-52224855D01*
X56362192Y-52224857D01*
X56224707Y-52286071D01*
X56155457Y-52295356D01*
X56092180Y-52265728D01*
X56062551Y-52226593D01*
X56034829Y-52169027D01*
X56001846Y-52123630D01*
X55902526Y-51986927D01*
X55902525Y-51986925D01*
X55739823Y-51831366D01*
X55551966Y-51707363D01*
X55344995Y-51618899D01*
X55344982Y-51618895D01*
X55125542Y-51568810D01*
X55125538Y-51568809D01*
X55125537Y-51568809D01*
X55125536Y-51568808D01*
X55125531Y-51568808D01*
X54900674Y-51558710D01*
X54900673Y-51558710D01*
X54900670Y-51558710D01*
X54677613Y-51588925D01*
X54677610Y-51588925D01*
X54677609Y-51588926D01*
X54463534Y-51658483D01*
X54265321Y-51765146D01*
X54265318Y-51765148D01*
X54089336Y-51905489D01*
X53993541Y-52015135D01*
X53941235Y-52075004D01*
X53912183Y-52123630D01*
X53825787Y-52268231D01*
X53803449Y-52327750D01*
X53761463Y-52383597D01*
X53695948Y-52407880D01*
X53627706Y-52392888D01*
X53578402Y-52343381D01*
X53575636Y-52337979D01*
X53494401Y-52169290D01*
X53494397Y-52169283D01*
X53362148Y-51987258D01*
X53362142Y-51987250D01*
X53199513Y-51831762D01*
X53011733Y-51707808D01*
X52804830Y-51619375D01*
X52804823Y-51619373D01*
X52667000Y-51587915D01*
X52667000Y-52777498D01*
X52559315Y-52728320D01*
X52452763Y-52713000D01*
X52381237Y-52713000D01*
X52274685Y-52728320D01*
X52167000Y-52777498D01*
X52167000Y-51585449D01*
X52166999Y-51585449D01*
X52137721Y-51589415D01*
X51923731Y-51658945D01*
X51725598Y-51765565D01*
X51725595Y-51765567D01*
X51549679Y-51905854D01*
X51401647Y-52075292D01*
X51401640Y-52075300D01*
X51357946Y-52148433D01*
X51306663Y-52195887D01*
X51237866Y-52208081D01*
X51173397Y-52181146D01*
X51133725Y-52123631D01*
X51127499Y-52084833D01*
X51127499Y-52015129D01*
X51127498Y-52015123D01*
X51127497Y-52015116D01*
X51121091Y-51955517D01*
X51074933Y-51831762D01*
X51070797Y-51820671D01*
X51070793Y-51820664D01*
X50984547Y-51705455D01*
X50984544Y-51705452D01*
X50869335Y-51619206D01*
X50869328Y-51619202D01*
X50734482Y-51568908D01*
X50734483Y-51568908D01*
X50674883Y-51562501D01*
X50674881Y-51562500D01*
X50674873Y-51562500D01*
X50674864Y-51562500D01*
X49079129Y-51562500D01*
X49079123Y-51562501D01*
X49019516Y-51568908D01*
X48884671Y-51619202D01*
X48884664Y-51619206D01*
X48769455Y-51705452D01*
X48769452Y-51705455D01*
X48683206Y-51820664D01*
X48683202Y-51820671D01*
X48632908Y-51955517D01*
X48629497Y-51987250D01*
X48626501Y-52015123D01*
X48626500Y-52015135D01*
X48626500Y-54410870D01*
X48626501Y-54410876D01*
X48632908Y-54470483D01*
X48683202Y-54605328D01*
X48683206Y-54605335D01*
X48769452Y-54720544D01*
X48769455Y-54720547D01*
X48884664Y-54806793D01*
X48884671Y-54806797D01*
X49019517Y-54857091D01*
X49019516Y-54857091D01*
X49024493Y-54857626D01*
X49079127Y-54863500D01*
X50201770Y-54863499D01*
X50268809Y-54883184D01*
X50314564Y-54935987D01*
X50324508Y-55005146D01*
X50295483Y-55068702D01*
X50289451Y-55075180D01*
X47145451Y-58219181D01*
X47084128Y-58252666D01*
X47057770Y-58255500D01*
X29491500Y-58255500D01*
X29424461Y-58235815D01*
X29378706Y-58183011D01*
X29367500Y-58131500D01*
X29367499Y-56683129D01*
X29367498Y-56683123D01*
X29367497Y-56683116D01*
X29361091Y-56623517D01*
X29352646Y-56600876D01*
X29310797Y-56488671D01*
X29310793Y-56488664D01*
X29224547Y-56373455D01*
X29224544Y-56373452D01*
X29109335Y-56287206D01*
X29109328Y-56287202D01*
X28974482Y-56236908D01*
X28974483Y-56236908D01*
X28914883Y-56230501D01*
X28914881Y-56230500D01*
X28914873Y-56230500D01*
X28914864Y-56230500D01*
X27219129Y-56230500D01*
X27219123Y-56230501D01*
X27159516Y-56236908D01*
X27024671Y-56287202D01*
X27024664Y-56287206D01*
X26909455Y-56373452D01*
X26909452Y-56373455D01*
X26823206Y-56488664D01*
X26823202Y-56488671D01*
X26772908Y-56623517D01*
X26767716Y-56671814D01*
X26766500Y-56683127D01*
X26766500Y-57447090D01*
X26766501Y-58131500D01*
X26746816Y-58198539D01*
X26694013Y-58244294D01*
X26642501Y-58255500D01*
X21767705Y-58255500D01*
X21749735Y-58254191D01*
X21725972Y-58250710D01*
X21678843Y-58254834D01*
X21676630Y-58255028D01*
X21665824Y-58255500D01*
X21660284Y-58255500D01*
X21629501Y-58259098D01*
X21625916Y-58259464D01*
X21551199Y-58266001D01*
X21544132Y-58267460D01*
X21544120Y-58267404D01*
X21536763Y-58269035D01*
X21536777Y-58269092D01*
X21529740Y-58270760D01*
X21459231Y-58296421D01*
X21455854Y-58297595D01*
X21416848Y-58310521D01*
X21384668Y-58321185D01*
X21378126Y-58324236D01*
X21378101Y-58324183D01*
X21371308Y-58327471D01*
X21371334Y-58327523D01*
X21364880Y-58330764D01*
X21302221Y-58371975D01*
X21299181Y-58373912D01*
X21235348Y-58413285D01*
X21229683Y-58417765D01*
X21229647Y-58417719D01*
X21223798Y-58422484D01*
X21223835Y-58422528D01*
X21218310Y-58427164D01*
X21166832Y-58481726D01*
X21164320Y-58484311D01*
X18137272Y-61511358D01*
X18075949Y-61544843D01*
X18038785Y-61547205D01*
X17907003Y-61535677D01*
X17906998Y-61535677D01*
X17686937Y-61554929D01*
X17686929Y-61554930D01*
X17473554Y-61612104D01*
X17473548Y-61612107D01*
X17273340Y-61705465D01*
X17273338Y-61705466D01*
X17100376Y-61826575D01*
X17034170Y-61848902D01*
X17029253Y-61849000D01*
X12499141Y-61849000D01*
X12432102Y-61829315D01*
X12386347Y-61776511D01*
X12375141Y-61724961D01*
X12375749Y-59813000D01*
X14651840Y-59813000D01*
X14692652Y-59947541D01*
X14785503Y-60121253D01*
X14785507Y-60121260D01*
X14910471Y-60273528D01*
X15062739Y-60398491D01*
X15236465Y-60491349D01*
X15371000Y-60532159D01*
X15371000Y-59813000D01*
X14651840Y-59813000D01*
X12375749Y-59813000D01*
X12376233Y-58293000D01*
X14615659Y-58293000D01*
X14634975Y-58489129D01*
X14634976Y-58489132D01*
X14689154Y-58667733D01*
X14692188Y-58677733D01*
X14785086Y-58851532D01*
X14788473Y-58856601D01*
X14786955Y-58857615D01*
X14810918Y-58914042D01*
X14799124Y-58982909D01*
X14788515Y-58999420D01*
X14788893Y-58999673D01*
X14785505Y-59004742D01*
X14692652Y-59178458D01*
X14651839Y-59312999D01*
X14651840Y-59313000D01*
X15406517Y-59313000D01*
X15335199Y-59397993D01*
X15296000Y-59505694D01*
X15296000Y-59620306D01*
X15335199Y-59728007D01*
X15408871Y-59815805D01*
X15508129Y-59873112D01*
X15592564Y-59888000D01*
X15649436Y-59888000D01*
X15733871Y-59873112D01*
X15833129Y-59815805D01*
X15871000Y-59770672D01*
X15871000Y-60532159D01*
X16005534Y-60491349D01*
X16179259Y-60398492D01*
X16184320Y-60395111D01*
X16185444Y-60396793D01*
X16241203Y-60373086D01*
X16310075Y-60384851D01*
X16327186Y-60395843D01*
X16327399Y-60395526D01*
X16332457Y-60398906D01*
X16332462Y-60398910D01*
X16470594Y-60472743D01*
X16487560Y-60481812D01*
X16506273Y-60491814D01*
X16694868Y-60549024D01*
X16891000Y-60568341D01*
X17087132Y-60549024D01*
X17275727Y-60491814D01*
X17294440Y-60481812D01*
X17395517Y-60427785D01*
X17449538Y-60398910D01*
X17601883Y-60273883D01*
X17726910Y-60121538D01*
X17819814Y-59947727D01*
X17877024Y-59759132D01*
X17896341Y-59563000D01*
X17877024Y-59366868D01*
X17819814Y-59178273D01*
X17726910Y-59004462D01*
X17726907Y-59004458D01*
X17723523Y-58999393D01*
X17725164Y-58998296D01*
X17701405Y-58942361D01*
X17713194Y-58873493D01*
X17723888Y-58856851D01*
X17723523Y-58856607D01*
X17726904Y-58851544D01*
X17726910Y-58851538D01*
X17819814Y-58677727D01*
X17877024Y-58489132D01*
X17896341Y-58293000D01*
X17877024Y-58096868D01*
X17819814Y-57908273D01*
X17726910Y-57734462D01*
X17726907Y-57734458D01*
X17723523Y-57729393D01*
X17725164Y-57728296D01*
X17701405Y-57672361D01*
X17713194Y-57603493D01*
X17723888Y-57586851D01*
X17723523Y-57586607D01*
X17726904Y-57581544D01*
X17726910Y-57581538D01*
X17819814Y-57407727D01*
X17877024Y-57219132D01*
X17896341Y-57023000D01*
X17877024Y-56826868D01*
X17819814Y-56638273D01*
X17726910Y-56464462D01*
X17726907Y-56464458D01*
X17723523Y-56459393D01*
X17725164Y-56458296D01*
X17701405Y-56402361D01*
X17713194Y-56333493D01*
X17723888Y-56316851D01*
X17723523Y-56316607D01*
X17726904Y-56311544D01*
X17726910Y-56311538D01*
X17819814Y-56137727D01*
X17877024Y-55949132D01*
X17896341Y-55753000D01*
X17877024Y-55556868D01*
X17819814Y-55368273D01*
X17818677Y-55366146D01*
X17818418Y-55364904D01*
X17817483Y-55362645D01*
X17817911Y-55362467D01*
X17804435Y-55297746D01*
X17828771Y-55233379D01*
X17834796Y-55225331D01*
X17885091Y-55090483D01*
X17891500Y-55030873D01*
X17891499Y-54031002D01*
X26762034Y-54031002D01*
X26781858Y-54257599D01*
X26781860Y-54257610D01*
X26840730Y-54477317D01*
X26840735Y-54477331D01*
X26936863Y-54683478D01*
X26987974Y-54756472D01*
X27669046Y-54075400D01*
X27681835Y-54156148D01*
X27739359Y-54269045D01*
X27828955Y-54358641D01*
X27941852Y-54416165D01*
X28022599Y-54428953D01*
X27341526Y-55110025D01*
X27414513Y-55161132D01*
X27414521Y-55161136D01*
X27620668Y-55257264D01*
X27620682Y-55257269D01*
X27840389Y-55316139D01*
X27840400Y-55316141D01*
X28066998Y-55335966D01*
X28067002Y-55335966D01*
X28293599Y-55316141D01*
X28293610Y-55316139D01*
X28513317Y-55257269D01*
X28513331Y-55257264D01*
X28719478Y-55161136D01*
X28792471Y-55110024D01*
X28111400Y-54428953D01*
X28192148Y-54416165D01*
X28305045Y-54358641D01*
X28394641Y-54269045D01*
X28452165Y-54156148D01*
X28464953Y-54075400D01*
X29146024Y-54756471D01*
X29197136Y-54683478D01*
X29293264Y-54477331D01*
X29293269Y-54477317D01*
X29311073Y-54410870D01*
X35291500Y-54410870D01*
X35291501Y-54410876D01*
X35297908Y-54470483D01*
X35348202Y-54605328D01*
X35348206Y-54605335D01*
X35434452Y-54720544D01*
X35434455Y-54720547D01*
X35549664Y-54806793D01*
X35549671Y-54806797D01*
X35684517Y-54857091D01*
X35684516Y-54857091D01*
X35689493Y-54857626D01*
X35744127Y-54863500D01*
X37339872Y-54863499D01*
X37399483Y-54857091D01*
X37534331Y-54806796D01*
X37649546Y-54720546D01*
X37735796Y-54605331D01*
X37786091Y-54470483D01*
X37792500Y-54410873D01*
X37792499Y-54346411D01*
X37812183Y-54279375D01*
X37864986Y-54233619D01*
X37934144Y-54223675D01*
X37997700Y-54252699D01*
X38016817Y-54273528D01*
X38136851Y-54438741D01*
X38136857Y-54438749D01*
X38299486Y-54594237D01*
X38487266Y-54718191D01*
X38694169Y-54806624D01*
X38694178Y-54806627D01*
X38831999Y-54838084D01*
X38832000Y-54838084D01*
X38832000Y-53648501D01*
X38939685Y-53697680D01*
X39046237Y-53713000D01*
X39117763Y-53713000D01*
X39224315Y-53697680D01*
X39332000Y-53648501D01*
X39332000Y-54840549D01*
X39361267Y-54836586D01*
X39361273Y-54836585D01*
X39575268Y-54767054D01*
X39773401Y-54660434D01*
X39773404Y-54660432D01*
X39949320Y-54520145D01*
X40097352Y-54350707D01*
X40097359Y-54350699D01*
X40212759Y-54157553D01*
X40212765Y-54157542D01*
X40235007Y-54098277D01*
X40276991Y-54042428D01*
X40342505Y-54018144D01*
X40410748Y-54033135D01*
X40460053Y-54082640D01*
X40462820Y-54088045D01*
X40544167Y-54256966D01*
X40544171Y-54256974D01*
X40676473Y-54439072D01*
X40676474Y-54439074D01*
X40676477Y-54439077D01*
X40676478Y-54439078D01*
X40697219Y-54458908D01*
X40839176Y-54594633D01*
X41027033Y-54718636D01*
X41234004Y-54807100D01*
X41234007Y-54807101D01*
X41234012Y-54807103D01*
X41453463Y-54857191D01*
X41678330Y-54867290D01*
X41901387Y-54837075D01*
X42115464Y-54767517D01*
X42313681Y-54660852D01*
X42489666Y-54520508D01*
X42637765Y-54350996D01*
X42753215Y-54157764D01*
X42832307Y-53947024D01*
X42864049Y-53772116D01*
X42872500Y-53725549D01*
X42872500Y-52756852D01*
X42872500Y-52756845D01*
X42857377Y-52588812D01*
X42827064Y-52478976D01*
X42797496Y-52371839D01*
X42797491Y-52371826D01*
X42699832Y-52169033D01*
X42699828Y-52169025D01*
X42567526Y-51986927D01*
X42567525Y-51986925D01*
X42404823Y-51831366D01*
X42216966Y-51707363D01*
X42009995Y-51618899D01*
X42009982Y-51618895D01*
X41790542Y-51568810D01*
X41790538Y-51568809D01*
X41790537Y-51568809D01*
X41790536Y-51568808D01*
X41790531Y-51568808D01*
X41565674Y-51558710D01*
X41565673Y-51558710D01*
X41565670Y-51558710D01*
X41342613Y-51588925D01*
X41342610Y-51588925D01*
X41342609Y-51588926D01*
X41128534Y-51658483D01*
X40930321Y-51765146D01*
X40930318Y-51765148D01*
X40754336Y-51905489D01*
X40658541Y-52015135D01*
X40606235Y-52075004D01*
X40577183Y-52123630D01*
X40490787Y-52268231D01*
X40468449Y-52327750D01*
X40426463Y-52383597D01*
X40360948Y-52407880D01*
X40292706Y-52392888D01*
X40243402Y-52343381D01*
X40240636Y-52337979D01*
X40159401Y-52169290D01*
X40159397Y-52169283D01*
X40027148Y-51987258D01*
X40027142Y-51987250D01*
X39864513Y-51831762D01*
X39676733Y-51707808D01*
X39469830Y-51619375D01*
X39469823Y-51619373D01*
X39332000Y-51587915D01*
X39332000Y-52777498D01*
X39224315Y-52728320D01*
X39117763Y-52713000D01*
X39046237Y-52713000D01*
X38939685Y-52728320D01*
X38832000Y-52777498D01*
X38832000Y-51585449D01*
X38831999Y-51585449D01*
X38802721Y-51589415D01*
X38588731Y-51658945D01*
X38390598Y-51765565D01*
X38390595Y-51765567D01*
X38214679Y-51905854D01*
X38066647Y-52075292D01*
X38066644Y-52075296D01*
X38022946Y-52148433D01*
X37971663Y-52195886D01*
X37902865Y-52208080D01*
X37838397Y-52181144D01*
X37798725Y-52123630D01*
X37792499Y-52084832D01*
X37792499Y-52015129D01*
X37792498Y-52015123D01*
X37792497Y-52015116D01*
X37786091Y-51955517D01*
X37739933Y-51831762D01*
X37735797Y-51820671D01*
X37735793Y-51820664D01*
X37649547Y-51705455D01*
X37649544Y-51705452D01*
X37534335Y-51619206D01*
X37534328Y-51619202D01*
X37399482Y-51568908D01*
X37399483Y-51568908D01*
X37339883Y-51562501D01*
X37339881Y-51562500D01*
X37339873Y-51562500D01*
X37339864Y-51562500D01*
X35744129Y-51562500D01*
X35744123Y-51562501D01*
X35684516Y-51568908D01*
X35549671Y-51619202D01*
X35549664Y-51619206D01*
X35434455Y-51705452D01*
X35434452Y-51705455D01*
X35348206Y-51820664D01*
X35348202Y-51820671D01*
X35297908Y-51955517D01*
X35294497Y-51987250D01*
X35291501Y-52015123D01*
X35291500Y-52015135D01*
X35291500Y-54410870D01*
X29311073Y-54410870D01*
X29352139Y-54257610D01*
X29352141Y-54257599D01*
X29371966Y-54031002D01*
X29371966Y-54030997D01*
X29352141Y-53804400D01*
X29352139Y-53804389D01*
X29293269Y-53584682D01*
X29293264Y-53584668D01*
X29197136Y-53378521D01*
X29197132Y-53378513D01*
X29146025Y-53305526D01*
X28464953Y-53986598D01*
X28452165Y-53905852D01*
X28394641Y-53792955D01*
X28305045Y-53703359D01*
X28192148Y-53645835D01*
X28111401Y-53633046D01*
X28792472Y-52951974D01*
X28719478Y-52900863D01*
X28513331Y-52804735D01*
X28513317Y-52804730D01*
X28293610Y-52745860D01*
X28293599Y-52745858D01*
X28067002Y-52726034D01*
X28066998Y-52726034D01*
X27840400Y-52745858D01*
X27840389Y-52745860D01*
X27620682Y-52804730D01*
X27620673Y-52804734D01*
X27414516Y-52900866D01*
X27414512Y-52900868D01*
X27341526Y-52951973D01*
X27341526Y-52951974D01*
X28022599Y-53633046D01*
X27941852Y-53645835D01*
X27828955Y-53703359D01*
X27739359Y-53792955D01*
X27681835Y-53905852D01*
X27669046Y-53986598D01*
X26987974Y-53305526D01*
X26987973Y-53305526D01*
X26936868Y-53378512D01*
X26936866Y-53378516D01*
X26840734Y-53584673D01*
X26840730Y-53584682D01*
X26781860Y-53804389D01*
X26781858Y-53804400D01*
X26762034Y-54030997D01*
X26762034Y-54031002D01*
X17891499Y-54031002D01*
X17891499Y-53935128D01*
X17885091Y-53875517D01*
X17883088Y-53870148D01*
X17834797Y-53740671D01*
X17834793Y-53740664D01*
X17748547Y-53625455D01*
X17748544Y-53625452D01*
X17633335Y-53539206D01*
X17633328Y-53539202D01*
X17498482Y-53488908D01*
X17498483Y-53488908D01*
X17438883Y-53482501D01*
X17438881Y-53482500D01*
X17438873Y-53482500D01*
X17438864Y-53482500D01*
X16343129Y-53482500D01*
X16343123Y-53482501D01*
X16283516Y-53488908D01*
X16148671Y-53539202D01*
X16148666Y-53539205D01*
X16140614Y-53545233D01*
X16075149Y-53569648D01*
X16011530Y-53556104D01*
X16011359Y-53556518D01*
X16009123Y-53555592D01*
X16007850Y-53555321D01*
X16005729Y-53554187D01*
X16005728Y-53554186D01*
X16005727Y-53554186D01*
X15817132Y-53496976D01*
X15817129Y-53496975D01*
X15621000Y-53477659D01*
X15424870Y-53496975D01*
X15236266Y-53554188D01*
X15062467Y-53647086D01*
X15062460Y-53647090D01*
X14910116Y-53772116D01*
X14785090Y-53924460D01*
X14785086Y-53924467D01*
X14692188Y-54098266D01*
X14634975Y-54286870D01*
X14615659Y-54483000D01*
X14634975Y-54679129D01*
X14634976Y-54679132D01*
X14692053Y-54867290D01*
X14692188Y-54867733D01*
X14785086Y-55041532D01*
X14788473Y-55046601D01*
X14786836Y-55047694D01*
X14810596Y-55103663D01*
X14798795Y-55172529D01*
X14788109Y-55189156D01*
X14788473Y-55189399D01*
X14785086Y-55194467D01*
X14692188Y-55368266D01*
X14634975Y-55556870D01*
X14615659Y-55753000D01*
X14634975Y-55949129D01*
X14634976Y-55949132D01*
X14689154Y-56127733D01*
X14692188Y-56137733D01*
X14785086Y-56311532D01*
X14788473Y-56316601D01*
X14786836Y-56317694D01*
X14810596Y-56373663D01*
X14798795Y-56442529D01*
X14788109Y-56459156D01*
X14788473Y-56459399D01*
X14785086Y-56464467D01*
X14692188Y-56638266D01*
X14634975Y-56826870D01*
X14615659Y-57023000D01*
X14634975Y-57219129D01*
X14634976Y-57219132D01*
X14675944Y-57354186D01*
X14692188Y-57407733D01*
X14785086Y-57581532D01*
X14788473Y-57586601D01*
X14786836Y-57587694D01*
X14810596Y-57643663D01*
X14798795Y-57712529D01*
X14788109Y-57729156D01*
X14788473Y-57729399D01*
X14785086Y-57734467D01*
X14692188Y-57908266D01*
X14634975Y-58096870D01*
X14615659Y-58293000D01*
X12376233Y-58293000D01*
X12378809Y-50195607D01*
X36772261Y-50195607D01*
X36792047Y-50383863D01*
X36792048Y-50383866D01*
X36850539Y-50563884D01*
X36850542Y-50563891D01*
X36945188Y-50727823D01*
X37071850Y-50868495D01*
X37224986Y-50979755D01*
X37224991Y-50979758D01*
X37397913Y-51056749D01*
X37397918Y-51056751D01*
X37583075Y-51096107D01*
X37583076Y-51096107D01*
X37772365Y-51096107D01*
X37772367Y-51096107D01*
X37957524Y-51056751D01*
X38130451Y-50979758D01*
X38283592Y-50868495D01*
X38410254Y-50727823D01*
X38504900Y-50563891D01*
X38504900Y-50563889D01*
X38508149Y-50558263D01*
X38510351Y-50559534D01*
X38548210Y-50514977D01*
X38590470Y-50497349D01*
X38760803Y-50461144D01*
X38760807Y-50461142D01*
X38760808Y-50461142D01*
X38819058Y-50435206D01*
X38933730Y-50384151D01*
X39086871Y-50272888D01*
X39213533Y-50132216D01*
X39308179Y-49968284D01*
X39366674Y-49788256D01*
X39386460Y-49600000D01*
X39366674Y-49411744D01*
X39308179Y-49231716D01*
X39213533Y-49067784D01*
X39086871Y-48927112D01*
X39043705Y-48895750D01*
X38933734Y-48815851D01*
X38933729Y-48815848D01*
X38760807Y-48738857D01*
X38760802Y-48738855D01*
X38615001Y-48707865D01*
X38575646Y-48699500D01*
X38386354Y-48699500D01*
X38353897Y-48706398D01*
X38201197Y-48738855D01*
X38201192Y-48738857D01*
X38028270Y-48815848D01*
X38028265Y-48815851D01*
X37875129Y-48927111D01*
X37748466Y-49067785D01*
X37650572Y-49237344D01*
X37648382Y-49236080D01*
X37610433Y-49280679D01*
X37568241Y-49298260D01*
X37397918Y-49334462D01*
X37397913Y-49334464D01*
X37224991Y-49411455D01*
X37224986Y-49411458D01*
X37071850Y-49522718D01*
X36945187Y-49663392D01*
X36850542Y-49827322D01*
X36850539Y-49827329D01*
X36792048Y-50007347D01*
X36792047Y-50007351D01*
X36772261Y-50195607D01*
X12378809Y-50195607D01*
X12379321Y-48586632D01*
X40864712Y-48586632D01*
X40884498Y-48774888D01*
X40884499Y-48774891D01*
X40942990Y-48954909D01*
X40942993Y-48954916D01*
X41037639Y-49118848D01*
X41144334Y-49237344D01*
X41164301Y-49259520D01*
X41317437Y-49370780D01*
X41317442Y-49370783D01*
X41490364Y-49447774D01*
X41490369Y-49447776D01*
X41675526Y-49487132D01*
X41675527Y-49487132D01*
X41864816Y-49487132D01*
X41864818Y-49487132D01*
X42049975Y-49447776D01*
X42222902Y-49370783D01*
X42322722Y-49298260D01*
X42381301Y-49255700D01*
X42383047Y-49258103D01*
X42434366Y-49233432D01*
X42480210Y-49234507D01*
X42651893Y-49271000D01*
X42651894Y-49271000D01*
X42841183Y-49271000D01*
X42841185Y-49271000D01*
X43026342Y-49231644D01*
X43199269Y-49154651D01*
X43352410Y-49043388D01*
X43479072Y-48902716D01*
X43573718Y-48738784D01*
X43632213Y-48558756D01*
X43651999Y-48370500D01*
X43632213Y-48182244D01*
X43573718Y-48002216D01*
X43479072Y-47838284D01*
X43352410Y-47697612D01*
X43352409Y-47697611D01*
X43199273Y-47586351D01*
X43199268Y-47586348D01*
X43026346Y-47509357D01*
X43026341Y-47509355D01*
X42880540Y-47478365D01*
X42841185Y-47470000D01*
X42651893Y-47470000D01*
X42619436Y-47476898D01*
X42466736Y-47509355D01*
X42466731Y-47509357D01*
X42293809Y-47586348D01*
X42293804Y-47586351D01*
X42135411Y-47701431D01*
X42133718Y-47699101D01*
X42081847Y-47723779D01*
X42036500Y-47722623D01*
X41864819Y-47686132D01*
X41864818Y-47686132D01*
X41675526Y-47686132D01*
X41643069Y-47693030D01*
X41490369Y-47725487D01*
X41490364Y-47725489D01*
X41317442Y-47802480D01*
X41317437Y-47802483D01*
X41164301Y-47913743D01*
X41037638Y-48054417D01*
X40942993Y-48218347D01*
X40942990Y-48218354D01*
X40884499Y-48398372D01*
X40884498Y-48398376D01*
X40864712Y-48586632D01*
X12379321Y-48586632D01*
X12380084Y-46187244D01*
X12380318Y-45450000D01*
X34654540Y-45450000D01*
X34674326Y-45638256D01*
X34674327Y-45638259D01*
X34732818Y-45818277D01*
X34732821Y-45818284D01*
X34827467Y-45982216D01*
X34934421Y-46101000D01*
X34954129Y-46122888D01*
X35107265Y-46234148D01*
X35107270Y-46234151D01*
X35280192Y-46311142D01*
X35280197Y-46311144D01*
X35465354Y-46350500D01*
X35465355Y-46350500D01*
X35654644Y-46350500D01*
X35654646Y-46350500D01*
X35839803Y-46311144D01*
X36009455Y-46235608D01*
X36078705Y-46226324D01*
X36110326Y-46235608D01*
X36279979Y-46311144D01*
X36465136Y-46350500D01*
X36465137Y-46350500D01*
X36654426Y-46350500D01*
X36654428Y-46350500D01*
X36839585Y-46311144D01*
X37012512Y-46234151D01*
X37066507Y-46194921D01*
X37132311Y-46171442D01*
X37200365Y-46187267D01*
X37212267Y-46194915D01*
X37255497Y-46226324D01*
X37266270Y-46234151D01*
X37439192Y-46311142D01*
X37439197Y-46311144D01*
X37624354Y-46350500D01*
X37624355Y-46350500D01*
X37813644Y-46350500D01*
X37813646Y-46350500D01*
X37998803Y-46311144D01*
X38171730Y-46234151D01*
X38252542Y-46175436D01*
X38318345Y-46151957D01*
X38375860Y-46162475D01*
X38431495Y-46187246D01*
X38616652Y-46226602D01*
X38616653Y-46226602D01*
X38805942Y-46226602D01*
X38805944Y-46226602D01*
X38991101Y-46187246D01*
X39164028Y-46110253D01*
X39317169Y-45998990D01*
X39443831Y-45858318D01*
X39538477Y-45694386D01*
X39543781Y-45678059D01*
X39583217Y-45620384D01*
X39635927Y-45595087D01*
X39776803Y-45565144D01*
X39776807Y-45565142D01*
X39776808Y-45565142D01*
X39835058Y-45539206D01*
X39949730Y-45488151D01*
X40102871Y-45376888D01*
X40229533Y-45236216D01*
X40318730Y-45081722D01*
X40324176Y-45072290D01*
X40324176Y-45072288D01*
X40324179Y-45072284D01*
X40324247Y-45072072D01*
X40324321Y-45071964D01*
X40326820Y-45066352D01*
X40327846Y-45066808D01*
X40363680Y-45014397D01*
X40428036Y-44987194D01*
X40442180Y-44986385D01*
X40497529Y-44986385D01*
X40497531Y-44986385D01*
X40682688Y-44947029D01*
X40855615Y-44870036D01*
X41008756Y-44758773D01*
X41135418Y-44618101D01*
X41230064Y-44454169D01*
X41288559Y-44274141D01*
X41308345Y-44085885D01*
X41288559Y-43897629D01*
X41230064Y-43717601D01*
X41135418Y-43553669D01*
X41008756Y-43412997D01*
X41008755Y-43412996D01*
X40855619Y-43301736D01*
X40855614Y-43301733D01*
X40682692Y-43224742D01*
X40682687Y-43224740D01*
X40536886Y-43193750D01*
X40497531Y-43185385D01*
X40308239Y-43185385D01*
X40275782Y-43192283D01*
X40123082Y-43224740D01*
X40123077Y-43224742D01*
X39950155Y-43301733D01*
X39950150Y-43301736D01*
X39797014Y-43412996D01*
X39670350Y-43553670D01*
X39575708Y-43717594D01*
X39575706Y-43717601D01*
X39575637Y-43717812D01*
X39575563Y-43717920D01*
X39573065Y-43723533D01*
X39572038Y-43723076D01*
X39536205Y-43775488D01*
X39471849Y-43802691D01*
X39457705Y-43803500D01*
X39402354Y-43803500D01*
X39369897Y-43810398D01*
X39217197Y-43842855D01*
X39217192Y-43842857D01*
X39044270Y-43919848D01*
X39044265Y-43919851D01*
X38891129Y-44031111D01*
X38764466Y-44171785D01*
X38669821Y-44335715D01*
X38669817Y-44335723D01*
X38664514Y-44352046D01*
X38625075Y-44409721D01*
X38572365Y-44435015D01*
X38431495Y-44464957D01*
X38431490Y-44464959D01*
X38258569Y-44541950D01*
X38212962Y-44575084D01*
X38190598Y-44591334D01*
X38177756Y-44600664D01*
X38111949Y-44624143D01*
X38054436Y-44613625D01*
X37998804Y-44588856D01*
X37998802Y-44588855D01*
X37853001Y-44557865D01*
X37813646Y-44549500D01*
X37624354Y-44549500D01*
X37591897Y-44556398D01*
X37439197Y-44588855D01*
X37439192Y-44588857D01*
X37266270Y-44665848D01*
X37266265Y-44665851D01*
X37212276Y-44705077D01*
X37146470Y-44728557D01*
X37078416Y-44712731D01*
X37066506Y-44705077D01*
X37012516Y-44665851D01*
X37012511Y-44665848D01*
X36839589Y-44588857D01*
X36839584Y-44588855D01*
X36693783Y-44557865D01*
X36654428Y-44549500D01*
X36465136Y-44549500D01*
X36432679Y-44556398D01*
X36279979Y-44588855D01*
X36279974Y-44588857D01*
X36110327Y-44664390D01*
X36041077Y-44673675D01*
X36009455Y-44664390D01*
X35839807Y-44588857D01*
X35839802Y-44588855D01*
X35694001Y-44557865D01*
X35654646Y-44549500D01*
X35465354Y-44549500D01*
X35432897Y-44556398D01*
X35280197Y-44588855D01*
X35280192Y-44588857D01*
X35107270Y-44665848D01*
X35107265Y-44665851D01*
X34954129Y-44777111D01*
X34827466Y-44917785D01*
X34732821Y-45081715D01*
X34732818Y-45081722D01*
X34674327Y-45261740D01*
X34674326Y-45261744D01*
X34654540Y-45450000D01*
X12380318Y-45450000D01*
X12381177Y-42750500D01*
X32674540Y-42750500D01*
X32694326Y-42938756D01*
X32694327Y-42938759D01*
X32752818Y-43118777D01*
X32752821Y-43118784D01*
X32847467Y-43282716D01*
X32964772Y-43412996D01*
X32974129Y-43423388D01*
X33127265Y-43534648D01*
X33127270Y-43534651D01*
X33300192Y-43611642D01*
X33300197Y-43611644D01*
X33485354Y-43651000D01*
X33485355Y-43651000D01*
X33674644Y-43651000D01*
X33674646Y-43651000D01*
X33859803Y-43611644D01*
X34032730Y-43534651D01*
X34185871Y-43423388D01*
X34312533Y-43282716D01*
X34407179Y-43118784D01*
X34465674Y-42938756D01*
X34485460Y-42750500D01*
X34465674Y-42562244D01*
X34407179Y-42382216D01*
X34312533Y-42218284D01*
X34185871Y-42077612D01*
X34160462Y-42059151D01*
X34032734Y-41966351D01*
X34032729Y-41966348D01*
X33859807Y-41889357D01*
X33859802Y-41889355D01*
X33714001Y-41858365D01*
X33674646Y-41850000D01*
X33485354Y-41850000D01*
X33452897Y-41856898D01*
X33300197Y-41889355D01*
X33300192Y-41889357D01*
X33127270Y-41966348D01*
X33127265Y-41966351D01*
X32974129Y-42077611D01*
X32847466Y-42218285D01*
X32752821Y-42382215D01*
X32752818Y-42382222D01*
X32694327Y-42562240D01*
X32694326Y-42562244D01*
X32674540Y-42750500D01*
X12381177Y-42750500D01*
X12381689Y-41142777D01*
X39239156Y-41142777D01*
X39258942Y-41331033D01*
X39258943Y-41331036D01*
X39317434Y-41511054D01*
X39317437Y-41511061D01*
X39412083Y-41674993D01*
X39538745Y-41815665D01*
X39691881Y-41926925D01*
X39691886Y-41926928D01*
X39864808Y-42003919D01*
X39864813Y-42003921D01*
X40049970Y-42043277D01*
X40049971Y-42043277D01*
X40239260Y-42043277D01*
X40239262Y-42043277D01*
X40424419Y-42003921D01*
X40597346Y-41926928D01*
X40750487Y-41815665D01*
X40877149Y-41674993D01*
X40971795Y-41511061D01*
X41030290Y-41331033D01*
X41050076Y-41142777D01*
X41030290Y-40954521D01*
X40971795Y-40774493D01*
X40877149Y-40610561D01*
X40750487Y-40469889D01*
X40750486Y-40469888D01*
X40597350Y-40358628D01*
X40597345Y-40358625D01*
X40424423Y-40281634D01*
X40424418Y-40281632D01*
X40278617Y-40250642D01*
X40239262Y-40242277D01*
X40049970Y-40242277D01*
X40017513Y-40249175D01*
X39864813Y-40281632D01*
X39864808Y-40281634D01*
X39691886Y-40358625D01*
X39691881Y-40358628D01*
X39538745Y-40469888D01*
X39412082Y-40610562D01*
X39317437Y-40774492D01*
X39317434Y-40774499D01*
X39270257Y-40919696D01*
X39258942Y-40954521D01*
X39239156Y-41142777D01*
X12381689Y-41142777D01*
X12382980Y-37084000D01*
X27288540Y-37084000D01*
X27308326Y-37272256D01*
X27308327Y-37272259D01*
X27366818Y-37452277D01*
X27366821Y-37452284D01*
X27461467Y-37616216D01*
X27518238Y-37679266D01*
X27588129Y-37756888D01*
X27741265Y-37868148D01*
X27741270Y-37868151D01*
X27914192Y-37945142D01*
X27914197Y-37945144D01*
X28099354Y-37984500D01*
X28099355Y-37984500D01*
X28288644Y-37984500D01*
X28288646Y-37984500D01*
X28473803Y-37945144D01*
X28646730Y-37868151D01*
X28799871Y-37756888D01*
X28926533Y-37616216D01*
X29021179Y-37452284D01*
X29079674Y-37272256D01*
X29086112Y-37211000D01*
X31860540Y-37211000D01*
X31880326Y-37399256D01*
X31880327Y-37399259D01*
X31938818Y-37579277D01*
X31938821Y-37579284D01*
X32033467Y-37743216D01*
X32095170Y-37811744D01*
X32160129Y-37883888D01*
X32313265Y-37995148D01*
X32313270Y-37995151D01*
X32486192Y-38072142D01*
X32486197Y-38072144D01*
X32671354Y-38111500D01*
X32671355Y-38111500D01*
X32860644Y-38111500D01*
X32860646Y-38111500D01*
X33045803Y-38072144D01*
X33207839Y-38000000D01*
X34344540Y-38000000D01*
X34364326Y-38188256D01*
X34364327Y-38188259D01*
X34422818Y-38368277D01*
X34422821Y-38368284D01*
X34517467Y-38532216D01*
X34562384Y-38582101D01*
X34644129Y-38672888D01*
X34797265Y-38784148D01*
X34797270Y-38784151D01*
X34970192Y-38861142D01*
X34970197Y-38861144D01*
X35155354Y-38900500D01*
X35155355Y-38900500D01*
X35344644Y-38900500D01*
X35344646Y-38900500D01*
X35529803Y-38861144D01*
X35702730Y-38784151D01*
X35855871Y-38672888D01*
X35982533Y-38532216D01*
X36077179Y-38368284D01*
X36135674Y-38188256D01*
X36140531Y-38142042D01*
X36167114Y-38077430D01*
X36224411Y-38037445D01*
X36294230Y-38034785D01*
X36314277Y-38041723D01*
X36470197Y-38111144D01*
X36655354Y-38150500D01*
X36655355Y-38150500D01*
X36844644Y-38150500D01*
X36844646Y-38150500D01*
X37029803Y-38111144D01*
X37202730Y-38034151D01*
X37355871Y-37922888D01*
X37378082Y-37898219D01*
X37437566Y-37861571D01*
X37507423Y-37862900D01*
X37565472Y-37901785D01*
X37593283Y-37965882D01*
X37588163Y-38019508D01*
X37555245Y-38120821D01*
X37555245Y-38120822D01*
X37555244Y-38120826D01*
X37535458Y-38309082D01*
X37555244Y-38497338D01*
X37555245Y-38497341D01*
X37613736Y-38677359D01*
X37613739Y-38677366D01*
X37708385Y-38841298D01*
X37752107Y-38889856D01*
X37835047Y-38981970D01*
X37988183Y-39093230D01*
X37988188Y-39093233D01*
X38161110Y-39170224D01*
X38161115Y-39170226D01*
X38346272Y-39209582D01*
X38346273Y-39209582D01*
X38535562Y-39209582D01*
X38535564Y-39209582D01*
X38720721Y-39170226D01*
X38893648Y-39093233D01*
X39046789Y-38981970D01*
X39173451Y-38841298D01*
X39268097Y-38677366D01*
X39326592Y-38497338D01*
X39346378Y-38309082D01*
X39326592Y-38120826D01*
X39268097Y-37940798D01*
X39173451Y-37776866D01*
X39087324Y-37681213D01*
X39580455Y-37681213D01*
X39600241Y-37869469D01*
X39600242Y-37869472D01*
X39658733Y-38049490D01*
X39658736Y-38049497D01*
X39753382Y-38213429D01*
X39870355Y-38343340D01*
X39880044Y-38354101D01*
X40033180Y-38465361D01*
X40033185Y-38465364D01*
X40206107Y-38542355D01*
X40206108Y-38542355D01*
X40206112Y-38542357D01*
X40391269Y-38581713D01*
X40391272Y-38581713D01*
X40393097Y-38582101D01*
X40454579Y-38615293D01*
X40488356Y-38676456D01*
X40490638Y-38690429D01*
X40498793Y-38768022D01*
X40498794Y-38768025D01*
X40557285Y-38948043D01*
X40557288Y-38948050D01*
X40651934Y-39111982D01*
X40739814Y-39209582D01*
X40778596Y-39252654D01*
X40931732Y-39363914D01*
X40931737Y-39363917D01*
X41104659Y-39440908D01*
X41104664Y-39440910D01*
X41289821Y-39480266D01*
X41289822Y-39480266D01*
X41479111Y-39480266D01*
X41479113Y-39480266D01*
X41664270Y-39440910D01*
X41837197Y-39363917D01*
X41990338Y-39252654D01*
X42117000Y-39111982D01*
X42211646Y-38948050D01*
X42270141Y-38768022D01*
X42289927Y-38579766D01*
X42270141Y-38391510D01*
X42211646Y-38211482D01*
X42117000Y-38047550D01*
X41990338Y-37906878D01*
X41976108Y-37896539D01*
X41837201Y-37795617D01*
X41837196Y-37795614D01*
X41664274Y-37718623D01*
X41664269Y-37718621D01*
X41477283Y-37678877D01*
X41415801Y-37645685D01*
X41382025Y-37584522D01*
X41379745Y-37570561D01*
X41371589Y-37492957D01*
X41313094Y-37312929D01*
X41218448Y-37148997D01*
X41091786Y-37008325D01*
X41091785Y-37008324D01*
X40938649Y-36897064D01*
X40938644Y-36897061D01*
X40765722Y-36820070D01*
X40765717Y-36820068D01*
X40619916Y-36789078D01*
X40580561Y-36780713D01*
X40391269Y-36780713D01*
X40358812Y-36787611D01*
X40206112Y-36820068D01*
X40206107Y-36820070D01*
X40033185Y-36897061D01*
X40033180Y-36897064D01*
X39880044Y-37008324D01*
X39753381Y-37148998D01*
X39658736Y-37312928D01*
X39658733Y-37312935D01*
X39608420Y-37467784D01*
X39600241Y-37492957D01*
X39580455Y-37681213D01*
X39087324Y-37681213D01*
X39046789Y-37636194D01*
X39046788Y-37636193D01*
X38893652Y-37524933D01*
X38893647Y-37524930D01*
X38720725Y-37447939D01*
X38720720Y-37447937D01*
X38574919Y-37416947D01*
X38535564Y-37408582D01*
X38346272Y-37408582D01*
X38313815Y-37415480D01*
X38161115Y-37447937D01*
X38161110Y-37447939D01*
X37988188Y-37524930D01*
X37988183Y-37524933D01*
X37835049Y-37636192D01*
X37812834Y-37660864D01*
X37753346Y-37697511D01*
X37683489Y-37696180D01*
X37625442Y-37657292D01*
X37597633Y-37593195D01*
X37602753Y-37539573D01*
X37635674Y-37438256D01*
X37655460Y-37250000D01*
X37635674Y-37061744D01*
X37577179Y-36881716D01*
X37482533Y-36717784D01*
X37355871Y-36577112D01*
X37355870Y-36577111D01*
X37202734Y-36465851D01*
X37202729Y-36465848D01*
X37029807Y-36388857D01*
X37029802Y-36388855D01*
X36884001Y-36357865D01*
X36844646Y-36349500D01*
X36655354Y-36349500D01*
X36622897Y-36356398D01*
X36470197Y-36388855D01*
X36470192Y-36388857D01*
X36297270Y-36465848D01*
X36297265Y-36465851D01*
X36144129Y-36577111D01*
X36017466Y-36717785D01*
X35922821Y-36881715D01*
X35922818Y-36881722D01*
X35864327Y-37061740D01*
X35864326Y-37061744D01*
X35861987Y-37084000D01*
X35859469Y-37107956D01*
X35832883Y-37172571D01*
X35775585Y-37212555D01*
X35705766Y-37215213D01*
X35685712Y-37208272D01*
X35529807Y-37138857D01*
X35529802Y-37138855D01*
X35384001Y-37107865D01*
X35344646Y-37099500D01*
X35155354Y-37099500D01*
X35122897Y-37106398D01*
X34970197Y-37138855D01*
X34970192Y-37138857D01*
X34797270Y-37215848D01*
X34797265Y-37215851D01*
X34644129Y-37327111D01*
X34517466Y-37467785D01*
X34422821Y-37631715D01*
X34422818Y-37631722D01*
X34369566Y-37795617D01*
X34364326Y-37811744D01*
X34344540Y-38000000D01*
X33207839Y-38000000D01*
X33218730Y-37995151D01*
X33371871Y-37883888D01*
X33498533Y-37743216D01*
X33593179Y-37579284D01*
X33651674Y-37399256D01*
X33671460Y-37211000D01*
X33651674Y-37022744D01*
X33593179Y-36842716D01*
X33498533Y-36678784D01*
X33371871Y-36538112D01*
X33322291Y-36502090D01*
X33218734Y-36426851D01*
X33218729Y-36426848D01*
X33045807Y-36349857D01*
X33045802Y-36349855D01*
X32895931Y-36318000D01*
X32860646Y-36310500D01*
X32671354Y-36310500D01*
X32638897Y-36317398D01*
X32486197Y-36349855D01*
X32486192Y-36349857D01*
X32313270Y-36426848D01*
X32313265Y-36426851D01*
X32160129Y-36538111D01*
X32033466Y-36678785D01*
X31938821Y-36842715D01*
X31938818Y-36842722D01*
X31894491Y-36979148D01*
X31880326Y-37022744D01*
X31860540Y-37211000D01*
X29086112Y-37211000D01*
X29099460Y-37084000D01*
X29079674Y-36895744D01*
X29021179Y-36715716D01*
X28926533Y-36551784D01*
X28799871Y-36411112D01*
X28771124Y-36390226D01*
X28646734Y-36299851D01*
X28646729Y-36299848D01*
X28473807Y-36222857D01*
X28473802Y-36222855D01*
X28328001Y-36191865D01*
X28288646Y-36183500D01*
X28099354Y-36183500D01*
X28066897Y-36190398D01*
X27914197Y-36222855D01*
X27914192Y-36222857D01*
X27741270Y-36299848D01*
X27741265Y-36299851D01*
X27588129Y-36411111D01*
X27461466Y-36551785D01*
X27366821Y-36715715D01*
X27366818Y-36715722D01*
X27317377Y-36867888D01*
X27308326Y-36895744D01*
X27288540Y-37084000D01*
X12382980Y-37084000D01*
X12383788Y-34544000D01*
X27796540Y-34544000D01*
X27816326Y-34732256D01*
X27816327Y-34732259D01*
X27874818Y-34912277D01*
X27874821Y-34912284D01*
X27969467Y-35076216D01*
X28050559Y-35166277D01*
X28096129Y-35216888D01*
X28249265Y-35328148D01*
X28249270Y-35328151D01*
X28422192Y-35405142D01*
X28422197Y-35405144D01*
X28607354Y-35444500D01*
X28607355Y-35444500D01*
X28796644Y-35444500D01*
X28796646Y-35444500D01*
X28981803Y-35405144D01*
X29154730Y-35328151D01*
X29307871Y-35216888D01*
X29434533Y-35076216D01*
X29529179Y-34912284D01*
X29587674Y-34732256D01*
X29607460Y-34544000D01*
X29587674Y-34355744D01*
X29529179Y-34175716D01*
X29434533Y-34011784D01*
X29307871Y-33871112D01*
X29279124Y-33850226D01*
X29154734Y-33759851D01*
X29154729Y-33759848D01*
X28981807Y-33682857D01*
X28981802Y-33682855D01*
X28836001Y-33651865D01*
X28796646Y-33643500D01*
X28607354Y-33643500D01*
X28574897Y-33650398D01*
X28422197Y-33682855D01*
X28422192Y-33682857D01*
X28249270Y-33759848D01*
X28249265Y-33759851D01*
X28096129Y-33871111D01*
X27969466Y-34011785D01*
X27874821Y-34175715D01*
X27874818Y-34175722D01*
X27825377Y-34327888D01*
X27816326Y-34355744D01*
X27796540Y-34544000D01*
X12383788Y-34544000D01*
X12384189Y-33285012D01*
X31618389Y-33285012D01*
X31638175Y-33473268D01*
X31638176Y-33473271D01*
X31696667Y-33653289D01*
X31696670Y-33653296D01*
X31791316Y-33817228D01*
X31897621Y-33935291D01*
X31917978Y-33957900D01*
X32071114Y-34069160D01*
X32071119Y-34069163D01*
X32244041Y-34146154D01*
X32244046Y-34146156D01*
X32429203Y-34185512D01*
X32429204Y-34185512D01*
X32618493Y-34185512D01*
X32618495Y-34185512D01*
X32803652Y-34146156D01*
X32976579Y-34069163D01*
X33129720Y-33957900D01*
X33256382Y-33817228D01*
X33351028Y-33653296D01*
X33406056Y-33483937D01*
X33445493Y-33426262D01*
X33509852Y-33399064D01*
X33578698Y-33410979D01*
X33630174Y-33458223D01*
X33631372Y-33460253D01*
X33684467Y-33552216D01*
X33801746Y-33682467D01*
X33811129Y-33692888D01*
X33964265Y-33804148D01*
X33964270Y-33804151D01*
X34137192Y-33881142D01*
X34137197Y-33881144D01*
X34322354Y-33920500D01*
X34322355Y-33920500D01*
X34511644Y-33920500D01*
X34511646Y-33920500D01*
X34696803Y-33881144D01*
X34869730Y-33804151D01*
X35004898Y-33705945D01*
X35070702Y-33682467D01*
X35138756Y-33698292D01*
X35171382Y-33727391D01*
X35172305Y-33726561D01*
X35302459Y-33871112D01*
X35303315Y-33872062D01*
X35355293Y-33909826D01*
X35397958Y-33965156D01*
X35403937Y-34034770D01*
X35371331Y-34096565D01*
X35355294Y-34110461D01*
X35335128Y-34125112D01*
X35208466Y-34265785D01*
X35113821Y-34429715D01*
X35113818Y-34429722D01*
X35058422Y-34600216D01*
X35055326Y-34609744D01*
X35035540Y-34798000D01*
X35055326Y-34986256D01*
X35055327Y-34986259D01*
X35113818Y-35166277D01*
X35113821Y-35166284D01*
X35208467Y-35330216D01*
X35311369Y-35444500D01*
X35335129Y-35470888D01*
X35488265Y-35582148D01*
X35488270Y-35582151D01*
X35661192Y-35659142D01*
X35661197Y-35659144D01*
X35846354Y-35698500D01*
X35846355Y-35698500D01*
X36035644Y-35698500D01*
X36035646Y-35698500D01*
X36220803Y-35659144D01*
X36393730Y-35582151D01*
X36416476Y-35565624D01*
X36482281Y-35542143D01*
X36550335Y-35557967D01*
X36562240Y-35565617D01*
X36632285Y-35616508D01*
X36635923Y-35619151D01*
X36808845Y-35696142D01*
X36808850Y-35696144D01*
X36994007Y-35735500D01*
X36994008Y-35735500D01*
X37183297Y-35735500D01*
X37183299Y-35735500D01*
X37368456Y-35696144D01*
X37458319Y-35656134D01*
X37547320Y-35616508D01*
X37548229Y-35618551D01*
X37606106Y-35604501D01*
X37653948Y-35618541D01*
X37654502Y-35617299D01*
X37833360Y-35696933D01*
X37833365Y-35696935D01*
X38018522Y-35736291D01*
X38018523Y-35736291D01*
X38207812Y-35736291D01*
X38207814Y-35736291D01*
X38392971Y-35696935D01*
X38565898Y-35619942D01*
X38574497Y-35613694D01*
X38640300Y-35590211D01*
X38708355Y-35606031D01*
X38757053Y-35656134D01*
X38765318Y-35675689D01*
X38806125Y-35801280D01*
X38806127Y-35801284D01*
X38900773Y-35965216D01*
X39027435Y-36105888D01*
X39180571Y-36217148D01*
X39180576Y-36217151D01*
X39353498Y-36294142D01*
X39353503Y-36294144D01*
X39538660Y-36333500D01*
X39538661Y-36333500D01*
X39727950Y-36333500D01*
X39727952Y-36333500D01*
X39913109Y-36294144D01*
X40086036Y-36217151D01*
X40239177Y-36105888D01*
X40365839Y-35965216D01*
X40460485Y-35801284D01*
X40518980Y-35621256D01*
X40538766Y-35433000D01*
X40518980Y-35244744D01*
X40460485Y-35064716D01*
X40365839Y-34900784D01*
X40239177Y-34760112D01*
X40239176Y-34760111D01*
X40086040Y-34648851D01*
X40086035Y-34648848D01*
X39913113Y-34571857D01*
X39913108Y-34571855D01*
X39767307Y-34540865D01*
X39727952Y-34532500D01*
X39538660Y-34532500D01*
X39506203Y-34539398D01*
X39353503Y-34571855D01*
X39353498Y-34571857D01*
X39180576Y-34648848D01*
X39180571Y-34648851D01*
X39171965Y-34655104D01*
X39106158Y-34678580D01*
X39038105Y-34662751D01*
X38989412Y-34612643D01*
X38981156Y-34593104D01*
X38940347Y-34467507D01*
X38845701Y-34303575D01*
X38719039Y-34162903D01*
X38695986Y-34146154D01*
X38565902Y-34051642D01*
X38565897Y-34051639D01*
X38392975Y-33974648D01*
X38392970Y-33974646D01*
X38239321Y-33941988D01*
X38207814Y-33935291D01*
X38018522Y-33935291D01*
X37987015Y-33941988D01*
X37833365Y-33974646D01*
X37833360Y-33974648D01*
X37654502Y-34054283D01*
X37653595Y-34052247D01*
X37595671Y-34066288D01*
X37547872Y-34052248D01*
X37547319Y-34053492D01*
X37368460Y-33973857D01*
X37368455Y-33973855D01*
X37222654Y-33942865D01*
X37183299Y-33934500D01*
X36994007Y-33934500D01*
X36990286Y-33935291D01*
X36808850Y-33973855D01*
X36808845Y-33973857D01*
X36698423Y-34023021D01*
X36629173Y-34032306D01*
X36565896Y-34002678D01*
X36528683Y-33943543D01*
X36529348Y-33873676D01*
X36555836Y-33826772D01*
X36641719Y-33731390D01*
X36736365Y-33567458D01*
X36777424Y-33441091D01*
X36816861Y-33383417D01*
X36869571Y-33358120D01*
X36895498Y-33352610D01*
X37068425Y-33275617D01*
X37221566Y-33164354D01*
X37348228Y-33023682D01*
X37442874Y-32859750D01*
X37501369Y-32679722D01*
X37521155Y-32491466D01*
X37501369Y-32303210D01*
X37442874Y-32123182D01*
X37348228Y-31959250D01*
X37221566Y-31818578D01*
X37221565Y-31818577D01*
X37068429Y-31707317D01*
X37068424Y-31707314D01*
X36895502Y-31630323D01*
X36895497Y-31630321D01*
X36749696Y-31599331D01*
X36710341Y-31590966D01*
X36521049Y-31590966D01*
X36488592Y-31597864D01*
X36335892Y-31630321D01*
X36335887Y-31630323D01*
X36162965Y-31707314D01*
X36162960Y-31707317D01*
X36009824Y-31818577D01*
X35883161Y-31959251D01*
X35788516Y-32123181D01*
X35788514Y-32123185D01*
X35747456Y-32249548D01*
X35708018Y-32307223D01*
X35655308Y-32332519D01*
X35629381Y-32338030D01*
X35629378Y-32338031D01*
X35456456Y-32415022D01*
X35456451Y-32415025D01*
X35321289Y-32513226D01*
X35255482Y-32536706D01*
X35187429Y-32520880D01*
X35154804Y-32491781D01*
X35153881Y-32492613D01*
X35149533Y-32487784D01*
X35022871Y-32347112D01*
X35010371Y-32338030D01*
X34869734Y-32235851D01*
X34869729Y-32235848D01*
X34696807Y-32158857D01*
X34696802Y-32158855D01*
X34551001Y-32127865D01*
X34511646Y-32119500D01*
X34322354Y-32119500D01*
X34289897Y-32126398D01*
X34137197Y-32158855D01*
X34137192Y-32158857D01*
X33964270Y-32235848D01*
X33964265Y-32235851D01*
X33811129Y-32347111D01*
X33684466Y-32487785D01*
X33589821Y-32651715D01*
X33589819Y-32651719D01*
X33534792Y-32821074D01*
X33495354Y-32878749D01*
X33430995Y-32905947D01*
X33362149Y-32894032D01*
X33310673Y-32846788D01*
X33309513Y-32844823D01*
X33256382Y-32752796D01*
X33129720Y-32612124D01*
X33129719Y-32612123D01*
X32976583Y-32500863D01*
X32976578Y-32500860D01*
X32803656Y-32423869D01*
X32803651Y-32423867D01*
X32657850Y-32392877D01*
X32618495Y-32384512D01*
X32429203Y-32384512D01*
X32396746Y-32391410D01*
X32244046Y-32423867D01*
X32244041Y-32423869D01*
X32071119Y-32500860D01*
X32071114Y-32500863D01*
X31917978Y-32612123D01*
X31791315Y-32752797D01*
X31696670Y-32916727D01*
X31696667Y-32916734D01*
X31661918Y-33023682D01*
X31638175Y-33096756D01*
X31618389Y-33285012D01*
X12384189Y-33285012D01*
X12385154Y-30250000D01*
X26844540Y-30250000D01*
X26864326Y-30438256D01*
X26864327Y-30438259D01*
X26922818Y-30618277D01*
X26922821Y-30618284D01*
X27017467Y-30782216D01*
X27108545Y-30883368D01*
X27144129Y-30922888D01*
X27297265Y-31034148D01*
X27297270Y-31034151D01*
X27470192Y-31111142D01*
X27470197Y-31111144D01*
X27655354Y-31150500D01*
X27655355Y-31150500D01*
X27844644Y-31150500D01*
X27844646Y-31150500D01*
X28029803Y-31111144D01*
X28202730Y-31034151D01*
X28355871Y-30922888D01*
X28482533Y-30782216D01*
X28577179Y-30618284D01*
X28635674Y-30438256D01*
X28655460Y-30250000D01*
X28635674Y-30061744D01*
X28577179Y-29881716D01*
X28482533Y-29717784D01*
X28355871Y-29577112D01*
X28279837Y-29521870D01*
X28202734Y-29465851D01*
X28202729Y-29465848D01*
X28029807Y-29388857D01*
X28029802Y-29388855D01*
X27884001Y-29357865D01*
X27844646Y-29349500D01*
X27655354Y-29349500D01*
X27622897Y-29356398D01*
X27470197Y-29388855D01*
X27470192Y-29388857D01*
X27297270Y-29465848D01*
X27297265Y-29465851D01*
X27144129Y-29577111D01*
X27017466Y-29717785D01*
X26922821Y-29881715D01*
X26922818Y-29881722D01*
X26864327Y-30061740D01*
X26864326Y-30061744D01*
X26844540Y-30250000D01*
X12385154Y-30250000D01*
X12385606Y-28829000D01*
X31098540Y-28829000D01*
X31118326Y-29017256D01*
X31118327Y-29017259D01*
X31176818Y-29197277D01*
X31176821Y-29197284D01*
X31271467Y-29361216D01*
X31365679Y-29465849D01*
X31398129Y-29501888D01*
X31551265Y-29613148D01*
X31551270Y-29613151D01*
X31724192Y-29690142D01*
X31724197Y-29690144D01*
X31909354Y-29729500D01*
X31909355Y-29729500D01*
X32098644Y-29729500D01*
X32098646Y-29729500D01*
X32206378Y-29706601D01*
X38348939Y-29706601D01*
X38368725Y-29894857D01*
X38368726Y-29894860D01*
X38427217Y-30074878D01*
X38427220Y-30074885D01*
X38521866Y-30238817D01*
X38592050Y-30316764D01*
X38648528Y-30379489D01*
X38801664Y-30490749D01*
X38801669Y-30490752D01*
X38974591Y-30567743D01*
X38974596Y-30567745D01*
X39159753Y-30607101D01*
X39159754Y-30607101D01*
X39349040Y-30607101D01*
X39349045Y-30607101D01*
X39375139Y-30601554D01*
X39444802Y-30606869D01*
X39500536Y-30649005D01*
X39524643Y-30714584D01*
X39524239Y-30735804D01*
X39520540Y-30771000D01*
X39540326Y-30959256D01*
X39540327Y-30959259D01*
X39598818Y-31139277D01*
X39598821Y-31139284D01*
X39693467Y-31303216D01*
X39756058Y-31372730D01*
X39820129Y-31443888D01*
X39973265Y-31555148D01*
X39973270Y-31555151D01*
X40146192Y-31632142D01*
X40146197Y-31632144D01*
X40331354Y-31671500D01*
X40331355Y-31671500D01*
X40520644Y-31671500D01*
X40520646Y-31671500D01*
X40705803Y-31632144D01*
X40878730Y-31555151D01*
X41031871Y-31443888D01*
X41158533Y-31303216D01*
X41253179Y-31139284D01*
X41311674Y-30959256D01*
X41331460Y-30771000D01*
X41311674Y-30582744D01*
X41253179Y-30402716D01*
X41158533Y-30238784D01*
X41031871Y-30098112D01*
X40999902Y-30074885D01*
X40878734Y-29986851D01*
X40878729Y-29986848D01*
X40705807Y-29909857D01*
X40705802Y-29909855D01*
X40560001Y-29878865D01*
X40520646Y-29870500D01*
X40331354Y-29870500D01*
X40305257Y-29876046D01*
X40235592Y-29870730D01*
X40179859Y-29828592D01*
X40155755Y-29763012D01*
X40156158Y-29741807D01*
X40159859Y-29706601D01*
X40148845Y-29601803D01*
X42019042Y-29601803D01*
X42038828Y-29790059D01*
X42038829Y-29790062D01*
X42097320Y-29970080D01*
X42097323Y-29970087D01*
X42191969Y-30134019D01*
X42286300Y-30238784D01*
X42318631Y-30274691D01*
X42471767Y-30385951D01*
X42471772Y-30385954D01*
X42644694Y-30462945D01*
X42644699Y-30462947D01*
X42829856Y-30502303D01*
X42869047Y-30502303D01*
X42936086Y-30521988D01*
X42981841Y-30574792D01*
X42993047Y-30626303D01*
X42993047Y-33794925D01*
X42992638Y-33804989D01*
X42988207Y-33859392D01*
X42999235Y-33940337D01*
X42999643Y-33943667D01*
X43008474Y-34024863D01*
X43008476Y-34024874D01*
X43008537Y-34025053D01*
X43013887Y-34047878D01*
X43013913Y-34048072D01*
X43013916Y-34048084D01*
X43042087Y-34124766D01*
X43043202Y-34127932D01*
X43069278Y-34205323D01*
X43069281Y-34205329D01*
X43069379Y-34205492D01*
X43079516Y-34226646D01*
X43079583Y-34226830D01*
X43079587Y-34226837D01*
X43123593Y-34295686D01*
X43125356Y-34298528D01*
X43159782Y-34355744D01*
X43167459Y-34368502D01*
X43167589Y-34368639D01*
X43182039Y-34387122D01*
X43182147Y-34387291D01*
X43239942Y-34445086D01*
X43242249Y-34447457D01*
X43298413Y-34506750D01*
X43298415Y-34506751D01*
X43298418Y-34506754D01*
X43298575Y-34506861D01*
X43316668Y-34521812D01*
X49384579Y-40589723D01*
X49404285Y-40615404D01*
X49432465Y-40664214D01*
X49432467Y-40664216D01*
X49559129Y-40804888D01*
X49699763Y-40907064D01*
X49714552Y-40919696D01*
X54449431Y-45654575D01*
X54482916Y-45715898D01*
X54485750Y-45742256D01*
X54485750Y-47756042D01*
X54479682Y-47794358D01*
X54475576Y-47806992D01*
X54475576Y-47806993D01*
X54464356Y-47913744D01*
X54455790Y-47995250D01*
X54475576Y-48183506D01*
X54475577Y-48183509D01*
X54534068Y-48363527D01*
X54534071Y-48363534D01*
X54628717Y-48527466D01*
X54755379Y-48668138D01*
X54908515Y-48779398D01*
X54908520Y-48779401D01*
X55081442Y-48856392D01*
X55081447Y-48856394D01*
X55266604Y-48895750D01*
X55266605Y-48895750D01*
X55455894Y-48895750D01*
X55455896Y-48895750D01*
X55641053Y-48856394D01*
X55813980Y-48779401D01*
X55967121Y-48668138D01*
X56093783Y-48527466D01*
X56188429Y-48363534D01*
X56246924Y-48183506D01*
X56266710Y-47995250D01*
X56246924Y-47806994D01*
X56242817Y-47794355D01*
X56236750Y-47756042D01*
X56236750Y-47752000D01*
X58313540Y-47752000D01*
X58333326Y-47940256D01*
X58333327Y-47940259D01*
X58391818Y-48120277D01*
X58391821Y-48120284D01*
X58486467Y-48284216D01*
X58613129Y-48424888D01*
X58766265Y-48536148D01*
X58766270Y-48536151D01*
X58939192Y-48613142D01*
X58939197Y-48613144D01*
X59124354Y-48652500D01*
X59124355Y-48652500D01*
X59313644Y-48652500D01*
X59313646Y-48652500D01*
X59498803Y-48613144D01*
X59671730Y-48536151D01*
X59824871Y-48424888D01*
X59951533Y-48284216D01*
X60046179Y-48120284D01*
X60104674Y-47940256D01*
X60124460Y-47752000D01*
X60104674Y-47563744D01*
X60046179Y-47383716D01*
X59951533Y-47219784D01*
X59824871Y-47079112D01*
X59824870Y-47079111D01*
X59671734Y-46967851D01*
X59671729Y-46967848D01*
X59498807Y-46890857D01*
X59498802Y-46890855D01*
X59353001Y-46859865D01*
X59313646Y-46851500D01*
X59124354Y-46851500D01*
X59091897Y-46858398D01*
X58939197Y-46890855D01*
X58939192Y-46890857D01*
X58766270Y-46967848D01*
X58766265Y-46967851D01*
X58613129Y-47079111D01*
X58486466Y-47219785D01*
X58391821Y-47383715D01*
X58391818Y-47383722D01*
X58333327Y-47563740D01*
X58333326Y-47563744D01*
X58313540Y-47752000D01*
X56236750Y-47752000D01*
X56236750Y-46101000D01*
X64753540Y-46101000D01*
X64773326Y-46289256D01*
X64773327Y-46289259D01*
X64831818Y-46469277D01*
X64831821Y-46469284D01*
X64926467Y-46633216D01*
X65053129Y-46773888D01*
X65206265Y-46885148D01*
X65206270Y-46885151D01*
X65379192Y-46962142D01*
X65379197Y-46962144D01*
X65564354Y-47001500D01*
X65564355Y-47001500D01*
X65753644Y-47001500D01*
X65753646Y-47001500D01*
X65938803Y-46962144D01*
X66111730Y-46885151D01*
X66264871Y-46773888D01*
X66391533Y-46633216D01*
X66486179Y-46469284D01*
X66544674Y-46289256D01*
X66564460Y-46101000D01*
X66544674Y-45912744D01*
X66486179Y-45732716D01*
X66391533Y-45568784D01*
X66264871Y-45428112D01*
X66264870Y-45428111D01*
X66111734Y-45316851D01*
X66111729Y-45316848D01*
X65938807Y-45239857D01*
X65938802Y-45239855D01*
X65793001Y-45208865D01*
X65753646Y-45200500D01*
X65564354Y-45200500D01*
X65531897Y-45207398D01*
X65379197Y-45239855D01*
X65379192Y-45239857D01*
X65206270Y-45316848D01*
X65206265Y-45316851D01*
X65053129Y-45428111D01*
X64926466Y-45568785D01*
X64831821Y-45732715D01*
X64831818Y-45732722D01*
X64775235Y-45906868D01*
X64773326Y-45912744D01*
X64753540Y-46101000D01*
X56236750Y-46101000D01*
X56236750Y-46077750D01*
X56256435Y-46010711D01*
X56309239Y-45964956D01*
X56360750Y-45953750D01*
X57332007Y-45953750D01*
X57347627Y-45955474D01*
X57347654Y-45955189D01*
X57355410Y-45955921D01*
X57355417Y-45955923D01*
X57422623Y-45953811D01*
X57426518Y-45953750D01*
X57454096Y-45953750D01*
X57454100Y-45953750D01*
X57458074Y-45953247D01*
X57469713Y-45952330D01*
X57513377Y-45950959D01*
X57532619Y-45945367D01*
X57551662Y-45941424D01*
X57571542Y-45938914D01*
X57612151Y-45922835D01*
X57623194Y-45919053D01*
X57665140Y-45906868D01*
X57682379Y-45896672D01*
X57699853Y-45888112D01*
X57718477Y-45880738D01*
X57718477Y-45880737D01*
X57718482Y-45880736D01*
X57753833Y-45855050D01*
X57763564Y-45848658D01*
X57801170Y-45826420D01*
X57815339Y-45812249D01*
X57830129Y-45799618D01*
X57846337Y-45787844D01*
X57874188Y-45754176D01*
X57882029Y-45745559D01*
X59002771Y-44624819D01*
X59064094Y-44591334D01*
X59090452Y-44588500D01*
X59149644Y-44588500D01*
X59149646Y-44588500D01*
X59334803Y-44549144D01*
X59507730Y-44472151D01*
X59660871Y-44360888D01*
X59787533Y-44220216D01*
X59882179Y-44056284D01*
X59940674Y-43876256D01*
X59960460Y-43688000D01*
X59940674Y-43499744D01*
X59882179Y-43319716D01*
X59787533Y-43155784D01*
X59660871Y-43015112D01*
X59660870Y-43015111D01*
X59507734Y-42903851D01*
X59507729Y-42903848D01*
X59334807Y-42826857D01*
X59334802Y-42826855D01*
X59189001Y-42795865D01*
X59149646Y-42787500D01*
X58960354Y-42787500D01*
X58927897Y-42794398D01*
X58775197Y-42826855D01*
X58775192Y-42826857D01*
X58602270Y-42903848D01*
X58602265Y-42903851D01*
X58449129Y-43015111D01*
X58322466Y-43155785D01*
X58227821Y-43319715D01*
X58227818Y-43319722D01*
X58169327Y-43499740D01*
X58169326Y-43499744D01*
X58157565Y-43611644D01*
X58151679Y-43667649D01*
X58125094Y-43732263D01*
X58116039Y-43742368D01*
X57704720Y-44153687D01*
X57643397Y-44187172D01*
X57573705Y-44182188D01*
X57517772Y-44140316D01*
X57509656Y-44128013D01*
X57482533Y-44081034D01*
X57355871Y-43940362D01*
X57327640Y-43919851D01*
X57202734Y-43829101D01*
X57202729Y-43829098D01*
X57029807Y-43752107D01*
X57029802Y-43752105D01*
X56868969Y-43717920D01*
X56844646Y-43712750D01*
X56655354Y-43712750D01*
X56631031Y-43717920D01*
X56470197Y-43752105D01*
X56470192Y-43752107D01*
X56297270Y-43829098D01*
X56297265Y-43829101D01*
X56144129Y-43940361D01*
X56017466Y-44081035D01*
X55922821Y-44244965D01*
X55922819Y-44244969D01*
X55885609Y-44359491D01*
X55846171Y-44417166D01*
X55781812Y-44444364D01*
X55712966Y-44432449D01*
X55679997Y-44408853D01*
X52546144Y-41275000D01*
X60054540Y-41275000D01*
X60074326Y-41463256D01*
X60074327Y-41463259D01*
X60132818Y-41643277D01*
X60132821Y-41643284D01*
X60227467Y-41807216D01*
X60354129Y-41947888D01*
X60507265Y-42059148D01*
X60507270Y-42059151D01*
X60680192Y-42136142D01*
X60680197Y-42136144D01*
X60865354Y-42175500D01*
X60865355Y-42175500D01*
X61054644Y-42175500D01*
X61054646Y-42175500D01*
X61239803Y-42136144D01*
X61412730Y-42059151D01*
X61565871Y-41947888D01*
X61692533Y-41807216D01*
X61787179Y-41643284D01*
X61845674Y-41463256D01*
X61865460Y-41275000D01*
X61845674Y-41086744D01*
X61787179Y-40906716D01*
X61692533Y-40742784D01*
X61565871Y-40602112D01*
X61565870Y-40602111D01*
X61412734Y-40490851D01*
X61412729Y-40490848D01*
X61239807Y-40413857D01*
X61239802Y-40413855D01*
X61094001Y-40382865D01*
X61054646Y-40374500D01*
X60865354Y-40374500D01*
X60832897Y-40381398D01*
X60680197Y-40413855D01*
X60680192Y-40413857D01*
X60507270Y-40490848D01*
X60507265Y-40490851D01*
X60354129Y-40602111D01*
X60227466Y-40742785D01*
X60132821Y-40906715D01*
X60132818Y-40906722D01*
X60074327Y-41086740D01*
X60074326Y-41086744D01*
X60054540Y-41275000D01*
X52546144Y-41275000D01*
X51022144Y-39751000D01*
X52434540Y-39751000D01*
X52454326Y-39939256D01*
X52454327Y-39939259D01*
X52512818Y-40119277D01*
X52512821Y-40119284D01*
X52607467Y-40283216D01*
X52689660Y-40374500D01*
X52734129Y-40423888D01*
X52887265Y-40535148D01*
X52887270Y-40535151D01*
X53060192Y-40612142D01*
X53060197Y-40612144D01*
X53245354Y-40651500D01*
X53245355Y-40651500D01*
X53434644Y-40651500D01*
X53434646Y-40651500D01*
X53619803Y-40612144D01*
X53792730Y-40535151D01*
X53945871Y-40423888D01*
X54072533Y-40283216D01*
X54167179Y-40119284D01*
X54225674Y-39939256D01*
X54245460Y-39751000D01*
X54225674Y-39562744D01*
X54167179Y-39382716D01*
X54072533Y-39218784D01*
X53945871Y-39078112D01*
X53945870Y-39078111D01*
X53792734Y-38966851D01*
X53792729Y-38966848D01*
X53619807Y-38889857D01*
X53619802Y-38889855D01*
X53474001Y-38858865D01*
X53434646Y-38850500D01*
X53245354Y-38850500D01*
X53212897Y-38857398D01*
X53060197Y-38889855D01*
X53060192Y-38889857D01*
X52887270Y-38966848D01*
X52887265Y-38966851D01*
X52734129Y-39078111D01*
X52607466Y-39218785D01*
X52512821Y-39382715D01*
X52512818Y-39382722D01*
X52454327Y-39562740D01*
X52454326Y-39562744D01*
X52434540Y-39751000D01*
X51022144Y-39751000D01*
X50945418Y-39674274D01*
X50925711Y-39648591D01*
X50897534Y-39599785D01*
X50770870Y-39459111D01*
X50630243Y-39356940D01*
X50615447Y-39344303D01*
X47466144Y-36195000D01*
X58657540Y-36195000D01*
X58677326Y-36383256D01*
X58677327Y-36383259D01*
X58735818Y-36563277D01*
X58735821Y-36563284D01*
X58830467Y-36727216D01*
X58957129Y-36867888D01*
X59110265Y-36979148D01*
X59110270Y-36979151D01*
X59283192Y-37056142D01*
X59283197Y-37056144D01*
X59468354Y-37095500D01*
X59468355Y-37095500D01*
X59657644Y-37095500D01*
X59657646Y-37095500D01*
X59842803Y-37056144D01*
X60015730Y-36979151D01*
X60168871Y-36867888D01*
X60295533Y-36727216D01*
X60390179Y-36563284D01*
X60448674Y-36383256D01*
X60468460Y-36195000D01*
X60448674Y-36006744D01*
X60390179Y-35826716D01*
X60295533Y-35662784D01*
X60168871Y-35522112D01*
X60150382Y-35508679D01*
X60015734Y-35410851D01*
X60015729Y-35410848D01*
X59842807Y-35333857D01*
X59842802Y-35333855D01*
X59697001Y-35302865D01*
X59657646Y-35294500D01*
X59468354Y-35294500D01*
X59435897Y-35301398D01*
X59283197Y-35333855D01*
X59283192Y-35333857D01*
X59110270Y-35410848D01*
X59110265Y-35410851D01*
X58957129Y-35522111D01*
X58830466Y-35662785D01*
X58735821Y-35826715D01*
X58735818Y-35826722D01*
X58690820Y-35965214D01*
X58677326Y-36006744D01*
X58657540Y-36195000D01*
X47466144Y-36195000D01*
X44926144Y-33655000D01*
X60054540Y-33655000D01*
X60074326Y-33843256D01*
X60074327Y-33843259D01*
X60132818Y-34023277D01*
X60132821Y-34023284D01*
X60227467Y-34187216D01*
X60332238Y-34303576D01*
X60354129Y-34327888D01*
X60507265Y-34439148D01*
X60507270Y-34439151D01*
X60680192Y-34516142D01*
X60680197Y-34516144D01*
X60865354Y-34555500D01*
X60865355Y-34555500D01*
X61054644Y-34555500D01*
X61054646Y-34555500D01*
X61239803Y-34516144D01*
X61412730Y-34439151D01*
X61565871Y-34327888D01*
X61692533Y-34187216D01*
X61761362Y-34068000D01*
X73511887Y-34068000D01*
X73531673Y-34256256D01*
X73531674Y-34256259D01*
X73590165Y-34436277D01*
X73590168Y-34436284D01*
X73684814Y-34600216D01*
X73803704Y-34732256D01*
X73811476Y-34740888D01*
X73964612Y-34852148D01*
X73964617Y-34852151D01*
X74137539Y-34929142D01*
X74137544Y-34929144D01*
X74322701Y-34968500D01*
X74322702Y-34968500D01*
X74479236Y-34968500D01*
X74546275Y-34988185D01*
X74592030Y-35040989D01*
X74597896Y-35056504D01*
X74636186Y-35182728D01*
X74729086Y-35356532D01*
X74732473Y-35361601D01*
X74730836Y-35362694D01*
X74754596Y-35418663D01*
X74742795Y-35487529D01*
X74732109Y-35504156D01*
X74732473Y-35504399D01*
X74729086Y-35509467D01*
X74636188Y-35683266D01*
X74578975Y-35871870D01*
X74559659Y-36068000D01*
X74578975Y-36264129D01*
X74578976Y-36264132D01*
X74617226Y-36390226D01*
X74636188Y-36452733D01*
X74729086Y-36626532D01*
X74732473Y-36631601D01*
X74730836Y-36632694D01*
X74754596Y-36688663D01*
X74742795Y-36757529D01*
X74732109Y-36774156D01*
X74732473Y-36774399D01*
X74729086Y-36779467D01*
X74636188Y-36953266D01*
X74578975Y-37141870D01*
X74559659Y-37338000D01*
X74578975Y-37534129D01*
X74578976Y-37534132D01*
X74634940Y-37718621D01*
X74636188Y-37722733D01*
X74729086Y-37896532D01*
X74729090Y-37896539D01*
X74854116Y-38048883D01*
X75006460Y-38173909D01*
X75006467Y-38173913D01*
X75180266Y-38266811D01*
X75180269Y-38266811D01*
X75180273Y-38266814D01*
X75368868Y-38324024D01*
X75565000Y-38343341D01*
X75761132Y-38324024D01*
X75949727Y-38266814D01*
X76123538Y-38173910D01*
X76123544Y-38173904D01*
X76128607Y-38170523D01*
X76129703Y-38172164D01*
X76185639Y-38148405D01*
X76254507Y-38160194D01*
X76271148Y-38170888D01*
X76271393Y-38170523D01*
X76276458Y-38173907D01*
X76276462Y-38173910D01*
X76450273Y-38266814D01*
X76638868Y-38324024D01*
X76835000Y-38343341D01*
X77031132Y-38324024D01*
X77219727Y-38266814D01*
X77393538Y-38173910D01*
X77545883Y-38048883D01*
X77670910Y-37896538D01*
X77724855Y-37795614D01*
X77763811Y-37722733D01*
X77763811Y-37722732D01*
X77763814Y-37722727D01*
X77821024Y-37534132D01*
X77840341Y-37338000D01*
X77821024Y-37141868D01*
X77763814Y-36953273D01*
X77670910Y-36779462D01*
X77670906Y-36779457D01*
X77667526Y-36774399D01*
X77669044Y-36773384D01*
X77645081Y-36716962D01*
X77656872Y-36648094D01*
X77667492Y-36631574D01*
X77667111Y-36631320D01*
X77670497Y-36626252D01*
X77763347Y-36452541D01*
X77804160Y-36318000D01*
X77049483Y-36318000D01*
X77120801Y-36233007D01*
X77160000Y-36125306D01*
X77160000Y-36010694D01*
X77120801Y-35902993D01*
X77049483Y-35818000D01*
X77804160Y-35818000D01*
X77804160Y-35817999D01*
X77763347Y-35683458D01*
X77670496Y-35509746D01*
X77667110Y-35504678D01*
X77668784Y-35503559D01*
X77645081Y-35447746D01*
X77656874Y-35378879D01*
X77667839Y-35361818D01*
X77667523Y-35361607D01*
X77670904Y-35356544D01*
X77670910Y-35356538D01*
X77763814Y-35182727D01*
X77821024Y-34994132D01*
X77840341Y-34798000D01*
X77821024Y-34601868D01*
X77763814Y-34413273D01*
X77670910Y-34239462D01*
X77670906Y-34239457D01*
X77667526Y-34234399D01*
X77669044Y-34233384D01*
X77645081Y-34176962D01*
X77656872Y-34108094D01*
X77667492Y-34091574D01*
X77667111Y-34091320D01*
X77670497Y-34086252D01*
X77763347Y-33912541D01*
X77804160Y-33778000D01*
X77049483Y-33778000D01*
X77120801Y-33693007D01*
X77160000Y-33585306D01*
X77160000Y-33470694D01*
X77120801Y-33362993D01*
X77047129Y-33275195D01*
X76947871Y-33217888D01*
X76863436Y-33203000D01*
X76806564Y-33203000D01*
X76722129Y-33217888D01*
X76622871Y-33275195D01*
X76585000Y-33320327D01*
X76585000Y-32465672D01*
X76622871Y-32510805D01*
X76722129Y-32568112D01*
X76806564Y-32583000D01*
X76863436Y-32583000D01*
X76947871Y-32568112D01*
X77047129Y-32510805D01*
X77049483Y-32508000D01*
X77085000Y-32508000D01*
X77085000Y-33278000D01*
X77804160Y-33278000D01*
X77804160Y-33277999D01*
X77763347Y-33143458D01*
X77670497Y-32969747D01*
X77667111Y-32964680D01*
X77668665Y-32963641D01*
X77644759Y-32907361D01*
X77656547Y-32838493D01*
X77667441Y-32821540D01*
X77667111Y-32821320D01*
X77670497Y-32816252D01*
X77763347Y-32642541D01*
X77804160Y-32508000D01*
X77085000Y-32508000D01*
X77049483Y-32508000D01*
X77120801Y-32423007D01*
X77160000Y-32315306D01*
X77160000Y-32200694D01*
X77120801Y-32092993D01*
X77049483Y-32008000D01*
X77804160Y-32008000D01*
X77804160Y-32007999D01*
X77763347Y-31873458D01*
X77670496Y-31699746D01*
X77667110Y-31694678D01*
X77668784Y-31693559D01*
X77645081Y-31637746D01*
X77656874Y-31568879D01*
X77667839Y-31551818D01*
X77667523Y-31551607D01*
X77670904Y-31546544D01*
X77670910Y-31546538D01*
X77763814Y-31372727D01*
X77821024Y-31184132D01*
X77840341Y-30988000D01*
X77821024Y-30791868D01*
X77763814Y-30603273D01*
X77762677Y-30601146D01*
X77762418Y-30599904D01*
X77761483Y-30597645D01*
X77761911Y-30597467D01*
X77748435Y-30532746D01*
X77772771Y-30468379D01*
X77772947Y-30468144D01*
X77778796Y-30460331D01*
X77829091Y-30325483D01*
X77835500Y-30265873D01*
X77835499Y-29170128D01*
X77829091Y-29110517D01*
X77820323Y-29087010D01*
X77778797Y-28975671D01*
X77778793Y-28975664D01*
X77692547Y-28860455D01*
X77692544Y-28860452D01*
X77577335Y-28774206D01*
X77577328Y-28774202D01*
X77442482Y-28723908D01*
X77442483Y-28723908D01*
X77382883Y-28717501D01*
X77382881Y-28717500D01*
X77382873Y-28717500D01*
X77382864Y-28717500D01*
X76287129Y-28717500D01*
X76287123Y-28717501D01*
X76227516Y-28723908D01*
X76092671Y-28774202D01*
X76092666Y-28774205D01*
X76084614Y-28780233D01*
X76019149Y-28804648D01*
X75955530Y-28791104D01*
X75955359Y-28791518D01*
X75953123Y-28790592D01*
X75951850Y-28790321D01*
X75949729Y-28789187D01*
X75949728Y-28789186D01*
X75949727Y-28789186D01*
X75761132Y-28731976D01*
X75761129Y-28731975D01*
X75565000Y-28712659D01*
X75368870Y-28731975D01*
X75180266Y-28789188D01*
X75006467Y-28882086D01*
X75006460Y-28882090D01*
X74854116Y-29007116D01*
X74729090Y-29159460D01*
X74729086Y-29159467D01*
X74636188Y-29333266D01*
X74578975Y-29521870D01*
X74559659Y-29718000D01*
X74578975Y-29914129D01*
X74578976Y-29914132D01*
X74622385Y-30057233D01*
X74636188Y-30102733D01*
X74729086Y-30276532D01*
X74732473Y-30281601D01*
X74730836Y-30282694D01*
X74754596Y-30338663D01*
X74742795Y-30407529D01*
X74732109Y-30424156D01*
X74732473Y-30424399D01*
X74729086Y-30429467D01*
X74636188Y-30603266D01*
X74578975Y-30791870D01*
X74559659Y-30988000D01*
X74578975Y-31184129D01*
X74636188Y-31372733D01*
X74729086Y-31546532D01*
X74732473Y-31551601D01*
X74730836Y-31552694D01*
X74754596Y-31608663D01*
X74742795Y-31677529D01*
X74732109Y-31694156D01*
X74732473Y-31694399D01*
X74729086Y-31699467D01*
X74636188Y-31873266D01*
X74578975Y-32061870D01*
X74559659Y-32258000D01*
X74578975Y-32454129D01*
X74578976Y-32454132D01*
X74627868Y-32615308D01*
X74636188Y-32642733D01*
X74729086Y-32816532D01*
X74732473Y-32821601D01*
X74730836Y-32822694D01*
X74754596Y-32878663D01*
X74742795Y-32947529D01*
X74732109Y-32964156D01*
X74732473Y-32964399D01*
X74729085Y-32969467D01*
X74655834Y-33106512D01*
X74606872Y-33156357D01*
X74538734Y-33171817D01*
X74520702Y-33169351D01*
X74518825Y-33168952D01*
X74511993Y-33167500D01*
X74322701Y-33167500D01*
X74313993Y-33169351D01*
X74137544Y-33206855D01*
X74137539Y-33206857D01*
X73964617Y-33283848D01*
X73964612Y-33283851D01*
X73811476Y-33395111D01*
X73684813Y-33535785D01*
X73590168Y-33699715D01*
X73590165Y-33699722D01*
X73531674Y-33879740D01*
X73531673Y-33879744D01*
X73511887Y-34068000D01*
X61761362Y-34068000D01*
X61787179Y-34023284D01*
X61845674Y-33843256D01*
X61865460Y-33655000D01*
X61845674Y-33466744D01*
X61787179Y-33286716D01*
X61692533Y-33122784D01*
X61565871Y-32982112D01*
X61541878Y-32964680D01*
X61412734Y-32870851D01*
X61412729Y-32870848D01*
X61239807Y-32793857D01*
X61239802Y-32793855D01*
X61094001Y-32762865D01*
X61054646Y-32754500D01*
X60865354Y-32754500D01*
X60832897Y-32761398D01*
X60680197Y-32793855D01*
X60680192Y-32793857D01*
X60507270Y-32870848D01*
X60507265Y-32870851D01*
X60354129Y-32982111D01*
X60227466Y-33122785D01*
X60132821Y-33286715D01*
X60132818Y-33286722D01*
X60076434Y-33460256D01*
X60074326Y-33466744D01*
X60054540Y-33655000D01*
X44926144Y-33655000D01*
X44780366Y-33509222D01*
X44746881Y-33447899D01*
X44744047Y-33421541D01*
X44744047Y-31375654D01*
X44763732Y-31308615D01*
X44816536Y-31262860D01*
X44868047Y-31251654D01*
X44938191Y-31251654D01*
X44938193Y-31251654D01*
X45123350Y-31212298D01*
X45296277Y-31135305D01*
X45449418Y-31024042D01*
X45576080Y-30883370D01*
X45670726Y-30719438D01*
X45728423Y-30541863D01*
X45767859Y-30484191D01*
X45832217Y-30456992D01*
X45893312Y-30466371D01*
X45893389Y-30466135D01*
X45894835Y-30466604D01*
X45896790Y-30466905D01*
X45899573Y-30468144D01*
X46084730Y-30507500D01*
X46084731Y-30507500D01*
X46280521Y-30507500D01*
X46280521Y-30509294D01*
X46340645Y-30520285D01*
X46391672Y-30568014D01*
X46402816Y-30592722D01*
X46453819Y-30749693D01*
X46453821Y-30749697D01*
X46548467Y-30913629D01*
X46647884Y-31024042D01*
X46675129Y-31054301D01*
X46828265Y-31165561D01*
X46828270Y-31165564D01*
X47001192Y-31242555D01*
X47001197Y-31242557D01*
X47186354Y-31281913D01*
X47186355Y-31281913D01*
X47375644Y-31281913D01*
X47375646Y-31281913D01*
X47560803Y-31242557D01*
X47733730Y-31165564D01*
X47886871Y-31054301D01*
X48013533Y-30913629D01*
X48108179Y-30749697D01*
X48166674Y-30569669D01*
X48186460Y-30381413D01*
X48166674Y-30193157D01*
X48108179Y-30013129D01*
X48013533Y-29849197D01*
X47886871Y-29708525D01*
X47861569Y-29690142D01*
X47756256Y-29613627D01*
X49429540Y-29613627D01*
X49449326Y-29801883D01*
X49449327Y-29801886D01*
X49507818Y-29981904D01*
X49507821Y-29981911D01*
X49602467Y-30145843D01*
X49688051Y-30240893D01*
X49729129Y-30286515D01*
X49882265Y-30397775D01*
X49882270Y-30397778D01*
X50055192Y-30474769D01*
X50055197Y-30474771D01*
X50240354Y-30514127D01*
X50240355Y-30514127D01*
X50268486Y-30514127D01*
X50335525Y-30533812D01*
X50381280Y-30586616D01*
X50391224Y-30655774D01*
X50375873Y-30700126D01*
X50322374Y-30792788D01*
X50322369Y-30792800D01*
X50268285Y-30959256D01*
X50263877Y-30972822D01*
X50244091Y-31161078D01*
X50263877Y-31349334D01*
X50263878Y-31349337D01*
X50322369Y-31529355D01*
X50322372Y-31529362D01*
X50417018Y-31693294D01*
X50529824Y-31818577D01*
X50543680Y-31833966D01*
X50696816Y-31945226D01*
X50696821Y-31945229D01*
X50869743Y-32022220D01*
X50869748Y-32022222D01*
X51054905Y-32061578D01*
X51054906Y-32061578D01*
X51244195Y-32061578D01*
X51244197Y-32061578D01*
X51429354Y-32022222D01*
X51602281Y-31945229D01*
X51755422Y-31833966D01*
X51882084Y-31693294D01*
X51976730Y-31529362D01*
X52035225Y-31349334D01*
X52055011Y-31161078D01*
X52035225Y-30972822D01*
X51976730Y-30792794D01*
X51882084Y-30628862D01*
X51755422Y-30488190D01*
X51749157Y-30483638D01*
X51602285Y-30376929D01*
X51602280Y-30376926D01*
X51429358Y-30299935D01*
X51429353Y-30299933D01*
X51269066Y-30265864D01*
X51244197Y-30260578D01*
X51216065Y-30260578D01*
X51149026Y-30240893D01*
X51103271Y-30188089D01*
X51093327Y-30118931D01*
X51108678Y-30074579D01*
X51162176Y-29981916D01*
X51162175Y-29981916D01*
X51162179Y-29981911D01*
X51220674Y-29801883D01*
X51240460Y-29613627D01*
X51220674Y-29425371D01*
X51217715Y-29416264D01*
X53270968Y-29416264D01*
X53290754Y-29604520D01*
X53290755Y-29604523D01*
X53349246Y-29784541D01*
X53349249Y-29784548D01*
X53443895Y-29948480D01*
X53502111Y-30013135D01*
X53570557Y-30089152D01*
X53723693Y-30200412D01*
X53723698Y-30200415D01*
X53896620Y-30277406D01*
X53896625Y-30277408D01*
X54081782Y-30316764D01*
X54081783Y-30316764D01*
X54271072Y-30316764D01*
X54271074Y-30316764D01*
X54456231Y-30277408D01*
X54629158Y-30200415D01*
X54782299Y-30089152D01*
X54908961Y-29948480D01*
X55003607Y-29784548D01*
X55062102Y-29604520D01*
X55081888Y-29416264D01*
X55066839Y-29273082D01*
X71832622Y-29273082D01*
X71852408Y-29461338D01*
X71852409Y-29461341D01*
X71910900Y-29641359D01*
X71910903Y-29641366D01*
X72005549Y-29805298D01*
X72099693Y-29909855D01*
X72132211Y-29945970D01*
X72285347Y-30057230D01*
X72285352Y-30057233D01*
X72458274Y-30134224D01*
X72458279Y-30134226D01*
X72643436Y-30173582D01*
X72643437Y-30173582D01*
X72832726Y-30173582D01*
X72832728Y-30173582D01*
X73017885Y-30134226D01*
X73190812Y-30057233D01*
X73343953Y-29945970D01*
X73470615Y-29805298D01*
X73565261Y-29641366D01*
X73623756Y-29461338D01*
X73643542Y-29273082D01*
X73623756Y-29084826D01*
X73565261Y-28904798D01*
X73470615Y-28740866D01*
X73343953Y-28600194D01*
X73343952Y-28600193D01*
X73190816Y-28488933D01*
X73190811Y-28488930D01*
X73017889Y-28411939D01*
X73017884Y-28411937D01*
X72872083Y-28380947D01*
X72832728Y-28372582D01*
X72643436Y-28372582D01*
X72610979Y-28379480D01*
X72458279Y-28411937D01*
X72458274Y-28411939D01*
X72285352Y-28488930D01*
X72285347Y-28488933D01*
X72132211Y-28600193D01*
X72005548Y-28740867D01*
X71910903Y-28904797D01*
X71910900Y-28904804D01*
X71853517Y-29081412D01*
X71852408Y-29084826D01*
X71832622Y-29273082D01*
X55066839Y-29273082D01*
X55062102Y-29228008D01*
X55003607Y-29047980D01*
X54908961Y-28884048D01*
X54782299Y-28743376D01*
X54778846Y-28740867D01*
X54629162Y-28632115D01*
X54629157Y-28632112D01*
X54456235Y-28555121D01*
X54456230Y-28555119D01*
X54285263Y-28518780D01*
X54271074Y-28515764D01*
X54081782Y-28515764D01*
X54067593Y-28518780D01*
X53896625Y-28555119D01*
X53896620Y-28555121D01*
X53723698Y-28632112D01*
X53723693Y-28632115D01*
X53570557Y-28743375D01*
X53443894Y-28884049D01*
X53349249Y-29047979D01*
X53349246Y-29047986D01*
X53290755Y-29228004D01*
X53290754Y-29228008D01*
X53270968Y-29416264D01*
X51217715Y-29416264D01*
X51162179Y-29245343D01*
X51067533Y-29081411D01*
X50940871Y-28940739D01*
X50924597Y-28928915D01*
X50787734Y-28829478D01*
X50787729Y-28829475D01*
X50614807Y-28752484D01*
X50614802Y-28752482D01*
X50450224Y-28717501D01*
X50429646Y-28713127D01*
X50240354Y-28713127D01*
X50219776Y-28717501D01*
X50055197Y-28752482D01*
X50055192Y-28752484D01*
X49882270Y-28829475D01*
X49882265Y-28829478D01*
X49729129Y-28940738D01*
X49602466Y-29081412D01*
X49507821Y-29245342D01*
X49507818Y-29245349D01*
X49453169Y-29413543D01*
X49449326Y-29425371D01*
X49429540Y-29613627D01*
X47756256Y-29613627D01*
X47733734Y-29597264D01*
X47733729Y-29597261D01*
X47560807Y-29520270D01*
X47560802Y-29520268D01*
X47415001Y-29489278D01*
X47375646Y-29480913D01*
X47186354Y-29480913D01*
X47179856Y-29480913D01*
X47179856Y-29479126D01*
X47119696Y-29468110D01*
X47068683Y-29420367D01*
X47057560Y-29395692D01*
X47017721Y-29273082D01*
X47006558Y-29238724D01*
X47006556Y-29238721D01*
X47006555Y-29238716D01*
X46938406Y-29120678D01*
X46918968Y-29087010D01*
X46902496Y-29019110D01*
X46925349Y-28953083D01*
X46953469Y-28924694D01*
X47083960Y-28829888D01*
X47210622Y-28689216D01*
X47305268Y-28525284D01*
X47363763Y-28345256D01*
X47383549Y-28157000D01*
X47363763Y-27968744D01*
X47305268Y-27788716D01*
X47210622Y-27624784D01*
X47083960Y-27484112D01*
X47083959Y-27484111D01*
X46930823Y-27372851D01*
X46930818Y-27372848D01*
X46757896Y-27295857D01*
X46757891Y-27295855D01*
X46612090Y-27264865D01*
X46572735Y-27256500D01*
X46383443Y-27256500D01*
X46333464Y-27267123D01*
X46198288Y-27295855D01*
X46137013Y-27323137D01*
X46067763Y-27332421D01*
X46004486Y-27302793D01*
X45968244Y-27245201D01*
X45968029Y-27245271D01*
X45967752Y-27244419D01*
X45967273Y-27243658D01*
X45966529Y-27240656D01*
X45916299Y-27086065D01*
X45912644Y-27074817D01*
X45910650Y-27004977D01*
X45946730Y-26945144D01*
X46009431Y-26914316D01*
X46030576Y-26912500D01*
X48054452Y-26912500D01*
X48121491Y-26932185D01*
X48167246Y-26984989D01*
X48177772Y-27049464D01*
X48176791Y-27058798D01*
X48196577Y-27247054D01*
X48196578Y-27247057D01*
X48255069Y-27427075D01*
X48255072Y-27427082D01*
X48349718Y-27591014D01*
X48476380Y-27731686D01*
X48629516Y-27842946D01*
X48629521Y-27842949D01*
X48802443Y-27919940D01*
X48802448Y-27919942D01*
X48987605Y-27959298D01*
X48987606Y-27959298D01*
X49176895Y-27959298D01*
X49176897Y-27959298D01*
X49362054Y-27919942D01*
X49534981Y-27842949D01*
X49688122Y-27731686D01*
X49814784Y-27591014D01*
X49909430Y-27427082D01*
X49967925Y-27247054D01*
X49987711Y-27058798D01*
X49986730Y-27049464D01*
X49999297Y-26980734D01*
X50047028Y-26929709D01*
X50110050Y-26912500D01*
X55816295Y-26912500D01*
X55834265Y-26913809D01*
X55858023Y-26917289D01*
X55907369Y-26912971D01*
X55918176Y-26912500D01*
X55923704Y-26912500D01*
X55923709Y-26912500D01*
X55954556Y-26908893D01*
X55958030Y-26908539D01*
X56032797Y-26901999D01*
X56032805Y-26901996D01*
X56039866Y-26900539D01*
X56039878Y-26900598D01*
X56047243Y-26898965D01*
X56047229Y-26898906D01*
X56054246Y-26897241D01*
X56054255Y-26897241D01*
X56078716Y-26888337D01*
X56148442Y-26883904D01*
X56208809Y-26917177D01*
X57209267Y-27917634D01*
X57221048Y-27931266D01*
X57235390Y-27950530D01*
X57273343Y-27982376D01*
X57281319Y-27989686D01*
X57285222Y-27993590D01*
X57285223Y-27993591D01*
X57309538Y-28012816D01*
X57312293Y-28015059D01*
X57369786Y-28063302D01*
X57369790Y-28063304D01*
X57375823Y-28067272D01*
X57375789Y-28067322D01*
X57382144Y-28071370D01*
X57382177Y-28071318D01*
X57388315Y-28075104D01*
X57388323Y-28075110D01*
X57408709Y-28084616D01*
X57456291Y-28106804D01*
X57459452Y-28108333D01*
X57526567Y-28142040D01*
X57526572Y-28142041D01*
X57533355Y-28144510D01*
X57533334Y-28144567D01*
X57540451Y-28147040D01*
X57540470Y-28146984D01*
X57547324Y-28149255D01*
X57547325Y-28149255D01*
X57547327Y-28149256D01*
X57620848Y-28164436D01*
X57624209Y-28165181D01*
X57697279Y-28182500D01*
X57697285Y-28182500D01*
X57704452Y-28183338D01*
X57704445Y-28183397D01*
X57711946Y-28184163D01*
X57711952Y-28184104D01*
X57719141Y-28184733D01*
X57719143Y-28184732D01*
X57719144Y-28184733D01*
X57794111Y-28182552D01*
X57797717Y-28182500D01*
X61404295Y-28182500D01*
X61422265Y-28183809D01*
X61446023Y-28187289D01*
X61495369Y-28182971D01*
X61506176Y-28182500D01*
X61511704Y-28182500D01*
X61511709Y-28182500D01*
X61542556Y-28178893D01*
X61546030Y-28178539D01*
X61620797Y-28171999D01*
X61620805Y-28171996D01*
X61627866Y-28170539D01*
X61627878Y-28170598D01*
X61635243Y-28168965D01*
X61635229Y-28168906D01*
X61642249Y-28167241D01*
X61642255Y-28167241D01*
X61712779Y-28141572D01*
X61716117Y-28140412D01*
X61787334Y-28116814D01*
X61787342Y-28116808D01*
X61793882Y-28113760D01*
X61793908Y-28113816D01*
X61800690Y-28110532D01*
X61800663Y-28110478D01*
X61807113Y-28107238D01*
X61807117Y-28107237D01*
X61869837Y-28065984D01*
X61872732Y-28064140D01*
X61936656Y-28024712D01*
X61936662Y-28024705D01*
X61942325Y-28020229D01*
X61942363Y-28020277D01*
X61948200Y-28015522D01*
X61948161Y-28015475D01*
X61953691Y-28010833D01*
X61953696Y-28010830D01*
X62005184Y-27956254D01*
X62007631Y-27953735D01*
X62343086Y-27618280D01*
X64500260Y-27618280D01*
X64520046Y-27806536D01*
X64520047Y-27806539D01*
X64578538Y-27986557D01*
X64578541Y-27986564D01*
X64673187Y-28150496D01*
X64772875Y-28261210D01*
X64799849Y-28291168D01*
X64952985Y-28402428D01*
X64952990Y-28402431D01*
X65125912Y-28479422D01*
X65125917Y-28479424D01*
X65311074Y-28518780D01*
X65311075Y-28518780D01*
X65500364Y-28518780D01*
X65500366Y-28518780D01*
X65685523Y-28479424D01*
X65788930Y-28433383D01*
X65858177Y-28424098D01*
X65921454Y-28453726D01*
X65957295Y-28508345D01*
X65974818Y-28562278D01*
X65974821Y-28562284D01*
X66069467Y-28726216D01*
X66176833Y-28845458D01*
X66196129Y-28866888D01*
X66349265Y-28978148D01*
X66349270Y-28978151D01*
X66522192Y-29055142D01*
X66522197Y-29055144D01*
X66707354Y-29094500D01*
X66707355Y-29094500D01*
X66896644Y-29094500D01*
X66896646Y-29094500D01*
X67081803Y-29055144D01*
X67254730Y-28978151D01*
X67407871Y-28866888D01*
X67534533Y-28726216D01*
X67629179Y-28562284D01*
X67687674Y-28382256D01*
X67707460Y-28194000D01*
X67687674Y-28005744D01*
X67629179Y-27825716D01*
X67534533Y-27661784D01*
X67407871Y-27521112D01*
X67356945Y-27484112D01*
X67254734Y-27409851D01*
X67254729Y-27409848D01*
X67081807Y-27332857D01*
X67081802Y-27332855D01*
X66936001Y-27301865D01*
X66896646Y-27293500D01*
X66707354Y-27293500D01*
X66674897Y-27300398D01*
X66522197Y-27332855D01*
X66522192Y-27332857D01*
X66418792Y-27378895D01*
X66349542Y-27388180D01*
X66286265Y-27358552D01*
X66250425Y-27303934D01*
X66232901Y-27250002D01*
X66232900Y-27250001D01*
X66232899Y-27249996D01*
X66138253Y-27086064D01*
X66011591Y-26945392D01*
X66011250Y-26945144D01*
X65858454Y-26834131D01*
X65858449Y-26834128D01*
X65685527Y-26757137D01*
X65685522Y-26757135D01*
X65539721Y-26726145D01*
X65500366Y-26717780D01*
X65311074Y-26717780D01*
X65278617Y-26724678D01*
X65125917Y-26757135D01*
X65125912Y-26757137D01*
X64952990Y-26834128D01*
X64952985Y-26834131D01*
X64799849Y-26945391D01*
X64673186Y-27086065D01*
X64578541Y-27249995D01*
X64578538Y-27250002D01*
X64521004Y-27427075D01*
X64520046Y-27430024D01*
X64500260Y-27618280D01*
X62343086Y-27618280D01*
X63461366Y-26500000D01*
X71094540Y-26500000D01*
X71114326Y-26688256D01*
X71114327Y-26688259D01*
X71172818Y-26868277D01*
X71172821Y-26868284D01*
X71267467Y-27032216D01*
X71315953Y-27086065D01*
X71394129Y-27172888D01*
X71547265Y-27284148D01*
X71547270Y-27284151D01*
X71720192Y-27361142D01*
X71720197Y-27361144D01*
X71905354Y-27400500D01*
X71905355Y-27400500D01*
X72094644Y-27400500D01*
X72094646Y-27400500D01*
X72279803Y-27361144D01*
X72452730Y-27284151D01*
X72605871Y-27172888D01*
X72732533Y-27032216D01*
X72827179Y-26868284D01*
X72885674Y-26688256D01*
X72905460Y-26500000D01*
X72885674Y-26311744D01*
X72827179Y-26131716D01*
X72751133Y-26000000D01*
X73850540Y-26000000D01*
X73870326Y-26188256D01*
X73870327Y-26188259D01*
X73928818Y-26368277D01*
X73928821Y-26368284D01*
X74023467Y-26532216D01*
X74140159Y-26661815D01*
X74150129Y-26672888D01*
X74303265Y-26784148D01*
X74303270Y-26784151D01*
X74476192Y-26861142D01*
X74476197Y-26861144D01*
X74661354Y-26900500D01*
X74661355Y-26900500D01*
X74850644Y-26900500D01*
X74850646Y-26900500D01*
X75035803Y-26861144D01*
X75208730Y-26784151D01*
X75361871Y-26672888D01*
X75488533Y-26532216D01*
X75583179Y-26368284D01*
X75641674Y-26188256D01*
X75661460Y-26000000D01*
X75641674Y-25811744D01*
X75583179Y-25631716D01*
X75488533Y-25467784D01*
X75361871Y-25327112D01*
X75322490Y-25298500D01*
X75208734Y-25215851D01*
X75208729Y-25215848D01*
X75035807Y-25138857D01*
X75035802Y-25138855D01*
X74890001Y-25107865D01*
X74850646Y-25099500D01*
X74661354Y-25099500D01*
X74628897Y-25106398D01*
X74476197Y-25138855D01*
X74476192Y-25138857D01*
X74303270Y-25215848D01*
X74303265Y-25215851D01*
X74150129Y-25327111D01*
X74023466Y-25467785D01*
X73928821Y-25631715D01*
X73928818Y-25631722D01*
X73870327Y-25811740D01*
X73870326Y-25811744D01*
X73850540Y-26000000D01*
X72751133Y-26000000D01*
X72732533Y-25967784D01*
X72605871Y-25827112D01*
X72584719Y-25811744D01*
X72452734Y-25715851D01*
X72452729Y-25715848D01*
X72279807Y-25638857D01*
X72279802Y-25638855D01*
X72134001Y-25607865D01*
X72094646Y-25599500D01*
X71905354Y-25599500D01*
X71872897Y-25606398D01*
X71720197Y-25638855D01*
X71720192Y-25638857D01*
X71547270Y-25715848D01*
X71547265Y-25715851D01*
X71394129Y-25827111D01*
X71267466Y-25967785D01*
X71172821Y-26131715D01*
X71172818Y-26131722D01*
X71114327Y-26311740D01*
X71114326Y-26311744D01*
X71094540Y-26500000D01*
X63461366Y-26500000D01*
X64874642Y-25086724D01*
X64888271Y-25074947D01*
X64907530Y-25060610D01*
X64939360Y-25022676D01*
X64946677Y-25014691D01*
X64950587Y-25010781D01*
X64950587Y-25010780D01*
X64950591Y-25010777D01*
X64969833Y-24986438D01*
X64972069Y-24983693D01*
X65020302Y-24926214D01*
X65020307Y-24926203D01*
X65024274Y-24920175D01*
X65024325Y-24920208D01*
X65028372Y-24913856D01*
X65028320Y-24913824D01*
X65032108Y-24907680D01*
X65032111Y-24907677D01*
X65063821Y-24839673D01*
X65065362Y-24836488D01*
X65099040Y-24769433D01*
X65099043Y-24769417D01*
X65101509Y-24762646D01*
X65101567Y-24762667D01*
X65104043Y-24755546D01*
X65103986Y-24755528D01*
X65106256Y-24748677D01*
X65108226Y-24739137D01*
X65121447Y-24675102D01*
X65122179Y-24671798D01*
X65139500Y-24598721D01*
X65139500Y-24598712D01*
X65140338Y-24591548D01*
X65140398Y-24591555D01*
X65141164Y-24584055D01*
X65141105Y-24584050D01*
X65141734Y-24576860D01*
X65139552Y-24501869D01*
X65139500Y-24498262D01*
X65139500Y-23267321D01*
X65156113Y-23205321D01*
X65156238Y-23205105D01*
X65216179Y-23101284D01*
X65274674Y-22921256D01*
X65294460Y-22733000D01*
X65274674Y-22544744D01*
X65216179Y-22364716D01*
X65210955Y-22355667D01*
X71902540Y-22355667D01*
X71922326Y-22543923D01*
X71922327Y-22543926D01*
X71980818Y-22723944D01*
X71980821Y-22723951D01*
X72075467Y-22887883D01*
X72143103Y-22963000D01*
X72202129Y-23028555D01*
X72355265Y-23139815D01*
X72355270Y-23139818D01*
X72528192Y-23216809D01*
X72528197Y-23216811D01*
X72713354Y-23256167D01*
X72713355Y-23256167D01*
X72902644Y-23256167D01*
X72902646Y-23256167D01*
X73087803Y-23216811D01*
X73260730Y-23139818D01*
X73413871Y-23028555D01*
X73540533Y-22887883D01*
X73635179Y-22723951D01*
X73693674Y-22543923D01*
X73713460Y-22355667D01*
X73693674Y-22167411D01*
X73635179Y-21987383D01*
X73540533Y-21823451D01*
X73413871Y-21682779D01*
X73412466Y-21681758D01*
X73260734Y-21571518D01*
X73260729Y-21571515D01*
X73087807Y-21494524D01*
X73087802Y-21494522D01*
X72942001Y-21463532D01*
X72902646Y-21455167D01*
X72713354Y-21455167D01*
X72680897Y-21462065D01*
X72528197Y-21494522D01*
X72528192Y-21494524D01*
X72355270Y-21571515D01*
X72355265Y-21571518D01*
X72202129Y-21682778D01*
X72075466Y-21823452D01*
X71980821Y-21987382D01*
X71980818Y-21987389D01*
X71922327Y-22167407D01*
X71922326Y-22167411D01*
X71902540Y-22355667D01*
X65210955Y-22355667D01*
X65121533Y-22200784D01*
X64994871Y-22060112D01*
X64983797Y-22052066D01*
X64841734Y-21948851D01*
X64841729Y-21948848D01*
X64668807Y-21871857D01*
X64668802Y-21871855D01*
X64523001Y-21840865D01*
X64483646Y-21832500D01*
X64294354Y-21832500D01*
X64261897Y-21839398D01*
X64109197Y-21871855D01*
X64109192Y-21871857D01*
X63936270Y-21948848D01*
X63936265Y-21948851D01*
X63783129Y-22060111D01*
X63656466Y-22200785D01*
X63561821Y-22364715D01*
X63561818Y-22364722D01*
X63503327Y-22544740D01*
X63503326Y-22544744D01*
X63483540Y-22733000D01*
X63503326Y-22921256D01*
X63503327Y-22921259D01*
X63561818Y-23101277D01*
X63561821Y-23101284D01*
X63621761Y-23205104D01*
X63621887Y-23205321D01*
X63638500Y-23267321D01*
X63638500Y-24148770D01*
X63618815Y-24215809D01*
X63602181Y-24236451D01*
X61193451Y-26645181D01*
X61132128Y-26678666D01*
X61105770Y-26681500D01*
X58147229Y-26681500D01*
X58080190Y-26661815D01*
X58059548Y-26645181D01*
X57194114Y-25779747D01*
X57160629Y-25718424D01*
X57158474Y-25705026D01*
X57150769Y-25631715D01*
X57146674Y-25592744D01*
X57088179Y-25412716D01*
X56993533Y-25248784D01*
X56866871Y-25108112D01*
X56855018Y-25099500D01*
X56713734Y-24996851D01*
X56713729Y-24996848D01*
X56540807Y-24919857D01*
X56540802Y-24919855D01*
X56395001Y-24888865D01*
X56355646Y-24880500D01*
X56166354Y-24880500D01*
X56133897Y-24887398D01*
X55981197Y-24919855D01*
X55981192Y-24919857D01*
X55808270Y-24996848D01*
X55808265Y-24996851D01*
X55655129Y-25108111D01*
X55528465Y-25248785D01*
X55528463Y-25248788D01*
X55470319Y-25349499D01*
X55419753Y-25397715D01*
X55362932Y-25411500D01*
X49459097Y-25411500D01*
X49392058Y-25391815D01*
X49346303Y-25339011D01*
X49335776Y-25274539D01*
X49336174Y-25270756D01*
X49355960Y-25082500D01*
X49336174Y-24894244D01*
X49277679Y-24714216D01*
X49183033Y-24550284D01*
X49056371Y-24409612D01*
X49056370Y-24409611D01*
X48903234Y-24298351D01*
X48903229Y-24298348D01*
X48730307Y-24221357D01*
X48730302Y-24221355D01*
X48584501Y-24190365D01*
X48545146Y-24182000D01*
X48355854Y-24182000D01*
X48323397Y-24188898D01*
X48170697Y-24221355D01*
X48170692Y-24221357D01*
X47997770Y-24298348D01*
X47997765Y-24298351D01*
X47844629Y-24409611D01*
X47717966Y-24550285D01*
X47623321Y-24714215D01*
X47623318Y-24714222D01*
X47564827Y-24894240D01*
X47564826Y-24894244D01*
X47545040Y-25082500D01*
X47559055Y-25215851D01*
X47565224Y-25274539D01*
X47552654Y-25343269D01*
X47504922Y-25394292D01*
X47441903Y-25411500D01*
X44218412Y-25411500D01*
X44167976Y-25400779D01*
X44026654Y-25337857D01*
X44026649Y-25337855D01*
X43880848Y-25306865D01*
X43841493Y-25298500D01*
X43652201Y-25298500D01*
X43619744Y-25305398D01*
X43467044Y-25337855D01*
X43467039Y-25337857D01*
X43294117Y-25414848D01*
X43294112Y-25414851D01*
X43140976Y-25526111D01*
X43014313Y-25666785D01*
X42919668Y-25830715D01*
X42919665Y-25830722D01*
X42875131Y-25967785D01*
X42861173Y-26010744D01*
X42841387Y-26199000D01*
X42861173Y-26387256D01*
X42861173Y-26387258D01*
X42861174Y-26387260D01*
X42865277Y-26399887D01*
X42871347Y-26438207D01*
X42871347Y-27432084D01*
X42870938Y-27442148D01*
X42866507Y-27496551D01*
X42877535Y-27577496D01*
X42877943Y-27580826D01*
X42886774Y-27662022D01*
X42886776Y-27662033D01*
X42886837Y-27662212D01*
X42892187Y-27685037D01*
X42892213Y-27685231D01*
X42892216Y-27685243D01*
X42920387Y-27761925D01*
X42921502Y-27765091D01*
X42947578Y-27842482D01*
X42947581Y-27842488D01*
X42947679Y-27842651D01*
X42957816Y-27863805D01*
X42957883Y-27863989D01*
X42957887Y-27863996D01*
X43001893Y-27932845D01*
X43003656Y-27935687D01*
X43038496Y-27993591D01*
X43045759Y-28005661D01*
X43045889Y-28005798D01*
X43060339Y-28024281D01*
X43060447Y-28024450D01*
X43118242Y-28082245D01*
X43120549Y-28084616D01*
X43176713Y-28143909D01*
X43176715Y-28143910D01*
X43176718Y-28143913D01*
X43176875Y-28144020D01*
X43194968Y-28158971D01*
X43527869Y-28491872D01*
X43561354Y-28553195D01*
X43564188Y-28579553D01*
X43564188Y-28710816D01*
X43544503Y-28777855D01*
X43491699Y-28823610D01*
X43422541Y-28833554D01*
X43383308Y-28819978D01*
X43383168Y-28820295D01*
X43379485Y-28818655D01*
X43378204Y-28818212D01*
X43377240Y-28817655D01*
X43204309Y-28740660D01*
X43204304Y-28740658D01*
X43058503Y-28709668D01*
X43019148Y-28701303D01*
X42829856Y-28701303D01*
X42797399Y-28708201D01*
X42644699Y-28740658D01*
X42644694Y-28740660D01*
X42471772Y-28817651D01*
X42471767Y-28817654D01*
X42318631Y-28928914D01*
X42191968Y-29069588D01*
X42097323Y-29233518D01*
X42097320Y-29233525D01*
X42038829Y-29413543D01*
X42038828Y-29413547D01*
X42019042Y-29601803D01*
X40148845Y-29601803D01*
X40140073Y-29518345D01*
X40081578Y-29338317D01*
X39986932Y-29174385D01*
X39860270Y-29033713D01*
X39840171Y-29019110D01*
X39707133Y-28922452D01*
X39707128Y-28922449D01*
X39534206Y-28845458D01*
X39534201Y-28845456D01*
X39371698Y-28810916D01*
X39349045Y-28806101D01*
X39159753Y-28806101D01*
X39137100Y-28810916D01*
X38974596Y-28845456D01*
X38974591Y-28845458D01*
X38801669Y-28922449D01*
X38801664Y-28922452D01*
X38648528Y-29033712D01*
X38521865Y-29174386D01*
X38427220Y-29338316D01*
X38427217Y-29338323D01*
X38368726Y-29518341D01*
X38368725Y-29518345D01*
X38348939Y-29706601D01*
X32206378Y-29706601D01*
X32283803Y-29690144D01*
X32456730Y-29613151D01*
X32609871Y-29501888D01*
X32736533Y-29361216D01*
X32831179Y-29197284D01*
X32889674Y-29017256D01*
X32909460Y-28829000D01*
X32889674Y-28640744D01*
X32831179Y-28460716D01*
X32736533Y-28296784D01*
X32609871Y-28156112D01*
X32609870Y-28156111D01*
X32456734Y-28044851D01*
X32456729Y-28044848D01*
X32283807Y-27967857D01*
X32283802Y-27967855D01*
X32125660Y-27934242D01*
X32098646Y-27928500D01*
X31909354Y-27928500D01*
X31882340Y-27934242D01*
X31724197Y-27967855D01*
X31724192Y-27967857D01*
X31551270Y-28044848D01*
X31551265Y-28044851D01*
X31398129Y-28156111D01*
X31271466Y-28296785D01*
X31176821Y-28460715D01*
X31176818Y-28460722D01*
X31118327Y-28640740D01*
X31118326Y-28640744D01*
X31098540Y-28829000D01*
X12385606Y-28829000D01*
X12387706Y-22225000D01*
X31987540Y-22225000D01*
X32007326Y-22413256D01*
X32007327Y-22413259D01*
X32065818Y-22593277D01*
X32065821Y-22593284D01*
X32160467Y-22757216D01*
X32225109Y-22829008D01*
X32287129Y-22897888D01*
X32440265Y-23009148D01*
X32440270Y-23009151D01*
X32613192Y-23086142D01*
X32613197Y-23086144D01*
X32798354Y-23125500D01*
X32798355Y-23125500D01*
X32987644Y-23125500D01*
X32987646Y-23125500D01*
X33172803Y-23086144D01*
X33345730Y-23009151D01*
X33498871Y-22897888D01*
X33593097Y-22793239D01*
X33652580Y-22756593D01*
X33722437Y-22757922D01*
X33777394Y-22793241D01*
X33892659Y-22921256D01*
X33894129Y-22922888D01*
X33942574Y-22958085D01*
X33985239Y-23013415D01*
X33991218Y-23083029D01*
X33958612Y-23144823D01*
X33897773Y-23179181D01*
X33895469Y-23179693D01*
X33775915Y-23205104D01*
X33775910Y-23205106D01*
X33602988Y-23282097D01*
X33602983Y-23282100D01*
X33449847Y-23393360D01*
X33323184Y-23534034D01*
X33228539Y-23697964D01*
X33228536Y-23697971D01*
X33183738Y-23835846D01*
X33170044Y-23877993D01*
X33150258Y-24066249D01*
X33170044Y-24254505D01*
X33170045Y-24254508D01*
X33228536Y-24434526D01*
X33228539Y-24434533D01*
X33323185Y-24598465D01*
X33449847Y-24739137D01*
X33602983Y-24850397D01*
X33602988Y-24850400D01*
X33775910Y-24927391D01*
X33775915Y-24927393D01*
X33961072Y-24966749D01*
X33961073Y-24966749D01*
X34150362Y-24966749D01*
X34150364Y-24966749D01*
X34335521Y-24927393D01*
X34508448Y-24850400D01*
X34661589Y-24739137D01*
X34788251Y-24598465D01*
X34882897Y-24434533D01*
X34941392Y-24254505D01*
X34961178Y-24066249D01*
X34944185Y-23904572D01*
X34956754Y-23835846D01*
X35004486Y-23784822D01*
X35072227Y-23767704D01*
X35117942Y-23778335D01*
X35220825Y-23824142D01*
X35220830Y-23824144D01*
X35405987Y-23863500D01*
X35405988Y-23863500D01*
X35595277Y-23863500D01*
X35595279Y-23863500D01*
X35780436Y-23824144D01*
X35953363Y-23747151D01*
X36106504Y-23635888D01*
X36233166Y-23495216D01*
X36327812Y-23331284D01*
X36386307Y-23151256D01*
X36406093Y-22963000D01*
X36400860Y-22913210D01*
X36757750Y-22913210D01*
X36777536Y-23101466D01*
X36777537Y-23101469D01*
X36836028Y-23281487D01*
X36836031Y-23281494D01*
X36930677Y-23445426D01*
X37057339Y-23586098D01*
X37210475Y-23697358D01*
X37210480Y-23697361D01*
X37383402Y-23774352D01*
X37383407Y-23774354D01*
X37568564Y-23813710D01*
X37568565Y-23813710D01*
X37757854Y-23813710D01*
X37757856Y-23813710D01*
X37943013Y-23774354D01*
X38115940Y-23697361D01*
X38269081Y-23586098D01*
X38395743Y-23445426D01*
X38490389Y-23281494D01*
X38544811Y-23114000D01*
X39760037Y-23114000D01*
X39779823Y-23302256D01*
X39779824Y-23302259D01*
X39838315Y-23482277D01*
X39838318Y-23482284D01*
X39932964Y-23646216D01*
X40042353Y-23767704D01*
X40059626Y-23786888D01*
X40212762Y-23898148D01*
X40212767Y-23898151D01*
X40385689Y-23975142D01*
X40385694Y-23975144D01*
X40570851Y-24014500D01*
X40570852Y-24014500D01*
X40760141Y-24014500D01*
X40760143Y-24014500D01*
X40945300Y-23975144D01*
X41118227Y-23898151D01*
X41244151Y-23806662D01*
X41309952Y-23783184D01*
X41367470Y-23793703D01*
X41375197Y-23797144D01*
X41560354Y-23836500D01*
X41560355Y-23836500D01*
X41749644Y-23836500D01*
X41749646Y-23836500D01*
X41934803Y-23797144D01*
X42107730Y-23720151D01*
X42149019Y-23690153D01*
X51359693Y-23690153D01*
X51379479Y-23878409D01*
X51379480Y-23878412D01*
X51437971Y-24058430D01*
X51437974Y-24058437D01*
X51532620Y-24222369D01*
X51601032Y-24298348D01*
X51659282Y-24363041D01*
X51812418Y-24474301D01*
X51812423Y-24474304D01*
X51985345Y-24551295D01*
X51985350Y-24551297D01*
X52170507Y-24590653D01*
X52170508Y-24590653D01*
X52359797Y-24590653D01*
X52359799Y-24590653D01*
X52544956Y-24551297D01*
X52717883Y-24474304D01*
X52871024Y-24363041D01*
X52997686Y-24222369D01*
X53092332Y-24058437D01*
X53150827Y-23878409D01*
X53170613Y-23690153D01*
X53150827Y-23501897D01*
X53092332Y-23321869D01*
X52997686Y-23157937D01*
X52871024Y-23017265D01*
X52859852Y-23009148D01*
X52717887Y-22906004D01*
X52717882Y-22906001D01*
X52544960Y-22829010D01*
X52544955Y-22829008D01*
X52399154Y-22798018D01*
X52359799Y-22789653D01*
X52170507Y-22789653D01*
X52153627Y-22793241D01*
X51985350Y-22829008D01*
X51985345Y-22829010D01*
X51812423Y-22906001D01*
X51812418Y-22906004D01*
X51659282Y-23017264D01*
X51532619Y-23157938D01*
X51437974Y-23321868D01*
X51437971Y-23321875D01*
X51379480Y-23501893D01*
X51379479Y-23501897D01*
X51359693Y-23690153D01*
X42149019Y-23690153D01*
X42260871Y-23608888D01*
X42387533Y-23468216D01*
X42482179Y-23304284D01*
X42540674Y-23124256D01*
X42560460Y-22936000D01*
X42540674Y-22747744D01*
X42482179Y-22567716D01*
X42387533Y-22403784D01*
X42260871Y-22263112D01*
X42260870Y-22263111D01*
X42107734Y-22151851D01*
X42107729Y-22151848D01*
X41934807Y-22074857D01*
X41934802Y-22074855D01*
X41784061Y-22042815D01*
X41749646Y-22035500D01*
X41560354Y-22035500D01*
X41527897Y-22042398D01*
X41375197Y-22074855D01*
X41375192Y-22074857D01*
X41202271Y-22151848D01*
X41076348Y-22243336D01*
X41010541Y-22266815D01*
X40953025Y-22256295D01*
X40945303Y-22252857D01*
X40945299Y-22252855D01*
X40799498Y-22221865D01*
X40760143Y-22213500D01*
X40570851Y-22213500D01*
X40538394Y-22220398D01*
X40385694Y-22252855D01*
X40385689Y-22252857D01*
X40212767Y-22329848D01*
X40212762Y-22329851D01*
X40059626Y-22441111D01*
X39932963Y-22581785D01*
X39838318Y-22745715D01*
X39838315Y-22745722D01*
X39780751Y-22922888D01*
X39779823Y-22925744D01*
X39760037Y-23114000D01*
X38544811Y-23114000D01*
X38548884Y-23101466D01*
X38568670Y-22913210D01*
X38548884Y-22724954D01*
X38490389Y-22544926D01*
X38395743Y-22380994D01*
X38269081Y-22240322D01*
X38214663Y-22200785D01*
X38115944Y-22129061D01*
X38115939Y-22129058D01*
X37943017Y-22052067D01*
X37943012Y-22052065D01*
X37797211Y-22021075D01*
X37757856Y-22012710D01*
X37568564Y-22012710D01*
X37536107Y-22019608D01*
X37383407Y-22052065D01*
X37383402Y-22052067D01*
X37210480Y-22129058D01*
X37210475Y-22129061D01*
X37057339Y-22240321D01*
X36930676Y-22380995D01*
X36836031Y-22544925D01*
X36836028Y-22544932D01*
X36777864Y-22723944D01*
X36777536Y-22724954D01*
X36757750Y-22913210D01*
X36400860Y-22913210D01*
X36386307Y-22774744D01*
X36327812Y-22594716D01*
X36233166Y-22430784D01*
X36106504Y-22290112D01*
X36106503Y-22290111D01*
X35953367Y-22178851D01*
X35953362Y-22178848D01*
X35780440Y-22101857D01*
X35780435Y-22101855D01*
X35631232Y-22070142D01*
X35595279Y-22062500D01*
X35476011Y-22062500D01*
X35408972Y-22042815D01*
X35363217Y-21990011D01*
X35358080Y-21976818D01*
X35327181Y-21881722D01*
X35327180Y-21881721D01*
X35327179Y-21881716D01*
X35232533Y-21717784D01*
X35105871Y-21577112D01*
X35105870Y-21577111D01*
X34952734Y-21465851D01*
X34952729Y-21465848D01*
X34779807Y-21388857D01*
X34779802Y-21388855D01*
X34634001Y-21357865D01*
X34594646Y-21349500D01*
X34405354Y-21349500D01*
X34372897Y-21356398D01*
X34220197Y-21388855D01*
X34220192Y-21388857D01*
X34047270Y-21465848D01*
X34047265Y-21465851D01*
X33894129Y-21577111D01*
X33799905Y-21681758D01*
X33740418Y-21718407D01*
X33670561Y-21717076D01*
X33615605Y-21681758D01*
X33582321Y-21644793D01*
X33498871Y-21552112D01*
X33498870Y-21552111D01*
X33345734Y-21440851D01*
X33345729Y-21440848D01*
X33172807Y-21363857D01*
X33172802Y-21363855D01*
X33027001Y-21332865D01*
X32987646Y-21324500D01*
X32798354Y-21324500D01*
X32765897Y-21331398D01*
X32613197Y-21363855D01*
X32613192Y-21363857D01*
X32440270Y-21440848D01*
X32440265Y-21440851D01*
X32287129Y-21552111D01*
X32160466Y-21692785D01*
X32065821Y-21856715D01*
X32065818Y-21856722D01*
X32021491Y-21993148D01*
X32007326Y-22036744D01*
X31987540Y-22225000D01*
X12387706Y-22225000D01*
X12388595Y-19431000D01*
X15123659Y-19431000D01*
X15142975Y-19627129D01*
X15142976Y-19627132D01*
X15178084Y-19742868D01*
X15200187Y-19815729D01*
X15201321Y-19817850D01*
X15201580Y-19819094D01*
X15202518Y-19821359D01*
X15202088Y-19821536D01*
X15215564Y-19886253D01*
X15191233Y-19950614D01*
X15185205Y-19958666D01*
X15185202Y-19958671D01*
X15134908Y-20093517D01*
X15128501Y-20153116D01*
X15128500Y-20153135D01*
X15128500Y-21248870D01*
X15128501Y-21248876D01*
X15134908Y-21308483D01*
X15185202Y-21443328D01*
X15185206Y-21443335D01*
X15271452Y-21558544D01*
X15271455Y-21558547D01*
X15386664Y-21644793D01*
X15386671Y-21644797D01*
X15521517Y-21695091D01*
X15521516Y-21695091D01*
X15528444Y-21695835D01*
X15581127Y-21701500D01*
X16676872Y-21701499D01*
X16736483Y-21695091D01*
X16871331Y-21644796D01*
X16879379Y-21638770D01*
X16944842Y-21614351D01*
X17008474Y-21627895D01*
X17008645Y-21627483D01*
X17010875Y-21628406D01*
X17012146Y-21628677D01*
X17014273Y-21629814D01*
X17202868Y-21687024D01*
X17399000Y-21706341D01*
X17595132Y-21687024D01*
X17783727Y-21629814D01*
X17785853Y-21628678D01*
X17917060Y-21558546D01*
X17957538Y-21536910D01*
X18109883Y-21411883D01*
X18234910Y-21259538D01*
X18327814Y-21085727D01*
X18385024Y-20897132D01*
X18404341Y-20701000D01*
X18397939Y-20636000D01*
X41258540Y-20636000D01*
X41278326Y-20824256D01*
X41278327Y-20824259D01*
X41336818Y-21004277D01*
X41336821Y-21004284D01*
X41431467Y-21168216D01*
X41504094Y-21248876D01*
X41558129Y-21308888D01*
X41711265Y-21420148D01*
X41711270Y-21420151D01*
X41884192Y-21497142D01*
X41884197Y-21497144D01*
X42069354Y-21536500D01*
X42069355Y-21536500D01*
X42258644Y-21536500D01*
X42258646Y-21536500D01*
X42443803Y-21497144D01*
X42616730Y-21420151D01*
X42769871Y-21308888D01*
X42859811Y-21209000D01*
X56117540Y-21209000D01*
X56137326Y-21397256D01*
X56137327Y-21397259D01*
X56195818Y-21577277D01*
X56195821Y-21577284D01*
X56290467Y-21741216D01*
X56408095Y-21871855D01*
X56417129Y-21881888D01*
X56570265Y-21993148D01*
X56570270Y-21993151D01*
X56743192Y-22070142D01*
X56743197Y-22070144D01*
X56928354Y-22109500D01*
X56928355Y-22109500D01*
X57117644Y-22109500D01*
X57117646Y-22109500D01*
X57302803Y-22070144D01*
X57475730Y-21993151D01*
X57628871Y-21881888D01*
X57755533Y-21741216D01*
X57850179Y-21577284D01*
X57908674Y-21397256D01*
X57928460Y-21209000D01*
X57908674Y-21020744D01*
X57850179Y-20840716D01*
X57755533Y-20676784D01*
X57628871Y-20536112D01*
X57628870Y-20536111D01*
X57475734Y-20424851D01*
X57475729Y-20424848D01*
X57302807Y-20347857D01*
X57302802Y-20347855D01*
X57154197Y-20316269D01*
X57117646Y-20308500D01*
X56928354Y-20308500D01*
X56895897Y-20315398D01*
X56743197Y-20347855D01*
X56743192Y-20347857D01*
X56570270Y-20424848D01*
X56570265Y-20424851D01*
X56417129Y-20536111D01*
X56290466Y-20676785D01*
X56195821Y-20840715D01*
X56195818Y-20840722D01*
X56142676Y-21004277D01*
X56137326Y-21020744D01*
X56117540Y-21209000D01*
X42859811Y-21209000D01*
X42896533Y-21168216D01*
X42991179Y-21004284D01*
X43049674Y-20824256D01*
X43069460Y-20636000D01*
X43049674Y-20447744D01*
X42991179Y-20267716D01*
X42896533Y-20103784D01*
X42769871Y-19963112D01*
X42769870Y-19963111D01*
X42616734Y-19851851D01*
X42616729Y-19851848D01*
X42443807Y-19774857D01*
X42443802Y-19774855D01*
X42293310Y-19742868D01*
X42258646Y-19735500D01*
X42069354Y-19735500D01*
X42036897Y-19742398D01*
X41884197Y-19774855D01*
X41884192Y-19774857D01*
X41711270Y-19851848D01*
X41711265Y-19851851D01*
X41558129Y-19963111D01*
X41431466Y-20103785D01*
X41336821Y-20267715D01*
X41336818Y-20267722D01*
X41285765Y-20424848D01*
X41278326Y-20447744D01*
X41258540Y-20636000D01*
X18397939Y-20636000D01*
X18385024Y-20504868D01*
X18327814Y-20316273D01*
X18234910Y-20142462D01*
X18234907Y-20142458D01*
X18231523Y-20137393D01*
X18233164Y-20136296D01*
X18209405Y-20080361D01*
X18221194Y-20011493D01*
X18231888Y-19994851D01*
X18231523Y-19994607D01*
X18234904Y-19989544D01*
X18234910Y-19989538D01*
X18327814Y-19815727D01*
X18385024Y-19627132D01*
X18404341Y-19431000D01*
X18385024Y-19234868D01*
X18327814Y-19046273D01*
X18234910Y-18872462D01*
X18234907Y-18872458D01*
X18231523Y-18867393D01*
X18233164Y-18866296D01*
X18209405Y-18810361D01*
X18221194Y-18741493D01*
X18231888Y-18724851D01*
X18231523Y-18724607D01*
X18234904Y-18719544D01*
X18234910Y-18719538D01*
X18327814Y-18545727D01*
X18385024Y-18357132D01*
X18387204Y-18335000D01*
X39219128Y-18335000D01*
X39238914Y-18523256D01*
X39238915Y-18523259D01*
X39297406Y-18703277D01*
X39297409Y-18703284D01*
X39392055Y-18867216D01*
X39469274Y-18952976D01*
X39518717Y-19007888D01*
X39671853Y-19119148D01*
X39671858Y-19119151D01*
X39844780Y-19196142D01*
X39844785Y-19196144D01*
X40029942Y-19235500D01*
X40029943Y-19235500D01*
X40219232Y-19235500D01*
X40219234Y-19235500D01*
X40404391Y-19196144D01*
X40510935Y-19148706D01*
X40580183Y-19139421D01*
X40643460Y-19169049D01*
X40665529Y-19196039D01*
X40665645Y-19195956D01*
X40667114Y-19197979D01*
X40668760Y-19199991D01*
X40669467Y-19201216D01*
X40796129Y-19341888D01*
X40949265Y-19453148D01*
X40949270Y-19453151D01*
X41122192Y-19530142D01*
X41122197Y-19530144D01*
X41307354Y-19569500D01*
X41307355Y-19569500D01*
X41496644Y-19569500D01*
X41496646Y-19569500D01*
X41681803Y-19530144D01*
X41782766Y-19485192D01*
X57465540Y-19485192D01*
X57485326Y-19673448D01*
X57485327Y-19673451D01*
X57543818Y-19853469D01*
X57543821Y-19853476D01*
X57638467Y-20017408D01*
X57765129Y-20158080D01*
X57918265Y-20269340D01*
X57918270Y-20269343D01*
X58091192Y-20346334D01*
X58091197Y-20346336D01*
X58276354Y-20385692D01*
X58276355Y-20385692D01*
X58465644Y-20385692D01*
X58465646Y-20385692D01*
X58650803Y-20346336D01*
X58823730Y-20269343D01*
X58976871Y-20158080D01*
X59103533Y-20017408D01*
X59148802Y-19939000D01*
X73924659Y-19939000D01*
X73943975Y-20135129D01*
X74001188Y-20323733D01*
X74094086Y-20497532D01*
X74094090Y-20497539D01*
X74219116Y-20649883D01*
X74371460Y-20774909D01*
X74371467Y-20774913D01*
X74545266Y-20867811D01*
X74545269Y-20867811D01*
X74545273Y-20867814D01*
X74733868Y-20925024D01*
X74930000Y-20944341D01*
X75126132Y-20925024D01*
X75314727Y-20867814D01*
X75488538Y-20774910D01*
X75488544Y-20774904D01*
X75493607Y-20771523D01*
X75494624Y-20773045D01*
X75551021Y-20749084D01*
X75619890Y-20760866D01*
X75636424Y-20771489D01*
X75636678Y-20771110D01*
X75641738Y-20774491D01*
X75815465Y-20867349D01*
X75950000Y-20908159D01*
X75950000Y-20146672D01*
X75987871Y-20191805D01*
X76087129Y-20249112D01*
X76171564Y-20264000D01*
X76228436Y-20264000D01*
X76312871Y-20249112D01*
X76412129Y-20191805D01*
X76414483Y-20189000D01*
X76450000Y-20189000D01*
X76450000Y-20908159D01*
X76584534Y-20867349D01*
X76758260Y-20774491D01*
X76910528Y-20649528D01*
X77035492Y-20497260D01*
X77035496Y-20497253D01*
X77128347Y-20323541D01*
X77169160Y-20189000D01*
X76450000Y-20189000D01*
X76414483Y-20189000D01*
X76485801Y-20104007D01*
X76525000Y-19996306D01*
X76525000Y-19881694D01*
X76485801Y-19773993D01*
X76412129Y-19686195D01*
X76312871Y-19628888D01*
X76228436Y-19614000D01*
X76171564Y-19614000D01*
X76087129Y-19628888D01*
X75987871Y-19686195D01*
X75950000Y-19731327D01*
X75950000Y-18876672D01*
X75987871Y-18921805D01*
X76087129Y-18979112D01*
X76171564Y-18994000D01*
X76228436Y-18994000D01*
X76312871Y-18979112D01*
X76412129Y-18921805D01*
X76414483Y-18919000D01*
X76450000Y-18919000D01*
X76450000Y-19689000D01*
X77169160Y-19689000D01*
X77169160Y-19688999D01*
X77128347Y-19554458D01*
X77035497Y-19380747D01*
X77032111Y-19375680D01*
X77033665Y-19374641D01*
X77009759Y-19318361D01*
X77021547Y-19249493D01*
X77032441Y-19232540D01*
X77032111Y-19232320D01*
X77035497Y-19227252D01*
X77128347Y-19053541D01*
X77169160Y-18919000D01*
X76450000Y-18919000D01*
X76414483Y-18919000D01*
X76485801Y-18834007D01*
X76525000Y-18726306D01*
X76525000Y-18611694D01*
X76485801Y-18503993D01*
X76412129Y-18416195D01*
X76312871Y-18358888D01*
X76228436Y-18344000D01*
X76171564Y-18344000D01*
X76087129Y-18358888D01*
X75987871Y-18416195D01*
X75950000Y-18461327D01*
X75950000Y-17606672D01*
X75987871Y-17651805D01*
X76087129Y-17709112D01*
X76171564Y-17724000D01*
X76228436Y-17724000D01*
X76312871Y-17709112D01*
X76412129Y-17651805D01*
X76414483Y-17649000D01*
X76450000Y-17649000D01*
X76450000Y-18419000D01*
X77169160Y-18419000D01*
X77169160Y-18418999D01*
X77128347Y-18284458D01*
X77035497Y-18110747D01*
X77032111Y-18105680D01*
X77033665Y-18104641D01*
X77009759Y-18048361D01*
X77021547Y-17979493D01*
X77032441Y-17962540D01*
X77032111Y-17962320D01*
X77035497Y-17957252D01*
X77128347Y-17783541D01*
X77169160Y-17649000D01*
X76450000Y-17649000D01*
X76414483Y-17649000D01*
X76485801Y-17564007D01*
X76525000Y-17456306D01*
X76525000Y-17341694D01*
X76485801Y-17233993D01*
X76414483Y-17149000D01*
X77169160Y-17149000D01*
X77169160Y-17148999D01*
X77128347Y-17014458D01*
X77035496Y-16840746D01*
X77032110Y-16835678D01*
X77033784Y-16834559D01*
X77010081Y-16778746D01*
X77021874Y-16709879D01*
X77032839Y-16692818D01*
X77032523Y-16692607D01*
X77035904Y-16687544D01*
X77035910Y-16687538D01*
X77128814Y-16513727D01*
X77186024Y-16325132D01*
X77205341Y-16129000D01*
X77186024Y-15932868D01*
X77128814Y-15744273D01*
X77127677Y-15742146D01*
X77127418Y-15740904D01*
X77126483Y-15738645D01*
X77126911Y-15738467D01*
X77113435Y-15673746D01*
X77137771Y-15609379D01*
X77143796Y-15601331D01*
X77194091Y-15466483D01*
X77200500Y-15406873D01*
X77200499Y-14311128D01*
X77194091Y-14251517D01*
X77193801Y-14250740D01*
X77143797Y-14116671D01*
X77143793Y-14116664D01*
X77057547Y-14001455D01*
X77057544Y-14001452D01*
X76942335Y-13915206D01*
X76942328Y-13915202D01*
X76807482Y-13864908D01*
X76807483Y-13864908D01*
X76747883Y-13858501D01*
X76747881Y-13858500D01*
X76747873Y-13858500D01*
X76747864Y-13858500D01*
X75652129Y-13858500D01*
X75652123Y-13858501D01*
X75592516Y-13864908D01*
X75457671Y-13915202D01*
X75457666Y-13915205D01*
X75449614Y-13921233D01*
X75384149Y-13945648D01*
X75320530Y-13932104D01*
X75320359Y-13932518D01*
X75318123Y-13931592D01*
X75316850Y-13931321D01*
X75314729Y-13930187D01*
X75314728Y-13930186D01*
X75314727Y-13930186D01*
X75126132Y-13872976D01*
X75126129Y-13872975D01*
X74930000Y-13853659D01*
X74733870Y-13872975D01*
X74545266Y-13930188D01*
X74371467Y-14023086D01*
X74371460Y-14023090D01*
X74219116Y-14148116D01*
X74094090Y-14300460D01*
X74094086Y-14300467D01*
X74001188Y-14474266D01*
X73943975Y-14662870D01*
X73924659Y-14859000D01*
X73943975Y-15055129D01*
X74001188Y-15243733D01*
X74094086Y-15417532D01*
X74097473Y-15422601D01*
X74095955Y-15423615D01*
X74119918Y-15480042D01*
X74108124Y-15548909D01*
X74097515Y-15565420D01*
X74097893Y-15565673D01*
X74094505Y-15570742D01*
X74001652Y-15744458D01*
X73960839Y-15878999D01*
X73960840Y-15879000D01*
X74715517Y-15879000D01*
X74644199Y-15963993D01*
X74605000Y-16071694D01*
X74605000Y-16186306D01*
X74644199Y-16294007D01*
X74715517Y-16379000D01*
X73960840Y-16379000D01*
X74001652Y-16513541D01*
X74094503Y-16687253D01*
X74097890Y-16692322D01*
X74096215Y-16693440D01*
X74119918Y-16749259D01*
X74108123Y-16818125D01*
X74097158Y-16835188D01*
X74097473Y-16835399D01*
X74094086Y-16840467D01*
X74001188Y-17014266D01*
X73943975Y-17202870D01*
X73924659Y-17399000D01*
X73943975Y-17595129D01*
X74001188Y-17783733D01*
X74094086Y-17957532D01*
X74097473Y-17962601D01*
X74095836Y-17963694D01*
X74119596Y-18019663D01*
X74107795Y-18088529D01*
X74097109Y-18105156D01*
X74097473Y-18105399D01*
X74094086Y-18110467D01*
X74001188Y-18284266D01*
X73943975Y-18472870D01*
X73924659Y-18669000D01*
X73943975Y-18865129D01*
X74001188Y-19053733D01*
X74094086Y-19227532D01*
X74097473Y-19232601D01*
X74095836Y-19233694D01*
X74119596Y-19289663D01*
X74107795Y-19358529D01*
X74097109Y-19375156D01*
X74097473Y-19375399D01*
X74094086Y-19380467D01*
X74001188Y-19554266D01*
X73943975Y-19742870D01*
X73924659Y-19939000D01*
X59148802Y-19939000D01*
X59198179Y-19853476D01*
X59256674Y-19673448D01*
X59276460Y-19485192D01*
X59256674Y-19296936D01*
X59198179Y-19116908D01*
X59103533Y-18952976D01*
X58976871Y-18812304D01*
X58970259Y-18807500D01*
X58823734Y-18701043D01*
X58823729Y-18701040D01*
X58650807Y-18624049D01*
X58650802Y-18624047D01*
X58505001Y-18593057D01*
X58465646Y-18584692D01*
X58276354Y-18584692D01*
X58243897Y-18591590D01*
X58091197Y-18624047D01*
X58091192Y-18624049D01*
X57918270Y-18701040D01*
X57918265Y-18701043D01*
X57765129Y-18812303D01*
X57638466Y-18952977D01*
X57543821Y-19116907D01*
X57543818Y-19116914D01*
X57500741Y-19249493D01*
X57485326Y-19296936D01*
X57465540Y-19485192D01*
X41782766Y-19485192D01*
X41854730Y-19453151D01*
X42007871Y-19341888D01*
X42134533Y-19201216D01*
X42229179Y-19037284D01*
X42287674Y-18857256D01*
X42307460Y-18669000D01*
X42287674Y-18480744D01*
X42229179Y-18300716D01*
X42134533Y-18136784D01*
X42007871Y-17996112D01*
X41984997Y-17979493D01*
X41885219Y-17907000D01*
X59546540Y-17907000D01*
X59566326Y-18095256D01*
X59566327Y-18095259D01*
X59624818Y-18275277D01*
X59624821Y-18275284D01*
X59719467Y-18439216D01*
X59777793Y-18503993D01*
X59846129Y-18579888D01*
X59999265Y-18691148D01*
X59999270Y-18691151D01*
X60172192Y-18768142D01*
X60172197Y-18768144D01*
X60357354Y-18807500D01*
X60357355Y-18807500D01*
X60546644Y-18807500D01*
X60546646Y-18807500D01*
X60731803Y-18768144D01*
X60904730Y-18691151D01*
X61057871Y-18579888D01*
X61184533Y-18439216D01*
X61279179Y-18275284D01*
X61337674Y-18095256D01*
X61357460Y-17907000D01*
X61337674Y-17718744D01*
X61283112Y-17550823D01*
X61279181Y-17538722D01*
X61279180Y-17538721D01*
X61279179Y-17538716D01*
X61184533Y-17374784D01*
X61057871Y-17234112D01*
X61057870Y-17234111D01*
X60904734Y-17122851D01*
X60904729Y-17122848D01*
X60731807Y-17045857D01*
X60731802Y-17045855D01*
X60583182Y-17014266D01*
X60546646Y-17006500D01*
X60357354Y-17006500D01*
X60324897Y-17013398D01*
X60172197Y-17045855D01*
X60172192Y-17045857D01*
X59999270Y-17122848D01*
X59999265Y-17122851D01*
X59846129Y-17234111D01*
X59719466Y-17374785D01*
X59624821Y-17538715D01*
X59624818Y-17538722D01*
X59566327Y-17718740D01*
X59566326Y-17718744D01*
X59546540Y-17907000D01*
X41885219Y-17907000D01*
X41854734Y-17884851D01*
X41854729Y-17884848D01*
X41681807Y-17807857D01*
X41681802Y-17807855D01*
X41533182Y-17776266D01*
X41496646Y-17768500D01*
X41307354Y-17768500D01*
X41274897Y-17775398D01*
X41122197Y-17807855D01*
X41122196Y-17807855D01*
X41015652Y-17855292D01*
X40946402Y-17864576D01*
X40883125Y-17834947D01*
X40861059Y-17807959D01*
X40860943Y-17808044D01*
X40859466Y-17806012D01*
X40857828Y-17804008D01*
X40857122Y-17802785D01*
X40730458Y-17662111D01*
X40577322Y-17550851D01*
X40577317Y-17550848D01*
X40404395Y-17473857D01*
X40404390Y-17473855D01*
X40258589Y-17442865D01*
X40219234Y-17434500D01*
X40029942Y-17434500D01*
X39997485Y-17441398D01*
X39844785Y-17473855D01*
X39844780Y-17473857D01*
X39671858Y-17550848D01*
X39671853Y-17550851D01*
X39518717Y-17662111D01*
X39392054Y-17802785D01*
X39297409Y-17966715D01*
X39297406Y-17966722D01*
X39250701Y-18110467D01*
X39238914Y-18146744D01*
X39219128Y-18335000D01*
X18387204Y-18335000D01*
X18404341Y-18161000D01*
X18385024Y-17964868D01*
X18327814Y-17776273D01*
X18234910Y-17602462D01*
X18234907Y-17602458D01*
X18231523Y-17597393D01*
X18233164Y-17596296D01*
X18209405Y-17540361D01*
X18221194Y-17471493D01*
X18231888Y-17454851D01*
X18231523Y-17454607D01*
X18234904Y-17449544D01*
X18234910Y-17449538D01*
X18327814Y-17275727D01*
X18385024Y-17087132D01*
X18404341Y-16891000D01*
X18385024Y-16694868D01*
X18327814Y-16506273D01*
X18234910Y-16332462D01*
X18234907Y-16332458D01*
X18231523Y-16327393D01*
X18233164Y-16326296D01*
X18209405Y-16270361D01*
X18221194Y-16201493D01*
X18231888Y-16184851D01*
X18231523Y-16184607D01*
X18234904Y-16179544D01*
X18234910Y-16179538D01*
X18327814Y-16005727D01*
X18385024Y-15817132D01*
X18404341Y-15621000D01*
X18385024Y-15424868D01*
X18327814Y-15236273D01*
X18327811Y-15236269D01*
X18327811Y-15236266D01*
X18234913Y-15062467D01*
X18234909Y-15062460D01*
X18109883Y-14910116D01*
X17957539Y-14785090D01*
X17957532Y-14785086D01*
X17783733Y-14692188D01*
X17783727Y-14692186D01*
X17619780Y-14642453D01*
X17595129Y-14634975D01*
X17399000Y-14615659D01*
X17202870Y-14634975D01*
X17014266Y-14692188D01*
X16840467Y-14785086D01*
X16835399Y-14788473D01*
X16834386Y-14786958D01*
X16777936Y-14810920D01*
X16709071Y-14799115D01*
X16692574Y-14788511D01*
X16692322Y-14788890D01*
X16687253Y-14785503D01*
X16513541Y-14692652D01*
X16379000Y-14651839D01*
X16379000Y-15413327D01*
X16341129Y-15368195D01*
X16241871Y-15310888D01*
X16157436Y-15296000D01*
X16100564Y-15296000D01*
X16016129Y-15310888D01*
X15916871Y-15368195D01*
X15843199Y-15455993D01*
X15804000Y-15563694D01*
X15804000Y-15678306D01*
X15843199Y-15786007D01*
X15914517Y-15871000D01*
X15159840Y-15871000D01*
X15200652Y-16005541D01*
X15293503Y-16179253D01*
X15296890Y-16184322D01*
X15295215Y-16185440D01*
X15318918Y-16241259D01*
X15307123Y-16310125D01*
X15296158Y-16327188D01*
X15296473Y-16327399D01*
X15293086Y-16332467D01*
X15200188Y-16506266D01*
X15142975Y-16694870D01*
X15123659Y-16891000D01*
X15142975Y-17087129D01*
X15200188Y-17275733D01*
X15293086Y-17449532D01*
X15296473Y-17454601D01*
X15294836Y-17455694D01*
X15318596Y-17511663D01*
X15306795Y-17580529D01*
X15296109Y-17597156D01*
X15296473Y-17597399D01*
X15293086Y-17602467D01*
X15200188Y-17776266D01*
X15142975Y-17964870D01*
X15123659Y-18161000D01*
X15142975Y-18357129D01*
X15142976Y-18357132D01*
X15193370Y-18523259D01*
X15200188Y-18545733D01*
X15293086Y-18719532D01*
X15296473Y-18724601D01*
X15294836Y-18725694D01*
X15318596Y-18781663D01*
X15306795Y-18850529D01*
X15296109Y-18867156D01*
X15296473Y-18867399D01*
X15293086Y-18872467D01*
X15200188Y-19046266D01*
X15142975Y-19234870D01*
X15123659Y-19431000D01*
X12388595Y-19431000D01*
X12389887Y-15370999D01*
X15159839Y-15370999D01*
X15159840Y-15371000D01*
X15879000Y-15371000D01*
X15879000Y-14651839D01*
X15878999Y-14651839D01*
X15744458Y-14692652D01*
X15570746Y-14785503D01*
X15570739Y-14785507D01*
X15418471Y-14910471D01*
X15293507Y-15062739D01*
X15293503Y-15062746D01*
X15200652Y-15236458D01*
X15159839Y-15370999D01*
X12389887Y-15370999D01*
X12390800Y-12500150D01*
X12410506Y-12433118D01*
X12463324Y-12387380D01*
X12514735Y-12376191D01*
X20516412Y-12372242D01*
X20583460Y-12391893D01*
G37*
%TD.AperFunction*%
%TD*%
M02*
