%TF.GenerationSoftware,KiCad,Pcbnew,7.0.10*%
%TF.CreationDate,2024-04-14T19:03:43+02:00*%
%TF.ProjectId,DIC,4449432e-6b69-4636-9164-5f7063625858,rev?*%
%TF.SameCoordinates,Original*%
%TF.FileFunction,Copper,L1,Top*%
%TF.FilePolarity,Positive*%
%FSLAX46Y46*%
G04 Gerber Fmt 4.6, Leading zero omitted, Abs format (unit mm)*
G04 Created by KiCad (PCBNEW 7.0.10) date 2024-04-14 19:03:43*
%MOMM*%
%LPD*%
G01*
G04 APERTURE LIST*
G04 Aperture macros list*
%AMRoundRect*
0 Rectangle with rounded corners*
0 $1 Rounding radius*
0 $2 $3 $4 $5 $6 $7 $8 $9 X,Y pos of 4 corners*
0 Add a 4 corners polygon primitive as box body*
4,1,4,$2,$3,$4,$5,$6,$7,$8,$9,$2,$3,0*
0 Add four circle primitives for the rounded corners*
1,1,$1+$1,$2,$3*
1,1,$1+$1,$4,$5*
1,1,$1+$1,$6,$7*
1,1,$1+$1,$8,$9*
0 Add four rect primitives between the rounded corners*
20,1,$1+$1,$2,$3,$4,$5,0*
20,1,$1+$1,$4,$5,$6,$7,0*
20,1,$1+$1,$6,$7,$8,$9,0*
20,1,$1+$1,$8,$9,$2,$3,0*%
G04 Aperture macros list end*
%TA.AperFunction,ComponentPad*%
%ADD10C,1.524000*%
%TD*%
%TA.AperFunction,ComponentPad*%
%ADD11R,1.600000X1.600000*%
%TD*%
%TA.AperFunction,ComponentPad*%
%ADD12C,1.600000*%
%TD*%
%TA.AperFunction,ComponentPad*%
%ADD13R,1.700000X1.700000*%
%TD*%
%TA.AperFunction,ComponentPad*%
%ADD14O,1.700000X1.700000*%
%TD*%
%TA.AperFunction,ComponentPad*%
%ADD15R,1.000000X1.000000*%
%TD*%
%TA.AperFunction,ComponentPad*%
%ADD16O,1.000000X1.000000*%
%TD*%
%TA.AperFunction,ComponentPad*%
%ADD17R,1.500000X2.300000*%
%TD*%
%TA.AperFunction,ComponentPad*%
%ADD18O,1.500000X2.300000*%
%TD*%
%TA.AperFunction,ComponentPad*%
%ADD19RoundRect,0.250001X-0.499999X0.499999X-0.499999X-0.499999X0.499999X-0.499999X0.499999X0.499999X0*%
%TD*%
%TA.AperFunction,ComponentPad*%
%ADD20C,1.500000*%
%TD*%
%TA.AperFunction,ViaPad*%
%ADD21C,0.800000*%
%TD*%
%TA.AperFunction,Conductor*%
%ADD22C,0.750000*%
%TD*%
%TA.AperFunction,Conductor*%
%ADD23C,0.250000*%
%TD*%
G04 APERTURE END LIST*
D10*
%TO.P,U6,1,NC*%
%TO.N,unconnected-(U6-NC-Pad1)*%
X21717000Y-61159000D03*
%TO.P,U6,2,NC*%
%TO.N,unconnected-(U6-NC-Pad2)*%
X24257000Y-61159000D03*
%TO.P,U6,3,NC*%
%TO.N,unconnected-(U6-NC-Pad3)*%
X26797000Y-61159000D03*
%TO.P,U6,18,NC*%
%TO.N,unconnected-(U6-NC-Pad18)*%
X64897000Y-61159000D03*
%TO.P,U6,19,NC*%
%TO.N,unconnected-(U6-NC-Pad19)*%
X67437000Y-61159000D03*
%TO.P,U6,20,NC*%
%TO.N,unconnected-(U6-NC-Pad20)*%
X69977000Y-61159000D03*
%TO.P,U6,21,VCC*%
%TO.N,+BATT*%
X69977000Y-13199000D03*
%TO.P,U6,22,VCC*%
X67437000Y-13199000D03*
%TO.P,U6,23,GND*%
%TO.N,GND*%
X64897000Y-13199000D03*
%TO.P,U6,24,GND*%
X62357000Y-13199000D03*
%TO.P,U6,25,VDD*%
%TO.N,+3.3V*%
X59817000Y-13199000D03*
%TO.P,U6,26,BS0*%
%TO.N,GND*%
X57277000Y-13199000D03*
%TO.P,U6,27,BS1*%
X54737000Y-13199000D03*
%TO.P,U6,28,GND*%
X52197000Y-13199000D03*
%TO.P,U6,29,nCS*%
%TO.N,/Display_nCS*%
X49657000Y-13199000D03*
%TO.P,U6,30,nRes*%
%TO.N,/nRES*%
X47117000Y-13199000D03*
%TO.P,U6,31,D/nC*%
%TO.N,/D{slash}nC*%
X44577000Y-13199000D03*
%TO.P,U6,32,D0*%
%TO.N,/SPI1_CLK*%
X42037000Y-13199000D03*
%TO.P,U6,33,D1*%
%TO.N,/SPI1_MOSI*%
X39497000Y-13199000D03*
%TO.P,U6,34,D2*%
%TO.N,unconnected-(U6-D2-Pad34)*%
X36957000Y-13199000D03*
%TO.P,U6,35,GND*%
%TO.N,GND*%
X34417000Y-13199000D03*
%TO.P,U6,36,IREF*%
%TO.N,Net-(U6-IREF)*%
X31877000Y-13199000D03*
%TO.P,U6,37,VCOMH*%
%TO.N,Net-(C20-Pad2)*%
X29337000Y-13199000D03*
%TO.P,U6,38,VCOMH*%
X26797000Y-13199000D03*
%TO.P,U6,39,VCC*%
%TO.N,+BATT*%
X24257000Y-13199000D03*
%TO.P,U6,40,VCC*%
X21717000Y-13199000D03*
%TD*%
%TO.P,U4,1,I2C_Data*%
%TO.N,/I2C_Data*%
X44577000Y-10733000D03*
%TO.P,U4,2,I2C_CLK*%
%TO.N,/I2C_CLK*%
X47117000Y-10733000D03*
%TO.P,U4,3,5V*%
%TO.N,+5V*%
X17907000Y-62803000D03*
%TO.P,U4,4,GND*%
%TO.N,GND*%
X73787000Y-62803000D03*
%TD*%
D11*
%TO.P,C21,1*%
%TO.N,+3.3V*%
X28067000Y-57531000D03*
D12*
%TO.P,C21,2*%
%TO.N,GND*%
X28067000Y-54031000D03*
%TD*%
D13*
%TO.P,J19,1,Pin_1*%
%TO.N,GND*%
X14000000Y-47500000D03*
D14*
%TO.P,J19,2,Pin_2*%
%TO.N,RX_IND*%
X14000000Y-50040000D03*
%TO.P,J19,3,Pin_3*%
%TO.N,Radio_RESET*%
X14000000Y-52580000D03*
%TO.P,J19,4,Pin_4*%
%TO.N,Mode_1*%
X14000000Y-55120000D03*
%TO.P,J19,5,Pin_5*%
%TO.N,Wake-Up*%
X14000000Y-57660000D03*
%TO.P,J19,6,Pin_6*%
%TO.N,Radio_BOOT*%
X14000000Y-60200000D03*
%TD*%
D15*
%TO.P,JTAG1,1,Pin_1*%
%TO.N,+3.3V*%
X16002000Y-34544000D03*
D16*
%TO.P,JTAG1,2,Pin_2*%
%TO.N,GND*%
X14732000Y-34544000D03*
%TO.P,JTAG1,3,Pin_3*%
X16002000Y-35814000D03*
%TO.P,JTAG1,4,Pin_4*%
%TO.N,JRCLK*%
X14732000Y-35814000D03*
%TO.P,JTAG1,5,Pin_5*%
%TO.N,GND*%
X16002000Y-37084000D03*
%TO.P,JTAG1,6,Pin_6*%
%TO.N,NRST*%
X14732000Y-37084000D03*
%TO.P,JTAG1,7,Pin_7*%
%TO.N,JTDI{slash}NC*%
X16002000Y-38354000D03*
%TO.P,JTAG1,8,Pin_8*%
%TO.N,JTDO{slash}SWO*%
X14732000Y-38354000D03*
%TO.P,JTAG1,9,Pin_9*%
%TO.N,JCLK{slash}SWCLK*%
X16002000Y-39624000D03*
%TO.P,JTAG1,10,Pin_10*%
%TO.N,JTMS{slash}SWDIO*%
X14732000Y-39624000D03*
%TD*%
D17*
%TO.P,U1,1,IN*%
%TO.N,+BATT*%
X49877000Y-53213000D03*
D18*
%TO.P,U1,2,GND*%
%TO.N,GND*%
X52417000Y-53213000D03*
%TO.P,U1,3,OUT*%
%TO.N,+5V*%
X54957000Y-53213000D03*
%TD*%
D13*
%TO.P,J22,1,Pin_1*%
%TO.N,GPI1_CTRL*%
X78000000Y-47500000D03*
D14*
%TO.P,J22,2,Pin_2*%
%TO.N,GPI2_CTRL*%
X78000000Y-50040000D03*
%TO.P,J22,3,Pin_3*%
%TO.N,GPI3_CTRL*%
X78000000Y-52580000D03*
%TO.P,J22,4,Pin_4*%
%TO.N,GPI4_CTRL*%
X78000000Y-55120000D03*
%TO.P,J22,5,Pin_5*%
%TO.N,GPO1_CTRL*%
X78000000Y-57660000D03*
%TO.P,J22,6,Pin_6*%
%TO.N,GPO2_CTRL*%
X78000000Y-60200000D03*
%TD*%
D17*
%TO.P,U5,1,IN*%
%TO.N,+BATT*%
X36542000Y-53213000D03*
D18*
%TO.P,U5,2,GND*%
%TO.N,GND*%
X39082000Y-53213000D03*
%TO.P,U5,3,OUT*%
%TO.N,+3.3V*%
X41622000Y-53213000D03*
%TD*%
D19*
%TO.P,CAN1,1,Pin_1*%
%TO.N,GND*%
X74470000Y-34657000D03*
D20*
%TO.P,CAN1,2,Pin_2*%
%TO.N,CAN1_H*%
X74470000Y-37657000D03*
%TO.P,CAN1,3,Pin_3*%
%TO.N,CAN1_L*%
X77470000Y-34657000D03*
%TO.P,CAN1,4,Pin_4*%
%TO.N,+BATT*%
X77470000Y-37657000D03*
%TD*%
D13*
%TO.P,J20,1,Pin_1*%
%TO.N,GND*%
X78000000Y-14000000D03*
D14*
%TO.P,J20,2,Pin_2*%
%TO.N,+3.3V*%
X78000000Y-16540000D03*
%TO.P,J20,3,Pin_3*%
%TO.N,+5V*%
X78000000Y-19080000D03*
%TO.P,J20,4,Pin_4*%
%TO.N,GND*%
X78000000Y-21620000D03*
%TO.P,J20,5,Pin_5*%
%TO.N,+BATT*%
X78000000Y-24160000D03*
%TO.P,J20,6,Pin_6*%
%TO.N,+3.3V*%
X78000000Y-26700000D03*
%TD*%
D13*
%TO.P,J18,1,Pin_1*%
%TO.N,GPO3_CTRL*%
X14000000Y-14000000D03*
D14*
%TO.P,J18,2,Pin_2*%
%TO.N,GPO4_CTRL*%
X14000000Y-16540000D03*
%TO.P,J18,3,Pin_3*%
%TO.N,!RTS*%
X14000000Y-19080000D03*
%TO.P,J18,4,Pin_4*%
%TO.N,USART1_RX*%
X14000000Y-21620000D03*
%TO.P,J18,5,Pin_5*%
%TO.N,USART1_TX*%
X14000000Y-24160000D03*
%TO.P,J18,6,Pin_6*%
%TO.N,TX_IND*%
X14000000Y-26700000D03*
%TD*%
D11*
%TO.P,C13,1*%
%TO.N,+BATT*%
X65222000Y-55753000D03*
D12*
%TO.P,C13,2*%
%TO.N,GND*%
X61722000Y-55753000D03*
%TD*%
D21*
%TO.N,GND*%
X34163000Y-15621000D03*
X18034000Y-51562000D03*
X25518744Y-31961280D03*
X25400000Y-39497000D03*
X45720000Y-52578000D03*
X65405000Y-21463000D03*
X53086000Y-43180000D03*
X49276000Y-16256000D03*
X73787000Y-60833000D03*
X30480000Y-19431000D03*
X60706000Y-43053000D03*
X70866000Y-26797000D03*
X37084000Y-60071000D03*
X65151000Y-44577000D03*
X15748000Y-18288000D03*
X64262000Y-30480000D03*
X48895000Y-24003000D03*
X27940000Y-24638000D03*
X72771000Y-55626000D03*
X44831000Y-43180000D03*
X28067000Y-21463000D03*
X16764000Y-13970000D03*
X24638000Y-35560000D03*
X54229000Y-60452000D03*
X47625000Y-42926000D03*
X55499000Y-18542000D03*
X35601000Y-43307000D03*
X52451000Y-28194000D03*
X17907000Y-25908000D03*
X46609000Y-39878000D03*
X31750000Y-22225000D03*
X33782000Y-38100000D03*
X30734000Y-46228000D03*
X67945000Y-39624000D03*
X27813000Y-48133000D03*
X25908000Y-17399000D03*
X17272000Y-28321000D03*
X30226000Y-21209000D03*
X21463000Y-35560000D03*
X38481000Y-44831000D03*
X20193000Y-57150000D03*
X44450000Y-19685000D03*
X38862000Y-25146000D03*
X22479000Y-14732000D03*
X15748000Y-20701000D03*
X58166000Y-31496000D03*
X29210000Y-32131000D03*
X32639000Y-41402000D03*
X28702000Y-43434000D03*
X52705000Y-33909000D03*
X43942000Y-29464000D03*
X73152000Y-14986000D03*
X61341000Y-48006000D03*
X61976000Y-33020000D03*
X75184000Y-21336000D03*
X49149000Y-20066000D03*
X42672000Y-20066000D03*
X28956000Y-15113000D03*
X41402000Y-25146000D03*
%TO.N,+3.3V*%
X34544000Y-51816000D03*
X55880000Y-30607000D03*
X54610000Y-47117000D03*
X59817000Y-18923000D03*
X33579078Y-21701816D03*
X38862000Y-35401000D03*
X32893000Y-26416000D03*
X40640000Y-23495000D03*
X42291000Y-55913000D03*
X32951847Y-32580153D03*
%TO.N,+BATT*%
X21463000Y-17272000D03*
%TO.N,+5V*%
X71882000Y-20701000D03*
X57150000Y-35433000D03*
X57023000Y-46990000D03*
X51427070Y-56141930D03*
%TO.N,JCLK{slash}SWCLK*%
X15090000Y-41211500D03*
X38941847Y-37290847D03*
X29247000Y-39247653D03*
%TO.N,JTMS{slash}SWDIO*%
X27440297Y-39759297D03*
X40948502Y-36851000D03*
%TO.N,GPI1_CTRL*%
X44069000Y-33782000D03*
X71247000Y-45720000D03*
X69702440Y-44045625D03*
X47498000Y-37338000D03*
%TO.N,Reset*%
X28702000Y-34544000D03*
X28194000Y-37084000D03*
X29935000Y-44831000D03*
X29744500Y-42785689D03*
%TO.N,GPI2_CTRL*%
X68995740Y-44753142D03*
X45847000Y-37084000D03*
X70367996Y-46196818D03*
X43942000Y-35052000D03*
%TO.N,GPI3_CTRL*%
X45182785Y-44656173D03*
X68444587Y-49581977D03*
X66598254Y-47149886D03*
X42037000Y-43688000D03*
%TO.N,GPI4_CTRL*%
X67582777Y-48923083D03*
X45159015Y-45657709D03*
X41910000Y-44831000D03*
X65151000Y-47244000D03*
%TO.N,/Display_nCS*%
X34101000Y-25146000D03*
%TO.N,/D{slash}nC*%
X35101806Y-23827590D03*
%TO.N,Net-(J1-Pin_1)*%
X43674558Y-25924094D03*
X37736197Y-31862546D03*
%TO.N,Net-(J2-Pin_1)*%
X42949558Y-26647975D03*
X36449000Y-31750000D03*
%TO.N,Net-(J7-Pin_1)*%
X42127000Y-27216117D03*
X29895239Y-28397762D03*
%TO.N,Net-(J8-Pin_1)*%
X29841826Y-29396337D03*
X40603000Y-18526816D03*
%TO.N,Net-(J9-Pin_1)*%
X30954391Y-28431608D03*
X41910000Y-17272000D03*
%TO.N,Net-(J12-Pin_1)*%
X38687552Y-30412546D03*
X41402000Y-27940000D03*
%TO.N,/nRES*%
X43633804Y-17743000D03*
X43783000Y-23229854D03*
X40513000Y-33274000D03*
%TO.N,Net-(U3-PB3)*%
X33782000Y-33369000D03*
X36882243Y-35401000D03*
%TO.N,Net-(U3-PA9)*%
X39497000Y-33020000D03*
X21894998Y-26416000D03*
%TO.N,Net-(U3-PA10)*%
X38735000Y-33909000D03*
X20828000Y-26362445D03*
%TO.N,GPO1_CTRL*%
X41910000Y-45974000D03*
X45212000Y-46736000D03*
X66857777Y-49648083D03*
X65573570Y-48174570D03*
%TO.N,GPO2_CTRL*%
X69517838Y-53811000D03*
X34544000Y-36322000D03*
X44450000Y-37211000D03*
X68271140Y-45478142D03*
%TO.N,GPO3_CTRL*%
X18923000Y-18034000D03*
X20320000Y-19558000D03*
X25239881Y-31000946D03*
X29210000Y-36576000D03*
%TO.N,GPO4_CTRL*%
X25512862Y-30038924D03*
X32760649Y-35300649D03*
%TO.N,Radio_RESET*%
X34001112Y-31578806D03*
X27432000Y-42545000D03*
%TO.N,Mode_1*%
X29427000Y-49403000D03*
X33782000Y-49403000D03*
%TO.N,Wake-Up*%
X29205347Y-50541347D03*
X33714500Y-50546000D03*
%TO.N,Radio_BOOT*%
X33745000Y-42582000D03*
X30697000Y-42291000D03*
%TO.N,RX_IND*%
X18768319Y-46763681D03*
X16891000Y-48514000D03*
X25934099Y-40629099D03*
X33419893Y-30765055D03*
%TO.N,TX_IND*%
X20880397Y-27452010D03*
X34544000Y-30443000D03*
%TO.N,/SPI1_CLK*%
X38481000Y-14859000D03*
X34925000Y-21209000D03*
%TO.N,/SPI1_MOSI*%
X36249195Y-19993195D03*
%TD*%
D22*
%TO.N,+3.3V*%
X54610000Y-47117000D02*
X55880000Y-45847000D01*
X30421845Y-52466347D02*
X28407985Y-52466347D01*
X18882000Y-32341000D02*
X16912000Y-34311000D01*
D23*
X32951847Y-32580153D02*
X34697792Y-32580153D01*
D22*
X21196498Y-47813000D02*
X18903000Y-45519502D01*
X55880000Y-45847000D02*
X55880000Y-30607000D01*
D23*
X34697792Y-32580153D02*
X36793639Y-34676000D01*
D22*
X16235000Y-34311000D02*
X16002000Y-34544000D01*
X18903000Y-45519502D02*
X18903000Y-36302000D01*
X31115000Y-53159502D02*
X30421845Y-52466347D01*
X41622000Y-53213000D02*
X41622000Y-55244000D01*
X17948000Y-17612000D02*
X17948000Y-18437859D01*
X28489000Y-16297000D02*
X19263000Y-16297000D01*
X30648000Y-18456000D02*
X28489000Y-16297000D01*
X28407985Y-52466347D02*
X23754639Y-47813000D01*
X23754639Y-47813000D02*
X21196498Y-47813000D01*
X33579078Y-21701816D02*
X33579078Y-21151219D01*
D23*
X36793639Y-34676000D02*
X38137000Y-34676000D01*
D22*
X16912000Y-34311000D02*
X16235000Y-34311000D01*
X18542000Y-19031859D02*
X18542000Y-25164141D01*
X17948000Y-18437859D02*
X18542000Y-19031859D01*
X31115000Y-54483000D02*
X31115000Y-53159502D01*
X19263000Y-16297000D02*
X17948000Y-17612000D01*
X33579078Y-21151219D02*
X30883859Y-18456000D01*
X18903000Y-36302000D02*
X16912000Y-34311000D01*
X41622000Y-53213000D02*
X39897000Y-51488000D01*
X28067000Y-57531000D02*
X31115000Y-54483000D01*
X59817000Y-26670000D02*
X55880000Y-30607000D01*
X34872000Y-51488000D02*
X34544000Y-51816000D01*
X41622000Y-55244000D02*
X42291000Y-55913000D01*
X18542000Y-25164141D02*
X18882000Y-25504141D01*
X34528650Y-26416000D02*
X32893000Y-26416000D01*
X59817000Y-18923000D02*
X59817000Y-26670000D01*
X39897000Y-51488000D02*
X34872000Y-51488000D01*
X18882000Y-25504141D02*
X18882000Y-32341000D01*
X30883859Y-18456000D02*
X30648000Y-18456000D01*
X40640000Y-23495000D02*
X37449650Y-23495000D01*
X37449650Y-23495000D02*
X34528650Y-26416000D01*
D23*
X38137000Y-34676000D02*
X38862000Y-35401000D01*
D22*
%TO.N,+BATT*%
X28801488Y-51516347D02*
X24148141Y-46863000D01*
X32512000Y-53213000D02*
X30815347Y-51516347D01*
X24148141Y-46863000D02*
X21590000Y-46863000D01*
X21463000Y-19812000D02*
X21463000Y-17272000D01*
X78000000Y-24160000D02*
X74960000Y-24160000D01*
X19853000Y-45126000D02*
X19853000Y-21422000D01*
X30815347Y-51516347D02*
X28801488Y-51516347D01*
X75795000Y-35982000D02*
X75795000Y-33808346D01*
X69256000Y-19726000D02*
X67437000Y-17907000D01*
X75795000Y-33808346D02*
X75057000Y-33070346D01*
X67437000Y-17907000D02*
X67437000Y-13251000D01*
X75057000Y-24160000D02*
X78000000Y-24160000D01*
X21590000Y-46863000D02*
X19853000Y-45126000D01*
X77470000Y-37657000D02*
X75795000Y-35982000D01*
X75057000Y-33070346D02*
X75057000Y-24160000D01*
X36542000Y-53213000D02*
X32512000Y-53213000D01*
X19853000Y-21422000D02*
X21463000Y-19812000D01*
X72285859Y-19726000D02*
X69256000Y-19726000D01*
X72857000Y-20297141D02*
X72285859Y-19726000D01*
X74960000Y-24160000D02*
X72857000Y-22057000D01*
X72857000Y-22057000D02*
X72857000Y-20297141D01*
%TO.N,+5V*%
X71882000Y-20701000D02*
X57150000Y-35433000D01*
X48663000Y-58906000D02*
X21804000Y-58906000D01*
X51427070Y-56141930D02*
X48663000Y-58906000D01*
X57023000Y-46990000D02*
X57023000Y-35560000D01*
X57023000Y-35560000D02*
X57150000Y-35433000D01*
X21804000Y-58906000D02*
X17907000Y-62803000D01*
X52028070Y-56141930D02*
X51427070Y-56141930D01*
X54957000Y-53213000D02*
X52028070Y-56141930D01*
D23*
%TO.N,JCLK{slash}SWCLK*%
X15090000Y-41211500D02*
X15875000Y-40426500D01*
X36447153Y-37290847D02*
X34241000Y-39497000D01*
X15875000Y-40426500D02*
X15875000Y-39751000D01*
X38941847Y-37290847D02*
X36447153Y-37290847D01*
X15875000Y-39751000D02*
X16002000Y-39624000D01*
X34241000Y-39497000D02*
X29496347Y-39497000D01*
X29496347Y-39497000D02*
X29247000Y-39247653D01*
%TO.N,JTMS{slash}SWDIO*%
X40407000Y-36851000D02*
X37380000Y-39878000D01*
X40948502Y-36851000D02*
X40407000Y-36851000D01*
X34790652Y-39972653D02*
X27653653Y-39972653D01*
X34885305Y-39878000D02*
X34790652Y-39972653D01*
X37380000Y-39878000D02*
X34885305Y-39878000D01*
X27653653Y-39972653D02*
X27440297Y-39759297D01*
%TO.N,GPI1_CTRL*%
X47498000Y-37211000D02*
X47498000Y-37338000D01*
X44069000Y-33782000D02*
X47498000Y-37211000D01*
X69702440Y-44045625D02*
X69702440Y-44175440D01*
X69702440Y-44175440D02*
X71247000Y-45720000D01*
%TO.N,Reset*%
X28194000Y-35052000D02*
X28194000Y-37084000D01*
X29935000Y-42976189D02*
X29935000Y-44831000D01*
X29744500Y-42785689D02*
X29935000Y-42976189D01*
X28702000Y-34544000D02*
X28194000Y-35052000D01*
%TO.N,GPI2_CTRL*%
X70367996Y-46125398D02*
X68995740Y-44753142D01*
X45847000Y-36957000D02*
X45847000Y-37084000D01*
X70367996Y-46196818D02*
X70367996Y-46125398D01*
X43942000Y-35052000D02*
X45847000Y-36957000D01*
%TO.N,GPI3_CTRL*%
X42730000Y-44381000D02*
X44907612Y-44381000D01*
X44907612Y-44381000D02*
X45182785Y-44656173D01*
X42037000Y-43688000D02*
X42730000Y-44381000D01*
X66834886Y-47149886D02*
X68444587Y-48759587D01*
X66598254Y-47149886D02*
X66834886Y-47149886D01*
X68444587Y-48759587D02*
X68444587Y-49581977D01*
%TO.N,GPI4_CTRL*%
X67582777Y-48923083D02*
X67347388Y-48923083D01*
X45159015Y-45657709D02*
X44332306Y-44831000D01*
X44332306Y-44831000D02*
X41910000Y-44831000D01*
X67347388Y-48923083D02*
X65668305Y-47244000D01*
X65668305Y-47244000D02*
X65151000Y-47244000D01*
%TO.N,/Display_nCS*%
X35826806Y-23738986D02*
X39049792Y-20516000D01*
X49285000Y-13199000D02*
X49657000Y-13199000D01*
X35826806Y-24127895D02*
X35826806Y-23738986D01*
X43942000Y-18542000D02*
X49285000Y-13199000D01*
X34101000Y-25146000D02*
X34808701Y-25146000D01*
X40911913Y-20516000D02*
X42885913Y-18542000D01*
X34808701Y-25146000D02*
X35826806Y-24127895D01*
X42885913Y-18542000D02*
X43942000Y-18542000D01*
X39049792Y-20516000D02*
X40911913Y-20516000D01*
%TO.N,/D{slash}nC*%
X45085000Y-13707000D02*
X44577000Y-13199000D01*
X38863396Y-20066000D02*
X40725517Y-20066000D01*
X35101806Y-23827590D02*
X38863396Y-20066000D01*
X42699517Y-18092000D02*
X42699517Y-17651982D01*
X45085000Y-15266499D02*
X45085000Y-13707000D01*
X40725517Y-20066000D02*
X42699517Y-18092000D01*
X42699517Y-17651982D02*
X45085000Y-15266499D01*
%TO.N,Net-(J1-Pin_1)*%
X43674558Y-25924094D02*
X43688000Y-25937536D01*
X43688000Y-27315701D02*
X39141155Y-31862546D01*
X43688000Y-25937536D02*
X43688000Y-27315701D01*
X39141155Y-31862546D02*
X37736197Y-31862546D01*
%TO.N,Net-(J2-Pin_1)*%
X42949558Y-26647975D02*
X42949558Y-27417747D01*
X39229759Y-31137546D02*
X37061454Y-31137546D01*
X37061454Y-31137546D02*
X36449000Y-31750000D01*
X42949558Y-27417747D02*
X39229759Y-31137546D01*
%TO.N,Net-(J7-Pin_1)*%
X31866507Y-28691000D02*
X31347507Y-29210000D01*
X35090097Y-28691000D02*
X31866507Y-28691000D01*
X39106695Y-29210000D02*
X35609097Y-29210000D01*
X42127000Y-27216117D02*
X42125883Y-27215000D01*
X35609097Y-29210000D02*
X35090097Y-28691000D01*
X41101695Y-27215000D02*
X39106695Y-29210000D01*
X42125883Y-27215000D02*
X41101695Y-27215000D01*
X31347507Y-29210000D02*
X30707477Y-29210000D01*
X30707477Y-29210000D02*
X29895239Y-28397762D01*
%TO.N,Net-(J8-Pin_1)*%
X29170239Y-28698067D02*
X29170239Y-28097456D01*
X29841826Y-29396337D02*
X29841826Y-29122762D01*
X29841826Y-29122762D02*
X29594934Y-29122762D01*
X38740879Y-18526816D02*
X40603000Y-18526816D01*
X29594934Y-29122762D02*
X29170239Y-28698067D01*
X29170239Y-28097456D02*
X38740879Y-18526816D01*
%TO.N,Net-(J9-Pin_1)*%
X30954391Y-26949700D02*
X38652275Y-19251816D01*
X40903305Y-19251816D02*
X41910000Y-18245121D01*
X30954391Y-28431608D02*
X30954391Y-26949700D01*
X41910000Y-18245121D02*
X41910000Y-17272000D01*
X38652275Y-19251816D02*
X40903305Y-19251816D01*
%TO.N,Net-(J12-Pin_1)*%
X38687552Y-30412546D02*
X38929454Y-30412546D01*
X38929454Y-30412546D02*
X41402000Y-27940000D01*
%TO.N,/nRES*%
X44104604Y-17743000D02*
X47117000Y-14730604D01*
X47117000Y-14730604D02*
X47117000Y-13199000D01*
X45339000Y-24785854D02*
X45339000Y-26301097D01*
X43633804Y-17743000D02*
X44104604Y-17743000D01*
X43783000Y-23229854D02*
X45339000Y-24785854D01*
X45339000Y-26301097D02*
X40513000Y-31127097D01*
X40513000Y-31127097D02*
X40513000Y-33274000D01*
%TO.N,Net-(U3-PB3)*%
X36882243Y-35401000D02*
X35909014Y-34427771D01*
X34808771Y-34427771D02*
X33782000Y-33401000D01*
X33782000Y-33401000D02*
X33782000Y-33369000D01*
X35909014Y-34427771D02*
X34808771Y-34427771D01*
%TO.N,Net-(U3-PA9)*%
X35719000Y-29956299D02*
X35719000Y-32163000D01*
X30978903Y-30215000D02*
X32052903Y-29141000D01*
X37360346Y-32512000D02*
X37868346Y-33020000D01*
X36068000Y-32512000D02*
X37360346Y-32512000D01*
X21894998Y-26416000D02*
X25836184Y-26416000D01*
X29635184Y-30215000D02*
X30978903Y-30215000D01*
X35719000Y-32163000D02*
X36068000Y-32512000D01*
X34903701Y-29141000D02*
X35719000Y-29956299D01*
X32052903Y-29141000D02*
X34903701Y-29141000D01*
X25836184Y-26416000D02*
X29635184Y-30215000D01*
X37868346Y-33020000D02*
X39497000Y-33020000D01*
%TO.N,Net-(U3-PA10)*%
X29448788Y-30665000D02*
X31165299Y-30665000D01*
X20828000Y-26362445D02*
X20828000Y-26374307D01*
X35881604Y-32962000D02*
X37173950Y-32962000D01*
X22470303Y-26866000D02*
X25649788Y-26866000D01*
X32239299Y-29591000D02*
X34717305Y-29591000D01*
X22195303Y-27141000D02*
X22470303Y-26866000D01*
X35269000Y-30142695D02*
X35269000Y-32349396D01*
X38528771Y-33702771D02*
X38735000Y-33909000D01*
X35269000Y-32349396D02*
X35881604Y-32962000D01*
X25649788Y-26866000D02*
X29448788Y-30665000D01*
X37914721Y-33702771D02*
X38528771Y-33702771D01*
X21594693Y-27141000D02*
X22195303Y-27141000D01*
X20828000Y-26374307D02*
X21594693Y-27141000D01*
X31165299Y-30665000D02*
X32239299Y-29591000D01*
X34717305Y-29591000D02*
X35269000Y-30142695D01*
X37173950Y-32962000D02*
X37914721Y-33702771D01*
%TO.N,GPO1_CTRL*%
X65573570Y-48301570D02*
X66857777Y-49585777D01*
X44450000Y-45974000D02*
X41910000Y-45974000D01*
X65573570Y-48174570D02*
X65573570Y-48301570D01*
X66857777Y-49585777D02*
X66857777Y-49648083D01*
X45212000Y-46736000D02*
X44450000Y-45974000D01*
%TO.N,GPO2_CTRL*%
X68271140Y-45478142D02*
X68271140Y-47949744D01*
X69215000Y-48893604D02*
X69215000Y-53508162D01*
X69215000Y-53508162D02*
X69517838Y-53811000D01*
X68271140Y-47949744D02*
X69215000Y-48893604D01*
X43365000Y-36126000D02*
X44450000Y-37211000D01*
X34740000Y-36126000D02*
X43365000Y-36126000D01*
X34544000Y-36322000D02*
X34740000Y-36126000D01*
%TO.N,GPO3_CTRL*%
X25920946Y-31000946D02*
X26229305Y-31309305D01*
X29002305Y-33819000D02*
X29427000Y-34243695D01*
X29427000Y-36359000D02*
X29210000Y-36576000D01*
X25239881Y-31000946D02*
X25920946Y-31000946D01*
X26229305Y-31309305D02*
X26229305Y-31817305D01*
X20320000Y-19431000D02*
X20320000Y-19558000D01*
X29427000Y-34243695D02*
X29427000Y-36359000D01*
X26229305Y-31817305D02*
X28231000Y-33819000D01*
X18923000Y-18034000D02*
X20320000Y-19431000D01*
X28231000Y-33819000D02*
X29002305Y-33819000D01*
%TO.N,GPO4_CTRL*%
X26679305Y-31122909D02*
X26679305Y-31632305D01*
X30353000Y-34544000D02*
X31109649Y-35300649D01*
X26107342Y-30550946D02*
X26679305Y-31122909D01*
X28416000Y-33369000D02*
X29188701Y-33369000D01*
X29188701Y-33369000D02*
X30353000Y-34533299D01*
X31109649Y-35300649D02*
X32760649Y-35300649D01*
X25512862Y-30038924D02*
X26024884Y-30550946D01*
X26679305Y-31632305D02*
X28416000Y-33369000D01*
X30353000Y-34533299D02*
X30353000Y-34544000D01*
X26024884Y-30550946D02*
X26107342Y-30550946D01*
%TO.N,Radio_RESET*%
X33114111Y-31578806D02*
X33026305Y-31491000D01*
X26670000Y-39504289D02*
X26670000Y-41783000D01*
X34001112Y-31578806D02*
X33114111Y-31578806D01*
X27139992Y-39034297D02*
X26670000Y-39504289D01*
X31946000Y-32182396D02*
X31946000Y-32824299D01*
X32637396Y-31491000D02*
X31946000Y-32182396D01*
X28914347Y-38522653D02*
X28402703Y-39034297D01*
X33935649Y-34813948D02*
X33935649Y-35787351D01*
X31946000Y-32824299D02*
X33935649Y-34813948D01*
X31200347Y-38522653D02*
X28914347Y-38522653D01*
X28402703Y-39034297D02*
X27139992Y-39034297D01*
X33026305Y-31491000D02*
X32637396Y-31491000D01*
X33935649Y-35787351D02*
X31200347Y-38522653D01*
X26670000Y-41783000D02*
X27432000Y-42545000D01*
%TO.N,Mode_1*%
X33147000Y-50038000D02*
X30062000Y-50038000D01*
X33782000Y-49403000D02*
X33147000Y-50038000D01*
X30062000Y-50038000D02*
X29427000Y-49403000D01*
%TO.N,Wake-Up*%
X33714500Y-50546000D02*
X29210000Y-50546000D01*
X29210000Y-50546000D02*
X29205347Y-50541347D01*
%TO.N,Radio_BOOT*%
X33147000Y-43180000D02*
X31586000Y-43180000D01*
X31586000Y-43180000D02*
X30697000Y-42291000D01*
X33745000Y-42582000D02*
X33147000Y-43180000D01*
%TO.N,RX_IND*%
X25934099Y-40629099D02*
X26220000Y-40343198D01*
X31496000Y-31996000D02*
X32726945Y-30765055D01*
X28216307Y-38584297D02*
X28727951Y-38072653D01*
X28727951Y-38072653D02*
X31013951Y-38072653D01*
X26220000Y-40343198D02*
X26220000Y-39317893D01*
X33485649Y-35000344D02*
X31496000Y-33010695D01*
X31013951Y-38072653D02*
X33485649Y-35600955D01*
X31496000Y-33010695D02*
X31496000Y-31996000D01*
X33485649Y-35600955D02*
X33485649Y-35000344D01*
X18641319Y-46763681D02*
X16891000Y-48514000D01*
X18768319Y-46763681D02*
X18641319Y-46763681D01*
X26953596Y-38584297D02*
X28216307Y-38584297D01*
X26220000Y-39317893D02*
X26953596Y-38584297D01*
X32726945Y-30765055D02*
X33419893Y-30765055D01*
%TO.N,TX_IND*%
X32425695Y-30041000D02*
X34142000Y-30041000D01*
X21114387Y-27686000D02*
X25781000Y-27686000D01*
X25781000Y-27686000D02*
X29210000Y-31115000D01*
X20880397Y-27452010D02*
X21114387Y-27686000D01*
X34142000Y-30041000D02*
X34544000Y-30443000D01*
X29210000Y-31115000D02*
X31351695Y-31115000D01*
X31351695Y-31115000D02*
X32425695Y-30041000D01*
%TO.N,/SPI1_CLK*%
X38481000Y-16736085D02*
X38481000Y-14859000D01*
X34925000Y-21209000D02*
X34925000Y-20292085D01*
X34925000Y-20292085D02*
X38481000Y-16736085D01*
%TO.N,/SPI1_MOSI*%
X36249195Y-19993195D02*
X39497000Y-16745390D01*
X39497000Y-16745390D02*
X39497000Y-13199000D01*
%TD*%
%TA.AperFunction,Conductor*%
%TO.N,GND*%
G36*
X20409922Y-12891978D02*
G01*
X20455703Y-12944760D01*
X20466462Y-13007134D01*
X20449677Y-13198997D01*
X20449677Y-13199002D01*
X20468929Y-13419062D01*
X20468930Y-13419070D01*
X20526104Y-13632445D01*
X20526105Y-13632447D01*
X20526106Y-13632450D01*
X20592175Y-13774136D01*
X20619466Y-13832662D01*
X20619468Y-13832666D01*
X20746170Y-14013615D01*
X20746175Y-14013621D01*
X20902378Y-14169824D01*
X20902384Y-14169829D01*
X21083333Y-14296531D01*
X21083335Y-14296532D01*
X21083338Y-14296534D01*
X21283550Y-14389894D01*
X21496932Y-14447070D01*
X21654123Y-14460822D01*
X21716998Y-14466323D01*
X21717000Y-14466323D01*
X21717002Y-14466323D01*
X21772017Y-14461509D01*
X21937068Y-14447070D01*
X22150450Y-14389894D01*
X22350662Y-14296534D01*
X22531620Y-14169826D01*
X22687826Y-14013620D01*
X22814534Y-13832662D01*
X22871824Y-13709802D01*
X22874618Y-13703811D01*
X22920790Y-13651371D01*
X22987983Y-13632219D01*
X23054865Y-13652435D01*
X23099382Y-13703811D01*
X23159464Y-13832658D01*
X23159468Y-13832666D01*
X23286170Y-14013615D01*
X23286175Y-14013621D01*
X23442378Y-14169824D01*
X23442384Y-14169829D01*
X23623333Y-14296531D01*
X23623335Y-14296532D01*
X23623338Y-14296534D01*
X23823550Y-14389894D01*
X24036932Y-14447070D01*
X24194123Y-14460822D01*
X24256998Y-14466323D01*
X24257000Y-14466323D01*
X24257002Y-14466323D01*
X24312017Y-14461509D01*
X24477068Y-14447070D01*
X24690450Y-14389894D01*
X24890662Y-14296534D01*
X25071620Y-14169826D01*
X25227826Y-14013620D01*
X25354534Y-13832662D01*
X25411824Y-13709802D01*
X25414618Y-13703811D01*
X25460790Y-13651371D01*
X25527983Y-13632219D01*
X25594865Y-13652435D01*
X25639382Y-13703811D01*
X25699464Y-13832658D01*
X25699468Y-13832666D01*
X25826170Y-14013615D01*
X25826175Y-14013621D01*
X25982378Y-14169824D01*
X25982384Y-14169829D01*
X26163333Y-14296531D01*
X26163335Y-14296532D01*
X26163338Y-14296534D01*
X26363550Y-14389894D01*
X26576932Y-14447070D01*
X26734123Y-14460822D01*
X26796998Y-14466323D01*
X26797000Y-14466323D01*
X26797002Y-14466323D01*
X26852017Y-14461509D01*
X27017068Y-14447070D01*
X27230450Y-14389894D01*
X27430662Y-14296534D01*
X27611620Y-14169826D01*
X27767826Y-14013620D01*
X27894534Y-13832662D01*
X27951824Y-13709802D01*
X27954618Y-13703811D01*
X28000790Y-13651371D01*
X28067983Y-13632219D01*
X28134865Y-13652435D01*
X28179382Y-13703811D01*
X28239464Y-13832658D01*
X28239468Y-13832666D01*
X28366170Y-14013615D01*
X28366175Y-14013621D01*
X28522378Y-14169824D01*
X28522384Y-14169829D01*
X28703333Y-14296531D01*
X28703335Y-14296532D01*
X28703338Y-14296534D01*
X28903550Y-14389894D01*
X29116932Y-14447070D01*
X29274123Y-14460822D01*
X29336998Y-14466323D01*
X29337000Y-14466323D01*
X29337002Y-14466323D01*
X29392017Y-14461509D01*
X29557068Y-14447070D01*
X29770450Y-14389894D01*
X29970662Y-14296534D01*
X30151620Y-14169826D01*
X30307826Y-14013620D01*
X30434534Y-13832662D01*
X30491824Y-13709802D01*
X30494618Y-13703811D01*
X30540790Y-13651371D01*
X30607983Y-13632219D01*
X30674865Y-13652435D01*
X30719382Y-13703811D01*
X30779464Y-13832658D01*
X30779468Y-13832666D01*
X30906170Y-14013615D01*
X30906175Y-14013621D01*
X31062378Y-14169824D01*
X31062384Y-14169829D01*
X31243333Y-14296531D01*
X31243335Y-14296532D01*
X31243338Y-14296534D01*
X31443550Y-14389894D01*
X31656932Y-14447070D01*
X31814123Y-14460822D01*
X31876998Y-14466323D01*
X31877000Y-14466323D01*
X31877002Y-14466323D01*
X31932017Y-14461509D01*
X32097068Y-14447070D01*
X32310450Y-14389894D01*
X32510662Y-14296534D01*
X32691620Y-14169826D01*
X32847826Y-14013620D01*
X32974534Y-13832662D01*
X33034894Y-13703218D01*
X33081066Y-13650779D01*
X33148259Y-13631627D01*
X33215141Y-13651843D01*
X33259658Y-13703219D01*
X33319898Y-13832405D01*
X33319901Y-13832411D01*
X33365258Y-13897187D01*
X33365258Y-13897188D01*
X34032096Y-13230348D01*
X34032051Y-13230898D01*
X34063266Y-13354162D01*
X34132813Y-13460612D01*
X34233157Y-13538713D01*
X34353422Y-13580000D01*
X34389553Y-13580000D01*
X33718810Y-14250740D01*
X33783590Y-14296099D01*
X33783592Y-14296100D01*
X33983715Y-14389419D01*
X33983729Y-14389424D01*
X34197013Y-14446573D01*
X34197023Y-14446575D01*
X34416999Y-14465821D01*
X34417001Y-14465821D01*
X34636976Y-14446575D01*
X34636986Y-14446573D01*
X34850270Y-14389424D01*
X34850284Y-14389419D01*
X35050407Y-14296100D01*
X35050417Y-14296094D01*
X35115188Y-14250741D01*
X34444448Y-13580000D01*
X34448569Y-13580000D01*
X34542421Y-13564339D01*
X34654251Y-13503820D01*
X34740371Y-13410269D01*
X34791448Y-13293823D01*
X34797105Y-13225552D01*
X35468741Y-13897188D01*
X35514094Y-13832417D01*
X35514095Y-13832416D01*
X35574340Y-13703219D01*
X35620512Y-13650780D01*
X35687706Y-13631627D01*
X35754587Y-13651842D01*
X35799105Y-13703218D01*
X35859466Y-13832662D01*
X35859468Y-13832666D01*
X35986170Y-14013615D01*
X35986175Y-14013621D01*
X36142378Y-14169824D01*
X36142384Y-14169829D01*
X36323333Y-14296531D01*
X36323335Y-14296532D01*
X36323338Y-14296534D01*
X36523550Y-14389894D01*
X36736932Y-14447070D01*
X36894123Y-14460822D01*
X36956998Y-14466323D01*
X36957000Y-14466323D01*
X36957002Y-14466323D01*
X37012017Y-14461509D01*
X37177068Y-14447070D01*
X37390450Y-14389894D01*
X37481001Y-14347669D01*
X37550074Y-14337178D01*
X37613858Y-14365697D01*
X37652098Y-14424173D01*
X37652653Y-14494041D01*
X37651333Y-14498370D01*
X37595327Y-14670740D01*
X37595326Y-14670744D01*
X37575540Y-14859000D01*
X37595326Y-15047256D01*
X37595327Y-15047259D01*
X37653818Y-15227277D01*
X37653821Y-15227284D01*
X37748467Y-15391216D01*
X37781309Y-15427690D01*
X37823650Y-15474715D01*
X37853880Y-15537706D01*
X37855500Y-15557687D01*
X37855500Y-16425631D01*
X37835815Y-16492670D01*
X37819181Y-16513312D01*
X34541208Y-19791284D01*
X34528951Y-19801105D01*
X34529134Y-19801326D01*
X34523122Y-19806299D01*
X34477098Y-19855308D01*
X34474391Y-19858101D01*
X34454889Y-19877602D01*
X34454875Y-19877619D01*
X34452407Y-19880800D01*
X34444843Y-19889655D01*
X34414937Y-19921503D01*
X34414936Y-19921505D01*
X34405284Y-19939061D01*
X34394610Y-19955311D01*
X34382329Y-19971146D01*
X34382324Y-19971153D01*
X34364975Y-20011243D01*
X34359838Y-20021729D01*
X34338803Y-20059991D01*
X34333822Y-20079392D01*
X34327521Y-20097795D01*
X34319562Y-20116187D01*
X34319561Y-20116190D01*
X34312728Y-20159328D01*
X34310360Y-20170759D01*
X34299501Y-20213056D01*
X34299500Y-20213067D01*
X34299500Y-20233101D01*
X34297973Y-20252500D01*
X34294840Y-20272279D01*
X34294840Y-20272280D01*
X34298950Y-20315759D01*
X34299500Y-20327428D01*
X34299500Y-20334135D01*
X34279815Y-20401174D01*
X34227011Y-20446929D01*
X34157853Y-20456873D01*
X34094297Y-20427848D01*
X34087819Y-20421816D01*
X31531652Y-17865649D01*
X31524838Y-17858258D01*
X31489490Y-17816643D01*
X31489489Y-17816642D01*
X31424466Y-17767213D01*
X31421820Y-17765144D01*
X31358161Y-17713973D01*
X31358153Y-17713968D01*
X31357979Y-17713882D01*
X31338041Y-17701514D01*
X31337888Y-17701398D01*
X31263756Y-17667100D01*
X31260731Y-17665650D01*
X31187559Y-17629362D01*
X31187555Y-17629360D01*
X31187552Y-17629359D01*
X31187546Y-17629357D01*
X31187539Y-17629355D01*
X31187347Y-17629307D01*
X31165244Y-17621525D01*
X31165057Y-17621438D01*
X31165054Y-17621437D01*
X31085272Y-17603875D01*
X31082005Y-17603109D01*
X31050527Y-17595281D01*
X30992771Y-17562627D01*
X29136793Y-15706649D01*
X29129979Y-15699258D01*
X29094631Y-15657643D01*
X29032748Y-15610601D01*
X29029607Y-15608213D01*
X29026961Y-15606144D01*
X28963302Y-15554973D01*
X28963294Y-15554968D01*
X28963120Y-15554882D01*
X28943182Y-15542514D01*
X28943029Y-15542398D01*
X28868897Y-15508100D01*
X28865872Y-15506650D01*
X28792700Y-15470362D01*
X28792696Y-15470360D01*
X28792693Y-15470359D01*
X28792687Y-15470357D01*
X28792680Y-15470355D01*
X28792488Y-15470307D01*
X28770385Y-15462525D01*
X28770198Y-15462438D01*
X28770195Y-15462437D01*
X28690412Y-15444875D01*
X28687145Y-15444109D01*
X28607887Y-15424399D01*
X28607689Y-15424394D01*
X28584413Y-15421543D01*
X28584222Y-15421501D01*
X28584219Y-15421500D01*
X28584216Y-15421500D01*
X28584212Y-15421500D01*
X28502537Y-15421500D01*
X28499179Y-15421455D01*
X28417527Y-15419243D01*
X28417345Y-15419278D01*
X28393977Y-15421500D01*
X19303631Y-15421500D01*
X19293566Y-15421091D01*
X19239154Y-15416659D01*
X19158190Y-15427690D01*
X19154860Y-15428098D01*
X19073680Y-15436927D01*
X19073490Y-15436992D01*
X19050665Y-15442341D01*
X19050469Y-15442367D01*
X19050463Y-15442368D01*
X19050463Y-15442369D01*
X19043642Y-15444875D01*
X18973778Y-15470541D01*
X18970614Y-15471654D01*
X18893226Y-15497730D01*
X18893217Y-15497734D01*
X18893040Y-15497841D01*
X18871911Y-15507965D01*
X18871713Y-15508037D01*
X18802892Y-15552026D01*
X18800042Y-15553794D01*
X18730046Y-15595910D01*
X18730041Y-15595914D01*
X18729890Y-15596058D01*
X18711436Y-15610485D01*
X18711260Y-15610597D01*
X18711255Y-15610601D01*
X18653494Y-15668361D01*
X18651090Y-15670701D01*
X18591792Y-15726872D01*
X18591681Y-15727036D01*
X18576737Y-15745117D01*
X17357653Y-16964201D01*
X17350250Y-16971026D01*
X17308641Y-17006370D01*
X17259203Y-17071405D01*
X17257135Y-17074050D01*
X17205970Y-17137701D01*
X17205968Y-17137704D01*
X17205879Y-17137885D01*
X17193529Y-17157796D01*
X17193400Y-17157964D01*
X17193400Y-17157965D01*
X17159093Y-17232117D01*
X17157644Y-17235141D01*
X17121358Y-17308308D01*
X17121354Y-17308319D01*
X17121309Y-17308503D01*
X17113527Y-17330609D01*
X17113441Y-17330794D01*
X17113435Y-17330810D01*
X17095872Y-17410595D01*
X17095107Y-17413860D01*
X17075399Y-17493111D01*
X17075394Y-17493310D01*
X17072545Y-17516575D01*
X17072500Y-17516778D01*
X17072500Y-17598462D01*
X17072455Y-17601820D01*
X17070243Y-17683472D01*
X17070278Y-17683655D01*
X17072500Y-17707023D01*
X17072500Y-18397237D01*
X17072091Y-18407301D01*
X17067660Y-18461704D01*
X17078688Y-18542649D01*
X17079096Y-18545979D01*
X17087927Y-18627175D01*
X17087929Y-18627186D01*
X17087990Y-18627365D01*
X17093340Y-18650190D01*
X17093366Y-18650384D01*
X17093369Y-18650396D01*
X17121540Y-18727078D01*
X17122655Y-18730244D01*
X17148731Y-18807635D01*
X17148734Y-18807641D01*
X17148832Y-18807804D01*
X17158969Y-18828958D01*
X17159036Y-18829142D01*
X17159040Y-18829149D01*
X17203046Y-18897998D01*
X17204809Y-18900840D01*
X17226626Y-18937100D01*
X17246912Y-18970814D01*
X17247042Y-18970951D01*
X17261492Y-18989434D01*
X17261600Y-18989603D01*
X17319395Y-19047398D01*
X17321700Y-19049767D01*
X17323471Y-19051637D01*
X17377866Y-19109062D01*
X17377868Y-19109063D01*
X17377871Y-19109066D01*
X17378028Y-19109173D01*
X17396121Y-19124124D01*
X17630181Y-19358184D01*
X17663666Y-19419507D01*
X17666500Y-19445865D01*
X17666500Y-25123519D01*
X17666091Y-25133583D01*
X17661660Y-25187986D01*
X17672688Y-25268931D01*
X17673096Y-25272261D01*
X17681927Y-25353457D01*
X17681929Y-25353468D01*
X17681990Y-25353647D01*
X17687340Y-25376472D01*
X17687366Y-25376666D01*
X17687369Y-25376678D01*
X17715540Y-25453360D01*
X17716655Y-25456526D01*
X17742731Y-25533917D01*
X17742734Y-25533923D01*
X17742832Y-25534086D01*
X17752969Y-25555240D01*
X17753036Y-25555424D01*
X17753040Y-25555431D01*
X17797046Y-25624280D01*
X17798815Y-25627131D01*
X17840912Y-25697096D01*
X17841042Y-25697233D01*
X17855492Y-25715716D01*
X17855600Y-25715885D01*
X17913395Y-25773680D01*
X17915701Y-25776050D01*
X17959601Y-25822395D01*
X17972523Y-25836036D01*
X18004335Y-25898243D01*
X18006500Y-25921311D01*
X18006500Y-31926994D01*
X17986815Y-31994033D01*
X17970181Y-32014675D01*
X16585675Y-33399181D01*
X16524352Y-33432666D01*
X16497994Y-33435500D01*
X16275631Y-33435500D01*
X16265566Y-33435091D01*
X16211154Y-33430659D01*
X16130190Y-33441690D01*
X16126860Y-33442098D01*
X16045680Y-33450927D01*
X16045490Y-33450992D01*
X16022665Y-33456341D01*
X16022469Y-33456367D01*
X16022463Y-33456368D01*
X16022463Y-33456369D01*
X16008132Y-33461634D01*
X15945778Y-33484541D01*
X15942614Y-33485654D01*
X15865226Y-33511730D01*
X15865213Y-33511736D01*
X15865044Y-33511838D01*
X15843905Y-33521968D01*
X15843712Y-33522038D01*
X15843707Y-33522041D01*
X15840666Y-33523985D01*
X15838528Y-33524609D01*
X15837687Y-33525027D01*
X15837612Y-33524877D01*
X15773891Y-33543500D01*
X15454130Y-33543500D01*
X15454123Y-33543501D01*
X15394516Y-33549908D01*
X15259671Y-33600202D01*
X15259666Y-33600205D01*
X15251172Y-33606564D01*
X15185707Y-33630979D01*
X15122363Y-33617493D01*
X15122162Y-33617981D01*
X15119526Y-33616889D01*
X15118407Y-33616651D01*
X15116537Y-33615651D01*
X14982000Y-33574839D01*
X14982000Y-34336327D01*
X14944129Y-34291195D01*
X14844871Y-34233888D01*
X14760436Y-34219000D01*
X14703564Y-34219000D01*
X14619129Y-34233888D01*
X14519871Y-34291195D01*
X14446199Y-34378993D01*
X14407000Y-34486694D01*
X14407000Y-34601306D01*
X14446199Y-34709007D01*
X14517517Y-34794000D01*
X13762840Y-34794000D01*
X13803652Y-34928541D01*
X13896503Y-35102253D01*
X13899890Y-35107322D01*
X13898215Y-35108440D01*
X13921918Y-35164259D01*
X13910123Y-35233125D01*
X13899158Y-35250188D01*
X13899473Y-35250399D01*
X13896086Y-35255467D01*
X13803188Y-35429266D01*
X13745975Y-35617870D01*
X13726659Y-35814000D01*
X13745975Y-36010129D01*
X13745976Y-36010132D01*
X13801911Y-36194525D01*
X13803188Y-36198733D01*
X13896086Y-36372532D01*
X13899473Y-36377601D01*
X13897836Y-36378694D01*
X13921596Y-36434663D01*
X13909795Y-36503529D01*
X13899109Y-36520156D01*
X13899473Y-36520399D01*
X13896086Y-36525467D01*
X13803188Y-36699266D01*
X13745975Y-36887870D01*
X13726659Y-37084000D01*
X13745975Y-37280129D01*
X13745976Y-37280132D01*
X13794848Y-37441242D01*
X13803188Y-37468733D01*
X13896086Y-37642532D01*
X13899473Y-37647601D01*
X13897836Y-37648694D01*
X13921596Y-37704663D01*
X13909795Y-37773529D01*
X13899109Y-37790156D01*
X13899473Y-37790399D01*
X13896086Y-37795467D01*
X13803188Y-37969266D01*
X13745975Y-38157870D01*
X13726659Y-38354000D01*
X13745975Y-38550129D01*
X13745976Y-38550132D01*
X13781214Y-38666297D01*
X13803188Y-38738733D01*
X13896086Y-38912532D01*
X13899473Y-38917601D01*
X13897836Y-38918694D01*
X13921596Y-38974663D01*
X13909795Y-39043529D01*
X13899109Y-39060156D01*
X13899473Y-39060399D01*
X13896086Y-39065467D01*
X13803188Y-39239266D01*
X13745975Y-39427870D01*
X13726659Y-39624000D01*
X13745975Y-39820129D01*
X13745976Y-39820132D01*
X13795971Y-39984944D01*
X13803188Y-40008733D01*
X13896086Y-40182532D01*
X13896090Y-40182539D01*
X14021116Y-40334883D01*
X14173460Y-40459909D01*
X14173467Y-40459913D01*
X14297863Y-40526404D01*
X14347707Y-40575366D01*
X14363168Y-40643503D01*
X14346798Y-40697761D01*
X14262820Y-40843218D01*
X14262818Y-40843222D01*
X14204327Y-41023240D01*
X14204326Y-41023244D01*
X14184540Y-41211500D01*
X14204326Y-41399756D01*
X14204327Y-41399759D01*
X14262818Y-41579777D01*
X14262821Y-41579784D01*
X14357467Y-41743716D01*
X14403434Y-41794767D01*
X14484129Y-41884388D01*
X14637265Y-41995648D01*
X14637270Y-41995651D01*
X14810192Y-42072642D01*
X14810197Y-42072644D01*
X14995354Y-42112000D01*
X14995355Y-42112000D01*
X15184644Y-42112000D01*
X15184646Y-42112000D01*
X15369803Y-42072644D01*
X15542730Y-41995651D01*
X15695871Y-41884388D01*
X15822533Y-41743716D01*
X15917179Y-41579784D01*
X15975674Y-41399756D01*
X15993321Y-41231845D01*
X16019905Y-41167232D01*
X16028952Y-41157136D01*
X16258786Y-40927302D01*
X16271048Y-40917480D01*
X16270865Y-40917259D01*
X16276868Y-40912291D01*
X16276877Y-40912286D01*
X16322934Y-40863239D01*
X16325582Y-40860506D01*
X16345120Y-40840970D01*
X16347570Y-40837810D01*
X16355154Y-40828929D01*
X16385062Y-40797082D01*
X16394714Y-40779523D01*
X16405389Y-40763272D01*
X16417674Y-40747436D01*
X16435030Y-40707325D01*
X16440161Y-40696854D01*
X16461194Y-40658598D01*
X16461194Y-40658597D01*
X16461197Y-40658592D01*
X16466180Y-40639180D01*
X16472477Y-40620791D01*
X16480438Y-40602395D01*
X16487270Y-40559248D01*
X16489639Y-40547815D01*
X16490962Y-40542663D01*
X16526702Y-40482627D01*
X16552615Y-40464145D01*
X16560536Y-40459911D01*
X16560539Y-40459909D01*
X16564551Y-40456617D01*
X16712883Y-40334883D01*
X16837910Y-40182538D01*
X16930814Y-40008727D01*
X16988024Y-39820132D01*
X17007341Y-39624000D01*
X16988024Y-39427868D01*
X16930814Y-39239273D01*
X16930595Y-39238864D01*
X16878819Y-39141998D01*
X16837910Y-39065462D01*
X16837907Y-39065458D01*
X16834523Y-39060393D01*
X16836164Y-39059296D01*
X16812405Y-39003361D01*
X16824194Y-38934493D01*
X16834888Y-38917851D01*
X16834523Y-38917607D01*
X16837904Y-38912544D01*
X16837910Y-38912538D01*
X16930814Y-38738727D01*
X16988024Y-38550132D01*
X17007341Y-38354000D01*
X16988024Y-38157868D01*
X16930814Y-37969273D01*
X16925214Y-37958797D01*
X16902524Y-37916347D01*
X16837910Y-37795462D01*
X16837906Y-37795457D01*
X16834526Y-37790399D01*
X16836044Y-37789384D01*
X16812081Y-37732962D01*
X16823872Y-37664094D01*
X16834492Y-37647574D01*
X16834111Y-37647320D01*
X16837497Y-37642252D01*
X16930347Y-37468541D01*
X16971160Y-37334000D01*
X16216483Y-37334000D01*
X16287801Y-37249007D01*
X16327000Y-37141306D01*
X16327000Y-37026694D01*
X16287801Y-36918993D01*
X16214129Y-36831195D01*
X16114871Y-36773888D01*
X16030436Y-36759000D01*
X15973564Y-36759000D01*
X15889129Y-36773888D01*
X15789871Y-36831195D01*
X15752000Y-36876327D01*
X15752000Y-36021672D01*
X15789871Y-36066805D01*
X15889129Y-36124112D01*
X15973564Y-36139000D01*
X16030436Y-36139000D01*
X16114871Y-36124112D01*
X16214129Y-36066805D01*
X16252000Y-36021672D01*
X16252000Y-36834000D01*
X16971160Y-36834000D01*
X16971160Y-36833999D01*
X16930347Y-36699458D01*
X16837497Y-36525747D01*
X16834111Y-36520680D01*
X16835665Y-36519641D01*
X16811759Y-36463361D01*
X16823547Y-36394493D01*
X16834441Y-36377540D01*
X16834111Y-36377320D01*
X16837497Y-36372252D01*
X16930348Y-36198539D01*
X16987531Y-36010032D01*
X16996384Y-35920140D01*
X17022544Y-35855353D01*
X17079578Y-35814993D01*
X17149378Y-35811876D01*
X17207468Y-35844612D01*
X17991181Y-36628325D01*
X18024666Y-36689648D01*
X18027500Y-36716006D01*
X18027500Y-45478880D01*
X18027091Y-45488944D01*
X18022660Y-45543347D01*
X18033688Y-45624292D01*
X18034096Y-45627622D01*
X18042927Y-45708818D01*
X18042929Y-45708829D01*
X18042990Y-45709008D01*
X18048340Y-45731833D01*
X18048366Y-45732027D01*
X18048369Y-45732039D01*
X18076540Y-45808721D01*
X18077655Y-45811887D01*
X18103731Y-45889278D01*
X18103734Y-45889284D01*
X18103832Y-45889447D01*
X18113969Y-45910601D01*
X18114036Y-45910785D01*
X18114040Y-45910792D01*
X18150563Y-45967933D01*
X18170082Y-46035020D01*
X18150231Y-46102011D01*
X18138232Y-46117686D01*
X18035785Y-46231465D01*
X17941140Y-46395396D01*
X17941137Y-46395403D01*
X17882646Y-46575420D01*
X17882644Y-46575430D01*
X17879912Y-46601419D01*
X17853326Y-46666033D01*
X17844273Y-46676135D01*
X16943228Y-47577181D01*
X16881905Y-47610666D01*
X16855547Y-47613500D01*
X16796354Y-47613500D01*
X16763897Y-47620398D01*
X16611197Y-47652855D01*
X16611192Y-47652857D01*
X16438270Y-47729848D01*
X16438265Y-47729851D01*
X16285129Y-47841111D01*
X16158466Y-47981785D01*
X16063821Y-48145715D01*
X16063818Y-48145722D01*
X16005327Y-48325740D01*
X16005326Y-48325744D01*
X15985540Y-48514000D01*
X16005326Y-48702256D01*
X16005327Y-48702259D01*
X16063818Y-48882277D01*
X16063821Y-48882284D01*
X16158467Y-49046216D01*
X16268662Y-49168600D01*
X16285129Y-49186888D01*
X16438265Y-49298148D01*
X16438270Y-49298151D01*
X16611192Y-49375142D01*
X16611197Y-49375144D01*
X16796354Y-49414500D01*
X16796355Y-49414500D01*
X16985644Y-49414500D01*
X16985646Y-49414500D01*
X17170803Y-49375144D01*
X17343730Y-49298151D01*
X17496871Y-49186888D01*
X17623533Y-49046216D01*
X17718179Y-48882284D01*
X17776674Y-48702256D01*
X17794321Y-48534344D01*
X17820904Y-48469734D01*
X17829951Y-48459638D01*
X18589090Y-47700500D01*
X18650413Y-47667015D01*
X18676771Y-47664181D01*
X18862963Y-47664181D01*
X18862965Y-47664181D01*
X19048122Y-47624825D01*
X19221049Y-47547832D01*
X19374190Y-47436569D01*
X19378074Y-47432256D01*
X19385178Y-47424366D01*
X19444664Y-47387717D01*
X19514521Y-47389046D01*
X19565010Y-47419656D01*
X20548697Y-48403343D01*
X20555524Y-48410749D01*
X20590859Y-48452350D01*
X20590866Y-48452355D01*
X20590867Y-48452357D01*
X20655926Y-48501813D01*
X20658510Y-48503832D01*
X20685597Y-48525606D01*
X20722200Y-48555030D01*
X20722370Y-48555114D01*
X20742312Y-48567483D01*
X20742469Y-48567602D01*
X20816641Y-48601917D01*
X20819618Y-48603344D01*
X20892805Y-48639641D01*
X20892979Y-48639684D01*
X20915124Y-48647480D01*
X20915301Y-48647562D01*
X20995077Y-48665121D01*
X20998325Y-48665882D01*
X21077609Y-48685600D01*
X21077782Y-48685604D01*
X21101100Y-48688460D01*
X21101282Y-48688500D01*
X21182961Y-48688500D01*
X21186319Y-48688545D01*
X21267971Y-48690757D01*
X21268153Y-48690721D01*
X21291521Y-48688500D01*
X23340633Y-48688500D01*
X23407672Y-48708185D01*
X23428314Y-48724819D01*
X27421681Y-52718187D01*
X27455166Y-52779510D01*
X27450182Y-52849202D01*
X27408310Y-52905135D01*
X27405123Y-52907443D01*
X27341526Y-52951973D01*
X27341526Y-52951974D01*
X28022599Y-53633046D01*
X27941852Y-53645835D01*
X27828955Y-53703359D01*
X27739359Y-53792955D01*
X27681835Y-53905852D01*
X27669046Y-53986598D01*
X26987974Y-53305526D01*
X26987973Y-53305526D01*
X26936868Y-53378512D01*
X26936866Y-53378516D01*
X26840734Y-53584673D01*
X26840730Y-53584682D01*
X26781860Y-53804389D01*
X26781858Y-53804400D01*
X26762034Y-54030997D01*
X26762034Y-54031002D01*
X26781858Y-54257599D01*
X26781860Y-54257610D01*
X26840730Y-54477317D01*
X26840735Y-54477331D01*
X26936863Y-54683478D01*
X26987974Y-54756472D01*
X27669046Y-54075400D01*
X27681835Y-54156148D01*
X27739359Y-54269045D01*
X27828955Y-54358641D01*
X27941852Y-54416165D01*
X28022599Y-54428953D01*
X27341526Y-55110025D01*
X27414513Y-55161132D01*
X27414521Y-55161136D01*
X27620668Y-55257264D01*
X27620682Y-55257269D01*
X27840389Y-55316139D01*
X27840400Y-55316141D01*
X28066998Y-55335966D01*
X28067002Y-55335966D01*
X28293599Y-55316141D01*
X28293610Y-55316139D01*
X28513317Y-55257269D01*
X28513331Y-55257264D01*
X28719478Y-55161136D01*
X28792471Y-55110024D01*
X28111400Y-54428953D01*
X28192148Y-54416165D01*
X28305045Y-54358641D01*
X28394641Y-54269045D01*
X28452165Y-54156148D01*
X28464953Y-54075400D01*
X29146024Y-54756471D01*
X29197136Y-54683478D01*
X29293264Y-54477331D01*
X29293269Y-54477317D01*
X29352139Y-54257610D01*
X29352141Y-54257599D01*
X29371966Y-54031002D01*
X29371966Y-54030997D01*
X29352141Y-53804400D01*
X29352139Y-53804389D01*
X29293269Y-53584682D01*
X29293266Y-53584673D01*
X29262293Y-53518252D01*
X29251801Y-53449175D01*
X29280321Y-53385391D01*
X29338797Y-53347151D01*
X29374675Y-53341847D01*
X30007839Y-53341847D01*
X30074878Y-53361532D01*
X30095520Y-53378166D01*
X30203181Y-53485827D01*
X30236666Y-53547150D01*
X30239500Y-53573508D01*
X30239500Y-54068993D01*
X30219815Y-54136032D01*
X30203181Y-54156674D01*
X28165673Y-56194181D01*
X28104350Y-56227666D01*
X28077992Y-56230500D01*
X27219129Y-56230500D01*
X27219123Y-56230501D01*
X27159516Y-56236908D01*
X27024671Y-56287202D01*
X27024664Y-56287206D01*
X26909455Y-56373452D01*
X26909452Y-56373455D01*
X26823206Y-56488664D01*
X26823202Y-56488671D01*
X26772908Y-56623517D01*
X26766501Y-56683116D01*
X26766500Y-56683135D01*
X26766501Y-57906500D01*
X26746816Y-57973539D01*
X26694013Y-58019294D01*
X26642501Y-58030500D01*
X21844618Y-58030500D01*
X21834553Y-58030091D01*
X21780153Y-58025660D01*
X21780147Y-58025661D01*
X21699212Y-58036688D01*
X21695881Y-58037096D01*
X21614680Y-58045927D01*
X21614490Y-58045992D01*
X21591665Y-58051341D01*
X21591469Y-58051367D01*
X21591463Y-58051368D01*
X21591463Y-58051369D01*
X21568567Y-58059780D01*
X21514778Y-58079541D01*
X21511614Y-58080654D01*
X21434226Y-58106730D01*
X21434217Y-58106734D01*
X21434040Y-58106841D01*
X21412911Y-58116965D01*
X21412713Y-58117037D01*
X21343892Y-58161026D01*
X21341042Y-58162794D01*
X21271046Y-58204910D01*
X21271041Y-58204914D01*
X21270890Y-58205058D01*
X21252436Y-58219485D01*
X21252260Y-58219597D01*
X21252255Y-58219601D01*
X21194494Y-58277361D01*
X21192090Y-58279701D01*
X21132792Y-58335872D01*
X21132681Y-58336036D01*
X21117737Y-58354117D01*
X17970889Y-61500965D01*
X17909566Y-61534450D01*
X17894016Y-61536812D01*
X17686936Y-61554929D01*
X17686929Y-61554930D01*
X17473554Y-61612104D01*
X17473548Y-61612107D01*
X17273340Y-61705465D01*
X17273338Y-61705466D01*
X17100376Y-61826575D01*
X17034170Y-61848902D01*
X17029253Y-61849000D01*
X13637920Y-61849000D01*
X13587284Y-61838189D01*
X13290609Y-61705466D01*
X12948594Y-61552459D01*
X12895437Y-61507114D01*
X12875235Y-61440229D01*
X12875231Y-61439373D01*
X12875280Y-61284496D01*
X12894986Y-61217467D01*
X12947804Y-61171728D01*
X13016966Y-61161807D01*
X13080512Y-61190852D01*
X13086960Y-61196857D01*
X13128596Y-61238492D01*
X13128599Y-61238495D01*
X13189090Y-61280851D01*
X13322165Y-61374032D01*
X13322167Y-61374033D01*
X13322170Y-61374035D01*
X13536337Y-61473903D01*
X13764592Y-61535063D01*
X13952918Y-61551539D01*
X13999999Y-61555659D01*
X14000000Y-61555659D01*
X14000001Y-61555659D01*
X14039234Y-61552226D01*
X14235408Y-61535063D01*
X14463663Y-61473903D01*
X14677830Y-61374035D01*
X14871401Y-61238495D01*
X15038495Y-61071401D01*
X15174035Y-60877830D01*
X15273903Y-60663663D01*
X15335063Y-60435408D01*
X15355659Y-60200000D01*
X15335063Y-59964592D01*
X15280418Y-59760653D01*
X15273905Y-59736344D01*
X15273904Y-59736343D01*
X15273903Y-59736337D01*
X15174035Y-59522171D01*
X15141797Y-59476129D01*
X15038494Y-59328597D01*
X14871402Y-59161506D01*
X14871396Y-59161501D01*
X14685842Y-59031575D01*
X14642217Y-58976998D01*
X14635023Y-58907500D01*
X14666546Y-58845145D01*
X14685842Y-58828425D01*
X14708026Y-58812891D01*
X14871401Y-58698495D01*
X15038495Y-58531401D01*
X15174035Y-58337830D01*
X15273903Y-58123663D01*
X15335063Y-57895408D01*
X15355659Y-57660000D01*
X15335063Y-57424592D01*
X15273903Y-57196337D01*
X15174035Y-56982171D01*
X15163980Y-56967810D01*
X15038494Y-56788597D01*
X14871402Y-56621506D01*
X14871396Y-56621501D01*
X14685842Y-56491575D01*
X14642217Y-56436998D01*
X14635023Y-56367500D01*
X14666546Y-56305145D01*
X14685842Y-56288425D01*
X14768567Y-56230500D01*
X14871401Y-56158495D01*
X15038495Y-55991401D01*
X15174035Y-55797830D01*
X15273903Y-55583663D01*
X15335063Y-55355408D01*
X15355659Y-55120000D01*
X15335063Y-54884592D01*
X15278629Y-54673974D01*
X15273905Y-54656344D01*
X15273904Y-54656343D01*
X15273903Y-54656337D01*
X15174035Y-54442171D01*
X15171870Y-54439078D01*
X15038494Y-54248597D01*
X14871402Y-54081506D01*
X14871396Y-54081501D01*
X14685842Y-53951575D01*
X14642217Y-53896998D01*
X14635023Y-53827500D01*
X14666546Y-53765145D01*
X14685842Y-53748425D01*
X14802240Y-53666922D01*
X14871401Y-53618495D01*
X15038495Y-53451401D01*
X15174035Y-53257830D01*
X15273903Y-53043663D01*
X15335063Y-52815408D01*
X15355659Y-52580000D01*
X15335063Y-52344592D01*
X15273903Y-52116337D01*
X15174035Y-51902171D01*
X15124735Y-51831762D01*
X15038494Y-51708597D01*
X14871402Y-51541506D01*
X14871396Y-51541501D01*
X14685842Y-51411575D01*
X14642217Y-51356998D01*
X14635023Y-51287500D01*
X14666546Y-51225145D01*
X14685842Y-51208425D01*
X14738576Y-51171500D01*
X14871401Y-51078495D01*
X15038495Y-50911401D01*
X15174035Y-50717830D01*
X15273903Y-50503663D01*
X15335063Y-50275408D01*
X15355659Y-50040000D01*
X15335063Y-49804592D01*
X15277901Y-49591259D01*
X15273905Y-49576344D01*
X15273904Y-49576343D01*
X15273903Y-49576337D01*
X15174035Y-49362171D01*
X15158518Y-49340011D01*
X15038496Y-49168600D01*
X15038495Y-49168599D01*
X14916179Y-49046283D01*
X14882696Y-48984963D01*
X14887680Y-48915271D01*
X14929551Y-48859337D01*
X14960529Y-48842422D01*
X15092086Y-48793354D01*
X15092093Y-48793350D01*
X15207187Y-48707190D01*
X15207190Y-48707187D01*
X15293350Y-48592093D01*
X15293354Y-48592086D01*
X15343596Y-48457379D01*
X15343598Y-48457372D01*
X15349999Y-48397844D01*
X15350000Y-48397827D01*
X15350000Y-47750000D01*
X14433686Y-47750000D01*
X14459493Y-47709844D01*
X14500000Y-47571889D01*
X14500000Y-47428111D01*
X14459493Y-47290156D01*
X14433686Y-47250000D01*
X15350000Y-47250000D01*
X15350000Y-46602172D01*
X15349999Y-46602155D01*
X15343598Y-46542627D01*
X15343596Y-46542620D01*
X15293354Y-46407913D01*
X15293350Y-46407906D01*
X15207190Y-46292812D01*
X15207187Y-46292809D01*
X15092093Y-46206649D01*
X15092086Y-46206645D01*
X14957379Y-46156403D01*
X14957372Y-46156401D01*
X14897844Y-46150000D01*
X14250000Y-46150000D01*
X14250000Y-47064498D01*
X14142315Y-47015320D01*
X14035763Y-47000000D01*
X13964237Y-47000000D01*
X13857685Y-47015320D01*
X13750000Y-47064498D01*
X13750000Y-46150000D01*
X13102155Y-46150000D01*
X13042627Y-46156401D01*
X13035070Y-46158187D01*
X13034442Y-46155531D01*
X12977747Y-46159575D01*
X12916431Y-46126076D01*
X12882959Y-46064746D01*
X12880131Y-46038375D01*
X12880134Y-46028525D01*
X12883867Y-34293999D01*
X13762839Y-34293999D01*
X13762840Y-34294000D01*
X14482000Y-34294000D01*
X14482000Y-33574839D01*
X14481999Y-33574839D01*
X14347458Y-33615652D01*
X14173746Y-33708503D01*
X14173739Y-33708507D01*
X14021471Y-33833471D01*
X13896507Y-33985739D01*
X13896503Y-33985746D01*
X13803652Y-34159458D01*
X13762839Y-34293999D01*
X12883867Y-34293999D01*
X12885935Y-27795152D01*
X12905641Y-27728120D01*
X12958459Y-27682382D01*
X13027621Y-27672461D01*
X13091168Y-27701506D01*
X13097616Y-27707512D01*
X13128599Y-27738495D01*
X13182910Y-27776524D01*
X13322165Y-27874032D01*
X13322167Y-27874033D01*
X13322170Y-27874035D01*
X13536337Y-27973903D01*
X13764592Y-28035063D01*
X13915077Y-28048229D01*
X13999999Y-28055659D01*
X14000000Y-28055659D01*
X14000001Y-28055659D01*
X14039234Y-28052226D01*
X14235408Y-28035063D01*
X14463663Y-27973903D01*
X14677830Y-27874035D01*
X14871401Y-27738495D01*
X15038495Y-27571401D01*
X15174035Y-27377830D01*
X15273903Y-27163663D01*
X15335063Y-26935408D01*
X15355659Y-26700000D01*
X15335063Y-26464592D01*
X15273903Y-26236337D01*
X15174035Y-26022171D01*
X15120620Y-25945885D01*
X15038494Y-25828597D01*
X14871402Y-25661506D01*
X14871396Y-25661501D01*
X14685842Y-25531575D01*
X14642217Y-25476998D01*
X14635023Y-25407500D01*
X14666546Y-25345145D01*
X14685842Y-25328425D01*
X14796123Y-25251205D01*
X14871401Y-25198495D01*
X15038495Y-25031401D01*
X15174035Y-24837830D01*
X15273903Y-24623663D01*
X15335063Y-24395408D01*
X15355659Y-24160000D01*
X15335063Y-23924592D01*
X15273903Y-23696337D01*
X15174035Y-23482171D01*
X15129182Y-23418113D01*
X15038494Y-23288597D01*
X14871402Y-23121506D01*
X14871396Y-23121501D01*
X14685842Y-22991575D01*
X14642217Y-22936998D01*
X14635023Y-22867500D01*
X14666546Y-22805145D01*
X14685842Y-22788425D01*
X14771846Y-22728204D01*
X14871401Y-22658495D01*
X15038495Y-22491401D01*
X15174035Y-22297830D01*
X15273903Y-22083663D01*
X15335063Y-21855408D01*
X15355659Y-21620000D01*
X15335063Y-21384592D01*
X15273903Y-21156337D01*
X15174035Y-20942171D01*
X15170721Y-20937437D01*
X15038494Y-20748597D01*
X14871402Y-20581506D01*
X14871396Y-20581501D01*
X14685842Y-20451575D01*
X14642217Y-20396998D01*
X14635023Y-20327500D01*
X14666546Y-20265145D01*
X14685842Y-20248425D01*
X14736354Y-20213056D01*
X14871401Y-20118495D01*
X15038495Y-19951401D01*
X15174035Y-19757830D01*
X15273903Y-19543663D01*
X15335063Y-19315408D01*
X15355659Y-19080000D01*
X15353026Y-19049911D01*
X15347736Y-18989438D01*
X15335063Y-18844592D01*
X15282974Y-18650190D01*
X15273905Y-18616344D01*
X15273904Y-18616343D01*
X15273903Y-18616337D01*
X15174035Y-18402171D01*
X15170581Y-18397237D01*
X15038494Y-18208597D01*
X14871402Y-18041506D01*
X14871396Y-18041501D01*
X14685842Y-17911575D01*
X14642217Y-17856998D01*
X14635023Y-17787500D01*
X14666546Y-17725145D01*
X14685842Y-17708425D01*
X14721478Y-17683472D01*
X14871401Y-17578495D01*
X15038495Y-17411401D01*
X15174035Y-17217830D01*
X15273903Y-17003663D01*
X15335063Y-16775408D01*
X15355659Y-16540000D01*
X15335063Y-16304592D01*
X15273903Y-16076337D01*
X15174035Y-15862171D01*
X15092073Y-15745117D01*
X15038496Y-15668600D01*
X14978109Y-15608213D01*
X14916567Y-15546671D01*
X14883084Y-15485351D01*
X14888068Y-15415659D01*
X14929939Y-15359725D01*
X14960915Y-15342810D01*
X15092331Y-15293796D01*
X15207546Y-15207546D01*
X15293796Y-15092331D01*
X15344091Y-14957483D01*
X15350500Y-14897873D01*
X15350499Y-13102128D01*
X15344091Y-13042517D01*
X15343925Y-13042074D01*
X15343899Y-13041702D01*
X15342308Y-13034969D01*
X15343398Y-13034711D01*
X15338938Y-12972385D01*
X15372420Y-12911060D01*
X15433742Y-12877572D01*
X15460037Y-12874737D01*
X20342874Y-12872327D01*
X20409922Y-12891978D01*
G37*
%TD.AperFunction*%
%TA.AperFunction,Conductor*%
G36*
X65948741Y-13897188D02*
G01*
X65994094Y-13832417D01*
X65994095Y-13832416D01*
X66054340Y-13703219D01*
X66100512Y-13650780D01*
X66167706Y-13631627D01*
X66234587Y-13651842D01*
X66279105Y-13703218D01*
X66339466Y-13832662D01*
X66339468Y-13832666D01*
X66466170Y-14013615D01*
X66466175Y-14013621D01*
X66525181Y-14072627D01*
X66558666Y-14133950D01*
X66561500Y-14160308D01*
X66561500Y-17866378D01*
X66561091Y-17876442D01*
X66556660Y-17930845D01*
X66567688Y-18011790D01*
X66568096Y-18015120D01*
X66576927Y-18096316D01*
X66576929Y-18096327D01*
X66576990Y-18096506D01*
X66582340Y-18119331D01*
X66582366Y-18119525D01*
X66582369Y-18119537D01*
X66610540Y-18196219D01*
X66611655Y-18199385D01*
X66637731Y-18276776D01*
X66637734Y-18276782D01*
X66637832Y-18276945D01*
X66647969Y-18298099D01*
X66648036Y-18298283D01*
X66648040Y-18298290D01*
X66692046Y-18367139D01*
X66693809Y-18369981D01*
X66716264Y-18407301D01*
X66735912Y-18439955D01*
X66736042Y-18440092D01*
X66750492Y-18458575D01*
X66750600Y-18458744D01*
X66808394Y-18516538D01*
X66810701Y-18518909D01*
X66866866Y-18578203D01*
X66866868Y-18578204D01*
X66866871Y-18578207D01*
X66867028Y-18578314D01*
X66885121Y-18593265D01*
X68608194Y-20316337D01*
X68615022Y-20323743D01*
X68650368Y-20365357D01*
X68678665Y-20386867D01*
X68715445Y-20414826D01*
X68718011Y-20416833D01*
X68781703Y-20468030D01*
X68781705Y-20468031D01*
X68781872Y-20468114D01*
X68801814Y-20480483D01*
X68801971Y-20480602D01*
X68876175Y-20514932D01*
X68879072Y-20516320D01*
X68952306Y-20552641D01*
X68952481Y-20552684D01*
X68974640Y-20560487D01*
X68974742Y-20560534D01*
X68974803Y-20560562D01*
X69054570Y-20578119D01*
X69057828Y-20578883D01*
X69137110Y-20598600D01*
X69137283Y-20598604D01*
X69160602Y-20601460D01*
X69160784Y-20601500D01*
X69242462Y-20601500D01*
X69245820Y-20601545D01*
X69327473Y-20603757D01*
X69327655Y-20603721D01*
X69351023Y-20601500D01*
X70443994Y-20601500D01*
X70511033Y-20621185D01*
X70556788Y-20673989D01*
X70566732Y-20743147D01*
X70537707Y-20806703D01*
X70531675Y-20813181D01*
X56967181Y-34377675D01*
X56905858Y-34411160D01*
X56836166Y-34406176D01*
X56780233Y-34364304D01*
X56755816Y-34298840D01*
X56755500Y-34289994D01*
X56755500Y-31021005D01*
X56775185Y-30953966D01*
X56791814Y-30933329D01*
X60407360Y-27317782D01*
X60414740Y-27310979D01*
X60456357Y-27275631D01*
X60505841Y-27210533D01*
X60507863Y-27207949D01*
X60559030Y-27144297D01*
X60559109Y-27144138D01*
X60571489Y-27124177D01*
X60571602Y-27124029D01*
X60574812Y-27117092D01*
X60605905Y-27049883D01*
X60607331Y-27046903D01*
X60643641Y-26973693D01*
X60643685Y-26973514D01*
X60651484Y-26951363D01*
X60651562Y-26951197D01*
X60655038Y-26935408D01*
X60669127Y-26871397D01*
X60669894Y-26868125D01*
X60688438Y-26793562D01*
X60689600Y-26788889D01*
X60689604Y-26788715D01*
X60692461Y-26765391D01*
X60692500Y-26765216D01*
X60692500Y-26683536D01*
X60692545Y-26680178D01*
X60693023Y-26662517D01*
X60694757Y-26598527D01*
X60694720Y-26598334D01*
X60692500Y-26574975D01*
X60692500Y-19162207D01*
X60698570Y-19123887D01*
X60699632Y-19120617D01*
X60702674Y-19111256D01*
X60722460Y-18923000D01*
X60702674Y-18734744D01*
X60644179Y-18554716D01*
X60549533Y-18390784D01*
X60422871Y-18250112D01*
X60422870Y-18250111D01*
X60269734Y-18138851D01*
X60269729Y-18138848D01*
X60096807Y-18061857D01*
X60096802Y-18061855D01*
X59933033Y-18027046D01*
X59911646Y-18022500D01*
X59722354Y-18022500D01*
X59700967Y-18027046D01*
X59537197Y-18061855D01*
X59537192Y-18061857D01*
X59364270Y-18138848D01*
X59364265Y-18138851D01*
X59211129Y-18250111D01*
X59084466Y-18390785D01*
X58989821Y-18554715D01*
X58989818Y-18554722D01*
X58933817Y-18727078D01*
X58931326Y-18734744D01*
X58911540Y-18923000D01*
X58931326Y-19111256D01*
X58931326Y-19111258D01*
X58931327Y-19111260D01*
X58935430Y-19123887D01*
X58941500Y-19162207D01*
X58941500Y-26255993D01*
X58921815Y-26323032D01*
X58905181Y-26343674D01*
X55429554Y-29819300D01*
X55414759Y-29831936D01*
X55274132Y-29934109D01*
X55274123Y-29934116D01*
X55147466Y-30074785D01*
X55052821Y-30238715D01*
X55052818Y-30238722D01*
X54996340Y-30412546D01*
X54994326Y-30418744D01*
X54974540Y-30607000D01*
X54994326Y-30795256D01*
X54994326Y-30795258D01*
X54994327Y-30795260D01*
X54998430Y-30807887D01*
X55004500Y-30846207D01*
X55004500Y-45432993D01*
X54984815Y-45500032D01*
X54968181Y-45520674D01*
X54159554Y-46329300D01*
X54144759Y-46341936D01*
X54004132Y-46444109D01*
X54004123Y-46444116D01*
X53877466Y-46584785D01*
X53782821Y-46748715D01*
X53782818Y-46748722D01*
X53736403Y-46891574D01*
X53724326Y-46928744D01*
X53704540Y-47117000D01*
X53724326Y-47305256D01*
X53724327Y-47305259D01*
X53782818Y-47485277D01*
X53782821Y-47485284D01*
X53877467Y-47649216D01*
X53950489Y-47730315D01*
X54004129Y-47789888D01*
X54157265Y-47901148D01*
X54157270Y-47901151D01*
X54330192Y-47978142D01*
X54330197Y-47978144D01*
X54515354Y-48017500D01*
X54515355Y-48017500D01*
X54704644Y-48017500D01*
X54704646Y-48017500D01*
X54889803Y-47978144D01*
X55062730Y-47901151D01*
X55215871Y-47789888D01*
X55342533Y-47649216D01*
X55370716Y-47600399D01*
X55390416Y-47574726D01*
X55920171Y-47044971D01*
X55981492Y-47011488D01*
X56051184Y-47016472D01*
X56107117Y-47058344D01*
X56131170Y-47119691D01*
X56137326Y-47178256D01*
X56137327Y-47178259D01*
X56195818Y-47358277D01*
X56195821Y-47358284D01*
X56290467Y-47522216D01*
X56408095Y-47652855D01*
X56417129Y-47662888D01*
X56570265Y-47774148D01*
X56570270Y-47774151D01*
X56743192Y-47851142D01*
X56743197Y-47851144D01*
X56928354Y-47890500D01*
X56928355Y-47890500D01*
X57117644Y-47890500D01*
X57117646Y-47890500D01*
X57302803Y-47851144D01*
X57475730Y-47774151D01*
X57628871Y-47662888D01*
X57755533Y-47522216D01*
X57850179Y-47358284D01*
X57887312Y-47244000D01*
X64245540Y-47244000D01*
X64265326Y-47432256D01*
X64265327Y-47432259D01*
X64323818Y-47612277D01*
X64323821Y-47612284D01*
X64418467Y-47776216D01*
X64467613Y-47830798D01*
X64530956Y-47901148D01*
X64545129Y-47916888D01*
X64626629Y-47976101D01*
X64669293Y-48031428D01*
X64677063Y-48089377D01*
X64671142Y-48145716D01*
X64668110Y-48174570D01*
X64687896Y-48362826D01*
X64687897Y-48362829D01*
X64746388Y-48542847D01*
X64746391Y-48542854D01*
X64841037Y-48706786D01*
X64920444Y-48794976D01*
X64967699Y-48847458D01*
X65120835Y-48958718D01*
X65120840Y-48958721D01*
X65293762Y-49035712D01*
X65293763Y-49035712D01*
X65293767Y-49035714D01*
X65422111Y-49062994D01*
X65483593Y-49096186D01*
X65484012Y-49096603D01*
X65918405Y-49530996D01*
X65951890Y-49592319D01*
X65954045Y-49631635D01*
X65952317Y-49648080D01*
X65952317Y-49648083D01*
X65972103Y-49836339D01*
X65972104Y-49836342D01*
X66030595Y-50016360D01*
X66030598Y-50016367D01*
X66125244Y-50180299D01*
X66251906Y-50320971D01*
X66405042Y-50432231D01*
X66405047Y-50432234D01*
X66577969Y-50509225D01*
X66577974Y-50509227D01*
X66763131Y-50548583D01*
X66763132Y-50548583D01*
X66952421Y-50548583D01*
X66952423Y-50548583D01*
X67137580Y-50509227D01*
X67310507Y-50432234D01*
X67463648Y-50320971D01*
X67588794Y-50181982D01*
X67648280Y-50145334D01*
X67718137Y-50146665D01*
X67773093Y-50181983D01*
X67838716Y-50254865D01*
X67991852Y-50366125D01*
X67991857Y-50366128D01*
X68164779Y-50443119D01*
X68164784Y-50443121D01*
X68349941Y-50482477D01*
X68349942Y-50482477D01*
X68465500Y-50482477D01*
X68532539Y-50502162D01*
X68578294Y-50554966D01*
X68589500Y-50606477D01*
X68589500Y-53425417D01*
X68587775Y-53441034D01*
X68588061Y-53441061D01*
X68587326Y-53448827D01*
X68589439Y-53516034D01*
X68589500Y-53519929D01*
X68589500Y-53547519D01*
X68590003Y-53551497D01*
X68590918Y-53563129D01*
X68592290Y-53606786D01*
X68592291Y-53606789D01*
X68597880Y-53626029D01*
X68601824Y-53645073D01*
X68601921Y-53645835D01*
X68604336Y-53664953D01*
X68611609Y-53683325D01*
X68619636Y-53741926D01*
X68612378Y-53810997D01*
X68612378Y-53811000D01*
X68632164Y-53999256D01*
X68632165Y-53999259D01*
X68690656Y-54179277D01*
X68690659Y-54179284D01*
X68785305Y-54343216D01*
X68897535Y-54467860D01*
X68911967Y-54483888D01*
X69065103Y-54595148D01*
X69065108Y-54595151D01*
X69238030Y-54672142D01*
X69238035Y-54672144D01*
X69423192Y-54711500D01*
X69423193Y-54711500D01*
X69612482Y-54711500D01*
X69612484Y-54711500D01*
X69797641Y-54672144D01*
X69970568Y-54595151D01*
X70123709Y-54483888D01*
X70250371Y-54343216D01*
X70345017Y-54179284D01*
X70403512Y-53999256D01*
X70423298Y-53811000D01*
X70403512Y-53622744D01*
X70345017Y-53442716D01*
X70250371Y-53278784D01*
X70123709Y-53138112D01*
X70123708Y-53138111D01*
X69970568Y-53026848D01*
X69914064Y-53001691D01*
X69860827Y-52956441D01*
X69840506Y-52889592D01*
X69840500Y-52888412D01*
X69840500Y-48976346D01*
X69842224Y-48960726D01*
X69841939Y-48960699D01*
X69842673Y-48952937D01*
X69840561Y-48885716D01*
X69840500Y-48881822D01*
X69840500Y-48854260D01*
X69840500Y-48854254D01*
X69839996Y-48850272D01*
X69839081Y-48838633D01*
X69837710Y-48794977D01*
X69832119Y-48775734D01*
X69828173Y-48756682D01*
X69825664Y-48736812D01*
X69809579Y-48696187D01*
X69805806Y-48685166D01*
X69793618Y-48643214D01*
X69793617Y-48643213D01*
X69793617Y-48643211D01*
X69793616Y-48643210D01*
X69783423Y-48625975D01*
X69774861Y-48608498D01*
X69767487Y-48589873D01*
X69751220Y-48567484D01*
X69741811Y-48554534D01*
X69735405Y-48544781D01*
X69713170Y-48507184D01*
X69713168Y-48507182D01*
X69713165Y-48507178D01*
X69699006Y-48493019D01*
X69686368Y-48478223D01*
X69674594Y-48462017D01*
X69671707Y-48459629D01*
X69640940Y-48434176D01*
X69632299Y-48426313D01*
X68932959Y-47726972D01*
X68899474Y-47665649D01*
X68896640Y-47639291D01*
X68896640Y-46176829D01*
X68916325Y-46109790D01*
X68928490Y-46093857D01*
X68954701Y-46064746D01*
X69003673Y-46010358D01*
X69056360Y-45919100D01*
X69106926Y-45870886D01*
X69175533Y-45857662D01*
X69240398Y-45883630D01*
X69251428Y-45893420D01*
X69429491Y-46071483D01*
X69462976Y-46132806D01*
X69465131Y-46172123D01*
X69462536Y-46196816D01*
X69462536Y-46196818D01*
X69482322Y-46385074D01*
X69482323Y-46385077D01*
X69540814Y-46565095D01*
X69540817Y-46565102D01*
X69635463Y-46729034D01*
X69731005Y-46835144D01*
X69762125Y-46869706D01*
X69915261Y-46980966D01*
X69915266Y-46980969D01*
X70088188Y-47057960D01*
X70088193Y-47057962D01*
X70273350Y-47097318D01*
X70273351Y-47097318D01*
X70462640Y-47097318D01*
X70462642Y-47097318D01*
X70647799Y-47057962D01*
X70820726Y-46980969D01*
X70973867Y-46869706D01*
X71100529Y-46729034D01*
X71110488Y-46711784D01*
X71127396Y-46682500D01*
X71177963Y-46634284D01*
X71234783Y-46620500D01*
X71341644Y-46620500D01*
X71341646Y-46620500D01*
X71526803Y-46581144D01*
X71699730Y-46504151D01*
X71852871Y-46392888D01*
X71979533Y-46252216D01*
X72074179Y-46088284D01*
X72132674Y-45908256D01*
X72152460Y-45720000D01*
X72132674Y-45531744D01*
X72074179Y-45351716D01*
X71979533Y-45187784D01*
X71852871Y-45047112D01*
X71821689Y-45024457D01*
X71699734Y-44935851D01*
X71699729Y-44935848D01*
X71526807Y-44858857D01*
X71526802Y-44858855D01*
X71381001Y-44827865D01*
X71341646Y-44819500D01*
X71341645Y-44819500D01*
X71282452Y-44819500D01*
X71215413Y-44799815D01*
X71194771Y-44783181D01*
X70937258Y-44525668D01*
X70635388Y-44223797D01*
X70601905Y-44162477D01*
X70599750Y-44123164D01*
X70607900Y-44045625D01*
X70588114Y-43857369D01*
X70529619Y-43677341D01*
X70434973Y-43513409D01*
X70308311Y-43372737D01*
X70308310Y-43372736D01*
X70155174Y-43261476D01*
X70155169Y-43261473D01*
X69982247Y-43184482D01*
X69982242Y-43184480D01*
X69836441Y-43153490D01*
X69797086Y-43145125D01*
X69607794Y-43145125D01*
X69575337Y-43152023D01*
X69422637Y-43184480D01*
X69422632Y-43184482D01*
X69249710Y-43261473D01*
X69249705Y-43261476D01*
X69096569Y-43372736D01*
X68969906Y-43513410D01*
X68875261Y-43677340D01*
X68875259Y-43677344D01*
X68834282Y-43803458D01*
X68794844Y-43861133D01*
X68742135Y-43886429D01*
X68715933Y-43891998D01*
X68715932Y-43891999D01*
X68543010Y-43968990D01*
X68543005Y-43968993D01*
X68389869Y-44080253D01*
X68263206Y-44220927D01*
X68168561Y-44384857D01*
X68168559Y-44384861D01*
X68122808Y-44525668D01*
X68083370Y-44583343D01*
X68030660Y-44608639D01*
X67991335Y-44616998D01*
X67991332Y-44616999D01*
X67818410Y-44693990D01*
X67818405Y-44693993D01*
X67665269Y-44805253D01*
X67538606Y-44945927D01*
X67443961Y-45109857D01*
X67443958Y-45109864D01*
X67385614Y-45289429D01*
X67385466Y-45289886D01*
X67365680Y-45478142D01*
X67385466Y-45666398D01*
X67385467Y-45666401D01*
X67443958Y-45846419D01*
X67443961Y-45846426D01*
X67538607Y-46010358D01*
X67563834Y-46038375D01*
X67613790Y-46093857D01*
X67644020Y-46156848D01*
X67645640Y-46176829D01*
X67645640Y-46700238D01*
X67625955Y-46767277D01*
X67573151Y-46813032D01*
X67503993Y-46822976D01*
X67440437Y-46793951D01*
X67414253Y-46762238D01*
X67330787Y-46617670D01*
X67204125Y-46476998D01*
X67204124Y-46476997D01*
X67050988Y-46365737D01*
X67050983Y-46365734D01*
X66878061Y-46288743D01*
X66878056Y-46288741D01*
X66706214Y-46252216D01*
X66692900Y-46249386D01*
X66503608Y-46249386D01*
X66490294Y-46252216D01*
X66318451Y-46288741D01*
X66318446Y-46288743D01*
X66145524Y-46365734D01*
X66145519Y-46365737D01*
X65992383Y-46476997D01*
X65992382Y-46476998D01*
X65922724Y-46554361D01*
X65863238Y-46591009D01*
X65793381Y-46589678D01*
X65757690Y-46571706D01*
X65603734Y-46459851D01*
X65603729Y-46459848D01*
X65430807Y-46382857D01*
X65430802Y-46382855D01*
X65285001Y-46351865D01*
X65245646Y-46343500D01*
X65056354Y-46343500D01*
X65023897Y-46350398D01*
X64871197Y-46382855D01*
X64871192Y-46382857D01*
X64698270Y-46459848D01*
X64698265Y-46459851D01*
X64545129Y-46571111D01*
X64418466Y-46711785D01*
X64323821Y-46875715D01*
X64323818Y-46875722D01*
X64265327Y-47055740D01*
X64265326Y-47055744D01*
X64245540Y-47244000D01*
X57887312Y-47244000D01*
X57908674Y-47178256D01*
X57928460Y-46990000D01*
X57908674Y-46801744D01*
X57904567Y-46789105D01*
X57898500Y-46750792D01*
X57898500Y-35974005D01*
X57918185Y-35906966D01*
X57934819Y-35886324D01*
X64682719Y-29138424D01*
X71771527Y-22049616D01*
X71832848Y-22016133D01*
X71902540Y-22021117D01*
X71958473Y-22062989D01*
X71982071Y-22120560D01*
X71987688Y-22161789D01*
X71988096Y-22165120D01*
X71996927Y-22246316D01*
X71996929Y-22246327D01*
X71996990Y-22246506D01*
X72002340Y-22269331D01*
X72002366Y-22269525D01*
X72002369Y-22269537D01*
X72030540Y-22346219D01*
X72031655Y-22349385D01*
X72057731Y-22426776D01*
X72057734Y-22426782D01*
X72057832Y-22426945D01*
X72067969Y-22448099D01*
X72068036Y-22448283D01*
X72068040Y-22448290D01*
X72112046Y-22517139D01*
X72113809Y-22519981D01*
X72145960Y-22573416D01*
X72155912Y-22589955D01*
X72156042Y-22590092D01*
X72170492Y-22608575D01*
X72170600Y-22608744D01*
X72228395Y-22666539D01*
X72230702Y-22668910D01*
X72286866Y-22728203D01*
X72286868Y-22728204D01*
X72286871Y-22728207D01*
X72287028Y-22728314D01*
X72305121Y-22743265D01*
X74145181Y-24583325D01*
X74178666Y-24644648D01*
X74181500Y-24671006D01*
X74181500Y-33029724D01*
X74181091Y-33039788D01*
X74176660Y-33094191D01*
X74187688Y-33175136D01*
X74188096Y-33178466D01*
X74191319Y-33208098D01*
X74196594Y-33256602D01*
X74197654Y-33266343D01*
X74195491Y-33266578D01*
X74191382Y-33326053D01*
X74149646Y-33382087D01*
X74084241Y-33406662D01*
X74075096Y-33407000D01*
X73920014Y-33407000D01*
X73817310Y-33417493D01*
X73817303Y-33417494D01*
X73650881Y-33472641D01*
X73650876Y-33472643D01*
X73501655Y-33564684D01*
X73377684Y-33688655D01*
X73285643Y-33837876D01*
X73285641Y-33837881D01*
X73230494Y-34004303D01*
X73230493Y-34004310D01*
X73220000Y-34107014D01*
X73220000Y-34407000D01*
X74024428Y-34407000D01*
X74001318Y-34442960D01*
X73960000Y-34583673D01*
X73960000Y-34730327D01*
X74001318Y-34871040D01*
X74024428Y-34907000D01*
X73220000Y-34907000D01*
X73220000Y-35206985D01*
X73230493Y-35309689D01*
X73230494Y-35309696D01*
X73285641Y-35476118D01*
X73285643Y-35476123D01*
X73377684Y-35625344D01*
X73501655Y-35749315D01*
X73650876Y-35841356D01*
X73650881Y-35841358D01*
X73817303Y-35896505D01*
X73817310Y-35896506D01*
X73920014Y-35906999D01*
X73920027Y-35907000D01*
X74220000Y-35907000D01*
X74220000Y-35103494D01*
X74324839Y-35151373D01*
X74433527Y-35167000D01*
X74506473Y-35167000D01*
X74615161Y-35151373D01*
X74720000Y-35103494D01*
X74720000Y-35907000D01*
X74792943Y-35907000D01*
X74859982Y-35926685D01*
X74905737Y-35979489D01*
X74915808Y-36014263D01*
X74925688Y-36086791D01*
X74926096Y-36090120D01*
X74934927Y-36171316D01*
X74934929Y-36171327D01*
X74934990Y-36171506D01*
X74940340Y-36194331D01*
X74940366Y-36194525D01*
X74940369Y-36194537D01*
X74968540Y-36271219D01*
X74969655Y-36274385D01*
X74977962Y-36299039D01*
X74980714Y-36368855D01*
X74945284Y-36429075D01*
X74882921Y-36460581D01*
X74828360Y-36458408D01*
X74687977Y-36420793D01*
X74470002Y-36401723D01*
X74469998Y-36401723D01*
X74324682Y-36414436D01*
X74252023Y-36420793D01*
X74252020Y-36420793D01*
X74040677Y-36477422D01*
X74040668Y-36477426D01*
X73842361Y-36569898D01*
X73842357Y-36569900D01*
X73663121Y-36695402D01*
X73508402Y-36850121D01*
X73382900Y-37029357D01*
X73382898Y-37029361D01*
X73311189Y-37183142D01*
X73294336Y-37219284D01*
X73290426Y-37227668D01*
X73290422Y-37227677D01*
X73233793Y-37439020D01*
X73233793Y-37439023D01*
X73232633Y-37452284D01*
X73214723Y-37656997D01*
X73214723Y-37657002D01*
X73216719Y-37679815D01*
X73233376Y-37870216D01*
X73233793Y-37874975D01*
X73233793Y-37874979D01*
X73290422Y-38086322D01*
X73290424Y-38086326D01*
X73290425Y-38086330D01*
X73307129Y-38122151D01*
X73382897Y-38284638D01*
X73382898Y-38284639D01*
X73508402Y-38463877D01*
X73663123Y-38618598D01*
X73842361Y-38744102D01*
X74040670Y-38836575D01*
X74252023Y-38893207D01*
X74434926Y-38909208D01*
X74469998Y-38912277D01*
X74470000Y-38912277D01*
X74470002Y-38912277D01*
X74498254Y-38909805D01*
X74687977Y-38893207D01*
X74899330Y-38836575D01*
X75097639Y-38744102D01*
X75276877Y-38618598D01*
X75431598Y-38463877D01*
X75557102Y-38284639D01*
X75649575Y-38086330D01*
X75706207Y-37874977D01*
X75723281Y-37679815D01*
X75725277Y-37657002D01*
X75725277Y-37656999D01*
X75723680Y-37638745D01*
X75706400Y-37441238D01*
X75720166Y-37372742D01*
X75768782Y-37322559D01*
X75836810Y-37306625D01*
X75902654Y-37330000D01*
X75917609Y-37342753D01*
X76181166Y-37606310D01*
X76214651Y-37667633D01*
X76217013Y-37683183D01*
X76231812Y-37852335D01*
X76233376Y-37870216D01*
X76233793Y-37874976D01*
X76233793Y-37874979D01*
X76290422Y-38086322D01*
X76290424Y-38086326D01*
X76290425Y-38086330D01*
X76307129Y-38122151D01*
X76382897Y-38284638D01*
X76382898Y-38284639D01*
X76508402Y-38463877D01*
X76663123Y-38618598D01*
X76842361Y-38744102D01*
X77040670Y-38836575D01*
X77252023Y-38893207D01*
X77434926Y-38909208D01*
X77469998Y-38912277D01*
X77470000Y-38912277D01*
X77470002Y-38912277D01*
X77498254Y-38909805D01*
X77687977Y-38893207D01*
X77899330Y-38836575D01*
X78097639Y-38744102D01*
X78276877Y-38618598D01*
X78431598Y-38463877D01*
X78557102Y-38284639D01*
X78649575Y-38086330D01*
X78702225Y-37889836D01*
X78738590Y-37830176D01*
X78801437Y-37799647D01*
X78870812Y-37807942D01*
X78924690Y-37852427D01*
X78945965Y-37918979D01*
X78946000Y-37921930D01*
X78946000Y-39874134D01*
X78926315Y-39941173D01*
X78873511Y-39986928D01*
X78804353Y-39996872D01*
X78766349Y-39984944D01*
X78671881Y-39937500D01*
X78671877Y-39937499D01*
X78498890Y-39896500D01*
X78365708Y-39896500D01*
X78249958Y-39910029D01*
X78233422Y-39911962D01*
X78233419Y-39911963D01*
X78066367Y-39972764D01*
X78011679Y-40008733D01*
X77917832Y-40070457D01*
X77917831Y-40070457D01*
X77917831Y-40070458D01*
X77795833Y-40199767D01*
X77706944Y-40353728D01*
X77655955Y-40524041D01*
X77655954Y-40524046D01*
X77645618Y-40701519D01*
X77645618Y-40701520D01*
X77670603Y-40843222D01*
X77676489Y-40876599D01*
X77705033Y-40942772D01*
X77746904Y-41039839D01*
X77834223Y-41157127D01*
X77853067Y-41182439D01*
X77989254Y-41296714D01*
X78067990Y-41336257D01*
X78148118Y-41376499D01*
X78148119Y-41376499D01*
X78148123Y-41376501D01*
X78321110Y-41417500D01*
X78321113Y-41417500D01*
X78454285Y-41417500D01*
X78454292Y-41417500D01*
X78586577Y-41402038D01*
X78753635Y-41341234D01*
X78753855Y-41341088D01*
X78754029Y-41341035D01*
X78760086Y-41337994D01*
X78760605Y-41339028D01*
X78820678Y-41320692D01*
X78887924Y-41339661D01*
X78934239Y-41391974D01*
X78946000Y-41444685D01*
X78946000Y-46025500D01*
X78926315Y-46092539D01*
X78873511Y-46138294D01*
X78822000Y-46149500D01*
X77102129Y-46149500D01*
X77102123Y-46149501D01*
X77042516Y-46155908D01*
X76907671Y-46206202D01*
X76907664Y-46206206D01*
X76792455Y-46292452D01*
X76792452Y-46292455D01*
X76706206Y-46407664D01*
X76706202Y-46407671D01*
X76655908Y-46542517D01*
X76649501Y-46602116D01*
X76649500Y-46602135D01*
X76649500Y-48397870D01*
X76649501Y-48397876D01*
X76655908Y-48457483D01*
X76706202Y-48592328D01*
X76706206Y-48592335D01*
X76792452Y-48707544D01*
X76792455Y-48707547D01*
X76907664Y-48793793D01*
X76907671Y-48793797D01*
X77039081Y-48842810D01*
X77095015Y-48884681D01*
X77119432Y-48950145D01*
X77104580Y-49018418D01*
X77083430Y-49046673D01*
X76961503Y-49168600D01*
X76825965Y-49362169D01*
X76825964Y-49362171D01*
X76726098Y-49576335D01*
X76726094Y-49576344D01*
X76664938Y-49804586D01*
X76664936Y-49804596D01*
X76644341Y-50039999D01*
X76644341Y-50040000D01*
X76664936Y-50275403D01*
X76664938Y-50275413D01*
X76726094Y-50503655D01*
X76726096Y-50503659D01*
X76726097Y-50503663D01*
X76817231Y-50699100D01*
X76825965Y-50717830D01*
X76825967Y-50717834D01*
X76961501Y-50911395D01*
X76961506Y-50911402D01*
X77128597Y-51078493D01*
X77128603Y-51078498D01*
X77314158Y-51208425D01*
X77357783Y-51263002D01*
X77364977Y-51332500D01*
X77333454Y-51394855D01*
X77314158Y-51411575D01*
X77128597Y-51541505D01*
X76961505Y-51708597D01*
X76825965Y-51902169D01*
X76825964Y-51902171D01*
X76726098Y-52116335D01*
X76726094Y-52116344D01*
X76664938Y-52344586D01*
X76664936Y-52344596D01*
X76644341Y-52579999D01*
X76644341Y-52580000D01*
X76664936Y-52815403D01*
X76664938Y-52815413D01*
X76726094Y-53043655D01*
X76726096Y-53043659D01*
X76726097Y-53043663D01*
X76771538Y-53141111D01*
X76825965Y-53257830D01*
X76825967Y-53257834D01*
X76910470Y-53378516D01*
X76959946Y-53449175D01*
X76961501Y-53451395D01*
X76961506Y-53451402D01*
X77128597Y-53618493D01*
X77128603Y-53618498D01*
X77314158Y-53748425D01*
X77357783Y-53803002D01*
X77364977Y-53872500D01*
X77333454Y-53934855D01*
X77314158Y-53951575D01*
X77128597Y-54081505D01*
X76961505Y-54248597D01*
X76825965Y-54442169D01*
X76825964Y-54442171D01*
X76726098Y-54656335D01*
X76726094Y-54656344D01*
X76664938Y-54884586D01*
X76664936Y-54884596D01*
X76644341Y-55119999D01*
X76644341Y-55120000D01*
X76664936Y-55355403D01*
X76664938Y-55355413D01*
X76726094Y-55583655D01*
X76726096Y-55583659D01*
X76726097Y-55583663D01*
X76805059Y-55752997D01*
X76825965Y-55797830D01*
X76825967Y-55797834D01*
X76961501Y-55991395D01*
X76961506Y-55991402D01*
X77128597Y-56158493D01*
X77128603Y-56158498D01*
X77314158Y-56288425D01*
X77357783Y-56343002D01*
X77364977Y-56412500D01*
X77333454Y-56474855D01*
X77314158Y-56491575D01*
X77128597Y-56621505D01*
X76961505Y-56788597D01*
X76825965Y-56982169D01*
X76825964Y-56982171D01*
X76726098Y-57196335D01*
X76726094Y-57196344D01*
X76664938Y-57424586D01*
X76664936Y-57424596D01*
X76644341Y-57659999D01*
X76644341Y-57660000D01*
X76664936Y-57895403D01*
X76664938Y-57895413D01*
X76726094Y-58123655D01*
X76726096Y-58123659D01*
X76726097Y-58123663D01*
X76770834Y-58219601D01*
X76825965Y-58337830D01*
X76825967Y-58337834D01*
X76961501Y-58531395D01*
X76961506Y-58531402D01*
X77128597Y-58698493D01*
X77128603Y-58698498D01*
X77314158Y-58828425D01*
X77357783Y-58883002D01*
X77364977Y-58952500D01*
X77333454Y-59014855D01*
X77314158Y-59031575D01*
X77128597Y-59161505D01*
X76961505Y-59328597D01*
X76825965Y-59522169D01*
X76825964Y-59522171D01*
X76726098Y-59736335D01*
X76726094Y-59736344D01*
X76664938Y-59964586D01*
X76664936Y-59964596D01*
X76644341Y-60199999D01*
X76644341Y-60200000D01*
X76664936Y-60435403D01*
X76664938Y-60435413D01*
X76726094Y-60663655D01*
X76726096Y-60663659D01*
X76726097Y-60663663D01*
X76755063Y-60725780D01*
X76825965Y-60877830D01*
X76825967Y-60877834D01*
X76934281Y-61032521D01*
X76961505Y-61071401D01*
X77128599Y-61238495D01*
X77189090Y-61280851D01*
X77322165Y-61374032D01*
X77322167Y-61374033D01*
X77322170Y-61374035D01*
X77536337Y-61473903D01*
X77764592Y-61535063D01*
X77853310Y-61542825D01*
X77918377Y-61568276D01*
X77959356Y-61624866D01*
X77963235Y-61694628D01*
X77928782Y-61755413D01*
X77895586Y-61778415D01*
X77814123Y-61817003D01*
X77771774Y-61837063D01*
X77718692Y-61849000D01*
X74663873Y-61849000D01*
X74596834Y-61829315D01*
X74592749Y-61826575D01*
X74420409Y-61705900D01*
X74420407Y-61705899D01*
X74220284Y-61612580D01*
X74220270Y-61612575D01*
X74006986Y-61555426D01*
X74006976Y-61555424D01*
X73787001Y-61536179D01*
X73786999Y-61536179D01*
X73567023Y-61555424D01*
X73567013Y-61555426D01*
X73353729Y-61612575D01*
X73353720Y-61612579D01*
X73153591Y-61705900D01*
X73153589Y-61705901D01*
X72981249Y-61826575D01*
X72915043Y-61848902D01*
X72910126Y-61849000D01*
X71242904Y-61849000D01*
X71175865Y-61829315D01*
X71130110Y-61776511D01*
X71120166Y-61707353D01*
X71130522Y-61672596D01*
X71167891Y-61592456D01*
X71167894Y-61592450D01*
X71225070Y-61379068D01*
X71241536Y-61190852D01*
X71244323Y-61159002D01*
X71244323Y-61158997D01*
X71225070Y-60938937D01*
X71225070Y-60938932D01*
X71167894Y-60725550D01*
X71074534Y-60525339D01*
X70947826Y-60344380D01*
X70791620Y-60188174D01*
X70791616Y-60188171D01*
X70791615Y-60188170D01*
X70610666Y-60061468D01*
X70610662Y-60061466D01*
X70517195Y-60017882D01*
X70410450Y-59968106D01*
X70410447Y-59968105D01*
X70410445Y-59968104D01*
X70197070Y-59910930D01*
X70197062Y-59910929D01*
X69977002Y-59891677D01*
X69976998Y-59891677D01*
X69756937Y-59910929D01*
X69756929Y-59910930D01*
X69543554Y-59968104D01*
X69543548Y-59968107D01*
X69343340Y-60061465D01*
X69343338Y-60061466D01*
X69162377Y-60188175D01*
X69006175Y-60344377D01*
X68879466Y-60525338D01*
X68879465Y-60525340D01*
X68819382Y-60654189D01*
X68773209Y-60706628D01*
X68706016Y-60725780D01*
X68639135Y-60705564D01*
X68594618Y-60654189D01*
X68534534Y-60525340D01*
X68534533Y-60525338D01*
X68407827Y-60344381D01*
X68407823Y-60344377D01*
X68251620Y-60188174D01*
X68251616Y-60188171D01*
X68251615Y-60188170D01*
X68070666Y-60061468D01*
X68070662Y-60061466D01*
X67977195Y-60017882D01*
X67870450Y-59968106D01*
X67870447Y-59968105D01*
X67870445Y-59968104D01*
X67657070Y-59910930D01*
X67657062Y-59910929D01*
X67437002Y-59891677D01*
X67436998Y-59891677D01*
X67216937Y-59910929D01*
X67216929Y-59910930D01*
X67003554Y-59968104D01*
X67003548Y-59968107D01*
X66803340Y-60061465D01*
X66803338Y-60061466D01*
X66622377Y-60188175D01*
X66466175Y-60344377D01*
X66339466Y-60525338D01*
X66339465Y-60525340D01*
X66279382Y-60654189D01*
X66233209Y-60706628D01*
X66166016Y-60725780D01*
X66099135Y-60705564D01*
X66054618Y-60654189D01*
X65994534Y-60525340D01*
X65994533Y-60525338D01*
X65867827Y-60344381D01*
X65867823Y-60344377D01*
X65711620Y-60188174D01*
X65711616Y-60188171D01*
X65711615Y-60188170D01*
X65530666Y-60061468D01*
X65530662Y-60061466D01*
X65437195Y-60017882D01*
X65330450Y-59968106D01*
X65330447Y-59968105D01*
X65330445Y-59968104D01*
X65117070Y-59910930D01*
X65117062Y-59910929D01*
X64897002Y-59891677D01*
X64896998Y-59891677D01*
X64676937Y-59910929D01*
X64676929Y-59910930D01*
X64463554Y-59968104D01*
X64463548Y-59968107D01*
X64263340Y-60061465D01*
X64263338Y-60061466D01*
X64082377Y-60188175D01*
X63926175Y-60344377D01*
X63799466Y-60525338D01*
X63799465Y-60525340D01*
X63706107Y-60725548D01*
X63706104Y-60725554D01*
X63648930Y-60938929D01*
X63648929Y-60938937D01*
X63629677Y-61158997D01*
X63629677Y-61159002D01*
X63640848Y-61286693D01*
X63627081Y-61355193D01*
X63578466Y-61405376D01*
X63517320Y-61421500D01*
X28176680Y-61421500D01*
X28109641Y-61401815D01*
X28063886Y-61349011D01*
X28053152Y-61286693D01*
X28064323Y-61159002D01*
X28064323Y-61158997D01*
X28045070Y-60938937D01*
X28045070Y-60938932D01*
X27987894Y-60725550D01*
X27894534Y-60525339D01*
X27767826Y-60344380D01*
X27611620Y-60188174D01*
X27611616Y-60188171D01*
X27611615Y-60188170D01*
X27430666Y-60061468D01*
X27430662Y-60061466D01*
X27337195Y-60017882D01*
X27284756Y-59971710D01*
X27265604Y-59904516D01*
X27285820Y-59837635D01*
X27338985Y-59792301D01*
X27389600Y-59781500D01*
X48622379Y-59781500D01*
X48632442Y-59781908D01*
X48686848Y-59786339D01*
X48767806Y-59775307D01*
X48771123Y-59774902D01*
X48852316Y-59766073D01*
X48852481Y-59766017D01*
X48875357Y-59760655D01*
X48875537Y-59760631D01*
X48952260Y-59732442D01*
X48955306Y-59731369D01*
X49032780Y-59705267D01*
X49032928Y-59705178D01*
X49054116Y-59695024D01*
X49054288Y-59694961D01*
X49123150Y-59650944D01*
X49125951Y-59649207D01*
X49195954Y-59607089D01*
X49196083Y-59606966D01*
X49214597Y-59592494D01*
X49214602Y-59592490D01*
X49214744Y-59592400D01*
X49272538Y-59534604D01*
X49274833Y-59532369D01*
X49334207Y-59476129D01*
X49334306Y-59475983D01*
X49349264Y-59457878D01*
X51753395Y-57053749D01*
X51814718Y-57020264D01*
X51841076Y-57017430D01*
X51987449Y-57017430D01*
X51997512Y-57017838D01*
X52051918Y-57022269D01*
X52132876Y-57011237D01*
X52136193Y-57010832D01*
X52217386Y-57002003D01*
X52217551Y-57001947D01*
X52240427Y-56996585D01*
X52240607Y-56996561D01*
X52317330Y-56968372D01*
X52320376Y-56967299D01*
X52397850Y-56941197D01*
X52397998Y-56941108D01*
X52419186Y-56930954D01*
X52419358Y-56930891D01*
X52488220Y-56886874D01*
X52491021Y-56885137D01*
X52561024Y-56843019D01*
X52561153Y-56842896D01*
X52579667Y-56828424D01*
X52579672Y-56828420D01*
X52579814Y-56828330D01*
X52637608Y-56770534D01*
X52639903Y-56768299D01*
X52699277Y-56712059D01*
X52699376Y-56711913D01*
X52714334Y-56693808D01*
X53655140Y-55753002D01*
X60417034Y-55753002D01*
X60436858Y-55979599D01*
X60436860Y-55979610D01*
X60495730Y-56199317D01*
X60495735Y-56199331D01*
X60591863Y-56405478D01*
X60642974Y-56478472D01*
X61324046Y-55797400D01*
X61336835Y-55878148D01*
X61394359Y-55991045D01*
X61483955Y-56080641D01*
X61596852Y-56138165D01*
X61677599Y-56150953D01*
X60996526Y-56832025D01*
X61069513Y-56883132D01*
X61069521Y-56883136D01*
X61275668Y-56979264D01*
X61275682Y-56979269D01*
X61495389Y-57038139D01*
X61495400Y-57038141D01*
X61721998Y-57057966D01*
X61722002Y-57057966D01*
X61948599Y-57038141D01*
X61948610Y-57038139D01*
X62168317Y-56979269D01*
X62168331Y-56979264D01*
X62374478Y-56883136D01*
X62447471Y-56832024D01*
X62216317Y-56600870D01*
X63921500Y-56600870D01*
X63921501Y-56600876D01*
X63927908Y-56660483D01*
X63978202Y-56795328D01*
X63978206Y-56795335D01*
X64064452Y-56910544D01*
X64064455Y-56910547D01*
X64179664Y-56996793D01*
X64179671Y-56996797D01*
X64314517Y-57047091D01*
X64314516Y-57047091D01*
X64321444Y-57047835D01*
X64374127Y-57053500D01*
X66069872Y-57053499D01*
X66129483Y-57047091D01*
X66264331Y-56996796D01*
X66379546Y-56910546D01*
X66465796Y-56795331D01*
X66516091Y-56660483D01*
X66522500Y-56600873D01*
X66522499Y-54905128D01*
X66516091Y-54845517D01*
X66512942Y-54837075D01*
X66465797Y-54710671D01*
X66465793Y-54710664D01*
X66379547Y-54595455D01*
X66379544Y-54595452D01*
X66264335Y-54509206D01*
X66264328Y-54509202D01*
X66129482Y-54458908D01*
X66129483Y-54458908D01*
X66069883Y-54452501D01*
X66069881Y-54452500D01*
X66069873Y-54452500D01*
X66069864Y-54452500D01*
X64374129Y-54452500D01*
X64374123Y-54452501D01*
X64314516Y-54458908D01*
X64179671Y-54509202D01*
X64179664Y-54509206D01*
X64064455Y-54595452D01*
X64064452Y-54595455D01*
X63978206Y-54710664D01*
X63978202Y-54710671D01*
X63927908Y-54845517D01*
X63923707Y-54884596D01*
X63921501Y-54905123D01*
X63921500Y-54905135D01*
X63921500Y-56600870D01*
X62216317Y-56600870D01*
X61766400Y-56150953D01*
X61847148Y-56138165D01*
X61960045Y-56080641D01*
X62049641Y-55991045D01*
X62107165Y-55878148D01*
X62119953Y-55797400D01*
X62801024Y-56478471D01*
X62852136Y-56405478D01*
X62948264Y-56199331D01*
X62948269Y-56199317D01*
X63007139Y-55979610D01*
X63007141Y-55979599D01*
X63026966Y-55753002D01*
X63026966Y-55752997D01*
X63007141Y-55526400D01*
X63007139Y-55526389D01*
X62948269Y-55306682D01*
X62948264Y-55306668D01*
X62852136Y-55100521D01*
X62852132Y-55100513D01*
X62801025Y-55027526D01*
X62119953Y-55708598D01*
X62107165Y-55627852D01*
X62049641Y-55514955D01*
X61960045Y-55425359D01*
X61847148Y-55367835D01*
X61766401Y-55355046D01*
X62447472Y-54673974D01*
X62374478Y-54622863D01*
X62168331Y-54526735D01*
X62168317Y-54526730D01*
X61948610Y-54467860D01*
X61948599Y-54467858D01*
X61722002Y-54448034D01*
X61721998Y-54448034D01*
X61495400Y-54467858D01*
X61495389Y-54467860D01*
X61275682Y-54526730D01*
X61275673Y-54526734D01*
X61069516Y-54622866D01*
X61069512Y-54622868D01*
X60996526Y-54673973D01*
X60996526Y-54673974D01*
X61677599Y-55355046D01*
X61596852Y-55367835D01*
X61483955Y-55425359D01*
X61394359Y-55514955D01*
X61336835Y-55627852D01*
X61324046Y-55708598D01*
X60642974Y-55027526D01*
X60642973Y-55027526D01*
X60591868Y-55100512D01*
X60591866Y-55100516D01*
X60495734Y-55306673D01*
X60495730Y-55306682D01*
X60436860Y-55526389D01*
X60436858Y-55526400D01*
X60417034Y-55752997D01*
X60417034Y-55753002D01*
X53655140Y-55753002D01*
X54546630Y-54861512D01*
X54607951Y-54828029D01*
X54661902Y-54828304D01*
X54669307Y-54829994D01*
X54788463Y-54857191D01*
X55013330Y-54867290D01*
X55236387Y-54837075D01*
X55450464Y-54767517D01*
X55648681Y-54660852D01*
X55824666Y-54520508D01*
X55972765Y-54350996D01*
X56088215Y-54157764D01*
X56167307Y-53947024D01*
X56207500Y-53725547D01*
X56207500Y-52756845D01*
X56192377Y-52588812D01*
X56162064Y-52478976D01*
X56132496Y-52371839D01*
X56132491Y-52371826D01*
X56128481Y-52363500D01*
X56034829Y-52169027D01*
X56001846Y-52123630D01*
X55902526Y-51986927D01*
X55902525Y-51986925D01*
X55739823Y-51831366D01*
X55551966Y-51707363D01*
X55344995Y-51618899D01*
X55344982Y-51618895D01*
X55125542Y-51568810D01*
X55125538Y-51568809D01*
X55125537Y-51568809D01*
X55125536Y-51568808D01*
X55125531Y-51568808D01*
X54900674Y-51558710D01*
X54900673Y-51558710D01*
X54900670Y-51558710D01*
X54677613Y-51588925D01*
X54677610Y-51588925D01*
X54677609Y-51588926D01*
X54463534Y-51658483D01*
X54265321Y-51765146D01*
X54265318Y-51765148D01*
X54089336Y-51905489D01*
X53941236Y-52075003D01*
X53825787Y-52268231D01*
X53803449Y-52327750D01*
X53761463Y-52383597D01*
X53695948Y-52407880D01*
X53627706Y-52392888D01*
X53578402Y-52343381D01*
X53575636Y-52337979D01*
X53494401Y-52169290D01*
X53494397Y-52169283D01*
X53362148Y-51987258D01*
X53362142Y-51987250D01*
X53199513Y-51831762D01*
X53011733Y-51707808D01*
X52804830Y-51619375D01*
X52804823Y-51619373D01*
X52667000Y-51587915D01*
X52667000Y-52777498D01*
X52559315Y-52728320D01*
X52452763Y-52713000D01*
X52381237Y-52713000D01*
X52274685Y-52728320D01*
X52167000Y-52777498D01*
X52167000Y-51585449D01*
X52166999Y-51585449D01*
X52137721Y-51589415D01*
X51923731Y-51658945D01*
X51725598Y-51765565D01*
X51725595Y-51765567D01*
X51549679Y-51905854D01*
X51401647Y-52075292D01*
X51401644Y-52075296D01*
X51357946Y-52148433D01*
X51306663Y-52195886D01*
X51237865Y-52208080D01*
X51173397Y-52181144D01*
X51133725Y-52123630D01*
X51127499Y-52084832D01*
X51127499Y-52015129D01*
X51127498Y-52015123D01*
X51127497Y-52015116D01*
X51121091Y-51955517D01*
X51101194Y-51902171D01*
X51070797Y-51820671D01*
X51070793Y-51820664D01*
X50984547Y-51705455D01*
X50984544Y-51705452D01*
X50869335Y-51619206D01*
X50869328Y-51619202D01*
X50734482Y-51568908D01*
X50734483Y-51568908D01*
X50674883Y-51562501D01*
X50674881Y-51562500D01*
X50674873Y-51562500D01*
X50674864Y-51562500D01*
X49079129Y-51562500D01*
X49079123Y-51562501D01*
X49019516Y-51568908D01*
X48884671Y-51619202D01*
X48884664Y-51619206D01*
X48769455Y-51705452D01*
X48769452Y-51705455D01*
X48683206Y-51820664D01*
X48683202Y-51820671D01*
X48632908Y-51955517D01*
X48627668Y-52004259D01*
X48626501Y-52015123D01*
X48626500Y-52015135D01*
X48626500Y-54410870D01*
X48626501Y-54410876D01*
X48632908Y-54470483D01*
X48683202Y-54605328D01*
X48683206Y-54605335D01*
X48769452Y-54720544D01*
X48769455Y-54720547D01*
X48884664Y-54806793D01*
X48884671Y-54806797D01*
X49019517Y-54857091D01*
X49019516Y-54857091D01*
X49026444Y-54857835D01*
X49079127Y-54863500D01*
X50674872Y-54863499D01*
X50734483Y-54857091D01*
X50869331Y-54806796D01*
X50984546Y-54720546D01*
X51070796Y-54605331D01*
X51121091Y-54470483D01*
X51127500Y-54410873D01*
X51127499Y-54346411D01*
X51147183Y-54279375D01*
X51199986Y-54233619D01*
X51269144Y-54223675D01*
X51332700Y-54252699D01*
X51351817Y-54273528D01*
X51471851Y-54438741D01*
X51471857Y-54438749D01*
X51634486Y-54594237D01*
X51822266Y-54718191D01*
X51927875Y-54763330D01*
X51981783Y-54807779D01*
X52003103Y-54874316D01*
X51985065Y-54941818D01*
X51966821Y-54965033D01*
X51708458Y-55223397D01*
X51647135Y-55256882D01*
X51594996Y-55257006D01*
X51521716Y-55241430D01*
X51332424Y-55241430D01*
X51299967Y-55248328D01*
X51147267Y-55280785D01*
X51147262Y-55280787D01*
X50974340Y-55357778D01*
X50974335Y-55357781D01*
X50821199Y-55469041D01*
X50694536Y-55609715D01*
X50666354Y-55658526D01*
X50646649Y-55684205D01*
X48336675Y-57994181D01*
X48275352Y-58027666D01*
X48248994Y-58030500D01*
X29491500Y-58030500D01*
X29424461Y-58010815D01*
X29378706Y-57958011D01*
X29367500Y-57906500D01*
X29367499Y-57520005D01*
X29387183Y-57452966D01*
X29403813Y-57432329D01*
X31705360Y-55130782D01*
X31712740Y-55123979D01*
X31754357Y-55088631D01*
X31803841Y-55023533D01*
X31805863Y-55020949D01*
X31857030Y-54957297D01*
X31857109Y-54957138D01*
X31869489Y-54937177D01*
X31869602Y-54937029D01*
X31884358Y-54905135D01*
X31903905Y-54862883D01*
X31905331Y-54859903D01*
X31941641Y-54786693D01*
X31941685Y-54786514D01*
X31949484Y-54764363D01*
X31949562Y-54764197D01*
X31951263Y-54756472D01*
X31967127Y-54684397D01*
X31967894Y-54681125D01*
X31987600Y-54601889D01*
X31987604Y-54601715D01*
X31990461Y-54578391D01*
X31990500Y-54578216D01*
X31990500Y-54496536D01*
X31990545Y-54493178D01*
X31990974Y-54477331D01*
X31992757Y-54411527D01*
X31992720Y-54411334D01*
X31990500Y-54387975D01*
X31990500Y-54131529D01*
X32010185Y-54064490D01*
X32062989Y-54018735D01*
X32132147Y-54008791D01*
X32169592Y-54020440D01*
X32208307Y-54039641D01*
X32208481Y-54039684D01*
X32230626Y-54047480D01*
X32230803Y-54047562D01*
X32310579Y-54065121D01*
X32313827Y-54065882D01*
X32393111Y-54085600D01*
X32393284Y-54085604D01*
X32416602Y-54088460D01*
X32416784Y-54088500D01*
X32498463Y-54088500D01*
X32501821Y-54088545D01*
X32583473Y-54090757D01*
X32583655Y-54090721D01*
X32607023Y-54088500D01*
X35167501Y-54088500D01*
X35234540Y-54108185D01*
X35280295Y-54160989D01*
X35291501Y-54212500D01*
X35291501Y-54410876D01*
X35297908Y-54470483D01*
X35348202Y-54605328D01*
X35348206Y-54605335D01*
X35434452Y-54720544D01*
X35434455Y-54720547D01*
X35549664Y-54806793D01*
X35549671Y-54806797D01*
X35684517Y-54857091D01*
X35684516Y-54857091D01*
X35691444Y-54857835D01*
X35744127Y-54863500D01*
X37339872Y-54863499D01*
X37399483Y-54857091D01*
X37534331Y-54806796D01*
X37649546Y-54720546D01*
X37735796Y-54605331D01*
X37786091Y-54470483D01*
X37792500Y-54410873D01*
X37792499Y-54346411D01*
X37812183Y-54279375D01*
X37864986Y-54233619D01*
X37934144Y-54223675D01*
X37997700Y-54252699D01*
X38016817Y-54273528D01*
X38136851Y-54438741D01*
X38136857Y-54438749D01*
X38299486Y-54594237D01*
X38487266Y-54718191D01*
X38694169Y-54806624D01*
X38694178Y-54806627D01*
X38831999Y-54838084D01*
X38832000Y-54838084D01*
X38832000Y-53648501D01*
X38939685Y-53697680D01*
X39046237Y-53713000D01*
X39117763Y-53713000D01*
X39224315Y-53697680D01*
X39332000Y-53648501D01*
X39332000Y-54840549D01*
X39361267Y-54836586D01*
X39361273Y-54836585D01*
X39575268Y-54767054D01*
X39773401Y-54660434D01*
X39773404Y-54660432D01*
X39949320Y-54520145D01*
X40097352Y-54350707D01*
X40097359Y-54350699D01*
X40212759Y-54157553D01*
X40212765Y-54157542D01*
X40235007Y-54098277D01*
X40276991Y-54042428D01*
X40342505Y-54018144D01*
X40410748Y-54033135D01*
X40460053Y-54082640D01*
X40462820Y-54088045D01*
X40544167Y-54256966D01*
X40544171Y-54256974D01*
X40676475Y-54439076D01*
X40708190Y-54469397D01*
X40743044Y-54529953D01*
X40746500Y-54559025D01*
X40746500Y-55203378D01*
X40746091Y-55213442D01*
X40741660Y-55267845D01*
X40752688Y-55348790D01*
X40753096Y-55352120D01*
X40761927Y-55433316D01*
X40761929Y-55433327D01*
X40761990Y-55433506D01*
X40767340Y-55456331D01*
X40767366Y-55456525D01*
X40767369Y-55456537D01*
X40795540Y-55533219D01*
X40796655Y-55536385D01*
X40822731Y-55613776D01*
X40822734Y-55613782D01*
X40822832Y-55613945D01*
X40832969Y-55635099D01*
X40833036Y-55635283D01*
X40833040Y-55635290D01*
X40877046Y-55704139D01*
X40878809Y-55706981D01*
X40906499Y-55753002D01*
X40920912Y-55776955D01*
X40921042Y-55777092D01*
X40935492Y-55795575D01*
X40935600Y-55795744D01*
X40993395Y-55853539D01*
X40995702Y-55855910D01*
X41051866Y-55915203D01*
X41051868Y-55915204D01*
X41051871Y-55915207D01*
X41052028Y-55915314D01*
X41070121Y-55930265D01*
X41510579Y-56370723D01*
X41530285Y-56396404D01*
X41558465Y-56445214D01*
X41685129Y-56585888D01*
X41838265Y-56697148D01*
X41838270Y-56697151D01*
X42011192Y-56774142D01*
X42011197Y-56774144D01*
X42196354Y-56813500D01*
X42196355Y-56813500D01*
X42385644Y-56813500D01*
X42385646Y-56813500D01*
X42570803Y-56774144D01*
X42743730Y-56697151D01*
X42896871Y-56585888D01*
X43023533Y-56445216D01*
X43118179Y-56281284D01*
X43176674Y-56101256D01*
X43196460Y-55913000D01*
X43176674Y-55724744D01*
X43118179Y-55544716D01*
X43023533Y-55380784D01*
X42896871Y-55240112D01*
X42756243Y-55137940D01*
X42741447Y-55125303D01*
X42533819Y-54917675D01*
X42500334Y-54856352D01*
X42497500Y-54829994D01*
X42497500Y-54558079D01*
X42517185Y-54491040D01*
X42528120Y-54476494D01*
X42637759Y-54351003D01*
X42637759Y-54351002D01*
X42637765Y-54350996D01*
X42753215Y-54157764D01*
X42832307Y-53947024D01*
X42872500Y-53725547D01*
X42872500Y-52756845D01*
X42857377Y-52588812D01*
X42827064Y-52478976D01*
X42797496Y-52371839D01*
X42797491Y-52371826D01*
X42793481Y-52363500D01*
X42699829Y-52169027D01*
X42666846Y-52123630D01*
X42567526Y-51986927D01*
X42567525Y-51986925D01*
X42404823Y-51831366D01*
X42216966Y-51707363D01*
X42009995Y-51618899D01*
X42009982Y-51618895D01*
X41790542Y-51568810D01*
X41790538Y-51568809D01*
X41790537Y-51568809D01*
X41790536Y-51568808D01*
X41790531Y-51568808D01*
X41565674Y-51558710D01*
X41565673Y-51558710D01*
X41565670Y-51558710D01*
X41368274Y-51585449D01*
X41342613Y-51588925D01*
X41342603Y-51588927D01*
X41334461Y-51591573D01*
X41264620Y-51593566D01*
X41208466Y-51561322D01*
X40544793Y-50897649D01*
X40537979Y-50890258D01*
X40502631Y-50848643D01*
X40502630Y-50848642D01*
X40437607Y-50799213D01*
X40434961Y-50797144D01*
X40371302Y-50745973D01*
X40371294Y-50745968D01*
X40371120Y-50745882D01*
X40351182Y-50733514D01*
X40351029Y-50733398D01*
X40276897Y-50699100D01*
X40273872Y-50697650D01*
X40200700Y-50661362D01*
X40200696Y-50661360D01*
X40200693Y-50661359D01*
X40200687Y-50661357D01*
X40200680Y-50661355D01*
X40200488Y-50661307D01*
X40178385Y-50653525D01*
X40178198Y-50653438D01*
X40178195Y-50653437D01*
X40098412Y-50635875D01*
X40095145Y-50635109D01*
X40015887Y-50615399D01*
X40015689Y-50615394D01*
X39992413Y-50612543D01*
X39992222Y-50612501D01*
X39992219Y-50612500D01*
X39992216Y-50612500D01*
X39992212Y-50612500D01*
X39910537Y-50612500D01*
X39907179Y-50612455D01*
X39825527Y-50610243D01*
X39825345Y-50610278D01*
X39801977Y-50612500D01*
X34912619Y-50612500D01*
X34902554Y-50612091D01*
X34848154Y-50607660D01*
X34767212Y-50618688D01*
X34763879Y-50619096D01*
X34752899Y-50620290D01*
X34684125Y-50607968D01*
X34632929Y-50560420D01*
X34616174Y-50509982D01*
X34600174Y-50357744D01*
X34541679Y-50177716D01*
X34490810Y-50089609D01*
X34474338Y-50021709D01*
X34497191Y-49955683D01*
X34506037Y-49944651D01*
X34514533Y-49935216D01*
X34609179Y-49771284D01*
X34667674Y-49591256D01*
X34687460Y-49403000D01*
X34667674Y-49214744D01*
X34609179Y-49034716D01*
X34514533Y-48870784D01*
X34387871Y-48730112D01*
X34356813Y-48707547D01*
X34234734Y-48618851D01*
X34234729Y-48618848D01*
X34061807Y-48541857D01*
X34061802Y-48541855D01*
X33916001Y-48510865D01*
X33876646Y-48502500D01*
X33687354Y-48502500D01*
X33654897Y-48509398D01*
X33502197Y-48541855D01*
X33502192Y-48541857D01*
X33329270Y-48618848D01*
X33329265Y-48618851D01*
X33176129Y-48730111D01*
X33049466Y-48870785D01*
X32954821Y-49034715D01*
X32954818Y-49034722D01*
X32911319Y-49168600D01*
X32896326Y-49214744D01*
X32888807Y-49286288D01*
X32887212Y-49301462D01*
X32860627Y-49366077D01*
X32803330Y-49406061D01*
X32763891Y-49412500D01*
X30445109Y-49412500D01*
X30378070Y-49392815D01*
X30332315Y-49340011D01*
X30321788Y-49301462D01*
X30320193Y-49286288D01*
X30312674Y-49214744D01*
X30254179Y-49034716D01*
X30159533Y-48870784D01*
X30032871Y-48730112D01*
X30001813Y-48707547D01*
X29879734Y-48618851D01*
X29879729Y-48618848D01*
X29706807Y-48541857D01*
X29706802Y-48541855D01*
X29561001Y-48510865D01*
X29521646Y-48502500D01*
X29332354Y-48502500D01*
X29299897Y-48509398D01*
X29147197Y-48541855D01*
X29147192Y-48541857D01*
X28974270Y-48618848D01*
X28974265Y-48618851D01*
X28821129Y-48730111D01*
X28694466Y-48870785D01*
X28599821Y-49034715D01*
X28599818Y-49034722D01*
X28556319Y-49168600D01*
X28541326Y-49214744D01*
X28521540Y-49403000D01*
X28541326Y-49591256D01*
X28541327Y-49591259D01*
X28587133Y-49732237D01*
X28589128Y-49802078D01*
X28553047Y-49861911D01*
X28490346Y-49892739D01*
X28420932Y-49884774D01*
X28381521Y-49858236D01*
X24795934Y-46272649D01*
X24789120Y-46265258D01*
X24753772Y-46223643D01*
X24731417Y-46206649D01*
X24688748Y-46174213D01*
X24686102Y-46172144D01*
X24622443Y-46120973D01*
X24622435Y-46120968D01*
X24622261Y-46120882D01*
X24602323Y-46108514D01*
X24602170Y-46108398D01*
X24528038Y-46074100D01*
X24525013Y-46072650D01*
X24451841Y-46036362D01*
X24451837Y-46036360D01*
X24451834Y-46036359D01*
X24451828Y-46036357D01*
X24451821Y-46036355D01*
X24451629Y-46036307D01*
X24429526Y-46028525D01*
X24429339Y-46028438D01*
X24429336Y-46028437D01*
X24349553Y-46010875D01*
X24346286Y-46010109D01*
X24267028Y-45990399D01*
X24266830Y-45990394D01*
X24243554Y-45987543D01*
X24243363Y-45987501D01*
X24243360Y-45987500D01*
X24243357Y-45987500D01*
X24243353Y-45987500D01*
X24161678Y-45987500D01*
X24158320Y-45987455D01*
X24076668Y-45985243D01*
X24076486Y-45985278D01*
X24053118Y-45987500D01*
X22004006Y-45987500D01*
X21958031Y-45974000D01*
X41004540Y-45974000D01*
X41024326Y-46162256D01*
X41024327Y-46162259D01*
X41082818Y-46342277D01*
X41082821Y-46342284D01*
X41177467Y-46506216D01*
X41277821Y-46617670D01*
X41304129Y-46646888D01*
X41457265Y-46758148D01*
X41457270Y-46758151D01*
X41630192Y-46835142D01*
X41630197Y-46835144D01*
X41815354Y-46874500D01*
X41815355Y-46874500D01*
X42004644Y-46874500D01*
X42004646Y-46874500D01*
X42189803Y-46835144D01*
X42362730Y-46758151D01*
X42515871Y-46646888D01*
X42520420Y-46641836D01*
X42521600Y-46640526D01*
X42581087Y-46603879D01*
X42613748Y-46599500D01*
X44139548Y-46599500D01*
X44206587Y-46619185D01*
X44227229Y-46635819D01*
X44273038Y-46681628D01*
X44306523Y-46742951D01*
X44308678Y-46756347D01*
X44313450Y-46801743D01*
X44326326Y-46924256D01*
X44326327Y-46924259D01*
X44384818Y-47104277D01*
X44384821Y-47104284D01*
X44479467Y-47268216D01*
X44588263Y-47389046D01*
X44606129Y-47408888D01*
X44759265Y-47520148D01*
X44759270Y-47520151D01*
X44932192Y-47597142D01*
X44932197Y-47597144D01*
X45117354Y-47636500D01*
X45117355Y-47636500D01*
X45306644Y-47636500D01*
X45306646Y-47636500D01*
X45491803Y-47597144D01*
X45664730Y-47520151D01*
X45817871Y-47408888D01*
X45944533Y-47268216D01*
X46039179Y-47104284D01*
X46097674Y-46924256D01*
X46117460Y-46736000D01*
X46097674Y-46547744D01*
X46039179Y-46367716D01*
X45949835Y-46212967D01*
X45933362Y-46145066D01*
X45949833Y-46088970D01*
X45986194Y-46025993D01*
X46044689Y-45845965D01*
X46064475Y-45657709D01*
X46044689Y-45469453D01*
X45986344Y-45289886D01*
X45986196Y-45289431D01*
X45986195Y-45289429D01*
X45986194Y-45289425D01*
X45957383Y-45239522D01*
X45940911Y-45171627D01*
X45957382Y-45115530D01*
X46009964Y-45024457D01*
X46068459Y-44844429D01*
X46088245Y-44656173D01*
X46068459Y-44467917D01*
X46009964Y-44287889D01*
X45915318Y-44123957D01*
X45788656Y-43983285D01*
X45768981Y-43968990D01*
X45635519Y-43872024D01*
X45635514Y-43872021D01*
X45462592Y-43795030D01*
X45462587Y-43795028D01*
X45291286Y-43758618D01*
X45277431Y-43755673D01*
X45088139Y-43755673D01*
X45088135Y-43755673D01*
X45061416Y-43761351D01*
X45004807Y-43760166D01*
X44986632Y-43755500D01*
X44986631Y-43755500D01*
X44966596Y-43755500D01*
X44947198Y-43753973D01*
X44939774Y-43752797D01*
X44927417Y-43750840D01*
X44927416Y-43750840D01*
X44883937Y-43754950D01*
X44872268Y-43755500D01*
X43061205Y-43755500D01*
X42994166Y-43735815D01*
X42948411Y-43683011D01*
X42937884Y-43644462D01*
X42922674Y-43499744D01*
X42864179Y-43319716D01*
X42769533Y-43155784D01*
X42642871Y-43015112D01*
X42642870Y-43015111D01*
X42489734Y-42903851D01*
X42489729Y-42903848D01*
X42316807Y-42826857D01*
X42316802Y-42826855D01*
X42171001Y-42795865D01*
X42131646Y-42787500D01*
X41942354Y-42787500D01*
X41909897Y-42794398D01*
X41757197Y-42826855D01*
X41757192Y-42826857D01*
X41584270Y-42903848D01*
X41584265Y-42903851D01*
X41431129Y-43015111D01*
X41304466Y-43155785D01*
X41209821Y-43319715D01*
X41209818Y-43319722D01*
X41168951Y-43445500D01*
X41151326Y-43499744D01*
X41131540Y-43688000D01*
X41151326Y-43876256D01*
X41151327Y-43876259D01*
X41209821Y-44056286D01*
X41209822Y-44056288D01*
X41237441Y-44104126D01*
X41253914Y-44172026D01*
X41231061Y-44238053D01*
X41222205Y-44249096D01*
X41177468Y-44298782D01*
X41177464Y-44298787D01*
X41082821Y-44462715D01*
X41082818Y-44462722D01*
X41035407Y-44608639D01*
X41024326Y-44642744D01*
X41004540Y-44831000D01*
X41024326Y-45019256D01*
X41024327Y-45019259D01*
X41082818Y-45199277D01*
X41082820Y-45199281D01*
X41082821Y-45199284D01*
X41130712Y-45282235D01*
X41164352Y-45340501D01*
X41180824Y-45408401D01*
X41164352Y-45464499D01*
X41082820Y-45605718D01*
X41082818Y-45605722D01*
X41024327Y-45785740D01*
X41024326Y-45785744D01*
X41004540Y-45974000D01*
X21958031Y-45974000D01*
X21936967Y-45967815D01*
X21916325Y-45951181D01*
X20764819Y-44799675D01*
X20731334Y-44738352D01*
X20728500Y-44711994D01*
X20728500Y-28476510D01*
X20748185Y-28409471D01*
X20800989Y-28363716D01*
X20852500Y-28352510D01*
X20975041Y-28352510D01*
X20975043Y-28352510D01*
X21155232Y-28314210D01*
X21181013Y-28311500D01*
X25470548Y-28311500D01*
X25537587Y-28331185D01*
X25558228Y-28347818D01*
X27144518Y-29934109D01*
X28709197Y-31498788D01*
X28719022Y-31511051D01*
X28719243Y-31510869D01*
X28724211Y-31516874D01*
X28724213Y-31516876D01*
X28724214Y-31516877D01*
X28741556Y-31533162D01*
X28773222Y-31562899D01*
X28776021Y-31565612D01*
X28795522Y-31585114D01*
X28795526Y-31585117D01*
X28795529Y-31585120D01*
X28798702Y-31587581D01*
X28807574Y-31595159D01*
X28839418Y-31625062D01*
X28856976Y-31634714D01*
X28873235Y-31645395D01*
X28889064Y-31657673D01*
X28929155Y-31675021D01*
X28939626Y-31680151D01*
X28962180Y-31692550D01*
X28977902Y-31701194D01*
X28977904Y-31701195D01*
X28977908Y-31701197D01*
X28997316Y-31706180D01*
X29015719Y-31712481D01*
X29034101Y-31720436D01*
X29034102Y-31720436D01*
X29034104Y-31720437D01*
X29077250Y-31727270D01*
X29088672Y-31729636D01*
X29130981Y-31740500D01*
X29151016Y-31740500D01*
X29170414Y-31742026D01*
X29190194Y-31745159D01*
X29190195Y-31745160D01*
X29190195Y-31745159D01*
X29190196Y-31745160D01*
X29233675Y-31741050D01*
X29245344Y-31740500D01*
X30755952Y-31740500D01*
X30822991Y-31760185D01*
X30868746Y-31812989D01*
X30878690Y-31882147D01*
X30876057Y-31895335D01*
X30870500Y-31916976D01*
X30870500Y-31937016D01*
X30868973Y-31956415D01*
X30865840Y-31976194D01*
X30865840Y-31976195D01*
X30869950Y-32019674D01*
X30870500Y-32031343D01*
X30870500Y-32927950D01*
X30868775Y-32943567D01*
X30869061Y-32943594D01*
X30868326Y-32951360D01*
X30870439Y-33018567D01*
X30870500Y-33022462D01*
X30870500Y-33050052D01*
X30871003Y-33054030D01*
X30871918Y-33065662D01*
X30873290Y-33109319D01*
X30873291Y-33109322D01*
X30878880Y-33128562D01*
X30882824Y-33147606D01*
X30885336Y-33167487D01*
X30901414Y-33208098D01*
X30905197Y-33219147D01*
X30916968Y-33259662D01*
X30917382Y-33261085D01*
X30920630Y-33266578D01*
X30927580Y-33278329D01*
X30936138Y-33295798D01*
X30943514Y-33314427D01*
X30969181Y-33349755D01*
X30975593Y-33359516D01*
X30997828Y-33397112D01*
X30997833Y-33397119D01*
X31011990Y-33411275D01*
X31024628Y-33426071D01*
X31034839Y-33440126D01*
X31036406Y-33442282D01*
X31060554Y-33462259D01*
X31070057Y-33470120D01*
X31078698Y-33477983D01*
X32064183Y-34463468D01*
X32097668Y-34524791D01*
X32092684Y-34594483D01*
X32050812Y-34650416D01*
X31985348Y-34674833D01*
X31976502Y-34675149D01*
X31420102Y-34675149D01*
X31353063Y-34655464D01*
X31332421Y-34638830D01*
X30877736Y-34184145D01*
X30858684Y-34159583D01*
X30851174Y-34146884D01*
X30851172Y-34146881D01*
X30851170Y-34146878D01*
X30837005Y-34132713D01*
X30824368Y-34117918D01*
X30812594Y-34101712D01*
X30812591Y-34101710D01*
X30812591Y-34101709D01*
X30778945Y-34073875D01*
X30770304Y-34066012D01*
X29689504Y-32985212D01*
X29679681Y-32972950D01*
X29679460Y-32973134D01*
X29674487Y-32967122D01*
X29625477Y-32921099D01*
X29622678Y-32918386D01*
X29603178Y-32898885D01*
X29603172Y-32898880D01*
X29599987Y-32896409D01*
X29591135Y-32888848D01*
X29559283Y-32858938D01*
X29559281Y-32858936D01*
X29559278Y-32858935D01*
X29541730Y-32849288D01*
X29525464Y-32838604D01*
X29509633Y-32826324D01*
X29469550Y-32808978D01*
X29459064Y-32803841D01*
X29420795Y-32782803D01*
X29420793Y-32782802D01*
X29401394Y-32777822D01*
X29382982Y-32771518D01*
X29364599Y-32763562D01*
X29364593Y-32763560D01*
X29321461Y-32756729D01*
X29310023Y-32754361D01*
X29267721Y-32743500D01*
X29267720Y-32743500D01*
X29247685Y-32743500D01*
X29228287Y-32741973D01*
X29220863Y-32740797D01*
X29208506Y-32738840D01*
X29208505Y-32738840D01*
X29165026Y-32742950D01*
X29153357Y-32743500D01*
X28726452Y-32743500D01*
X28659413Y-32723815D01*
X28638771Y-32707181D01*
X27341124Y-31409533D01*
X27307639Y-31348210D01*
X27304805Y-31321852D01*
X27304805Y-31205651D01*
X27306529Y-31190031D01*
X27306244Y-31190005D01*
X27306976Y-31182249D01*
X27306978Y-31182242D01*
X27304866Y-31115035D01*
X27304805Y-31111140D01*
X27304805Y-31083563D01*
X27304805Y-31083559D01*
X27304301Y-31079574D01*
X27303385Y-31067930D01*
X27302014Y-31024282D01*
X27296427Y-31005053D01*
X27292479Y-30985993D01*
X27292347Y-30984944D01*
X27289969Y-30966117D01*
X27289968Y-30966115D01*
X27289968Y-30966113D01*
X27273893Y-30925513D01*
X27270109Y-30914461D01*
X27257923Y-30872518D01*
X27257921Y-30872515D01*
X27247728Y-30855280D01*
X27239166Y-30837803D01*
X27231792Y-30819178D01*
X27206121Y-30783846D01*
X27199710Y-30774086D01*
X27177475Y-30736489D01*
X27177473Y-30736487D01*
X27177470Y-30736483D01*
X27163311Y-30722324D01*
X27150673Y-30707528D01*
X27138899Y-30691322D01*
X27124480Y-30679394D01*
X27105245Y-30663481D01*
X27096604Y-30655618D01*
X26608145Y-30167158D01*
X26598322Y-30154896D01*
X26598101Y-30155080D01*
X26593128Y-30149068D01*
X26544118Y-30103045D01*
X26541319Y-30100332D01*
X26521819Y-30080831D01*
X26521813Y-30080826D01*
X26518628Y-30078355D01*
X26509776Y-30070794D01*
X26477924Y-30040884D01*
X26477922Y-30040882D01*
X26471694Y-30037459D01*
X26422429Y-29987913D01*
X26408109Y-29941756D01*
X26398536Y-29850669D01*
X26398534Y-29850664D01*
X26340041Y-29670640D01*
X26245395Y-29506708D01*
X26118733Y-29366036D01*
X26118732Y-29366035D01*
X25965596Y-29254775D01*
X25965591Y-29254772D01*
X25792669Y-29177781D01*
X25792664Y-29177779D01*
X25646863Y-29146789D01*
X25607508Y-29138424D01*
X25418216Y-29138424D01*
X25385759Y-29145322D01*
X25233059Y-29177779D01*
X25233054Y-29177781D01*
X25060132Y-29254772D01*
X25060127Y-29254775D01*
X24906991Y-29366035D01*
X24780328Y-29506709D01*
X24685683Y-29670639D01*
X24685680Y-29670646D01*
X24633274Y-29831936D01*
X24627188Y-29850668D01*
X24607402Y-30038924D01*
X24626884Y-30224290D01*
X24627189Y-30227185D01*
X24627189Y-30227186D01*
X24630960Y-30238792D01*
X24632953Y-30308633D01*
X24605178Y-30360078D01*
X24507347Y-30468730D01*
X24412702Y-30632661D01*
X24412699Y-30632668D01*
X24354208Y-30812686D01*
X24354207Y-30812690D01*
X24334421Y-31000946D01*
X24354207Y-31189202D01*
X24354208Y-31189205D01*
X24412699Y-31369223D01*
X24412702Y-31369230D01*
X24507348Y-31533162D01*
X24603018Y-31639414D01*
X24634010Y-31673834D01*
X24787146Y-31785094D01*
X24787151Y-31785097D01*
X24960073Y-31862088D01*
X24960078Y-31862090D01*
X25145235Y-31901446D01*
X25145236Y-31901446D01*
X25334525Y-31901446D01*
X25334527Y-31901446D01*
X25470373Y-31872571D01*
X25540038Y-31877887D01*
X25595772Y-31920024D01*
X25614652Y-31967060D01*
X25616699Y-31966535D01*
X25618640Y-31974095D01*
X25634719Y-32014708D01*
X25638502Y-32025757D01*
X25650686Y-32067693D01*
X25660885Y-32084939D01*
X25669443Y-32102408D01*
X25676819Y-32121037D01*
X25702486Y-32156365D01*
X25708898Y-32166126D01*
X25731133Y-32203722D01*
X25731138Y-32203729D01*
X25745295Y-32217885D01*
X25757933Y-32232681D01*
X25769710Y-32248891D01*
X25769711Y-32248892D01*
X25803362Y-32276730D01*
X25812003Y-32284593D01*
X27730197Y-34202788D01*
X27740022Y-34215051D01*
X27740243Y-34214869D01*
X27745210Y-34220874D01*
X27777967Y-34251634D01*
X27813362Y-34311875D01*
X27816405Y-34354988D01*
X27798829Y-34522213D01*
X27772244Y-34586828D01*
X27765900Y-34594136D01*
X27746099Y-34615222D01*
X27743390Y-34618017D01*
X27723889Y-34637517D01*
X27723875Y-34637534D01*
X27721407Y-34640715D01*
X27713843Y-34649570D01*
X27683937Y-34681418D01*
X27683936Y-34681420D01*
X27674284Y-34698976D01*
X27663610Y-34715226D01*
X27651329Y-34731061D01*
X27651324Y-34731068D01*
X27633975Y-34771158D01*
X27628838Y-34781644D01*
X27607803Y-34819906D01*
X27602822Y-34839307D01*
X27596521Y-34857710D01*
X27588562Y-34876102D01*
X27588561Y-34876105D01*
X27581728Y-34919243D01*
X27579360Y-34930674D01*
X27568501Y-34972971D01*
X27568500Y-34972982D01*
X27568500Y-34993016D01*
X27566973Y-35012415D01*
X27563840Y-35032194D01*
X27563840Y-35032195D01*
X27567950Y-35075674D01*
X27568500Y-35087343D01*
X27568500Y-36385312D01*
X27548815Y-36452351D01*
X27536650Y-36468284D01*
X27461466Y-36551784D01*
X27366821Y-36715715D01*
X27366818Y-36715722D01*
X27312610Y-36882558D01*
X27308326Y-36895744D01*
X27288540Y-37084000D01*
X27308326Y-37272256D01*
X27308327Y-37272259D01*
X27366818Y-37452277D01*
X27366821Y-37452284D01*
X27461467Y-37616216D01*
X27510350Y-37670506D01*
X27583570Y-37751825D01*
X27613800Y-37814816D01*
X27605175Y-37884152D01*
X27560433Y-37937817D01*
X27493781Y-37958775D01*
X27491420Y-37958797D01*
X27036333Y-37958797D01*
X27020716Y-37957073D01*
X27020689Y-37957359D01*
X27012927Y-37956624D01*
X26945740Y-37958736D01*
X26941846Y-37958797D01*
X26914246Y-37958797D01*
X26910558Y-37959262D01*
X26910245Y-37959302D01*
X26898627Y-37960215D01*
X26854968Y-37961587D01*
X26854965Y-37961588D01*
X26835722Y-37967178D01*
X26816679Y-37971122D01*
X26796800Y-37973633D01*
X26796799Y-37973634D01*
X26756189Y-37989712D01*
X26745144Y-37993494D01*
X26703204Y-38005680D01*
X26703200Y-38005682D01*
X26685961Y-38015877D01*
X26668494Y-38024434D01*
X26649865Y-38031809D01*
X26649863Y-38031811D01*
X26614522Y-38057486D01*
X26604764Y-38063896D01*
X26567176Y-38086125D01*
X26553004Y-38100297D01*
X26538219Y-38112925D01*
X26525522Y-38122151D01*
X26522008Y-38124704D01*
X26494167Y-38158356D01*
X26486307Y-38166993D01*
X25836208Y-38817092D01*
X25823951Y-38826913D01*
X25824134Y-38827134D01*
X25818122Y-38832107D01*
X25772098Y-38881116D01*
X25769391Y-38883909D01*
X25749889Y-38903410D01*
X25749875Y-38903427D01*
X25747407Y-38906608D01*
X25739843Y-38915463D01*
X25709937Y-38947311D01*
X25709936Y-38947313D01*
X25700284Y-38964869D01*
X25689610Y-38981119D01*
X25677329Y-38996954D01*
X25677324Y-38996961D01*
X25659975Y-39037051D01*
X25654838Y-39047537D01*
X25633803Y-39085799D01*
X25628822Y-39105200D01*
X25622521Y-39123603D01*
X25614562Y-39141995D01*
X25614561Y-39141998D01*
X25607728Y-39185136D01*
X25605360Y-39196567D01*
X25594501Y-39238864D01*
X25594500Y-39238875D01*
X25594500Y-39258909D01*
X25592973Y-39278308D01*
X25589840Y-39298087D01*
X25589840Y-39298088D01*
X25593950Y-39341567D01*
X25594500Y-39353236D01*
X25594500Y-39714052D01*
X25574815Y-39781091D01*
X25522011Y-39826846D01*
X25520936Y-39827331D01*
X25481368Y-39844947D01*
X25328228Y-39956210D01*
X25201565Y-40096884D01*
X25106920Y-40260814D01*
X25106917Y-40260821D01*
X25048426Y-40440839D01*
X25048425Y-40440843D01*
X25028639Y-40629099D01*
X25048425Y-40817355D01*
X25048426Y-40817358D01*
X25106917Y-40997376D01*
X25106920Y-40997383D01*
X25201566Y-41161315D01*
X25275605Y-41243543D01*
X25328228Y-41301987D01*
X25481364Y-41413247D01*
X25481369Y-41413250D01*
X25654291Y-41490241D01*
X25654296Y-41490243D01*
X25839453Y-41529599D01*
X25839454Y-41529599D01*
X25920500Y-41529599D01*
X25987539Y-41549284D01*
X26033294Y-41602088D01*
X26044500Y-41653599D01*
X26044500Y-41700255D01*
X26042775Y-41715872D01*
X26043061Y-41715899D01*
X26042326Y-41723665D01*
X26044439Y-41790872D01*
X26044500Y-41794767D01*
X26044500Y-41822357D01*
X26045003Y-41826335D01*
X26045918Y-41837967D01*
X26047290Y-41881624D01*
X26047291Y-41881627D01*
X26052880Y-41900867D01*
X26056824Y-41919911D01*
X26057179Y-41922715D01*
X26059336Y-41939792D01*
X26075414Y-41980403D01*
X26079197Y-41991452D01*
X26091381Y-42033388D01*
X26101580Y-42050634D01*
X26110138Y-42068103D01*
X26117514Y-42086732D01*
X26143181Y-42122060D01*
X26149593Y-42131821D01*
X26171828Y-42169417D01*
X26171833Y-42169424D01*
X26185990Y-42183580D01*
X26198628Y-42198376D01*
X26210405Y-42214586D01*
X26210406Y-42214587D01*
X26244057Y-42242425D01*
X26252698Y-42250288D01*
X26493038Y-42490628D01*
X26526523Y-42551951D01*
X26528678Y-42565347D01*
X26532050Y-42597429D01*
X26546326Y-42733256D01*
X26546327Y-42733259D01*
X26604818Y-42913277D01*
X26604821Y-42913284D01*
X26699467Y-43077216D01*
X26770211Y-43155785D01*
X26826129Y-43217888D01*
X26979265Y-43329148D01*
X26979270Y-43329151D01*
X27152192Y-43406142D01*
X27152197Y-43406144D01*
X27337354Y-43445500D01*
X27337355Y-43445500D01*
X27526644Y-43445500D01*
X27526646Y-43445500D01*
X27711803Y-43406144D01*
X27884730Y-43329151D01*
X28037871Y-43217888D01*
X28164533Y-43077216D01*
X28259179Y-42913284D01*
X28300637Y-42785689D01*
X28839040Y-42785689D01*
X28858826Y-42973945D01*
X28858827Y-42973948D01*
X28917318Y-43153966D01*
X28917321Y-43153973D01*
X29011967Y-43317905D01*
X29138629Y-43458577D01*
X29258385Y-43545585D01*
X29301051Y-43600913D01*
X29309500Y-43645902D01*
X29309500Y-44132312D01*
X29289815Y-44199351D01*
X29277650Y-44215284D01*
X29202466Y-44298784D01*
X29107821Y-44462715D01*
X29107818Y-44462722D01*
X29060407Y-44608639D01*
X29049326Y-44642744D01*
X29029540Y-44831000D01*
X29049326Y-45019256D01*
X29049327Y-45019259D01*
X29107818Y-45199277D01*
X29107820Y-45199281D01*
X29107821Y-45199284D01*
X29202467Y-45363216D01*
X29305947Y-45478142D01*
X29329129Y-45503888D01*
X29482265Y-45615148D01*
X29482270Y-45615151D01*
X29655192Y-45692142D01*
X29655197Y-45692144D01*
X29840354Y-45731500D01*
X29840355Y-45731500D01*
X30029644Y-45731500D01*
X30029646Y-45731500D01*
X30214803Y-45692144D01*
X30387730Y-45615151D01*
X30540871Y-45503888D01*
X30667533Y-45363216D01*
X30762179Y-45199284D01*
X30820674Y-45019256D01*
X30840460Y-44831000D01*
X30820674Y-44642744D01*
X30762179Y-44462716D01*
X30667533Y-44298784D01*
X30667531Y-44298782D01*
X30592350Y-44215284D01*
X30562120Y-44152292D01*
X30560500Y-44132312D01*
X30560500Y-43338453D01*
X30580185Y-43271414D01*
X30632989Y-43225659D01*
X30702147Y-43215715D01*
X30765703Y-43244740D01*
X30772181Y-43250772D01*
X31085197Y-43563788D01*
X31095022Y-43576051D01*
X31095243Y-43575869D01*
X31100211Y-43581874D01*
X31149222Y-43627899D01*
X31152021Y-43630612D01*
X31171522Y-43650114D01*
X31171526Y-43650117D01*
X31171529Y-43650120D01*
X31174702Y-43652581D01*
X31183574Y-43660159D01*
X31215418Y-43690062D01*
X31232976Y-43699714D01*
X31249233Y-43710393D01*
X31265064Y-43722673D01*
X31294803Y-43735542D01*
X31305152Y-43740021D01*
X31315641Y-43745160D01*
X31333450Y-43754950D01*
X31353908Y-43766197D01*
X31366523Y-43769435D01*
X31373305Y-43771177D01*
X31391719Y-43777481D01*
X31410104Y-43785438D01*
X31453261Y-43792273D01*
X31464656Y-43794632D01*
X31506981Y-43805500D01*
X31527016Y-43805500D01*
X31546413Y-43807026D01*
X31566196Y-43810160D01*
X31609675Y-43806050D01*
X31621344Y-43805500D01*
X33064257Y-43805500D01*
X33079877Y-43807224D01*
X33079904Y-43806939D01*
X33087660Y-43807671D01*
X33087667Y-43807673D01*
X33154873Y-43805561D01*
X33158768Y-43805500D01*
X33186346Y-43805500D01*
X33186350Y-43805500D01*
X33190324Y-43804997D01*
X33201963Y-43804080D01*
X33245627Y-43802709D01*
X33264869Y-43797117D01*
X33283912Y-43793174D01*
X33303792Y-43790664D01*
X33344401Y-43774585D01*
X33355444Y-43770803D01*
X33397390Y-43758618D01*
X33414629Y-43748422D01*
X33432103Y-43739862D01*
X33450727Y-43732488D01*
X33450727Y-43732487D01*
X33450732Y-43732486D01*
X33486083Y-43706800D01*
X33495814Y-43700408D01*
X33533420Y-43678170D01*
X33547589Y-43663999D01*
X33562379Y-43651368D01*
X33578587Y-43639594D01*
X33606433Y-43605932D01*
X33614286Y-43597303D01*
X33692773Y-43518818D01*
X33754096Y-43485333D01*
X33780453Y-43482500D01*
X33839644Y-43482500D01*
X33839646Y-43482500D01*
X34024803Y-43443144D01*
X34197730Y-43366151D01*
X34350871Y-43254888D01*
X34477533Y-43114216D01*
X34572179Y-42950284D01*
X34630674Y-42770256D01*
X34650460Y-42582000D01*
X34630674Y-42393744D01*
X34572179Y-42213716D01*
X34477533Y-42049784D01*
X34350871Y-41909112D01*
X34350870Y-41909111D01*
X34197734Y-41797851D01*
X34197729Y-41797848D01*
X34024807Y-41720857D01*
X34024802Y-41720855D01*
X33879001Y-41689865D01*
X33839646Y-41681500D01*
X33650354Y-41681500D01*
X33617897Y-41688398D01*
X33465197Y-41720855D01*
X33465192Y-41720857D01*
X33292270Y-41797848D01*
X33292265Y-41797851D01*
X33139129Y-41909111D01*
X33012466Y-42049785D01*
X32917821Y-42213715D01*
X32917818Y-42213722D01*
X32875044Y-42345369D01*
X32859326Y-42393744D01*
X32854100Y-42443463D01*
X32827516Y-42508077D01*
X32770219Y-42548061D01*
X32730780Y-42554500D01*
X31896452Y-42554500D01*
X31829413Y-42534815D01*
X31808771Y-42518181D01*
X31635960Y-42345369D01*
X31602475Y-42284046D01*
X31600323Y-42270668D01*
X31582674Y-42102744D01*
X31524179Y-41922716D01*
X31429533Y-41758784D01*
X31302871Y-41618112D01*
X31302870Y-41618111D01*
X31149734Y-41506851D01*
X31149729Y-41506848D01*
X30976807Y-41429857D01*
X30976802Y-41429855D01*
X30831001Y-41398865D01*
X30791646Y-41390500D01*
X30602354Y-41390500D01*
X30569897Y-41397398D01*
X30417197Y-41429855D01*
X30417192Y-41429857D01*
X30244270Y-41506848D01*
X30244265Y-41506851D01*
X30091129Y-41618111D01*
X29964467Y-41758783D01*
X29947691Y-41787839D01*
X29927282Y-41823189D01*
X29876717Y-41871404D01*
X29819896Y-41885189D01*
X29649854Y-41885189D01*
X29617397Y-41892087D01*
X29464697Y-41924544D01*
X29464692Y-41924546D01*
X29291770Y-42001537D01*
X29291765Y-42001540D01*
X29138629Y-42112800D01*
X29011966Y-42253474D01*
X28917321Y-42417404D01*
X28917318Y-42417411D01*
X28858827Y-42597429D01*
X28858826Y-42597433D01*
X28839040Y-42785689D01*
X28300637Y-42785689D01*
X28317674Y-42733256D01*
X28337460Y-42545000D01*
X28317674Y-42356744D01*
X28259179Y-42176716D01*
X28164533Y-42012784D01*
X28037871Y-41872112D01*
X28036897Y-41871404D01*
X27884734Y-41760851D01*
X27884729Y-41760848D01*
X27711807Y-41683857D01*
X27711802Y-41683855D01*
X27566001Y-41652865D01*
X27526646Y-41644500D01*
X27526645Y-41644500D01*
X27467453Y-41644500D01*
X27400414Y-41624815D01*
X27379772Y-41608181D01*
X27331819Y-41560228D01*
X27298334Y-41498905D01*
X27295500Y-41472547D01*
X27295500Y-40783797D01*
X27315185Y-40716758D01*
X27367989Y-40671003D01*
X27419500Y-40659797D01*
X27534941Y-40659797D01*
X27534943Y-40659797D01*
X27720100Y-40620441D01*
X27746080Y-40608873D01*
X27796516Y-40598153D01*
X34707909Y-40598153D01*
X34723529Y-40599877D01*
X34723556Y-40599592D01*
X34731312Y-40600324D01*
X34731319Y-40600326D01*
X34798525Y-40598214D01*
X34802420Y-40598153D01*
X34829998Y-40598153D01*
X34830002Y-40598153D01*
X34833976Y-40597650D01*
X34845615Y-40596733D01*
X34889279Y-40595362D01*
X34908521Y-40589770D01*
X34927564Y-40585827D01*
X34947444Y-40583317D01*
X34988053Y-40567238D01*
X34999096Y-40563456D01*
X35041042Y-40551271D01*
X35058281Y-40541075D01*
X35075748Y-40532517D01*
X35094384Y-40525139D01*
X35094387Y-40525137D01*
X35101218Y-40521382D01*
X35102301Y-40523353D01*
X35157376Y-40503702D01*
X35164457Y-40503500D01*
X37297257Y-40503500D01*
X37312877Y-40505224D01*
X37312904Y-40504939D01*
X37320660Y-40505671D01*
X37320667Y-40505673D01*
X37387873Y-40503561D01*
X37391768Y-40503500D01*
X37419346Y-40503500D01*
X37419350Y-40503500D01*
X37423324Y-40502997D01*
X37434963Y-40502080D01*
X37478627Y-40500709D01*
X37497869Y-40495117D01*
X37516912Y-40491174D01*
X37536792Y-40488664D01*
X37577401Y-40472585D01*
X37588444Y-40468803D01*
X37630390Y-40456618D01*
X37647629Y-40446422D01*
X37665103Y-40437862D01*
X37683727Y-40430488D01*
X37683727Y-40430487D01*
X37683732Y-40430486D01*
X37719083Y-40404800D01*
X37728814Y-40398408D01*
X37766420Y-40376170D01*
X37780589Y-40361999D01*
X37795379Y-40349368D01*
X37811587Y-40337594D01*
X37839438Y-40303926D01*
X37847279Y-40295309D01*
X40443584Y-37699005D01*
X40504905Y-37665522D01*
X40574597Y-37670506D01*
X40581699Y-37673409D01*
X40668694Y-37712142D01*
X40668699Y-37712144D01*
X40853856Y-37751500D01*
X40853857Y-37751500D01*
X41043146Y-37751500D01*
X41043148Y-37751500D01*
X41228305Y-37712144D01*
X41401232Y-37635151D01*
X41554373Y-37523888D01*
X41681035Y-37383216D01*
X41775681Y-37219284D01*
X41834176Y-37039256D01*
X41852749Y-36862536D01*
X41879334Y-36797924D01*
X41936631Y-36757939D01*
X41976070Y-36751500D01*
X43054548Y-36751500D01*
X43121587Y-36771185D01*
X43142229Y-36787819D01*
X43511038Y-37156628D01*
X43544523Y-37217951D01*
X43546678Y-37231347D01*
X43551806Y-37280132D01*
X43564326Y-37399256D01*
X43564327Y-37399259D01*
X43622818Y-37579277D01*
X43622821Y-37579284D01*
X43717467Y-37743216D01*
X43836107Y-37874979D01*
X43844129Y-37883888D01*
X43997265Y-37995148D01*
X43997270Y-37995151D01*
X44170192Y-38072142D01*
X44170197Y-38072144D01*
X44355354Y-38111500D01*
X44355355Y-38111500D01*
X44544644Y-38111500D01*
X44544646Y-38111500D01*
X44729803Y-38072144D01*
X44902730Y-37995151D01*
X45055871Y-37883888D01*
X45123556Y-37808716D01*
X45183041Y-37772068D01*
X45252899Y-37773398D01*
X45288590Y-37791371D01*
X45394265Y-37868148D01*
X45394270Y-37868151D01*
X45567192Y-37945142D01*
X45567197Y-37945144D01*
X45752354Y-37984500D01*
X45752355Y-37984500D01*
X45941644Y-37984500D01*
X45941646Y-37984500D01*
X46126803Y-37945144D01*
X46299730Y-37868151D01*
X46452871Y-37756888D01*
X46489270Y-37716462D01*
X46548755Y-37679815D01*
X46618612Y-37681144D01*
X46676660Y-37720030D01*
X46688806Y-37737435D01*
X46765467Y-37870216D01*
X46892129Y-38010888D01*
X47045265Y-38122148D01*
X47045270Y-38122151D01*
X47218192Y-38199142D01*
X47218197Y-38199144D01*
X47403354Y-38238500D01*
X47403355Y-38238500D01*
X47592644Y-38238500D01*
X47592646Y-38238500D01*
X47777803Y-38199144D01*
X47950730Y-38122151D01*
X48103871Y-38010888D01*
X48230533Y-37870216D01*
X48325179Y-37706284D01*
X48383674Y-37526256D01*
X48403460Y-37338000D01*
X48383674Y-37149744D01*
X48325179Y-36969716D01*
X48230533Y-36805784D01*
X48103871Y-36665112D01*
X48096736Y-36659928D01*
X47950734Y-36553851D01*
X47950729Y-36553848D01*
X47777807Y-36476857D01*
X47777803Y-36476856D01*
X47649455Y-36449574D01*
X47587974Y-36416381D01*
X47587556Y-36415965D01*
X45007960Y-33836369D01*
X44974475Y-33775046D01*
X44972323Y-33761668D01*
X44954674Y-33593744D01*
X44896179Y-33413716D01*
X44801533Y-33249784D01*
X44674871Y-33109112D01*
X44674870Y-33109111D01*
X44521734Y-32997851D01*
X44521729Y-32997848D01*
X44348807Y-32920857D01*
X44348802Y-32920855D01*
X44198131Y-32888830D01*
X44163646Y-32881500D01*
X43974354Y-32881500D01*
X43941897Y-32888398D01*
X43789197Y-32920855D01*
X43789192Y-32920857D01*
X43616270Y-32997848D01*
X43616265Y-32997851D01*
X43463129Y-33109111D01*
X43336466Y-33249785D01*
X43241821Y-33413715D01*
X43241818Y-33413722D01*
X43184497Y-33590139D01*
X43183326Y-33593744D01*
X43163540Y-33782000D01*
X43183326Y-33970256D01*
X43183327Y-33970259D01*
X43241818Y-34150277D01*
X43241823Y-34150289D01*
X43314118Y-34275508D01*
X43330591Y-34343408D01*
X43307738Y-34409435D01*
X43298881Y-34420479D01*
X43209466Y-34519784D01*
X43114821Y-34683715D01*
X43114818Y-34683722D01*
X43056327Y-34863740D01*
X43056326Y-34863744D01*
X43036540Y-35052000D01*
X43056326Y-35240256D01*
X43056327Y-35240259D01*
X43088144Y-35338182D01*
X43090139Y-35408023D01*
X43054059Y-35467856D01*
X42991358Y-35498684D01*
X42970213Y-35500500D01*
X39889568Y-35500500D01*
X39822529Y-35480815D01*
X39776774Y-35428011D01*
X39766247Y-35389462D01*
X39763194Y-35360413D01*
X39747674Y-35212744D01*
X39689179Y-35032716D01*
X39594533Y-34868784D01*
X39467871Y-34728112D01*
X39439535Y-34707525D01*
X39422917Y-34695451D01*
X39380251Y-34640121D01*
X39374272Y-34570508D01*
X39403651Y-34512163D01*
X39467533Y-34441216D01*
X39562179Y-34277284D01*
X39620674Y-34097256D01*
X39630922Y-33999744D01*
X39657505Y-33935134D01*
X39714802Y-33895148D01*
X39728456Y-33891420D01*
X39766480Y-33883338D01*
X39836146Y-33888654D01*
X39884410Y-33921656D01*
X39907129Y-33946888D01*
X39907135Y-33946893D01*
X40060265Y-34058148D01*
X40060270Y-34058151D01*
X40233192Y-34135142D01*
X40233197Y-34135144D01*
X40418354Y-34174500D01*
X40418355Y-34174500D01*
X40607644Y-34174500D01*
X40607646Y-34174500D01*
X40792803Y-34135144D01*
X40965730Y-34058151D01*
X41118871Y-33946888D01*
X41245533Y-33806216D01*
X41340179Y-33642284D01*
X41398674Y-33462256D01*
X41418460Y-33274000D01*
X41398674Y-33085744D01*
X41340179Y-32905716D01*
X41245533Y-32741784D01*
X41229354Y-32723815D01*
X41170350Y-32658284D01*
X41140120Y-32595292D01*
X41138500Y-32575312D01*
X41138500Y-31437548D01*
X41158185Y-31370509D01*
X41174814Y-31349872D01*
X45722786Y-26801899D01*
X45735048Y-26792077D01*
X45734865Y-26791856D01*
X45740868Y-26786888D01*
X45740877Y-26786883D01*
X45786934Y-26737836D01*
X45789582Y-26735103D01*
X45809120Y-26715567D01*
X45811570Y-26712407D01*
X45819154Y-26703526D01*
X45849062Y-26671679D01*
X45858714Y-26654120D01*
X45869389Y-26637869D01*
X45881674Y-26622033D01*
X45899030Y-26581922D01*
X45904161Y-26571451D01*
X45925194Y-26533195D01*
X45925194Y-26533194D01*
X45925197Y-26533189D01*
X45930180Y-26513777D01*
X45936477Y-26495388D01*
X45944438Y-26476992D01*
X45951270Y-26433845D01*
X45953639Y-26422413D01*
X45964499Y-26380119D01*
X45964500Y-26380114D01*
X45964500Y-26360080D01*
X45966027Y-26340679D01*
X45968822Y-26323032D01*
X45969160Y-26320901D01*
X45965504Y-26282229D01*
X45965050Y-26277421D01*
X45964500Y-26265752D01*
X45964500Y-24868591D01*
X45966224Y-24852977D01*
X45965938Y-24852950D01*
X45966672Y-24845187D01*
X45964561Y-24777998D01*
X45964500Y-24774104D01*
X45964500Y-24746505D01*
X45964500Y-24746504D01*
X45963997Y-24742524D01*
X45963080Y-24730875D01*
X45961709Y-24687227D01*
X45956121Y-24667993D01*
X45952174Y-24648935D01*
X45949664Y-24629062D01*
X45947527Y-24623664D01*
X45933583Y-24588446D01*
X45929799Y-24577393D01*
X45917618Y-24535469D01*
X45917617Y-24535464D01*
X45907420Y-24518222D01*
X45898863Y-24500756D01*
X45891486Y-24482122D01*
X45865809Y-24446780D01*
X45859412Y-24437044D01*
X45837170Y-24399433D01*
X45837167Y-24399430D01*
X45837165Y-24399427D01*
X45823005Y-24385267D01*
X45810370Y-24370474D01*
X45798593Y-24354266D01*
X45764945Y-24326430D01*
X45756304Y-24318567D01*
X44721960Y-23284223D01*
X44688475Y-23222900D01*
X44686323Y-23209522D01*
X44668674Y-23041598D01*
X44610179Y-22861570D01*
X44515533Y-22697638D01*
X44388871Y-22556966D01*
X44388870Y-22556965D01*
X44235734Y-22445705D01*
X44235729Y-22445702D01*
X44062807Y-22368711D01*
X44062802Y-22368709D01*
X43917001Y-22337719D01*
X43877646Y-22329354D01*
X43688354Y-22329354D01*
X43655897Y-22336252D01*
X43503197Y-22368709D01*
X43503192Y-22368711D01*
X43330270Y-22445702D01*
X43330265Y-22445705D01*
X43177129Y-22556965D01*
X43050466Y-22697639D01*
X42955821Y-22861569D01*
X42955818Y-22861576D01*
X42897327Y-23041594D01*
X42897326Y-23041598D01*
X42877540Y-23229854D01*
X42897326Y-23418110D01*
X42897327Y-23418113D01*
X42955818Y-23598131D01*
X42955821Y-23598138D01*
X43050467Y-23762070D01*
X43141601Y-23863284D01*
X43177129Y-23902742D01*
X43330265Y-24014002D01*
X43330270Y-24014005D01*
X43503192Y-24090996D01*
X43503197Y-24090998D01*
X43688354Y-24130354D01*
X43747548Y-24130354D01*
X43814587Y-24150039D01*
X43835229Y-24166673D01*
X44677181Y-25008625D01*
X44710666Y-25069948D01*
X44713500Y-25096306D01*
X44713500Y-25459820D01*
X44693815Y-25526859D01*
X44641011Y-25572614D01*
X44571853Y-25582558D01*
X44508297Y-25553533D01*
X44482113Y-25521820D01*
X44443496Y-25454934D01*
X44407091Y-25391878D01*
X44280429Y-25251206D01*
X44280428Y-25251205D01*
X44127292Y-25139945D01*
X44127287Y-25139942D01*
X43954365Y-25062951D01*
X43954360Y-25062949D01*
X43805905Y-25031395D01*
X43769204Y-25023594D01*
X43579912Y-25023594D01*
X43547455Y-25030492D01*
X43394755Y-25062949D01*
X43394750Y-25062951D01*
X43221828Y-25139942D01*
X43221823Y-25139945D01*
X43068687Y-25251205D01*
X42942024Y-25391879D01*
X42847379Y-25555809D01*
X42847376Y-25555816D01*
X42802047Y-25695326D01*
X42762609Y-25753002D01*
X42709898Y-25778298D01*
X42669754Y-25786831D01*
X42669750Y-25786832D01*
X42496828Y-25863823D01*
X42496823Y-25863826D01*
X42343687Y-25975086D01*
X42220094Y-26112350D01*
X42217025Y-26115759D01*
X42147410Y-26236337D01*
X42137433Y-26253617D01*
X42086866Y-26301832D01*
X42038673Y-26313523D01*
X42038822Y-26314937D01*
X42032355Y-26315616D01*
X41847197Y-26354972D01*
X41847192Y-26354974D01*
X41674270Y-26431965D01*
X41674265Y-26431968D01*
X41521135Y-26543223D01*
X41521128Y-26543229D01*
X41516407Y-26548473D01*
X41456920Y-26585121D01*
X41424258Y-26589500D01*
X41184433Y-26589500D01*
X41168816Y-26587776D01*
X41168789Y-26588062D01*
X41161027Y-26587327D01*
X41093840Y-26589439D01*
X41089946Y-26589500D01*
X41062345Y-26589500D01*
X41058657Y-26589965D01*
X41058344Y-26590005D01*
X41046726Y-26590918D01*
X41003068Y-26592290D01*
X41003067Y-26592290D01*
X40983824Y-26597881D01*
X40964774Y-26601825D01*
X40944906Y-26604334D01*
X40944905Y-26604334D01*
X40904294Y-26620413D01*
X40893249Y-26624194D01*
X40851309Y-26636379D01*
X40851305Y-26636381D01*
X40834061Y-26646579D01*
X40816600Y-26655133D01*
X40797969Y-26662510D01*
X40797957Y-26662517D01*
X40762628Y-26688185D01*
X40752868Y-26694596D01*
X40715275Y-26716829D01*
X40701109Y-26730995D01*
X40686319Y-26743627D01*
X40670109Y-26755404D01*
X40670106Y-26755407D01*
X40642268Y-26789058D01*
X40634406Y-26797697D01*
X38883923Y-28548181D01*
X38822600Y-28581666D01*
X38796242Y-28584500D01*
X35919549Y-28584500D01*
X35852510Y-28564815D01*
X35831868Y-28548181D01*
X35590903Y-28307216D01*
X35581078Y-28294952D01*
X35580857Y-28295136D01*
X35575881Y-28289121D01*
X35526873Y-28243099D01*
X35524074Y-28240386D01*
X35504574Y-28220885D01*
X35504568Y-28220880D01*
X35501383Y-28218409D01*
X35492531Y-28210848D01*
X35460679Y-28180938D01*
X35460677Y-28180936D01*
X35460674Y-28180935D01*
X35443126Y-28171288D01*
X35426860Y-28160604D01*
X35411029Y-28148324D01*
X35370946Y-28130978D01*
X35360460Y-28125841D01*
X35322191Y-28104803D01*
X35322189Y-28104802D01*
X35302790Y-28099822D01*
X35284378Y-28093518D01*
X35265995Y-28085562D01*
X35265989Y-28085560D01*
X35222857Y-28078729D01*
X35211419Y-28076361D01*
X35169117Y-28065500D01*
X35169116Y-28065500D01*
X35149081Y-28065500D01*
X35129683Y-28063973D01*
X35122259Y-28062797D01*
X35109902Y-28060840D01*
X35109901Y-28060840D01*
X35066422Y-28064950D01*
X35054753Y-28065500D01*
X31949250Y-28065500D01*
X31933629Y-28063775D01*
X31933603Y-28064061D01*
X31925841Y-28063327D01*
X31925840Y-28063327D01*
X31874195Y-28064950D01*
X31858634Y-28065439D01*
X31854739Y-28065500D01*
X31854418Y-28065500D01*
X31787379Y-28045815D01*
X31747031Y-28003500D01*
X31699723Y-27921561D01*
X31686924Y-27899392D01*
X31648413Y-27856621D01*
X31611741Y-27815892D01*
X31581511Y-27752900D01*
X31579891Y-27732920D01*
X31579891Y-27260151D01*
X31599576Y-27193112D01*
X31616206Y-27172474D01*
X31929071Y-26859608D01*
X31990392Y-26826125D01*
X32060083Y-26831109D01*
X32116017Y-26872980D01*
X32124137Y-26885291D01*
X32160465Y-26948214D01*
X32287129Y-27088888D01*
X32440265Y-27200148D01*
X32440270Y-27200151D01*
X32613192Y-27277142D01*
X32613197Y-27277144D01*
X32798354Y-27316500D01*
X32798355Y-27316500D01*
X32987645Y-27316500D01*
X32987646Y-27316500D01*
X33092513Y-27294209D01*
X33118294Y-27291500D01*
X34488029Y-27291500D01*
X34498092Y-27291908D01*
X34552498Y-27296339D01*
X34633456Y-27285307D01*
X34636773Y-27284902D01*
X34717966Y-27276073D01*
X34718131Y-27276017D01*
X34741007Y-27270655D01*
X34741187Y-27270631D01*
X34817910Y-27242442D01*
X34820956Y-27241369D01*
X34898430Y-27215267D01*
X34898578Y-27215178D01*
X34919766Y-27205024D01*
X34919938Y-27204961D01*
X34988800Y-27160944D01*
X34991601Y-27159207D01*
X35061604Y-27117089D01*
X35061733Y-27116966D01*
X35080247Y-27102494D01*
X35080252Y-27102490D01*
X35080394Y-27102400D01*
X35138188Y-27044604D01*
X35140483Y-27042369D01*
X35199857Y-26986129D01*
X35199956Y-26985983D01*
X35214914Y-26967878D01*
X37775975Y-24406819D01*
X37837298Y-24373334D01*
X37863656Y-24370500D01*
X40414706Y-24370500D01*
X40440486Y-24373209D01*
X40545354Y-24395500D01*
X40545355Y-24395500D01*
X40734644Y-24395500D01*
X40734646Y-24395500D01*
X40919803Y-24356144D01*
X41092730Y-24279151D01*
X41245871Y-24167888D01*
X41372533Y-24027216D01*
X41467179Y-23863284D01*
X41525674Y-23683256D01*
X41545460Y-23495000D01*
X41525674Y-23306744D01*
X41467179Y-23126716D01*
X41372533Y-22962784D01*
X41245871Y-22822112D01*
X41234702Y-22813997D01*
X41092734Y-22710851D01*
X41092729Y-22710848D01*
X40919807Y-22633857D01*
X40919802Y-22633855D01*
X40759651Y-22599815D01*
X40734646Y-22594500D01*
X40545354Y-22594500D01*
X40479117Y-22608579D01*
X40440487Y-22616790D01*
X40414706Y-22619500D01*
X38130244Y-22619500D01*
X38063205Y-22599815D01*
X38017450Y-22547011D01*
X38007506Y-22477853D01*
X38036531Y-22414297D01*
X38042563Y-22407819D01*
X39272563Y-21177819D01*
X39333886Y-21144334D01*
X39360244Y-21141500D01*
X40829170Y-21141500D01*
X40844790Y-21143224D01*
X40844817Y-21142939D01*
X40852573Y-21143671D01*
X40852580Y-21143673D01*
X40919786Y-21141561D01*
X40923681Y-21141500D01*
X40951259Y-21141500D01*
X40951263Y-21141500D01*
X40955237Y-21140997D01*
X40966876Y-21140080D01*
X41010540Y-21138709D01*
X41029782Y-21133117D01*
X41048825Y-21129174D01*
X41068705Y-21126664D01*
X41109314Y-21110585D01*
X41120357Y-21106803D01*
X41162303Y-21094618D01*
X41179542Y-21084422D01*
X41197016Y-21075862D01*
X41215640Y-21068488D01*
X41215640Y-21068487D01*
X41215645Y-21068486D01*
X41250996Y-21042800D01*
X41260727Y-21036408D01*
X41298333Y-21014170D01*
X41312502Y-20999999D01*
X41327292Y-20987368D01*
X41343500Y-20975594D01*
X41371351Y-20941926D01*
X41379192Y-20933309D01*
X43108684Y-19203819D01*
X43170007Y-19170334D01*
X43196365Y-19167500D01*
X43859257Y-19167500D01*
X43874877Y-19169224D01*
X43874904Y-19168939D01*
X43882660Y-19169671D01*
X43882667Y-19169673D01*
X43949873Y-19167561D01*
X43953768Y-19167500D01*
X43981346Y-19167500D01*
X43981350Y-19167500D01*
X43985324Y-19166997D01*
X43996963Y-19166080D01*
X44040627Y-19164709D01*
X44059869Y-19159117D01*
X44078912Y-19155174D01*
X44098792Y-19152664D01*
X44139401Y-19136585D01*
X44150444Y-19132803D01*
X44192390Y-19120618D01*
X44209629Y-19110422D01*
X44227103Y-19101862D01*
X44245727Y-19094488D01*
X44245727Y-19094487D01*
X44245732Y-19094486D01*
X44281083Y-19068800D01*
X44290814Y-19062408D01*
X44328420Y-19040170D01*
X44342589Y-19025999D01*
X44357379Y-19013368D01*
X44373587Y-19001594D01*
X44401438Y-18967926D01*
X44409279Y-18959309D01*
X48995170Y-14373419D01*
X49056491Y-14339936D01*
X49126183Y-14344920D01*
X49135231Y-14348710D01*
X49223550Y-14389894D01*
X49436932Y-14447070D01*
X49594123Y-14460822D01*
X49656998Y-14466323D01*
X49657000Y-14466323D01*
X49657002Y-14466323D01*
X49712017Y-14461509D01*
X49877068Y-14447070D01*
X50090450Y-14389894D01*
X50290662Y-14296534D01*
X50471620Y-14169826D01*
X50627826Y-14013620D01*
X50754534Y-13832662D01*
X50814894Y-13703218D01*
X50861066Y-13650779D01*
X50928259Y-13631627D01*
X50995141Y-13651843D01*
X51039658Y-13703219D01*
X51099898Y-13832405D01*
X51099901Y-13832411D01*
X51145258Y-13897187D01*
X51145258Y-13897188D01*
X51812096Y-13230350D01*
X51812051Y-13230898D01*
X51843266Y-13354162D01*
X51912813Y-13460612D01*
X52013157Y-13538713D01*
X52133422Y-13580000D01*
X52169553Y-13580000D01*
X51498810Y-14250740D01*
X51563590Y-14296099D01*
X51563592Y-14296100D01*
X51763715Y-14389419D01*
X51763729Y-14389424D01*
X51977013Y-14446573D01*
X51977023Y-14446575D01*
X52196999Y-14465821D01*
X52197001Y-14465821D01*
X52416976Y-14446575D01*
X52416986Y-14446573D01*
X52630270Y-14389424D01*
X52630284Y-14389419D01*
X52830407Y-14296100D01*
X52830417Y-14296094D01*
X52895188Y-14250741D01*
X52224448Y-13580000D01*
X52228569Y-13580000D01*
X52322421Y-13564339D01*
X52434251Y-13503820D01*
X52520371Y-13410269D01*
X52571448Y-13293823D01*
X52577105Y-13225552D01*
X53248741Y-13897188D01*
X53294094Y-13832417D01*
X53294100Y-13832407D01*
X53354618Y-13702627D01*
X53400790Y-13650187D01*
X53467983Y-13631035D01*
X53534865Y-13651251D01*
X53579382Y-13702627D01*
X53639898Y-13832405D01*
X53639901Y-13832411D01*
X53685258Y-13897187D01*
X53685258Y-13897188D01*
X54352096Y-13230350D01*
X54352051Y-13230898D01*
X54383266Y-13354162D01*
X54452813Y-13460612D01*
X54553157Y-13538713D01*
X54673422Y-13580000D01*
X54709553Y-13580000D01*
X54038810Y-14250740D01*
X54103590Y-14296099D01*
X54103592Y-14296100D01*
X54303715Y-14389419D01*
X54303729Y-14389424D01*
X54517013Y-14446573D01*
X54517023Y-14446575D01*
X54736999Y-14465821D01*
X54737001Y-14465821D01*
X54956976Y-14446575D01*
X54956986Y-14446573D01*
X55170270Y-14389424D01*
X55170284Y-14389419D01*
X55370407Y-14296100D01*
X55370417Y-14296094D01*
X55435188Y-14250741D01*
X54764448Y-13580000D01*
X54768569Y-13580000D01*
X54862421Y-13564339D01*
X54974251Y-13503820D01*
X55060371Y-13410269D01*
X55111448Y-13293823D01*
X55117105Y-13225552D01*
X55788741Y-13897188D01*
X55834094Y-13832417D01*
X55834100Y-13832407D01*
X55894618Y-13702627D01*
X55940790Y-13650187D01*
X56007983Y-13631035D01*
X56074865Y-13651251D01*
X56119382Y-13702627D01*
X56179898Y-13832405D01*
X56179901Y-13832411D01*
X56225258Y-13897187D01*
X56225258Y-13897188D01*
X56892096Y-13230350D01*
X56892051Y-13230898D01*
X56923266Y-13354162D01*
X56992813Y-13460612D01*
X57093157Y-13538713D01*
X57213422Y-13580000D01*
X57249553Y-13580000D01*
X56578810Y-14250740D01*
X56643590Y-14296099D01*
X56643592Y-14296100D01*
X56843715Y-14389419D01*
X56843729Y-14389424D01*
X57057013Y-14446573D01*
X57057023Y-14446575D01*
X57276999Y-14465821D01*
X57277001Y-14465821D01*
X57496976Y-14446575D01*
X57496986Y-14446573D01*
X57710270Y-14389424D01*
X57710284Y-14389419D01*
X57910407Y-14296100D01*
X57910417Y-14296094D01*
X57975188Y-14250741D01*
X57304448Y-13580000D01*
X57308569Y-13580000D01*
X57402421Y-13564339D01*
X57514251Y-13503820D01*
X57600371Y-13410269D01*
X57651448Y-13293823D01*
X57657105Y-13225552D01*
X58328741Y-13897188D01*
X58374094Y-13832417D01*
X58374095Y-13832416D01*
X58434340Y-13703219D01*
X58480512Y-13650780D01*
X58547706Y-13631627D01*
X58614587Y-13651842D01*
X58659105Y-13703218D01*
X58719466Y-13832662D01*
X58719468Y-13832666D01*
X58846170Y-14013615D01*
X58846175Y-14013621D01*
X59002378Y-14169824D01*
X59002384Y-14169829D01*
X59183333Y-14296531D01*
X59183335Y-14296532D01*
X59183338Y-14296534D01*
X59383550Y-14389894D01*
X59596932Y-14447070D01*
X59754123Y-14460822D01*
X59816998Y-14466323D01*
X59817000Y-14466323D01*
X59817002Y-14466323D01*
X59872017Y-14461509D01*
X60037068Y-14447070D01*
X60250450Y-14389894D01*
X60450662Y-14296534D01*
X60631620Y-14169826D01*
X60787826Y-14013620D01*
X60914534Y-13832662D01*
X60974894Y-13703218D01*
X61021066Y-13650779D01*
X61088259Y-13631627D01*
X61155141Y-13651843D01*
X61199658Y-13703219D01*
X61259898Y-13832405D01*
X61259901Y-13832411D01*
X61305258Y-13897187D01*
X61305258Y-13897188D01*
X61972096Y-13230350D01*
X61972051Y-13230898D01*
X62003266Y-13354162D01*
X62072813Y-13460612D01*
X62173157Y-13538713D01*
X62293422Y-13580000D01*
X62329553Y-13580000D01*
X61658810Y-14250740D01*
X61723590Y-14296099D01*
X61723592Y-14296100D01*
X61923715Y-14389419D01*
X61923729Y-14389424D01*
X62137013Y-14446573D01*
X62137023Y-14446575D01*
X62356999Y-14465821D01*
X62357001Y-14465821D01*
X62576976Y-14446575D01*
X62576986Y-14446573D01*
X62790270Y-14389424D01*
X62790284Y-14389419D01*
X62990407Y-14296100D01*
X62990417Y-14296094D01*
X63055188Y-14250741D01*
X62384448Y-13580000D01*
X62388569Y-13580000D01*
X62482421Y-13564339D01*
X62594251Y-13503820D01*
X62680371Y-13410269D01*
X62731448Y-13293823D01*
X62737105Y-13225552D01*
X63408741Y-13897188D01*
X63454094Y-13832417D01*
X63454100Y-13832407D01*
X63514618Y-13702627D01*
X63560790Y-13650187D01*
X63627983Y-13631035D01*
X63694865Y-13651251D01*
X63739382Y-13702627D01*
X63799898Y-13832405D01*
X63799901Y-13832411D01*
X63845258Y-13897187D01*
X63845258Y-13897188D01*
X64512096Y-13230350D01*
X64512051Y-13230898D01*
X64543266Y-13354162D01*
X64612813Y-13460612D01*
X64713157Y-13538713D01*
X64833422Y-13580000D01*
X64869553Y-13580000D01*
X64198810Y-14250740D01*
X64263590Y-14296099D01*
X64263592Y-14296100D01*
X64463715Y-14389419D01*
X64463729Y-14389424D01*
X64677013Y-14446573D01*
X64677023Y-14446575D01*
X64896999Y-14465821D01*
X64897001Y-14465821D01*
X65116976Y-14446575D01*
X65116986Y-14446573D01*
X65330270Y-14389424D01*
X65330284Y-14389419D01*
X65530407Y-14296100D01*
X65530417Y-14296094D01*
X65595188Y-14250741D01*
X64924448Y-13580000D01*
X64928569Y-13580000D01*
X65022421Y-13564339D01*
X65134251Y-13503820D01*
X65220371Y-13410269D01*
X65271448Y-13293823D01*
X65277105Y-13225552D01*
X65948741Y-13897188D01*
G37*
%TD.AperFunction*%
%TA.AperFunction,Conductor*%
G36*
X35869585Y-36771185D02*
G01*
X35915340Y-36823989D01*
X35925284Y-36893147D01*
X35896259Y-36956703D01*
X35890227Y-36963181D01*
X34018228Y-38835181D01*
X33956905Y-38868666D01*
X33930547Y-38871500D01*
X32035452Y-38871500D01*
X31968413Y-38851815D01*
X31922658Y-38799011D01*
X31912714Y-38729853D01*
X31941739Y-38666297D01*
X31947771Y-38659819D01*
X32369090Y-38238500D01*
X33691547Y-36916041D01*
X33752868Y-36882558D01*
X33822559Y-36887542D01*
X33871374Y-36920750D01*
X33938129Y-36994888D01*
X33938132Y-36994890D01*
X34091265Y-37106148D01*
X34091270Y-37106151D01*
X34264192Y-37183142D01*
X34264197Y-37183144D01*
X34449354Y-37222500D01*
X34449355Y-37222500D01*
X34638644Y-37222500D01*
X34638646Y-37222500D01*
X34823803Y-37183144D01*
X34996730Y-37106151D01*
X35149871Y-36994888D01*
X35276533Y-36854216D01*
X35288205Y-36834000D01*
X35300041Y-36813500D01*
X35350608Y-36765284D01*
X35407428Y-36751500D01*
X35802546Y-36751500D01*
X35869585Y-36771185D01*
G37*
%TD.AperFunction*%
%TA.AperFunction,Conductor*%
G36*
X28142033Y-17192185D02*
G01*
X28162675Y-17208819D01*
X30000199Y-19046343D01*
X30007026Y-19053749D01*
X30042361Y-19095350D01*
X30042368Y-19095355D01*
X30042369Y-19095357D01*
X30107428Y-19144813D01*
X30110012Y-19146832D01*
X30137099Y-19168606D01*
X30173702Y-19198030D01*
X30173872Y-19198114D01*
X30193814Y-19210483D01*
X30193971Y-19210602D01*
X30268143Y-19244917D01*
X30271120Y-19246344D01*
X30344307Y-19282641D01*
X30344481Y-19282684D01*
X30366626Y-19290480D01*
X30366803Y-19290562D01*
X30366808Y-19290563D01*
X30446575Y-19308121D01*
X30449836Y-19308884D01*
X30481331Y-19316717D01*
X30539086Y-19349371D01*
X32652520Y-21462805D01*
X32686005Y-21524128D01*
X32688160Y-21563446D01*
X32679800Y-21642994D01*
X32673618Y-21701816D01*
X32693404Y-21890072D01*
X32693405Y-21890075D01*
X32751896Y-22070093D01*
X32751899Y-22070100D01*
X32846545Y-22234032D01*
X32903993Y-22297834D01*
X32973207Y-22374704D01*
X33126343Y-22485964D01*
X33126348Y-22485967D01*
X33299270Y-22562958D01*
X33299275Y-22562960D01*
X33484432Y-22602316D01*
X33484433Y-22602316D01*
X33490900Y-22602996D01*
X33490685Y-22605034D01*
X33548465Y-22622001D01*
X33594220Y-22674805D01*
X33604164Y-22743963D01*
X33575139Y-22807519D01*
X33569107Y-22813997D01*
X28786447Y-27596655D01*
X28774190Y-27606476D01*
X28774373Y-27606697D01*
X28768361Y-27611670D01*
X28722337Y-27660679D01*
X28719630Y-27663472D01*
X28700128Y-27682973D01*
X28700114Y-27682990D01*
X28697646Y-27686171D01*
X28690082Y-27695026D01*
X28660176Y-27726874D01*
X28660175Y-27726876D01*
X28650523Y-27744432D01*
X28639849Y-27760682D01*
X28627568Y-27776517D01*
X28627563Y-27776524D01*
X28610214Y-27816614D01*
X28605077Y-27827100D01*
X28584042Y-27865362D01*
X28579061Y-27884763D01*
X28572760Y-27903166D01*
X28564801Y-27921558D01*
X28564800Y-27921561D01*
X28557967Y-27964699D01*
X28555600Y-27976130D01*
X28553545Y-27984135D01*
X28517809Y-28044174D01*
X28455286Y-28075362D01*
X28385827Y-28067797D01*
X28345758Y-28040983D01*
X26336987Y-26032212D01*
X26327164Y-26019950D01*
X26326943Y-26020134D01*
X26321970Y-26014122D01*
X26272960Y-25968099D01*
X26270161Y-25965386D01*
X26250661Y-25945885D01*
X26250655Y-25945880D01*
X26247470Y-25943409D01*
X26238618Y-25935848D01*
X26206766Y-25905938D01*
X26206764Y-25905936D01*
X26206761Y-25905935D01*
X26189213Y-25896288D01*
X26172947Y-25885604D01*
X26157116Y-25873324D01*
X26117033Y-25855978D01*
X26106547Y-25850841D01*
X26068278Y-25829803D01*
X26068276Y-25829802D01*
X26048877Y-25824822D01*
X26030465Y-25818518D01*
X26012082Y-25810562D01*
X26012076Y-25810560D01*
X25968944Y-25803729D01*
X25957506Y-25801361D01*
X25915204Y-25790500D01*
X25915203Y-25790500D01*
X25895168Y-25790500D01*
X25875770Y-25788973D01*
X25868346Y-25787797D01*
X25855989Y-25785840D01*
X25855988Y-25785840D01*
X25812509Y-25789950D01*
X25800840Y-25790500D01*
X22598746Y-25790500D01*
X22531707Y-25770815D01*
X22506598Y-25749474D01*
X22500871Y-25743114D01*
X22500867Y-25743110D01*
X22347732Y-25631851D01*
X22347727Y-25631848D01*
X22174805Y-25554857D01*
X22174800Y-25554855D01*
X22028999Y-25523865D01*
X21989644Y-25515500D01*
X21800352Y-25515500D01*
X21751118Y-25525965D01*
X21615197Y-25554855D01*
X21453215Y-25626975D01*
X21383965Y-25636259D01*
X21329894Y-25614013D01*
X21280734Y-25578296D01*
X21280729Y-25578293D01*
X21107807Y-25501302D01*
X21107802Y-25501300D01*
X20962001Y-25470310D01*
X20922646Y-25461945D01*
X20852500Y-25461945D01*
X20785461Y-25442260D01*
X20739706Y-25389456D01*
X20728500Y-25337945D01*
X20728500Y-21836005D01*
X20748185Y-21768966D01*
X20764814Y-21748329D01*
X22053360Y-20459782D01*
X22060740Y-20452979D01*
X22102357Y-20417631D01*
X22151841Y-20352533D01*
X22153863Y-20349949D01*
X22205030Y-20286297D01*
X22205109Y-20286138D01*
X22217489Y-20266177D01*
X22217602Y-20266029D01*
X22225606Y-20248730D01*
X22251905Y-20191883D01*
X22253331Y-20188903D01*
X22289641Y-20115693D01*
X22289685Y-20115514D01*
X22297484Y-20093363D01*
X22297562Y-20093197D01*
X22299454Y-20084604D01*
X22315127Y-20013397D01*
X22315894Y-20010125D01*
X22330498Y-19951402D01*
X22335600Y-19930889D01*
X22335604Y-19930715D01*
X22338461Y-19907391D01*
X22338500Y-19907216D01*
X22338500Y-19825536D01*
X22338545Y-19822178D01*
X22339116Y-19801105D01*
X22340757Y-19740527D01*
X22340720Y-19740334D01*
X22338500Y-19716975D01*
X22338500Y-17511207D01*
X22344570Y-17472887D01*
X22345113Y-17471215D01*
X22348674Y-17460256D01*
X22367247Y-17283536D01*
X22393832Y-17218924D01*
X22451129Y-17178939D01*
X22490568Y-17172500D01*
X28074994Y-17172500D01*
X28142033Y-17192185D01*
G37*
%TD.AperFunction*%
%TA.AperFunction,Conductor*%
G36*
X76606808Y-12896185D02*
G01*
X76652563Y-12948989D01*
X76662507Y-13018147D01*
X76658187Y-13035070D01*
X76656401Y-13042627D01*
X76650000Y-13102155D01*
X76650000Y-13750000D01*
X77566314Y-13750000D01*
X77540507Y-13790156D01*
X77500000Y-13928111D01*
X77500000Y-14071889D01*
X77540507Y-14209844D01*
X77566314Y-14250000D01*
X76650000Y-14250000D01*
X76650000Y-14897844D01*
X76656401Y-14957372D01*
X76656403Y-14957379D01*
X76706645Y-15092086D01*
X76706649Y-15092093D01*
X76792809Y-15207187D01*
X76792812Y-15207190D01*
X76907906Y-15293350D01*
X76907913Y-15293354D01*
X77039470Y-15342421D01*
X77095403Y-15384292D01*
X77119821Y-15449756D01*
X77104970Y-15518029D01*
X77083819Y-15546284D01*
X76961503Y-15668600D01*
X76825965Y-15862169D01*
X76825964Y-15862171D01*
X76726098Y-16076335D01*
X76726094Y-16076344D01*
X76664938Y-16304586D01*
X76664936Y-16304596D01*
X76644341Y-16539999D01*
X76644341Y-16540000D01*
X76664936Y-16775403D01*
X76664938Y-16775413D01*
X76726094Y-17003655D01*
X76726096Y-17003659D01*
X76726097Y-17003663D01*
X76804827Y-17172500D01*
X76825965Y-17217830D01*
X76825967Y-17217834D01*
X76926292Y-17361112D01*
X76953684Y-17400232D01*
X76961501Y-17411395D01*
X76961506Y-17411402D01*
X77128597Y-17578493D01*
X77128603Y-17578498D01*
X77314158Y-17708425D01*
X77357783Y-17763002D01*
X77364977Y-17832500D01*
X77333454Y-17894855D01*
X77314158Y-17911575D01*
X77128597Y-18041505D01*
X76961505Y-18208597D01*
X76825965Y-18402169D01*
X76825964Y-18402171D01*
X76726098Y-18616335D01*
X76726094Y-18616344D01*
X76664938Y-18844586D01*
X76664936Y-18844596D01*
X76644341Y-19079999D01*
X76644341Y-19080000D01*
X76664936Y-19315403D01*
X76664938Y-19315413D01*
X76726094Y-19543655D01*
X76726096Y-19543659D01*
X76726097Y-19543663D01*
X76817896Y-19740526D01*
X76825965Y-19757830D01*
X76825967Y-19757834D01*
X76929612Y-19905853D01*
X76952864Y-19939061D01*
X76961501Y-19951395D01*
X76961506Y-19951402D01*
X77128597Y-20118493D01*
X77128603Y-20118498D01*
X77195162Y-20165103D01*
X77229300Y-20189007D01*
X77314594Y-20248730D01*
X77358219Y-20303307D01*
X77365413Y-20372805D01*
X77333890Y-20435160D01*
X77314595Y-20451880D01*
X77128922Y-20581890D01*
X77128920Y-20581891D01*
X76961891Y-20748920D01*
X76961886Y-20748926D01*
X76826400Y-20942420D01*
X76826399Y-20942422D01*
X76726570Y-21156507D01*
X76726567Y-21156513D01*
X76669364Y-21369999D01*
X76669364Y-21370000D01*
X77566314Y-21370000D01*
X77540507Y-21410156D01*
X77500000Y-21548111D01*
X77500000Y-21691889D01*
X77540507Y-21829844D01*
X77566314Y-21870000D01*
X76669364Y-21870000D01*
X76726567Y-22083486D01*
X76726570Y-22083492D01*
X76826399Y-22297578D01*
X76961894Y-22491082D01*
X77128917Y-22658105D01*
X77314595Y-22788119D01*
X77358219Y-22842696D01*
X77365412Y-22912195D01*
X77333890Y-22974549D01*
X77314595Y-22991269D01*
X77128598Y-23121505D01*
X77070623Y-23179481D01*
X77001921Y-23248182D01*
X76940601Y-23281666D01*
X76914242Y-23284500D01*
X75374006Y-23284500D01*
X75306967Y-23264815D01*
X75286325Y-23248181D01*
X73768819Y-21730675D01*
X73735334Y-21669352D01*
X73732500Y-21642994D01*
X73732500Y-20337757D01*
X73732909Y-20327692D01*
X73732925Y-20327500D01*
X73737339Y-20273293D01*
X73726309Y-20192342D01*
X73725901Y-20189007D01*
X73724658Y-20177576D01*
X73717073Y-20107825D01*
X73717014Y-20107650D01*
X73711656Y-20084790D01*
X73711631Y-20084604D01*
X73683462Y-20007931D01*
X73682346Y-20004761D01*
X73656269Y-19927364D01*
X73656266Y-19927359D01*
X73656172Y-19927202D01*
X73646025Y-19906028D01*
X73645960Y-19905851D01*
X73601959Y-19837012D01*
X73600188Y-19834157D01*
X73558091Y-19764190D01*
X73558090Y-19764189D01*
X73558089Y-19764187D01*
X73557955Y-19764045D01*
X73543504Y-19745560D01*
X73543400Y-19745397D01*
X73485658Y-19687655D01*
X73483316Y-19685250D01*
X73482939Y-19684852D01*
X73427129Y-19625934D01*
X73426970Y-19625826D01*
X73408877Y-19610874D01*
X72933652Y-19135649D01*
X72926838Y-19128258D01*
X72891490Y-19086643D01*
X72891489Y-19086642D01*
X72826466Y-19037213D01*
X72823820Y-19035144D01*
X72760161Y-18983973D01*
X72760153Y-18983968D01*
X72759979Y-18983882D01*
X72740041Y-18971514D01*
X72739888Y-18971398D01*
X72665756Y-18937100D01*
X72662731Y-18935650D01*
X72589559Y-18899362D01*
X72589555Y-18899360D01*
X72589552Y-18899359D01*
X72589546Y-18899357D01*
X72589539Y-18899355D01*
X72589347Y-18899307D01*
X72567244Y-18891525D01*
X72567057Y-18891438D01*
X72567054Y-18891437D01*
X72487271Y-18873875D01*
X72484004Y-18873109D01*
X72404746Y-18853399D01*
X72404548Y-18853394D01*
X72381272Y-18850543D01*
X72381081Y-18850501D01*
X72381078Y-18850500D01*
X72381075Y-18850500D01*
X72381071Y-18850500D01*
X72299396Y-18850500D01*
X72296038Y-18850455D01*
X72214386Y-18848243D01*
X72214204Y-18848278D01*
X72190836Y-18850500D01*
X69670006Y-18850500D01*
X69602967Y-18830815D01*
X69582325Y-18814181D01*
X68348819Y-17580675D01*
X68315334Y-17519352D01*
X68312500Y-17492994D01*
X68312500Y-14160308D01*
X68332185Y-14093269D01*
X68348819Y-14072627D01*
X68349557Y-14071889D01*
X68407826Y-14013620D01*
X68534534Y-13832662D01*
X68591824Y-13709802D01*
X68594618Y-13703811D01*
X68640790Y-13651371D01*
X68707983Y-13632219D01*
X68774865Y-13652435D01*
X68819382Y-13703811D01*
X68879464Y-13832658D01*
X68879468Y-13832666D01*
X69006170Y-14013615D01*
X69006175Y-14013621D01*
X69162378Y-14169824D01*
X69162384Y-14169829D01*
X69343333Y-14296531D01*
X69343335Y-14296532D01*
X69343338Y-14296534D01*
X69543550Y-14389894D01*
X69756932Y-14447070D01*
X69914123Y-14460822D01*
X69976998Y-14466323D01*
X69977000Y-14466323D01*
X69977002Y-14466323D01*
X70032017Y-14461509D01*
X70197068Y-14447070D01*
X70410450Y-14389894D01*
X70610662Y-14296534D01*
X70791620Y-14169826D01*
X70947826Y-14013620D01*
X71074534Y-13832662D01*
X71167894Y-13632450D01*
X71225070Y-13419068D01*
X71244323Y-13199000D01*
X71227902Y-13011305D01*
X71241669Y-12942807D01*
X71290284Y-12892624D01*
X71351430Y-12876500D01*
X76539769Y-12876500D01*
X76606808Y-12896185D01*
G37*
%TD.AperFunction*%
%TD*%
M02*
