M48
; DRILL file {KiCad 7.0.10} date Sun Apr 14 19:33:59 2024
; FORMAT={-:-/ absolute / inch / decimal}
; #@! TF.CreationDate,2024-04-14T19:33:59+02:00
; #@! TF.GenerationSoftware,Kicad,Pcbnew,7.0.10
; #@! TF.FileFunction,Plated,1,2,PTH
FMAT,2
INCH
; #@! TA.AperFunction,Plated,PTH,ViaDrill
T1C0.0157
; #@! TA.AperFunction,Plated,PTH,ComponentDrill
T2C0.0300
%
G90
G05
T1
X0.489Y-2.093
X0.491Y-1.102
X0.493Y-0.9118
X0.5Y-2.31
X0.501Y-0.805
X0.5117Y-2.2139
X0.5136Y-1.884
X0.5186Y-1.654
X0.5241Y-0.9141
X0.5313Y-1.9135
X0.537Y-1.151
X0.5445Y-2.1502
X0.56Y-0.721
X0.563Y-1.831
X0.565Y-1.769
X0.567Y-1.216
X0.57Y-0.875
X0.574Y-2.23
X0.58Y-2.39
X0.639Y-0.817
X0.66Y-2.285
X0.679Y-0.52
X0.756Y-0.782
X0.821Y-0.576
X0.839Y-0.817
X0.919Y-0.779
X0.925Y-2.295
X0.925Y-2.41
X0.998Y-0.582
X0.998Y-0.814
X1.018Y-2.257
X1.083Y-0.778
X1.115Y-2.294
X1.115Y-2.41
X1.248Y-0.778
X1.25Y-2.29
X1.25Y-2.41
X1.346Y-2.257
X1.411Y-0.778
X1.574Y-0.778
X1.638Y-0.5045
X1.673Y-2.256
X1.72Y-0.505
X1.739Y-0.779
X1.903Y-0.778
X2.0Y-2.256
X2.066Y-0.778
X2.23Y-0.779
X2.327Y-2.257
X2.394Y-0.778
X2.435Y-2.295
X2.435Y-2.415
X2.55Y-2.415
X2.555Y-2.295
X2.558Y-0.778
X2.654Y-2.257
X2.721Y-0.778
X2.755Y-2.27
X2.765Y-2.425
X2.795Y-2.375
X2.825Y-2.27
X2.865Y-2.375
X2.885Y-0.778
X2.9Y-2.27
X2.93Y-2.375
X2.95Y-0.823
X2.975Y-2.27
X2.982Y-0.635
X3.0Y-2.375
X3.008Y-0.827
X3.05Y-2.255
X3.052Y-1.746
X3.053Y-1.144
X3.06Y-2.19
X3.061Y-1.21
X3.065Y-2.375
X3.074Y-0.846
X3.075Y-0.685
X3.087Y-1.811
X3.0907Y-2.087
X3.0917Y-1.1
X3.1014Y-2.1145
X3.106Y-0.7834
X3.1094Y-1.1236
X3.1104Y-1.1521
X3.1105Y-2.3
X3.115Y-0.725
X3.115Y-2.415
X3.131Y-0.902
X3.131Y-1.859
X3.131Y-1.8885
T2
X0.7079Y-2.475
X1.7579Y-0.425
X1.8579Y-0.425
X2.9079Y-2.475
M30
