%TF.GenerationSoftware,KiCad,Pcbnew,7.0.10*%
%TF.CreationDate,2024-04-14T19:33:58+02:00*%
%TF.ProjectId,LED_Ring,4c45445f-5269-46e6-972e-6b696361645f,rev?*%
%TF.SameCoordinates,Original*%
%TF.FileFunction,Profile,NP*%
%FSLAX46Y46*%
G04 Gerber Fmt 4.6, Leading zero omitted, Abs format (unit mm)*
G04 Created by KiCad (PCBNEW 7.0.10) date 2024-04-14 19:33:58*
%MOMM*%
%LPD*%
G01*
G04 APERTURE LIST*
%TA.AperFunction,Profile*%
%ADD10C,0.100000*%
%TD*%
G04 APERTURE END LIST*
D10*
X79994000Y-11938000D02*
X51419000Y-11938000D01*
X75168000Y-64262000D02*
X79994000Y-61976000D01*
X15224000Y-21844000D02*
X15224000Y-56769000D01*
X48117000Y-9144000D02*
X43993500Y-9144000D01*
X43993500Y-9144000D02*
X40302500Y-11924000D01*
X76692000Y-21844000D02*
X15224000Y-21844000D01*
X24368000Y-62484000D02*
X69072000Y-62484000D01*
X79994000Y-61976000D02*
X79994000Y-11938000D01*
X76692000Y-56769000D02*
X76692000Y-21844000D01*
X16748000Y-64389000D02*
X19288000Y-64389000D01*
X19288000Y-64389000D02*
X24368000Y-62484000D01*
X15224000Y-56769000D02*
X76692000Y-56769000D01*
X11922000Y-62230000D02*
X16748000Y-64389000D01*
X51419000Y-11938000D02*
X48117000Y-9144000D01*
X40302500Y-11924000D02*
X11938000Y-11938000D01*
X11938000Y-11938000D02*
X11922000Y-62230000D01*
X72628000Y-64262000D02*
X75168000Y-64262000D01*
X69072000Y-62484000D02*
X72628000Y-64262000D01*
%TO.C,U1*%
X11947500Y-62230000D02*
X16773500Y-64389000D01*
X11963500Y-11938000D02*
X11947500Y-62230000D01*
X16773500Y-64389000D02*
X19313500Y-64389000D01*
X19313500Y-64389000D02*
X24393500Y-62484000D01*
X24393500Y-62484000D02*
X69097500Y-62484000D01*
X40328000Y-11924000D02*
X11963500Y-11938000D01*
X44019000Y-9144000D02*
X40328000Y-11924000D01*
X48142500Y-9144000D02*
X44019000Y-9144000D01*
X51444500Y-11938000D02*
X48142500Y-9144000D01*
X69097500Y-62484000D02*
X72653500Y-64262000D01*
X72653500Y-64262000D02*
X75193500Y-64262000D01*
X75193500Y-64262000D02*
X80019500Y-61976000D01*
X80019500Y-11938000D02*
X51444500Y-11938000D01*
X80019500Y-61976000D02*
X80019500Y-11938000D01*
%TD*%
M02*
