%TF.GenerationSoftware,KiCad,Pcbnew,7.0.10*%
%TF.CreationDate,2024-04-14T19:33:57+02:00*%
%TF.ProjectId,LED_Ring,4c45445f-5269-46e6-972e-6b696361645f,rev?*%
%TF.SameCoordinates,Original*%
%TF.FileFunction,Copper,L1,Top*%
%TF.FilePolarity,Positive*%
%FSLAX46Y46*%
G04 Gerber Fmt 4.6, Leading zero omitted, Abs format (unit mm)*
G04 Created by KiCad (PCBNEW 7.0.10) date 2024-04-14 19:33:57*
%MOMM*%
%LPD*%
G01*
G04 APERTURE LIST*
G04 Aperture macros list*
%AMRoundRect*
0 Rectangle with rounded corners*
0 $1 Rounding radius*
0 $2 $3 $4 $5 $6 $7 $8 $9 X,Y pos of 4 corners*
0 Add a 4 corners polygon primitive as box body*
4,1,4,$2,$3,$4,$5,$6,$7,$8,$9,$2,$3,0*
0 Add four circle primitives for the rounded corners*
1,1,$1+$1,$2,$3*
1,1,$1+$1,$4,$5*
1,1,$1+$1,$6,$7*
1,1,$1+$1,$8,$9*
0 Add four rect primitives between the rounded corners*
20,1,$1+$1,$2,$3,$4,$5,0*
20,1,$1+$1,$4,$5,$6,$7,0*
20,1,$1+$1,$6,$7,$8,$9,0*
20,1,$1+$1,$8,$9,$2,$3,0*%
G04 Aperture macros list end*
%TA.AperFunction,SMDPad,CuDef*%
%ADD10RoundRect,0.150000X0.150000X0.600000X-0.150000X0.600000X-0.150000X-0.600000X0.150000X-0.600000X0*%
%TD*%
%TA.AperFunction,SMDPad,CuDef*%
%ADD11RoundRect,0.100000X0.100000X0.750000X-0.100000X0.750000X-0.100000X-0.750000X0.100000X-0.750000X0*%
%TD*%
%TA.AperFunction,SMDPad,CuDef*%
%ADD12RoundRect,0.100000X0.100000X0.650000X-0.100000X0.650000X-0.100000X-0.650000X0.100000X-0.650000X0*%
%TD*%
%TA.AperFunction,SMDPad,CuDef*%
%ADD13RoundRect,0.150000X-0.150000X-0.600000X0.150000X-0.600000X0.150000X0.600000X-0.150000X0.600000X0*%
%TD*%
%TA.AperFunction,SMDPad,CuDef*%
%ADD14RoundRect,0.100000X-0.100000X-0.750000X0.100000X-0.750000X0.100000X0.750000X-0.100000X0.750000X0*%
%TD*%
%TA.AperFunction,SMDPad,CuDef*%
%ADD15RoundRect,0.100000X-0.100000X-0.650000X0.100000X-0.650000X0.100000X0.650000X-0.100000X0.650000X0*%
%TD*%
%TA.AperFunction,ComponentPad*%
%ADD16C,1.524000*%
%TD*%
%TA.AperFunction,ViaPad*%
%ADD17C,0.800000*%
%TD*%
%TA.AperFunction,ViaPad*%
%ADD18C,0.550000*%
%TD*%
%TA.AperFunction,ViaPad*%
%ADD19C,0.500000*%
%TD*%
%TA.AperFunction,Conductor*%
%ADD20C,0.250000*%
%TD*%
G04 APERTURE END LIST*
D10*
%TO.P,D7,1,DI*%
%TO.N,Net-(D6-DO)*%
X43243000Y-16249000D03*
%TO.P,D7,2,DO*%
%TO.N,Net-(D7-DO)*%
X45043000Y-16249000D03*
%TO.P,D7,3,CI*%
%TO.N,Net-(D6-CO)*%
X43243000Y-18549000D03*
%TO.P,D7,4,CO*%
%TO.N,Net-(D7-CO)*%
X45043000Y-18549000D03*
D11*
%TO.P,D7,5,GND*%
%TO.N,GND*%
X44143000Y-16349000D03*
D12*
%TO.P,D7,6,VCC*%
%TO.N,+5V*%
X44143000Y-18549000D03*
%TD*%
D10*
%TO.P,D11,1,DI*%
%TO.N,Net-(D10-DO)*%
X59883000Y-16249000D03*
%TO.P,D11,2,DO*%
%TO.N,Net-(D11-DO)*%
X61683000Y-16249000D03*
%TO.P,D11,3,CI*%
%TO.N,Net-(D10-CO)*%
X59883000Y-18549000D03*
%TO.P,D11,4,CO*%
%TO.N,Net-(D11-CO)*%
X61683000Y-18549000D03*
D11*
%TO.P,D11,5,GND*%
%TO.N,GND*%
X60783000Y-16349000D03*
D12*
%TO.P,D11,6,VCC*%
%TO.N,+5V*%
X60783000Y-18549000D03*
%TD*%
D10*
%TO.P,D5,1,DI*%
%TO.N,Net-(D4-DO)*%
X34923000Y-16249000D03*
%TO.P,D5,2,DO*%
%TO.N,Net-(D5-DO)*%
X36723000Y-16249000D03*
%TO.P,D5,3,CI*%
%TO.N,Net-(D4-CO)*%
X34923000Y-18549000D03*
%TO.P,D5,4,CO*%
%TO.N,Net-(D5-CO)*%
X36723000Y-18549000D03*
D11*
%TO.P,D5,5,GND*%
%TO.N,GND*%
X35823000Y-16349000D03*
D12*
%TO.P,D5,6,VCC*%
%TO.N,+5V*%
X35823000Y-18549000D03*
%TD*%
D10*
%TO.P,D9,1,DI*%
%TO.N,Net-(D8-DO)*%
X51563000Y-16249000D03*
%TO.P,D9,2,DO*%
%TO.N,Net-(D10-DI)*%
X53363000Y-16249000D03*
%TO.P,D9,3,CI*%
%TO.N,Net-(D8-CO)*%
X51563000Y-18549000D03*
%TO.P,D9,4,CO*%
%TO.N,Net-(D10-CI)*%
X53363000Y-18549000D03*
D11*
%TO.P,D9,5,GND*%
%TO.N,GND*%
X52463000Y-16349000D03*
D12*
%TO.P,D9,6,VCC*%
%TO.N,+5V*%
X52463000Y-18549000D03*
%TD*%
D10*
%TO.P,D12,1,DI*%
%TO.N,Net-(D11-DO)*%
X64043000Y-16249000D03*
%TO.P,D12,2,DO*%
%TO.N,Net-(D12-DO)*%
X65843000Y-16249000D03*
%TO.P,D12,3,CI*%
%TO.N,Net-(D11-CO)*%
X64043000Y-18549000D03*
%TO.P,D12,4,CO*%
%TO.N,Net-(D12-CO)*%
X65843000Y-18549000D03*
D11*
%TO.P,D12,5,GND*%
%TO.N,GND*%
X64943000Y-16349000D03*
D12*
%TO.P,D12,6,VCC*%
%TO.N,+5V*%
X64943000Y-18549000D03*
%TD*%
D10*
%TO.P,D2,1,DI*%
%TO.N,Net-(D1-DO)*%
X22443000Y-16249000D03*
%TO.P,D2,2,DO*%
%TO.N,Net-(D2-DO)*%
X24243000Y-16249000D03*
%TO.P,D2,3,CI*%
%TO.N,Net-(D1-CO)*%
X22443000Y-18549000D03*
%TO.P,D2,4,CO*%
%TO.N,Net-(D2-CO)*%
X24243000Y-18549000D03*
D11*
%TO.P,D2,5,GND*%
%TO.N,GND*%
X23343000Y-16349000D03*
D12*
%TO.P,D2,6,VCC*%
%TO.N,+5V*%
X23343000Y-18549000D03*
%TD*%
D10*
%TO.P,D14,1,DI*%
%TO.N,Net-(D13-DO)*%
X72363000Y-16249000D03*
%TO.P,D14,2,DO*%
%TO.N,Net-(D14-DO)*%
X74163000Y-16249000D03*
%TO.P,D14,3,CI*%
%TO.N,Net-(D13-CO)*%
X72363000Y-18549000D03*
%TO.P,D14,4,CO*%
%TO.N,Net-(D14-CO)*%
X74163000Y-18549000D03*
D11*
%TO.P,D14,5,GND*%
%TO.N,GND*%
X73263000Y-16349000D03*
D12*
%TO.P,D14,6,VCC*%
%TO.N,+5V*%
X73263000Y-18549000D03*
%TD*%
D10*
%TO.P,D1,1,DI*%
%TO.N,/I2C_Data*%
X18283000Y-16249000D03*
%TO.P,D1,2,DO*%
%TO.N,Net-(D1-DO)*%
X20083000Y-16249000D03*
%TO.P,D1,3,CI*%
%TO.N,/I2C_CLK*%
X18283000Y-18549000D03*
%TO.P,D1,4,CO*%
%TO.N,Net-(D1-CO)*%
X20083000Y-18549000D03*
D11*
%TO.P,D1,5,GND*%
%TO.N,GND*%
X19183000Y-16349000D03*
D12*
%TO.P,D1,6,VCC*%
%TO.N,+5V*%
X19183000Y-18549000D03*
%TD*%
D13*
%TO.P,D20,1,DI*%
%TO.N,Net-(D19-DO)*%
X43399200Y-60840000D03*
%TO.P,D20,2,DO*%
%TO.N,Net-(D20-DO)*%
X41599200Y-60840000D03*
%TO.P,D20,3,CI*%
%TO.N,Net-(D19-CO)*%
X43399200Y-58540000D03*
%TO.P,D20,4,CO*%
%TO.N,Net-(D20-CO)*%
X41599200Y-58540000D03*
D14*
%TO.P,D20,5,GND*%
%TO.N,GND*%
X42499200Y-60740000D03*
D15*
%TO.P,D20,6,VCC*%
%TO.N,+5V*%
X42499200Y-58540000D03*
%TD*%
D13*
%TO.P,D21,1,DI*%
%TO.N,Net-(D20-DO)*%
X35095600Y-60840000D03*
%TO.P,D21,2,DO*%
%TO.N,Net-(D21-DO)*%
X33295600Y-60840000D03*
%TO.P,D21,3,CI*%
%TO.N,Net-(D20-CO)*%
X35095600Y-58540000D03*
%TO.P,D21,4,CO*%
%TO.N,Net-(D21-CO)*%
X33295600Y-58540000D03*
D14*
%TO.P,D21,5,GND*%
%TO.N,GND*%
X34195600Y-60740000D03*
D15*
%TO.P,D21,6,VCC*%
%TO.N,+5V*%
X34195600Y-58540000D03*
%TD*%
D10*
%TO.P,D6,1,DI*%
%TO.N,Net-(D5-DO)*%
X39083000Y-16249000D03*
%TO.P,D6,2,DO*%
%TO.N,Net-(D6-DO)*%
X40883000Y-16249000D03*
%TO.P,D6,3,CI*%
%TO.N,Net-(D5-CO)*%
X39083000Y-18549000D03*
%TO.P,D6,4,CO*%
%TO.N,Net-(D6-CO)*%
X40883000Y-18549000D03*
D11*
%TO.P,D6,5,GND*%
%TO.N,GND*%
X39983000Y-16349000D03*
D12*
%TO.P,D6,6,VCC*%
%TO.N,+5V*%
X39983000Y-18549000D03*
%TD*%
D10*
%TO.P,D4,1,DI*%
%TO.N,Net-(D3-DO)*%
X30763000Y-16249000D03*
%TO.P,D4,2,DO*%
%TO.N,Net-(D4-DO)*%
X32563000Y-16249000D03*
%TO.P,D4,3,CI*%
%TO.N,Net-(D3-CO)*%
X30763000Y-18549000D03*
%TO.P,D4,4,CO*%
%TO.N,Net-(D4-CO)*%
X32563000Y-18549000D03*
D11*
%TO.P,D4,5,GND*%
%TO.N,GND*%
X31663000Y-16349000D03*
D12*
%TO.P,D4,6,VCC*%
%TO.N,+5V*%
X31663000Y-18549000D03*
%TD*%
D10*
%TO.P,D10,1,DI*%
%TO.N,Net-(D10-DI)*%
X55723000Y-16249000D03*
%TO.P,D10,2,DO*%
%TO.N,Net-(D10-DO)*%
X57523000Y-16249000D03*
%TO.P,D10,3,CI*%
%TO.N,Net-(D10-CI)*%
X55723000Y-18549000D03*
%TO.P,D10,4,CO*%
%TO.N,Net-(D10-CO)*%
X57523000Y-18549000D03*
D11*
%TO.P,D10,5,GND*%
%TO.N,GND*%
X56623000Y-16349000D03*
D12*
%TO.P,D10,6,VCC*%
%TO.N,+5V*%
X56623000Y-18549000D03*
%TD*%
D10*
%TO.P,D8,1,DI*%
%TO.N,Net-(D7-DO)*%
X47403000Y-16249000D03*
%TO.P,D8,2,DO*%
%TO.N,Net-(D8-DO)*%
X49203000Y-16249000D03*
%TO.P,D8,3,CI*%
%TO.N,Net-(D7-CO)*%
X47403000Y-18549000D03*
%TO.P,D8,4,CO*%
%TO.N,Net-(D8-CO)*%
X49203000Y-18549000D03*
D11*
%TO.P,D8,5,GND*%
%TO.N,GND*%
X48303000Y-16349000D03*
D12*
%TO.P,D8,6,VCC*%
%TO.N,+5V*%
X48303000Y-18549000D03*
%TD*%
D13*
%TO.P,D23,1,DI*%
%TO.N,Net-(D22-DO)*%
X14484000Y-52084000D03*
%TO.P,D23,2,DO*%
%TO.N,Net-(D23-DO)*%
X12684000Y-52084000D03*
%TO.P,D23,3,CI*%
%TO.N,Net-(D22-CO)*%
X14484000Y-49784000D03*
%TO.P,D23,4,CO*%
%TO.N,Net-(D23-CO)*%
X12684000Y-49784000D03*
D14*
%TO.P,D23,5,GND*%
%TO.N,GND*%
X13584000Y-51984000D03*
D15*
%TO.P,D23,6,VCC*%
%TO.N,+5V*%
X13584000Y-49784000D03*
%TD*%
D10*
%TO.P,D13,1,DI*%
%TO.N,Net-(D12-DO)*%
X68203000Y-16249000D03*
%TO.P,D13,2,DO*%
%TO.N,Net-(D13-DO)*%
X70003000Y-16249000D03*
%TO.P,D13,3,CI*%
%TO.N,Net-(D12-CO)*%
X68203000Y-18549000D03*
%TO.P,D13,4,CO*%
%TO.N,Net-(D13-CO)*%
X70003000Y-18549000D03*
D11*
%TO.P,D13,5,GND*%
%TO.N,GND*%
X69103000Y-16349000D03*
D12*
%TO.P,D13,6,VCC*%
%TO.N,+5V*%
X69103000Y-18549000D03*
%TD*%
D10*
%TO.P,D16,1,DI*%
%TO.N,Net-(D15-DO)*%
X77432000Y-49544000D03*
%TO.P,D16,2,DO*%
%TO.N,Net-(D16-DO)*%
X79232000Y-49544000D03*
%TO.P,D16,3,CI*%
%TO.N,Net-(D15-CO)*%
X77432000Y-51844000D03*
%TO.P,D16,4,CO*%
%TO.N,Net-(D16-CO)*%
X79232000Y-51844000D03*
D11*
%TO.P,D16,5,GND*%
%TO.N,GND*%
X78332000Y-49644000D03*
D12*
%TO.P,D16,6,VCC*%
%TO.N,+5V*%
X78332000Y-51844000D03*
%TD*%
D13*
%TO.P,D17,1,DI*%
%TO.N,Net-(D16-DO)*%
X68310000Y-60840000D03*
%TO.P,D17,2,DO*%
%TO.N,Net-(D17-DO)*%
X66510000Y-60840000D03*
%TO.P,D17,3,CI*%
%TO.N,Net-(D16-CO)*%
X68310000Y-58540000D03*
%TO.P,D17,4,CO*%
%TO.N,Net-(D17-CO)*%
X66510000Y-58540000D03*
D14*
%TO.P,D17,5,GND*%
%TO.N,GND*%
X67410000Y-60740000D03*
D15*
%TO.P,D17,6,VCC*%
%TO.N,+5V*%
X67410000Y-58540000D03*
%TD*%
D10*
%TO.P,D3,1,DI*%
%TO.N,Net-(D2-DO)*%
X26603000Y-16249000D03*
%TO.P,D3,2,DO*%
%TO.N,Net-(D3-DO)*%
X28403000Y-16249000D03*
%TO.P,D3,3,CI*%
%TO.N,Net-(D2-CO)*%
X26603000Y-18549000D03*
%TO.P,D3,4,CO*%
%TO.N,Net-(D3-CO)*%
X28403000Y-18549000D03*
D11*
%TO.P,D3,5,GND*%
%TO.N,GND*%
X27503000Y-16349000D03*
D12*
%TO.P,D3,6,VCC*%
%TO.N,+5V*%
X27503000Y-18549000D03*
%TD*%
D13*
%TO.P,D24,1,DI*%
%TO.N,Net-(D23-DO)*%
X14484000Y-26684000D03*
%TO.P,D24,2,DO*%
%TO.N,unconnected-(D24-DO-Pad2)*%
X12684000Y-26684000D03*
%TO.P,D24,3,CI*%
%TO.N,Net-(D23-CO)*%
X14484000Y-24384000D03*
%TO.P,D24,4,CO*%
%TO.N,unconnected-(D24-CO-Pad4)*%
X12684000Y-24384000D03*
D14*
%TO.P,D24,5,GND*%
%TO.N,GND*%
X13584000Y-26584000D03*
D15*
%TO.P,D24,6,VCC*%
%TO.N,+5V*%
X13584000Y-24384000D03*
%TD*%
D13*
%TO.P,D18,1,DI*%
%TO.N,Net-(D17-DO)*%
X60006400Y-60840000D03*
%TO.P,D18,2,DO*%
%TO.N,Net-(D18-DO)*%
X58206400Y-60840000D03*
%TO.P,D18,3,CI*%
%TO.N,Net-(D17-CO)*%
X60006400Y-58540000D03*
%TO.P,D18,4,CO*%
%TO.N,Net-(D18-CO)*%
X58206400Y-58540000D03*
D14*
%TO.P,D18,5,GND*%
%TO.N,GND*%
X59106400Y-60740000D03*
D15*
%TO.P,D18,6,VCC*%
%TO.N,+5V*%
X59106400Y-58540000D03*
%TD*%
D13*
%TO.P,D19,1,DI*%
%TO.N,Net-(D18-DO)*%
X51702800Y-60840000D03*
%TO.P,D19,2,DO*%
%TO.N,Net-(D19-DO)*%
X49902800Y-60840000D03*
%TO.P,D19,3,CI*%
%TO.N,Net-(D18-CO)*%
X51702800Y-58540000D03*
%TO.P,D19,4,CO*%
%TO.N,Net-(D19-CO)*%
X49902800Y-58540000D03*
D14*
%TO.P,D19,5,GND*%
%TO.N,GND*%
X50802800Y-60740000D03*
D15*
%TO.P,D19,6,VCC*%
%TO.N,+5V*%
X50802800Y-58540000D03*
%TD*%
D13*
%TO.P,D22,1,DI*%
%TO.N,Net-(D21-DO)*%
X26792000Y-60840000D03*
%TO.P,D22,2,DO*%
%TO.N,Net-(D22-DO)*%
X24992000Y-60840000D03*
%TO.P,D22,3,CI*%
%TO.N,Net-(D21-CO)*%
X26792000Y-58540000D03*
%TO.P,D22,4,CO*%
%TO.N,Net-(D22-CO)*%
X24992000Y-58540000D03*
D14*
%TO.P,D22,5,GND*%
%TO.N,GND*%
X25892000Y-60740000D03*
D15*
%TO.P,D22,6,VCC*%
%TO.N,+5V*%
X25892000Y-58540000D03*
%TD*%
D16*
%TO.P,U1,1,I2C_Data*%
%TO.N,/I2C_Data*%
X44650000Y-10795000D03*
%TO.P,U1,2,I2C_CLK*%
%TO.N,/I2C_CLK*%
X47190000Y-10795000D03*
%TO.P,U1,3,5V*%
%TO.N,+5V*%
X17980000Y-62865000D03*
%TO.P,U1,4,GND*%
%TO.N,GND*%
X73860000Y-62865000D03*
%TD*%
D10*
%TO.P,D15,1,DI*%
%TO.N,Net-(D14-DO)*%
X77432000Y-24384000D03*
%TO.P,D15,2,DO*%
%TO.N,Net-(D15-DO)*%
X79232000Y-24384000D03*
%TO.P,D15,3,CI*%
%TO.N,Net-(D14-CO)*%
X77432000Y-26684000D03*
%TO.P,D15,4,CO*%
%TO.N,Net-(D15-CO)*%
X79232000Y-26684000D03*
D11*
%TO.P,D15,5,GND*%
%TO.N,GND*%
X78332000Y-24484000D03*
D12*
%TO.P,D15,6,VCC*%
%TO.N,+5V*%
X78332000Y-26684000D03*
%TD*%
D17*
%TO.N,/I2C_CLK*%
X43688000Y-12827000D03*
X41605847Y-12813847D03*
%TO.N,GND*%
X77851000Y-60325000D03*
X77470000Y-57277000D03*
X70231000Y-61595000D03*
X20853400Y-14630400D03*
X25349200Y-14782800D03*
X25349200Y-20675600D03*
X75565000Y-57658000D03*
X14579600Y-56642000D03*
X76200000Y-60325000D03*
X78079600Y-21488400D03*
X14401800Y-30886400D03*
X70993000Y-60325000D03*
X12700000Y-58674000D03*
X78409800Y-45999400D03*
X72771000Y-60325000D03*
X73660000Y-57658000D03*
X71755000Y-57658000D03*
X31750000Y-61214000D03*
X21310600Y-20751800D03*
X74930000Y-20904200D03*
X13639800Y-29235400D03*
X64897000Y-58293000D03*
X77520800Y-44348400D03*
X28321000Y-61214000D03*
X13831022Y-54615561D03*
X16230600Y-20751800D03*
X16764000Y-58039000D03*
X75742800Y-16129000D03*
X14478000Y-22225000D03*
X77546200Y-29057600D03*
X77724000Y-55626000D03*
X17246600Y-13208000D03*
X76403200Y-21005800D03*
X28321000Y-58267600D03*
X61849000Y-58293000D03*
X79121000Y-18415000D03*
X23495000Y-58293000D03*
X74422000Y-60325000D03*
X14732000Y-60706000D03*
X14300200Y-46507400D03*
X61849000Y-61341000D03*
X31750000Y-58166000D03*
X23495000Y-61214000D03*
X77749400Y-30734000D03*
X69977000Y-57658000D03*
X14224000Y-18313400D03*
X78105000Y-17399000D03*
X14351000Y-44932600D03*
X79121000Y-61341000D03*
X12725400Y-20447000D03*
X64770000Y-61341000D03*
D18*
%TO.N,+5V*%
X78502800Y-53009800D03*
X48336200Y-19761200D03*
X64973200Y-19761200D03*
X60807600Y-19761200D03*
X13496000Y-48603532D03*
X78528200Y-27940000D03*
X50800000Y-57302400D03*
X69113400Y-19761200D03*
X27508200Y-19761200D03*
X73279000Y-19761200D03*
X31699200Y-19761200D03*
X23342600Y-19786600D03*
X67411600Y-57327800D03*
X39979600Y-19761200D03*
X25857200Y-57327800D03*
X35839400Y-19761200D03*
X56642000Y-19786600D03*
X42494200Y-57302400D03*
X13311775Y-23217992D03*
X34188400Y-57327800D03*
X52476400Y-19761200D03*
X59105800Y-57327800D03*
X44170600Y-19786600D03*
X19202400Y-19862800D03*
%TO.N,Net-(D14-CO)*%
X78892035Y-19898165D03*
X78978200Y-28539234D03*
D19*
%TO.N,Net-(D15-DO)*%
X79003200Y-29263667D03*
D18*
X79527400Y-22910800D03*
%TO.N,Net-(D15-CO)*%
X79527400Y-47218600D03*
X78775736Y-53708377D03*
D17*
%TO.N,Net-(D16-DO)*%
X79007542Y-58420000D03*
D18*
X79527400Y-47968603D03*
%TO.N,Net-(D22-CO)*%
X13046000Y-47853600D03*
X12996073Y-56233939D03*
%TO.N,Net-(D23-DO)*%
X12420600Y-53162200D03*
X13173000Y-42011600D03*
%TO.N,Net-(D23-CO)*%
X12522237Y-23159001D03*
X12471400Y-27990800D03*
%TD*%
D20*
%TO.N,+5V*%
X13584000Y-23490217D02*
X13311775Y-23217992D01*
X13584000Y-24384000D02*
X13584000Y-23490217D01*
%TO.N,/I2C_Data*%
X41856000Y-13589000D02*
X44650000Y-10795000D01*
X18283000Y-16249000D02*
X18283000Y-15119396D01*
X19813396Y-13589000D02*
X41856000Y-13589000D01*
X18283000Y-15119396D02*
X19813396Y-13589000D01*
%TO.N,Net-(D1-DO)*%
X21037000Y-17203000D02*
X21489000Y-17203000D01*
X21489000Y-17203000D02*
X22443000Y-16249000D01*
X20083000Y-16249000D02*
X21037000Y-17203000D01*
%TO.N,/I2C_CLK*%
X18283000Y-18549000D02*
X17658000Y-17924000D01*
X22352000Y-13081000D02*
X41338694Y-13081000D01*
X43688000Y-12827000D02*
X45158000Y-12827000D01*
X45158000Y-12827000D02*
X47190000Y-10795000D01*
X41338694Y-13081000D02*
X41605847Y-12813847D01*
X17658000Y-17924000D02*
X17658000Y-15108000D01*
X19685000Y-13081000D02*
X22352000Y-13081000D01*
X17658000Y-15108000D02*
X19685000Y-13081000D01*
%TO.N,Net-(D1-CO)*%
X20083000Y-18549000D02*
X20979000Y-17653000D01*
X21547000Y-17653000D02*
X22443000Y-18549000D01*
X20979000Y-17653000D02*
X21547000Y-17653000D01*
%TO.N,+5V*%
X23343000Y-19786200D02*
X23342600Y-19786600D01*
X64943000Y-18549000D02*
X64943000Y-19731000D01*
X19183000Y-18549000D02*
X19183000Y-19843400D01*
X50802800Y-57305200D02*
X50800000Y-57302400D01*
X78332000Y-51844000D02*
X78332000Y-52839000D01*
X44143000Y-18549000D02*
X44143000Y-19759000D01*
X34195600Y-58540000D02*
X34195600Y-57335000D01*
X27503000Y-19756000D02*
X27508200Y-19761200D01*
X35823000Y-18549000D02*
X35823000Y-19744800D01*
X25892000Y-58540000D02*
X25892000Y-57362600D01*
X60783000Y-18549000D02*
X60783000Y-19736600D01*
X23343000Y-18549000D02*
X23343000Y-19786200D01*
X52463000Y-19747800D02*
X52476400Y-19761200D01*
X48303000Y-18549000D02*
X48303000Y-19728000D01*
X73263000Y-18549000D02*
X73263000Y-19745200D01*
X60783000Y-19736600D02*
X60807600Y-19761200D01*
X39983000Y-18549000D02*
X39983000Y-19757800D01*
X31663000Y-18549000D02*
X31663000Y-19725000D01*
X56623000Y-18549000D02*
X56623000Y-19767600D01*
X52463000Y-18549000D02*
X52463000Y-19747800D01*
X67410000Y-58540000D02*
X67410000Y-57329400D01*
X25892000Y-57362600D02*
X25857200Y-57327800D01*
X64943000Y-19731000D02*
X64973200Y-19761200D01*
X39983000Y-19757800D02*
X39979600Y-19761200D01*
X69103000Y-18549000D02*
X69103000Y-19750800D01*
X42499200Y-57307400D02*
X42494200Y-57302400D01*
X59106400Y-57328400D02*
X59105800Y-57327800D01*
X78332000Y-26684000D02*
X78332000Y-27743800D01*
X13584000Y-48691532D02*
X13496000Y-48603532D01*
X44143000Y-19759000D02*
X44170600Y-19786600D01*
X50802800Y-58540000D02*
X50802800Y-57305200D01*
X35823000Y-19744800D02*
X35839400Y-19761200D01*
X31663000Y-19725000D02*
X31699200Y-19761200D01*
X27503000Y-18549000D02*
X27503000Y-19756000D01*
X59106400Y-58540000D02*
X59106400Y-57328400D01*
X78332000Y-27743800D02*
X78528200Y-27940000D01*
X34195600Y-57335000D02*
X34188400Y-57327800D01*
X48303000Y-19728000D02*
X48336200Y-19761200D01*
X73263000Y-19745200D02*
X73279000Y-19761200D01*
X42499200Y-58540000D02*
X42499200Y-57307400D01*
X56623000Y-19767600D02*
X56642000Y-19786600D01*
X67410000Y-57329400D02*
X67411600Y-57327800D01*
X19183000Y-19843400D02*
X19202400Y-19862800D01*
X78332000Y-52839000D02*
X78502800Y-53009800D01*
X13584000Y-49784000D02*
X13584000Y-48691532D01*
X69103000Y-19750800D02*
X69113400Y-19761200D01*
%TO.N,Net-(D2-DO)*%
X25649000Y-17203000D02*
X26603000Y-16249000D01*
X25197000Y-17203000D02*
X25649000Y-17203000D01*
X24243000Y-16249000D02*
X25197000Y-17203000D01*
%TO.N,Net-(D2-CO)*%
X24243000Y-18549000D02*
X25139000Y-17653000D01*
X25139000Y-17653000D02*
X25707000Y-17653000D01*
X25707000Y-17653000D02*
X26603000Y-18549000D01*
%TO.N,Net-(D3-DO)*%
X28403000Y-16249000D02*
X29357000Y-17203000D01*
X29809000Y-17203000D02*
X30763000Y-16249000D01*
X29357000Y-17203000D02*
X29809000Y-17203000D01*
%TO.N,Net-(D3-CO)*%
X28403000Y-18549000D02*
X29299000Y-17653000D01*
X29867000Y-17653000D02*
X30763000Y-18549000D01*
X29299000Y-17653000D02*
X29867000Y-17653000D01*
%TO.N,Net-(D4-DO)*%
X33969000Y-17203000D02*
X34923000Y-16249000D01*
X32563000Y-16249000D02*
X33517000Y-17203000D01*
X33517000Y-17203000D02*
X33969000Y-17203000D01*
%TO.N,Net-(D4-CO)*%
X33459000Y-17653000D02*
X34027000Y-17653000D01*
X34027000Y-17653000D02*
X34923000Y-18549000D01*
X32563000Y-18549000D02*
X33459000Y-17653000D01*
%TO.N,Net-(D5-DO)*%
X38129000Y-17203000D02*
X39083000Y-16249000D01*
X36723000Y-16249000D02*
X37677000Y-17203000D01*
X37677000Y-17203000D02*
X38129000Y-17203000D01*
%TO.N,Net-(D5-CO)*%
X38187000Y-17653000D02*
X39083000Y-18549000D01*
X36723000Y-18549000D02*
X37619000Y-17653000D01*
X37619000Y-17653000D02*
X38187000Y-17653000D01*
%TO.N,Net-(D6-DO)*%
X41837000Y-17203000D02*
X42289000Y-17203000D01*
X42289000Y-17203000D02*
X43243000Y-16249000D01*
X40883000Y-16249000D02*
X41837000Y-17203000D01*
%TO.N,Net-(D6-CO)*%
X42347000Y-17653000D02*
X43243000Y-18549000D01*
X40883000Y-18549000D02*
X41779000Y-17653000D01*
X41779000Y-17653000D02*
X42347000Y-17653000D01*
%TO.N,Net-(D7-DO)*%
X45997000Y-17203000D02*
X46449000Y-17203000D01*
X46449000Y-17203000D02*
X47403000Y-16249000D01*
X45043000Y-16249000D02*
X45997000Y-17203000D01*
%TO.N,Net-(D7-CO)*%
X45939000Y-17653000D02*
X46507000Y-17653000D01*
X46507000Y-17653000D02*
X47403000Y-18549000D01*
X45043000Y-18549000D02*
X45939000Y-17653000D01*
%TO.N,Net-(D8-DO)*%
X50609000Y-17203000D02*
X51563000Y-16249000D01*
X50157000Y-17203000D02*
X50609000Y-17203000D01*
X49203000Y-16249000D02*
X50157000Y-17203000D01*
%TO.N,Net-(D8-CO)*%
X49203000Y-18549000D02*
X50099000Y-17653000D01*
X50667000Y-17653000D02*
X51563000Y-18549000D01*
X50099000Y-17653000D02*
X50667000Y-17653000D01*
%TO.N,Net-(D10-DI)*%
X53363000Y-16249000D02*
X54317000Y-17203000D01*
X54769000Y-17203000D02*
X55723000Y-16249000D01*
X54317000Y-17203000D02*
X54769000Y-17203000D01*
%TO.N,Net-(D10-CI)*%
X54827000Y-17653000D02*
X55723000Y-18549000D01*
X54259000Y-17653000D02*
X54827000Y-17653000D01*
X53363000Y-18549000D02*
X54259000Y-17653000D01*
%TO.N,Net-(D10-DO)*%
X58929000Y-17203000D02*
X59883000Y-16249000D01*
X58477000Y-17203000D02*
X58929000Y-17203000D01*
X57523000Y-16249000D02*
X58477000Y-17203000D01*
%TO.N,Net-(D10-CO)*%
X58987000Y-17653000D02*
X59883000Y-18549000D01*
X58419000Y-17653000D02*
X58987000Y-17653000D01*
X57523000Y-18549000D02*
X58419000Y-17653000D01*
%TO.N,Net-(D11-DO)*%
X63089000Y-17203000D02*
X64043000Y-16249000D01*
X62637000Y-17203000D02*
X63089000Y-17203000D01*
X61683000Y-16249000D02*
X62637000Y-17203000D01*
%TO.N,Net-(D11-CO)*%
X61683000Y-18549000D02*
X62579000Y-17653000D01*
X63147000Y-17653000D02*
X64043000Y-18549000D01*
X62579000Y-17653000D02*
X63147000Y-17653000D01*
%TO.N,Net-(D12-DO)*%
X66797000Y-17203000D02*
X67249000Y-17203000D01*
X65843000Y-16249000D02*
X66797000Y-17203000D01*
X67249000Y-17203000D02*
X68203000Y-16249000D01*
%TO.N,Net-(D12-CO)*%
X66739000Y-17653000D02*
X67307000Y-17653000D01*
X67307000Y-17653000D02*
X68203000Y-18549000D01*
X65843000Y-18549000D02*
X66739000Y-17653000D01*
%TO.N,Net-(D13-DO)*%
X70899000Y-17145000D02*
X71467000Y-17145000D01*
X71467000Y-17145000D02*
X72363000Y-16249000D01*
X70003000Y-16249000D02*
X70899000Y-17145000D01*
%TO.N,Net-(D13-CO)*%
X71409000Y-17595000D02*
X72363000Y-18549000D01*
X70957000Y-17595000D02*
X71409000Y-17595000D01*
X70003000Y-18549000D02*
X70957000Y-17595000D01*
%TO.N,Net-(D14-DO)*%
X79140564Y-20498165D02*
X77774435Y-20498165D01*
X79492035Y-19649636D02*
X79492035Y-20146694D01*
X78820695Y-19140000D02*
X78982400Y-19140000D01*
X77368400Y-17526000D02*
X77368400Y-17687705D01*
X78982400Y-19140000D02*
X79492035Y-19649636D01*
X77139800Y-24091800D02*
X77432000Y-24384000D01*
X77139800Y-21132800D02*
X77139800Y-24091800D01*
X77774435Y-20498165D02*
X77139800Y-21132800D01*
X74163000Y-16775000D02*
X74914000Y-17526000D01*
X74163000Y-16249000D02*
X74163000Y-16775000D01*
X74914000Y-17526000D02*
X77368400Y-17526000D01*
X77368400Y-17687705D02*
X78820695Y-19140000D01*
X79492035Y-20146694D02*
X79140564Y-20498165D01*
%TO.N,Net-(D14-CO)*%
X78978200Y-28539234D02*
X78278905Y-28539234D01*
X77432000Y-27692329D02*
X77432000Y-26684000D01*
X78892035Y-19898165D02*
X78892035Y-19847736D01*
X78278905Y-28539234D02*
X77432000Y-27692329D01*
X78892035Y-19847736D02*
X77593299Y-18549000D01*
X77593299Y-18549000D02*
X74163000Y-18549000D01*
%TO.N,Net-(D15-DO)*%
X79527400Y-23418800D02*
X79232000Y-23714200D01*
X77432000Y-45758000D02*
X77432000Y-49544000D01*
X79003200Y-29263667D02*
X79128200Y-29388667D01*
X79128200Y-44061800D02*
X77432000Y-45758000D01*
X79128200Y-29388667D02*
X79128200Y-44061800D01*
X79232000Y-23714200D02*
X79232000Y-24384000D01*
X79527400Y-22910800D02*
X79527400Y-23418800D01*
%TO.N,Net-(D15-CO)*%
X79578200Y-27030200D02*
X79232000Y-26684000D01*
X79527400Y-47218600D02*
X79578200Y-47167800D01*
X78775736Y-53708377D02*
X78677159Y-53609800D01*
X78254271Y-53609800D02*
X77432000Y-52787529D01*
X78677159Y-53609800D02*
X78254271Y-53609800D01*
X79578200Y-47167800D02*
X79578200Y-27030200D01*
X77432000Y-52787529D02*
X77432000Y-51844000D01*
%TO.N,Net-(D16-DO)*%
X79232000Y-49088800D02*
X79552800Y-48768000D01*
X79007542Y-58420000D02*
X78437542Y-58990000D01*
X79552800Y-47994003D02*
X79527400Y-47968603D01*
X79552800Y-48768000D02*
X79552800Y-47994003D01*
X79232000Y-49544000D02*
X79232000Y-49088800D01*
X78437542Y-58990000D02*
X70160000Y-58990000D01*
X70160000Y-58990000D02*
X68310000Y-60840000D01*
%TO.N,Net-(D16-CO)*%
X77858000Y-58540000D02*
X68310000Y-58540000D01*
X79375000Y-57023000D02*
X77858000Y-58540000D01*
X79375000Y-51987000D02*
X79375000Y-57023000D01*
X79232000Y-51844000D02*
X79375000Y-51987000D01*
%TO.N,Net-(D17-DO)*%
X60902400Y-59944000D02*
X65614000Y-59944000D01*
X65614000Y-59944000D02*
X66510000Y-60840000D01*
X60006400Y-60840000D02*
X60902400Y-59944000D01*
%TO.N,Net-(D17-CO)*%
X60960400Y-59494000D02*
X60006400Y-58540000D01*
X65556000Y-59494000D02*
X60960400Y-59494000D01*
X66510000Y-58540000D02*
X65556000Y-59494000D01*
%TO.N,Net-(D18-DO)*%
X52598800Y-59944000D02*
X57310400Y-59944000D01*
X51702800Y-60840000D02*
X52598800Y-59944000D01*
X57310400Y-59944000D02*
X58206400Y-60840000D01*
%TO.N,Net-(D18-CO)*%
X52656800Y-59494000D02*
X51702800Y-58540000D01*
X58206400Y-58540000D02*
X57252400Y-59494000D01*
X57252400Y-59494000D02*
X52656800Y-59494000D01*
%TO.N,Net-(D19-DO)*%
X43399200Y-60840000D02*
X44353200Y-59886000D01*
X48948800Y-59886000D02*
X49902800Y-60840000D01*
X44353200Y-59886000D02*
X48948800Y-59886000D01*
%TO.N,Net-(D19-CO)*%
X44295200Y-59436000D02*
X43399200Y-58540000D01*
X49902800Y-58540000D02*
X49006800Y-59436000D01*
X49006800Y-59436000D02*
X44295200Y-59436000D01*
%TO.N,Net-(D20-DO)*%
X35991600Y-59944000D02*
X40703200Y-59944000D01*
X35095600Y-60840000D02*
X35991600Y-59944000D01*
X40703200Y-59944000D02*
X41599200Y-60840000D01*
%TO.N,Net-(D20-CO)*%
X40645200Y-59494000D02*
X36049600Y-59494000D01*
X36049600Y-59494000D02*
X35095600Y-58540000D01*
X41599200Y-58540000D02*
X40645200Y-59494000D01*
%TO.N,Net-(D21-DO)*%
X27746000Y-59886000D02*
X32341600Y-59886000D01*
X32341600Y-59886000D02*
X33295600Y-60840000D01*
X26792000Y-60840000D02*
X27746000Y-59886000D01*
%TO.N,Net-(D21-CO)*%
X33295600Y-58540000D02*
X32399600Y-59436000D01*
X27688000Y-59436000D02*
X26792000Y-58540000D01*
X32399600Y-59436000D02*
X27688000Y-59436000D01*
%TO.N,Net-(D22-DO)*%
X13837949Y-55633939D02*
X14556022Y-54915866D01*
X14556022Y-54915866D02*
X14556022Y-54315256D01*
X24992000Y-60840000D02*
X24096000Y-59944000D01*
X14401800Y-52166200D02*
X14484000Y-52084000D01*
X14556022Y-54315256D02*
X14401800Y-54161034D01*
X15857604Y-59944000D02*
X12395200Y-56481596D01*
X12747544Y-55633939D02*
X13837949Y-55633939D01*
X12395200Y-56481596D02*
X12395200Y-55986283D01*
X14401800Y-54161034D02*
X14401800Y-52166200D01*
X12395200Y-55986283D02*
X12747544Y-55633939D01*
X24096000Y-59944000D02*
X15857604Y-59944000D01*
%TO.N,Net-(D22-CO)*%
X13314071Y-47853600D02*
X13374471Y-47914000D01*
X13374471Y-47914000D02*
X13654997Y-47914000D01*
X13046000Y-47853600D02*
X13314071Y-47853600D01*
X12996073Y-56446073D02*
X16044000Y-59494000D01*
X13654997Y-47914000D02*
X14484000Y-48743003D01*
X12996073Y-56233939D02*
X12996073Y-56446073D01*
X14484000Y-48743003D02*
X14484000Y-49784000D01*
X24038000Y-59494000D02*
X24992000Y-58540000D01*
X16044000Y-59494000D02*
X24038000Y-59494000D01*
%TO.N,Net-(D23-DO)*%
X13023000Y-41861600D02*
X13023000Y-30995200D01*
X14484000Y-29534200D02*
X14484000Y-26684000D01*
X13173000Y-42011600D02*
X13023000Y-41861600D01*
X12420600Y-53162200D02*
X12684000Y-52898800D01*
X12684000Y-52898800D02*
X12684000Y-52084000D01*
X13023000Y-30995200D02*
X14484000Y-29534200D01*
%TO.N,Net-(D23-CO)*%
X14484000Y-23510305D02*
X14484000Y-24384000D01*
X13100638Y-22580600D02*
X13554295Y-22580600D01*
X12471400Y-27990800D02*
X12446000Y-28016200D01*
X12446000Y-49546000D02*
X12684000Y-49784000D01*
X13554295Y-22580600D02*
X14484000Y-23510305D01*
X12446000Y-28016200D02*
X12446000Y-49546000D01*
X12522237Y-23159001D02*
X13100638Y-22580600D01*
%TD*%
%TA.AperFunction,Conductor*%
%TO.N,GND*%
G36*
X12270203Y-57241635D02*
G01*
X12276681Y-57247667D01*
X15356798Y-60327784D01*
X15366623Y-60340048D01*
X15366844Y-60339866D01*
X15371814Y-60345874D01*
X15420843Y-60391915D01*
X15423640Y-60394626D01*
X15443134Y-60414120D01*
X15446299Y-60416575D01*
X15455175Y-60424156D01*
X15487022Y-60454062D01*
X15487026Y-60454064D01*
X15504577Y-60463713D01*
X15520835Y-60474392D01*
X15536668Y-60486674D01*
X15572014Y-60501968D01*
X15576759Y-60504022D01*
X15587239Y-60509155D01*
X15625512Y-60530197D01*
X15644916Y-60535179D01*
X15663314Y-60541478D01*
X15681709Y-60549438D01*
X15724858Y-60556271D01*
X15736284Y-60558638D01*
X15778585Y-60569500D01*
X15798620Y-60569500D01*
X15818017Y-60571026D01*
X15837800Y-60574160D01*
X15881279Y-60570050D01*
X15892948Y-60569500D01*
X23785548Y-60569500D01*
X23852587Y-60589185D01*
X23873229Y-60605819D01*
X24155181Y-60887771D01*
X24188666Y-60949094D01*
X24191500Y-60975452D01*
X24191500Y-61505701D01*
X24194401Y-61542567D01*
X24194402Y-61542573D01*
X24240254Y-61700393D01*
X24240255Y-61700396D01*
X24323917Y-61841862D01*
X24323923Y-61841870D01*
X24440129Y-61958076D01*
X24440133Y-61958079D01*
X24440135Y-61958081D01*
X24581602Y-62041744D01*
X24622111Y-62053513D01*
X24739426Y-62087597D01*
X24739429Y-62087597D01*
X24739431Y-62087598D01*
X24776306Y-62090500D01*
X24776314Y-62090500D01*
X25207686Y-62090500D01*
X25207694Y-62090500D01*
X25244569Y-62087598D01*
X25244571Y-62087597D01*
X25244573Y-62087597D01*
X25329875Y-62062814D01*
X25402398Y-62041744D01*
X25543865Y-61958081D01*
X25660081Y-61841865D01*
X25743744Y-61700398D01*
X25772924Y-61599962D01*
X25810530Y-61541076D01*
X25874003Y-61511870D01*
X25943189Y-61521616D01*
X25996124Y-61567220D01*
X26011076Y-61599962D01*
X26040254Y-61700393D01*
X26040255Y-61700396D01*
X26123917Y-61841862D01*
X26123923Y-61841870D01*
X26240129Y-61958076D01*
X26240133Y-61958079D01*
X26240135Y-61958081D01*
X26381602Y-62041744D01*
X26422111Y-62053513D01*
X26539426Y-62087597D01*
X26539429Y-62087597D01*
X26539431Y-62087598D01*
X26576306Y-62090500D01*
X26576314Y-62090500D01*
X27007686Y-62090500D01*
X27007694Y-62090500D01*
X27044569Y-62087598D01*
X27044571Y-62087597D01*
X27044573Y-62087597D01*
X27129875Y-62062814D01*
X27202398Y-62041744D01*
X27343865Y-61958081D01*
X27460081Y-61841865D01*
X27543744Y-61700398D01*
X27589598Y-61542569D01*
X27592500Y-61505694D01*
X27592500Y-60975452D01*
X27612185Y-60908413D01*
X27628819Y-60887771D01*
X27968771Y-60547819D01*
X28030094Y-60514334D01*
X28056452Y-60511500D01*
X32031148Y-60511500D01*
X32098187Y-60531185D01*
X32118829Y-60547819D01*
X32458781Y-60887771D01*
X32492266Y-60949094D01*
X32495100Y-60975452D01*
X32495100Y-61505701D01*
X32498001Y-61542567D01*
X32498002Y-61542573D01*
X32543854Y-61700393D01*
X32543855Y-61700396D01*
X32627517Y-61841862D01*
X32627523Y-61841870D01*
X32743729Y-61958076D01*
X32743733Y-61958079D01*
X32743735Y-61958081D01*
X32885202Y-62041744D01*
X32925711Y-62053513D01*
X33043026Y-62087597D01*
X33043029Y-62087597D01*
X33043031Y-62087598D01*
X33079906Y-62090500D01*
X33079914Y-62090500D01*
X33511286Y-62090500D01*
X33511294Y-62090500D01*
X33548169Y-62087598D01*
X33548171Y-62087597D01*
X33548173Y-62087597D01*
X33633475Y-62062814D01*
X33705998Y-62041744D01*
X33847465Y-61958081D01*
X33963681Y-61841865D01*
X34047344Y-61700398D01*
X34076524Y-61599962D01*
X34114130Y-61541076D01*
X34177603Y-61511870D01*
X34246789Y-61521616D01*
X34299724Y-61567220D01*
X34314676Y-61599962D01*
X34343854Y-61700393D01*
X34343855Y-61700396D01*
X34427517Y-61841862D01*
X34427523Y-61841870D01*
X34543729Y-61958076D01*
X34543733Y-61958079D01*
X34543735Y-61958081D01*
X34685202Y-62041744D01*
X34725711Y-62053513D01*
X34843026Y-62087597D01*
X34843029Y-62087597D01*
X34843031Y-62087598D01*
X34879906Y-62090500D01*
X34879914Y-62090500D01*
X35311286Y-62090500D01*
X35311294Y-62090500D01*
X35348169Y-62087598D01*
X35348171Y-62087597D01*
X35348173Y-62087597D01*
X35433475Y-62062814D01*
X35505998Y-62041744D01*
X35647465Y-61958081D01*
X35763681Y-61841865D01*
X35847344Y-61700398D01*
X35893198Y-61542569D01*
X35896100Y-61505694D01*
X35896100Y-60975452D01*
X35915785Y-60908413D01*
X35932419Y-60887771D01*
X36214372Y-60605819D01*
X36275695Y-60572334D01*
X36302053Y-60569500D01*
X40392748Y-60569500D01*
X40459787Y-60589185D01*
X40480429Y-60605819D01*
X40762381Y-60887771D01*
X40795866Y-60949094D01*
X40798700Y-60975452D01*
X40798700Y-61505701D01*
X40801601Y-61542567D01*
X40801602Y-61542573D01*
X40847454Y-61700393D01*
X40847455Y-61700396D01*
X40931117Y-61841862D01*
X40931123Y-61841870D01*
X41047329Y-61958076D01*
X41047333Y-61958079D01*
X41047335Y-61958081D01*
X41188802Y-62041744D01*
X41229311Y-62053513D01*
X41346626Y-62087597D01*
X41346629Y-62087597D01*
X41346631Y-62087598D01*
X41383506Y-62090500D01*
X41383514Y-62090500D01*
X41814886Y-62090500D01*
X41814894Y-62090500D01*
X41851769Y-62087598D01*
X41851771Y-62087597D01*
X41851773Y-62087597D01*
X41937075Y-62062814D01*
X42009598Y-62041744D01*
X42151065Y-61958081D01*
X42267281Y-61841865D01*
X42350944Y-61700398D01*
X42380124Y-61599962D01*
X42417730Y-61541076D01*
X42481203Y-61511870D01*
X42550389Y-61521616D01*
X42603324Y-61567220D01*
X42618276Y-61599962D01*
X42647454Y-61700393D01*
X42647455Y-61700396D01*
X42731117Y-61841862D01*
X42731123Y-61841870D01*
X42847329Y-61958076D01*
X42847333Y-61958079D01*
X42847335Y-61958081D01*
X42988802Y-62041744D01*
X43029311Y-62053513D01*
X43146626Y-62087597D01*
X43146629Y-62087597D01*
X43146631Y-62087598D01*
X43183506Y-62090500D01*
X43183514Y-62090500D01*
X43614886Y-62090500D01*
X43614894Y-62090500D01*
X43651769Y-62087598D01*
X43651771Y-62087597D01*
X43651773Y-62087597D01*
X43737075Y-62062814D01*
X43809598Y-62041744D01*
X43951065Y-61958081D01*
X44067281Y-61841865D01*
X44150944Y-61700398D01*
X44196798Y-61542569D01*
X44199700Y-61505694D01*
X44199700Y-60975452D01*
X44219385Y-60908413D01*
X44236019Y-60887771D01*
X44575971Y-60547819D01*
X44637294Y-60514334D01*
X44663652Y-60511500D01*
X48638348Y-60511500D01*
X48705387Y-60531185D01*
X48726029Y-60547819D01*
X49065981Y-60887771D01*
X49099466Y-60949094D01*
X49102300Y-60975452D01*
X49102300Y-61505701D01*
X49105201Y-61542567D01*
X49105202Y-61542573D01*
X49151054Y-61700393D01*
X49151055Y-61700396D01*
X49234717Y-61841862D01*
X49234723Y-61841870D01*
X49350929Y-61958076D01*
X49350933Y-61958079D01*
X49350935Y-61958081D01*
X49492402Y-62041744D01*
X49532911Y-62053513D01*
X49650226Y-62087597D01*
X49650229Y-62087597D01*
X49650231Y-62087598D01*
X49687106Y-62090500D01*
X49687114Y-62090500D01*
X50118486Y-62090500D01*
X50118494Y-62090500D01*
X50155369Y-62087598D01*
X50155371Y-62087597D01*
X50155373Y-62087597D01*
X50240675Y-62062814D01*
X50313198Y-62041744D01*
X50454665Y-61958081D01*
X50570881Y-61841865D01*
X50654544Y-61700398D01*
X50683724Y-61599962D01*
X50721330Y-61541076D01*
X50784803Y-61511870D01*
X50853989Y-61521616D01*
X50906924Y-61567220D01*
X50921876Y-61599962D01*
X50951054Y-61700393D01*
X50951055Y-61700396D01*
X51034717Y-61841862D01*
X51034723Y-61841870D01*
X51150929Y-61958076D01*
X51150933Y-61958079D01*
X51150935Y-61958081D01*
X51292402Y-62041744D01*
X51332911Y-62053513D01*
X51450226Y-62087597D01*
X51450229Y-62087597D01*
X51450231Y-62087598D01*
X51487106Y-62090500D01*
X51487114Y-62090500D01*
X51918486Y-62090500D01*
X51918494Y-62090500D01*
X51955369Y-62087598D01*
X51955371Y-62087597D01*
X51955373Y-62087597D01*
X52040675Y-62062814D01*
X52113198Y-62041744D01*
X52254665Y-61958081D01*
X52370881Y-61841865D01*
X52454544Y-61700398D01*
X52500398Y-61542569D01*
X52503300Y-61505694D01*
X52503300Y-60975452D01*
X52522985Y-60908413D01*
X52539619Y-60887771D01*
X52821572Y-60605819D01*
X52882895Y-60572334D01*
X52909253Y-60569500D01*
X56999948Y-60569500D01*
X57066987Y-60589185D01*
X57087629Y-60605819D01*
X57369581Y-60887771D01*
X57403066Y-60949094D01*
X57405900Y-60975452D01*
X57405900Y-61505701D01*
X57408801Y-61542567D01*
X57408802Y-61542573D01*
X57454654Y-61700393D01*
X57454655Y-61700396D01*
X57538317Y-61841862D01*
X57538323Y-61841870D01*
X57654529Y-61958076D01*
X57654533Y-61958079D01*
X57654535Y-61958081D01*
X57796002Y-62041744D01*
X57836511Y-62053513D01*
X57953826Y-62087597D01*
X57953829Y-62087597D01*
X57953831Y-62087598D01*
X57990706Y-62090500D01*
X57990714Y-62090500D01*
X58422086Y-62090500D01*
X58422094Y-62090500D01*
X58458969Y-62087598D01*
X58458971Y-62087597D01*
X58458973Y-62087597D01*
X58544275Y-62062814D01*
X58616798Y-62041744D01*
X58758265Y-61958081D01*
X58874481Y-61841865D01*
X58958144Y-61700398D01*
X58987324Y-61599962D01*
X59024930Y-61541076D01*
X59088403Y-61511870D01*
X59157589Y-61521616D01*
X59210524Y-61567220D01*
X59225476Y-61599962D01*
X59254654Y-61700393D01*
X59254655Y-61700396D01*
X59338317Y-61841862D01*
X59338323Y-61841870D01*
X59454529Y-61958076D01*
X59454533Y-61958079D01*
X59454535Y-61958081D01*
X59596002Y-62041744D01*
X59636511Y-62053513D01*
X59753826Y-62087597D01*
X59753829Y-62087597D01*
X59753831Y-62087598D01*
X59790706Y-62090500D01*
X59790714Y-62090500D01*
X60222086Y-62090500D01*
X60222094Y-62090500D01*
X60258969Y-62087598D01*
X60258971Y-62087597D01*
X60258973Y-62087597D01*
X60344275Y-62062814D01*
X60416798Y-62041744D01*
X60558265Y-61958081D01*
X60674481Y-61841865D01*
X60758144Y-61700398D01*
X60803998Y-61542569D01*
X60806900Y-61505694D01*
X60806900Y-60975452D01*
X60826585Y-60908413D01*
X60843219Y-60887771D01*
X61125172Y-60605819D01*
X61186495Y-60572334D01*
X61212853Y-60569500D01*
X65303548Y-60569500D01*
X65370587Y-60589185D01*
X65391229Y-60605819D01*
X65673181Y-60887771D01*
X65706666Y-60949094D01*
X65709500Y-60975452D01*
X65709500Y-61505701D01*
X65712401Y-61542567D01*
X65712402Y-61542573D01*
X65758254Y-61700393D01*
X65758255Y-61700396D01*
X65841917Y-61841862D01*
X65841923Y-61841870D01*
X65958129Y-61958076D01*
X65958133Y-61958079D01*
X65958135Y-61958081D01*
X66099602Y-62041744D01*
X66140111Y-62053513D01*
X66257426Y-62087597D01*
X66257429Y-62087597D01*
X66257431Y-62087598D01*
X66294306Y-62090500D01*
X66294314Y-62090500D01*
X66725686Y-62090500D01*
X66725694Y-62090500D01*
X66762569Y-62087598D01*
X66762571Y-62087597D01*
X66762573Y-62087597D01*
X66847875Y-62062814D01*
X66920398Y-62041744D01*
X67061865Y-61958081D01*
X67178081Y-61841865D01*
X67261744Y-61700398D01*
X67290924Y-61599962D01*
X67328530Y-61541076D01*
X67392003Y-61511870D01*
X67461189Y-61521616D01*
X67514124Y-61567220D01*
X67529076Y-61599962D01*
X67558254Y-61700393D01*
X67558255Y-61700396D01*
X67641917Y-61841862D01*
X67641923Y-61841870D01*
X67758129Y-61958076D01*
X67758133Y-61958079D01*
X67758135Y-61958081D01*
X67899602Y-62041744D01*
X67940111Y-62053513D01*
X68057426Y-62087597D01*
X68057429Y-62087597D01*
X68057431Y-62087598D01*
X68094306Y-62090500D01*
X68094314Y-62090500D01*
X68525686Y-62090500D01*
X68525694Y-62090500D01*
X68562569Y-62087598D01*
X68562571Y-62087597D01*
X68562573Y-62087597D01*
X68647875Y-62062814D01*
X68720398Y-62041744D01*
X68861865Y-61958081D01*
X68978081Y-61841865D01*
X69061744Y-61700398D01*
X69107598Y-61542569D01*
X69110500Y-61505694D01*
X69110500Y-60975452D01*
X69130185Y-60908413D01*
X69146819Y-60887771D01*
X70382772Y-59651819D01*
X70444095Y-59618334D01*
X70470453Y-59615500D01*
X78354799Y-59615500D01*
X78370419Y-59617224D01*
X78370446Y-59616939D01*
X78378202Y-59617671D01*
X78378209Y-59617673D01*
X78445415Y-59615561D01*
X78449310Y-59615500D01*
X78476888Y-59615500D01*
X78476892Y-59615500D01*
X78480866Y-59614997D01*
X78492505Y-59614080D01*
X78536169Y-59612709D01*
X78555411Y-59607117D01*
X78574454Y-59603174D01*
X78594334Y-59600664D01*
X78634943Y-59584585D01*
X78645986Y-59580803D01*
X78687932Y-59568618D01*
X78705171Y-59558422D01*
X78722645Y-59549862D01*
X78741269Y-59542488D01*
X78741269Y-59542487D01*
X78741274Y-59542486D01*
X78776625Y-59516800D01*
X78786356Y-59510408D01*
X78823962Y-59488170D01*
X78838131Y-59473999D01*
X78852921Y-59461368D01*
X78869129Y-59449594D01*
X78896975Y-59415932D01*
X78904817Y-59407313D01*
X78955315Y-59356817D01*
X79016639Y-59323333D01*
X79042995Y-59320500D01*
X79102186Y-59320500D01*
X79102188Y-59320500D01*
X79287345Y-59281144D01*
X79460272Y-59204151D01*
X79613413Y-59092888D01*
X79666850Y-59033539D01*
X79726337Y-58996891D01*
X79796194Y-58998222D01*
X79854242Y-59037108D01*
X79882052Y-59101205D01*
X79883000Y-59116512D01*
X79883000Y-61771429D01*
X79863315Y-61838468D01*
X79813246Y-61882934D01*
X75209684Y-64122505D01*
X75155438Y-64135000D01*
X72674237Y-64135000D01*
X72617158Y-64121082D01*
X72067027Y-63835829D01*
X69215000Y-62357000D01*
X69214999Y-62357000D01*
X24384000Y-62357000D01*
X19325053Y-64254105D01*
X19281514Y-64262000D01*
X18530782Y-64262000D01*
X18463743Y-64242315D01*
X18417988Y-64189511D01*
X18408044Y-64120353D01*
X18437069Y-64056797D01*
X18478377Y-64025618D01*
X18613662Y-63962534D01*
X18794620Y-63835826D01*
X18950826Y-63679620D01*
X19077534Y-63498662D01*
X19170894Y-63298450D01*
X19228070Y-63085068D01*
X19247323Y-62865000D01*
X19228070Y-62644932D01*
X19170894Y-62431550D01*
X19077534Y-62231339D01*
X18978918Y-62090500D01*
X18950827Y-62050381D01*
X18885813Y-61985367D01*
X18794620Y-61894174D01*
X18794616Y-61894171D01*
X18794615Y-61894170D01*
X18613666Y-61767468D01*
X18613662Y-61767466D01*
X18613660Y-61767465D01*
X18413450Y-61674106D01*
X18413447Y-61674105D01*
X18413445Y-61674104D01*
X18200070Y-61616930D01*
X18200062Y-61616929D01*
X17980002Y-61597677D01*
X17979998Y-61597677D01*
X17759937Y-61616929D01*
X17759929Y-61616930D01*
X17546554Y-61674104D01*
X17546548Y-61674107D01*
X17346340Y-61767465D01*
X17346338Y-61767466D01*
X17165377Y-61894175D01*
X17009175Y-62050377D01*
X16882466Y-62231338D01*
X16882465Y-62231340D01*
X16789107Y-62431548D01*
X16789104Y-62431554D01*
X16731930Y-62644929D01*
X16731929Y-62644937D01*
X16712677Y-62864997D01*
X16712677Y-62865002D01*
X16731929Y-63085062D01*
X16731930Y-63085070D01*
X16789104Y-63298445D01*
X16789105Y-63298447D01*
X16789106Y-63298450D01*
X16882466Y-63498662D01*
X16882468Y-63498666D01*
X17009170Y-63679615D01*
X17009175Y-63679621D01*
X17165378Y-63835824D01*
X17165384Y-63835829D01*
X17346333Y-63962531D01*
X17346335Y-63962532D01*
X17346338Y-63962534D01*
X17481623Y-64025618D01*
X17534062Y-64071790D01*
X17553214Y-64138984D01*
X17532998Y-64205865D01*
X17479833Y-64251199D01*
X17429218Y-64262000D01*
X16791124Y-64262000D01*
X16739354Y-64250676D01*
X12137230Y-62136186D01*
X12084531Y-62090310D01*
X12065000Y-62023510D01*
X12065000Y-57335348D01*
X12084685Y-57268309D01*
X12137489Y-57222554D01*
X12206647Y-57212610D01*
X12270203Y-57241635D01*
G37*
%TD.AperFunction*%
%TA.AperFunction,Conductor*%
G36*
X26001735Y-59810184D02*
G01*
X26047490Y-59862988D01*
X26057434Y-59932146D01*
X26043263Y-59972407D01*
X26043353Y-59972446D01*
X26042801Y-59973720D01*
X26041430Y-59977617D01*
X26040255Y-59979602D01*
X26040253Y-59979606D01*
X26011076Y-60080037D01*
X25973470Y-60138923D01*
X25909997Y-60168129D01*
X25840811Y-60158383D01*
X25787876Y-60112779D01*
X25772924Y-60080037D01*
X25743746Y-59979606D01*
X25743744Y-59979602D01*
X25742570Y-59977617D01*
X25742123Y-59975858D01*
X25740647Y-59972446D01*
X25741197Y-59972207D01*
X25725390Y-59909892D01*
X25747551Y-59843630D01*
X25802019Y-59799869D01*
X25849300Y-59790499D01*
X25934697Y-59790499D01*
X26001735Y-59810184D01*
G37*
%TD.AperFunction*%
%TA.AperFunction,Conductor*%
G36*
X34305335Y-59810184D02*
G01*
X34351090Y-59862988D01*
X34361034Y-59932146D01*
X34346863Y-59972407D01*
X34346953Y-59972446D01*
X34346401Y-59973720D01*
X34345030Y-59977617D01*
X34343855Y-59979602D01*
X34343853Y-59979606D01*
X34314676Y-60080037D01*
X34277070Y-60138923D01*
X34213597Y-60168129D01*
X34144411Y-60158383D01*
X34091476Y-60112779D01*
X34076524Y-60080037D01*
X34047346Y-59979606D01*
X34047344Y-59979602D01*
X34046170Y-59977617D01*
X34045723Y-59975858D01*
X34044247Y-59972446D01*
X34044797Y-59972207D01*
X34028990Y-59909892D01*
X34051151Y-59843630D01*
X34105619Y-59799869D01*
X34152900Y-59790499D01*
X34238297Y-59790499D01*
X34305335Y-59810184D01*
G37*
%TD.AperFunction*%
%TA.AperFunction,Conductor*%
G36*
X42608935Y-59810184D02*
G01*
X42654690Y-59862988D01*
X42664634Y-59932146D01*
X42650463Y-59972407D01*
X42650553Y-59972446D01*
X42650001Y-59973720D01*
X42648630Y-59977617D01*
X42647455Y-59979602D01*
X42647453Y-59979606D01*
X42618276Y-60080037D01*
X42580670Y-60138923D01*
X42517197Y-60168129D01*
X42448011Y-60158383D01*
X42395076Y-60112779D01*
X42380124Y-60080037D01*
X42350946Y-59979606D01*
X42350944Y-59979602D01*
X42349770Y-59977617D01*
X42349323Y-59975858D01*
X42347847Y-59972446D01*
X42348397Y-59972207D01*
X42332590Y-59909892D01*
X42354751Y-59843630D01*
X42409219Y-59799869D01*
X42456500Y-59790499D01*
X42541897Y-59790499D01*
X42608935Y-59810184D01*
G37*
%TD.AperFunction*%
%TA.AperFunction,Conductor*%
G36*
X50912535Y-59810184D02*
G01*
X50958290Y-59862988D01*
X50968234Y-59932146D01*
X50954063Y-59972407D01*
X50954153Y-59972446D01*
X50953601Y-59973720D01*
X50952230Y-59977617D01*
X50951055Y-59979602D01*
X50951053Y-59979606D01*
X50921876Y-60080037D01*
X50884270Y-60138923D01*
X50820797Y-60168129D01*
X50751611Y-60158383D01*
X50698676Y-60112779D01*
X50683724Y-60080037D01*
X50654546Y-59979606D01*
X50654544Y-59979602D01*
X50653370Y-59977617D01*
X50652923Y-59975858D01*
X50651447Y-59972446D01*
X50651997Y-59972207D01*
X50636190Y-59909892D01*
X50658351Y-59843630D01*
X50712819Y-59799869D01*
X50760100Y-59790499D01*
X50845497Y-59790499D01*
X50912535Y-59810184D01*
G37*
%TD.AperFunction*%
%TA.AperFunction,Conductor*%
G36*
X59216135Y-59810184D02*
G01*
X59261890Y-59862988D01*
X59271834Y-59932146D01*
X59257663Y-59972407D01*
X59257753Y-59972446D01*
X59257201Y-59973720D01*
X59255830Y-59977617D01*
X59254655Y-59979602D01*
X59254653Y-59979606D01*
X59225476Y-60080037D01*
X59187870Y-60138923D01*
X59124397Y-60168129D01*
X59055211Y-60158383D01*
X59002276Y-60112779D01*
X58987324Y-60080037D01*
X58958146Y-59979606D01*
X58958144Y-59979602D01*
X58956970Y-59977617D01*
X58956523Y-59975858D01*
X58955047Y-59972446D01*
X58955597Y-59972207D01*
X58939790Y-59909892D01*
X58961951Y-59843630D01*
X59016419Y-59799869D01*
X59063700Y-59790499D01*
X59149097Y-59790499D01*
X59216135Y-59810184D01*
G37*
%TD.AperFunction*%
%TA.AperFunction,Conductor*%
G36*
X67519735Y-59810184D02*
G01*
X67565490Y-59862988D01*
X67575434Y-59932146D01*
X67561263Y-59972407D01*
X67561353Y-59972446D01*
X67560801Y-59973720D01*
X67559430Y-59977617D01*
X67558255Y-59979602D01*
X67558253Y-59979606D01*
X67529076Y-60080037D01*
X67491470Y-60138923D01*
X67427997Y-60168129D01*
X67358811Y-60158383D01*
X67305876Y-60112779D01*
X67290924Y-60080037D01*
X67261746Y-59979606D01*
X67261744Y-59979602D01*
X67260570Y-59977617D01*
X67260123Y-59975858D01*
X67258647Y-59972446D01*
X67259197Y-59972207D01*
X67243390Y-59909892D01*
X67265551Y-59843630D01*
X67320019Y-59799869D01*
X67367300Y-59790499D01*
X67452697Y-59790499D01*
X67519735Y-59810184D01*
G37*
%TD.AperFunction*%
%TA.AperFunction,Conductor*%
G36*
X15042834Y-55416157D02*
G01*
X15098767Y-55458029D01*
X15123184Y-55523493D01*
X15123500Y-55532339D01*
X15123500Y-56801655D01*
X15124397Y-56804416D01*
X15136802Y-56828761D01*
X15140219Y-56833463D01*
X15159539Y-56852783D01*
X15164242Y-56856200D01*
X15188581Y-56868601D01*
X15191345Y-56869499D01*
X15191346Y-56869500D01*
X15208083Y-56869500D01*
X25021199Y-56869500D01*
X25088238Y-56889185D01*
X25133993Y-56941989D01*
X25143937Y-57011147D01*
X25138240Y-57034455D01*
X25096358Y-57154145D01*
X25093514Y-57179385D01*
X25066447Y-57243799D01*
X25008851Y-57283353D01*
X24970294Y-57289500D01*
X24776298Y-57289500D01*
X24739432Y-57292401D01*
X24739426Y-57292402D01*
X24581606Y-57338254D01*
X24581603Y-57338255D01*
X24440137Y-57421917D01*
X24440129Y-57421923D01*
X24323923Y-57538129D01*
X24323917Y-57538137D01*
X24240255Y-57679603D01*
X24240254Y-57679606D01*
X24194402Y-57837426D01*
X24194401Y-57837432D01*
X24191500Y-57874298D01*
X24191500Y-58404547D01*
X24171815Y-58471586D01*
X24155181Y-58492228D01*
X23815228Y-58832181D01*
X23753905Y-58865666D01*
X23727547Y-58868500D01*
X16354452Y-58868500D01*
X16287413Y-58848815D01*
X16266771Y-58832181D01*
X13894730Y-56460139D01*
X13861245Y-56398816D01*
X13866229Y-56329124D01*
X13908101Y-56273191D01*
X13947794Y-56253388D01*
X13955807Y-56251060D01*
X13974861Y-56247113D01*
X13994741Y-56244603D01*
X14035350Y-56228524D01*
X14046393Y-56224742D01*
X14088339Y-56212557D01*
X14105578Y-56202361D01*
X14123052Y-56193801D01*
X14141676Y-56186427D01*
X14141676Y-56186426D01*
X14141681Y-56186425D01*
X14177032Y-56160739D01*
X14186763Y-56154347D01*
X14224369Y-56132109D01*
X14238538Y-56117938D01*
X14253328Y-56105307D01*
X14269536Y-56093533D01*
X14297387Y-56059865D01*
X14305228Y-56051248D01*
X14911819Y-55444658D01*
X14973142Y-55411173D01*
X15042834Y-55416157D01*
G37*
%TD.AperFunction*%
%TA.AperFunction,Conductor*%
G36*
X66642638Y-56889185D02*
G01*
X66688393Y-56941989D01*
X66698337Y-57011147D01*
X66692640Y-57034455D01*
X66650758Y-57154145D01*
X66647914Y-57179385D01*
X66620847Y-57243799D01*
X66563251Y-57283353D01*
X66524694Y-57289500D01*
X66294298Y-57289500D01*
X66257432Y-57292401D01*
X66257426Y-57292402D01*
X66099606Y-57338254D01*
X66099603Y-57338255D01*
X65958137Y-57421917D01*
X65958129Y-57421923D01*
X65841923Y-57538129D01*
X65841917Y-57538137D01*
X65758255Y-57679603D01*
X65758254Y-57679606D01*
X65712402Y-57837426D01*
X65712401Y-57837432D01*
X65709500Y-57874298D01*
X65709500Y-58404547D01*
X65689815Y-58471586D01*
X65673181Y-58492228D01*
X65333228Y-58832181D01*
X65271905Y-58865666D01*
X65245547Y-58868500D01*
X61270852Y-58868500D01*
X61203813Y-58848815D01*
X61183171Y-58832181D01*
X60843219Y-58492228D01*
X60809734Y-58430905D01*
X60806900Y-58404547D01*
X60806900Y-57874313D01*
X60806899Y-57874298D01*
X60803998Y-57837432D01*
X60803997Y-57837426D01*
X60758145Y-57679606D01*
X60758144Y-57679603D01*
X60758144Y-57679602D01*
X60674481Y-57538135D01*
X60674479Y-57538133D01*
X60674476Y-57538129D01*
X60558270Y-57421923D01*
X60558262Y-57421917D01*
X60416796Y-57338255D01*
X60416793Y-57338254D01*
X60258973Y-57292402D01*
X60258967Y-57292401D01*
X60222101Y-57289500D01*
X60222094Y-57289500D01*
X59992706Y-57289500D01*
X59925667Y-57269815D01*
X59879912Y-57217011D01*
X59869486Y-57179385D01*
X59866641Y-57154145D01*
X59866641Y-57154143D01*
X59824760Y-57034455D01*
X59821198Y-56964676D01*
X59855926Y-56904049D01*
X59917920Y-56871821D01*
X59941801Y-56869500D01*
X66575599Y-56869500D01*
X66642638Y-56889185D01*
G37*
%TD.AperFunction*%
%TA.AperFunction,Conductor*%
G36*
X33419438Y-56889185D02*
G01*
X33465193Y-56941989D01*
X33475137Y-57011147D01*
X33469440Y-57034455D01*
X33427558Y-57154145D01*
X33424714Y-57179385D01*
X33397647Y-57243799D01*
X33340051Y-57283353D01*
X33301494Y-57289500D01*
X33079898Y-57289500D01*
X33043032Y-57292401D01*
X33043026Y-57292402D01*
X32885206Y-57338254D01*
X32885203Y-57338255D01*
X32743737Y-57421917D01*
X32743729Y-57421923D01*
X32627523Y-57538129D01*
X32627517Y-57538137D01*
X32543855Y-57679603D01*
X32543854Y-57679606D01*
X32498002Y-57837426D01*
X32498001Y-57837432D01*
X32495100Y-57874298D01*
X32495100Y-58404547D01*
X32475415Y-58471586D01*
X32458781Y-58492228D01*
X32176828Y-58774181D01*
X32115505Y-58807666D01*
X32089147Y-58810500D01*
X27998453Y-58810500D01*
X27931414Y-58790815D01*
X27910772Y-58774181D01*
X27628819Y-58492228D01*
X27595334Y-58430905D01*
X27592500Y-58404547D01*
X27592500Y-57874313D01*
X27592499Y-57874298D01*
X27589598Y-57837432D01*
X27589597Y-57837426D01*
X27543745Y-57679606D01*
X27543744Y-57679603D01*
X27543744Y-57679602D01*
X27460081Y-57538135D01*
X27460079Y-57538133D01*
X27460076Y-57538129D01*
X27343870Y-57421923D01*
X27343862Y-57421917D01*
X27202396Y-57338255D01*
X27202393Y-57338254D01*
X27044573Y-57292402D01*
X27044567Y-57292401D01*
X27007701Y-57289500D01*
X27007694Y-57289500D01*
X26744106Y-57289500D01*
X26677067Y-57269815D01*
X26631312Y-57217011D01*
X26620886Y-57179385D01*
X26618041Y-57154145D01*
X26618041Y-57154143D01*
X26576160Y-57034455D01*
X26572598Y-56964676D01*
X26607326Y-56904049D01*
X26669320Y-56871821D01*
X26693201Y-56869500D01*
X33352399Y-56869500D01*
X33419438Y-56889185D01*
G37*
%TD.AperFunction*%
%TA.AperFunction,Conductor*%
G36*
X76995540Y-53238254D02*
G01*
X77006066Y-53246962D01*
X77014698Y-53254817D01*
X77753465Y-53993584D01*
X77763290Y-54005848D01*
X77763511Y-54005666D01*
X77768481Y-54011674D01*
X77817510Y-54057715D01*
X77820307Y-54060426D01*
X77839800Y-54079919D01*
X77842967Y-54082376D01*
X77851846Y-54089960D01*
X77883686Y-54119860D01*
X77883688Y-54119861D01*
X77883689Y-54119862D01*
X77901247Y-54129514D01*
X77917506Y-54140195D01*
X77933335Y-54152473D01*
X77973418Y-54169818D01*
X77983905Y-54174956D01*
X78022175Y-54195995D01*
X78022179Y-54195997D01*
X78022183Y-54195998D01*
X78041582Y-54200979D01*
X78059993Y-54207283D01*
X78078368Y-54215235D01*
X78078371Y-54215235D01*
X78078376Y-54215238D01*
X78121525Y-54222071D01*
X78132951Y-54224438D01*
X78149976Y-54228809D01*
X78182810Y-54237241D01*
X78181991Y-54240428D01*
X78232203Y-54262269D01*
X78240392Y-54269756D01*
X78289160Y-54318524D01*
X78437130Y-54411499D01*
X78602079Y-54469218D01*
X78639382Y-54473420D01*
X78703796Y-54500486D01*
X78743352Y-54558080D01*
X78749500Y-54596641D01*
X78749500Y-56712547D01*
X78729815Y-56779586D01*
X78713181Y-56800228D01*
X77635228Y-57878181D01*
X77573905Y-57911666D01*
X77547547Y-57914500D01*
X69223090Y-57914500D01*
X69156051Y-57894815D01*
X69110296Y-57842011D01*
X69104014Y-57825095D01*
X69061745Y-57679606D01*
X69061744Y-57679603D01*
X69061744Y-57679602D01*
X68978081Y-57538135D01*
X68978079Y-57538133D01*
X68978076Y-57538129D01*
X68861870Y-57421923D01*
X68861862Y-57421917D01*
X68720396Y-57338255D01*
X68720393Y-57338254D01*
X68562573Y-57292402D01*
X68562567Y-57292401D01*
X68525701Y-57289500D01*
X68525694Y-57289500D01*
X68298506Y-57289500D01*
X68231467Y-57269815D01*
X68185712Y-57217011D01*
X68175286Y-57179385D01*
X68172441Y-57154145D01*
X68172441Y-57154143D01*
X68130560Y-57034455D01*
X68126998Y-56964676D01*
X68161726Y-56904049D01*
X68223720Y-56871821D01*
X68247601Y-56869500D01*
X76724655Y-56869500D01*
X76727423Y-56868600D01*
X76751753Y-56856203D01*
X76754109Y-56854490D01*
X76754112Y-56854490D01*
X76754113Y-56854487D01*
X76756471Y-56852775D01*
X76775775Y-56833471D01*
X76777487Y-56831113D01*
X76777490Y-56831112D01*
X76777490Y-56831109D01*
X76779203Y-56828753D01*
X76791600Y-56804423D01*
X76792500Y-56801655D01*
X76792500Y-53333797D01*
X76812185Y-53266758D01*
X76864989Y-53221003D01*
X76934147Y-53211059D01*
X76995540Y-53238254D01*
G37*
%TD.AperFunction*%
%TA.AperFunction,Conductor*%
G36*
X13635189Y-52765616D02*
G01*
X13688124Y-52811220D01*
X13703076Y-52843962D01*
X13732254Y-52944393D01*
X13732255Y-52944396D01*
X13732256Y-52944398D01*
X13758363Y-52988543D01*
X13759032Y-52989673D01*
X13776300Y-53052794D01*
X13776300Y-54078289D01*
X13774575Y-54093906D01*
X13774861Y-54093933D01*
X13774126Y-54101699D01*
X13776239Y-54168906D01*
X13776300Y-54172801D01*
X13776300Y-54200391D01*
X13776803Y-54204369D01*
X13777718Y-54216001D01*
X13779090Y-54259658D01*
X13779091Y-54259661D01*
X13784680Y-54278901D01*
X13788624Y-54297945D01*
X13791136Y-54317826D01*
X13807214Y-54358437D01*
X13810997Y-54369486D01*
X13823182Y-54411424D01*
X13823226Y-54411499D01*
X13833380Y-54428668D01*
X13841938Y-54446137D01*
X13849314Y-54464766D01*
X13874981Y-54500094D01*
X13881394Y-54509857D01*
X13905287Y-54550258D01*
X13922470Y-54617982D01*
X13900310Y-54684245D01*
X13886236Y-54701060D01*
X13615177Y-54972120D01*
X13553854Y-55005605D01*
X13527496Y-55008439D01*
X12830287Y-55008439D01*
X12814666Y-55006714D01*
X12814639Y-55007000D01*
X12806877Y-55006265D01*
X12739657Y-55008378D01*
X12735763Y-55008439D01*
X12708194Y-55008439D01*
X12704217Y-55008941D01*
X12692586Y-55009856D01*
X12648918Y-55011228D01*
X12648912Y-55011229D01*
X12629670Y-55016819D01*
X12610631Y-55020762D01*
X12590761Y-55023273D01*
X12590747Y-55023276D01*
X12550142Y-55039352D01*
X12539098Y-55043133D01*
X12497158Y-55055318D01*
X12497154Y-55055320D01*
X12479910Y-55065518D01*
X12462449Y-55074072D01*
X12443818Y-55081449D01*
X12443806Y-55081456D01*
X12408477Y-55107124D01*
X12398717Y-55113535D01*
X12361124Y-55135768D01*
X12346959Y-55149933D01*
X12332167Y-55162567D01*
X12315956Y-55174344D01*
X12288112Y-55208001D01*
X12280264Y-55216626D01*
X12276691Y-55220199D01*
X12215375Y-55253692D01*
X12145683Y-55248717D01*
X12089743Y-55206853D01*
X12065317Y-55141392D01*
X12065000Y-55132529D01*
X12065000Y-54034137D01*
X12084685Y-53967098D01*
X12137489Y-53921343D01*
X12206647Y-53911399D01*
X12229945Y-53917093D01*
X12246943Y-53923041D01*
X12246950Y-53923041D01*
X12246951Y-53923042D01*
X12420596Y-53942607D01*
X12420600Y-53942607D01*
X12420604Y-53942607D01*
X12594248Y-53923042D01*
X12594247Y-53923042D01*
X12594257Y-53923041D01*
X12759206Y-53865322D01*
X12907176Y-53772347D01*
X13030747Y-53648776D01*
X13123722Y-53500806D01*
X13181441Y-53335857D01*
X13184862Y-53305486D01*
X13199419Y-53259636D01*
X13203715Y-53251821D01*
X13214396Y-53235561D01*
X13226673Y-53219736D01*
X13226676Y-53219727D01*
X13230644Y-53213021D01*
X13232282Y-53213990D01*
X13249852Y-53188093D01*
X13352081Y-53085865D01*
X13435744Y-52944398D01*
X13464924Y-52843962D01*
X13502530Y-52785076D01*
X13566003Y-52755870D01*
X13635189Y-52765616D01*
G37*
%TD.AperFunction*%
%TA.AperFunction,Conductor*%
G36*
X13693735Y-51054184D02*
G01*
X13739490Y-51106988D01*
X13749434Y-51176146D01*
X13735263Y-51216407D01*
X13735353Y-51216446D01*
X13734801Y-51217720D01*
X13733430Y-51221617D01*
X13732255Y-51223602D01*
X13732253Y-51223606D01*
X13703076Y-51324037D01*
X13665470Y-51382923D01*
X13601997Y-51412129D01*
X13532811Y-51402383D01*
X13479876Y-51356779D01*
X13464924Y-51324037D01*
X13435746Y-51223606D01*
X13435744Y-51223602D01*
X13434570Y-51221617D01*
X13434123Y-51219858D01*
X13432647Y-51216446D01*
X13433197Y-51216207D01*
X13417390Y-51153892D01*
X13439551Y-51087630D01*
X13494019Y-51043869D01*
X13541300Y-51034499D01*
X13626697Y-51034499D01*
X13693735Y-51054184D01*
G37*
%TD.AperFunction*%
%TA.AperFunction,Conductor*%
G36*
X78383189Y-50225616D02*
G01*
X78436124Y-50271220D01*
X78451076Y-50303962D01*
X78480254Y-50404393D01*
X78480257Y-50404401D01*
X78481431Y-50406386D01*
X78481876Y-50408142D01*
X78483353Y-50411554D01*
X78482802Y-50411792D01*
X78498609Y-50474111D01*
X78476445Y-50540372D01*
X78421976Y-50584132D01*
X78374695Y-50593500D01*
X78289303Y-50593500D01*
X78222264Y-50573815D01*
X78176509Y-50521011D01*
X78166565Y-50451853D01*
X78180737Y-50411593D01*
X78180647Y-50411554D01*
X78181206Y-50410261D01*
X78182574Y-50406376D01*
X78183744Y-50404398D01*
X78212924Y-50303962D01*
X78250530Y-50245076D01*
X78314003Y-50215870D01*
X78383189Y-50225616D01*
G37*
%TD.AperFunction*%
%TA.AperFunction,Conductor*%
G36*
X78872034Y-45305070D02*
G01*
X78927967Y-45346942D01*
X78952384Y-45412406D01*
X78952700Y-45421252D01*
X78952700Y-46645215D01*
X78933015Y-46712254D01*
X78921518Y-46726520D01*
X78921594Y-46726581D01*
X78917253Y-46732023D01*
X78824277Y-46879995D01*
X78766559Y-47044941D01*
X78766557Y-47044951D01*
X78746993Y-47218596D01*
X78746993Y-47218603D01*
X78766557Y-47392248D01*
X78766558Y-47392253D01*
X78766558Y-47392255D01*
X78766559Y-47392257D01*
X78781106Y-47433830D01*
X78822682Y-47552647D01*
X78826243Y-47622426D01*
X78822682Y-47634555D01*
X78766558Y-47794948D01*
X78766557Y-47794954D01*
X78746993Y-47968599D01*
X78746993Y-47968606D01*
X78766557Y-48142251D01*
X78766558Y-48142257D01*
X78800407Y-48238992D01*
X78803968Y-48308771D01*
X78769239Y-48369398D01*
X78746487Y-48386677D01*
X78680140Y-48425914D01*
X78680129Y-48425923D01*
X78563923Y-48542129D01*
X78563917Y-48542137D01*
X78480255Y-48683603D01*
X78480253Y-48683606D01*
X78451076Y-48784037D01*
X78413470Y-48842923D01*
X78349997Y-48872129D01*
X78280811Y-48862383D01*
X78227876Y-48816779D01*
X78212924Y-48784037D01*
X78183746Y-48683606D01*
X78183744Y-48683603D01*
X78183744Y-48683602D01*
X78100081Y-48542135D01*
X78100079Y-48542133D01*
X78100076Y-48542129D01*
X78093819Y-48535872D01*
X78060334Y-48474549D01*
X78057500Y-48448191D01*
X78057500Y-46068452D01*
X78077185Y-46001413D01*
X78093819Y-45980771D01*
X78741019Y-45333571D01*
X78802342Y-45300086D01*
X78872034Y-45305070D01*
G37*
%TD.AperFunction*%
%TA.AperFunction,Conductor*%
G36*
X15039161Y-29962644D02*
G01*
X15096383Y-30002737D01*
X15122845Y-30067402D01*
X15123500Y-30080130D01*
X15123500Y-48196733D01*
X15103815Y-48263772D01*
X15051011Y-48309527D01*
X14981853Y-48319471D01*
X14920464Y-48292280D01*
X14909949Y-48283582D01*
X14901304Y-48275716D01*
X14155800Y-47530212D01*
X14145977Y-47517950D01*
X14145756Y-47518134D01*
X14140783Y-47512122D01*
X14091773Y-47466099D01*
X14088974Y-47463386D01*
X14069474Y-47443885D01*
X14069468Y-47443880D01*
X14066283Y-47441409D01*
X14057431Y-47433848D01*
X14025579Y-47403938D01*
X14025577Y-47403936D01*
X14025574Y-47403935D01*
X14008026Y-47394288D01*
X13991760Y-47383604D01*
X13975929Y-47371324D01*
X13935846Y-47353978D01*
X13925360Y-47348841D01*
X13887091Y-47327803D01*
X13887089Y-47327802D01*
X13867690Y-47322822D01*
X13849278Y-47316518D01*
X13830895Y-47308562D01*
X13830889Y-47308560D01*
X13787757Y-47301729D01*
X13776319Y-47299361D01*
X13734017Y-47288500D01*
X13734016Y-47288500D01*
X13713981Y-47288500D01*
X13694583Y-47286973D01*
X13687159Y-47285797D01*
X13674802Y-47283840D01*
X13674801Y-47283840D01*
X13639848Y-47287144D01*
X13571254Y-47273855D01*
X13540498Y-47251375D01*
X13532576Y-47243453D01*
X13384604Y-47150477D01*
X13219658Y-47092759D01*
X13219649Y-47092757D01*
X13181616Y-47088472D01*
X13117202Y-47061405D01*
X13077647Y-47003810D01*
X13071500Y-46965252D01*
X13071500Y-42914256D01*
X13091185Y-42847217D01*
X13143989Y-42801462D01*
X13181616Y-42791036D01*
X13271971Y-42780855D01*
X13346649Y-42772442D01*
X13346649Y-42772441D01*
X13346657Y-42772441D01*
X13511606Y-42714722D01*
X13659576Y-42621747D01*
X13783147Y-42498176D01*
X13876122Y-42350206D01*
X13933841Y-42185257D01*
X13953407Y-42011600D01*
X13933841Y-41837943D01*
X13876122Y-41672994D01*
X13783147Y-41525024D01*
X13684818Y-41426695D01*
X13651334Y-41365372D01*
X13648500Y-41339014D01*
X13648500Y-31305652D01*
X13668185Y-31238613D01*
X13684819Y-31217971D01*
X14867788Y-30035001D01*
X14880042Y-30025186D01*
X14879859Y-30024964D01*
X14885868Y-30019991D01*
X14885877Y-30019986D01*
X14909109Y-29995245D01*
X14969347Y-29959852D01*
X15039161Y-29962644D01*
G37*
%TD.AperFunction*%
%TA.AperFunction,Conductor*%
G36*
X76995540Y-28143054D02*
G01*
X77006066Y-28151762D01*
X77014698Y-28159617D01*
X77778099Y-28923018D01*
X77787924Y-28935282D01*
X77788145Y-28935100D01*
X77793115Y-28941108D01*
X77842144Y-28987149D01*
X77844941Y-28989860D01*
X77864435Y-29009354D01*
X77867600Y-29011809D01*
X77876476Y-29019390D01*
X77908323Y-29049296D01*
X77908327Y-29049298D01*
X77925878Y-29058947D01*
X77942136Y-29069626D01*
X77957969Y-29081908D01*
X77993315Y-29097202D01*
X77998060Y-29099256D01*
X78008540Y-29104389D01*
X78046813Y-29125431D01*
X78066217Y-29130413D01*
X78084615Y-29136712D01*
X78103010Y-29144672D01*
X78143682Y-29151113D01*
X78206815Y-29181041D01*
X78243747Y-29240352D01*
X78247504Y-29259703D01*
X78266885Y-29431722D01*
X78322745Y-29591361D01*
X78322747Y-29591364D01*
X78412718Y-29734551D01*
X78412723Y-29734557D01*
X78466381Y-29788215D01*
X78499866Y-29849538D01*
X78502700Y-29875896D01*
X78502700Y-43751346D01*
X78483015Y-43818385D01*
X78466381Y-43839027D01*
X77048208Y-45257199D01*
X77035951Y-45267020D01*
X77036134Y-45267241D01*
X77030122Y-45272214D01*
X77006889Y-45296954D01*
X76946647Y-45332346D01*
X76876833Y-45329551D01*
X76819613Y-45289456D01*
X76793154Y-45224790D01*
X76792500Y-45212067D01*
X76792500Y-28238597D01*
X76812185Y-28171558D01*
X76864989Y-28125803D01*
X76934147Y-28115859D01*
X76995540Y-28143054D01*
G37*
%TD.AperFunction*%
%TA.AperFunction,Conductor*%
G36*
X13635189Y-27365616D02*
G01*
X13688124Y-27411220D01*
X13703076Y-27443962D01*
X13732254Y-27544393D01*
X13732255Y-27544396D01*
X13732256Y-27544398D01*
X13815919Y-27685865D01*
X13822179Y-27692125D01*
X13855665Y-27753445D01*
X13858500Y-27779808D01*
X13858500Y-29223747D01*
X13838815Y-29290786D01*
X13822181Y-29311428D01*
X13283181Y-29850428D01*
X13221858Y-29883913D01*
X13152166Y-29878929D01*
X13096233Y-29837057D01*
X13071816Y-29771593D01*
X13071500Y-29762747D01*
X13071500Y-28529089D01*
X13090506Y-28463117D01*
X13122300Y-28412517D01*
X13174522Y-28329406D01*
X13232241Y-28164457D01*
X13237717Y-28115859D01*
X13251807Y-27990803D01*
X13251807Y-27990796D01*
X13237769Y-27866202D01*
X13249824Y-27797380D01*
X13273305Y-27764640D01*
X13352081Y-27685865D01*
X13435744Y-27544398D01*
X13464924Y-27443962D01*
X13502530Y-27385076D01*
X13566003Y-27355870D01*
X13635189Y-27365616D01*
G37*
%TD.AperFunction*%
%TA.AperFunction,Conductor*%
G36*
X13693735Y-25654184D02*
G01*
X13739490Y-25706988D01*
X13749434Y-25776146D01*
X13735263Y-25816407D01*
X13735353Y-25816446D01*
X13734801Y-25817720D01*
X13733430Y-25821617D01*
X13732255Y-25823602D01*
X13732253Y-25823606D01*
X13703076Y-25924037D01*
X13665470Y-25982923D01*
X13601997Y-26012129D01*
X13532811Y-26002383D01*
X13479876Y-25956779D01*
X13464924Y-25924037D01*
X13435746Y-25823606D01*
X13435744Y-25823602D01*
X13434570Y-25821617D01*
X13434123Y-25819858D01*
X13432647Y-25816446D01*
X13433197Y-25816207D01*
X13417390Y-25753892D01*
X13439551Y-25687630D01*
X13494019Y-25643869D01*
X13541300Y-25634499D01*
X13626697Y-25634499D01*
X13693735Y-25654184D01*
G37*
%TD.AperFunction*%
%TA.AperFunction,Conductor*%
G36*
X78383189Y-25065616D02*
G01*
X78436124Y-25111220D01*
X78451076Y-25143962D01*
X78480254Y-25244393D01*
X78480257Y-25244401D01*
X78481431Y-25246386D01*
X78481876Y-25248142D01*
X78483353Y-25251554D01*
X78482802Y-25251792D01*
X78498609Y-25314111D01*
X78476445Y-25380372D01*
X78421976Y-25424132D01*
X78374695Y-25433500D01*
X78289303Y-25433500D01*
X78222264Y-25413815D01*
X78176509Y-25361011D01*
X78166565Y-25291853D01*
X78180737Y-25251593D01*
X78180647Y-25251554D01*
X78181206Y-25250261D01*
X78182574Y-25246376D01*
X78183744Y-25244398D01*
X78212924Y-25143962D01*
X78250530Y-25085076D01*
X78314003Y-25055870D01*
X78383189Y-25065616D01*
G37*
%TD.AperFunction*%
%TA.AperFunction,Conductor*%
G36*
X79802334Y-20823498D02*
G01*
X79858267Y-20865370D01*
X79882684Y-20930834D01*
X79883000Y-20939680D01*
X79883000Y-22038862D01*
X79863315Y-22105901D01*
X79810511Y-22151656D01*
X79741353Y-22161600D01*
X79718047Y-22155904D01*
X79701057Y-22149959D01*
X79701048Y-22149957D01*
X79527404Y-22130393D01*
X79527396Y-22130393D01*
X79353751Y-22149957D01*
X79353741Y-22149959D01*
X79188795Y-22207677D01*
X79040823Y-22300653D01*
X78917253Y-22424223D01*
X78824277Y-22572195D01*
X78766559Y-22737141D01*
X78766557Y-22737151D01*
X78746993Y-22910796D01*
X78746993Y-22910803D01*
X78766558Y-23084455D01*
X78766558Y-23084456D01*
X78770778Y-23096516D01*
X78774339Y-23166295D01*
X78739609Y-23226922D01*
X78716858Y-23244201D01*
X78680135Y-23265919D01*
X78680129Y-23265923D01*
X78563923Y-23382129D01*
X78563917Y-23382137D01*
X78480255Y-23523603D01*
X78480253Y-23523606D01*
X78451076Y-23624037D01*
X78413470Y-23682923D01*
X78349997Y-23712129D01*
X78280811Y-23702383D01*
X78227876Y-23656779D01*
X78212924Y-23624037D01*
X78183746Y-23523606D01*
X78183744Y-23523603D01*
X78183744Y-23523602D01*
X78100081Y-23382135D01*
X78100079Y-23382133D01*
X78100076Y-23382129D01*
X77983870Y-23265923D01*
X77983862Y-23265917D01*
X77842392Y-23182252D01*
X77840041Y-23181235D01*
X77838493Y-23179947D01*
X77835683Y-23178285D01*
X77835951Y-23177831D01*
X77786338Y-23136539D01*
X77765325Y-23069904D01*
X77765300Y-23067439D01*
X77765300Y-21443252D01*
X77784985Y-21376213D01*
X77801619Y-21355571D01*
X77997207Y-21159984D01*
X78058530Y-21126499D01*
X78084888Y-21123665D01*
X79057821Y-21123665D01*
X79073441Y-21125389D01*
X79073468Y-21125104D01*
X79081224Y-21125836D01*
X79081231Y-21125838D01*
X79148437Y-21123726D01*
X79152332Y-21123665D01*
X79179910Y-21123665D01*
X79179914Y-21123665D01*
X79183888Y-21123162D01*
X79195527Y-21122245D01*
X79239191Y-21120874D01*
X79258433Y-21115282D01*
X79277476Y-21111339D01*
X79297356Y-21108829D01*
X79337965Y-21092750D01*
X79349008Y-21088968D01*
X79390954Y-21076783D01*
X79408193Y-21066587D01*
X79425667Y-21058027D01*
X79444291Y-21050653D01*
X79444291Y-21050652D01*
X79444296Y-21050651D01*
X79479647Y-21024965D01*
X79489378Y-21018573D01*
X79526984Y-20996335D01*
X79541150Y-20982168D01*
X79555945Y-20969533D01*
X79572148Y-20957761D01*
X79572147Y-20957761D01*
X79572151Y-20957759D01*
X79600001Y-20924093D01*
X79607843Y-20915475D01*
X79671320Y-20851998D01*
X79732642Y-20818514D01*
X79802334Y-20823498D01*
G37*
%TD.AperFunction*%
%TA.AperFunction,Conductor*%
G36*
X40856900Y-12084685D02*
G01*
X40902655Y-12137489D01*
X40912599Y-12206647D01*
X40883574Y-12270203D01*
X40882011Y-12271972D01*
X40873313Y-12281632D01*
X40808726Y-12393500D01*
X40758159Y-12441716D01*
X40701339Y-12455500D01*
X19767743Y-12455500D01*
X19752122Y-12453775D01*
X19752096Y-12454061D01*
X19744334Y-12453327D01*
X19744333Y-12453327D01*
X19682109Y-12455282D01*
X19677127Y-12455439D01*
X19673232Y-12455500D01*
X19645647Y-12455500D01*
X19641661Y-12456003D01*
X19630033Y-12456918D01*
X19586373Y-12458290D01*
X19567129Y-12463881D01*
X19548079Y-12467825D01*
X19528211Y-12470334D01*
X19528210Y-12470334D01*
X19487599Y-12486413D01*
X19476554Y-12490194D01*
X19434614Y-12502379D01*
X19434610Y-12502381D01*
X19417366Y-12512579D01*
X19399905Y-12521133D01*
X19381274Y-12528510D01*
X19381262Y-12528517D01*
X19345933Y-12554185D01*
X19336173Y-12560596D01*
X19298580Y-12582829D01*
X19284414Y-12596995D01*
X19269624Y-12609627D01*
X19253414Y-12621404D01*
X19253411Y-12621407D01*
X19225573Y-12655058D01*
X19217711Y-12663697D01*
X17274208Y-14607199D01*
X17261951Y-14617020D01*
X17262134Y-14617241D01*
X17256122Y-14622214D01*
X17210098Y-14671223D01*
X17207391Y-14674016D01*
X17187889Y-14693517D01*
X17187875Y-14693534D01*
X17185407Y-14696715D01*
X17177843Y-14705570D01*
X17147937Y-14737418D01*
X17147936Y-14737420D01*
X17138284Y-14754976D01*
X17127610Y-14771226D01*
X17115329Y-14787061D01*
X17115324Y-14787068D01*
X17097975Y-14827158D01*
X17092838Y-14837644D01*
X17071803Y-14875906D01*
X17066822Y-14895307D01*
X17060521Y-14913710D01*
X17052562Y-14932102D01*
X17052561Y-14932105D01*
X17045728Y-14975243D01*
X17043360Y-14986674D01*
X17032501Y-15028971D01*
X17032500Y-15028982D01*
X17032500Y-15049016D01*
X17030973Y-15068415D01*
X17027840Y-15088194D01*
X17027840Y-15088195D01*
X17031950Y-15131674D01*
X17032500Y-15143343D01*
X17032500Y-17841255D01*
X17030775Y-17856872D01*
X17031061Y-17856899D01*
X17030326Y-17864665D01*
X17032439Y-17931872D01*
X17032500Y-17935767D01*
X17032500Y-17963357D01*
X17033003Y-17967335D01*
X17033918Y-17978967D01*
X17035290Y-18022624D01*
X17035291Y-18022627D01*
X17040880Y-18041867D01*
X17044824Y-18060911D01*
X17047336Y-18080792D01*
X17063414Y-18121403D01*
X17067197Y-18132452D01*
X17079381Y-18174388D01*
X17089580Y-18191634D01*
X17098138Y-18209103D01*
X17105514Y-18227732D01*
X17131181Y-18263060D01*
X17137593Y-18272821D01*
X17159828Y-18310417D01*
X17159833Y-18310424D01*
X17173990Y-18324580D01*
X17186628Y-18339376D01*
X17198405Y-18355586D01*
X17198406Y-18355587D01*
X17232057Y-18383425D01*
X17240698Y-18391288D01*
X17446181Y-18596771D01*
X17479666Y-18658094D01*
X17482500Y-18684452D01*
X17482500Y-19214701D01*
X17485401Y-19251567D01*
X17485402Y-19251573D01*
X17531254Y-19409393D01*
X17531255Y-19409396D01*
X17614917Y-19550862D01*
X17614923Y-19550870D01*
X17731129Y-19667076D01*
X17731133Y-19667079D01*
X17731135Y-19667081D01*
X17872602Y-19750744D01*
X17914224Y-19762836D01*
X18030426Y-19796597D01*
X18030429Y-19796597D01*
X18030431Y-19796598D01*
X18067306Y-19799500D01*
X18304047Y-19799500D01*
X18371086Y-19819185D01*
X18416841Y-19871989D01*
X18427267Y-19909617D01*
X18441557Y-20036448D01*
X18441559Y-20036458D01*
X18457097Y-20080861D01*
X18499278Y-20201406D01*
X18592253Y-20349376D01*
X18715824Y-20472947D01*
X18863794Y-20565922D01*
X19028743Y-20623641D01*
X19028749Y-20623641D01*
X19028751Y-20623642D01*
X19202396Y-20643207D01*
X19202400Y-20643207D01*
X19202404Y-20643207D01*
X19376048Y-20623642D01*
X19376047Y-20623642D01*
X19376057Y-20623641D01*
X19541006Y-20565922D01*
X19688976Y-20472947D01*
X19812547Y-20349376D01*
X19905522Y-20201406D01*
X19963241Y-20036457D01*
X19967349Y-19999995D01*
X19977533Y-19909617D01*
X20004599Y-19845203D01*
X20062194Y-19805647D01*
X20100753Y-19799500D01*
X20298686Y-19799500D01*
X20298694Y-19799500D01*
X20335569Y-19796598D01*
X20335571Y-19796597D01*
X20335573Y-19796597D01*
X20377191Y-19784505D01*
X20493398Y-19750744D01*
X20634865Y-19667081D01*
X20751081Y-19550865D01*
X20834744Y-19409398D01*
X20880598Y-19251569D01*
X20883500Y-19214694D01*
X20883500Y-18684452D01*
X20903185Y-18617413D01*
X20919819Y-18596771D01*
X21021517Y-18495073D01*
X21175320Y-18341270D01*
X21236642Y-18307786D01*
X21306334Y-18312770D01*
X21350681Y-18341271D01*
X21606181Y-18596771D01*
X21639666Y-18658094D01*
X21642500Y-18684452D01*
X21642500Y-19214701D01*
X21645401Y-19251567D01*
X21645402Y-19251573D01*
X21691254Y-19409393D01*
X21691255Y-19409396D01*
X21774917Y-19550862D01*
X21774923Y-19550870D01*
X21891129Y-19667076D01*
X21891133Y-19667079D01*
X21891135Y-19667081D01*
X22032602Y-19750744D01*
X22074224Y-19762836D01*
X22190426Y-19796597D01*
X22190429Y-19796597D01*
X22190431Y-19796598D01*
X22227306Y-19799500D01*
X22452833Y-19799500D01*
X22519872Y-19819185D01*
X22565627Y-19871989D01*
X22576053Y-19909618D01*
X22581757Y-19960253D01*
X22630589Y-20099804D01*
X22639478Y-20125206D01*
X22732453Y-20273176D01*
X22856024Y-20396747D01*
X23003994Y-20489722D01*
X23168943Y-20547441D01*
X23168949Y-20547441D01*
X23168951Y-20547442D01*
X23342596Y-20567007D01*
X23342600Y-20567007D01*
X23342604Y-20567007D01*
X23516248Y-20547442D01*
X23516247Y-20547442D01*
X23516257Y-20547441D01*
X23681206Y-20489722D01*
X23829176Y-20396747D01*
X23952747Y-20273176D01*
X24045722Y-20125206D01*
X24103441Y-19960257D01*
X24103441Y-19960255D01*
X24103442Y-19960253D01*
X24109147Y-19909618D01*
X24136213Y-19845203D01*
X24193807Y-19805648D01*
X24232367Y-19799500D01*
X24458686Y-19799500D01*
X24458694Y-19799500D01*
X24495569Y-19796598D01*
X24495571Y-19796597D01*
X24495573Y-19796597D01*
X24537191Y-19784505D01*
X24653398Y-19750744D01*
X24794865Y-19667081D01*
X24911081Y-19550865D01*
X24994744Y-19409398D01*
X25040598Y-19251569D01*
X25043500Y-19214694D01*
X25043500Y-18684452D01*
X25063185Y-18617413D01*
X25079819Y-18596771D01*
X25181517Y-18495073D01*
X25335320Y-18341270D01*
X25396642Y-18307786D01*
X25466334Y-18312770D01*
X25510681Y-18341271D01*
X25766181Y-18596771D01*
X25799666Y-18658094D01*
X25802500Y-18684452D01*
X25802500Y-19214701D01*
X25805401Y-19251567D01*
X25805402Y-19251573D01*
X25851254Y-19409393D01*
X25851255Y-19409396D01*
X25934917Y-19550862D01*
X25934923Y-19550870D01*
X26051129Y-19667076D01*
X26051133Y-19667079D01*
X26051135Y-19667081D01*
X26192602Y-19750744D01*
X26234224Y-19762836D01*
X26350426Y-19796597D01*
X26350429Y-19796597D01*
X26350431Y-19796598D01*
X26387306Y-19799500D01*
X26621294Y-19799500D01*
X26688333Y-19819185D01*
X26734088Y-19871989D01*
X26744514Y-19909615D01*
X26747358Y-19934854D01*
X26747358Y-19934856D01*
X26747359Y-19934857D01*
X26751145Y-19945677D01*
X26783650Y-20038571D01*
X26805078Y-20099806D01*
X26898053Y-20247776D01*
X27021624Y-20371347D01*
X27169594Y-20464322D01*
X27334543Y-20522041D01*
X27334549Y-20522041D01*
X27334551Y-20522042D01*
X27508196Y-20541607D01*
X27508200Y-20541607D01*
X27508204Y-20541607D01*
X27681848Y-20522042D01*
X27681847Y-20522042D01*
X27681857Y-20522041D01*
X27846806Y-20464322D01*
X27994776Y-20371347D01*
X28118347Y-20247776D01*
X28211322Y-20099806D01*
X28269041Y-19934857D01*
X28270766Y-19919548D01*
X28271886Y-19909615D01*
X28298953Y-19845201D01*
X28356549Y-19805647D01*
X28395106Y-19799500D01*
X28618686Y-19799500D01*
X28618694Y-19799500D01*
X28655569Y-19796598D01*
X28655571Y-19796597D01*
X28655573Y-19796597D01*
X28697191Y-19784505D01*
X28813398Y-19750744D01*
X28954865Y-19667081D01*
X29071081Y-19550865D01*
X29154744Y-19409398D01*
X29200598Y-19251569D01*
X29203500Y-19214694D01*
X29203500Y-18684452D01*
X29223185Y-18617413D01*
X29239819Y-18596771D01*
X29341517Y-18495073D01*
X29495320Y-18341270D01*
X29556642Y-18307786D01*
X29626334Y-18312770D01*
X29670681Y-18341271D01*
X29926181Y-18596771D01*
X29959666Y-18658094D01*
X29962500Y-18684452D01*
X29962500Y-19214701D01*
X29965401Y-19251567D01*
X29965402Y-19251573D01*
X30011254Y-19409393D01*
X30011255Y-19409396D01*
X30094917Y-19550862D01*
X30094923Y-19550870D01*
X30211129Y-19667076D01*
X30211133Y-19667079D01*
X30211135Y-19667081D01*
X30352602Y-19750744D01*
X30394224Y-19762836D01*
X30510426Y-19796597D01*
X30510429Y-19796597D01*
X30510431Y-19796598D01*
X30547306Y-19799500D01*
X30812294Y-19799500D01*
X30879333Y-19819185D01*
X30925088Y-19871989D01*
X30935514Y-19909615D01*
X30938358Y-19934854D01*
X30938358Y-19934856D01*
X30938359Y-19934857D01*
X30942145Y-19945677D01*
X30974650Y-20038571D01*
X30996078Y-20099806D01*
X31089053Y-20247776D01*
X31212624Y-20371347D01*
X31360594Y-20464322D01*
X31525543Y-20522041D01*
X31525549Y-20522041D01*
X31525551Y-20522042D01*
X31699196Y-20541607D01*
X31699200Y-20541607D01*
X31699204Y-20541607D01*
X31872848Y-20522042D01*
X31872847Y-20522042D01*
X31872857Y-20522041D01*
X32037806Y-20464322D01*
X32185776Y-20371347D01*
X32309347Y-20247776D01*
X32402322Y-20099806D01*
X32460041Y-19934857D01*
X32461766Y-19919548D01*
X32462886Y-19909615D01*
X32489953Y-19845201D01*
X32547549Y-19805647D01*
X32586106Y-19799500D01*
X32778686Y-19799500D01*
X32778694Y-19799500D01*
X32815569Y-19796598D01*
X32815571Y-19796597D01*
X32815573Y-19796597D01*
X32857191Y-19784505D01*
X32973398Y-19750744D01*
X33114865Y-19667081D01*
X33231081Y-19550865D01*
X33314744Y-19409398D01*
X33360598Y-19251569D01*
X33363500Y-19214694D01*
X33363500Y-18684452D01*
X33383185Y-18617413D01*
X33399819Y-18596771D01*
X33501517Y-18495073D01*
X33655320Y-18341270D01*
X33716642Y-18307786D01*
X33786334Y-18312770D01*
X33830681Y-18341271D01*
X34086181Y-18596771D01*
X34119666Y-18658094D01*
X34122500Y-18684452D01*
X34122500Y-19214701D01*
X34125401Y-19251567D01*
X34125402Y-19251573D01*
X34171254Y-19409393D01*
X34171255Y-19409396D01*
X34254917Y-19550862D01*
X34254923Y-19550870D01*
X34371129Y-19667076D01*
X34371133Y-19667079D01*
X34371135Y-19667081D01*
X34512602Y-19750744D01*
X34554224Y-19762836D01*
X34670426Y-19796597D01*
X34670429Y-19796597D01*
X34670431Y-19796598D01*
X34707306Y-19799500D01*
X34952494Y-19799500D01*
X35019533Y-19819185D01*
X35065288Y-19871989D01*
X35075714Y-19909615D01*
X35078558Y-19934854D01*
X35078558Y-19934856D01*
X35078559Y-19934857D01*
X35082345Y-19945677D01*
X35114850Y-20038571D01*
X35136278Y-20099806D01*
X35229253Y-20247776D01*
X35352824Y-20371347D01*
X35500794Y-20464322D01*
X35665743Y-20522041D01*
X35665749Y-20522041D01*
X35665751Y-20522042D01*
X35839396Y-20541607D01*
X35839400Y-20541607D01*
X35839404Y-20541607D01*
X36013048Y-20522042D01*
X36013047Y-20522042D01*
X36013057Y-20522041D01*
X36178006Y-20464322D01*
X36325976Y-20371347D01*
X36449547Y-20247776D01*
X36542522Y-20099806D01*
X36600241Y-19934857D01*
X36601966Y-19919548D01*
X36603086Y-19909615D01*
X36630153Y-19845201D01*
X36687749Y-19805647D01*
X36726306Y-19799500D01*
X36938686Y-19799500D01*
X36938694Y-19799500D01*
X36975569Y-19796598D01*
X36975571Y-19796597D01*
X36975573Y-19796597D01*
X37017191Y-19784505D01*
X37133398Y-19750744D01*
X37274865Y-19667081D01*
X37391081Y-19550865D01*
X37474744Y-19409398D01*
X37520598Y-19251569D01*
X37523500Y-19214694D01*
X37523500Y-18684452D01*
X37543185Y-18617413D01*
X37559819Y-18596771D01*
X37661517Y-18495073D01*
X37815320Y-18341270D01*
X37876642Y-18307786D01*
X37946334Y-18312770D01*
X37990681Y-18341271D01*
X38246181Y-18596771D01*
X38279666Y-18658094D01*
X38282500Y-18684452D01*
X38282500Y-19214701D01*
X38285401Y-19251567D01*
X38285402Y-19251573D01*
X38331254Y-19409393D01*
X38331255Y-19409396D01*
X38414917Y-19550862D01*
X38414923Y-19550870D01*
X38531129Y-19667076D01*
X38531133Y-19667079D01*
X38531135Y-19667081D01*
X38672602Y-19750744D01*
X38714224Y-19762836D01*
X38830426Y-19796597D01*
X38830429Y-19796597D01*
X38830431Y-19796598D01*
X38867306Y-19799500D01*
X39092694Y-19799500D01*
X39159733Y-19819185D01*
X39205488Y-19871989D01*
X39215914Y-19909615D01*
X39218758Y-19934854D01*
X39218758Y-19934856D01*
X39218759Y-19934857D01*
X39222545Y-19945677D01*
X39255050Y-20038571D01*
X39276478Y-20099806D01*
X39369453Y-20247776D01*
X39493024Y-20371347D01*
X39640994Y-20464322D01*
X39805943Y-20522041D01*
X39805949Y-20522041D01*
X39805951Y-20522042D01*
X39979596Y-20541607D01*
X39979600Y-20541607D01*
X39979604Y-20541607D01*
X40153248Y-20522042D01*
X40153247Y-20522042D01*
X40153257Y-20522041D01*
X40318206Y-20464322D01*
X40466176Y-20371347D01*
X40589747Y-20247776D01*
X40682722Y-20099806D01*
X40740441Y-19934857D01*
X40742166Y-19919548D01*
X40743286Y-19909615D01*
X40770353Y-19845201D01*
X40827949Y-19805647D01*
X40866506Y-19799500D01*
X41098686Y-19799500D01*
X41098694Y-19799500D01*
X41135569Y-19796598D01*
X41135571Y-19796597D01*
X41135573Y-19796597D01*
X41177191Y-19784505D01*
X41293398Y-19750744D01*
X41434865Y-19667081D01*
X41551081Y-19550865D01*
X41634744Y-19409398D01*
X41680598Y-19251569D01*
X41683500Y-19214694D01*
X41683500Y-18684452D01*
X41703185Y-18617413D01*
X41719819Y-18596771D01*
X41821517Y-18495073D01*
X41975320Y-18341270D01*
X42036642Y-18307786D01*
X42106334Y-18312770D01*
X42150681Y-18341271D01*
X42406181Y-18596771D01*
X42439666Y-18658094D01*
X42442500Y-18684452D01*
X42442500Y-19214701D01*
X42445401Y-19251567D01*
X42445402Y-19251573D01*
X42491254Y-19409393D01*
X42491255Y-19409396D01*
X42574917Y-19550862D01*
X42574923Y-19550870D01*
X42691129Y-19667076D01*
X42691133Y-19667079D01*
X42691135Y-19667081D01*
X42832602Y-19750744D01*
X42874224Y-19762836D01*
X42990426Y-19796597D01*
X42990429Y-19796597D01*
X42990431Y-19796598D01*
X43027306Y-19799500D01*
X43280833Y-19799500D01*
X43347872Y-19819185D01*
X43393627Y-19871989D01*
X43404053Y-19909618D01*
X43409757Y-19960253D01*
X43458589Y-20099804D01*
X43467478Y-20125206D01*
X43560453Y-20273176D01*
X43684024Y-20396747D01*
X43831994Y-20489722D01*
X43996943Y-20547441D01*
X43996949Y-20547441D01*
X43996951Y-20547442D01*
X44170596Y-20567007D01*
X44170600Y-20567007D01*
X44170604Y-20567007D01*
X44344248Y-20547442D01*
X44344247Y-20547442D01*
X44344257Y-20547441D01*
X44509206Y-20489722D01*
X44657176Y-20396747D01*
X44780747Y-20273176D01*
X44873722Y-20125206D01*
X44931441Y-19960257D01*
X44931441Y-19960255D01*
X44931442Y-19960253D01*
X44937147Y-19909618D01*
X44964213Y-19845203D01*
X45021807Y-19805648D01*
X45060367Y-19799500D01*
X45258686Y-19799500D01*
X45258694Y-19799500D01*
X45295569Y-19796598D01*
X45295571Y-19796597D01*
X45295573Y-19796597D01*
X45337191Y-19784505D01*
X45453398Y-19750744D01*
X45594865Y-19667081D01*
X45711081Y-19550865D01*
X45794744Y-19409398D01*
X45840598Y-19251569D01*
X45843500Y-19214694D01*
X45843500Y-18684452D01*
X45863185Y-18617413D01*
X45879819Y-18596771D01*
X45981517Y-18495073D01*
X46135320Y-18341270D01*
X46196642Y-18307786D01*
X46266334Y-18312770D01*
X46310681Y-18341271D01*
X46566181Y-18596771D01*
X46599666Y-18658094D01*
X46602500Y-18684452D01*
X46602500Y-19214701D01*
X46605401Y-19251567D01*
X46605402Y-19251573D01*
X46651254Y-19409393D01*
X46651255Y-19409396D01*
X46734917Y-19550862D01*
X46734923Y-19550870D01*
X46851129Y-19667076D01*
X46851133Y-19667079D01*
X46851135Y-19667081D01*
X46992602Y-19750744D01*
X47034224Y-19762836D01*
X47150426Y-19796597D01*
X47150429Y-19796597D01*
X47150431Y-19796598D01*
X47187306Y-19799500D01*
X47449294Y-19799500D01*
X47516333Y-19819185D01*
X47562088Y-19871989D01*
X47572514Y-19909615D01*
X47575358Y-19934854D01*
X47575358Y-19934856D01*
X47575359Y-19934857D01*
X47579145Y-19945677D01*
X47611650Y-20038571D01*
X47633078Y-20099806D01*
X47726053Y-20247776D01*
X47849624Y-20371347D01*
X47997594Y-20464322D01*
X48162543Y-20522041D01*
X48162549Y-20522041D01*
X48162551Y-20522042D01*
X48336196Y-20541607D01*
X48336200Y-20541607D01*
X48336204Y-20541607D01*
X48509848Y-20522042D01*
X48509847Y-20522042D01*
X48509857Y-20522041D01*
X48674806Y-20464322D01*
X48822776Y-20371347D01*
X48946347Y-20247776D01*
X49039322Y-20099806D01*
X49097041Y-19934857D01*
X49098766Y-19919548D01*
X49099886Y-19909615D01*
X49126953Y-19845201D01*
X49184549Y-19805647D01*
X49223106Y-19799500D01*
X49418686Y-19799500D01*
X49418694Y-19799500D01*
X49455569Y-19796598D01*
X49455571Y-19796597D01*
X49455573Y-19796597D01*
X49497191Y-19784505D01*
X49613398Y-19750744D01*
X49754865Y-19667081D01*
X49871081Y-19550865D01*
X49954744Y-19409398D01*
X50000598Y-19251569D01*
X50003500Y-19214694D01*
X50003500Y-18684452D01*
X50023185Y-18617413D01*
X50039819Y-18596771D01*
X50141517Y-18495073D01*
X50295320Y-18341270D01*
X50356642Y-18307786D01*
X50426334Y-18312770D01*
X50470681Y-18341271D01*
X50726181Y-18596771D01*
X50759666Y-18658094D01*
X50762500Y-18684452D01*
X50762500Y-19214701D01*
X50765401Y-19251567D01*
X50765402Y-19251573D01*
X50811254Y-19409393D01*
X50811255Y-19409396D01*
X50894917Y-19550862D01*
X50894923Y-19550870D01*
X51011129Y-19667076D01*
X51011133Y-19667079D01*
X51011135Y-19667081D01*
X51152602Y-19750744D01*
X51194224Y-19762836D01*
X51310426Y-19796597D01*
X51310429Y-19796597D01*
X51310431Y-19796598D01*
X51347306Y-19799500D01*
X51589494Y-19799500D01*
X51656533Y-19819185D01*
X51702288Y-19871989D01*
X51712714Y-19909615D01*
X51715558Y-19934854D01*
X51715558Y-19934856D01*
X51715559Y-19934857D01*
X51719345Y-19945677D01*
X51751850Y-20038571D01*
X51773278Y-20099806D01*
X51866253Y-20247776D01*
X51989824Y-20371347D01*
X52137794Y-20464322D01*
X52302743Y-20522041D01*
X52302749Y-20522041D01*
X52302751Y-20522042D01*
X52476396Y-20541607D01*
X52476400Y-20541607D01*
X52476404Y-20541607D01*
X52650048Y-20522042D01*
X52650047Y-20522042D01*
X52650057Y-20522041D01*
X52815006Y-20464322D01*
X52962976Y-20371347D01*
X53086547Y-20247776D01*
X53179522Y-20099806D01*
X53237241Y-19934857D01*
X53238966Y-19919548D01*
X53240086Y-19909615D01*
X53267153Y-19845201D01*
X53324749Y-19805647D01*
X53363306Y-19799500D01*
X53578686Y-19799500D01*
X53578694Y-19799500D01*
X53615569Y-19796598D01*
X53615571Y-19796597D01*
X53615573Y-19796597D01*
X53657191Y-19784505D01*
X53773398Y-19750744D01*
X53914865Y-19667081D01*
X54031081Y-19550865D01*
X54114744Y-19409398D01*
X54160598Y-19251569D01*
X54163500Y-19214694D01*
X54163500Y-18684452D01*
X54183185Y-18617413D01*
X54199819Y-18596771D01*
X54301517Y-18495073D01*
X54455320Y-18341270D01*
X54516642Y-18307786D01*
X54586334Y-18312770D01*
X54630681Y-18341271D01*
X54886181Y-18596771D01*
X54919666Y-18658094D01*
X54922500Y-18684452D01*
X54922500Y-19214701D01*
X54925401Y-19251567D01*
X54925402Y-19251573D01*
X54971254Y-19409393D01*
X54971255Y-19409396D01*
X55054917Y-19550862D01*
X55054923Y-19550870D01*
X55171129Y-19667076D01*
X55171133Y-19667079D01*
X55171135Y-19667081D01*
X55312602Y-19750744D01*
X55354224Y-19762836D01*
X55470426Y-19796597D01*
X55470429Y-19796597D01*
X55470431Y-19796598D01*
X55507306Y-19799500D01*
X55752233Y-19799500D01*
X55819272Y-19819185D01*
X55865027Y-19871989D01*
X55875453Y-19909618D01*
X55881157Y-19960253D01*
X55929989Y-20099804D01*
X55938878Y-20125206D01*
X56031853Y-20273176D01*
X56155424Y-20396747D01*
X56303394Y-20489722D01*
X56468343Y-20547441D01*
X56468349Y-20547441D01*
X56468351Y-20547442D01*
X56641996Y-20567007D01*
X56642000Y-20567007D01*
X56642004Y-20567007D01*
X56815648Y-20547442D01*
X56815647Y-20547442D01*
X56815657Y-20547441D01*
X56980606Y-20489722D01*
X57128576Y-20396747D01*
X57252147Y-20273176D01*
X57345122Y-20125206D01*
X57402841Y-19960257D01*
X57402841Y-19960255D01*
X57402842Y-19960253D01*
X57408547Y-19909618D01*
X57435613Y-19845203D01*
X57493207Y-19805648D01*
X57531767Y-19799500D01*
X57738686Y-19799500D01*
X57738694Y-19799500D01*
X57775569Y-19796598D01*
X57775571Y-19796597D01*
X57775573Y-19796597D01*
X57817191Y-19784505D01*
X57933398Y-19750744D01*
X58074865Y-19667081D01*
X58191081Y-19550865D01*
X58274744Y-19409398D01*
X58320598Y-19251569D01*
X58323500Y-19214694D01*
X58323500Y-18684452D01*
X58343185Y-18617413D01*
X58359819Y-18596771D01*
X58461517Y-18495073D01*
X58615320Y-18341270D01*
X58676642Y-18307786D01*
X58746334Y-18312770D01*
X58790681Y-18341271D01*
X59046181Y-18596771D01*
X59079666Y-18658094D01*
X59082500Y-18684452D01*
X59082500Y-19214701D01*
X59085401Y-19251567D01*
X59085402Y-19251573D01*
X59131254Y-19409393D01*
X59131255Y-19409396D01*
X59214917Y-19550862D01*
X59214923Y-19550870D01*
X59331129Y-19667076D01*
X59331133Y-19667079D01*
X59331135Y-19667081D01*
X59472602Y-19750744D01*
X59514224Y-19762836D01*
X59630426Y-19796597D01*
X59630429Y-19796597D01*
X59630431Y-19796598D01*
X59667306Y-19799500D01*
X59920694Y-19799500D01*
X59987733Y-19819185D01*
X60033488Y-19871989D01*
X60043914Y-19909615D01*
X60046758Y-19934854D01*
X60046758Y-19934856D01*
X60046759Y-19934857D01*
X60050545Y-19945677D01*
X60083050Y-20038571D01*
X60104478Y-20099806D01*
X60197453Y-20247776D01*
X60321024Y-20371347D01*
X60468994Y-20464322D01*
X60633943Y-20522041D01*
X60633949Y-20522041D01*
X60633951Y-20522042D01*
X60807596Y-20541607D01*
X60807600Y-20541607D01*
X60807604Y-20541607D01*
X60981248Y-20522042D01*
X60981247Y-20522042D01*
X60981257Y-20522041D01*
X61146206Y-20464322D01*
X61294176Y-20371347D01*
X61417747Y-20247776D01*
X61510722Y-20099806D01*
X61568441Y-19934857D01*
X61570166Y-19919548D01*
X61571286Y-19909615D01*
X61598353Y-19845201D01*
X61655949Y-19805647D01*
X61694506Y-19799500D01*
X61898686Y-19799500D01*
X61898694Y-19799500D01*
X61935569Y-19796598D01*
X61935571Y-19796597D01*
X61935573Y-19796597D01*
X61977191Y-19784505D01*
X62093398Y-19750744D01*
X62234865Y-19667081D01*
X62351081Y-19550865D01*
X62434744Y-19409398D01*
X62480598Y-19251569D01*
X62483500Y-19214694D01*
X62483500Y-18684452D01*
X62503185Y-18617413D01*
X62519819Y-18596771D01*
X62621517Y-18495073D01*
X62775320Y-18341270D01*
X62836642Y-18307786D01*
X62906334Y-18312770D01*
X62950681Y-18341271D01*
X63206181Y-18596771D01*
X63239666Y-18658094D01*
X63242500Y-18684452D01*
X63242500Y-19214701D01*
X63245401Y-19251567D01*
X63245402Y-19251573D01*
X63291254Y-19409393D01*
X63291255Y-19409396D01*
X63374917Y-19550862D01*
X63374923Y-19550870D01*
X63491129Y-19667076D01*
X63491133Y-19667079D01*
X63491135Y-19667081D01*
X63632602Y-19750744D01*
X63674224Y-19762836D01*
X63790426Y-19796597D01*
X63790429Y-19796597D01*
X63790431Y-19796598D01*
X63827306Y-19799500D01*
X64086294Y-19799500D01*
X64153333Y-19819185D01*
X64199088Y-19871989D01*
X64209514Y-19909615D01*
X64212358Y-19934854D01*
X64212358Y-19934856D01*
X64212359Y-19934857D01*
X64216145Y-19945677D01*
X64248650Y-20038571D01*
X64270078Y-20099806D01*
X64363053Y-20247776D01*
X64486624Y-20371347D01*
X64634594Y-20464322D01*
X64799543Y-20522041D01*
X64799549Y-20522041D01*
X64799551Y-20522042D01*
X64973196Y-20541607D01*
X64973200Y-20541607D01*
X64973204Y-20541607D01*
X65146848Y-20522042D01*
X65146847Y-20522042D01*
X65146857Y-20522041D01*
X65311806Y-20464322D01*
X65459776Y-20371347D01*
X65583347Y-20247776D01*
X65676322Y-20099806D01*
X65734041Y-19934857D01*
X65735766Y-19919548D01*
X65736886Y-19909615D01*
X65763953Y-19845201D01*
X65821549Y-19805647D01*
X65860106Y-19799500D01*
X66058686Y-19799500D01*
X66058694Y-19799500D01*
X66095569Y-19796598D01*
X66095571Y-19796597D01*
X66095573Y-19796597D01*
X66137191Y-19784505D01*
X66253398Y-19750744D01*
X66394865Y-19667081D01*
X66511081Y-19550865D01*
X66594744Y-19409398D01*
X66640598Y-19251569D01*
X66643500Y-19214694D01*
X66643500Y-18684452D01*
X66663185Y-18617413D01*
X66679819Y-18596771D01*
X66781517Y-18495073D01*
X66935320Y-18341270D01*
X66996642Y-18307786D01*
X67066334Y-18312770D01*
X67110681Y-18341271D01*
X67366181Y-18596771D01*
X67399666Y-18658094D01*
X67402500Y-18684452D01*
X67402500Y-19214701D01*
X67405401Y-19251567D01*
X67405402Y-19251573D01*
X67451254Y-19409393D01*
X67451255Y-19409396D01*
X67534917Y-19550862D01*
X67534923Y-19550870D01*
X67651129Y-19667076D01*
X67651133Y-19667079D01*
X67651135Y-19667081D01*
X67792602Y-19750744D01*
X67834224Y-19762836D01*
X67950426Y-19796597D01*
X67950429Y-19796597D01*
X67950431Y-19796598D01*
X67987306Y-19799500D01*
X68226494Y-19799500D01*
X68293533Y-19819185D01*
X68339288Y-19871989D01*
X68349714Y-19909615D01*
X68352558Y-19934854D01*
X68352558Y-19934856D01*
X68352559Y-19934857D01*
X68356345Y-19945677D01*
X68388850Y-20038571D01*
X68410278Y-20099806D01*
X68503253Y-20247776D01*
X68626824Y-20371347D01*
X68774794Y-20464322D01*
X68939743Y-20522041D01*
X68939749Y-20522041D01*
X68939751Y-20522042D01*
X69113396Y-20541607D01*
X69113400Y-20541607D01*
X69113404Y-20541607D01*
X69287048Y-20522042D01*
X69287047Y-20522042D01*
X69287057Y-20522041D01*
X69452006Y-20464322D01*
X69599976Y-20371347D01*
X69723547Y-20247776D01*
X69816522Y-20099806D01*
X69874241Y-19934857D01*
X69875966Y-19919548D01*
X69877086Y-19909615D01*
X69904153Y-19845201D01*
X69961749Y-19805647D01*
X70000306Y-19799500D01*
X70218686Y-19799500D01*
X70218694Y-19799500D01*
X70255569Y-19796598D01*
X70255571Y-19796597D01*
X70255573Y-19796597D01*
X70297191Y-19784505D01*
X70413398Y-19750744D01*
X70554865Y-19667081D01*
X70671081Y-19550865D01*
X70754744Y-19409398D01*
X70800598Y-19251569D01*
X70803500Y-19214694D01*
X70803500Y-18684452D01*
X70823185Y-18617413D01*
X70839819Y-18596771D01*
X71095319Y-18341271D01*
X71156642Y-18307786D01*
X71226334Y-18312770D01*
X71270681Y-18341271D01*
X71526181Y-18596771D01*
X71559666Y-18658094D01*
X71562500Y-18684452D01*
X71562500Y-19214701D01*
X71565401Y-19251567D01*
X71565402Y-19251573D01*
X71611254Y-19409393D01*
X71611255Y-19409396D01*
X71694917Y-19550862D01*
X71694923Y-19550870D01*
X71811129Y-19667076D01*
X71811133Y-19667079D01*
X71811135Y-19667081D01*
X71952602Y-19750744D01*
X71994224Y-19762836D01*
X72110426Y-19796597D01*
X72110429Y-19796597D01*
X72110431Y-19796598D01*
X72147306Y-19799500D01*
X72392094Y-19799500D01*
X72459133Y-19819185D01*
X72504888Y-19871989D01*
X72515314Y-19909615D01*
X72518158Y-19934854D01*
X72518158Y-19934856D01*
X72518159Y-19934857D01*
X72521945Y-19945677D01*
X72554450Y-20038571D01*
X72575878Y-20099806D01*
X72668853Y-20247776D01*
X72792424Y-20371347D01*
X72940394Y-20464322D01*
X73105343Y-20522041D01*
X73105349Y-20522041D01*
X73105351Y-20522042D01*
X73278996Y-20541607D01*
X73279000Y-20541607D01*
X73279004Y-20541607D01*
X73452648Y-20522042D01*
X73452647Y-20522042D01*
X73452657Y-20522041D01*
X73617606Y-20464322D01*
X73765576Y-20371347D01*
X73889147Y-20247776D01*
X73982122Y-20099806D01*
X74039841Y-19934857D01*
X74041566Y-19919548D01*
X74042686Y-19909615D01*
X74069753Y-19845201D01*
X74127349Y-19805647D01*
X74165906Y-19799500D01*
X74378686Y-19799500D01*
X74378694Y-19799500D01*
X74415569Y-19796598D01*
X74415571Y-19796597D01*
X74415573Y-19796597D01*
X74457191Y-19784505D01*
X74573398Y-19750744D01*
X74714865Y-19667081D01*
X74831081Y-19550865D01*
X74914744Y-19409398D01*
X74957014Y-19263904D01*
X74994620Y-19205019D01*
X75058092Y-19175813D01*
X75076090Y-19174500D01*
X77282847Y-19174500D01*
X77349886Y-19194185D01*
X77370528Y-19210819D01*
X77820692Y-19660984D01*
X77854177Y-19722307D01*
X77849193Y-19791999D01*
X77807321Y-19847932D01*
X77741857Y-19872349D01*
X77737804Y-19872493D01*
X77735093Y-19872664D01*
X77731084Y-19873170D01*
X77719466Y-19874083D01*
X77675807Y-19875455D01*
X77675804Y-19875456D01*
X77656561Y-19881046D01*
X77637518Y-19884990D01*
X77617639Y-19887501D01*
X77617638Y-19887502D01*
X77577028Y-19903580D01*
X77565983Y-19907362D01*
X77524043Y-19919548D01*
X77524039Y-19919550D01*
X77506800Y-19929745D01*
X77489333Y-19938302D01*
X77470704Y-19945677D01*
X77470702Y-19945679D01*
X77435361Y-19971354D01*
X77425603Y-19977764D01*
X77388015Y-19999993D01*
X77373843Y-20014165D01*
X77359058Y-20026793D01*
X77342847Y-20038572D01*
X77315006Y-20072224D01*
X77307146Y-20080861D01*
X76756008Y-20631999D01*
X76743751Y-20641820D01*
X76743934Y-20642041D01*
X76737922Y-20647014D01*
X76691898Y-20696023D01*
X76689191Y-20698816D01*
X76669689Y-20718317D01*
X76669675Y-20718334D01*
X76667207Y-20721515D01*
X76659643Y-20730370D01*
X76629737Y-20762218D01*
X76629736Y-20762220D01*
X76620084Y-20779776D01*
X76609410Y-20796026D01*
X76597129Y-20811861D01*
X76597124Y-20811868D01*
X76579775Y-20851958D01*
X76574638Y-20862444D01*
X76553603Y-20900706D01*
X76548622Y-20920107D01*
X76542321Y-20938510D01*
X76534362Y-20956902D01*
X76534361Y-20956905D01*
X76527528Y-21000043D01*
X76525160Y-21011474D01*
X76514301Y-21053771D01*
X76514300Y-21053782D01*
X76514300Y-21073816D01*
X76512773Y-21093215D01*
X76509709Y-21112562D01*
X76509640Y-21112996D01*
X76513072Y-21149305D01*
X76513750Y-21156474D01*
X76514300Y-21168143D01*
X76514300Y-21619500D01*
X76494615Y-21686539D01*
X76441811Y-21732294D01*
X76390300Y-21743500D01*
X15191346Y-21743500D01*
X15188591Y-21744395D01*
X15164236Y-21756803D01*
X15159543Y-21760213D01*
X15140213Y-21779543D01*
X15136803Y-21784236D01*
X15124395Y-21808591D01*
X15123500Y-21811346D01*
X15123500Y-22964035D01*
X15103815Y-23031074D01*
X15051011Y-23076829D01*
X14981853Y-23086773D01*
X14920464Y-23059582D01*
X14909949Y-23050884D01*
X14901304Y-23043018D01*
X14055098Y-22196812D01*
X14045275Y-22184550D01*
X14045054Y-22184734D01*
X14040081Y-22178722D01*
X13991071Y-22132699D01*
X13988272Y-22129986D01*
X13968772Y-22110485D01*
X13968766Y-22110480D01*
X13965581Y-22108009D01*
X13956729Y-22100448D01*
X13924877Y-22070538D01*
X13924875Y-22070536D01*
X13924872Y-22070535D01*
X13907324Y-22060888D01*
X13891058Y-22050204D01*
X13875227Y-22037924D01*
X13835144Y-22020578D01*
X13824658Y-22015441D01*
X13786389Y-21994403D01*
X13786387Y-21994402D01*
X13766988Y-21989422D01*
X13748576Y-21983118D01*
X13730193Y-21975162D01*
X13730187Y-21975160D01*
X13687055Y-21968329D01*
X13675617Y-21965961D01*
X13633315Y-21955100D01*
X13633314Y-21955100D01*
X13613279Y-21955100D01*
X13593881Y-21953573D01*
X13586457Y-21952397D01*
X13574100Y-21950440D01*
X13574099Y-21950440D01*
X13530620Y-21954550D01*
X13518951Y-21955100D01*
X13183381Y-21955100D01*
X13167760Y-21953375D01*
X13167733Y-21953661D01*
X13159971Y-21952926D01*
X13092751Y-21955039D01*
X13088857Y-21955100D01*
X13061288Y-21955100D01*
X13057311Y-21955602D01*
X13045680Y-21956517D01*
X13002012Y-21957889D01*
X13002006Y-21957890D01*
X12982764Y-21963480D01*
X12963725Y-21967423D01*
X12943855Y-21969934D01*
X12943841Y-21969937D01*
X12903236Y-21986013D01*
X12892192Y-21989794D01*
X12850252Y-22001979D01*
X12850248Y-22001981D01*
X12833004Y-22012179D01*
X12815543Y-22020733D01*
X12796912Y-22028110D01*
X12796900Y-22028117D01*
X12761571Y-22053785D01*
X12751811Y-22060196D01*
X12714218Y-22082429D01*
X12700052Y-22096595D01*
X12685262Y-22109227D01*
X12669052Y-22121004D01*
X12669049Y-22121007D01*
X12641211Y-22154658D01*
X12633349Y-22163297D01*
X12435504Y-22361141D01*
X12374181Y-22394626D01*
X12361713Y-22396680D01*
X12348579Y-22398160D01*
X12229954Y-22439669D01*
X12160175Y-22443230D01*
X12099548Y-22408501D01*
X12067321Y-22346508D01*
X12065000Y-22322627D01*
X12065000Y-12189000D01*
X12084685Y-12121961D01*
X12137489Y-12076206D01*
X12189000Y-12065000D01*
X40789861Y-12065000D01*
X40856900Y-12084685D01*
G37*
%TD.AperFunction*%
%TA.AperFunction,Conductor*%
G36*
X79826039Y-12084685D02*
G01*
X79871794Y-12137489D01*
X79883000Y-12189000D01*
X79883000Y-18856647D01*
X79863315Y-18923686D01*
X79810511Y-18969441D01*
X79741353Y-18979385D01*
X79677797Y-18950360D01*
X79671319Y-18944328D01*
X79483202Y-18756211D01*
X79473381Y-18743952D01*
X79473160Y-18744135D01*
X79468188Y-18738125D01*
X79419174Y-18692097D01*
X79416376Y-18689385D01*
X79396873Y-18669881D01*
X79396870Y-18669879D01*
X79393687Y-18667409D01*
X79384816Y-18659832D01*
X79352983Y-18629939D01*
X79352982Y-18629938D01*
X79347929Y-18627160D01*
X79335426Y-18620286D01*
X79319164Y-18609604D01*
X79318791Y-18609315D01*
X79303337Y-18597327D01*
X79263243Y-18579976D01*
X79252764Y-18574843D01*
X79214490Y-18553802D01*
X79195084Y-18548819D01*
X79176685Y-18542519D01*
X79158301Y-18534564D01*
X79158293Y-18534562D01*
X79128640Y-18529865D01*
X79065506Y-18499934D01*
X79060359Y-18495073D01*
X78015761Y-17450475D01*
X77985532Y-17401175D01*
X77985199Y-17400152D01*
X77980087Y-17377314D01*
X77979064Y-17369208D01*
X77958633Y-17317606D01*
X77956008Y-17310315D01*
X77938867Y-17257559D01*
X77934489Y-17250661D01*
X77923895Y-17229868D01*
X77920886Y-17222268D01*
X77920884Y-17222265D01*
X77920883Y-17222263D01*
X77905330Y-17200857D01*
X77888270Y-17177377D01*
X77883901Y-17170947D01*
X77854185Y-17124122D01*
X77848234Y-17118534D01*
X77832798Y-17101025D01*
X77827994Y-17094413D01*
X77827991Y-17094411D01*
X77827991Y-17094410D01*
X77785262Y-17059062D01*
X77779418Y-17053910D01*
X77738984Y-17015940D01*
X77738977Y-17015934D01*
X77731815Y-17011997D01*
X77712514Y-16998880D01*
X77706224Y-16993677D01*
X77706223Y-16993676D01*
X77656020Y-16970052D01*
X77649120Y-16966536D01*
X77600492Y-16939803D01*
X77600489Y-16939802D01*
X77600485Y-16939800D01*
X77592574Y-16937769D01*
X77570622Y-16929866D01*
X77563225Y-16926385D01*
X77563221Y-16926384D01*
X77508756Y-16915994D01*
X77501158Y-16914296D01*
X77447423Y-16900500D01*
X77447419Y-16900500D01*
X77439247Y-16900500D01*
X77416015Y-16898304D01*
X77407988Y-16896773D01*
X77407985Y-16896772D01*
X77352641Y-16900255D01*
X77344855Y-16900500D01*
X75224453Y-16900500D01*
X75157414Y-16880815D01*
X75136772Y-16864181D01*
X74999819Y-16727228D01*
X74966334Y-16665905D01*
X74963500Y-16639547D01*
X74963500Y-15583313D01*
X74963499Y-15583298D01*
X74960598Y-15546432D01*
X74960597Y-15546426D01*
X74914745Y-15388606D01*
X74914744Y-15388602D01*
X74831081Y-15247135D01*
X74831079Y-15247133D01*
X74831076Y-15247129D01*
X74714870Y-15130923D01*
X74714862Y-15130917D01*
X74573396Y-15047255D01*
X74573393Y-15047254D01*
X74415573Y-15001402D01*
X74415567Y-15001401D01*
X74378701Y-14998500D01*
X74378694Y-14998500D01*
X73947306Y-14998500D01*
X73947298Y-14998500D01*
X73910432Y-15001401D01*
X73910426Y-15001402D01*
X73752606Y-15047254D01*
X73752603Y-15047255D01*
X73611137Y-15130917D01*
X73611129Y-15130923D01*
X73494923Y-15247129D01*
X73494917Y-15247137D01*
X73411255Y-15388603D01*
X73411253Y-15388606D01*
X73382076Y-15489037D01*
X73344470Y-15547923D01*
X73280997Y-15577129D01*
X73211811Y-15567383D01*
X73158876Y-15521779D01*
X73143924Y-15489037D01*
X73114746Y-15388606D01*
X73114744Y-15388603D01*
X73114744Y-15388602D01*
X73031081Y-15247135D01*
X73031079Y-15247133D01*
X73031076Y-15247129D01*
X72914870Y-15130923D01*
X72914862Y-15130917D01*
X72773396Y-15047255D01*
X72773393Y-15047254D01*
X72615573Y-15001402D01*
X72615567Y-15001401D01*
X72578701Y-14998500D01*
X72578694Y-14998500D01*
X72147306Y-14998500D01*
X72147298Y-14998500D01*
X72110432Y-15001401D01*
X72110426Y-15001402D01*
X71952606Y-15047254D01*
X71952603Y-15047255D01*
X71811137Y-15130917D01*
X71811129Y-15130923D01*
X71694923Y-15247129D01*
X71694917Y-15247137D01*
X71611255Y-15388603D01*
X71611254Y-15388606D01*
X71565402Y-15546426D01*
X71565401Y-15546432D01*
X71562500Y-15583298D01*
X71562500Y-16113547D01*
X71542815Y-16180586D01*
X71526181Y-16201228D01*
X71270681Y-16456728D01*
X71209358Y-16490213D01*
X71139666Y-16485229D01*
X71095319Y-16456728D01*
X70839819Y-16201228D01*
X70806334Y-16139905D01*
X70803500Y-16113547D01*
X70803500Y-15583313D01*
X70803499Y-15583298D01*
X70800598Y-15546432D01*
X70800597Y-15546426D01*
X70754745Y-15388606D01*
X70754744Y-15388602D01*
X70671081Y-15247135D01*
X70671079Y-15247133D01*
X70671076Y-15247129D01*
X70554870Y-15130923D01*
X70554862Y-15130917D01*
X70413396Y-15047255D01*
X70413393Y-15047254D01*
X70255573Y-15001402D01*
X70255567Y-15001401D01*
X70218701Y-14998500D01*
X70218694Y-14998500D01*
X69787306Y-14998500D01*
X69787298Y-14998500D01*
X69750432Y-15001401D01*
X69750426Y-15001402D01*
X69592606Y-15047254D01*
X69592603Y-15047255D01*
X69451137Y-15130917D01*
X69451129Y-15130923D01*
X69334923Y-15247129D01*
X69334917Y-15247137D01*
X69251255Y-15388603D01*
X69251253Y-15388606D01*
X69222076Y-15489037D01*
X69184470Y-15547923D01*
X69120997Y-15577129D01*
X69051811Y-15567383D01*
X68998876Y-15521779D01*
X68983924Y-15489037D01*
X68954746Y-15388606D01*
X68954744Y-15388603D01*
X68954744Y-15388602D01*
X68871081Y-15247135D01*
X68871079Y-15247133D01*
X68871076Y-15247129D01*
X68754870Y-15130923D01*
X68754862Y-15130917D01*
X68613396Y-15047255D01*
X68613393Y-15047254D01*
X68455573Y-15001402D01*
X68455567Y-15001401D01*
X68418701Y-14998500D01*
X68418694Y-14998500D01*
X67987306Y-14998500D01*
X67987298Y-14998500D01*
X67950432Y-15001401D01*
X67950426Y-15001402D01*
X67792606Y-15047254D01*
X67792603Y-15047255D01*
X67651137Y-15130917D01*
X67651129Y-15130923D01*
X67534923Y-15247129D01*
X67534917Y-15247137D01*
X67451255Y-15388603D01*
X67451254Y-15388606D01*
X67405402Y-15546426D01*
X67405401Y-15546432D01*
X67402500Y-15583298D01*
X67402500Y-16113546D01*
X67382815Y-16180585D01*
X67366181Y-16201227D01*
X67110680Y-16456728D01*
X67049357Y-16490213D01*
X66979665Y-16485229D01*
X66935318Y-16456728D01*
X66679819Y-16201228D01*
X66646334Y-16139905D01*
X66643500Y-16113547D01*
X66643500Y-15583313D01*
X66643499Y-15583298D01*
X66640598Y-15546432D01*
X66640597Y-15546426D01*
X66594745Y-15388606D01*
X66594744Y-15388602D01*
X66511081Y-15247135D01*
X66511079Y-15247133D01*
X66511076Y-15247129D01*
X66394870Y-15130923D01*
X66394862Y-15130917D01*
X66253396Y-15047255D01*
X66253393Y-15047254D01*
X66095573Y-15001402D01*
X66095567Y-15001401D01*
X66058701Y-14998500D01*
X66058694Y-14998500D01*
X65627306Y-14998500D01*
X65627298Y-14998500D01*
X65590432Y-15001401D01*
X65590426Y-15001402D01*
X65432606Y-15047254D01*
X65432603Y-15047255D01*
X65291137Y-15130917D01*
X65291129Y-15130923D01*
X65174923Y-15247129D01*
X65174917Y-15247137D01*
X65091255Y-15388603D01*
X65091253Y-15388606D01*
X65062076Y-15489037D01*
X65024470Y-15547923D01*
X64960997Y-15577129D01*
X64891811Y-15567383D01*
X64838876Y-15521779D01*
X64823924Y-15489037D01*
X64794746Y-15388606D01*
X64794744Y-15388603D01*
X64794744Y-15388602D01*
X64711081Y-15247135D01*
X64711079Y-15247133D01*
X64711076Y-15247129D01*
X64594870Y-15130923D01*
X64594862Y-15130917D01*
X64453396Y-15047255D01*
X64453393Y-15047254D01*
X64295573Y-15001402D01*
X64295567Y-15001401D01*
X64258701Y-14998500D01*
X64258694Y-14998500D01*
X63827306Y-14998500D01*
X63827298Y-14998500D01*
X63790432Y-15001401D01*
X63790426Y-15001402D01*
X63632606Y-15047254D01*
X63632603Y-15047255D01*
X63491137Y-15130917D01*
X63491129Y-15130923D01*
X63374923Y-15247129D01*
X63374917Y-15247137D01*
X63291255Y-15388603D01*
X63291254Y-15388606D01*
X63245402Y-15546426D01*
X63245401Y-15546432D01*
X63242500Y-15583298D01*
X63242500Y-16113546D01*
X63222815Y-16180585D01*
X63206181Y-16201227D01*
X62950680Y-16456728D01*
X62889357Y-16490213D01*
X62819665Y-16485229D01*
X62775318Y-16456728D01*
X62519819Y-16201228D01*
X62486334Y-16139905D01*
X62483500Y-16113547D01*
X62483500Y-15583313D01*
X62483499Y-15583298D01*
X62480598Y-15546432D01*
X62480597Y-15546426D01*
X62434745Y-15388606D01*
X62434744Y-15388602D01*
X62351081Y-15247135D01*
X62351079Y-15247133D01*
X62351076Y-15247129D01*
X62234870Y-15130923D01*
X62234862Y-15130917D01*
X62093396Y-15047255D01*
X62093393Y-15047254D01*
X61935573Y-15001402D01*
X61935567Y-15001401D01*
X61898701Y-14998500D01*
X61898694Y-14998500D01*
X61467306Y-14998500D01*
X61467298Y-14998500D01*
X61430432Y-15001401D01*
X61430426Y-15001402D01*
X61272606Y-15047254D01*
X61272603Y-15047255D01*
X61131137Y-15130917D01*
X61131129Y-15130923D01*
X61014923Y-15247129D01*
X61014917Y-15247137D01*
X60931255Y-15388603D01*
X60931253Y-15388606D01*
X60902076Y-15489037D01*
X60864470Y-15547923D01*
X60800997Y-15577129D01*
X60731811Y-15567383D01*
X60678876Y-15521779D01*
X60663924Y-15489037D01*
X60634746Y-15388606D01*
X60634744Y-15388603D01*
X60634744Y-15388602D01*
X60551081Y-15247135D01*
X60551079Y-15247133D01*
X60551076Y-15247129D01*
X60434870Y-15130923D01*
X60434862Y-15130917D01*
X60293396Y-15047255D01*
X60293393Y-15047254D01*
X60135573Y-15001402D01*
X60135567Y-15001401D01*
X60098701Y-14998500D01*
X60098694Y-14998500D01*
X59667306Y-14998500D01*
X59667298Y-14998500D01*
X59630432Y-15001401D01*
X59630426Y-15001402D01*
X59472606Y-15047254D01*
X59472603Y-15047255D01*
X59331137Y-15130917D01*
X59331129Y-15130923D01*
X59214923Y-15247129D01*
X59214917Y-15247137D01*
X59131255Y-15388603D01*
X59131254Y-15388606D01*
X59085402Y-15546426D01*
X59085401Y-15546432D01*
X59082500Y-15583298D01*
X59082500Y-16113546D01*
X59062815Y-16180585D01*
X59046181Y-16201227D01*
X58790680Y-16456728D01*
X58729357Y-16490213D01*
X58659665Y-16485229D01*
X58615318Y-16456728D01*
X58359819Y-16201228D01*
X58326334Y-16139905D01*
X58323500Y-16113547D01*
X58323500Y-15583313D01*
X58323499Y-15583298D01*
X58320598Y-15546432D01*
X58320597Y-15546426D01*
X58274745Y-15388606D01*
X58274744Y-15388602D01*
X58191081Y-15247135D01*
X58191079Y-15247133D01*
X58191076Y-15247129D01*
X58074870Y-15130923D01*
X58074862Y-15130917D01*
X57933396Y-15047255D01*
X57933393Y-15047254D01*
X57775573Y-15001402D01*
X57775567Y-15001401D01*
X57738701Y-14998500D01*
X57738694Y-14998500D01*
X57307306Y-14998500D01*
X57307298Y-14998500D01*
X57270432Y-15001401D01*
X57270426Y-15001402D01*
X57112606Y-15047254D01*
X57112603Y-15047255D01*
X56971137Y-15130917D01*
X56971129Y-15130923D01*
X56854923Y-15247129D01*
X56854917Y-15247137D01*
X56771255Y-15388603D01*
X56771253Y-15388606D01*
X56742076Y-15489037D01*
X56704470Y-15547923D01*
X56640997Y-15577129D01*
X56571811Y-15567383D01*
X56518876Y-15521779D01*
X56503924Y-15489037D01*
X56474746Y-15388606D01*
X56474744Y-15388603D01*
X56474744Y-15388602D01*
X56391081Y-15247135D01*
X56391079Y-15247133D01*
X56391076Y-15247129D01*
X56274870Y-15130923D01*
X56274862Y-15130917D01*
X56133396Y-15047255D01*
X56133393Y-15047254D01*
X55975573Y-15001402D01*
X55975567Y-15001401D01*
X55938701Y-14998500D01*
X55938694Y-14998500D01*
X55507306Y-14998500D01*
X55507298Y-14998500D01*
X55470432Y-15001401D01*
X55470426Y-15001402D01*
X55312606Y-15047254D01*
X55312603Y-15047255D01*
X55171137Y-15130917D01*
X55171129Y-15130923D01*
X55054923Y-15247129D01*
X55054917Y-15247137D01*
X54971255Y-15388603D01*
X54971254Y-15388606D01*
X54925402Y-15546426D01*
X54925401Y-15546432D01*
X54922500Y-15583298D01*
X54922500Y-16113546D01*
X54902815Y-16180585D01*
X54886181Y-16201227D01*
X54630680Y-16456728D01*
X54569357Y-16490213D01*
X54499665Y-16485229D01*
X54455318Y-16456728D01*
X54199819Y-16201228D01*
X54166334Y-16139905D01*
X54163500Y-16113547D01*
X54163500Y-15583313D01*
X54163499Y-15583298D01*
X54160598Y-15546432D01*
X54160597Y-15546426D01*
X54114745Y-15388606D01*
X54114744Y-15388602D01*
X54031081Y-15247135D01*
X54031079Y-15247133D01*
X54031076Y-15247129D01*
X53914870Y-15130923D01*
X53914862Y-15130917D01*
X53773396Y-15047255D01*
X53773393Y-15047254D01*
X53615573Y-15001402D01*
X53615567Y-15001401D01*
X53578701Y-14998500D01*
X53578694Y-14998500D01*
X53147306Y-14998500D01*
X53147298Y-14998500D01*
X53110432Y-15001401D01*
X53110426Y-15001402D01*
X52952606Y-15047254D01*
X52952603Y-15047255D01*
X52811137Y-15130917D01*
X52811129Y-15130923D01*
X52694923Y-15247129D01*
X52694917Y-15247137D01*
X52611255Y-15388603D01*
X52611253Y-15388606D01*
X52582076Y-15489037D01*
X52544470Y-15547923D01*
X52480997Y-15577129D01*
X52411811Y-15567383D01*
X52358876Y-15521779D01*
X52343924Y-15489037D01*
X52314746Y-15388606D01*
X52314744Y-15388603D01*
X52314744Y-15388602D01*
X52231081Y-15247135D01*
X52231079Y-15247133D01*
X52231076Y-15247129D01*
X52114870Y-15130923D01*
X52114862Y-15130917D01*
X51973396Y-15047255D01*
X51973393Y-15047254D01*
X51815573Y-15001402D01*
X51815567Y-15001401D01*
X51778701Y-14998500D01*
X51778694Y-14998500D01*
X51347306Y-14998500D01*
X51347298Y-14998500D01*
X51310432Y-15001401D01*
X51310426Y-15001402D01*
X51152606Y-15047254D01*
X51152603Y-15047255D01*
X51011137Y-15130917D01*
X51011129Y-15130923D01*
X50894923Y-15247129D01*
X50894917Y-15247137D01*
X50811255Y-15388603D01*
X50811254Y-15388606D01*
X50765402Y-15546426D01*
X50765401Y-15546432D01*
X50762500Y-15583298D01*
X50762500Y-16113546D01*
X50742815Y-16180585D01*
X50726181Y-16201227D01*
X50470680Y-16456728D01*
X50409357Y-16490213D01*
X50339665Y-16485229D01*
X50295318Y-16456728D01*
X50039819Y-16201228D01*
X50006334Y-16139905D01*
X50003500Y-16113547D01*
X50003500Y-15583313D01*
X50003499Y-15583298D01*
X50000598Y-15546432D01*
X50000597Y-15546426D01*
X49954745Y-15388606D01*
X49954744Y-15388602D01*
X49871081Y-15247135D01*
X49871079Y-15247133D01*
X49871076Y-15247129D01*
X49754870Y-15130923D01*
X49754862Y-15130917D01*
X49613396Y-15047255D01*
X49613393Y-15047254D01*
X49455573Y-15001402D01*
X49455567Y-15001401D01*
X49418701Y-14998500D01*
X49418694Y-14998500D01*
X48987306Y-14998500D01*
X48987298Y-14998500D01*
X48950432Y-15001401D01*
X48950426Y-15001402D01*
X48792606Y-15047254D01*
X48792603Y-15047255D01*
X48651137Y-15130917D01*
X48651129Y-15130923D01*
X48534923Y-15247129D01*
X48534917Y-15247137D01*
X48451255Y-15388603D01*
X48451253Y-15388606D01*
X48422076Y-15489037D01*
X48384470Y-15547923D01*
X48320997Y-15577129D01*
X48251811Y-15567383D01*
X48198876Y-15521779D01*
X48183924Y-15489037D01*
X48154746Y-15388606D01*
X48154744Y-15388603D01*
X48154744Y-15388602D01*
X48071081Y-15247135D01*
X48071079Y-15247133D01*
X48071076Y-15247129D01*
X47954870Y-15130923D01*
X47954862Y-15130917D01*
X47813396Y-15047255D01*
X47813393Y-15047254D01*
X47655573Y-15001402D01*
X47655567Y-15001401D01*
X47618701Y-14998500D01*
X47618694Y-14998500D01*
X47187306Y-14998500D01*
X47187298Y-14998500D01*
X47150432Y-15001401D01*
X47150426Y-15001402D01*
X46992606Y-15047254D01*
X46992603Y-15047255D01*
X46851137Y-15130917D01*
X46851129Y-15130923D01*
X46734923Y-15247129D01*
X46734917Y-15247137D01*
X46651255Y-15388603D01*
X46651254Y-15388606D01*
X46605402Y-15546426D01*
X46605401Y-15546432D01*
X46602500Y-15583298D01*
X46602500Y-16113546D01*
X46582815Y-16180585D01*
X46566181Y-16201227D01*
X46310680Y-16456728D01*
X46249357Y-16490213D01*
X46179665Y-16485229D01*
X46135318Y-16456728D01*
X45879819Y-16201228D01*
X45846334Y-16139905D01*
X45843500Y-16113547D01*
X45843500Y-15583313D01*
X45843499Y-15583298D01*
X45840598Y-15546432D01*
X45840597Y-15546426D01*
X45794745Y-15388606D01*
X45794744Y-15388602D01*
X45711081Y-15247135D01*
X45711079Y-15247133D01*
X45711076Y-15247129D01*
X45594870Y-15130923D01*
X45594862Y-15130917D01*
X45453396Y-15047255D01*
X45453393Y-15047254D01*
X45295573Y-15001402D01*
X45295567Y-15001401D01*
X45258701Y-14998500D01*
X45258694Y-14998500D01*
X44827306Y-14998500D01*
X44827298Y-14998500D01*
X44790432Y-15001401D01*
X44790426Y-15001402D01*
X44632606Y-15047254D01*
X44632603Y-15047255D01*
X44491137Y-15130917D01*
X44491129Y-15130923D01*
X44374923Y-15247129D01*
X44374917Y-15247137D01*
X44291255Y-15388603D01*
X44291253Y-15388606D01*
X44262076Y-15489037D01*
X44224470Y-15547923D01*
X44160997Y-15577129D01*
X44091811Y-15567383D01*
X44038876Y-15521779D01*
X44023924Y-15489037D01*
X43994746Y-15388606D01*
X43994744Y-15388603D01*
X43994744Y-15388602D01*
X43911081Y-15247135D01*
X43911079Y-15247133D01*
X43911076Y-15247129D01*
X43794870Y-15130923D01*
X43794862Y-15130917D01*
X43653396Y-15047255D01*
X43653393Y-15047254D01*
X43495573Y-15001402D01*
X43495567Y-15001401D01*
X43458701Y-14998500D01*
X43458694Y-14998500D01*
X43027306Y-14998500D01*
X43027298Y-14998500D01*
X42990432Y-15001401D01*
X42990426Y-15001402D01*
X42832606Y-15047254D01*
X42832603Y-15047255D01*
X42691137Y-15130917D01*
X42691129Y-15130923D01*
X42574923Y-15247129D01*
X42574917Y-15247137D01*
X42491255Y-15388603D01*
X42491254Y-15388606D01*
X42445402Y-15546426D01*
X42445401Y-15546432D01*
X42442500Y-15583298D01*
X42442500Y-16113546D01*
X42422815Y-16180585D01*
X42406181Y-16201227D01*
X42150680Y-16456728D01*
X42089357Y-16490213D01*
X42019665Y-16485229D01*
X41975318Y-16456728D01*
X41719819Y-16201228D01*
X41686334Y-16139905D01*
X41683500Y-16113547D01*
X41683500Y-15583313D01*
X41683499Y-15583298D01*
X41680598Y-15546432D01*
X41680597Y-15546426D01*
X41634745Y-15388606D01*
X41634744Y-15388602D01*
X41551081Y-15247135D01*
X41551079Y-15247133D01*
X41551076Y-15247129D01*
X41434870Y-15130923D01*
X41434862Y-15130917D01*
X41293396Y-15047255D01*
X41293393Y-15047254D01*
X41135573Y-15001402D01*
X41135567Y-15001401D01*
X41098701Y-14998500D01*
X41098694Y-14998500D01*
X40667306Y-14998500D01*
X40667298Y-14998500D01*
X40630432Y-15001401D01*
X40630426Y-15001402D01*
X40472606Y-15047254D01*
X40472603Y-15047255D01*
X40331137Y-15130917D01*
X40331129Y-15130923D01*
X40214923Y-15247129D01*
X40214917Y-15247137D01*
X40131255Y-15388603D01*
X40131253Y-15388606D01*
X40102076Y-15489037D01*
X40064470Y-15547923D01*
X40000997Y-15577129D01*
X39931811Y-15567383D01*
X39878876Y-15521779D01*
X39863924Y-15489037D01*
X39834746Y-15388606D01*
X39834744Y-15388603D01*
X39834744Y-15388602D01*
X39751081Y-15247135D01*
X39751079Y-15247133D01*
X39751076Y-15247129D01*
X39634870Y-15130923D01*
X39634862Y-15130917D01*
X39493396Y-15047255D01*
X39493393Y-15047254D01*
X39335573Y-15001402D01*
X39335567Y-15001401D01*
X39298701Y-14998500D01*
X39298694Y-14998500D01*
X38867306Y-14998500D01*
X38867298Y-14998500D01*
X38830432Y-15001401D01*
X38830426Y-15001402D01*
X38672606Y-15047254D01*
X38672603Y-15047255D01*
X38531137Y-15130917D01*
X38531129Y-15130923D01*
X38414923Y-15247129D01*
X38414917Y-15247137D01*
X38331255Y-15388603D01*
X38331254Y-15388606D01*
X38285402Y-15546426D01*
X38285401Y-15546432D01*
X38282500Y-15583298D01*
X38282500Y-16113546D01*
X38262815Y-16180585D01*
X38246181Y-16201227D01*
X37990680Y-16456728D01*
X37929357Y-16490213D01*
X37859665Y-16485229D01*
X37815318Y-16456728D01*
X37559819Y-16201228D01*
X37526334Y-16139905D01*
X37523500Y-16113547D01*
X37523500Y-15583313D01*
X37523499Y-15583298D01*
X37520598Y-15546432D01*
X37520597Y-15546426D01*
X37474745Y-15388606D01*
X37474744Y-15388602D01*
X37391081Y-15247135D01*
X37391079Y-15247133D01*
X37391076Y-15247129D01*
X37274870Y-15130923D01*
X37274862Y-15130917D01*
X37133396Y-15047255D01*
X37133393Y-15047254D01*
X36975573Y-15001402D01*
X36975567Y-15001401D01*
X36938701Y-14998500D01*
X36938694Y-14998500D01*
X36507306Y-14998500D01*
X36507298Y-14998500D01*
X36470432Y-15001401D01*
X36470426Y-15001402D01*
X36312606Y-15047254D01*
X36312603Y-15047255D01*
X36171137Y-15130917D01*
X36171129Y-15130923D01*
X36054923Y-15247129D01*
X36054917Y-15247137D01*
X35971255Y-15388603D01*
X35971253Y-15388606D01*
X35942076Y-15489037D01*
X35904470Y-15547923D01*
X35840997Y-15577129D01*
X35771811Y-15567383D01*
X35718876Y-15521779D01*
X35703924Y-15489037D01*
X35674746Y-15388606D01*
X35674744Y-15388603D01*
X35674744Y-15388602D01*
X35591081Y-15247135D01*
X35591079Y-15247133D01*
X35591076Y-15247129D01*
X35474870Y-15130923D01*
X35474862Y-15130917D01*
X35333396Y-15047255D01*
X35333393Y-15047254D01*
X35175573Y-15001402D01*
X35175567Y-15001401D01*
X35138701Y-14998500D01*
X35138694Y-14998500D01*
X34707306Y-14998500D01*
X34707298Y-14998500D01*
X34670432Y-15001401D01*
X34670426Y-15001402D01*
X34512606Y-15047254D01*
X34512603Y-15047255D01*
X34371137Y-15130917D01*
X34371129Y-15130923D01*
X34254923Y-15247129D01*
X34254917Y-15247137D01*
X34171255Y-15388603D01*
X34171254Y-15388606D01*
X34125402Y-15546426D01*
X34125401Y-15546432D01*
X34122500Y-15583298D01*
X34122500Y-16113546D01*
X34102815Y-16180585D01*
X34086181Y-16201227D01*
X33830680Y-16456728D01*
X33769357Y-16490213D01*
X33699665Y-16485229D01*
X33655318Y-16456728D01*
X33399819Y-16201228D01*
X33366334Y-16139905D01*
X33363500Y-16113547D01*
X33363500Y-15583313D01*
X33363499Y-15583298D01*
X33360598Y-15546432D01*
X33360597Y-15546426D01*
X33314745Y-15388606D01*
X33314744Y-15388602D01*
X33231081Y-15247135D01*
X33231079Y-15247133D01*
X33231076Y-15247129D01*
X33114870Y-15130923D01*
X33114862Y-15130917D01*
X32973396Y-15047255D01*
X32973393Y-15047254D01*
X32815573Y-15001402D01*
X32815567Y-15001401D01*
X32778701Y-14998500D01*
X32778694Y-14998500D01*
X32347306Y-14998500D01*
X32347298Y-14998500D01*
X32310432Y-15001401D01*
X32310426Y-15001402D01*
X32152606Y-15047254D01*
X32152603Y-15047255D01*
X32011137Y-15130917D01*
X32011129Y-15130923D01*
X31894923Y-15247129D01*
X31894917Y-15247137D01*
X31811255Y-15388603D01*
X31811253Y-15388606D01*
X31782076Y-15489037D01*
X31744470Y-15547923D01*
X31680997Y-15577129D01*
X31611811Y-15567383D01*
X31558876Y-15521779D01*
X31543924Y-15489037D01*
X31514746Y-15388606D01*
X31514744Y-15388603D01*
X31514744Y-15388602D01*
X31431081Y-15247135D01*
X31431079Y-15247133D01*
X31431076Y-15247129D01*
X31314870Y-15130923D01*
X31314862Y-15130917D01*
X31173396Y-15047255D01*
X31173393Y-15047254D01*
X31015573Y-15001402D01*
X31015567Y-15001401D01*
X30978701Y-14998500D01*
X30978694Y-14998500D01*
X30547306Y-14998500D01*
X30547298Y-14998500D01*
X30510432Y-15001401D01*
X30510426Y-15001402D01*
X30352606Y-15047254D01*
X30352603Y-15047255D01*
X30211137Y-15130917D01*
X30211129Y-15130923D01*
X30094923Y-15247129D01*
X30094917Y-15247137D01*
X30011255Y-15388603D01*
X30011254Y-15388606D01*
X29965402Y-15546426D01*
X29965401Y-15546432D01*
X29962500Y-15583298D01*
X29962500Y-16113546D01*
X29942815Y-16180585D01*
X29926181Y-16201227D01*
X29670680Y-16456728D01*
X29609357Y-16490213D01*
X29539665Y-16485229D01*
X29495318Y-16456728D01*
X29239819Y-16201228D01*
X29206334Y-16139905D01*
X29203500Y-16113547D01*
X29203500Y-15583313D01*
X29203499Y-15583298D01*
X29200598Y-15546432D01*
X29200597Y-15546426D01*
X29154745Y-15388606D01*
X29154744Y-15388602D01*
X29071081Y-15247135D01*
X29071079Y-15247133D01*
X29071076Y-15247129D01*
X28954870Y-15130923D01*
X28954862Y-15130917D01*
X28813396Y-15047255D01*
X28813393Y-15047254D01*
X28655573Y-15001402D01*
X28655567Y-15001401D01*
X28618701Y-14998500D01*
X28618694Y-14998500D01*
X28187306Y-14998500D01*
X28187298Y-14998500D01*
X28150432Y-15001401D01*
X28150426Y-15001402D01*
X27992606Y-15047254D01*
X27992603Y-15047255D01*
X27851137Y-15130917D01*
X27851129Y-15130923D01*
X27734923Y-15247129D01*
X27734917Y-15247137D01*
X27651255Y-15388603D01*
X27651253Y-15388606D01*
X27622076Y-15489037D01*
X27584470Y-15547923D01*
X27520997Y-15577129D01*
X27451811Y-15567383D01*
X27398876Y-15521779D01*
X27383924Y-15489037D01*
X27354746Y-15388606D01*
X27354744Y-15388603D01*
X27354744Y-15388602D01*
X27271081Y-15247135D01*
X27271079Y-15247133D01*
X27271076Y-15247129D01*
X27154870Y-15130923D01*
X27154862Y-15130917D01*
X27013396Y-15047255D01*
X27013393Y-15047254D01*
X26855573Y-15001402D01*
X26855567Y-15001401D01*
X26818701Y-14998500D01*
X26818694Y-14998500D01*
X26387306Y-14998500D01*
X26387298Y-14998500D01*
X26350432Y-15001401D01*
X26350426Y-15001402D01*
X26192606Y-15047254D01*
X26192603Y-15047255D01*
X26051137Y-15130917D01*
X26051129Y-15130923D01*
X25934923Y-15247129D01*
X25934917Y-15247137D01*
X25851255Y-15388603D01*
X25851254Y-15388606D01*
X25805402Y-15546426D01*
X25805401Y-15546432D01*
X25802500Y-15583298D01*
X25802500Y-16113546D01*
X25782815Y-16180585D01*
X25766181Y-16201227D01*
X25510680Y-16456728D01*
X25449357Y-16490213D01*
X25379665Y-16485229D01*
X25335318Y-16456728D01*
X25079819Y-16201228D01*
X25046334Y-16139905D01*
X25043500Y-16113547D01*
X25043500Y-15583313D01*
X25043499Y-15583298D01*
X25040598Y-15546432D01*
X25040597Y-15546426D01*
X24994745Y-15388606D01*
X24994744Y-15388602D01*
X24911081Y-15247135D01*
X24911079Y-15247133D01*
X24911076Y-15247129D01*
X24794870Y-15130923D01*
X24794862Y-15130917D01*
X24653396Y-15047255D01*
X24653393Y-15047254D01*
X24495573Y-15001402D01*
X24495567Y-15001401D01*
X24458701Y-14998500D01*
X24458694Y-14998500D01*
X24027306Y-14998500D01*
X24027298Y-14998500D01*
X23990432Y-15001401D01*
X23990426Y-15001402D01*
X23832606Y-15047254D01*
X23832603Y-15047255D01*
X23691137Y-15130917D01*
X23691129Y-15130923D01*
X23574923Y-15247129D01*
X23574917Y-15247137D01*
X23491255Y-15388603D01*
X23491253Y-15388606D01*
X23462076Y-15489037D01*
X23424470Y-15547923D01*
X23360997Y-15577129D01*
X23291811Y-15567383D01*
X23238876Y-15521779D01*
X23223924Y-15489037D01*
X23194746Y-15388606D01*
X23194744Y-15388603D01*
X23194744Y-15388602D01*
X23111081Y-15247135D01*
X23111079Y-15247133D01*
X23111076Y-15247129D01*
X22994870Y-15130923D01*
X22994862Y-15130917D01*
X22853396Y-15047255D01*
X22853393Y-15047254D01*
X22695573Y-15001402D01*
X22695567Y-15001401D01*
X22658701Y-14998500D01*
X22658694Y-14998500D01*
X22227306Y-14998500D01*
X22227298Y-14998500D01*
X22190432Y-15001401D01*
X22190426Y-15001402D01*
X22032606Y-15047254D01*
X22032603Y-15047255D01*
X21891137Y-15130917D01*
X21891129Y-15130923D01*
X21774923Y-15247129D01*
X21774917Y-15247137D01*
X21691255Y-15388603D01*
X21691254Y-15388606D01*
X21645402Y-15546426D01*
X21645401Y-15546432D01*
X21642500Y-15583298D01*
X21642500Y-16113546D01*
X21622815Y-16180585D01*
X21606181Y-16201227D01*
X21350680Y-16456728D01*
X21289357Y-16490213D01*
X21219665Y-16485229D01*
X21175318Y-16456728D01*
X20919819Y-16201228D01*
X20886334Y-16139905D01*
X20883500Y-16113547D01*
X20883500Y-15583313D01*
X20883499Y-15583298D01*
X20880598Y-15546432D01*
X20880597Y-15546426D01*
X20834745Y-15388606D01*
X20834744Y-15388602D01*
X20751081Y-15247135D01*
X20751079Y-15247133D01*
X20751076Y-15247129D01*
X20634870Y-15130923D01*
X20634862Y-15130917D01*
X20493396Y-15047255D01*
X20493393Y-15047254D01*
X20335573Y-15001402D01*
X20335567Y-15001401D01*
X20298701Y-14998500D01*
X20298694Y-14998500D01*
X19867306Y-14998500D01*
X19867298Y-14998500D01*
X19830432Y-15001401D01*
X19830426Y-15001402D01*
X19672606Y-15047254D01*
X19672603Y-15047255D01*
X19531137Y-15130917D01*
X19531129Y-15130923D01*
X19414923Y-15247129D01*
X19414917Y-15247137D01*
X19331255Y-15388603D01*
X19331253Y-15388606D01*
X19302076Y-15489037D01*
X19264470Y-15547923D01*
X19200997Y-15577129D01*
X19131811Y-15567383D01*
X19078876Y-15521779D01*
X19063924Y-15489037D01*
X19034745Y-15388606D01*
X19034745Y-15388604D01*
X19033031Y-15385706D01*
X19032379Y-15383137D01*
X19031646Y-15381443D01*
X19031919Y-15381324D01*
X19015848Y-15317982D01*
X19038008Y-15251719D01*
X19052082Y-15234903D01*
X19532010Y-14754976D01*
X20036167Y-14250819D01*
X20097490Y-14217334D01*
X20123848Y-14214500D01*
X41773257Y-14214500D01*
X41788877Y-14216224D01*
X41788904Y-14215939D01*
X41796660Y-14216671D01*
X41796667Y-14216673D01*
X41863873Y-14214561D01*
X41867768Y-14214500D01*
X41895346Y-14214500D01*
X41895350Y-14214500D01*
X41899324Y-14213997D01*
X41910963Y-14213080D01*
X41954627Y-14211709D01*
X41973869Y-14206117D01*
X41992912Y-14202174D01*
X42012792Y-14199664D01*
X42053401Y-14183585D01*
X42064444Y-14179803D01*
X42106390Y-14167618D01*
X42123629Y-14157422D01*
X42141103Y-14148862D01*
X42159727Y-14141488D01*
X42159727Y-14141487D01*
X42159732Y-14141486D01*
X42195083Y-14115800D01*
X42204814Y-14109408D01*
X42242420Y-14087170D01*
X42256589Y-14072999D01*
X42271379Y-14060368D01*
X42287587Y-14048594D01*
X42315438Y-14014926D01*
X42323279Y-14006309D01*
X42870134Y-13459454D01*
X42931455Y-13425971D01*
X43001147Y-13430955D01*
X43049962Y-13464164D01*
X43082128Y-13499887D01*
X43082135Y-13499893D01*
X43235265Y-13611148D01*
X43235270Y-13611151D01*
X43408192Y-13688142D01*
X43408197Y-13688144D01*
X43593354Y-13727500D01*
X43593355Y-13727500D01*
X43782644Y-13727500D01*
X43782646Y-13727500D01*
X43967803Y-13688144D01*
X44140730Y-13611151D01*
X44293871Y-13499888D01*
X44296788Y-13496647D01*
X44299600Y-13493526D01*
X44359087Y-13456879D01*
X44391748Y-13452500D01*
X45075257Y-13452500D01*
X45090877Y-13454224D01*
X45090904Y-13453939D01*
X45098660Y-13454671D01*
X45098667Y-13454673D01*
X45165873Y-13452561D01*
X45169768Y-13452500D01*
X45197346Y-13452500D01*
X45197350Y-13452500D01*
X45201324Y-13451997D01*
X45212963Y-13451080D01*
X45256627Y-13449709D01*
X45275869Y-13444117D01*
X45294912Y-13440174D01*
X45314792Y-13437664D01*
X45355401Y-13421585D01*
X45366444Y-13417803D01*
X45408390Y-13405618D01*
X45425629Y-13395422D01*
X45443103Y-13386862D01*
X45461727Y-13379488D01*
X45461727Y-13379487D01*
X45461732Y-13379486D01*
X45497083Y-13353800D01*
X45506814Y-13347408D01*
X45544420Y-13325170D01*
X45558589Y-13310999D01*
X45573379Y-13298368D01*
X45589587Y-13286594D01*
X45617438Y-13252926D01*
X45625279Y-13244309D01*
X46768271Y-12101318D01*
X46829594Y-12067834D01*
X46855952Y-12065000D01*
X79759000Y-12065000D01*
X79826039Y-12084685D01*
G37*
%TD.AperFunction*%
%TA.AperFunction,Conductor*%
G36*
X19234189Y-16930616D02*
G01*
X19287124Y-16976220D01*
X19302076Y-17008962D01*
X19331254Y-17109393D01*
X19331257Y-17109401D01*
X19332431Y-17111386D01*
X19332876Y-17113142D01*
X19334353Y-17116554D01*
X19333802Y-17116792D01*
X19349609Y-17179111D01*
X19327445Y-17245372D01*
X19272976Y-17289132D01*
X19225695Y-17298500D01*
X19140303Y-17298500D01*
X19073264Y-17278815D01*
X19027509Y-17226011D01*
X19017565Y-17156853D01*
X19031737Y-17116593D01*
X19031647Y-17116554D01*
X19032206Y-17115261D01*
X19033574Y-17111376D01*
X19034744Y-17109398D01*
X19050865Y-17053910D01*
X19063924Y-17008962D01*
X19101530Y-16950076D01*
X19165003Y-16920870D01*
X19234189Y-16930616D01*
G37*
%TD.AperFunction*%
%TA.AperFunction,Conductor*%
G36*
X23394189Y-16930616D02*
G01*
X23447124Y-16976220D01*
X23462076Y-17008962D01*
X23491254Y-17109393D01*
X23491257Y-17109401D01*
X23492431Y-17111386D01*
X23492876Y-17113142D01*
X23494353Y-17116554D01*
X23493802Y-17116792D01*
X23509609Y-17179111D01*
X23487445Y-17245372D01*
X23432976Y-17289132D01*
X23385695Y-17298500D01*
X23300303Y-17298500D01*
X23233264Y-17278815D01*
X23187509Y-17226011D01*
X23177565Y-17156853D01*
X23191737Y-17116593D01*
X23191647Y-17116554D01*
X23192206Y-17115261D01*
X23193574Y-17111376D01*
X23194744Y-17109398D01*
X23210865Y-17053910D01*
X23223924Y-17008962D01*
X23261530Y-16950076D01*
X23325003Y-16920870D01*
X23394189Y-16930616D01*
G37*
%TD.AperFunction*%
%TA.AperFunction,Conductor*%
G36*
X27554189Y-16930616D02*
G01*
X27607124Y-16976220D01*
X27622076Y-17008962D01*
X27651254Y-17109393D01*
X27651257Y-17109401D01*
X27652431Y-17111386D01*
X27652876Y-17113142D01*
X27654353Y-17116554D01*
X27653802Y-17116792D01*
X27669609Y-17179111D01*
X27647445Y-17245372D01*
X27592976Y-17289132D01*
X27545695Y-17298500D01*
X27460303Y-17298500D01*
X27393264Y-17278815D01*
X27347509Y-17226011D01*
X27337565Y-17156853D01*
X27351737Y-17116593D01*
X27351647Y-17116554D01*
X27352206Y-17115261D01*
X27353574Y-17111376D01*
X27354744Y-17109398D01*
X27370865Y-17053910D01*
X27383924Y-17008962D01*
X27421530Y-16950076D01*
X27485003Y-16920870D01*
X27554189Y-16930616D01*
G37*
%TD.AperFunction*%
%TA.AperFunction,Conductor*%
G36*
X31714189Y-16930616D02*
G01*
X31767124Y-16976220D01*
X31782076Y-17008962D01*
X31811254Y-17109393D01*
X31811257Y-17109401D01*
X31812431Y-17111386D01*
X31812876Y-17113142D01*
X31814353Y-17116554D01*
X31813802Y-17116792D01*
X31829609Y-17179111D01*
X31807445Y-17245372D01*
X31752976Y-17289132D01*
X31705695Y-17298500D01*
X31620303Y-17298500D01*
X31553264Y-17278815D01*
X31507509Y-17226011D01*
X31497565Y-17156853D01*
X31511737Y-17116593D01*
X31511647Y-17116554D01*
X31512206Y-17115261D01*
X31513574Y-17111376D01*
X31514744Y-17109398D01*
X31530865Y-17053910D01*
X31543924Y-17008962D01*
X31581530Y-16950076D01*
X31645003Y-16920870D01*
X31714189Y-16930616D01*
G37*
%TD.AperFunction*%
%TA.AperFunction,Conductor*%
G36*
X35874189Y-16930616D02*
G01*
X35927124Y-16976220D01*
X35942076Y-17008962D01*
X35971254Y-17109393D01*
X35971257Y-17109401D01*
X35972431Y-17111386D01*
X35972876Y-17113142D01*
X35974353Y-17116554D01*
X35973802Y-17116792D01*
X35989609Y-17179111D01*
X35967445Y-17245372D01*
X35912976Y-17289132D01*
X35865695Y-17298500D01*
X35780303Y-17298500D01*
X35713264Y-17278815D01*
X35667509Y-17226011D01*
X35657565Y-17156853D01*
X35671737Y-17116593D01*
X35671647Y-17116554D01*
X35672206Y-17115261D01*
X35673574Y-17111376D01*
X35674744Y-17109398D01*
X35690865Y-17053910D01*
X35703924Y-17008962D01*
X35741530Y-16950076D01*
X35805003Y-16920870D01*
X35874189Y-16930616D01*
G37*
%TD.AperFunction*%
%TA.AperFunction,Conductor*%
G36*
X40034189Y-16930616D02*
G01*
X40087124Y-16976220D01*
X40102076Y-17008962D01*
X40131254Y-17109393D01*
X40131257Y-17109401D01*
X40132431Y-17111386D01*
X40132876Y-17113142D01*
X40134353Y-17116554D01*
X40133802Y-17116792D01*
X40149609Y-17179111D01*
X40127445Y-17245372D01*
X40072976Y-17289132D01*
X40025695Y-17298500D01*
X39940303Y-17298500D01*
X39873264Y-17278815D01*
X39827509Y-17226011D01*
X39817565Y-17156853D01*
X39831737Y-17116593D01*
X39831647Y-17116554D01*
X39832206Y-17115261D01*
X39833574Y-17111376D01*
X39834744Y-17109398D01*
X39850865Y-17053910D01*
X39863924Y-17008962D01*
X39901530Y-16950076D01*
X39965003Y-16920870D01*
X40034189Y-16930616D01*
G37*
%TD.AperFunction*%
%TA.AperFunction,Conductor*%
G36*
X44194189Y-16930616D02*
G01*
X44247124Y-16976220D01*
X44262076Y-17008962D01*
X44291254Y-17109393D01*
X44291257Y-17109401D01*
X44292431Y-17111386D01*
X44292876Y-17113142D01*
X44294353Y-17116554D01*
X44293802Y-17116792D01*
X44309609Y-17179111D01*
X44287445Y-17245372D01*
X44232976Y-17289132D01*
X44185695Y-17298500D01*
X44100303Y-17298500D01*
X44033264Y-17278815D01*
X43987509Y-17226011D01*
X43977565Y-17156853D01*
X43991737Y-17116593D01*
X43991647Y-17116554D01*
X43992206Y-17115261D01*
X43993574Y-17111376D01*
X43994744Y-17109398D01*
X44010865Y-17053910D01*
X44023924Y-17008962D01*
X44061530Y-16950076D01*
X44125003Y-16920870D01*
X44194189Y-16930616D01*
G37*
%TD.AperFunction*%
%TA.AperFunction,Conductor*%
G36*
X48354189Y-16930616D02*
G01*
X48407124Y-16976220D01*
X48422076Y-17008962D01*
X48451254Y-17109393D01*
X48451257Y-17109401D01*
X48452431Y-17111386D01*
X48452876Y-17113142D01*
X48454353Y-17116554D01*
X48453802Y-17116792D01*
X48469609Y-17179111D01*
X48447445Y-17245372D01*
X48392976Y-17289132D01*
X48345695Y-17298500D01*
X48260303Y-17298500D01*
X48193264Y-17278815D01*
X48147509Y-17226011D01*
X48137565Y-17156853D01*
X48151737Y-17116593D01*
X48151647Y-17116554D01*
X48152206Y-17115261D01*
X48153574Y-17111376D01*
X48154744Y-17109398D01*
X48170865Y-17053910D01*
X48183924Y-17008962D01*
X48221530Y-16950076D01*
X48285003Y-16920870D01*
X48354189Y-16930616D01*
G37*
%TD.AperFunction*%
%TA.AperFunction,Conductor*%
G36*
X52514189Y-16930616D02*
G01*
X52567124Y-16976220D01*
X52582076Y-17008962D01*
X52611254Y-17109393D01*
X52611257Y-17109401D01*
X52612431Y-17111386D01*
X52612876Y-17113142D01*
X52614353Y-17116554D01*
X52613802Y-17116792D01*
X52629609Y-17179111D01*
X52607445Y-17245372D01*
X52552976Y-17289132D01*
X52505695Y-17298500D01*
X52420303Y-17298500D01*
X52353264Y-17278815D01*
X52307509Y-17226011D01*
X52297565Y-17156853D01*
X52311737Y-17116593D01*
X52311647Y-17116554D01*
X52312206Y-17115261D01*
X52313574Y-17111376D01*
X52314744Y-17109398D01*
X52330865Y-17053910D01*
X52343924Y-17008962D01*
X52381530Y-16950076D01*
X52445003Y-16920870D01*
X52514189Y-16930616D01*
G37*
%TD.AperFunction*%
%TA.AperFunction,Conductor*%
G36*
X56674189Y-16930616D02*
G01*
X56727124Y-16976220D01*
X56742076Y-17008962D01*
X56771254Y-17109393D01*
X56771257Y-17109401D01*
X56772431Y-17111386D01*
X56772876Y-17113142D01*
X56774353Y-17116554D01*
X56773802Y-17116792D01*
X56789609Y-17179111D01*
X56767445Y-17245372D01*
X56712976Y-17289132D01*
X56665695Y-17298500D01*
X56580303Y-17298500D01*
X56513264Y-17278815D01*
X56467509Y-17226011D01*
X56457565Y-17156853D01*
X56471737Y-17116593D01*
X56471647Y-17116554D01*
X56472206Y-17115261D01*
X56473574Y-17111376D01*
X56474744Y-17109398D01*
X56490865Y-17053910D01*
X56503924Y-17008962D01*
X56541530Y-16950076D01*
X56605003Y-16920870D01*
X56674189Y-16930616D01*
G37*
%TD.AperFunction*%
%TA.AperFunction,Conductor*%
G36*
X60834189Y-16930616D02*
G01*
X60887124Y-16976220D01*
X60902076Y-17008962D01*
X60931254Y-17109393D01*
X60931257Y-17109401D01*
X60932431Y-17111386D01*
X60932876Y-17113142D01*
X60934353Y-17116554D01*
X60933802Y-17116792D01*
X60949609Y-17179111D01*
X60927445Y-17245372D01*
X60872976Y-17289132D01*
X60825695Y-17298500D01*
X60740303Y-17298500D01*
X60673264Y-17278815D01*
X60627509Y-17226011D01*
X60617565Y-17156853D01*
X60631737Y-17116593D01*
X60631647Y-17116554D01*
X60632206Y-17115261D01*
X60633574Y-17111376D01*
X60634744Y-17109398D01*
X60650865Y-17053910D01*
X60663924Y-17008962D01*
X60701530Y-16950076D01*
X60765003Y-16920870D01*
X60834189Y-16930616D01*
G37*
%TD.AperFunction*%
%TA.AperFunction,Conductor*%
G36*
X64994189Y-16930616D02*
G01*
X65047124Y-16976220D01*
X65062076Y-17008962D01*
X65091254Y-17109393D01*
X65091257Y-17109401D01*
X65092431Y-17111386D01*
X65092876Y-17113142D01*
X65094353Y-17116554D01*
X65093802Y-17116792D01*
X65109609Y-17179111D01*
X65087445Y-17245372D01*
X65032976Y-17289132D01*
X64985695Y-17298500D01*
X64900303Y-17298500D01*
X64833264Y-17278815D01*
X64787509Y-17226011D01*
X64777565Y-17156853D01*
X64791737Y-17116593D01*
X64791647Y-17116554D01*
X64792206Y-17115261D01*
X64793574Y-17111376D01*
X64794744Y-17109398D01*
X64810865Y-17053910D01*
X64823924Y-17008962D01*
X64861530Y-16950076D01*
X64925003Y-16920870D01*
X64994189Y-16930616D01*
G37*
%TD.AperFunction*%
%TA.AperFunction,Conductor*%
G36*
X69154189Y-16930616D02*
G01*
X69207124Y-16976220D01*
X69222076Y-17008962D01*
X69251254Y-17109393D01*
X69251257Y-17109401D01*
X69252431Y-17111386D01*
X69252876Y-17113142D01*
X69254353Y-17116554D01*
X69253802Y-17116792D01*
X69269609Y-17179111D01*
X69247445Y-17245372D01*
X69192976Y-17289132D01*
X69145695Y-17298500D01*
X69060303Y-17298500D01*
X68993264Y-17278815D01*
X68947509Y-17226011D01*
X68937565Y-17156853D01*
X68951737Y-17116593D01*
X68951647Y-17116554D01*
X68952206Y-17115261D01*
X68953574Y-17111376D01*
X68954744Y-17109398D01*
X68970865Y-17053910D01*
X68983924Y-17008962D01*
X69021530Y-16950076D01*
X69085003Y-16920870D01*
X69154189Y-16930616D01*
G37*
%TD.AperFunction*%
%TA.AperFunction,Conductor*%
G36*
X73314189Y-16930616D02*
G01*
X73367124Y-16976220D01*
X73382076Y-17008962D01*
X73411254Y-17109393D01*
X73411257Y-17109401D01*
X73412431Y-17111386D01*
X73412876Y-17113142D01*
X73414353Y-17116554D01*
X73413802Y-17116792D01*
X73429609Y-17179111D01*
X73407445Y-17245372D01*
X73352976Y-17289132D01*
X73305695Y-17298500D01*
X73220303Y-17298500D01*
X73153264Y-17278815D01*
X73107509Y-17226011D01*
X73097565Y-17156853D01*
X73111737Y-17116593D01*
X73111647Y-17116554D01*
X73112206Y-17115261D01*
X73113574Y-17111376D01*
X73114744Y-17109398D01*
X73130865Y-17053910D01*
X73143924Y-17008962D01*
X73181530Y-16950076D01*
X73245003Y-16920870D01*
X73314189Y-16930616D01*
G37*
%TD.AperFunction*%
%TD*%
M02*
