%TF.GenerationSoftware,KiCad,Pcbnew,7.0.10*%
%TF.CreationDate,2024-04-14T19:33:57+02:00*%
%TF.ProjectId,LED_Ring,4c45445f-5269-46e6-972e-6b696361645f,rev?*%
%TF.SameCoordinates,Original*%
%TF.FileFunction,Copper,L2,Bot*%
%TF.FilePolarity,Positive*%
%FSLAX46Y46*%
G04 Gerber Fmt 4.6, Leading zero omitted, Abs format (unit mm)*
G04 Created by KiCad (PCBNEW 7.0.10) date 2024-04-14 19:33:57*
%MOMM*%
%LPD*%
G01*
G04 APERTURE LIST*
%TA.AperFunction,ComponentPad*%
%ADD10C,1.524000*%
%TD*%
%TA.AperFunction,ViaPad*%
%ADD11C,0.800000*%
%TD*%
%TA.AperFunction,ViaPad*%
%ADD12C,0.550000*%
%TD*%
%TA.AperFunction,ViaPad*%
%ADD13C,0.500000*%
%TD*%
%TA.AperFunction,Conductor*%
%ADD14C,0.250000*%
%TD*%
%TA.AperFunction,Conductor*%
%ADD15C,0.500000*%
%TD*%
G04 APERTURE END LIST*
D10*
%TO.P,U1,1,I2C_Data*%
%TO.N,/I2C_Data*%
X44650000Y-10795000D03*
%TO.P,U1,2,I2C_CLK*%
%TO.N,/I2C_CLK*%
X47190000Y-10795000D03*
%TO.P,U1,3,5V*%
%TO.N,+5V*%
X17980000Y-62865000D03*
%TO.P,U1,4,GND*%
%TO.N,GND*%
X73860000Y-62865000D03*
%TD*%
D11*
%TO.N,/I2C_CLK*%
X43688000Y-12827000D03*
X41605847Y-12813847D03*
%TO.N,GND*%
X77851000Y-60325000D03*
X77470000Y-57277000D03*
X70231000Y-61595000D03*
X20853400Y-14630400D03*
X25349200Y-14782800D03*
X25349200Y-20675600D03*
X75565000Y-57658000D03*
X14579600Y-56642000D03*
X76200000Y-60325000D03*
X78079600Y-21488400D03*
X14401800Y-30886400D03*
X70993000Y-60325000D03*
X12700000Y-58674000D03*
X78409800Y-45999400D03*
X72771000Y-60325000D03*
X73660000Y-57658000D03*
X71755000Y-57658000D03*
X31750000Y-61214000D03*
X21310600Y-20751800D03*
X74930000Y-20904200D03*
X13639800Y-29235400D03*
X64897000Y-58293000D03*
X77520800Y-44348400D03*
X28321000Y-61214000D03*
X13831022Y-54615561D03*
X16230600Y-20751800D03*
X16764000Y-58039000D03*
X75742800Y-16129000D03*
X14478000Y-22225000D03*
X77546200Y-29057600D03*
X77724000Y-55626000D03*
X17246600Y-13208000D03*
X76403200Y-21005800D03*
X28321000Y-58267600D03*
X61849000Y-58293000D03*
X79121000Y-18415000D03*
X23495000Y-58293000D03*
X74422000Y-60325000D03*
X14732000Y-60706000D03*
X14300200Y-46507400D03*
X61849000Y-61341000D03*
X31750000Y-58166000D03*
X23495000Y-61214000D03*
X77749400Y-30734000D03*
X69977000Y-57658000D03*
X14224000Y-18313400D03*
X78105000Y-17399000D03*
X14351000Y-44932600D03*
X79121000Y-61341000D03*
X12725400Y-20447000D03*
X64770000Y-61341000D03*
D12*
%TO.N,+5V*%
X78502800Y-53009800D03*
X48336200Y-19761200D03*
X64973200Y-19761200D03*
X60807600Y-19761200D03*
X13496000Y-48603532D03*
X78528200Y-27940000D03*
X50800000Y-57302400D03*
X69113400Y-19761200D03*
X27508200Y-19761200D03*
X73279000Y-19761200D03*
X31699200Y-19761200D03*
X23342600Y-19786600D03*
X67411600Y-57327800D03*
X39979600Y-19761200D03*
X25857200Y-57327800D03*
X35839400Y-19761200D03*
X56642000Y-19786600D03*
X42494200Y-57302400D03*
X13311775Y-23217992D03*
X34188400Y-57327800D03*
X52476400Y-19761200D03*
X59105800Y-57327800D03*
X44170600Y-19786600D03*
X19202400Y-19862800D03*
%TO.N,Net-(D14-CO)*%
X78892035Y-19898165D03*
X78978200Y-28539234D03*
D13*
%TO.N,Net-(D15-DO)*%
X79003200Y-29263667D03*
D12*
X79527400Y-22910800D03*
%TO.N,Net-(D15-CO)*%
X79527400Y-47218600D03*
X78775736Y-53708377D03*
D11*
%TO.N,Net-(D16-DO)*%
X79007542Y-58420000D03*
D12*
X79527400Y-47968603D03*
%TO.N,Net-(D22-CO)*%
X13046000Y-47853600D03*
X12996073Y-56233939D03*
%TO.N,Net-(D23-DO)*%
X12420600Y-53162200D03*
X13173000Y-42011600D03*
%TO.N,Net-(D23-CO)*%
X12522237Y-23159001D03*
X12471400Y-27990800D03*
%TD*%
D14*
%TO.N,/I2C_CLK*%
X41605847Y-12813847D02*
X43674847Y-12813847D01*
X43674847Y-12813847D02*
X43688000Y-12827000D01*
D15*
%TO.N,+5V*%
X48361600Y-19786600D02*
X48336200Y-19761200D01*
D14*
X78528200Y-27593000D02*
X78528200Y-27940000D01*
D15*
X12970200Y-54274301D02*
X12970200Y-55182761D01*
D14*
X78652800Y-48578928D02*
X78652800Y-52859800D01*
D15*
X56642000Y-19786600D02*
X56667400Y-19761200D01*
X13623000Y-48730532D02*
X13623000Y-53621501D01*
X12649200Y-40335200D02*
X12649200Y-28838305D01*
D14*
X79578200Y-43713400D02*
X79578200Y-46319271D01*
D15*
X13311775Y-23217992D02*
X13311775Y-21511625D01*
D14*
X79552800Y-30861000D02*
X79552800Y-43688000D01*
D15*
X13721073Y-57002673D02*
X16408400Y-59690000D01*
D14*
X78378200Y-28090000D02*
X78378200Y-29686400D01*
D15*
X56616600Y-19761200D02*
X56642000Y-19786600D01*
X59080400Y-57302400D02*
X50800000Y-57302400D01*
D14*
X73279000Y-19761200D02*
X77825600Y-19761200D01*
D15*
X34188400Y-57327800D02*
X42468800Y-57327800D01*
X13284200Y-47066495D02*
X13284200Y-42925705D01*
X13496000Y-48603532D02*
X13771000Y-48328532D01*
X23495000Y-59690000D02*
X25869000Y-57316000D01*
D14*
X78378200Y-29686400D02*
X79552800Y-30861000D01*
D15*
X69113400Y-19761200D02*
X69138800Y-19735800D01*
X13898000Y-41584000D02*
X12649200Y-40335200D01*
X13284200Y-42925705D02*
X13898000Y-42311905D01*
X13311775Y-28175730D02*
X13311775Y-23217992D01*
X44170600Y-19786600D02*
X48361600Y-19786600D01*
X13771000Y-47553295D02*
X13284200Y-47066495D01*
X52476400Y-19761200D02*
X56616600Y-19761200D01*
X21155000Y-59690000D02*
X17980000Y-62865000D01*
D14*
X78678200Y-27443000D02*
X78528200Y-27593000D01*
D15*
X44145200Y-19761200D02*
X44170600Y-19786600D01*
X25857200Y-57327800D02*
X23495000Y-59690000D01*
D14*
X78477400Y-48403528D02*
X78652800Y-48578928D01*
X78652800Y-52859800D02*
X78502800Y-53009800D01*
D15*
X67411600Y-57327800D02*
X59105800Y-57327800D01*
D14*
X77825600Y-19761200D02*
X79026600Y-20962200D01*
D15*
X39979600Y-19761200D02*
X44145200Y-19761200D01*
X56667400Y-19761200D02*
X60807600Y-19761200D01*
X19202400Y-19862800D02*
X23266400Y-19862800D01*
X23342600Y-19786600D02*
X23368000Y-19761200D01*
X73253600Y-19735800D02*
X73279000Y-19761200D01*
D14*
X78678200Y-23546525D02*
X78678200Y-27443000D01*
D15*
X13771000Y-48328532D02*
X13771000Y-47553295D01*
D14*
X79578200Y-46319271D02*
X78477400Y-47420071D01*
D15*
X13898000Y-42311905D02*
X13898000Y-41584000D01*
D14*
X78477400Y-47420071D02*
X78477400Y-48403528D01*
X79026600Y-20962200D02*
X79026600Y-21926675D01*
D15*
X42494200Y-57302400D02*
X50800000Y-57302400D01*
D14*
X78528200Y-27940000D02*
X78378200Y-28090000D01*
D15*
X60807600Y-19761200D02*
X65024000Y-19761200D01*
D14*
X78477400Y-23345725D02*
X78678200Y-23546525D01*
D15*
X13496000Y-48603532D02*
X13623000Y-48730532D01*
X59105800Y-57327800D02*
X59080400Y-57302400D01*
X19177000Y-19888200D02*
X19202400Y-19862800D01*
D14*
X78477400Y-22475875D02*
X78477400Y-23345725D01*
D15*
X12970200Y-55182761D02*
X13721073Y-55933634D01*
X23266400Y-19862800D02*
X23342600Y-19786600D01*
X14935200Y-19888200D02*
X19177000Y-19888200D01*
X64973200Y-19761200D02*
X69113400Y-19761200D01*
X25869000Y-57316000D02*
X34176600Y-57316000D01*
X23495000Y-59690000D02*
X21155000Y-59690000D01*
X13721073Y-55933634D02*
X13721073Y-57002673D01*
X42468800Y-57327800D02*
X42494200Y-57302400D01*
X34176600Y-57316000D02*
X34188400Y-57327800D01*
X27508200Y-19761200D02*
X31699200Y-19761200D01*
X23368000Y-19761200D02*
X27508200Y-19761200D01*
X16408400Y-59690000D02*
X21155000Y-59690000D01*
X12649200Y-28838305D02*
X13311775Y-28175730D01*
X48336200Y-19761200D02*
X52476400Y-19761200D01*
D14*
X79026600Y-21926675D02*
X78477400Y-22475875D01*
D15*
X69138800Y-19735800D02*
X73253600Y-19735800D01*
X13311775Y-21511625D02*
X14935200Y-19888200D01*
X35839400Y-19761200D02*
X31699200Y-19761200D01*
X13623000Y-53621501D02*
X12970200Y-54274301D01*
D14*
X79552800Y-43688000D02*
X79578200Y-43713400D01*
D15*
X35839400Y-19761200D02*
X39979600Y-19761200D01*
D14*
%TO.N,Net-(D14-CO)*%
X78927400Y-23159329D02*
X78927400Y-22662271D01*
X79128200Y-28389234D02*
X79128200Y-23360129D01*
X79476600Y-20482730D02*
X78892035Y-19898165D01*
X78927400Y-22662271D02*
X79476600Y-22113071D01*
X78978200Y-28539234D02*
X79128200Y-28389234D01*
X79128200Y-23360129D02*
X78927400Y-23159329D01*
X79476600Y-22113071D02*
X79476600Y-20482730D01*
%TO.N,Net-(D15-DO)*%
X79578200Y-28787763D02*
X79578200Y-22961600D01*
X79578200Y-22961600D02*
X79527400Y-22910800D01*
X79102296Y-29263667D02*
X79578200Y-28787763D01*
X79003200Y-29263667D02*
X79102296Y-29263667D01*
%TO.N,Net-(D15-CO)*%
X78927400Y-48217132D02*
X78927400Y-47720074D01*
X79102800Y-48392532D02*
X78927400Y-48217132D01*
X79428874Y-47218600D02*
X79527400Y-47218600D01*
X78927400Y-47720074D02*
X79428874Y-47218600D01*
X79102800Y-53381313D02*
X79102800Y-48392532D01*
X78775736Y-53708377D02*
X79102800Y-53381313D01*
%TO.N,Net-(D16-DO)*%
X79552800Y-47994003D02*
X79552800Y-57874742D01*
X79527400Y-47968603D02*
X79552800Y-47994003D01*
X79552800Y-57874742D02*
X79007542Y-58420000D01*
%TO.N,Net-(D22-CO)*%
X13046000Y-47853600D02*
X12896000Y-48003600D01*
X12395200Y-54036129D02*
X12395200Y-55633066D01*
X12896000Y-52789071D02*
X13020600Y-52913671D01*
X13020600Y-52913671D02*
X13020600Y-53410729D01*
X13020600Y-53410729D02*
X12395200Y-54036129D01*
X12896000Y-48003600D02*
X12896000Y-52789071D01*
X12395200Y-55633066D02*
X12996073Y-56233939D01*
%TO.N,Net-(D23-DO)*%
X12446000Y-53136800D02*
X12420600Y-53162200D01*
X12446000Y-42738600D02*
X12446000Y-53136800D01*
X13173000Y-42011600D02*
X12446000Y-42738600D01*
%TO.N,Net-(D23-CO)*%
X12471400Y-27990800D02*
X12700000Y-27762200D01*
X12700000Y-23336764D02*
X12522237Y-23159001D01*
X12700000Y-27762200D02*
X12700000Y-23336764D01*
%TD*%
%TA.AperFunction,Conductor*%
%TO.N,GND*%
G36*
X12270203Y-56546463D02*
G01*
X12293994Y-56574205D01*
X12385923Y-56720512D01*
X12385926Y-56720515D01*
X12509497Y-56844086D01*
X12657467Y-56937061D01*
X12822416Y-56994780D01*
X12867650Y-56999876D01*
X12932062Y-57026941D01*
X12971619Y-57084534D01*
X12977295Y-57112287D01*
X12981073Y-57155465D01*
X12982534Y-57162540D01*
X12982476Y-57162551D01*
X12984107Y-57169910D01*
X12984165Y-57169897D01*
X12985830Y-57176922D01*
X13011473Y-57247378D01*
X13012655Y-57250780D01*
X13036255Y-57321999D01*
X13039309Y-57328547D01*
X13039255Y-57328571D01*
X13042543Y-57335361D01*
X13042594Y-57335336D01*
X13045834Y-57341787D01*
X13087052Y-57404457D01*
X13088962Y-57407455D01*
X13094249Y-57416025D01*
X13128362Y-57471331D01*
X13132839Y-57476992D01*
X13132792Y-57477029D01*
X13137555Y-57482875D01*
X13137601Y-57482837D01*
X13142246Y-57488372D01*
X13196781Y-57539823D01*
X13199369Y-57542337D01*
X15832667Y-60175634D01*
X15844448Y-60189266D01*
X15858790Y-60208530D01*
X15896743Y-60240376D01*
X15904719Y-60247686D01*
X15908619Y-60251587D01*
X15932944Y-60270821D01*
X15935740Y-60273099D01*
X15963462Y-60296360D01*
X15993186Y-60321302D01*
X15993194Y-60321306D01*
X15999224Y-60325273D01*
X15999190Y-60325323D01*
X16005537Y-60329366D01*
X16005569Y-60329316D01*
X16011721Y-60333110D01*
X16079694Y-60364806D01*
X16082910Y-60366362D01*
X16149967Y-60400040D01*
X16149976Y-60400042D01*
X16156755Y-60402510D01*
X16156734Y-60402567D01*
X16163851Y-60405040D01*
X16163870Y-60404984D01*
X16170724Y-60407255D01*
X16170725Y-60407255D01*
X16170727Y-60407256D01*
X16244248Y-60422436D01*
X16247609Y-60423181D01*
X16320679Y-60440500D01*
X16320685Y-60440500D01*
X16327852Y-60441338D01*
X16327845Y-60441397D01*
X16335346Y-60442163D01*
X16335352Y-60442104D01*
X16342541Y-60442733D01*
X16342543Y-60442732D01*
X16342544Y-60442733D01*
X16417511Y-60440552D01*
X16421117Y-60440500D01*
X19043770Y-60440500D01*
X19110809Y-60460185D01*
X19156564Y-60512989D01*
X19166508Y-60582147D01*
X19137483Y-60645703D01*
X19131451Y-60652181D01*
X18210272Y-61573358D01*
X18148949Y-61606843D01*
X18111785Y-61609205D01*
X17980003Y-61597677D01*
X17979998Y-61597677D01*
X17759937Y-61616929D01*
X17759929Y-61616930D01*
X17546554Y-61674104D01*
X17546548Y-61674107D01*
X17346340Y-61767465D01*
X17346338Y-61767466D01*
X17165377Y-61894175D01*
X17009175Y-62050377D01*
X16882466Y-62231338D01*
X16882465Y-62231340D01*
X16789107Y-62431548D01*
X16789104Y-62431554D01*
X16731930Y-62644929D01*
X16731929Y-62644937D01*
X16712677Y-62864997D01*
X16712677Y-62865002D01*
X16731929Y-63085062D01*
X16731930Y-63085070D01*
X16789104Y-63298445D01*
X16789105Y-63298447D01*
X16789106Y-63298450D01*
X16882466Y-63498662D01*
X16882468Y-63498666D01*
X17009170Y-63679615D01*
X17009175Y-63679621D01*
X17165378Y-63835824D01*
X17165384Y-63835829D01*
X17346333Y-63962531D01*
X17346335Y-63962532D01*
X17346338Y-63962534D01*
X17481623Y-64025618D01*
X17534062Y-64071790D01*
X17553214Y-64138984D01*
X17532998Y-64205865D01*
X17479833Y-64251199D01*
X17429218Y-64262000D01*
X16791124Y-64262000D01*
X16739354Y-64250676D01*
X12137230Y-62136186D01*
X12084531Y-62090310D01*
X12065000Y-62023510D01*
X12065000Y-56640176D01*
X12084685Y-56573137D01*
X12137489Y-56527382D01*
X12206647Y-56517438D01*
X12270203Y-56546463D01*
G37*
%TD.AperFunction*%
%TA.AperFunction,Conductor*%
G36*
X77582187Y-20406385D02*
G01*
X77602829Y-20423019D01*
X78364781Y-21184971D01*
X78398266Y-21246294D01*
X78401100Y-21272652D01*
X78401100Y-21616221D01*
X78381415Y-21683260D01*
X78364781Y-21703902D01*
X78093608Y-21975074D01*
X78081351Y-21984895D01*
X78081534Y-21985116D01*
X78075522Y-21990089D01*
X78029498Y-22039098D01*
X78026791Y-22041891D01*
X78007289Y-22061392D01*
X78007275Y-22061409D01*
X78004807Y-22064590D01*
X77997243Y-22073445D01*
X77967337Y-22105293D01*
X77967336Y-22105295D01*
X77957684Y-22122851D01*
X77947010Y-22139101D01*
X77934729Y-22154936D01*
X77934724Y-22154943D01*
X77917375Y-22195033D01*
X77912238Y-22205519D01*
X77891203Y-22243781D01*
X77886222Y-22263182D01*
X77879921Y-22281585D01*
X77871962Y-22299977D01*
X77871961Y-22299980D01*
X77865128Y-22343118D01*
X77862760Y-22354549D01*
X77851901Y-22396846D01*
X77851900Y-22396857D01*
X77851900Y-22416891D01*
X77850373Y-22436290D01*
X77847240Y-22456069D01*
X77847240Y-22456070D01*
X77851350Y-22499549D01*
X77851900Y-22511218D01*
X77851900Y-23262980D01*
X77850175Y-23278597D01*
X77850461Y-23278624D01*
X77849726Y-23286390D01*
X77851839Y-23353597D01*
X77851900Y-23357492D01*
X77851900Y-23385082D01*
X77852403Y-23389060D01*
X77853318Y-23400692D01*
X77854690Y-23444349D01*
X77854691Y-23444352D01*
X77860280Y-23463592D01*
X77864224Y-23482636D01*
X77866116Y-23497607D01*
X77866736Y-23502517D01*
X77882814Y-23543128D01*
X77886597Y-23554177D01*
X77898781Y-23596113D01*
X77908980Y-23613359D01*
X77917538Y-23630828D01*
X77924914Y-23649457D01*
X77950581Y-23684785D01*
X77956993Y-23694546D01*
X77979228Y-23732142D01*
X77979233Y-23732149D01*
X77993390Y-23746305D01*
X78006027Y-23761100D01*
X78017806Y-23777312D01*
X78017810Y-23777315D01*
X78019092Y-23778681D01*
X78019759Y-23779999D01*
X78022391Y-23783622D01*
X78021806Y-23784046D01*
X78050634Y-23841026D01*
X78052700Y-23863565D01*
X78052700Y-27136518D01*
X78033015Y-27203557D01*
X78019095Y-27221398D01*
X78018141Y-27222413D01*
X78018136Y-27222420D01*
X78008484Y-27239976D01*
X77997810Y-27256226D01*
X77985529Y-27272061D01*
X77985524Y-27272068D01*
X77968175Y-27312158D01*
X77963038Y-27322644D01*
X77942003Y-27360906D01*
X77937022Y-27380307D01*
X77930720Y-27398712D01*
X77922763Y-27417098D01*
X77922761Y-27417106D01*
X77920628Y-27430573D01*
X77903150Y-27477140D01*
X77825078Y-27601392D01*
X77767359Y-27766341D01*
X77767357Y-27766351D01*
X77747793Y-27939996D01*
X77747793Y-27939999D01*
X77752674Y-27983334D01*
X77752542Y-28003183D01*
X77752700Y-28003183D01*
X77752700Y-28031016D01*
X77751173Y-28050415D01*
X77748040Y-28070194D01*
X77748040Y-28070195D01*
X77752150Y-28113674D01*
X77752700Y-28125343D01*
X77752700Y-29603655D01*
X77750975Y-29619272D01*
X77751261Y-29619299D01*
X77750526Y-29627065D01*
X77752639Y-29694272D01*
X77752700Y-29698167D01*
X77752700Y-29725757D01*
X77753203Y-29729735D01*
X77754118Y-29741367D01*
X77755490Y-29785024D01*
X77755491Y-29785027D01*
X77761080Y-29804267D01*
X77765024Y-29823311D01*
X77767536Y-29843192D01*
X77783614Y-29883803D01*
X77787397Y-29894852D01*
X77799581Y-29936788D01*
X77809780Y-29954034D01*
X77818338Y-29971503D01*
X77825714Y-29990132D01*
X77851381Y-30025460D01*
X77857793Y-30035221D01*
X77880028Y-30072817D01*
X77880033Y-30072824D01*
X77894190Y-30086980D01*
X77906828Y-30101776D01*
X77918605Y-30117986D01*
X77918606Y-30117987D01*
X77952257Y-30145825D01*
X77960898Y-30153688D01*
X78890981Y-31083771D01*
X78924466Y-31145094D01*
X78927300Y-31171452D01*
X78927300Y-43605255D01*
X78925575Y-43620872D01*
X78925861Y-43620899D01*
X78925126Y-43628665D01*
X78927239Y-43695872D01*
X78927300Y-43699767D01*
X78927300Y-43727357D01*
X78927803Y-43731335D01*
X78928718Y-43742967D01*
X78930090Y-43786626D01*
X78935679Y-43805862D01*
X78939624Y-43824914D01*
X78942134Y-43844787D01*
X78942136Y-43844792D01*
X78943992Y-43849481D01*
X78952700Y-43895127D01*
X78952700Y-46008817D01*
X78933015Y-46075856D01*
X78916381Y-46096498D01*
X78093608Y-46919270D01*
X78081351Y-46929091D01*
X78081534Y-46929312D01*
X78075522Y-46934285D01*
X78029498Y-46983294D01*
X78026791Y-46986087D01*
X78007289Y-47005588D01*
X78007275Y-47005605D01*
X78004807Y-47008786D01*
X77997243Y-47017641D01*
X77967337Y-47049489D01*
X77967336Y-47049491D01*
X77957684Y-47067047D01*
X77947010Y-47083297D01*
X77934729Y-47099132D01*
X77934724Y-47099139D01*
X77917375Y-47139229D01*
X77912238Y-47149715D01*
X77891203Y-47187977D01*
X77886222Y-47207378D01*
X77879921Y-47225781D01*
X77871962Y-47244173D01*
X77871961Y-47244176D01*
X77865128Y-47287314D01*
X77862760Y-47298745D01*
X77851901Y-47341042D01*
X77851900Y-47341053D01*
X77851900Y-47361087D01*
X77850373Y-47380486D01*
X77847240Y-47400265D01*
X77847240Y-47400266D01*
X77851350Y-47443745D01*
X77851900Y-47455414D01*
X77851900Y-48320783D01*
X77850175Y-48336400D01*
X77850461Y-48336427D01*
X77849726Y-48344193D01*
X77851839Y-48411400D01*
X77851900Y-48415295D01*
X77851900Y-48442885D01*
X77852403Y-48446863D01*
X77853318Y-48458495D01*
X77854690Y-48502152D01*
X77854691Y-48502155D01*
X77860280Y-48521395D01*
X77864224Y-48540439D01*
X77866736Y-48560320D01*
X77882814Y-48600931D01*
X77886597Y-48611980D01*
X77898781Y-48653916D01*
X77908980Y-48671162D01*
X77917538Y-48688631D01*
X77924914Y-48707260D01*
X77950581Y-48742588D01*
X77956993Y-48752349D01*
X77979228Y-48789945D01*
X77979230Y-48789948D01*
X77990980Y-48801698D01*
X78024465Y-48863018D01*
X78027300Y-48889380D01*
X78027300Y-52337214D01*
X78007615Y-52404253D01*
X77990982Y-52424895D01*
X77892652Y-52523225D01*
X77799677Y-52671195D01*
X77741959Y-52836141D01*
X77741957Y-52836151D01*
X77722393Y-53009796D01*
X77722393Y-53009803D01*
X77741957Y-53183448D01*
X77741959Y-53183458D01*
X77799677Y-53348404D01*
X77892653Y-53496376D01*
X77964174Y-53567897D01*
X77997659Y-53629220D01*
X77999713Y-53669460D01*
X77995329Y-53708372D01*
X77995329Y-53708380D01*
X78014893Y-53882025D01*
X78014895Y-53882035D01*
X78072613Y-54046981D01*
X78072614Y-54046983D01*
X78165589Y-54194953D01*
X78289160Y-54318524D01*
X78437130Y-54411499D01*
X78602079Y-54469218D01*
X78602084Y-54469218D01*
X78602086Y-54469219D01*
X78658714Y-54475599D01*
X78775736Y-54488784D01*
X78789415Y-54487242D01*
X78858233Y-54499294D01*
X78909615Y-54546641D01*
X78927300Y-54610462D01*
X78927300Y-57416025D01*
X78907615Y-57483064D01*
X78854811Y-57528819D01*
X78829081Y-57537315D01*
X78727739Y-57558855D01*
X78727734Y-57558857D01*
X78554812Y-57635848D01*
X78554807Y-57635851D01*
X78401671Y-57747111D01*
X78275008Y-57887785D01*
X78180363Y-58051715D01*
X78180360Y-58051722D01*
X78151226Y-58141389D01*
X78121868Y-58231744D01*
X78102082Y-58420000D01*
X78121868Y-58608256D01*
X78121869Y-58608259D01*
X78180360Y-58788277D01*
X78180363Y-58788284D01*
X78275009Y-58952216D01*
X78370886Y-59058698D01*
X78401671Y-59092888D01*
X78554807Y-59204148D01*
X78554812Y-59204151D01*
X78727734Y-59281142D01*
X78727739Y-59281144D01*
X78912896Y-59320500D01*
X78912897Y-59320500D01*
X79102186Y-59320500D01*
X79102188Y-59320500D01*
X79287345Y-59281144D01*
X79460272Y-59204151D01*
X79613413Y-59092888D01*
X79666850Y-59033539D01*
X79726337Y-58996891D01*
X79796194Y-58998222D01*
X79854242Y-59037108D01*
X79882052Y-59101205D01*
X79883000Y-59116512D01*
X79883000Y-61771429D01*
X79863315Y-61838468D01*
X79813246Y-61882934D01*
X75209684Y-64122505D01*
X75155438Y-64135000D01*
X72674237Y-64135000D01*
X72617158Y-64121082D01*
X72067027Y-63835829D01*
X69215000Y-62357000D01*
X69214999Y-62357000D01*
X24384000Y-62357000D01*
X19325053Y-64254105D01*
X19281514Y-64262000D01*
X18530782Y-64262000D01*
X18463743Y-64242315D01*
X18417988Y-64189511D01*
X18408044Y-64120353D01*
X18437069Y-64056797D01*
X18478377Y-64025618D01*
X18613662Y-63962534D01*
X18794620Y-63835826D01*
X18950826Y-63679620D01*
X19077534Y-63498662D01*
X19170894Y-63298450D01*
X19228070Y-63085068D01*
X19247323Y-62865000D01*
X19235793Y-62733213D01*
X19249559Y-62664715D01*
X19271637Y-62634729D01*
X21429549Y-60476819D01*
X21490872Y-60443334D01*
X21517230Y-60440500D01*
X23431295Y-60440500D01*
X23449265Y-60441809D01*
X23473023Y-60445289D01*
X23522369Y-60440971D01*
X23533176Y-60440500D01*
X23538704Y-60440500D01*
X23538709Y-60440500D01*
X23569556Y-60436893D01*
X23573030Y-60436539D01*
X23647797Y-60429999D01*
X23647805Y-60429996D01*
X23654866Y-60428539D01*
X23654878Y-60428598D01*
X23662243Y-60426965D01*
X23662229Y-60426906D01*
X23669249Y-60425241D01*
X23669255Y-60425241D01*
X23739779Y-60399572D01*
X23743117Y-60398412D01*
X23814334Y-60374814D01*
X23814342Y-60374808D01*
X23820882Y-60371760D01*
X23820908Y-60371816D01*
X23827690Y-60368532D01*
X23827663Y-60368478D01*
X23834113Y-60365238D01*
X23834117Y-60365237D01*
X23896837Y-60323984D01*
X23899732Y-60322140D01*
X23963656Y-60282712D01*
X23963662Y-60282705D01*
X23969325Y-60278229D01*
X23969362Y-60278277D01*
X23975204Y-60273518D01*
X23975164Y-60273471D01*
X23980686Y-60268835D01*
X23980696Y-60268830D01*
X24032186Y-60214252D01*
X24034630Y-60211736D01*
X25187670Y-59058698D01*
X26143549Y-58102819D01*
X26204872Y-58069334D01*
X26231230Y-58066500D01*
X33930401Y-58066500D01*
X33971356Y-58073459D01*
X34014743Y-58088641D01*
X34014749Y-58088641D01*
X34014751Y-58088642D01*
X34188396Y-58108207D01*
X34188400Y-58108207D01*
X34188404Y-58108207D01*
X34362053Y-58088642D01*
X34362055Y-58088641D01*
X34362057Y-58088641D01*
X34371722Y-58085259D01*
X34412677Y-58078300D01*
X42405093Y-58078300D01*
X42423065Y-58079609D01*
X42446823Y-58083089D01*
X42446825Y-58083088D01*
X42446826Y-58083089D01*
X42452595Y-58082583D01*
X42462535Y-58081714D01*
X42487233Y-58082021D01*
X42494200Y-58082807D01*
X42589104Y-58072114D01*
X42667853Y-58063242D01*
X42667855Y-58063241D01*
X42667857Y-58063241D01*
X42677522Y-58059859D01*
X42718477Y-58052900D01*
X50575723Y-58052900D01*
X50616678Y-58059859D01*
X50626346Y-58063242D01*
X50799996Y-58082807D01*
X50800000Y-58082807D01*
X50800004Y-58082807D01*
X50973653Y-58063242D01*
X50973655Y-58063241D01*
X50973657Y-58063241D01*
X50983322Y-58059859D01*
X51024277Y-58052900D01*
X58808935Y-58052900D01*
X58849890Y-58059859D01*
X58932143Y-58088641D01*
X58932149Y-58088641D01*
X58932151Y-58088642D01*
X59105796Y-58108207D01*
X59105800Y-58108207D01*
X59105804Y-58108207D01*
X59279453Y-58088642D01*
X59279455Y-58088641D01*
X59279457Y-58088641D01*
X59289122Y-58085259D01*
X59330077Y-58078300D01*
X67187323Y-58078300D01*
X67228278Y-58085259D01*
X67237946Y-58088642D01*
X67411596Y-58108207D01*
X67411600Y-58108207D01*
X67411604Y-58108207D01*
X67585248Y-58088642D01*
X67585247Y-58088642D01*
X67585257Y-58088641D01*
X67750206Y-58030922D01*
X67898176Y-57937947D01*
X68021747Y-57814376D01*
X68114722Y-57666406D01*
X68172441Y-57501457D01*
X68175193Y-57477029D01*
X68192007Y-57327803D01*
X68192007Y-57327796D01*
X68172442Y-57154151D01*
X68172440Y-57154140D01*
X68130560Y-57034455D01*
X68126998Y-56964676D01*
X68161726Y-56904049D01*
X68223720Y-56871821D01*
X68247601Y-56869500D01*
X76724655Y-56869500D01*
X76727423Y-56868600D01*
X76751753Y-56856203D01*
X76754109Y-56854490D01*
X76754112Y-56854490D01*
X76754113Y-56854487D01*
X76756471Y-56852775D01*
X76775775Y-56833471D01*
X76777487Y-56831113D01*
X76777490Y-56831112D01*
X76777490Y-56831109D01*
X76779203Y-56828753D01*
X76791600Y-56804423D01*
X76792500Y-56801655D01*
X76792500Y-21811347D01*
X76791601Y-21808581D01*
X76779200Y-21784242D01*
X76775783Y-21779539D01*
X76756463Y-21760219D01*
X76754112Y-21758511D01*
X76754112Y-21758510D01*
X76754110Y-21758509D01*
X76751761Y-21756802D01*
X76727416Y-21744397D01*
X76724656Y-21743500D01*
X76724654Y-21743500D01*
X76707917Y-21743500D01*
X15256654Y-21743500D01*
X15191346Y-21743500D01*
X15188591Y-21744395D01*
X15164236Y-21756803D01*
X15159543Y-21760213D01*
X15140213Y-21779543D01*
X15136803Y-21784236D01*
X15124395Y-21808591D01*
X15123500Y-21811346D01*
X15123500Y-56801655D01*
X15124397Y-56804416D01*
X15136802Y-56828761D01*
X15140219Y-56833463D01*
X15159539Y-56852783D01*
X15164242Y-56856200D01*
X15188581Y-56868601D01*
X15191345Y-56869499D01*
X15191346Y-56869500D01*
X15208083Y-56869500D01*
X24954769Y-56869500D01*
X25021808Y-56889185D01*
X25067563Y-56941989D01*
X25077507Y-57011147D01*
X25048482Y-57074703D01*
X25042450Y-57081181D01*
X23220451Y-58903181D01*
X23159128Y-58936666D01*
X23132770Y-58939500D01*
X21218705Y-58939500D01*
X21200735Y-58938191D01*
X21176972Y-58934710D01*
X21129843Y-58938834D01*
X21127630Y-58939028D01*
X21116824Y-58939500D01*
X16770630Y-58939500D01*
X16703591Y-58919815D01*
X16682949Y-58903181D01*
X14507892Y-56728124D01*
X14474407Y-56666801D01*
X14471573Y-56640443D01*
X14471573Y-55997339D01*
X14472882Y-55979369D01*
X14473202Y-55977181D01*
X14476362Y-55955611D01*
X14472045Y-55906264D01*
X14471573Y-55895456D01*
X14471573Y-55889930D01*
X14471573Y-55889925D01*
X14467974Y-55859143D01*
X14467609Y-55855563D01*
X14461072Y-55780835D01*
X14459612Y-55773763D01*
X14459670Y-55773750D01*
X14458038Y-55766391D01*
X14457979Y-55766406D01*
X14456314Y-55759385D01*
X14456314Y-55759379D01*
X14430642Y-55688846D01*
X14429494Y-55685543D01*
X14405887Y-55614300D01*
X14405883Y-55614293D01*
X14402833Y-55607752D01*
X14402888Y-55607725D01*
X14399606Y-55600947D01*
X14399553Y-55600974D01*
X14396308Y-55594514D01*
X14355098Y-55531857D01*
X14353159Y-55528815D01*
X14313783Y-55464976D01*
X14309307Y-55459316D01*
X14309354Y-55459278D01*
X14304592Y-55453433D01*
X14304547Y-55453472D01*
X14299904Y-55447939D01*
X14245346Y-55396466D01*
X14242759Y-55393953D01*
X13757019Y-54908212D01*
X13723534Y-54846889D01*
X13720700Y-54820531D01*
X13720700Y-54636529D01*
X13740385Y-54569490D01*
X13757015Y-54548852D01*
X14108641Y-54197225D01*
X14122260Y-54185455D01*
X14141530Y-54171111D01*
X14173372Y-54133162D01*
X14180671Y-54125195D01*
X14184591Y-54121277D01*
X14203853Y-54096914D01*
X14206076Y-54094187D01*
X14245686Y-54046983D01*
X14254302Y-54036715D01*
X14254304Y-54036710D01*
X14258274Y-54030676D01*
X14258325Y-54030709D01*
X14262369Y-54024361D01*
X14262317Y-54024329D01*
X14266106Y-54018183D01*
X14266111Y-54018178D01*
X14297832Y-53950148D01*
X14299358Y-53946997D01*
X14333040Y-53879934D01*
X14333041Y-53879929D01*
X14335508Y-53873151D01*
X14335566Y-53873172D01*
X14338043Y-53866045D01*
X14337986Y-53866027D01*
X14340256Y-53859177D01*
X14345684Y-53832888D01*
X14355439Y-53785640D01*
X14356187Y-53782263D01*
X14373500Y-53709222D01*
X14373500Y-53709218D01*
X14373501Y-53709214D01*
X14374339Y-53702049D01*
X14374398Y-53702055D01*
X14375164Y-53694555D01*
X14375105Y-53694550D01*
X14375734Y-53687360D01*
X14373552Y-53612370D01*
X14373500Y-53608763D01*
X14373500Y-48823202D01*
X14393185Y-48756163D01*
X14402088Y-48744070D01*
X14402297Y-48743750D01*
X14402302Y-48743746D01*
X14402304Y-48743740D01*
X14406271Y-48737711D01*
X14406322Y-48737744D01*
X14410372Y-48731388D01*
X14410320Y-48731356D01*
X14414108Y-48725212D01*
X14414111Y-48725209D01*
X14445821Y-48657205D01*
X14447362Y-48654020D01*
X14481040Y-48586965D01*
X14481043Y-48586949D01*
X14483509Y-48580178D01*
X14483567Y-48580199D01*
X14486043Y-48573078D01*
X14485986Y-48573059D01*
X14488255Y-48566210D01*
X14488255Y-48566208D01*
X14488257Y-48566205D01*
X14503435Y-48492689D01*
X14504200Y-48489240D01*
X14521500Y-48416253D01*
X14521500Y-48416251D01*
X14521501Y-48416247D01*
X14522339Y-48409080D01*
X14522398Y-48409086D01*
X14523164Y-48401586D01*
X14523105Y-48401581D01*
X14523734Y-48394391D01*
X14521552Y-48319401D01*
X14521500Y-48315794D01*
X14521500Y-47617000D01*
X14522809Y-47599030D01*
X14526289Y-47575269D01*
X14521972Y-47525930D01*
X14521500Y-47515121D01*
X14521500Y-47509591D01*
X14521500Y-47509586D01*
X14517894Y-47478738D01*
X14517534Y-47475211D01*
X14515290Y-47449563D01*
X14510998Y-47400498D01*
X14510997Y-47400496D01*
X14509538Y-47393430D01*
X14509598Y-47393417D01*
X14507966Y-47386059D01*
X14507908Y-47386073D01*
X14506242Y-47379045D01*
X14506241Y-47379043D01*
X14506241Y-47379040D01*
X14480567Y-47308501D01*
X14479420Y-47305203D01*
X14455814Y-47233961D01*
X14455811Y-47233957D01*
X14452762Y-47227416D01*
X14452815Y-47227390D01*
X14449531Y-47220606D01*
X14449479Y-47220633D01*
X14446236Y-47214177D01*
X14441764Y-47207378D01*
X14405025Y-47151517D01*
X14403088Y-47148476D01*
X14363714Y-47084642D01*
X14359234Y-47078976D01*
X14359280Y-47078938D01*
X14354519Y-47073094D01*
X14354474Y-47073133D01*
X14349831Y-47067600D01*
X14295290Y-47016143D01*
X14292703Y-47013630D01*
X14071019Y-46791946D01*
X14037534Y-46730623D01*
X14034700Y-46704265D01*
X14034700Y-43287933D01*
X14054385Y-43220894D01*
X14071015Y-43200256D01*
X14383641Y-42887629D01*
X14397260Y-42875859D01*
X14416530Y-42861515D01*
X14448372Y-42823566D01*
X14455671Y-42815599D01*
X14459590Y-42811682D01*
X14478811Y-42787372D01*
X14481094Y-42784569D01*
X14529301Y-42727120D01*
X14533272Y-42721084D01*
X14533323Y-42721117D01*
X14537369Y-42714765D01*
X14537317Y-42714733D01*
X14541105Y-42708588D01*
X14541111Y-42708582D01*
X14572829Y-42640560D01*
X14574369Y-42637381D01*
X14608040Y-42570338D01*
X14608043Y-42570322D01*
X14610510Y-42563549D01*
X14610568Y-42563570D01*
X14613043Y-42556451D01*
X14612985Y-42556432D01*
X14615255Y-42549582D01*
X14615256Y-42549578D01*
X14630431Y-42476076D01*
X14631186Y-42472672D01*
X14648500Y-42399626D01*
X14648500Y-42399624D01*
X14648501Y-42399620D01*
X14649339Y-42392453D01*
X14649397Y-42392459D01*
X14650164Y-42384961D01*
X14650104Y-42384956D01*
X14650733Y-42377765D01*
X14648552Y-42302794D01*
X14648500Y-42299188D01*
X14648500Y-41647705D01*
X14649809Y-41629735D01*
X14650129Y-41627547D01*
X14653289Y-41605977D01*
X14648972Y-41556630D01*
X14648500Y-41545822D01*
X14648500Y-41540296D01*
X14648500Y-41540291D01*
X14644901Y-41509509D01*
X14644536Y-41505929D01*
X14637999Y-41431201D01*
X14636539Y-41424129D01*
X14636597Y-41424116D01*
X14634965Y-41416757D01*
X14634906Y-41416772D01*
X14633241Y-41409751D01*
X14633241Y-41409745D01*
X14607569Y-41339212D01*
X14606421Y-41335909D01*
X14582814Y-41264666D01*
X14582810Y-41264659D01*
X14579760Y-41258118D01*
X14579815Y-41258091D01*
X14576533Y-41251313D01*
X14576480Y-41251340D01*
X14573235Y-41244880D01*
X14532025Y-41182223D01*
X14530086Y-41179181D01*
X14490710Y-41115342D01*
X14486234Y-41109682D01*
X14486281Y-41109644D01*
X14481519Y-41103799D01*
X14481474Y-41103838D01*
X14476831Y-41098305D01*
X14422273Y-41046832D01*
X14419686Y-41044319D01*
X13436019Y-40060651D01*
X13402534Y-39999328D01*
X13399700Y-39972970D01*
X13399700Y-29200533D01*
X13419385Y-29133494D01*
X13436015Y-29112856D01*
X13797416Y-28751454D01*
X13811035Y-28739684D01*
X13830305Y-28725340D01*
X13862147Y-28687391D01*
X13869446Y-28679424D01*
X13873366Y-28675506D01*
X13892628Y-28651143D01*
X13894851Y-28648416D01*
X13943075Y-28590946D01*
X13943077Y-28590944D01*
X13943079Y-28590939D01*
X13947049Y-28584905D01*
X13947100Y-28584938D01*
X13951144Y-28578590D01*
X13951092Y-28578558D01*
X13954881Y-28572412D01*
X13954886Y-28572407D01*
X13986607Y-28504377D01*
X13988133Y-28501226D01*
X14021815Y-28434163D01*
X14021816Y-28434158D01*
X14024283Y-28427380D01*
X14024341Y-28427401D01*
X14026818Y-28420274D01*
X14026761Y-28420256D01*
X14029031Y-28413406D01*
X14029032Y-28413402D01*
X14044214Y-28339869D01*
X14044962Y-28336492D01*
X14062275Y-28263451D01*
X14062275Y-28263447D01*
X14062276Y-28263443D01*
X14063114Y-28256278D01*
X14063173Y-28256284D01*
X14063939Y-28248784D01*
X14063880Y-28248779D01*
X14064509Y-28241589D01*
X14062327Y-28166599D01*
X14062275Y-28162992D01*
X14062275Y-23442269D01*
X14069234Y-23401314D01*
X14072617Y-23391645D01*
X14092182Y-23217995D01*
X14092182Y-23217988D01*
X14072617Y-23044340D01*
X14072614Y-23044327D01*
X14069234Y-23034667D01*
X14062275Y-22993712D01*
X14062275Y-21873854D01*
X14081960Y-21806815D01*
X14098594Y-21786173D01*
X15209748Y-20675019D01*
X15271071Y-20641534D01*
X15297429Y-20638700D01*
X19113293Y-20638700D01*
X19131265Y-20640009D01*
X19155023Y-20643489D01*
X19155025Y-20643488D01*
X19155026Y-20643489D01*
X19160795Y-20642983D01*
X19170735Y-20642114D01*
X19195433Y-20642421D01*
X19202400Y-20643207D01*
X19297304Y-20632514D01*
X19376053Y-20623642D01*
X19376055Y-20623641D01*
X19376057Y-20623641D01*
X19385722Y-20620259D01*
X19426677Y-20613300D01*
X23202695Y-20613300D01*
X23220665Y-20614609D01*
X23244423Y-20618089D01*
X23293769Y-20613771D01*
X23304576Y-20613300D01*
X23310104Y-20613300D01*
X23310109Y-20613300D01*
X23340956Y-20609693D01*
X23344430Y-20609339D01*
X23419197Y-20602799D01*
X23419205Y-20602796D01*
X23426266Y-20601339D01*
X23426278Y-20601398D01*
X23433643Y-20599765D01*
X23433629Y-20599706D01*
X23440649Y-20598041D01*
X23440655Y-20598041D01*
X23511179Y-20572372D01*
X23514517Y-20571212D01*
X23585734Y-20547614D01*
X23585742Y-20547608D01*
X23592282Y-20544560D01*
X23592308Y-20544616D01*
X23599087Y-20541334D01*
X23599060Y-20541280D01*
X23605514Y-20538038D01*
X23605513Y-20538038D01*
X23605517Y-20538037D01*
X23614544Y-20532099D01*
X23681370Y-20511707D01*
X23682683Y-20511700D01*
X27283923Y-20511700D01*
X27324878Y-20518659D01*
X27333971Y-20521841D01*
X27334546Y-20522042D01*
X27508196Y-20541607D01*
X27508200Y-20541607D01*
X27508204Y-20541607D01*
X27681853Y-20522042D01*
X27681855Y-20522041D01*
X27681857Y-20522041D01*
X27691522Y-20518659D01*
X27732477Y-20511700D01*
X31474923Y-20511700D01*
X31515878Y-20518659D01*
X31524971Y-20521841D01*
X31525546Y-20522042D01*
X31699196Y-20541607D01*
X31699200Y-20541607D01*
X31699204Y-20541607D01*
X31872853Y-20522042D01*
X31872855Y-20522041D01*
X31872857Y-20522041D01*
X31882522Y-20518659D01*
X31923477Y-20511700D01*
X35615123Y-20511700D01*
X35656078Y-20518659D01*
X35665171Y-20521841D01*
X35665746Y-20522042D01*
X35839396Y-20541607D01*
X35839400Y-20541607D01*
X35839404Y-20541607D01*
X36013053Y-20522042D01*
X36013055Y-20522041D01*
X36013057Y-20522041D01*
X36022722Y-20518659D01*
X36063677Y-20511700D01*
X39755323Y-20511700D01*
X39796278Y-20518659D01*
X39805371Y-20521841D01*
X39805946Y-20522042D01*
X39979596Y-20541607D01*
X39979600Y-20541607D01*
X39979604Y-20541607D01*
X40153253Y-20522042D01*
X40153255Y-20522041D01*
X40153257Y-20522041D01*
X40162922Y-20518659D01*
X40203877Y-20511700D01*
X43873735Y-20511700D01*
X43914690Y-20518659D01*
X43924352Y-20522040D01*
X43996943Y-20547441D01*
X43996949Y-20547441D01*
X43996951Y-20547442D01*
X44170596Y-20567007D01*
X44170600Y-20567007D01*
X44170604Y-20567007D01*
X44344253Y-20547442D01*
X44344255Y-20547441D01*
X44344257Y-20547441D01*
X44353922Y-20544059D01*
X44394877Y-20537100D01*
X48272256Y-20537100D01*
X48288542Y-20538764D01*
X48288548Y-20538705D01*
X48295741Y-20539334D01*
X48295743Y-20539333D01*
X48295744Y-20539334D01*
X48303081Y-20539120D01*
X48320583Y-20539846D01*
X48336200Y-20541607D01*
X48369280Y-20537879D01*
X48383162Y-20537100D01*
X48405307Y-20537100D01*
X48405309Y-20537100D01*
X48410798Y-20536458D01*
X48421578Y-20535671D01*
X48471112Y-20534231D01*
X48494311Y-20528014D01*
X48512006Y-20524629D01*
X48535847Y-20521842D01*
X48535847Y-20521841D01*
X48535855Y-20521841D01*
X48543172Y-20519177D01*
X48585581Y-20511700D01*
X52252123Y-20511700D01*
X52293078Y-20518659D01*
X52302171Y-20521841D01*
X52302746Y-20522042D01*
X52476396Y-20541607D01*
X52476400Y-20541607D01*
X52476404Y-20541607D01*
X52650053Y-20522042D01*
X52650055Y-20522041D01*
X52650057Y-20522041D01*
X52659722Y-20518659D01*
X52700677Y-20511700D01*
X56345135Y-20511700D01*
X56386090Y-20518659D01*
X56395752Y-20522040D01*
X56468343Y-20547441D01*
X56468349Y-20547441D01*
X56468351Y-20547442D01*
X56641996Y-20567007D01*
X56642000Y-20567007D01*
X56642004Y-20567007D01*
X56814113Y-20547615D01*
X56815657Y-20547441D01*
X56897910Y-20518659D01*
X56938865Y-20511700D01*
X60583323Y-20511700D01*
X60624278Y-20518659D01*
X60633371Y-20521841D01*
X60633946Y-20522042D01*
X60807596Y-20541607D01*
X60807600Y-20541607D01*
X60807604Y-20541607D01*
X60981253Y-20522042D01*
X60981255Y-20522041D01*
X60981257Y-20522041D01*
X60990922Y-20518659D01*
X61031877Y-20511700D01*
X64748923Y-20511700D01*
X64789878Y-20518659D01*
X64798971Y-20521841D01*
X64799546Y-20522042D01*
X64973196Y-20541607D01*
X64973200Y-20541607D01*
X64973204Y-20541607D01*
X65146853Y-20522042D01*
X65146855Y-20522041D01*
X65146857Y-20522041D01*
X65156522Y-20518659D01*
X65197477Y-20511700D01*
X68889123Y-20511700D01*
X68930078Y-20518659D01*
X68939171Y-20521841D01*
X68939746Y-20522042D01*
X69113396Y-20541607D01*
X69113400Y-20541607D01*
X69113404Y-20541607D01*
X69287048Y-20522042D01*
X69287047Y-20522042D01*
X69287057Y-20522041D01*
X69369310Y-20493259D01*
X69410265Y-20486300D01*
X72982135Y-20486300D01*
X73023090Y-20493259D01*
X73105343Y-20522041D01*
X73105349Y-20522041D01*
X73105351Y-20522042D01*
X73278996Y-20541607D01*
X73279000Y-20541607D01*
X73279004Y-20541607D01*
X73452648Y-20522042D01*
X73452647Y-20522042D01*
X73452657Y-20522041D01*
X73617606Y-20464322D01*
X73710894Y-20405705D01*
X73776865Y-20386700D01*
X77515148Y-20386700D01*
X77582187Y-20406385D01*
G37*
%TD.AperFunction*%
%TA.AperFunction,Conductor*%
G36*
X40856900Y-12084685D02*
G01*
X40902655Y-12137489D01*
X40912599Y-12206647D01*
X40883574Y-12270203D01*
X40882011Y-12271972D01*
X40873313Y-12281632D01*
X40778668Y-12445562D01*
X40778665Y-12445569D01*
X40720174Y-12625587D01*
X40720173Y-12625591D01*
X40700387Y-12813847D01*
X40720173Y-13002103D01*
X40720174Y-13002106D01*
X40778665Y-13182124D01*
X40778668Y-13182131D01*
X40873314Y-13346063D01*
X40975032Y-13459032D01*
X40999976Y-13486735D01*
X41153112Y-13597995D01*
X41153117Y-13597998D01*
X41326039Y-13674989D01*
X41326044Y-13674991D01*
X41511201Y-13714347D01*
X41511202Y-13714347D01*
X41700491Y-13714347D01*
X41700493Y-13714347D01*
X41885650Y-13674991D01*
X42058577Y-13597998D01*
X42211718Y-13486735D01*
X42214635Y-13483494D01*
X42217447Y-13480373D01*
X42276934Y-13443726D01*
X42309595Y-13439347D01*
X42972409Y-13439347D01*
X43039448Y-13459032D01*
X43064558Y-13480374D01*
X43082128Y-13499887D01*
X43082135Y-13499893D01*
X43235265Y-13611148D01*
X43235270Y-13611151D01*
X43408192Y-13688142D01*
X43408197Y-13688144D01*
X43593354Y-13727500D01*
X43593355Y-13727500D01*
X43782644Y-13727500D01*
X43782646Y-13727500D01*
X43967803Y-13688144D01*
X44140730Y-13611151D01*
X44293871Y-13499888D01*
X44420533Y-13359216D01*
X44515179Y-13195284D01*
X44573674Y-13015256D01*
X44593460Y-12827000D01*
X44573674Y-12638744D01*
X44515179Y-12458716D01*
X44420533Y-12294784D01*
X44399993Y-12271972D01*
X44369763Y-12208980D01*
X44378388Y-12139645D01*
X44423130Y-12085980D01*
X44489782Y-12065022D01*
X44492143Y-12065000D01*
X79759000Y-12065000D01*
X79826039Y-12084685D01*
X79871794Y-12137489D01*
X79883000Y-12189000D01*
X79883000Y-19652354D01*
X79863315Y-19719393D01*
X79810511Y-19765148D01*
X79741353Y-19775092D01*
X79677797Y-19746067D01*
X79641959Y-19693309D01*
X79595157Y-19559560D01*
X79595157Y-19559559D01*
X79502182Y-19411589D01*
X79378611Y-19288018D01*
X79230641Y-19195043D01*
X79230640Y-19195042D01*
X79230639Y-19195042D01*
X79065693Y-19137324D01*
X79065683Y-19137322D01*
X78892039Y-19117758D01*
X78892031Y-19117758D01*
X78718386Y-19137322D01*
X78718376Y-19137324D01*
X78553430Y-19195042D01*
X78405458Y-19288018D01*
X78400016Y-19292359D01*
X78398447Y-19290392D01*
X78347320Y-19318291D01*
X78277629Y-19313286D01*
X78243599Y-19292889D01*
X78243150Y-19293469D01*
X78240073Y-19291082D01*
X78240071Y-19291080D01*
X78236886Y-19288609D01*
X78228034Y-19281048D01*
X78196182Y-19251138D01*
X78196180Y-19251136D01*
X78196177Y-19251135D01*
X78178629Y-19241488D01*
X78162363Y-19230804D01*
X78146532Y-19218524D01*
X78106449Y-19201178D01*
X78095963Y-19196041D01*
X78057694Y-19175003D01*
X78057692Y-19175002D01*
X78038293Y-19170022D01*
X78019881Y-19163718D01*
X78001498Y-19155762D01*
X78001492Y-19155760D01*
X77958360Y-19148929D01*
X77946922Y-19146561D01*
X77904620Y-19135700D01*
X77904619Y-19135700D01*
X77884584Y-19135700D01*
X77865186Y-19134173D01*
X77857211Y-19132910D01*
X77845405Y-19131040D01*
X77845404Y-19131040D01*
X77801925Y-19135150D01*
X77790256Y-19135700D01*
X73776865Y-19135700D01*
X73710894Y-19116694D01*
X73617606Y-19058078D01*
X73617605Y-19058077D01*
X73617604Y-19058077D01*
X73452653Y-19000357D01*
X73368978Y-18990930D01*
X73354271Y-18988369D01*
X73341321Y-18985300D01*
X73341320Y-18985300D01*
X73341316Y-18985299D01*
X73334145Y-18984461D01*
X73334151Y-18984401D01*
X73326656Y-18983635D01*
X73326651Y-18983695D01*
X73319454Y-18983065D01*
X73312094Y-18983279D01*
X73294616Y-18982552D01*
X73279000Y-18980793D01*
X73278998Y-18980793D01*
X73245921Y-18984520D01*
X73232037Y-18985300D01*
X69202505Y-18985300D01*
X69184535Y-18983991D01*
X69160771Y-18980510D01*
X69145055Y-18981885D01*
X69120377Y-18981578D01*
X69113405Y-18980793D01*
X69113396Y-18980793D01*
X68939746Y-19000357D01*
X68930078Y-19003741D01*
X68889123Y-19010700D01*
X65197477Y-19010700D01*
X65156522Y-19003741D01*
X65146853Y-19000357D01*
X64973204Y-18980793D01*
X64973196Y-18980793D01*
X64799546Y-19000357D01*
X64789878Y-19003741D01*
X64748923Y-19010700D01*
X61031877Y-19010700D01*
X60990922Y-19003741D01*
X60981253Y-19000357D01*
X60807604Y-18980793D01*
X60807596Y-18980793D01*
X60633946Y-19000357D01*
X60624278Y-19003741D01*
X60583323Y-19010700D01*
X56731105Y-19010700D01*
X56713135Y-19009391D01*
X56689371Y-19005910D01*
X56673655Y-19007285D01*
X56648977Y-19006978D01*
X56642005Y-19006193D01*
X56641998Y-19006193D01*
X56608921Y-19009920D01*
X56595037Y-19010700D01*
X52700677Y-19010700D01*
X52659722Y-19003741D01*
X52650053Y-19000357D01*
X52476404Y-18980793D01*
X52476396Y-18980793D01*
X52302746Y-19000357D01*
X52293078Y-19003741D01*
X52252123Y-19010700D01*
X48560477Y-19010700D01*
X48519522Y-19003741D01*
X48509853Y-19000357D01*
X48336204Y-18980793D01*
X48336196Y-18980793D01*
X48162551Y-19000357D01*
X48162541Y-19000359D01*
X48080290Y-19029141D01*
X48039335Y-19036100D01*
X44394878Y-19036100D01*
X44353923Y-19029141D01*
X44344259Y-19025759D01*
X44344250Y-19025757D01*
X44260578Y-19016330D01*
X44245871Y-19013769D01*
X44232921Y-19010700D01*
X44232920Y-19010700D01*
X44232916Y-19010699D01*
X44225745Y-19009861D01*
X44225751Y-19009801D01*
X44218256Y-19009035D01*
X44218251Y-19009095D01*
X44211054Y-19008465D01*
X44203694Y-19008679D01*
X44186216Y-19007952D01*
X44170600Y-19006193D01*
X44170598Y-19006193D01*
X44137521Y-19009920D01*
X44123637Y-19010700D01*
X40203877Y-19010700D01*
X40162922Y-19003741D01*
X40153253Y-19000357D01*
X39979604Y-18980793D01*
X39979596Y-18980793D01*
X39805946Y-19000357D01*
X39796278Y-19003741D01*
X39755323Y-19010700D01*
X36063677Y-19010700D01*
X36022722Y-19003741D01*
X36013053Y-19000357D01*
X35839404Y-18980793D01*
X35839396Y-18980793D01*
X35665746Y-19000357D01*
X35656078Y-19003741D01*
X35615123Y-19010700D01*
X31923477Y-19010700D01*
X31882522Y-19003741D01*
X31872853Y-19000357D01*
X31699204Y-18980793D01*
X31699196Y-18980793D01*
X31525546Y-19000357D01*
X31515878Y-19003741D01*
X31474923Y-19010700D01*
X27732477Y-19010700D01*
X27691522Y-19003741D01*
X27681853Y-19000357D01*
X27508204Y-18980793D01*
X27508196Y-18980793D01*
X27334546Y-19000357D01*
X27324878Y-19003741D01*
X27283923Y-19010700D01*
X23431705Y-19010700D01*
X23413735Y-19009391D01*
X23389971Y-19005910D01*
X23374255Y-19007285D01*
X23349577Y-19006978D01*
X23342605Y-19006193D01*
X23342596Y-19006193D01*
X23168951Y-19025757D01*
X23168941Y-19025759D01*
X23003995Y-19083477D01*
X23003989Y-19083480D01*
X22988373Y-19093293D01*
X22922400Y-19112300D01*
X19426677Y-19112300D01*
X19385722Y-19105341D01*
X19376053Y-19101957D01*
X19202404Y-19082393D01*
X19202396Y-19082393D01*
X19028751Y-19101957D01*
X19028741Y-19101959D01*
X18946490Y-19130741D01*
X18905535Y-19137700D01*
X14998905Y-19137700D01*
X14980935Y-19136391D01*
X14957172Y-19132910D01*
X14910043Y-19137034D01*
X14907830Y-19137228D01*
X14897024Y-19137700D01*
X14891484Y-19137700D01*
X14860701Y-19141298D01*
X14857116Y-19141664D01*
X14782399Y-19148201D01*
X14775332Y-19149660D01*
X14775320Y-19149604D01*
X14767963Y-19151235D01*
X14767977Y-19151292D01*
X14760940Y-19152960D01*
X14690431Y-19178621D01*
X14687054Y-19179795D01*
X14648048Y-19192721D01*
X14615868Y-19203385D01*
X14609326Y-19206436D01*
X14609301Y-19206383D01*
X14602508Y-19209671D01*
X14602534Y-19209723D01*
X14596080Y-19212964D01*
X14533421Y-19254175D01*
X14530381Y-19256112D01*
X14466548Y-19295485D01*
X14460883Y-19299965D01*
X14460847Y-19299919D01*
X14454998Y-19304684D01*
X14455035Y-19304728D01*
X14449510Y-19309364D01*
X14449504Y-19309369D01*
X14449504Y-19309370D01*
X14405612Y-19355891D01*
X14398032Y-19363926D01*
X14395520Y-19366511D01*
X12826133Y-20935897D01*
X12812504Y-20947676D01*
X12793244Y-20962015D01*
X12761407Y-20999956D01*
X12754121Y-21007909D01*
X12750182Y-21011849D01*
X12730951Y-21036170D01*
X12728677Y-21038962D01*
X12680469Y-21096415D01*
X12676504Y-21102444D01*
X12676457Y-21102413D01*
X12672405Y-21108772D01*
X12672454Y-21108802D01*
X12668664Y-21114946D01*
X12636967Y-21182919D01*
X12635398Y-21186161D01*
X12601732Y-21253197D01*
X12599263Y-21259982D01*
X12599207Y-21259961D01*
X12596735Y-21267075D01*
X12596790Y-21267094D01*
X12594518Y-21273950D01*
X12579348Y-21347413D01*
X12578568Y-21350929D01*
X12561274Y-21423904D01*
X12560436Y-21431079D01*
X12560376Y-21431072D01*
X12559610Y-21438570D01*
X12559670Y-21438576D01*
X12559040Y-21445765D01*
X12561223Y-21520753D01*
X12561275Y-21524360D01*
X12561275Y-22263381D01*
X12541590Y-22330420D01*
X12488786Y-22376175D01*
X12451159Y-22386601D01*
X12348587Y-22398158D01*
X12348582Y-22398159D01*
X12229954Y-22439669D01*
X12160175Y-22443230D01*
X12099548Y-22408501D01*
X12067321Y-22346507D01*
X12065000Y-22322627D01*
X12065000Y-12189000D01*
X12084685Y-12121961D01*
X12137489Y-12076206D01*
X12189000Y-12065000D01*
X40789861Y-12065000D01*
X40856900Y-12084685D01*
G37*
%TD.AperFunction*%
%TD*%
M02*
