%TF.GenerationSoftware,KiCad,Pcbnew,7.0.10*%
%TF.CreationDate,2025-03-26T19:50:04+01:00*%
%TF.ProjectId,ConnectorInterfaceBoard,436f6e6e-6563-4746-9f72-496e74657266,rev?*%
%TF.SameCoordinates,Original*%
%TF.FileFunction,Copper,L2,Bot*%
%TF.FilePolarity,Positive*%
%FSLAX46Y46*%
G04 Gerber Fmt 4.6, Leading zero omitted, Abs format (unit mm)*
G04 Created by KiCad (PCBNEW 7.0.10) date 2025-03-26 19:50:04*
%MOMM*%
%LPD*%
G01*
G04 APERTURE LIST*
%TA.AperFunction,ComponentPad*%
%ADD10R,1.000000X1.000000*%
%TD*%
%TA.AperFunction,ComponentPad*%
%ADD11O,1.000000X1.000000*%
%TD*%
%TA.AperFunction,ComponentPad*%
%ADD12C,1.520000*%
%TD*%
%TA.AperFunction,ComponentPad*%
%ADD13C,2.000000*%
%TD*%
%TA.AperFunction,ViaPad*%
%ADD14C,0.800000*%
%TD*%
%TA.AperFunction,Conductor*%
%ADD15C,0.750000*%
%TD*%
%TA.AperFunction,Conductor*%
%ADD16C,0.300000*%
%TD*%
G04 APERTURE END LIST*
D10*
%TO.P,J4,1,Pin_1*%
%TO.N,Analog0_In*%
X16713200Y-15875000D03*
D11*
%TO.P,J4,2,Pin_2*%
%TO.N,Analog1_In*%
X17983200Y-15875000D03*
%TO.P,J4,3,Pin_3*%
%TO.N,Analog2_In*%
X16713200Y-17145000D03*
%TO.P,J4,4,Pin_4*%
%TO.N,Analog3_In*%
X17983200Y-17145000D03*
%TO.P,J4,5,Pin_5*%
%TO.N,GND*%
X16713200Y-18415000D03*
%TO.P,J4,6,Pin_6*%
%TO.N,GPIO1_out{slash}in*%
X17983200Y-18415000D03*
%TO.P,J4,7,Pin_7*%
%TO.N,GPIO2_out{slash}in*%
X16713200Y-19685000D03*
%TO.P,J4,8,Pin_8*%
%TO.N,GPIO3_out{slash}in*%
X17983200Y-19685000D03*
%TO.P,J4,9,Pin_9*%
%TO.N,GPIO4_out{slash}in*%
X16713200Y-20955000D03*
%TO.P,J4,10,Pin_10*%
%TO.N,GPIO5_out{slash}in*%
X17983200Y-20955000D03*
%TO.P,J4,11,Pin_11*%
%TO.N,GPIO6_out{slash}in*%
X16713200Y-22225000D03*
%TO.P,J4,12,Pin_12*%
%TO.N,+BATT*%
X17983200Y-22225000D03*
%TO.P,J4,13,Pin_13*%
X16713200Y-23495000D03*
%TO.P,J4,14,Pin_14*%
%TO.N,CAN1_P*%
X17983200Y-23495000D03*
%TO.P,J4,15,Pin_15*%
%TO.N,CAN1_N*%
X16713200Y-24765000D03*
%TO.P,J4,16,Pin_16*%
%TO.N,GND*%
X17983200Y-24765000D03*
%TD*%
D12*
%TO.P,J1,1,Pin_1*%
%TO.N,GPIO1_out{slash}in*%
X26695400Y-19177000D03*
%TO.P,J1,2,Pin_2*%
%TO.N,GPIO2_out{slash}in*%
X26847800Y-20878800D03*
%TO.P,J1,3,Pin_3*%
%TO.N,GPIO3_out{slash}in*%
X27559000Y-22453600D03*
%TO.P,J1,4,Pin_4*%
%TO.N,GPIO4_out{slash}in*%
X30099000Y-22453600D03*
%TO.P,J1,5,Pin_5*%
%TO.N,GPIO5_out{slash}in*%
X30810200Y-20878800D03*
%TO.P,J1,6,Pin_6*%
%TO.N,GPIO6_out{slash}in*%
X30962600Y-19177000D03*
%TO.P,J1,7,Pin_7*%
%TO.N,GND*%
X28829000Y-19685000D03*
%TD*%
D13*
%TO.P,J3,1,Pin_1*%
%TO.N,+BATT*%
X60655200Y-19685000D03*
%TO.P,J3,2,Pin_2*%
%TO.N,GND*%
X61468000Y-22301200D03*
%TO.P,J3,3,Pin_3*%
%TO.N,CAN1_N*%
X64262000Y-22301200D03*
%TO.P,J3,4,Pin_4*%
%TO.N,CAN1_P*%
X65074800Y-19685000D03*
%TO.P,J3,5,Pin_5*%
%TO.N,GND*%
X62865000Y-20370800D03*
%TD*%
%TO.P,J2,1,Pin_1*%
%TO.N,+BATT*%
X43764200Y-19354800D03*
%TO.P,J2,2,Pin_2*%
%TO.N,Analog0_In*%
X43764200Y-21615400D03*
%TO.P,J2,3,Pin_3*%
%TO.N,Analog1_In*%
X45821600Y-22707600D03*
%TO.P,J2,4,Pin_4*%
%TO.N,Analog2_In*%
X47879000Y-21615400D03*
%TO.P,J2,5,Pin_5*%
%TO.N,Analog3_In*%
X47879000Y-19354800D03*
%TO.P,J2,6,Pin_6*%
%TO.N,GND*%
X45821600Y-20396200D03*
%TD*%
D14*
%TO.N,GPIO2_out{slash}in*%
X23065310Y-23036006D03*
%TO.N,GPIO6_out{slash}in*%
X14332046Y-26813404D03*
%TO.N,GND*%
X20828000Y-24485600D03*
X22910800Y-25755600D03*
X14579600Y-18389600D03*
X24587200Y-24993600D03*
X28803600Y-25755600D03*
X31343600Y-25806400D03*
%TO.N,+BATT*%
X19259567Y-23711600D03*
X35602270Y-21385530D03*
X20332926Y-21094920D03*
X36961521Y-19987062D03*
%TO.N,Analog0_In*%
X40995600Y-13802000D03*
%TO.N,Analog2_In*%
X50429000Y-21463000D03*
%TO.N,CAN1_N*%
X25400000Y-26084000D03*
X34463181Y-25815581D03*
%TO.N,CAN1_P*%
X34540370Y-26812600D03*
X23814451Y-23785148D03*
X21862545Y-22859911D03*
%TD*%
D15*
%TO.N,GPIO2_out{slash}in*%
X25748673Y-22233030D02*
X26847800Y-21133903D01*
X23868286Y-22233030D02*
X25748673Y-22233030D01*
X26847800Y-21133903D02*
X26847800Y-20878800D01*
X23065310Y-23036006D02*
X23868286Y-22233030D01*
%TO.N,GPIO4_out{slash}in*%
X13666004Y-27788404D02*
X28396396Y-27788404D01*
X13357046Y-23958252D02*
X13357046Y-27479446D01*
X16713200Y-20955000D02*
X16360298Y-20955000D01*
X30099000Y-26085800D02*
X30099000Y-22453600D01*
X16360298Y-20955000D02*
X13357046Y-23958252D01*
X28396396Y-27788404D02*
X30099000Y-26085800D01*
X13357046Y-27479446D02*
X13666004Y-27788404D01*
%TO.N,GPIO6_out{slash}in*%
X15290800Y-25854650D02*
X15290800Y-23368000D01*
X15290800Y-23368000D02*
X16433800Y-22225000D01*
X14332046Y-26813404D02*
X15290800Y-25854650D01*
X16433800Y-22225000D02*
X16713200Y-22225000D01*
%TO.N,GND*%
X62865000Y-20370800D02*
X62865000Y-20904200D01*
X62865000Y-20904200D02*
X61468000Y-22301200D01*
%TO.N,+BATT*%
X35602270Y-21385530D02*
X35602270Y-21346313D01*
X20332926Y-21094920D02*
X19259567Y-22168279D01*
X19259567Y-22168279D02*
X19259567Y-23711600D01*
X35602270Y-21346313D02*
X36961521Y-19987062D01*
%TO.N,Analog0_In*%
X40995600Y-13802000D02*
X41148000Y-13954400D01*
X41148000Y-13954400D02*
X41148000Y-18999200D01*
X41148000Y-18999200D02*
X43764200Y-21615400D01*
%TO.N,Analog2_In*%
X50429000Y-21463000D02*
X48031400Y-21463000D01*
X48031400Y-21463000D02*
X47879000Y-21615400D01*
D16*
%TO.N,CAN1_N*%
X20408000Y-25615000D02*
X17563200Y-25615000D01*
X62793600Y-26835200D02*
X62793600Y-26583253D01*
X24650000Y-26834000D02*
X21627000Y-26834000D01*
X35923631Y-27135200D02*
X34604012Y-25815581D01*
X17563200Y-25615000D02*
X16713200Y-24765000D01*
X25400000Y-26084000D02*
X24650000Y-26834000D01*
X64262000Y-22301200D02*
X64262000Y-26572494D01*
X21627000Y-26834000D02*
X20408000Y-25615000D01*
X61593600Y-26835200D02*
X61593600Y-26583251D01*
X34604012Y-25815581D02*
X34463181Y-25815581D01*
X58293600Y-27135200D02*
X56844344Y-27135200D01*
X62193600Y-26583253D02*
X62193600Y-26835200D01*
X60393600Y-26835200D02*
X60393600Y-26583250D01*
X56844344Y-27135200D02*
X35923631Y-27135200D01*
X63699294Y-27135200D02*
X63093600Y-27135200D01*
X60993600Y-26583251D02*
X60993600Y-26835200D01*
X59793600Y-26583250D02*
X59793600Y-26835200D01*
X58593600Y-26583242D02*
X58593600Y-26835200D01*
X59193600Y-26835200D02*
X59193600Y-26583242D01*
X64262000Y-26572494D02*
X63699294Y-27135200D01*
X60693600Y-27135200D02*
G75*
G03*
X60993600Y-26835200I0J300000D01*
G01*
X61593600Y-26835200D02*
G75*
G03*
X61893600Y-27135200I300000J0D01*
G01*
X61293600Y-26283300D02*
G75*
G03*
X60993600Y-26583251I0J-300000D01*
G01*
X60393650Y-26583250D02*
G75*
G03*
X60093600Y-26283250I-300050J-50D01*
G01*
X60393600Y-26835200D02*
G75*
G03*
X60693600Y-27135200I300000J0D01*
G01*
X58893600Y-26283200D02*
G75*
G03*
X58593600Y-26583242I0J-300000D01*
G01*
X59193558Y-26583242D02*
G75*
G03*
X58893600Y-26283242I-299958J42D01*
G01*
X58293600Y-27135200D02*
G75*
G03*
X58593600Y-26835200I0J300000D01*
G01*
X60093600Y-26283300D02*
G75*
G03*
X59793600Y-26583250I0J-300000D01*
G01*
X62793647Y-26583253D02*
G75*
G03*
X62493600Y-26283253I-300047J-47D01*
G01*
X62493600Y-26283300D02*
G75*
G03*
X62193600Y-26583253I0J-300000D01*
G01*
X61893600Y-27135200D02*
G75*
G03*
X62193600Y-26835200I0J300000D01*
G01*
X61593649Y-26583251D02*
G75*
G03*
X61293600Y-26283251I-300049J-49D01*
G01*
X62793600Y-26835200D02*
G75*
G03*
X63093600Y-27135200I300000J0D01*
G01*
X59193600Y-26835200D02*
G75*
G03*
X59493600Y-27135200I300000J0D01*
G01*
X59493600Y-27135200D02*
G75*
G03*
X59793600Y-26835200I0J300000D01*
G01*
%TO.N,CAN1_P*%
X35362970Y-27635200D02*
X63906400Y-27635200D01*
X34540370Y-26812600D02*
X35362970Y-27635200D01*
X21862545Y-23469964D02*
X22177729Y-23785148D01*
X66074800Y-25466800D02*
X66074800Y-20685000D01*
X63906400Y-27635200D02*
X66074800Y-25466800D01*
X66074800Y-20685000D02*
X65074800Y-19685000D01*
X22177729Y-23785148D02*
X23814451Y-23785148D01*
X21862545Y-22859911D02*
X21862545Y-23469964D01*
%TD*%
%TA.AperFunction,Conductor*%
%TO.N,GND*%
G36*
X68759000Y-11958462D02*
G01*
X68813538Y-12013000D01*
X68833500Y-12087500D01*
X68833500Y-28552500D01*
X68813538Y-28627000D01*
X68759000Y-28681538D01*
X68684500Y-28701500D01*
X28707595Y-28701500D01*
X28633095Y-28681538D01*
X28578557Y-28627000D01*
X28558595Y-28552500D01*
X28578557Y-28478000D01*
X28633095Y-28423462D01*
X28646427Y-28416635D01*
X28649153Y-28415407D01*
X28650903Y-28414619D01*
X28659194Y-28411184D01*
X28712622Y-28390922D01*
X28718459Y-28386892D01*
X28741947Y-28373644D01*
X28748424Y-28370730D01*
X28793388Y-28335501D01*
X28800610Y-28330186D01*
X28847625Y-28297736D01*
X28885501Y-28254981D01*
X28891637Y-28248462D01*
X30559058Y-26581041D01*
X30565577Y-26574905D01*
X30608332Y-26537029D01*
X30640782Y-26490014D01*
X30646104Y-26482783D01*
X30668150Y-26454645D01*
X30681326Y-26437828D01*
X30684240Y-26431351D01*
X30697488Y-26407863D01*
X30701518Y-26402026D01*
X30721780Y-26348597D01*
X30725198Y-26340345D01*
X30748650Y-26288239D01*
X30749927Y-26281267D01*
X30757174Y-26255273D01*
X30759687Y-26248647D01*
X30759686Y-26248647D01*
X30759688Y-26248645D01*
X30766575Y-26191916D01*
X30767922Y-26183073D01*
X30778219Y-26126885D01*
X30774771Y-26069895D01*
X30774500Y-26060900D01*
X30774500Y-25815581D01*
X33757536Y-25815581D01*
X33778041Y-25984455D01*
X33838362Y-26143510D01*
X33865644Y-26183034D01*
X33913851Y-26252874D01*
X33936276Y-26285361D01*
X33962169Y-26358013D01*
X33948266Y-26433878D01*
X33936277Y-26454645D01*
X33915551Y-26484670D01*
X33855230Y-26643725D01*
X33834725Y-26812600D01*
X33855230Y-26981474D01*
X33915551Y-27140529D01*
X33915552Y-27140530D01*
X34012187Y-27280529D01*
X34012189Y-27280530D01*
X34012190Y-27280532D01*
X34139516Y-27393332D01*
X34139518Y-27393334D01*
X34290145Y-27472390D01*
X34455314Y-27513100D01*
X34542048Y-27513100D01*
X34616548Y-27533062D01*
X34647407Y-27556741D01*
X35020610Y-27929943D01*
X35031743Y-27942401D01*
X35053091Y-27969170D01*
X35099955Y-28001121D01*
X35104468Y-28004324D01*
X35106444Y-28005782D01*
X35150088Y-28037993D01*
X35150090Y-28037994D01*
X35157648Y-28041989D01*
X35165292Y-28045670D01*
X35165295Y-28045671D01*
X35165297Y-28045672D01*
X35219512Y-28062394D01*
X35224748Y-28064117D01*
X35267263Y-28078994D01*
X35278271Y-28082846D01*
X35286655Y-28084432D01*
X35295066Y-28085700D01*
X35295068Y-28085700D01*
X35351753Y-28085700D01*
X35357323Y-28085804D01*
X35413980Y-28087924D01*
X35413984Y-28087923D01*
X35425079Y-28086674D01*
X35425216Y-28087897D01*
X35441897Y-28085700D01*
X63872734Y-28085700D01*
X63889414Y-28086636D01*
X63923435Y-28090470D01*
X63979197Y-28079918D01*
X63984602Y-28079000D01*
X64040687Y-28070548D01*
X64040694Y-28070544D01*
X64048861Y-28068025D01*
X64056868Y-28065224D01*
X64056868Y-28065223D01*
X64056872Y-28065223D01*
X64107042Y-28038705D01*
X64111948Y-28036229D01*
X64163042Y-28011625D01*
X64163044Y-28011622D01*
X64170095Y-28006816D01*
X64176935Y-28001768D01*
X64176935Y-28001767D01*
X64176938Y-28001766D01*
X64217060Y-27961642D01*
X64220992Y-27957854D01*
X64262594Y-27919255D01*
X64262595Y-27919252D01*
X64262597Y-27919251D01*
X64269557Y-27910524D01*
X64270542Y-27911309D01*
X64280761Y-27897941D01*
X66369554Y-25809147D01*
X66381993Y-25798032D01*
X66408770Y-25776679D01*
X66440739Y-25729788D01*
X66443908Y-25725321D01*
X66477593Y-25679682D01*
X66477594Y-25679680D01*
X66481574Y-25672150D01*
X66485267Y-25664480D01*
X66485272Y-25664473D01*
X66501985Y-25610288D01*
X66503728Y-25604989D01*
X66514275Y-25574849D01*
X66522446Y-25551499D01*
X66522446Y-25551496D01*
X66524027Y-25543141D01*
X66525300Y-25534700D01*
X66525300Y-25478034D01*
X66525404Y-25472463D01*
X66525458Y-25471012D01*
X66527525Y-25415790D01*
X66527524Y-25415785D01*
X66526275Y-25404692D01*
X66527493Y-25404554D01*
X66525300Y-25387870D01*
X66525300Y-20718666D01*
X66526237Y-20701984D01*
X66528145Y-20685047D01*
X66530070Y-20667965D01*
X66522319Y-20626997D01*
X66519530Y-20612258D01*
X66518596Y-20606764D01*
X66510148Y-20550714D01*
X66507632Y-20542557D01*
X66504825Y-20534534D01*
X66504824Y-20534529D01*
X66481509Y-20490415D01*
X66478318Y-20484378D01*
X66475807Y-20479403D01*
X66451226Y-20428360D01*
X66446422Y-20421314D01*
X66441366Y-20414463D01*
X66401278Y-20374375D01*
X66397438Y-20370389D01*
X66358855Y-20328806D01*
X66358852Y-20328804D01*
X66350127Y-20321846D01*
X66350886Y-20320894D01*
X66337542Y-20310639D01*
X66329791Y-20302888D01*
X66291227Y-20236093D01*
X66291227Y-20158965D01*
X66300115Y-20134549D01*
X66301539Y-20131496D01*
X66360435Y-19911692D01*
X66380268Y-19685000D01*
X66360435Y-19458308D01*
X66301539Y-19238504D01*
X66205368Y-19032266D01*
X66124841Y-18917261D01*
X66074848Y-18845862D01*
X65913937Y-18684951D01*
X65727541Y-18554437D01*
X65727538Y-18554435D01*
X65727534Y-18554432D01*
X65521296Y-18458261D01*
X65301492Y-18399365D01*
X65301493Y-18399365D01*
X65074800Y-18379532D01*
X64848106Y-18399365D01*
X64628307Y-18458260D01*
X64628306Y-18458260D01*
X64628304Y-18458261D01*
X64422066Y-18554432D01*
X64422063Y-18554434D01*
X64422061Y-18554435D01*
X64422058Y-18554437D01*
X64235662Y-18684951D01*
X64074751Y-18845862D01*
X63944237Y-19032258D01*
X63944228Y-19032272D01*
X63928224Y-19066593D01*
X63878646Y-19125676D01*
X63806169Y-19152053D01*
X63730213Y-19138658D01*
X63701669Y-19121202D01*
X63688236Y-19110747D01*
X63469606Y-18992431D01*
X63234493Y-18911717D01*
X62989291Y-18870800D01*
X62740708Y-18870800D01*
X62495506Y-18911717D01*
X62260393Y-18992431D01*
X62041769Y-19110744D01*
X62041767Y-19110745D01*
X62028328Y-19121205D01*
X61957275Y-19151208D01*
X61880740Y-19141666D01*
X61819229Y-19095134D01*
X61801774Y-19066590D01*
X61785771Y-19032272D01*
X61785769Y-19032270D01*
X61785768Y-19032266D01*
X61785765Y-19032261D01*
X61785764Y-19032260D01*
X61655248Y-18845862D01*
X61494337Y-18684951D01*
X61307941Y-18554437D01*
X61307938Y-18554435D01*
X61307934Y-18554432D01*
X61101696Y-18458261D01*
X60881892Y-18399365D01*
X60881893Y-18399365D01*
X60655200Y-18379532D01*
X60428506Y-18399365D01*
X60208707Y-18458260D01*
X60208706Y-18458260D01*
X60208704Y-18458261D01*
X60002466Y-18554432D01*
X60002463Y-18554434D01*
X60002461Y-18554435D01*
X60002458Y-18554437D01*
X59816062Y-18684951D01*
X59655151Y-18845862D01*
X59524637Y-19032258D01*
X59524635Y-19032261D01*
X59524634Y-19032263D01*
X59524632Y-19032266D01*
X59428461Y-19238504D01*
X59428460Y-19238507D01*
X59369565Y-19458306D01*
X59349732Y-19685000D01*
X59369565Y-19911693D01*
X59398987Y-20021497D01*
X59428461Y-20131496D01*
X59524632Y-20337734D01*
X59524635Y-20337738D01*
X59524637Y-20337741D01*
X59655151Y-20524137D01*
X59816062Y-20685048D01*
X59883632Y-20732360D01*
X60002466Y-20815568D01*
X60208704Y-20911739D01*
X60428508Y-20970635D01*
X60458898Y-20973293D01*
X60531373Y-20999670D01*
X60580951Y-21058753D01*
X60581382Y-21061029D01*
X61104891Y-21584538D01*
X60966052Y-21671777D01*
X60838577Y-21799252D01*
X60751338Y-21938091D01*
X60244563Y-21431316D01*
X60144266Y-21584832D01*
X60044412Y-21812478D01*
X59983386Y-22053466D01*
X59962859Y-22301198D01*
X59962859Y-22301201D01*
X59983386Y-22548933D01*
X60044412Y-22789921D01*
X60144263Y-23017558D01*
X60144267Y-23017565D01*
X60244563Y-23171081D01*
X60751337Y-22664306D01*
X60838577Y-22803148D01*
X60966052Y-22930623D01*
X61104891Y-23017861D01*
X60597942Y-23524809D01*
X60597942Y-23524810D01*
X60644766Y-23561254D01*
X60863393Y-23679568D01*
X61098506Y-23760282D01*
X61343708Y-23801199D01*
X61343708Y-23801200D01*
X61592292Y-23801200D01*
X61592291Y-23801199D01*
X61837493Y-23760282D01*
X62072606Y-23679568D01*
X62291233Y-23561254D01*
X62338056Y-23524809D01*
X61831108Y-23017861D01*
X61969948Y-22930623D01*
X62097423Y-22803148D01*
X62184661Y-22664308D01*
X62691435Y-23171082D01*
X62691435Y-23171081D01*
X62791728Y-23017574D01*
X62791733Y-23017564D01*
X62838471Y-22911011D01*
X62886678Y-22850804D01*
X62958529Y-22822766D01*
X63034773Y-22834411D01*
X63094980Y-22882618D01*
X63109961Y-22907890D01*
X63122272Y-22934290D01*
X63131432Y-22953934D01*
X63145132Y-22973500D01*
X63261951Y-23140337D01*
X63422862Y-23301248D01*
X63477692Y-23339640D01*
X63609266Y-23431768D01*
X63636919Y-23444663D01*
X63725469Y-23485954D01*
X63784553Y-23535530D01*
X63810933Y-23608007D01*
X63811500Y-23620994D01*
X63811500Y-26324173D01*
X63791538Y-26398673D01*
X63767859Y-26429532D01*
X63556332Y-26641059D01*
X63489537Y-26679623D01*
X63450973Y-26684700D01*
X63393140Y-26684700D01*
X63318640Y-26664738D01*
X63264102Y-26610200D01*
X63244140Y-26535720D01*
X63244137Y-26509267D01*
X63215276Y-26364282D01*
X63158688Y-26227711D01*
X63158687Y-26227709D01*
X63158686Y-26227707D01*
X63111833Y-26157603D01*
X63076546Y-26104803D01*
X62972006Y-26000279D01*
X62972000Y-26000275D01*
X62849085Y-25918156D01*
X62849076Y-25918151D01*
X62712509Y-25861590D01*
X62712505Y-25861589D01*
X62712294Y-25861547D01*
X62567515Y-25832752D01*
X62567511Y-25832752D01*
X62493600Y-25832753D01*
X62424862Y-25832753D01*
X62424147Y-25832800D01*
X62419690Y-25832800D01*
X62310954Y-25854426D01*
X62274708Y-25861635D01*
X62274704Y-25861636D01*
X62138144Y-25918194D01*
X62138136Y-25918198D01*
X62015227Y-26000313D01*
X62015221Y-26000318D01*
X61998984Y-26016553D01*
X61932186Y-26055111D01*
X61855058Y-26055103D01*
X61788286Y-26016553D01*
X61772010Y-26000280D01*
X61772008Y-26000278D01*
X61772006Y-26000276D01*
X61649085Y-25918154D01*
X61649080Y-25918152D01*
X61649075Y-25918149D01*
X61512509Y-25861588D01*
X61512505Y-25861587D01*
X61512304Y-25861547D01*
X61367515Y-25832750D01*
X61367511Y-25832750D01*
X61293600Y-25832751D01*
X61224907Y-25832751D01*
X61224160Y-25832800D01*
X61219690Y-25832800D01*
X61110954Y-25854426D01*
X61074708Y-25861635D01*
X61074704Y-25861636D01*
X60938147Y-25918193D01*
X60938138Y-25918198D01*
X60815226Y-26000315D01*
X60815220Y-26000320D01*
X60798982Y-26016555D01*
X60732182Y-26055111D01*
X60655054Y-26055102D01*
X60588286Y-26016553D01*
X60572009Y-26000279D01*
X60572008Y-26000278D01*
X60572005Y-26000275D01*
X60548323Y-25984453D01*
X60449092Y-25918156D01*
X60449085Y-25918153D01*
X60449086Y-25918153D01*
X60449084Y-25918152D01*
X60312626Y-25861636D01*
X60312503Y-25861585D01*
X60250034Y-25849161D01*
X60167515Y-25832749D01*
X60167511Y-25832749D01*
X60093600Y-25832750D01*
X60024929Y-25832750D01*
X60024164Y-25832800D01*
X60019690Y-25832800D01*
X59957804Y-25845108D01*
X59874711Y-25861634D01*
X59738141Y-25918196D01*
X59738135Y-25918200D01*
X59615232Y-26000310D01*
X59615221Y-26000319D01*
X59598971Y-26016566D01*
X59532171Y-26055122D01*
X59455043Y-26055113D01*
X59388259Y-26016547D01*
X59372025Y-26000311D01*
X59348295Y-25984453D01*
X59249108Y-25918170D01*
X59249096Y-25918164D01*
X59112523Y-25861589D01*
X59112514Y-25861586D01*
X58967522Y-25832743D01*
X58955344Y-25832742D01*
X58955183Y-25832699D01*
X58819678Y-25832700D01*
X58734524Y-25849640D01*
X58674668Y-25861547D01*
X58674666Y-25861547D01*
X58674665Y-25861548D01*
X58538076Y-25918131D01*
X58538070Y-25918134D01*
X58415154Y-26000274D01*
X58415148Y-26000278D01*
X58310610Y-26104830D01*
X58310607Y-26104834D01*
X58228484Y-26227764D01*
X58171918Y-26364365D01*
X58143090Y-26509383D01*
X58143094Y-26535682D01*
X58123141Y-26610185D01*
X58068609Y-26664729D01*
X57994112Y-26684700D01*
X36171953Y-26684700D01*
X36097453Y-26664738D01*
X36066594Y-26641059D01*
X35195192Y-25769658D01*
X35156628Y-25702863D01*
X35152637Y-25682259D01*
X35148321Y-25646709D01*
X35087999Y-25487651D01*
X34991364Y-25347652D01*
X34991361Y-25347649D01*
X34991360Y-25347648D01*
X34864034Y-25234848D01*
X34864035Y-25234848D01*
X34713405Y-25155790D01*
X34548237Y-25115081D01*
X34378125Y-25115081D01*
X34212956Y-25155790D01*
X34062326Y-25234848D01*
X33935001Y-25347648D01*
X33934998Y-25347652D01*
X33838362Y-25487651D01*
X33778041Y-25646706D01*
X33757536Y-25815581D01*
X30774500Y-25815581D01*
X30774500Y-23341612D01*
X30794462Y-23267112D01*
X30828976Y-23226433D01*
X30832663Y-23223406D01*
X30852515Y-23207115D01*
X30985040Y-23045633D01*
X31083515Y-22861399D01*
X31144155Y-22661494D01*
X31164631Y-22453600D01*
X31144155Y-22245706D01*
X31087406Y-22058631D01*
X31084883Y-21981547D01*
X31121241Y-21913526D01*
X31186737Y-21872797D01*
X31217999Y-21863315D01*
X31386982Y-21772992D01*
X31402222Y-21764846D01*
X31402222Y-21764845D01*
X31402233Y-21764840D01*
X31563715Y-21632315D01*
X31696240Y-21470833D01*
X31701707Y-21460606D01*
X31723466Y-21419896D01*
X31741835Y-21385530D01*
X34896625Y-21385530D01*
X34917130Y-21554404D01*
X34977451Y-21713459D01*
X34977452Y-21713460D01*
X35074087Y-21853459D01*
X35074089Y-21853460D01*
X35074090Y-21853462D01*
X35201416Y-21966262D01*
X35201418Y-21966264D01*
X35352045Y-22045320D01*
X35517214Y-22086030D01*
X35687326Y-22086030D01*
X35852495Y-22045320D01*
X36003122Y-21966264D01*
X36130453Y-21853459D01*
X36227088Y-21713460D01*
X36238146Y-21684300D01*
X36272101Y-21631781D01*
X37291022Y-20612860D01*
X37327133Y-20586290D01*
X37362373Y-20567796D01*
X37489704Y-20454991D01*
X37586339Y-20314992D01*
X37646661Y-20155934D01*
X37667166Y-19987062D01*
X37646661Y-19818190D01*
X37628018Y-19769033D01*
X37586339Y-19659132D01*
X37580647Y-19650886D01*
X37489704Y-19519133D01*
X37489701Y-19519130D01*
X37489700Y-19519129D01*
X37362374Y-19406329D01*
X37362375Y-19406329D01*
X37211745Y-19327271D01*
X37046577Y-19286562D01*
X36876465Y-19286562D01*
X36711296Y-19327271D01*
X36560666Y-19406329D01*
X36433342Y-19519128D01*
X36433332Y-19519139D01*
X36350083Y-19639744D01*
X36332819Y-19660460D01*
X35142232Y-20851048D01*
X35135681Y-20857214D01*
X35092944Y-20895076D01*
X35092934Y-20895088D01*
X35092870Y-20895182D01*
X35079460Y-20910323D01*
X35080062Y-20910857D01*
X35074086Y-20917601D01*
X35032677Y-20977591D01*
X35027352Y-20984827D01*
X35019945Y-20994282D01*
X35015285Y-21001990D01*
X35014901Y-21001758D01*
X35009993Y-21010453D01*
X34977453Y-21057597D01*
X34977449Y-21057605D01*
X34917131Y-21216651D01*
X34917130Y-21216657D01*
X34917130Y-21216658D01*
X34911407Y-21263792D01*
X34896625Y-21385530D01*
X31741835Y-21385530D01*
X31794715Y-21286599D01*
X31855355Y-21086694D01*
X31875831Y-20878800D01*
X31855355Y-20670906D01*
X31854463Y-20667967D01*
X31829686Y-20586287D01*
X31794715Y-20471001D01*
X31753782Y-20394420D01*
X31696246Y-20286777D01*
X31696243Y-20286772D01*
X31696240Y-20286767D01*
X31624059Y-20198814D01*
X31592228Y-20128563D01*
X31599788Y-20051806D01*
X31644713Y-19989113D01*
X31644714Y-19989112D01*
X31666602Y-19971149D01*
X31716115Y-19930515D01*
X31848640Y-19769033D01*
X31947115Y-19584799D01*
X32007755Y-19384894D01*
X32028231Y-19177000D01*
X32007755Y-18969106D01*
X32007488Y-18968227D01*
X31977934Y-18870800D01*
X31947115Y-18769201D01*
X31902084Y-18684953D01*
X31848646Y-18584977D01*
X31848642Y-18584972D01*
X31848640Y-18584967D01*
X31716115Y-18423485D01*
X31712096Y-18420187D01*
X31554634Y-18290961D01*
X31554635Y-18290961D01*
X31554633Y-18290960D01*
X31554630Y-18290958D01*
X31554622Y-18290953D01*
X31370403Y-18192487D01*
X31370401Y-18192486D01*
X31370399Y-18192485D01*
X31345599Y-18184962D01*
X31170496Y-18131845D01*
X31170497Y-18131845D01*
X30962600Y-18111369D01*
X30754702Y-18131845D01*
X30554803Y-18192484D01*
X30554796Y-18192487D01*
X30370577Y-18290953D01*
X30370565Y-18290961D01*
X30209086Y-18423483D01*
X30209083Y-18423486D01*
X30076561Y-18584965D01*
X30076553Y-18584977D01*
X29978087Y-18769196D01*
X29978085Y-18769201D01*
X29936551Y-18906120D01*
X29899326Y-18968226D01*
X29439514Y-19428037D01*
X29376158Y-19307324D01*
X29269875Y-19187355D01*
X29137970Y-19096307D01*
X29084438Y-19076005D01*
X29525750Y-18634694D01*
X29461406Y-18589639D01*
X29461401Y-18589637D01*
X29261592Y-18496465D01*
X29048631Y-18439401D01*
X28829000Y-18420187D01*
X28609368Y-18439401D01*
X28396407Y-18496465D01*
X28196596Y-18589638D01*
X28196590Y-18589641D01*
X28132248Y-18634693D01*
X28132247Y-18634693D01*
X28573559Y-19076005D01*
X28520030Y-19096307D01*
X28388125Y-19187355D01*
X28281842Y-19307324D01*
X28218485Y-19428039D01*
X27758673Y-18968227D01*
X27721449Y-18906121D01*
X27679915Y-18769201D01*
X27634884Y-18684953D01*
X27581446Y-18584977D01*
X27581442Y-18584972D01*
X27581440Y-18584967D01*
X27448915Y-18423485D01*
X27444896Y-18420187D01*
X27287434Y-18290961D01*
X27287435Y-18290961D01*
X27287433Y-18290960D01*
X27287430Y-18290958D01*
X27287422Y-18290953D01*
X27103203Y-18192487D01*
X27103201Y-18192486D01*
X27103199Y-18192485D01*
X27078399Y-18184962D01*
X26903296Y-18131845D01*
X26903297Y-18131845D01*
X26695400Y-18111369D01*
X26487502Y-18131845D01*
X26287603Y-18192484D01*
X26287596Y-18192487D01*
X26103377Y-18290953D01*
X26103365Y-18290961D01*
X25941886Y-18423483D01*
X25941883Y-18423486D01*
X25809361Y-18584965D01*
X25809353Y-18584977D01*
X25710887Y-18769196D01*
X25710884Y-18769203D01*
X25650245Y-18969102D01*
X25629769Y-19177000D01*
X25650245Y-19384897D01*
X25710884Y-19584796D01*
X25710887Y-19584803D01*
X25809353Y-19769022D01*
X25809361Y-19769034D01*
X25941883Y-19930513D01*
X25941887Y-19930517D01*
X26013286Y-19989113D01*
X26058211Y-20051806D01*
X26065771Y-20128563D01*
X26033940Y-20198815D01*
X25961762Y-20286764D01*
X25961753Y-20286777D01*
X25863287Y-20470996D01*
X25863284Y-20471003D01*
X25802645Y-20670902D01*
X25782169Y-20878800D01*
X25802645Y-21086697D01*
X25802646Y-21086700D01*
X25808621Y-21106398D01*
X25811143Y-21183485D01*
X25774783Y-21251505D01*
X25771395Y-21255005D01*
X25512513Y-21513889D01*
X25445719Y-21552453D01*
X25407154Y-21557530D01*
X23893197Y-21557530D01*
X23884201Y-21557258D01*
X23876314Y-21556780D01*
X23827201Y-21553810D01*
X23827200Y-21553810D01*
X23827198Y-21553810D01*
X23771038Y-21564102D01*
X23762142Y-21565456D01*
X23705443Y-21572341D01*
X23705440Y-21572342D01*
X23698798Y-21574861D01*
X23672836Y-21582099D01*
X23665845Y-21583380D01*
X23613764Y-21606819D01*
X23605456Y-21610260D01*
X23552059Y-21630512D01*
X23546207Y-21634551D01*
X23522747Y-21647782D01*
X23516260Y-21650702D01*
X23516258Y-21650703D01*
X23471302Y-21685925D01*
X23464052Y-21691259D01*
X23417062Y-21723693D01*
X23417050Y-21723703D01*
X23379187Y-21766441D01*
X23373021Y-21772992D01*
X22735809Y-22410204D01*
X22699696Y-22436777D01*
X22664456Y-22455273D01*
X22647593Y-22470212D01*
X22578591Y-22504671D01*
X22501604Y-22500013D01*
X22437260Y-22457485D01*
X22426176Y-22443337D01*
X22390728Y-22391982D01*
X22390724Y-22391978D01*
X22263398Y-22279178D01*
X22263399Y-22279178D01*
X22112769Y-22200120D01*
X21947601Y-22159411D01*
X21777489Y-22159411D01*
X21612320Y-22200120D01*
X21461690Y-22279178D01*
X21334365Y-22391978D01*
X21334362Y-22391982D01*
X21237726Y-22531981D01*
X21177405Y-22691036D01*
X21156900Y-22859911D01*
X21177405Y-23028785D01*
X21231371Y-23171082D01*
X21237727Y-23187841D01*
X21334362Y-23327840D01*
X21347688Y-23339646D01*
X21359040Y-23349702D01*
X21401567Y-23414047D01*
X21408299Y-23477908D01*
X21407275Y-23486996D01*
X21407275Y-23486999D01*
X21417811Y-23542685D01*
X21418743Y-23548173D01*
X21427196Y-23604250D01*
X21429714Y-23612412D01*
X21432521Y-23620436D01*
X21459019Y-23670572D01*
X21461530Y-23675546D01*
X21486117Y-23726601D01*
X21490929Y-23733660D01*
X21495979Y-23740502D01*
X21536078Y-23780601D01*
X21539918Y-23784587D01*
X21578490Y-23826158D01*
X21578492Y-23826159D01*
X21587220Y-23833120D01*
X21586452Y-23834082D01*
X21599802Y-23844325D01*
X21835373Y-24079896D01*
X21846506Y-24092354D01*
X21867849Y-24119118D01*
X21914672Y-24151041D01*
X21919214Y-24154263D01*
X21944339Y-24172805D01*
X21964846Y-24187940D01*
X21964847Y-24187940D01*
X21964848Y-24187941D01*
X21972408Y-24191936D01*
X21980053Y-24195618D01*
X21980056Y-24195620D01*
X22034250Y-24212336D01*
X22039525Y-24214071D01*
X22093029Y-24232794D01*
X22093030Y-24232794D01*
X22101384Y-24234375D01*
X22109824Y-24235647D01*
X22109827Y-24235648D01*
X22166511Y-24235648D01*
X22172081Y-24235752D01*
X22228739Y-24237872D01*
X22228743Y-24237871D01*
X22239838Y-24236622D01*
X22239975Y-24237845D01*
X22256656Y-24235648D01*
X23210087Y-24235648D01*
X23284587Y-24255610D01*
X23308892Y-24273120D01*
X23413597Y-24365880D01*
X23413599Y-24365882D01*
X23564226Y-24444938D01*
X23729395Y-24485648D01*
X23899507Y-24485648D01*
X24064676Y-24444938D01*
X24215303Y-24365882D01*
X24342634Y-24253077D01*
X24439269Y-24113078D01*
X24499591Y-23954020D01*
X24520096Y-23785148D01*
X24499591Y-23616276D01*
X24478729Y-23561268D01*
X24439269Y-23457218D01*
X24421702Y-23431768D01*
X24342634Y-23317219D01*
X24342631Y-23317216D01*
X24342630Y-23317215D01*
X24218352Y-23207115D01*
X24215304Y-23204415D01*
X24215305Y-23204415D01*
X24211162Y-23202241D01*
X24186815Y-23189462D01*
X24130126Y-23137165D01*
X24107181Y-23063529D01*
X24124127Y-22988286D01*
X24176425Y-22931596D01*
X24250061Y-22908651D01*
X24256060Y-22908530D01*
X25723773Y-22908530D01*
X25732768Y-22908801D01*
X25789758Y-22912249D01*
X25845946Y-22901952D01*
X25854789Y-22900605D01*
X25911518Y-22893718D01*
X25918147Y-22891203D01*
X25944140Y-22883957D01*
X25951112Y-22882680D01*
X26003218Y-22859228D01*
X26011470Y-22855810D01*
X26064899Y-22835548D01*
X26070736Y-22831518D01*
X26094224Y-22818270D01*
X26100701Y-22815356D01*
X26145665Y-22780127D01*
X26152887Y-22774812D01*
X26199902Y-22742362D01*
X26237778Y-22699607D01*
X26243914Y-22693088D01*
X26282594Y-22654408D01*
X26349387Y-22615846D01*
X26426515Y-22615846D01*
X26493310Y-22654410D01*
X26530535Y-22716516D01*
X26552812Y-22789951D01*
X26573830Y-22859241D01*
X26574485Y-22861398D01*
X26574487Y-22861403D01*
X26672953Y-23045622D01*
X26672961Y-23045634D01*
X26775912Y-23171081D01*
X26805485Y-23207115D01*
X26966967Y-23339640D01*
X26966972Y-23339642D01*
X26966977Y-23339646D01*
X27073644Y-23396660D01*
X27151201Y-23438115D01*
X27351103Y-23498754D01*
X27351106Y-23498755D01*
X27559000Y-23519231D01*
X27766894Y-23498755D01*
X27966799Y-23438115D01*
X28151033Y-23339640D01*
X28312515Y-23207115D01*
X28445040Y-23045633D01*
X28543515Y-22861399D01*
X28604155Y-22661494D01*
X28624631Y-22453600D01*
X28604155Y-22245706D01*
X28543515Y-22045801D01*
X28501001Y-21966262D01*
X28445046Y-21861577D01*
X28445042Y-21861572D01*
X28445040Y-21861567D01*
X28356690Y-21753912D01*
X28312516Y-21700086D01*
X28312513Y-21700083D01*
X28165777Y-21579660D01*
X28151033Y-21567560D01*
X28151030Y-21567558D01*
X28151022Y-21567553D01*
X27966803Y-21469087D01*
X27966802Y-21469086D01*
X27966799Y-21469085D01*
X27935536Y-21459601D01*
X27870040Y-21418872D01*
X27833683Y-21350851D01*
X27836206Y-21273769D01*
X27892955Y-21086694D01*
X27913431Y-20878800D01*
X27913430Y-20878796D01*
X27913431Y-20878794D01*
X27913431Y-20871480D01*
X27915664Y-20871480D01*
X27926377Y-20806587D01*
X27975306Y-20746966D01*
X28047490Y-20719797D01*
X28123588Y-20732360D01*
X28147560Y-20746026D01*
X28196591Y-20780359D01*
X28196598Y-20780362D01*
X28396407Y-20873534D01*
X28609368Y-20930598D01*
X28829000Y-20949812D01*
X29048631Y-20930598D01*
X29261592Y-20873534D01*
X29461401Y-20780362D01*
X29461410Y-20780357D01*
X29510438Y-20746027D01*
X29582914Y-20719646D01*
X29658871Y-20733038D01*
X29717955Y-20782614D01*
X29744336Y-20855090D01*
X29744249Y-20871480D01*
X29744569Y-20871480D01*
X29744569Y-20878794D01*
X29744569Y-20878797D01*
X29744569Y-20878800D01*
X29756702Y-21001990D01*
X29765045Y-21086697D01*
X29821792Y-21273766D01*
X29824316Y-21350853D01*
X29787957Y-21418874D01*
X29722463Y-21459601D01*
X29691198Y-21469085D01*
X29506978Y-21567553D01*
X29506965Y-21567561D01*
X29345486Y-21700083D01*
X29345483Y-21700086D01*
X29212961Y-21861565D01*
X29212953Y-21861577D01*
X29114487Y-22045796D01*
X29114484Y-22045803D01*
X29053845Y-22245702D01*
X29033369Y-22453600D01*
X29053845Y-22661497D01*
X29114484Y-22861396D01*
X29114487Y-22861403D01*
X29212953Y-23045622D01*
X29212961Y-23045634D01*
X29345483Y-23207113D01*
X29345486Y-23207116D01*
X29369024Y-23226433D01*
X29413950Y-23289126D01*
X29423500Y-23341612D01*
X29423500Y-25744281D01*
X29403538Y-25818781D01*
X29379859Y-25849640D01*
X28160236Y-27069263D01*
X28093441Y-27107827D01*
X28054877Y-27112904D01*
X25367917Y-27112904D01*
X25293417Y-27092942D01*
X25238879Y-27038404D01*
X25218917Y-26963904D01*
X25238879Y-26889404D01*
X25262558Y-26858545D01*
X25292962Y-26828141D01*
X25359757Y-26789577D01*
X25398321Y-26784500D01*
X25485056Y-26784500D01*
X25650225Y-26743790D01*
X25800852Y-26664734D01*
X25928183Y-26551929D01*
X26024818Y-26411930D01*
X26085140Y-26252872D01*
X26105645Y-26084000D01*
X26085140Y-25915128D01*
X26064853Y-25861636D01*
X26024818Y-25756070D01*
X26016681Y-25744281D01*
X25928183Y-25616071D01*
X25928180Y-25616068D01*
X25928179Y-25616067D01*
X25800853Y-25503267D01*
X25800854Y-25503267D01*
X25650224Y-25424209D01*
X25485056Y-25383500D01*
X25314944Y-25383500D01*
X25149775Y-25424209D01*
X24999145Y-25503267D01*
X24871820Y-25616067D01*
X24871817Y-25616071D01*
X24775181Y-25756070D01*
X24714860Y-25915125D01*
X24711620Y-25941808D01*
X24696332Y-26067724D01*
X24694355Y-26084003D01*
X24694355Y-26090823D01*
X24674393Y-26165323D01*
X24650714Y-26196182D01*
X24507038Y-26339859D01*
X24440244Y-26378423D01*
X24401679Y-26383500D01*
X21875321Y-26383500D01*
X21800821Y-26363538D01*
X21769962Y-26339859D01*
X20750358Y-25320255D01*
X20739224Y-25307796D01*
X20717879Y-25281030D01*
X20671032Y-25249090D01*
X20666489Y-25245866D01*
X20620883Y-25212207D01*
X20613324Y-25208212D01*
X20605671Y-25204527D01*
X20551501Y-25187818D01*
X20546208Y-25186077D01*
X20492700Y-25167354D01*
X20484330Y-25165770D01*
X20475902Y-25164500D01*
X20475901Y-25164500D01*
X20419217Y-25164500D01*
X20413647Y-25164396D01*
X20409632Y-25164245D01*
X20356990Y-25162276D01*
X20356989Y-25162276D01*
X20356985Y-25162276D01*
X20345891Y-25163526D01*
X20345753Y-25162302D01*
X20329073Y-25164500D01*
X19107914Y-25164500D01*
X19033414Y-25144538D01*
X18978876Y-25090000D01*
X18962410Y-25028550D01*
X18952361Y-25015000D01*
X18197683Y-25015000D01*
X18269001Y-24930007D01*
X18308200Y-24822306D01*
X18308200Y-24707694D01*
X18269001Y-24599993D01*
X18197683Y-24515000D01*
X18952361Y-24515000D01*
X18992150Y-24461350D01*
X19052563Y-24413402D01*
X19128856Y-24402085D01*
X19147485Y-24405438D01*
X19174511Y-24412100D01*
X19344623Y-24412100D01*
X19509792Y-24371390D01*
X19660419Y-24292334D01*
X19787750Y-24179529D01*
X19884385Y-24039530D01*
X19944707Y-23880472D01*
X19965212Y-23711600D01*
X19944707Y-23542728D01*
X19944705Y-23542724D01*
X19942549Y-23533973D01*
X19943099Y-23533837D01*
X19935067Y-23490003D01*
X19935067Y-22509797D01*
X19955029Y-22435297D01*
X19978704Y-22404442D01*
X20662425Y-21720720D01*
X20698536Y-21694149D01*
X20733778Y-21675654D01*
X20738155Y-21671777D01*
X20824610Y-21595184D01*
X20861109Y-21562849D01*
X20957744Y-21422850D01*
X21018066Y-21263792D01*
X21038571Y-21094920D01*
X21018066Y-20926048D01*
X21012639Y-20911739D01*
X20957744Y-20766990D01*
X20925380Y-20720103D01*
X20861109Y-20626991D01*
X20861106Y-20626988D01*
X20861105Y-20626987D01*
X20733779Y-20514187D01*
X20733780Y-20514187D01*
X20583150Y-20435129D01*
X20417982Y-20394420D01*
X20247870Y-20394420D01*
X20082701Y-20435129D01*
X19932071Y-20514187D01*
X19804747Y-20626986D01*
X19804737Y-20626997D01*
X19721486Y-20747605D01*
X19704222Y-20768321D01*
X18868014Y-21604529D01*
X18801219Y-21643093D01*
X18724091Y-21643093D01*
X18657296Y-21604529D01*
X18618732Y-21537734D01*
X18618732Y-21460606D01*
X18636492Y-21419899D01*
X18708989Y-21304522D01*
X18768568Y-21134255D01*
X18787003Y-20970635D01*
X18788765Y-20955001D01*
X18788765Y-20954998D01*
X18777508Y-20855090D01*
X18768568Y-20775745D01*
X18708989Y-20605478D01*
X18613016Y-20452738D01*
X18585637Y-20425359D01*
X18547073Y-20358564D01*
X18547073Y-20281436D01*
X18585637Y-20214641D01*
X18613015Y-20187263D01*
X18613016Y-20187262D01*
X18708989Y-20034522D01*
X18768568Y-19864255D01*
X18788765Y-19685000D01*
X18785850Y-19659132D01*
X18768568Y-19505747D01*
X18768568Y-19505745D01*
X18708989Y-19335478D01*
X18613016Y-19182738D01*
X18585637Y-19155359D01*
X18547073Y-19088564D01*
X18547073Y-19011436D01*
X18585637Y-18944641D01*
X18613015Y-18917263D01*
X18613016Y-18917262D01*
X18708989Y-18764522D01*
X18768568Y-18594255D01*
X18788765Y-18415000D01*
X18787003Y-18399365D01*
X18768568Y-18235747D01*
X18768568Y-18235745D01*
X18708989Y-18065478D01*
X18613016Y-17912738D01*
X18585637Y-17885359D01*
X18547073Y-17818564D01*
X18547073Y-17741436D01*
X18585637Y-17674641D01*
X18613015Y-17647263D01*
X18613016Y-17647262D01*
X18708989Y-17494522D01*
X18768568Y-17324255D01*
X18788765Y-17145000D01*
X18768568Y-16965745D01*
X18708989Y-16795478D01*
X18613016Y-16642738D01*
X18585637Y-16615359D01*
X18547073Y-16548564D01*
X18547073Y-16471436D01*
X18585637Y-16404641D01*
X18613015Y-16377263D01*
X18613016Y-16377262D01*
X18708989Y-16224522D01*
X18768568Y-16054255D01*
X18788765Y-15875000D01*
X18768568Y-15695745D01*
X18708989Y-15525478D01*
X18613016Y-15372738D01*
X18485462Y-15245184D01*
X18332722Y-15149211D01*
X18162455Y-15089632D01*
X18162454Y-15089631D01*
X18162453Y-15089631D01*
X17983201Y-15069435D01*
X17983199Y-15069435D01*
X17803947Y-15089631D01*
X17633676Y-15149211D01*
X17598384Y-15171387D01*
X17524682Y-15194120D01*
X17449488Y-15176956D01*
X17413754Y-15150583D01*
X17385964Y-15122793D01*
X17283194Y-15077416D01*
X17283191Y-15077415D01*
X17283182Y-15077414D01*
X17258065Y-15074500D01*
X17258059Y-15074500D01*
X16168333Y-15074500D01*
X16143210Y-15077414D01*
X16143207Y-15077415D01*
X16040435Y-15122793D01*
X15960993Y-15202235D01*
X15915616Y-15305005D01*
X15915615Y-15305008D01*
X15915615Y-15305009D01*
X15912700Y-15330135D01*
X15912700Y-15330139D01*
X15912700Y-15330140D01*
X15912700Y-16419866D01*
X15915614Y-16444989D01*
X15915615Y-16444992D01*
X15960993Y-16547764D01*
X15988783Y-16575554D01*
X16027347Y-16642349D01*
X16027347Y-16719477D01*
X16009587Y-16760184D01*
X15987411Y-16795476D01*
X15927831Y-16965747D01*
X15907635Y-17144998D01*
X15907635Y-17145001D01*
X15927831Y-17324252D01*
X15927831Y-17324254D01*
X15927832Y-17324255D01*
X15987411Y-17494522D01*
X16001257Y-17516558D01*
X16011657Y-17533110D01*
X16034390Y-17606812D01*
X16017227Y-17682006D01*
X16000673Y-17706907D01*
X15877706Y-17856741D01*
X15784849Y-18030466D01*
X15744038Y-18164999D01*
X15744039Y-18165000D01*
X16498717Y-18165000D01*
X16427399Y-18249993D01*
X16388200Y-18357694D01*
X16388200Y-18472306D01*
X16427399Y-18580007D01*
X16498717Y-18665000D01*
X15744039Y-18665000D01*
X15784849Y-18799533D01*
X15877708Y-18973260D01*
X15877709Y-18973262D01*
X16000673Y-19123092D01*
X16032505Y-19193345D01*
X16024945Y-19270101D01*
X16011658Y-19296888D01*
X15987411Y-19335477D01*
X15927831Y-19505747D01*
X15907635Y-19684998D01*
X15907635Y-19685001D01*
X15927831Y-19864252D01*
X15987411Y-20034522D01*
X16066592Y-20160538D01*
X16089326Y-20234240D01*
X16072163Y-20309434D01*
X16019703Y-20365973D01*
X16015957Y-20367980D01*
X16015978Y-20368014D01*
X16008270Y-20372673D01*
X15963314Y-20407895D01*
X15956064Y-20413229D01*
X15909074Y-20445663D01*
X15909062Y-20445673D01*
X15871199Y-20488411D01*
X15865033Y-20494962D01*
X12897008Y-23462987D01*
X12890457Y-23469153D01*
X12847719Y-23507016D01*
X12847709Y-23507028D01*
X12815275Y-23554018D01*
X12809941Y-23561268D01*
X12774719Y-23606224D01*
X12774718Y-23606226D01*
X12771798Y-23612713D01*
X12758567Y-23636173D01*
X12754528Y-23642025D01*
X12734276Y-23695423D01*
X12730835Y-23703730D01*
X12707396Y-23755812D01*
X12707395Y-23755817D01*
X12706113Y-23762809D01*
X12698879Y-23788757D01*
X12696358Y-23795405D01*
X12696357Y-23795410D01*
X12689473Y-23852099D01*
X12688120Y-23860991D01*
X12677827Y-23917166D01*
X12681274Y-23974154D01*
X12681546Y-23983150D01*
X12681546Y-27454546D01*
X12681274Y-27463542D01*
X12677827Y-27520531D01*
X12688120Y-27576707D01*
X12689473Y-27585599D01*
X12696357Y-27642289D01*
X12698876Y-27648931D01*
X12706115Y-27674896D01*
X12707396Y-27681885D01*
X12707396Y-27681886D01*
X12730830Y-27733956D01*
X12734272Y-27742266D01*
X12754524Y-27795663D01*
X12754528Y-27795672D01*
X12758563Y-27801518D01*
X12771801Y-27824989D01*
X12774720Y-27831474D01*
X12774721Y-27831476D01*
X12809943Y-27876433D01*
X12815278Y-27883683D01*
X12847711Y-27930671D01*
X12847716Y-27930677D01*
X12890448Y-27968534D01*
X12897002Y-27974703D01*
X13170745Y-28248446D01*
X13176914Y-28255000D01*
X13214775Y-28297736D01*
X13261783Y-28330183D01*
X13269008Y-28335499D01*
X13301169Y-28360696D01*
X13313973Y-28370728D01*
X13313974Y-28370729D01*
X13313975Y-28370729D01*
X13313976Y-28370730D01*
X13320449Y-28373643D01*
X13343940Y-28386892D01*
X13349778Y-28390922D01*
X13403189Y-28411178D01*
X13411480Y-28414613D01*
X13415967Y-28416632D01*
X13475707Y-28465417D01*
X13503051Y-28537535D01*
X13490672Y-28613663D01*
X13441887Y-28673403D01*
X13369769Y-28700747D01*
X13354804Y-28701500D01*
X12087500Y-28701500D01*
X12013000Y-28681538D01*
X11958462Y-28627000D01*
X11938500Y-28552500D01*
X11938500Y-13802000D01*
X40289955Y-13802000D01*
X40310460Y-13970874D01*
X40370781Y-14129929D01*
X40446124Y-14239081D01*
X40472017Y-14311733D01*
X40472500Y-14323723D01*
X40472500Y-18974300D01*
X40472228Y-18983296D01*
X40468781Y-19040285D01*
X40479074Y-19096461D01*
X40480427Y-19105353D01*
X40487311Y-19162043D01*
X40489830Y-19168685D01*
X40497069Y-19194650D01*
X40498350Y-19201639D01*
X40498350Y-19201640D01*
X40521784Y-19253710D01*
X40525226Y-19262020D01*
X40545478Y-19315417D01*
X40545482Y-19315426D01*
X40549517Y-19321272D01*
X40562755Y-19344743D01*
X40565674Y-19351228D01*
X40565675Y-19351230D01*
X40600897Y-19396187D01*
X40606232Y-19403437D01*
X40638665Y-19450425D01*
X40638670Y-19450431D01*
X40681402Y-19488288D01*
X40687956Y-19494457D01*
X42439637Y-21246138D01*
X42478201Y-21312933D01*
X42478209Y-21382036D01*
X42479695Y-21382298D01*
X42478565Y-21388706D01*
X42458732Y-21615400D01*
X42478565Y-21842093D01*
X42500479Y-21923878D01*
X42537461Y-22061896D01*
X42633632Y-22268134D01*
X42633635Y-22268138D01*
X42633637Y-22268141D01*
X42764151Y-22454537D01*
X42925062Y-22615448D01*
X42990828Y-22661497D01*
X43111466Y-22745968D01*
X43317704Y-22842139D01*
X43537508Y-22901035D01*
X43764200Y-22920868D01*
X43990892Y-22901035D01*
X44210696Y-22842139D01*
X44322613Y-22789950D01*
X44398567Y-22776557D01*
X44471044Y-22802936D01*
X44520621Y-22862019D01*
X44534015Y-22912004D01*
X44535965Y-22934293D01*
X44565799Y-23045634D01*
X44594861Y-23154096D01*
X44691032Y-23360334D01*
X44691035Y-23360338D01*
X44691037Y-23360341D01*
X44821551Y-23546737D01*
X44982462Y-23707648D01*
X45057632Y-23760282D01*
X45168866Y-23838168D01*
X45375104Y-23934339D01*
X45594908Y-23993235D01*
X45821600Y-24013068D01*
X46048292Y-23993235D01*
X46268096Y-23934339D01*
X46474334Y-23838168D01*
X46660739Y-23707647D01*
X46821647Y-23546739D01*
X46952168Y-23360334D01*
X47048339Y-23154096D01*
X47107235Y-22934292D01*
X47109184Y-22912007D01*
X47135561Y-22839531D01*
X47194642Y-22789952D01*
X47270598Y-22776557D01*
X47320586Y-22789950D01*
X47432504Y-22842139D01*
X47652308Y-22901035D01*
X47879000Y-22920868D01*
X48105692Y-22901035D01*
X48325496Y-22842139D01*
X48531734Y-22745968D01*
X48718139Y-22615447D01*
X48879047Y-22454539D01*
X49009568Y-22268134D01*
X49029902Y-22224527D01*
X49079480Y-22165445D01*
X49151957Y-22139067D01*
X49164941Y-22138500D01*
X50224424Y-22138500D01*
X50260081Y-22142829D01*
X50343944Y-22163500D01*
X50514056Y-22163500D01*
X50679225Y-22122790D01*
X50829852Y-22043734D01*
X50957183Y-21930929D01*
X51053818Y-21790930D01*
X51114140Y-21631872D01*
X51134645Y-21463000D01*
X51114140Y-21294128D01*
X51106417Y-21273765D01*
X51053818Y-21135070D01*
X51034027Y-21106398D01*
X50957183Y-20995071D01*
X50957180Y-20995068D01*
X50957179Y-20995067D01*
X50844321Y-20895084D01*
X50829853Y-20882267D01*
X50829854Y-20882267D01*
X50679224Y-20803209D01*
X50514056Y-20762500D01*
X50343944Y-20762500D01*
X50262338Y-20782614D01*
X50260082Y-20783170D01*
X50224424Y-20787500D01*
X48952003Y-20787500D01*
X48877503Y-20767538D01*
X48846648Y-20743862D01*
X48718139Y-20615353D01*
X48706431Y-20607155D01*
X48656853Y-20548075D01*
X48643458Y-20472119D01*
X48669835Y-20399641D01*
X48706432Y-20363044D01*
X48718139Y-20354847D01*
X48879047Y-20193939D01*
X49009568Y-20007534D01*
X49105739Y-19801296D01*
X49164635Y-19581492D01*
X49184468Y-19354800D01*
X49164635Y-19128108D01*
X49105739Y-18908304D01*
X49009568Y-18702066D01*
X48930848Y-18589641D01*
X48879048Y-18515662D01*
X48718137Y-18354751D01*
X48531741Y-18224237D01*
X48531738Y-18224235D01*
X48531734Y-18224232D01*
X48325496Y-18128061D01*
X48105692Y-18069165D01*
X48105693Y-18069165D01*
X47879000Y-18049332D01*
X47652306Y-18069165D01*
X47432507Y-18128060D01*
X47432506Y-18128060D01*
X47432504Y-18128061D01*
X47226266Y-18224232D01*
X47226263Y-18224234D01*
X47226261Y-18224235D01*
X47226258Y-18224237D01*
X47039862Y-18354751D01*
X46878951Y-18515662D01*
X46748437Y-18702058D01*
X46748435Y-18702061D01*
X46748434Y-18702063D01*
X46748432Y-18702066D01*
X46669750Y-18870800D01*
X46652260Y-18908306D01*
X46646849Y-18928500D01*
X46608282Y-18995294D01*
X46541486Y-19033855D01*
X46464358Y-19033853D01*
X46432007Y-19020971D01*
X46426204Y-19017830D01*
X46191093Y-18937117D01*
X45945891Y-18896200D01*
X45697308Y-18896200D01*
X45452106Y-18937117D01*
X45216994Y-19017831D01*
X45216982Y-19017836D01*
X45211176Y-19020978D01*
X45136153Y-19038874D01*
X45062233Y-19016861D01*
X45009224Y-18960836D01*
X44996350Y-18928500D01*
X44990939Y-18908304D01*
X44894768Y-18702066D01*
X44816048Y-18589641D01*
X44764248Y-18515662D01*
X44603337Y-18354751D01*
X44416941Y-18224237D01*
X44416938Y-18224235D01*
X44416934Y-18224232D01*
X44210696Y-18128061D01*
X43990892Y-18069165D01*
X43990893Y-18069165D01*
X43764200Y-18049332D01*
X43537506Y-18069165D01*
X43317707Y-18128060D01*
X43317706Y-18128060D01*
X43317704Y-18128061D01*
X43111466Y-18224232D01*
X43111463Y-18224234D01*
X43111461Y-18224235D01*
X43111458Y-18224237D01*
X42925062Y-18354751D01*
X42764151Y-18515662D01*
X42633637Y-18702058D01*
X42633635Y-18702061D01*
X42633634Y-18702063D01*
X42633632Y-18702066D01*
X42554950Y-18870800D01*
X42537460Y-18908306D01*
X42493298Y-19073121D01*
X42454733Y-19139915D01*
X42387938Y-19178479D01*
X42310810Y-19178479D01*
X42244016Y-19139915D01*
X41867141Y-18763040D01*
X41828577Y-18696245D01*
X41823500Y-18657681D01*
X41823500Y-13979298D01*
X41823772Y-13970302D01*
X41827219Y-13913315D01*
X41816923Y-13857135D01*
X41815575Y-13848281D01*
X41808688Y-13791555D01*
X41806168Y-13784911D01*
X41798929Y-13758943D01*
X41797650Y-13751961D01*
X41774203Y-13699863D01*
X41770769Y-13691572D01*
X41750518Y-13638174D01*
X41746488Y-13632335D01*
X41733239Y-13608845D01*
X41730326Y-13602372D01*
X41730325Y-13602371D01*
X41730325Y-13602370D01*
X41730324Y-13602369D01*
X41720292Y-13589565D01*
X41695095Y-13557404D01*
X41689772Y-13550170D01*
X41657332Y-13503171D01*
X41627559Y-13476794D01*
X41603740Y-13449908D01*
X41523783Y-13334071D01*
X41523780Y-13334068D01*
X41523779Y-13334067D01*
X41396453Y-13221267D01*
X41396454Y-13221267D01*
X41245824Y-13142209D01*
X41080656Y-13101500D01*
X40910544Y-13101500D01*
X40745375Y-13142209D01*
X40594745Y-13221267D01*
X40467420Y-13334067D01*
X40467417Y-13334071D01*
X40370781Y-13474070D01*
X40310460Y-13633125D01*
X40289955Y-13802000D01*
X11938500Y-13802000D01*
X11938500Y-12087500D01*
X11958462Y-12013000D01*
X12013000Y-11958462D01*
X12087500Y-11938500D01*
X68684500Y-11938500D01*
X68759000Y-11958462D01*
G37*
%TD.AperFunction*%
%TD*%
M02*
