%TF.GenerationSoftware,KiCad,Pcbnew,7.0.10*%
%TF.CreationDate,2025-03-26T19:50:04+01:00*%
%TF.ProjectId,ConnectorInterfaceBoard,436f6e6e-6563-4746-9f72-496e74657266,rev?*%
%TF.SameCoordinates,Original*%
%TF.FileFunction,Legend,Top*%
%TF.FilePolarity,Positive*%
%FSLAX46Y46*%
G04 Gerber Fmt 4.6, Leading zero omitted, Abs format (unit mm)*
G04 Created by KiCad (PCBNEW 7.0.10) date 2025-03-26 19:50:04*
%MOMM*%
%LPD*%
G01*
G04 APERTURE LIST*
%ADD10C,0.150000*%
%ADD11C,0.100000*%
%ADD12C,0.120000*%
G04 APERTURE END LIST*
D10*
X17014866Y-13634819D02*
X17014866Y-14349104D01*
X17014866Y-14349104D02*
X16967247Y-14491961D01*
X16967247Y-14491961D02*
X16872009Y-14587200D01*
X16872009Y-14587200D02*
X16729152Y-14634819D01*
X16729152Y-14634819D02*
X16633914Y-14634819D01*
X17919628Y-13968152D02*
X17919628Y-14634819D01*
X17681533Y-13587200D02*
X17443438Y-14301485D01*
X17443438Y-14301485D02*
X18062485Y-14301485D01*
D11*
X18095666Y-16228219D02*
X18095666Y-16942504D01*
X18095666Y-16942504D02*
X18048047Y-17085361D01*
X18048047Y-17085361D02*
X17952809Y-17180600D01*
X17952809Y-17180600D02*
X17809952Y-17228219D01*
X17809952Y-17228219D02*
X17714714Y-17228219D01*
X19095666Y-17228219D02*
X18524238Y-17228219D01*
X18809952Y-17228219D02*
X18809952Y-16228219D01*
X18809952Y-16228219D02*
X18714714Y-16371076D01*
X18714714Y-16371076D02*
X18619476Y-16466314D01*
X18619476Y-16466314D02*
X18524238Y-16513933D01*
X23132884Y-16747980D02*
X23180503Y-16795600D01*
X23180503Y-16795600D02*
X23132884Y-16843219D01*
X23132884Y-16843219D02*
X23085265Y-16795600D01*
X23085265Y-16795600D02*
X23132884Y-16747980D01*
X23132884Y-16747980D02*
X23132884Y-16843219D01*
X25437646Y-23243219D02*
X26056693Y-23243219D01*
X26056693Y-23243219D02*
X25723360Y-23624171D01*
X25723360Y-23624171D02*
X25866217Y-23624171D01*
X25866217Y-23624171D02*
X25961455Y-23671790D01*
X25961455Y-23671790D02*
X26009074Y-23719409D01*
X26009074Y-23719409D02*
X26056693Y-23814647D01*
X26056693Y-23814647D02*
X26056693Y-24052742D01*
X26056693Y-24052742D02*
X26009074Y-24147980D01*
X26009074Y-24147980D02*
X25961455Y-24195600D01*
X25961455Y-24195600D02*
X25866217Y-24243219D01*
X25866217Y-24243219D02*
X25580503Y-24243219D01*
X25580503Y-24243219D02*
X25485265Y-24195600D01*
X25485265Y-24195600D02*
X25437646Y-24147980D01*
X33609074Y-20443219D02*
X33132884Y-20443219D01*
X33132884Y-20443219D02*
X33085265Y-20919409D01*
X33085265Y-20919409D02*
X33132884Y-20871790D01*
X33132884Y-20871790D02*
X33228122Y-20824171D01*
X33228122Y-20824171D02*
X33466217Y-20824171D01*
X33466217Y-20824171D02*
X33561455Y-20871790D01*
X33561455Y-20871790D02*
X33609074Y-20919409D01*
X33609074Y-20919409D02*
X33656693Y-21014647D01*
X33656693Y-21014647D02*
X33656693Y-21252742D01*
X33656693Y-21252742D02*
X33609074Y-21347980D01*
X33609074Y-21347980D02*
X33561455Y-21395600D01*
X33561455Y-21395600D02*
X33466217Y-21443219D01*
X33466217Y-21443219D02*
X33228122Y-21443219D01*
X33228122Y-21443219D02*
X33132884Y-21395600D01*
X33132884Y-21395600D02*
X33085265Y-21347980D01*
X24285265Y-20538457D02*
X24332884Y-20490838D01*
X24332884Y-20490838D02*
X24428122Y-20443219D01*
X24428122Y-20443219D02*
X24666217Y-20443219D01*
X24666217Y-20443219D02*
X24761455Y-20490838D01*
X24761455Y-20490838D02*
X24809074Y-20538457D01*
X24809074Y-20538457D02*
X24856693Y-20633695D01*
X24856693Y-20633695D02*
X24856693Y-20728933D01*
X24856693Y-20728933D02*
X24809074Y-20871790D01*
X24809074Y-20871790D02*
X24237646Y-21443219D01*
X24237646Y-21443219D02*
X24856693Y-21443219D01*
X33361455Y-17643219D02*
X33170979Y-17643219D01*
X33170979Y-17643219D02*
X33075741Y-17690838D01*
X33075741Y-17690838D02*
X33028122Y-17738457D01*
X33028122Y-17738457D02*
X32932884Y-17881314D01*
X32932884Y-17881314D02*
X32885265Y-18071790D01*
X32885265Y-18071790D02*
X32885265Y-18452742D01*
X32885265Y-18452742D02*
X32932884Y-18547980D01*
X32932884Y-18547980D02*
X32980503Y-18595600D01*
X32980503Y-18595600D02*
X33075741Y-18643219D01*
X33075741Y-18643219D02*
X33266217Y-18643219D01*
X33266217Y-18643219D02*
X33361455Y-18595600D01*
X33361455Y-18595600D02*
X33409074Y-18547980D01*
X33409074Y-18547980D02*
X33456693Y-18452742D01*
X33456693Y-18452742D02*
X33456693Y-18214647D01*
X33456693Y-18214647D02*
X33409074Y-18119409D01*
X33409074Y-18119409D02*
X33361455Y-18071790D01*
X33361455Y-18071790D02*
X33266217Y-18024171D01*
X33266217Y-18024171D02*
X33075741Y-18024171D01*
X33075741Y-18024171D02*
X32980503Y-18071790D01*
X32980503Y-18071790D02*
X32932884Y-18119409D01*
X32932884Y-18119409D02*
X32885265Y-18214647D01*
X25456693Y-18243219D02*
X24885265Y-18243219D01*
X25170979Y-18243219D02*
X25170979Y-17243219D01*
X25170979Y-17243219D02*
X25075741Y-17386076D01*
X25075741Y-17386076D02*
X24980503Y-17481314D01*
X24980503Y-17481314D02*
X24885265Y-17528933D01*
X29056693Y-18443219D02*
X28485265Y-18443219D01*
X28770979Y-18443219D02*
X28770979Y-17443219D01*
X28770979Y-17443219D02*
X28675741Y-17586076D01*
X28675741Y-17586076D02*
X28580503Y-17681314D01*
X28580503Y-17681314D02*
X28485265Y-17728933D01*
X32161455Y-23576552D02*
X32161455Y-24243219D01*
X31923360Y-23195600D02*
X31685265Y-23909885D01*
X31685265Y-23909885D02*
X32304312Y-23909885D01*
X49731666Y-18728219D02*
X49731666Y-19442504D01*
X49731666Y-19442504D02*
X49684047Y-19585361D01*
X49684047Y-19585361D02*
X49588809Y-19680600D01*
X49588809Y-19680600D02*
X49445952Y-19728219D01*
X49445952Y-19728219D02*
X49350714Y-19728219D01*
X50112619Y-18728219D02*
X50731666Y-18728219D01*
X50731666Y-18728219D02*
X50398333Y-19109171D01*
X50398333Y-19109171D02*
X50541190Y-19109171D01*
X50541190Y-19109171D02*
X50636428Y-19156790D01*
X50636428Y-19156790D02*
X50684047Y-19204409D01*
X50684047Y-19204409D02*
X50731666Y-19299647D01*
X50731666Y-19299647D02*
X50731666Y-19537742D01*
X50731666Y-19537742D02*
X50684047Y-19632980D01*
X50684047Y-19632980D02*
X50636428Y-19680600D01*
X50636428Y-19680600D02*
X50541190Y-19728219D01*
X50541190Y-19728219D02*
X50255476Y-19728219D01*
X50255476Y-19728219D02*
X50160238Y-19680600D01*
X50160238Y-19680600D02*
X50112619Y-19632980D01*
X59292693Y-18843219D02*
X58721265Y-18843219D01*
X59006979Y-18843219D02*
X59006979Y-17843219D01*
X59006979Y-17843219D02*
X58911741Y-17986076D01*
X58911741Y-17986076D02*
X58816503Y-18081314D01*
X58816503Y-18081314D02*
X58721265Y-18128933D01*
X59321265Y-23338457D02*
X59368884Y-23290838D01*
X59368884Y-23290838D02*
X59464122Y-23243219D01*
X59464122Y-23243219D02*
X59702217Y-23243219D01*
X59702217Y-23243219D02*
X59797455Y-23290838D01*
X59797455Y-23290838D02*
X59845074Y-23338457D01*
X59845074Y-23338457D02*
X59892693Y-23433695D01*
X59892693Y-23433695D02*
X59892693Y-23528933D01*
X59892693Y-23528933D02*
X59845074Y-23671790D01*
X59845074Y-23671790D02*
X59273646Y-24243219D01*
X59273646Y-24243219D02*
X59892693Y-24243219D01*
X67397455Y-18576552D02*
X67397455Y-19243219D01*
X67159360Y-18195600D02*
X66921265Y-18909885D01*
X66921265Y-18909885D02*
X67540312Y-18909885D01*
X65473646Y-23243219D02*
X66092693Y-23243219D01*
X66092693Y-23243219D02*
X65759360Y-23624171D01*
X65759360Y-23624171D02*
X65902217Y-23624171D01*
X65902217Y-23624171D02*
X65997455Y-23671790D01*
X65997455Y-23671790D02*
X66045074Y-23719409D01*
X66045074Y-23719409D02*
X66092693Y-23814647D01*
X66092693Y-23814647D02*
X66092693Y-24052742D01*
X66092693Y-24052742D02*
X66045074Y-24147980D01*
X66045074Y-24147980D02*
X65997455Y-24195600D01*
X65997455Y-24195600D02*
X65902217Y-24243219D01*
X65902217Y-24243219D02*
X65616503Y-24243219D01*
X65616503Y-24243219D02*
X65521265Y-24195600D01*
X65521265Y-24195600D02*
X65473646Y-24147980D01*
X63045074Y-17643219D02*
X62568884Y-17643219D01*
X62568884Y-17643219D02*
X62521265Y-18119409D01*
X62521265Y-18119409D02*
X62568884Y-18071790D01*
X62568884Y-18071790D02*
X62664122Y-18024171D01*
X62664122Y-18024171D02*
X62902217Y-18024171D01*
X62902217Y-18024171D02*
X62997455Y-18071790D01*
X62997455Y-18071790D02*
X63045074Y-18119409D01*
X63045074Y-18119409D02*
X63092693Y-18214647D01*
X63092693Y-18214647D02*
X63092693Y-18452742D01*
X63092693Y-18452742D02*
X63045074Y-18547980D01*
X63045074Y-18547980D02*
X62997455Y-18595600D01*
X62997455Y-18595600D02*
X62902217Y-18643219D01*
X62902217Y-18643219D02*
X62664122Y-18643219D01*
X62664122Y-18643219D02*
X62568884Y-18595600D01*
X62568884Y-18595600D02*
X62521265Y-18547980D01*
X56368884Y-17347980D02*
X56416503Y-17395600D01*
X56416503Y-17395600D02*
X56368884Y-17443219D01*
X56368884Y-17443219D02*
X56321265Y-17395600D01*
X56321265Y-17395600D02*
X56368884Y-17347980D01*
X56368884Y-17347980D02*
X56368884Y-17443219D01*
X31088266Y-18253619D02*
X31088266Y-18967904D01*
X31088266Y-18967904D02*
X31040647Y-19110761D01*
X31040647Y-19110761D02*
X30945409Y-19206000D01*
X30945409Y-19206000D02*
X30802552Y-19253619D01*
X30802552Y-19253619D02*
X30707314Y-19253619D01*
X31516838Y-18348857D02*
X31564457Y-18301238D01*
X31564457Y-18301238D02*
X31659695Y-18253619D01*
X31659695Y-18253619D02*
X31897790Y-18253619D01*
X31897790Y-18253619D02*
X31993028Y-18301238D01*
X31993028Y-18301238D02*
X32040647Y-18348857D01*
X32040647Y-18348857D02*
X32088266Y-18444095D01*
X32088266Y-18444095D02*
X32088266Y-18539333D01*
X32088266Y-18539333D02*
X32040647Y-18682190D01*
X32040647Y-18682190D02*
X31469219Y-19253619D01*
X31469219Y-19253619D02*
X32088266Y-19253619D01*
X42449293Y-18068619D02*
X41877865Y-18068619D01*
X42163579Y-18068619D02*
X42163579Y-17068619D01*
X42163579Y-17068619D02*
X42068341Y-17211476D01*
X42068341Y-17211476D02*
X41973103Y-17306714D01*
X41973103Y-17306714D02*
X41877865Y-17354333D01*
X50354055Y-21801952D02*
X50354055Y-22468619D01*
X50115960Y-21421000D02*
X49877865Y-22135285D01*
X49877865Y-22135285D02*
X50496912Y-22135285D01*
X41277865Y-21563857D02*
X41325484Y-21516238D01*
X41325484Y-21516238D02*
X41420722Y-21468619D01*
X41420722Y-21468619D02*
X41658817Y-21468619D01*
X41658817Y-21468619D02*
X41754055Y-21516238D01*
X41754055Y-21516238D02*
X41801674Y-21563857D01*
X41801674Y-21563857D02*
X41849293Y-21659095D01*
X41849293Y-21659095D02*
X41849293Y-21754333D01*
X41849293Y-21754333D02*
X41801674Y-21897190D01*
X41801674Y-21897190D02*
X41230246Y-22468619D01*
X41230246Y-22468619D02*
X41849293Y-22468619D01*
X40125484Y-16373380D02*
X40173103Y-16421000D01*
X40173103Y-16421000D02*
X40125484Y-16468619D01*
X40125484Y-16468619D02*
X40077865Y-16421000D01*
X40077865Y-16421000D02*
X40125484Y-16373380D01*
X40125484Y-16373380D02*
X40125484Y-16468619D01*
X45954055Y-17868619D02*
X45763579Y-17868619D01*
X45763579Y-17868619D02*
X45668341Y-17916238D01*
X45668341Y-17916238D02*
X45620722Y-17963857D01*
X45620722Y-17963857D02*
X45525484Y-18106714D01*
X45525484Y-18106714D02*
X45477865Y-18297190D01*
X45477865Y-18297190D02*
X45477865Y-18678142D01*
X45477865Y-18678142D02*
X45525484Y-18773380D01*
X45525484Y-18773380D02*
X45573103Y-18821000D01*
X45573103Y-18821000D02*
X45668341Y-18868619D01*
X45668341Y-18868619D02*
X45858817Y-18868619D01*
X45858817Y-18868619D02*
X45954055Y-18821000D01*
X45954055Y-18821000D02*
X46001674Y-18773380D01*
X46001674Y-18773380D02*
X46049293Y-18678142D01*
X46049293Y-18678142D02*
X46049293Y-18440047D01*
X46049293Y-18440047D02*
X46001674Y-18344809D01*
X46001674Y-18344809D02*
X45954055Y-18297190D01*
X45954055Y-18297190D02*
X45858817Y-18249571D01*
X45858817Y-18249571D02*
X45668341Y-18249571D01*
X45668341Y-18249571D02*
X45573103Y-18297190D01*
X45573103Y-18297190D02*
X45525484Y-18344809D01*
X45525484Y-18344809D02*
X45477865Y-18440047D01*
X45430246Y-24068619D02*
X46049293Y-24068619D01*
X46049293Y-24068619D02*
X45715960Y-24449571D01*
X45715960Y-24449571D02*
X45858817Y-24449571D01*
X45858817Y-24449571D02*
X45954055Y-24497190D01*
X45954055Y-24497190D02*
X46001674Y-24544809D01*
X46001674Y-24544809D02*
X46049293Y-24640047D01*
X46049293Y-24640047D02*
X46049293Y-24878142D01*
X46049293Y-24878142D02*
X46001674Y-24973380D01*
X46001674Y-24973380D02*
X45954055Y-25021000D01*
X45954055Y-25021000D02*
X45858817Y-25068619D01*
X45858817Y-25068619D02*
X45573103Y-25068619D01*
X45573103Y-25068619D02*
X45477865Y-25021000D01*
X45477865Y-25021000D02*
X45430246Y-24973380D01*
X49801674Y-17068619D02*
X49325484Y-17068619D01*
X49325484Y-17068619D02*
X49277865Y-17544809D01*
X49277865Y-17544809D02*
X49325484Y-17497190D01*
X49325484Y-17497190D02*
X49420722Y-17449571D01*
X49420722Y-17449571D02*
X49658817Y-17449571D01*
X49658817Y-17449571D02*
X49754055Y-17497190D01*
X49754055Y-17497190D02*
X49801674Y-17544809D01*
X49801674Y-17544809D02*
X49849293Y-17640047D01*
X49849293Y-17640047D02*
X49849293Y-17878142D01*
X49849293Y-17878142D02*
X49801674Y-17973380D01*
X49801674Y-17973380D02*
X49754055Y-18021000D01*
X49754055Y-18021000D02*
X49658817Y-18068619D01*
X49658817Y-18068619D02*
X49420722Y-18068619D01*
X49420722Y-18068619D02*
X49325484Y-18021000D01*
X49325484Y-18021000D02*
X49277865Y-17973380D01*
D12*
%TO.C,J4*%
X18290730Y-25460000D02*
X19113200Y-25460000D01*
X19113200Y-15180000D02*
X19113200Y-25460000D01*
X15583200Y-25460000D02*
X16405670Y-25460000D01*
X15583200Y-16635000D02*
X16149729Y-16635000D01*
X17473200Y-15311529D02*
X17473200Y-15180000D01*
X17276671Y-16635000D02*
X17419729Y-16635000D01*
X17473200Y-16581529D02*
X17473200Y-16438471D01*
X15583200Y-15115000D02*
X16713200Y-15115000D01*
X17473200Y-15180000D02*
X17675670Y-15180000D01*
X17020730Y-25460000D02*
X17675670Y-25460000D01*
X15583200Y-16635000D02*
X15583200Y-25460000D01*
X15583200Y-15875000D02*
X15583200Y-15115000D01*
X18290730Y-15180000D02*
X19113200Y-15180000D01*
D11*
%TO.C,J1*%
X25429000Y-25170800D02*
X32229000Y-25170800D01*
X27829000Y-14570800D02*
X27829000Y-15970800D01*
X27829000Y-15970800D02*
X29829000Y-15970800D01*
X29829000Y-15970800D02*
X29829000Y-14570800D01*
X34734500Y-20370800D02*
G75*
G03*
X22923500Y-20370800I-5905500J0D01*
G01*
X22923500Y-20370800D02*
G75*
G03*
X34734500Y-20370800I5905500J0D01*
G01*
%TO.C,J3*%
X59465000Y-25170800D02*
X66265000Y-25170800D01*
X61865000Y-14570800D02*
X61865000Y-15970800D01*
X61865000Y-15970800D02*
X63865000Y-15970800D01*
X63865000Y-15970800D02*
X63865000Y-14570800D01*
X68770500Y-20370800D02*
G75*
G03*
X56959500Y-20370800I-5905500J0D01*
G01*
X56959500Y-20370800D02*
G75*
G03*
X68770500Y-20370800I5905500J0D01*
G01*
%TO.C,J2*%
X42421600Y-25196200D02*
X49221600Y-25196200D01*
X44821600Y-14596200D02*
X44821600Y-15996200D01*
X44821600Y-15996200D02*
X46821600Y-15996200D01*
X46821600Y-15996200D02*
X46821600Y-14596200D01*
X51727100Y-20396200D02*
G75*
G03*
X39916100Y-20396200I-5905500J0D01*
G01*
X39916100Y-20396200D02*
G75*
G03*
X51727100Y-20396200I5905500J0D01*
G01*
%TD*%
M02*
