%TF.GenerationSoftware,KiCad,Pcbnew,7.0.10*%
%TF.CreationDate,2025-06-08T09:49:36+02:00*%
%TF.ProjectId,DIC_Addon,4449435f-4164-4646-9f6e-2e6b69636164,rev?*%
%TF.SameCoordinates,Original*%
%TF.FileFunction,Paste,Top*%
%TF.FilePolarity,Positive*%
%FSLAX46Y46*%
G04 Gerber Fmt 4.6, Leading zero omitted, Abs format (unit mm)*
G04 Created by KiCad (PCBNEW 7.0.10) date 2025-06-08 09:49:36*
%MOMM*%
%LPD*%
G01*
G04 APERTURE LIST*
G04 Aperture macros list*
%AMRoundRect*
0 Rectangle with rounded corners*
0 $1 Rounding radius*
0 $2 $3 $4 $5 $6 $7 $8 $9 X,Y pos of 4 corners*
0 Add a 4 corners polygon primitive as box body*
4,1,4,$2,$3,$4,$5,$6,$7,$8,$9,$2,$3,0*
0 Add four circle primitives for the rounded corners*
1,1,$1+$1,$2,$3*
1,1,$1+$1,$4,$5*
1,1,$1+$1,$6,$7*
1,1,$1+$1,$8,$9*
0 Add four rect primitives between the rounded corners*
20,1,$1+$1,$2,$3,$4,$5,0*
20,1,$1+$1,$4,$5,$6,$7,0*
20,1,$1+$1,$6,$7,$8,$9,0*
20,1,$1+$1,$8,$9,$2,$3,0*%
G04 Aperture macros list end*
%ADD10RoundRect,0.150000X-0.587500X-0.150000X0.587500X-0.150000X0.587500X0.150000X-0.587500X0.150000X0*%
%ADD11RoundRect,0.250000X0.250000X-0.250000X0.250000X0.250000X-0.250000X0.250000X-0.250000X-0.250000X0*%
%ADD12RoundRect,0.237500X-0.250000X-0.237500X0.250000X-0.237500X0.250000X0.237500X-0.250000X0.237500X0*%
%ADD13RoundRect,0.237500X0.250000X0.237500X-0.250000X0.237500X-0.250000X-0.237500X0.250000X-0.237500X0*%
%ADD14R,1.131799X0.568000*%
%ADD15RoundRect,0.237500X0.237500X-0.250000X0.237500X0.250000X-0.237500X0.250000X-0.237500X-0.250000X0*%
%ADD16RoundRect,0.250000X0.650000X-1.000000X0.650000X1.000000X-0.650000X1.000000X-0.650000X-1.000000X0*%
%ADD17RoundRect,0.250000X-1.000000X-0.650000X1.000000X-0.650000X1.000000X0.650000X-1.000000X0.650000X0*%
%ADD18RoundRect,0.250000X0.250000X0.250000X-0.250000X0.250000X-0.250000X-0.250000X0.250000X-0.250000X0*%
%ADD19R,0.568000X1.131799*%
%ADD20RoundRect,0.250000X0.400000X0.625000X-0.400000X0.625000X-0.400000X-0.625000X0.400000X-0.625000X0*%
%ADD21RoundRect,0.150000X0.587500X0.150000X-0.587500X0.150000X-0.587500X-0.150000X0.587500X-0.150000X0*%
%ADD22RoundRect,0.250000X0.625000X-0.400000X0.625000X0.400000X-0.625000X0.400000X-0.625000X-0.400000X0*%
%ADD23RoundRect,0.237500X-0.237500X0.250000X-0.237500X-0.250000X0.237500X-0.250000X0.237500X0.250000X0*%
%ADD24RoundRect,0.150000X0.150000X-0.587500X0.150000X0.587500X-0.150000X0.587500X-0.150000X-0.587500X0*%
G04 APERTURE END LIST*
D10*
%TO.C,Q6*%
X36273500Y-17312000D03*
X36273500Y-19212000D03*
X38148500Y-18262000D03*
%TD*%
D11*
%TO.C,D16*%
X13742500Y-41616000D03*
X13742500Y-39116000D03*
%TD*%
D12*
%TO.C,R41*%
X15520500Y-42799000D03*
X17345500Y-42799000D03*
%TD*%
D13*
%TO.C,R12*%
X30833700Y-15087600D03*
X29008700Y-15087600D03*
%TD*%
D14*
%TO.C,Q14*%
X52124000Y-45815999D03*
X52124000Y-47716001D03*
X54410000Y-46766000D03*
%TD*%
D15*
%TO.C,R13*%
X32639000Y-19682500D03*
X32639000Y-17857500D03*
%TD*%
D16*
%TO.C,D6*%
X55477000Y-18896000D03*
X55477000Y-14896000D03*
%TD*%
D13*
%TO.C,R9*%
X62126500Y-13905900D03*
X60301500Y-13905900D03*
%TD*%
D15*
%TO.C,R31*%
X50473000Y-47720999D03*
X50473000Y-45895999D03*
%TD*%
D12*
%TO.C,R14*%
X36497500Y-15722000D03*
X38322500Y-15722000D03*
%TD*%
%TO.C,R35*%
X47020500Y-37924500D03*
X48845500Y-37924500D03*
%TD*%
D16*
%TO.C,D17*%
X20828000Y-36925000D03*
X20828000Y-32925000D03*
%TD*%
D17*
%TO.C,D15*%
X51255000Y-43210000D03*
X55255000Y-43210000D03*
%TD*%
D18*
%TO.C,D13*%
X49076000Y-32336500D03*
X46576000Y-32336500D03*
%TD*%
D15*
%TO.C,R32*%
X56061000Y-47617499D03*
X56061000Y-45792499D03*
%TD*%
%TO.C,R24*%
X50461000Y-37010500D03*
X50461000Y-35185500D03*
%TD*%
D19*
%TO.C,Q16*%
X16299999Y-35941000D03*
X18200001Y-35941000D03*
X17250000Y-33655000D03*
%TD*%
D13*
%TO.C,R39*%
X28769499Y-32131000D03*
X26944499Y-32131000D03*
%TD*%
D12*
%TO.C,R11*%
X36450500Y-14198000D03*
X38275500Y-14198000D03*
%TD*%
D14*
%TO.C,Q13*%
X52124000Y-35020999D03*
X52124000Y-36921001D03*
X54410000Y-35971000D03*
%TD*%
D16*
%TO.C,D9*%
X51943000Y-18865000D03*
X51943000Y-14865000D03*
%TD*%
%TO.C,D18*%
X24362000Y-36925000D03*
X24362000Y-32925000D03*
%TD*%
D12*
%TO.C,R37*%
X16337500Y-32004000D03*
X18162500Y-32004000D03*
%TD*%
D13*
%TO.C,R34*%
X45416500Y-34114500D03*
X43591500Y-34114500D03*
%TD*%
%TO.C,R33*%
X45012000Y-32336500D03*
X43187000Y-32336500D03*
%TD*%
D11*
%TO.C,D4*%
X30861000Y-19515500D03*
X30861000Y-17015500D03*
%TD*%
D20*
%TO.C,TH6*%
X24134000Y-39624000D03*
X21034000Y-39624000D03*
%TD*%
D15*
%TO.C,R40*%
X13742500Y-37615500D03*
X13742500Y-35790500D03*
%TD*%
D13*
%TO.C,R8*%
X61999500Y-19493900D03*
X60174500Y-19493900D03*
%TD*%
D19*
%TO.C,Q17*%
X26967999Y-36068000D03*
X28868001Y-36068000D03*
X27918000Y-33782000D03*
%TD*%
D13*
%TO.C,R36*%
X18289500Y-37592000D03*
X16464500Y-37592000D03*
%TD*%
D21*
%TO.C,Q18*%
X17601000Y-41209000D03*
X17601000Y-39309000D03*
X15726000Y-40259000D03*
%TD*%
D22*
%TO.C,TH2*%
X41529000Y-19812000D03*
X41529000Y-16712000D03*
%TD*%
D17*
%TO.C,D14*%
X51255000Y-39584000D03*
X55255000Y-39584000D03*
%TD*%
D15*
%TO.C,R42*%
X19330500Y-41298500D03*
X19330500Y-39473500D03*
%TD*%
D13*
%TO.C,R10*%
X49299500Y-13563000D03*
X47474500Y-13563000D03*
%TD*%
D19*
%TO.C,Q5*%
X45908001Y-13563000D03*
X44007999Y-13563000D03*
X44958000Y-15849000D03*
%TD*%
D13*
%TO.C,R38*%
X28896499Y-37719000D03*
X27071499Y-37719000D03*
%TD*%
D23*
%TO.C,R30*%
X56061000Y-35096001D03*
X56061000Y-36921001D03*
%TD*%
D24*
%TO.C,Q15*%
X46983000Y-36195000D03*
X48883000Y-36195000D03*
X47933000Y-34320000D03*
%TD*%
D22*
%TO.C,TH4*%
X48568000Y-42728000D03*
X48568000Y-39628000D03*
%TD*%
D19*
%TO.C,Q4*%
X60263999Y-17842900D03*
X62164001Y-17842900D03*
X61214000Y-15556900D03*
%TD*%
M02*
