M48
; DRILL file {KiCad 7.0.10} date Sun Apr 14 19:08:22 2024
; FORMAT={-:-/ absolute / inch / decimal}
; #@! TF.CreationDate,2024-04-14T19:08:22+02:00
; #@! TF.GenerationSoftware,Kicad,Pcbnew,7.0.10
; #@! TF.FileFunction,Plated,1,2,PTH
FMAT,2
INCH
; #@! TA.AperFunction,Plated,PTH,ViaDrill
T1C0.0157
; #@! TA.AperFunction,Plated,PTH,ViaDrill
T2C0.0256
; #@! TA.AperFunction,Plated,PTH,ComponentDrill
T3C0.0394
; #@! TA.AperFunction,Plated,PTH,ComponentDrill
T4C0.0402
; #@! TA.AperFunction,Plated,PTH,ViaDrill
T5C0.0413
; #@! TA.AperFunction,Plated,PTH,ComponentDrill
T6C0.0591
; #@! TA.AperFunction,Plated,PTH,ComponentDrill
T7C0.0669
%
G90
G05
T1
X0.7Y-1.965
X0.9256Y-0.9072
X0.945Y-0.525
X0.985Y-0.96
X1.09Y-0.555
X1.1823Y-1.1668
X1.3264Y-1.2723
X1.35Y-1.29
X1.385Y-0.965
X1.4Y-1.36
X1.42Y-1.18
X1.4475Y-1.1925
X1.4623Y-1.345
X1.465Y-1.145
X1.4967Y-0.6033
X1.5208Y-0.6942
X1.5209Y-0.9857
X1.5313Y-1.1517
X1.535Y-0.5202
X1.5414Y-1.345
X1.57Y-1.575
X1.6416Y-0.6284
X1.775Y-1.42
X1.78Y-0.91
X1.785Y-1.585
X1.815Y-1.52
X1.825Y-0.67
X1.9152Y-1.2479
X1.925Y-0.98
X2.0Y-1.31
X2.145Y-0.885
X2.15Y-0.715
X2.19Y-1.36
X2.265Y-1.115
X2.27Y-0.57
X2.275Y-0.535
X2.305Y-0.885
X2.415Y-1.4
X2.415Y-1.48
X2.44Y-0.89
X2.45Y-0.765
X2.46Y-1.335
X2.4872Y-1.1919
X2.488Y-1.2245
X2.5392Y-1.0958
X2.5602Y-1.075
X2.575Y-0.925
X2.575Y-1.895
X2.62Y-1.205
X2.635Y-0.6512
X2.75Y-1.8452
T2
X0.67Y-0.97
X0.695Y-0.845
X0.71Y-0.75
X0.855Y-1.88
X0.865Y-0.585
X0.89Y-1.43
X0.89Y-1.83
X0.955Y-0.64
X0.955Y-1.125
X1.025Y-0.825
X1.035Y-1.045
X1.06Y-1.795
X1.06Y-1.86
X1.075Y-0.635
X1.085Y-0.93
X1.085Y-1.505
X1.125Y-0.79
X1.155Y-0.685
X1.17Y-1.245
X1.22Y-0.87
X1.27Y-1.235
X1.285Y-0.87
X1.31Y-0.795
X1.3676Y-1.1772
X1.45Y-1.26
X1.55Y-1.08
X1.56Y-1.21
X1.6Y-1.275
X1.625Y-1.165
X1.65Y-1.84
X1.655Y-1.69
X1.655Y-1.765
X1.795Y-1.705
X1.795Y-1.77
X1.86Y-1.6
X1.895Y-1.2
X1.915Y-0.87
X1.97Y-1.58
X2.025Y-1.225
X2.04Y-1.34
X2.0706Y-1.0256
X2.115Y-1.335
X2.165Y-1.135
X2.165Y-1.56
X2.175Y-1.27
X2.23Y-1.0
X2.255Y-1.18
X2.26Y-1.34
X2.265Y-1.68
X2.275Y-0.875
X2.325Y-1.28
X2.325Y-1.4
X2.365Y-1.755
X2.37Y-1.33
X2.385Y-1.54
X2.445Y-1.535
X2.64Y-0.54
X2.6799Y-1.21
X2.6877Y-1.1016
X2.69Y-0.83
X2.705Y-0.67
X2.71Y-0.965
X2.75Y-0.545
X2.8Y-0.67
X2.805Y-0.825
X2.81Y-1.0749
X2.835Y-0.965
X2.85Y-0.545
X2.9Y-0.67
X2.915Y-0.83
X2.925Y-0.965
X2.93Y-1.0749
X2.955Y-0.55
T3
X0.5512Y-0.5512
X0.5512Y-0.6512
X0.5512Y-0.7512
X0.5512Y-0.8512
X0.5512Y-0.9512
X0.5512Y-1.0512
X0.5512Y-1.8701
X0.5512Y-1.9701
X0.5512Y-2.0701
X0.5512Y-2.1701
X0.5512Y-2.2701
X0.5512Y-2.3701
X3.0709Y-0.5512
X3.0709Y-0.6512
X3.0709Y-0.7512
X3.0709Y-0.8512
X3.0709Y-0.9512
X3.0709Y-1.0512
X3.0709Y-1.8701
X3.0709Y-1.9701
X3.0709Y-2.0701
X3.0709Y-2.1701
X3.0709Y-2.2701
X3.0709Y-2.3701
T4
X0.797Y-0.7231
X0.797Y-0.8412
X0.9151Y-0.7231
X0.9151Y-0.8412
X1.9238Y-1.6949
X1.9238Y-1.813
X2.0419Y-1.6949
X2.0419Y-1.813
X2.425Y-1.6969
X2.425Y-1.815
X2.5431Y-1.6969
X2.5431Y-1.815
T5
X1.5973Y-0.8988
X1.6236Y-1.0877
X1.685Y-1.32
X1.755Y-0.835
X2.275Y-0.67
X2.335Y-0.765
X2.5683Y-1.015
T6
X1.29Y-1.695
T7
X1.19Y-1.595
X1.19Y-1.795
X1.39Y-1.595
X1.39Y-1.795
M30
