%TF.GenerationSoftware,KiCad,Pcbnew,7.0.10*%
%TF.CreationDate,2024-04-14T19:08:20+02:00*%
%TF.ProjectId,DIC_Addon,4449435f-4164-4646-9f6e-2e6b69636164,rev?*%
%TF.SameCoordinates,Original*%
%TF.FileFunction,Paste,Top*%
%TF.FilePolarity,Positive*%
%FSLAX46Y46*%
G04 Gerber Fmt 4.6, Leading zero omitted, Abs format (unit mm)*
G04 Created by KiCad (PCBNEW 7.0.10) date 2024-04-14 19:08:20*
%MOMM*%
%LPD*%
G01*
G04 APERTURE LIST*
G04 Aperture macros list*
%AMRoundRect*
0 Rectangle with rounded corners*
0 $1 Rounding radius*
0 $2 $3 $4 $5 $6 $7 $8 $9 X,Y pos of 4 corners*
0 Add a 4 corners polygon primitive as box body*
4,1,4,$2,$3,$4,$5,$6,$7,$8,$9,$2,$3,0*
0 Add four circle primitives for the rounded corners*
1,1,$1+$1,$2,$3*
1,1,$1+$1,$4,$5*
1,1,$1+$1,$6,$7*
1,1,$1+$1,$8,$9*
0 Add four rect primitives between the rounded corners*
20,1,$1+$1,$2,$3,$4,$5,0*
20,1,$1+$1,$4,$5,$6,$7,0*
20,1,$1+$1,$6,$7,$8,$9,0*
20,1,$1+$1,$8,$9,$2,$3,0*%
G04 Aperture macros list end*
%ADD10RoundRect,0.237500X0.237500X-0.250000X0.237500X0.250000X-0.237500X0.250000X-0.237500X-0.250000X0*%
%ADD11RoundRect,0.150000X-0.587500X-0.150000X0.587500X-0.150000X0.587500X0.150000X-0.587500X0.150000X0*%
%ADD12RoundRect,0.150000X-0.150000X0.587500X-0.150000X-0.587500X0.150000X-0.587500X0.150000X0.587500X0*%
%ADD13O,1.000000X3.000000*%
%ADD14O,3.000000X1.000000*%
%ADD15RoundRect,0.237500X-0.250000X-0.237500X0.250000X-0.237500X0.250000X0.237500X-0.250000X0.237500X0*%
%ADD16RoundRect,0.237500X0.250000X0.237500X-0.250000X0.237500X-0.250000X-0.237500X0.250000X-0.237500X0*%
%ADD17RoundRect,0.237500X-0.237500X0.250000X-0.237500X-0.250000X0.237500X-0.250000X0.237500X0.250000X0*%
G04 APERTURE END LIST*
D10*
%TO.C,R27*%
X63500000Y-20089500D03*
X63500000Y-18264500D03*
%TD*%
D11*
%TO.C,Q10*%
X55626000Y-14671000D03*
X55626000Y-16571000D03*
X57501000Y-15621000D03*
%TD*%
%TO.C,Q9*%
X43307000Y-14737000D03*
X43307000Y-16637000D03*
X45182000Y-15687000D03*
%TD*%
D12*
%TO.C,Q12*%
X64257000Y-35814000D03*
X62357000Y-35814000D03*
X63307000Y-37689000D03*
%TD*%
D13*
%TO.C,U1*%
X32752000Y-36703000D03*
X34752000Y-36703000D03*
X36752000Y-36703000D03*
X38752000Y-36703000D03*
X40752000Y-36703000D03*
X42752000Y-36703000D03*
X47752000Y-36703000D03*
X49752000Y-36703000D03*
X51752000Y-36703000D03*
X53752000Y-36703000D03*
X55752000Y-36703000D03*
X57752000Y-36703000D03*
X57752000Y-19703000D03*
X55752000Y-19703000D03*
X53752000Y-19703000D03*
X51752000Y-19703000D03*
X49752000Y-19703000D03*
X47752000Y-19703000D03*
X42752000Y-19703000D03*
X40752000Y-19703000D03*
X38752000Y-19703000D03*
X36752000Y-19703000D03*
X34752000Y-19703000D03*
D14*
X59252000Y-31203000D03*
X59252000Y-29303000D03*
X59252000Y-27103000D03*
X59252000Y-25203000D03*
%TD*%
D15*
%TO.C,R24*%
X51864500Y-14605000D03*
X53689500Y-14605000D03*
%TD*%
D16*
%TO.C,R26*%
X53689500Y-16637000D03*
X51864500Y-16637000D03*
%TD*%
D12*
%TO.C,Q11*%
X65339000Y-21922500D03*
X63439000Y-21922500D03*
X64389000Y-23797500D03*
%TD*%
D17*
%TO.C,R25*%
X65359000Y-18264500D03*
X65359000Y-20089500D03*
%TD*%
%TO.C,R28*%
X64181000Y-32073000D03*
X64181000Y-33898000D03*
%TD*%
D15*
%TO.C,R23*%
X39624000Y-14737000D03*
X41449000Y-14737000D03*
%TD*%
M02*
