%TF.GenerationSoftware,KiCad,Pcbnew,7.0.10*%
%TF.CreationDate,2025-06-08T09:49:36+02:00*%
%TF.ProjectId,DIC_Addon,4449435f-4164-4646-9f6e-2e6b69636164,rev?*%
%TF.SameCoordinates,Original*%
%TF.FileFunction,Legend,Bot*%
%TF.FilePolarity,Positive*%
%FSLAX46Y46*%
G04 Gerber Fmt 4.6, Leading zero omitted, Abs format (unit mm)*
G04 Created by KiCad (PCBNEW 7.0.10) date 2025-06-08 09:49:36*
%MOMM*%
%LPD*%
G01*
G04 APERTURE LIST*
%ADD10C,0.100000*%
%ADD11C,0.150000*%
%ADD12C,0.120000*%
%ADD13C,0.152400*%
G04 APERTURE END LIST*
D10*
X37751000Y-20701000D02*
X54451000Y-20701000D01*
X54451000Y-25901000D01*
X37751000Y-25901000D01*
X37751000Y-20701000D01*
D11*
X42954819Y-40107142D02*
X42478628Y-39773809D01*
X42954819Y-39535714D02*
X41954819Y-39535714D01*
X41954819Y-39535714D02*
X41954819Y-39916666D01*
X41954819Y-39916666D02*
X42002438Y-40011904D01*
X42002438Y-40011904D02*
X42050057Y-40059523D01*
X42050057Y-40059523D02*
X42145295Y-40107142D01*
X42145295Y-40107142D02*
X42288152Y-40107142D01*
X42288152Y-40107142D02*
X42383390Y-40059523D01*
X42383390Y-40059523D02*
X42431009Y-40011904D01*
X42431009Y-40011904D02*
X42478628Y-39916666D01*
X42478628Y-39916666D02*
X42478628Y-39535714D01*
X42954819Y-41059523D02*
X42954819Y-40488095D01*
X42954819Y-40773809D02*
X41954819Y-40773809D01*
X41954819Y-40773809D02*
X42097676Y-40678571D01*
X42097676Y-40678571D02*
X42192914Y-40583333D01*
X42192914Y-40583333D02*
X42240533Y-40488095D01*
X41954819Y-41916666D02*
X41954819Y-41726190D01*
X41954819Y-41726190D02*
X42002438Y-41630952D01*
X42002438Y-41630952D02*
X42050057Y-41583333D01*
X42050057Y-41583333D02*
X42192914Y-41488095D01*
X42192914Y-41488095D02*
X42383390Y-41440476D01*
X42383390Y-41440476D02*
X42764342Y-41440476D01*
X42764342Y-41440476D02*
X42859580Y-41488095D01*
X42859580Y-41488095D02*
X42907200Y-41535714D01*
X42907200Y-41535714D02*
X42954819Y-41630952D01*
X42954819Y-41630952D02*
X42954819Y-41821428D01*
X42954819Y-41821428D02*
X42907200Y-41916666D01*
X42907200Y-41916666D02*
X42859580Y-41964285D01*
X42859580Y-41964285D02*
X42764342Y-42011904D01*
X42764342Y-42011904D02*
X42526247Y-42011904D01*
X42526247Y-42011904D02*
X42431009Y-41964285D01*
X42431009Y-41964285D02*
X42383390Y-41916666D01*
X42383390Y-41916666D02*
X42335771Y-41821428D01*
X42335771Y-41821428D02*
X42335771Y-41630952D01*
X42335771Y-41630952D02*
X42383390Y-41535714D01*
X42383390Y-41535714D02*
X42431009Y-41488095D01*
X42431009Y-41488095D02*
X42526247Y-41440476D01*
X65083862Y-38184942D02*
X64988624Y-38232561D01*
X64988624Y-38232561D02*
X64893386Y-38327800D01*
X64893386Y-38327800D02*
X64750529Y-38470657D01*
X64750529Y-38470657D02*
X64655291Y-38518276D01*
X64655291Y-38518276D02*
X64560053Y-38518276D01*
X64607672Y-38280180D02*
X64512434Y-38327800D01*
X64512434Y-38327800D02*
X64417196Y-38423038D01*
X64417196Y-38423038D02*
X64369577Y-38613514D01*
X64369577Y-38613514D02*
X64369577Y-38946847D01*
X64369577Y-38946847D02*
X64417196Y-39137323D01*
X64417196Y-39137323D02*
X64512434Y-39232561D01*
X64512434Y-39232561D02*
X64607672Y-39280180D01*
X64607672Y-39280180D02*
X64798148Y-39280180D01*
X64798148Y-39280180D02*
X64893386Y-39232561D01*
X64893386Y-39232561D02*
X64988624Y-39137323D01*
X64988624Y-39137323D02*
X65036243Y-38946847D01*
X65036243Y-38946847D02*
X65036243Y-38613514D01*
X65036243Y-38613514D02*
X64988624Y-38423038D01*
X64988624Y-38423038D02*
X64893386Y-38327800D01*
X64893386Y-38327800D02*
X64798148Y-38280180D01*
X64798148Y-38280180D02*
X64607672Y-38280180D01*
X65512434Y-38280180D02*
X65702910Y-38280180D01*
X65702910Y-38280180D02*
X65798148Y-38327800D01*
X65798148Y-38327800D02*
X65845767Y-38375419D01*
X65845767Y-38375419D02*
X65941005Y-38518276D01*
X65941005Y-38518276D02*
X65988624Y-38708752D01*
X65988624Y-38708752D02*
X65988624Y-39089704D01*
X65988624Y-39089704D02*
X65941005Y-39184942D01*
X65941005Y-39184942D02*
X65893386Y-39232561D01*
X65893386Y-39232561D02*
X65798148Y-39280180D01*
X65798148Y-39280180D02*
X65607672Y-39280180D01*
X65607672Y-39280180D02*
X65512434Y-39232561D01*
X65512434Y-39232561D02*
X65464815Y-39184942D01*
X65464815Y-39184942D02*
X65417196Y-39089704D01*
X65417196Y-39089704D02*
X65417196Y-38851609D01*
X65417196Y-38851609D02*
X65464815Y-38756371D01*
X65464815Y-38756371D02*
X65512434Y-38708752D01*
X65512434Y-38708752D02*
X65607672Y-38661133D01*
X65607672Y-38661133D02*
X65798148Y-38661133D01*
X65798148Y-38661133D02*
X65893386Y-38708752D01*
X65893386Y-38708752D02*
X65941005Y-38756371D01*
X65941005Y-38756371D02*
X65988624Y-38851609D01*
X29737319Y-37610333D02*
X29261128Y-37277000D01*
X29737319Y-37038905D02*
X28737319Y-37038905D01*
X28737319Y-37038905D02*
X28737319Y-37419857D01*
X28737319Y-37419857D02*
X28784938Y-37515095D01*
X28784938Y-37515095D02*
X28832557Y-37562714D01*
X28832557Y-37562714D02*
X28927795Y-37610333D01*
X28927795Y-37610333D02*
X29070652Y-37610333D01*
X29070652Y-37610333D02*
X29165890Y-37562714D01*
X29165890Y-37562714D02*
X29213509Y-37515095D01*
X29213509Y-37515095D02*
X29261128Y-37419857D01*
X29261128Y-37419857D02*
X29261128Y-37038905D01*
X28737319Y-37943667D02*
X28737319Y-38562714D01*
X28737319Y-38562714D02*
X29118271Y-38229381D01*
X29118271Y-38229381D02*
X29118271Y-38372238D01*
X29118271Y-38372238D02*
X29165890Y-38467476D01*
X29165890Y-38467476D02*
X29213509Y-38515095D01*
X29213509Y-38515095D02*
X29308747Y-38562714D01*
X29308747Y-38562714D02*
X29546842Y-38562714D01*
X29546842Y-38562714D02*
X29642080Y-38515095D01*
X29642080Y-38515095D02*
X29689700Y-38467476D01*
X29689700Y-38467476D02*
X29737319Y-38372238D01*
X29737319Y-38372238D02*
X29737319Y-38086524D01*
X29737319Y-38086524D02*
X29689700Y-37991286D01*
X29689700Y-37991286D02*
X29642080Y-37943667D01*
X21333619Y-26960533D02*
X20857428Y-26627200D01*
X21333619Y-26389105D02*
X20333619Y-26389105D01*
X20333619Y-26389105D02*
X20333619Y-26770057D01*
X20333619Y-26770057D02*
X20381238Y-26865295D01*
X20381238Y-26865295D02*
X20428857Y-26912914D01*
X20428857Y-26912914D02*
X20524095Y-26960533D01*
X20524095Y-26960533D02*
X20666952Y-26960533D01*
X20666952Y-26960533D02*
X20762190Y-26912914D01*
X20762190Y-26912914D02*
X20809809Y-26865295D01*
X20809809Y-26865295D02*
X20857428Y-26770057D01*
X20857428Y-26770057D02*
X20857428Y-26389105D01*
X20428857Y-27341486D02*
X20381238Y-27389105D01*
X20381238Y-27389105D02*
X20333619Y-27484343D01*
X20333619Y-27484343D02*
X20333619Y-27722438D01*
X20333619Y-27722438D02*
X20381238Y-27817676D01*
X20381238Y-27817676D02*
X20428857Y-27865295D01*
X20428857Y-27865295D02*
X20524095Y-27912914D01*
X20524095Y-27912914D02*
X20619333Y-27912914D01*
X20619333Y-27912914D02*
X20762190Y-27865295D01*
X20762190Y-27865295D02*
X21333619Y-27293867D01*
X21333619Y-27293867D02*
X21333619Y-27912914D01*
X28106666Y-25194419D02*
X28439999Y-24718228D01*
X28678094Y-25194419D02*
X28678094Y-24194419D01*
X28678094Y-24194419D02*
X28297142Y-24194419D01*
X28297142Y-24194419D02*
X28201904Y-24242038D01*
X28201904Y-24242038D02*
X28154285Y-24289657D01*
X28154285Y-24289657D02*
X28106666Y-24384895D01*
X28106666Y-24384895D02*
X28106666Y-24527752D01*
X28106666Y-24527752D02*
X28154285Y-24622990D01*
X28154285Y-24622990D02*
X28201904Y-24670609D01*
X28201904Y-24670609D02*
X28297142Y-24718228D01*
X28297142Y-24718228D02*
X28678094Y-24718228D01*
X27154285Y-25194419D02*
X27725713Y-25194419D01*
X27439999Y-25194419D02*
X27439999Y-24194419D01*
X27439999Y-24194419D02*
X27535237Y-24337276D01*
X27535237Y-24337276D02*
X27630475Y-24432514D01*
X27630475Y-24432514D02*
X27725713Y-24480133D01*
X24264857Y-43228419D02*
X24598190Y-42752228D01*
X24836285Y-43228419D02*
X24836285Y-42228419D01*
X24836285Y-42228419D02*
X24455333Y-42228419D01*
X24455333Y-42228419D02*
X24360095Y-42276038D01*
X24360095Y-42276038D02*
X24312476Y-42323657D01*
X24312476Y-42323657D02*
X24264857Y-42418895D01*
X24264857Y-42418895D02*
X24264857Y-42561752D01*
X24264857Y-42561752D02*
X24312476Y-42656990D01*
X24312476Y-42656990D02*
X24360095Y-42704609D01*
X24360095Y-42704609D02*
X24455333Y-42752228D01*
X24455333Y-42752228D02*
X24836285Y-42752228D01*
X23312476Y-43228419D02*
X23883904Y-43228419D01*
X23598190Y-43228419D02*
X23598190Y-42228419D01*
X23598190Y-42228419D02*
X23693428Y-42371276D01*
X23693428Y-42371276D02*
X23788666Y-42466514D01*
X23788666Y-42466514D02*
X23883904Y-42514133D01*
X22741047Y-42656990D02*
X22836285Y-42609371D01*
X22836285Y-42609371D02*
X22883904Y-42561752D01*
X22883904Y-42561752D02*
X22931523Y-42466514D01*
X22931523Y-42466514D02*
X22931523Y-42418895D01*
X22931523Y-42418895D02*
X22883904Y-42323657D01*
X22883904Y-42323657D02*
X22836285Y-42276038D01*
X22836285Y-42276038D02*
X22741047Y-42228419D01*
X22741047Y-42228419D02*
X22550571Y-42228419D01*
X22550571Y-42228419D02*
X22455333Y-42276038D01*
X22455333Y-42276038D02*
X22407714Y-42323657D01*
X22407714Y-42323657D02*
X22360095Y-42418895D01*
X22360095Y-42418895D02*
X22360095Y-42466514D01*
X22360095Y-42466514D02*
X22407714Y-42561752D01*
X22407714Y-42561752D02*
X22455333Y-42609371D01*
X22455333Y-42609371D02*
X22550571Y-42656990D01*
X22550571Y-42656990D02*
X22741047Y-42656990D01*
X22741047Y-42656990D02*
X22836285Y-42704609D01*
X22836285Y-42704609D02*
X22883904Y-42752228D01*
X22883904Y-42752228D02*
X22931523Y-42847466D01*
X22931523Y-42847466D02*
X22931523Y-43037942D01*
X22931523Y-43037942D02*
X22883904Y-43133180D01*
X22883904Y-43133180D02*
X22836285Y-43180800D01*
X22836285Y-43180800D02*
X22741047Y-43228419D01*
X22741047Y-43228419D02*
X22550571Y-43228419D01*
X22550571Y-43228419D02*
X22455333Y-43180800D01*
X22455333Y-43180800D02*
X22407714Y-43133180D01*
X22407714Y-43133180D02*
X22360095Y-43037942D01*
X22360095Y-43037942D02*
X22360095Y-42847466D01*
X22360095Y-42847466D02*
X22407714Y-42752228D01*
X22407714Y-42752228D02*
X22455333Y-42704609D01*
X22455333Y-42704609D02*
X22550571Y-42656990D01*
X76551356Y-43159819D02*
X76884689Y-42683628D01*
X77122784Y-43159819D02*
X77122784Y-42159819D01*
X77122784Y-42159819D02*
X76741832Y-42159819D01*
X76741832Y-42159819D02*
X76646594Y-42207438D01*
X76646594Y-42207438D02*
X76598975Y-42255057D01*
X76598975Y-42255057D02*
X76551356Y-42350295D01*
X76551356Y-42350295D02*
X76551356Y-42493152D01*
X76551356Y-42493152D02*
X76598975Y-42588390D01*
X76598975Y-42588390D02*
X76646594Y-42636009D01*
X76646594Y-42636009D02*
X76741832Y-42683628D01*
X76741832Y-42683628D02*
X77122784Y-42683628D01*
X76170403Y-42255057D02*
X76122784Y-42207438D01*
X76122784Y-42207438D02*
X76027546Y-42159819D01*
X76027546Y-42159819D02*
X75789451Y-42159819D01*
X75789451Y-42159819D02*
X75694213Y-42207438D01*
X75694213Y-42207438D02*
X75646594Y-42255057D01*
X75646594Y-42255057D02*
X75598975Y-42350295D01*
X75598975Y-42350295D02*
X75598975Y-42445533D01*
X75598975Y-42445533D02*
X75646594Y-42588390D01*
X75646594Y-42588390D02*
X76218022Y-43159819D01*
X76218022Y-43159819D02*
X75598975Y-43159819D01*
X75265641Y-42159819D02*
X74598975Y-42159819D01*
X74598975Y-42159819D02*
X75027546Y-43159819D01*
X44902285Y-39164419D02*
X44902285Y-38164419D01*
X44902285Y-38164419D02*
X44664190Y-38164419D01*
X44664190Y-38164419D02*
X44521333Y-38212038D01*
X44521333Y-38212038D02*
X44426095Y-38307276D01*
X44426095Y-38307276D02*
X44378476Y-38402514D01*
X44378476Y-38402514D02*
X44330857Y-38592990D01*
X44330857Y-38592990D02*
X44330857Y-38735847D01*
X44330857Y-38735847D02*
X44378476Y-38926323D01*
X44378476Y-38926323D02*
X44426095Y-39021561D01*
X44426095Y-39021561D02*
X44521333Y-39116800D01*
X44521333Y-39116800D02*
X44664190Y-39164419D01*
X44664190Y-39164419D02*
X44902285Y-39164419D01*
X43378476Y-39164419D02*
X43949904Y-39164419D01*
X43664190Y-39164419D02*
X43664190Y-38164419D01*
X43664190Y-38164419D02*
X43759428Y-38307276D01*
X43759428Y-38307276D02*
X43854666Y-38402514D01*
X43854666Y-38402514D02*
X43949904Y-38450133D01*
X42426095Y-39164419D02*
X42997523Y-39164419D01*
X42711809Y-39164419D02*
X42711809Y-38164419D01*
X42711809Y-38164419D02*
X42807047Y-38307276D01*
X42807047Y-38307276D02*
X42902285Y-38402514D01*
X42902285Y-38402514D02*
X42997523Y-38450133D01*
X27478357Y-50144819D02*
X27811690Y-49668628D01*
X28049785Y-50144819D02*
X28049785Y-49144819D01*
X28049785Y-49144819D02*
X27668833Y-49144819D01*
X27668833Y-49144819D02*
X27573595Y-49192438D01*
X27573595Y-49192438D02*
X27525976Y-49240057D01*
X27525976Y-49240057D02*
X27478357Y-49335295D01*
X27478357Y-49335295D02*
X27478357Y-49478152D01*
X27478357Y-49478152D02*
X27525976Y-49573390D01*
X27525976Y-49573390D02*
X27573595Y-49621009D01*
X27573595Y-49621009D02*
X27668833Y-49668628D01*
X27668833Y-49668628D02*
X28049785Y-49668628D01*
X26525976Y-50144819D02*
X27097404Y-50144819D01*
X26811690Y-50144819D02*
X26811690Y-49144819D01*
X26811690Y-49144819D02*
X26906928Y-49287676D01*
X26906928Y-49287676D02*
X27002166Y-49382914D01*
X27002166Y-49382914D02*
X27097404Y-49430533D01*
X26192642Y-49144819D02*
X25525976Y-49144819D01*
X25525976Y-49144819D02*
X25954547Y-50144819D01*
X36218019Y-25385733D02*
X35741828Y-25052400D01*
X36218019Y-24814305D02*
X35218019Y-24814305D01*
X35218019Y-24814305D02*
X35218019Y-25195257D01*
X35218019Y-25195257D02*
X35265638Y-25290495D01*
X35265638Y-25290495D02*
X35313257Y-25338114D01*
X35313257Y-25338114D02*
X35408495Y-25385733D01*
X35408495Y-25385733D02*
X35551352Y-25385733D01*
X35551352Y-25385733D02*
X35646590Y-25338114D01*
X35646590Y-25338114D02*
X35694209Y-25290495D01*
X35694209Y-25290495D02*
X35741828Y-25195257D01*
X35741828Y-25195257D02*
X35741828Y-24814305D01*
X35218019Y-26242876D02*
X35218019Y-26052400D01*
X35218019Y-26052400D02*
X35265638Y-25957162D01*
X35265638Y-25957162D02*
X35313257Y-25909543D01*
X35313257Y-25909543D02*
X35456114Y-25814305D01*
X35456114Y-25814305D02*
X35646590Y-25766686D01*
X35646590Y-25766686D02*
X36027542Y-25766686D01*
X36027542Y-25766686D02*
X36122780Y-25814305D01*
X36122780Y-25814305D02*
X36170400Y-25861924D01*
X36170400Y-25861924D02*
X36218019Y-25957162D01*
X36218019Y-25957162D02*
X36218019Y-26147638D01*
X36218019Y-26147638D02*
X36170400Y-26242876D01*
X36170400Y-26242876D02*
X36122780Y-26290495D01*
X36122780Y-26290495D02*
X36027542Y-26338114D01*
X36027542Y-26338114D02*
X35789447Y-26338114D01*
X35789447Y-26338114D02*
X35694209Y-26290495D01*
X35694209Y-26290495D02*
X35646590Y-26242876D01*
X35646590Y-26242876D02*
X35598971Y-26147638D01*
X35598971Y-26147638D02*
X35598971Y-25957162D01*
X35598971Y-25957162D02*
X35646590Y-25861924D01*
X35646590Y-25861924D02*
X35694209Y-25814305D01*
X35694209Y-25814305D02*
X35789447Y-25766686D01*
X35151219Y-47299714D02*
X34151219Y-47299714D01*
X34151219Y-47299714D02*
X34151219Y-47537809D01*
X34151219Y-47537809D02*
X34198838Y-47680666D01*
X34198838Y-47680666D02*
X34294076Y-47775904D01*
X34294076Y-47775904D02*
X34389314Y-47823523D01*
X34389314Y-47823523D02*
X34579790Y-47871142D01*
X34579790Y-47871142D02*
X34722647Y-47871142D01*
X34722647Y-47871142D02*
X34913123Y-47823523D01*
X34913123Y-47823523D02*
X35008361Y-47775904D01*
X35008361Y-47775904D02*
X35103600Y-47680666D01*
X35103600Y-47680666D02*
X35151219Y-47537809D01*
X35151219Y-47537809D02*
X35151219Y-47299714D01*
X35151219Y-48823523D02*
X35151219Y-48252095D01*
X35151219Y-48537809D02*
X34151219Y-48537809D01*
X34151219Y-48537809D02*
X34294076Y-48442571D01*
X34294076Y-48442571D02*
X34389314Y-48347333D01*
X34389314Y-48347333D02*
X34436933Y-48252095D01*
X34151219Y-49442571D02*
X34151219Y-49537809D01*
X34151219Y-49537809D02*
X34198838Y-49633047D01*
X34198838Y-49633047D02*
X34246457Y-49680666D01*
X34246457Y-49680666D02*
X34341695Y-49728285D01*
X34341695Y-49728285D02*
X34532171Y-49775904D01*
X34532171Y-49775904D02*
X34770266Y-49775904D01*
X34770266Y-49775904D02*
X34960742Y-49728285D01*
X34960742Y-49728285D02*
X35055980Y-49680666D01*
X35055980Y-49680666D02*
X35103600Y-49633047D01*
X35103600Y-49633047D02*
X35151219Y-49537809D01*
X35151219Y-49537809D02*
X35151219Y-49442571D01*
X35151219Y-49442571D02*
X35103600Y-49347333D01*
X35103600Y-49347333D02*
X35055980Y-49299714D01*
X35055980Y-49299714D02*
X34960742Y-49252095D01*
X34960742Y-49252095D02*
X34770266Y-49204476D01*
X34770266Y-49204476D02*
X34532171Y-49204476D01*
X34532171Y-49204476D02*
X34341695Y-49252095D01*
X34341695Y-49252095D02*
X34246457Y-49299714D01*
X34246457Y-49299714D02*
X34198838Y-49347333D01*
X34198838Y-49347333D02*
X34151219Y-49442571D01*
X51700819Y-22897666D02*
X52415104Y-22897666D01*
X52415104Y-22897666D02*
X52557961Y-22850047D01*
X52557961Y-22850047D02*
X52653200Y-22754809D01*
X52653200Y-22754809D02*
X52700819Y-22611952D01*
X52700819Y-22611952D02*
X52700819Y-22516714D01*
X51700819Y-23278619D02*
X51700819Y-23897666D01*
X51700819Y-23897666D02*
X52081771Y-23564333D01*
X52081771Y-23564333D02*
X52081771Y-23707190D01*
X52081771Y-23707190D02*
X52129390Y-23802428D01*
X52129390Y-23802428D02*
X52177009Y-23850047D01*
X52177009Y-23850047D02*
X52272247Y-23897666D01*
X52272247Y-23897666D02*
X52510342Y-23897666D01*
X52510342Y-23897666D02*
X52605580Y-23850047D01*
X52605580Y-23850047D02*
X52653200Y-23802428D01*
X52653200Y-23802428D02*
X52700819Y-23707190D01*
X52700819Y-23707190D02*
X52700819Y-23421476D01*
X52700819Y-23421476D02*
X52653200Y-23326238D01*
X52653200Y-23326238D02*
X52605580Y-23278619D01*
X20956494Y-34643219D02*
X20956494Y-33643219D01*
X20956494Y-33643219D02*
X20718399Y-33643219D01*
X20718399Y-33643219D02*
X20575542Y-33690838D01*
X20575542Y-33690838D02*
X20480304Y-33786076D01*
X20480304Y-33786076D02*
X20432685Y-33881314D01*
X20432685Y-33881314D02*
X20385066Y-34071790D01*
X20385066Y-34071790D02*
X20385066Y-34214647D01*
X20385066Y-34214647D02*
X20432685Y-34405123D01*
X20432685Y-34405123D02*
X20480304Y-34500361D01*
X20480304Y-34500361D02*
X20575542Y-34595600D01*
X20575542Y-34595600D02*
X20718399Y-34643219D01*
X20718399Y-34643219D02*
X20956494Y-34643219D01*
X20051732Y-33643219D02*
X19432685Y-33643219D01*
X19432685Y-33643219D02*
X19766018Y-34024171D01*
X19766018Y-34024171D02*
X19623161Y-34024171D01*
X19623161Y-34024171D02*
X19527923Y-34071790D01*
X19527923Y-34071790D02*
X19480304Y-34119409D01*
X19480304Y-34119409D02*
X19432685Y-34214647D01*
X19432685Y-34214647D02*
X19432685Y-34452742D01*
X19432685Y-34452742D02*
X19480304Y-34547980D01*
X19480304Y-34547980D02*
X19527923Y-34595600D01*
X19527923Y-34595600D02*
X19623161Y-34643219D01*
X19623161Y-34643219D02*
X19908875Y-34643219D01*
X19908875Y-34643219D02*
X20004113Y-34595600D01*
X20004113Y-34595600D02*
X20051732Y-34547980D01*
X30849866Y-26007219D02*
X31183199Y-25531028D01*
X31421294Y-26007219D02*
X31421294Y-25007219D01*
X31421294Y-25007219D02*
X31040342Y-25007219D01*
X31040342Y-25007219D02*
X30945104Y-25054838D01*
X30945104Y-25054838D02*
X30897485Y-25102457D01*
X30897485Y-25102457D02*
X30849866Y-25197695D01*
X30849866Y-25197695D02*
X30849866Y-25340552D01*
X30849866Y-25340552D02*
X30897485Y-25435790D01*
X30897485Y-25435790D02*
X30945104Y-25483409D01*
X30945104Y-25483409D02*
X31040342Y-25531028D01*
X31040342Y-25531028D02*
X31421294Y-25531028D01*
X30516532Y-25007219D02*
X29849866Y-25007219D01*
X29849866Y-25007219D02*
X30278437Y-26007219D01*
X37930942Y-42408238D02*
X37978561Y-42503476D01*
X37978561Y-42503476D02*
X38073800Y-42598714D01*
X38073800Y-42598714D02*
X38216657Y-42741571D01*
X38216657Y-42741571D02*
X38264276Y-42836809D01*
X38264276Y-42836809D02*
X38264276Y-42932047D01*
X38026180Y-42884428D02*
X38073800Y-42979666D01*
X38073800Y-42979666D02*
X38169038Y-43074904D01*
X38169038Y-43074904D02*
X38359514Y-43122523D01*
X38359514Y-43122523D02*
X38692847Y-43122523D01*
X38692847Y-43122523D02*
X38883323Y-43074904D01*
X38883323Y-43074904D02*
X38978561Y-42979666D01*
X38978561Y-42979666D02*
X39026180Y-42884428D01*
X39026180Y-42884428D02*
X39026180Y-42693952D01*
X39026180Y-42693952D02*
X38978561Y-42598714D01*
X38978561Y-42598714D02*
X38883323Y-42503476D01*
X38883323Y-42503476D02*
X38692847Y-42455857D01*
X38692847Y-42455857D02*
X38359514Y-42455857D01*
X38359514Y-42455857D02*
X38169038Y-42503476D01*
X38169038Y-42503476D02*
X38073800Y-42598714D01*
X38073800Y-42598714D02*
X38026180Y-42693952D01*
X38026180Y-42693952D02*
X38026180Y-42884428D01*
X39026180Y-42122523D02*
X39026180Y-41455857D01*
X39026180Y-41455857D02*
X38026180Y-41884428D01*
X36755294Y-31950819D02*
X36755294Y-30950819D01*
X36755294Y-30950819D02*
X36517199Y-30950819D01*
X36517199Y-30950819D02*
X36374342Y-30998438D01*
X36374342Y-30998438D02*
X36279104Y-31093676D01*
X36279104Y-31093676D02*
X36231485Y-31188914D01*
X36231485Y-31188914D02*
X36183866Y-31379390D01*
X36183866Y-31379390D02*
X36183866Y-31522247D01*
X36183866Y-31522247D02*
X36231485Y-31712723D01*
X36231485Y-31712723D02*
X36279104Y-31807961D01*
X36279104Y-31807961D02*
X36374342Y-31903200D01*
X36374342Y-31903200D02*
X36517199Y-31950819D01*
X36517199Y-31950819D02*
X36755294Y-31950819D01*
X35231485Y-31950819D02*
X35802913Y-31950819D01*
X35517199Y-31950819D02*
X35517199Y-30950819D01*
X35517199Y-30950819D02*
X35612437Y-31093676D01*
X35612437Y-31093676D02*
X35707675Y-31188914D01*
X35707675Y-31188914D02*
X35802913Y-31236533D01*
X30776057Y-43624571D02*
X30728438Y-43529333D01*
X30728438Y-43529333D02*
X30633200Y-43434095D01*
X30633200Y-43434095D02*
X30490342Y-43291238D01*
X30490342Y-43291238D02*
X30442723Y-43196000D01*
X30442723Y-43196000D02*
X30442723Y-43100762D01*
X30680819Y-43148381D02*
X30633200Y-43053143D01*
X30633200Y-43053143D02*
X30537961Y-42957905D01*
X30537961Y-42957905D02*
X30347485Y-42910286D01*
X30347485Y-42910286D02*
X30014152Y-42910286D01*
X30014152Y-42910286D02*
X29823676Y-42957905D01*
X29823676Y-42957905D02*
X29728438Y-43053143D01*
X29728438Y-43053143D02*
X29680819Y-43148381D01*
X29680819Y-43148381D02*
X29680819Y-43338857D01*
X29680819Y-43338857D02*
X29728438Y-43434095D01*
X29728438Y-43434095D02*
X29823676Y-43529333D01*
X29823676Y-43529333D02*
X30014152Y-43576952D01*
X30014152Y-43576952D02*
X30347485Y-43576952D01*
X30347485Y-43576952D02*
X30537961Y-43529333D01*
X30537961Y-43529333D02*
X30633200Y-43434095D01*
X30633200Y-43434095D02*
X30680819Y-43338857D01*
X30680819Y-43338857D02*
X30680819Y-43148381D01*
X30680819Y-44529333D02*
X30680819Y-43957905D01*
X30680819Y-44243619D02*
X29680819Y-44243619D01*
X29680819Y-44243619D02*
X29823676Y-44148381D01*
X29823676Y-44148381D02*
X29918914Y-44053143D01*
X29918914Y-44053143D02*
X29966533Y-43957905D01*
X29680819Y-45148381D02*
X29680819Y-45243619D01*
X29680819Y-45243619D02*
X29728438Y-45338857D01*
X29728438Y-45338857D02*
X29776057Y-45386476D01*
X29776057Y-45386476D02*
X29871295Y-45434095D01*
X29871295Y-45434095D02*
X30061771Y-45481714D01*
X30061771Y-45481714D02*
X30299866Y-45481714D01*
X30299866Y-45481714D02*
X30490342Y-45434095D01*
X30490342Y-45434095D02*
X30585580Y-45386476D01*
X30585580Y-45386476D02*
X30633200Y-45338857D01*
X30633200Y-45338857D02*
X30680819Y-45243619D01*
X30680819Y-45243619D02*
X30680819Y-45148381D01*
X30680819Y-45148381D02*
X30633200Y-45053143D01*
X30633200Y-45053143D02*
X30585580Y-45005524D01*
X30585580Y-45005524D02*
X30490342Y-44957905D01*
X30490342Y-44957905D02*
X30299866Y-44910286D01*
X30299866Y-44910286D02*
X30061771Y-44910286D01*
X30061771Y-44910286D02*
X29871295Y-44957905D01*
X29871295Y-44957905D02*
X29776057Y-45005524D01*
X29776057Y-45005524D02*
X29728438Y-45053143D01*
X29728438Y-45053143D02*
X29680819Y-45148381D01*
X25608557Y-37742762D02*
X25560938Y-37647524D01*
X25560938Y-37647524D02*
X25465700Y-37552286D01*
X25465700Y-37552286D02*
X25322842Y-37409429D01*
X25322842Y-37409429D02*
X25275223Y-37314191D01*
X25275223Y-37314191D02*
X25275223Y-37218953D01*
X25513319Y-37266572D02*
X25465700Y-37171334D01*
X25465700Y-37171334D02*
X25370461Y-37076096D01*
X25370461Y-37076096D02*
X25179985Y-37028477D01*
X25179985Y-37028477D02*
X24846652Y-37028477D01*
X24846652Y-37028477D02*
X24656176Y-37076096D01*
X24656176Y-37076096D02*
X24560938Y-37171334D01*
X24560938Y-37171334D02*
X24513319Y-37266572D01*
X24513319Y-37266572D02*
X24513319Y-37457048D01*
X24513319Y-37457048D02*
X24560938Y-37552286D01*
X24560938Y-37552286D02*
X24656176Y-37647524D01*
X24656176Y-37647524D02*
X24846652Y-37695143D01*
X24846652Y-37695143D02*
X25179985Y-37695143D01*
X25179985Y-37695143D02*
X25370461Y-37647524D01*
X25370461Y-37647524D02*
X25465700Y-37552286D01*
X25465700Y-37552286D02*
X25513319Y-37457048D01*
X25513319Y-37457048D02*
X25513319Y-37266572D01*
X24608557Y-38076096D02*
X24560938Y-38123715D01*
X24560938Y-38123715D02*
X24513319Y-38218953D01*
X24513319Y-38218953D02*
X24513319Y-38457048D01*
X24513319Y-38457048D02*
X24560938Y-38552286D01*
X24560938Y-38552286D02*
X24608557Y-38599905D01*
X24608557Y-38599905D02*
X24703795Y-38647524D01*
X24703795Y-38647524D02*
X24799033Y-38647524D01*
X24799033Y-38647524D02*
X24941890Y-38599905D01*
X24941890Y-38599905D02*
X25513319Y-38028477D01*
X25513319Y-38028477D02*
X25513319Y-38647524D01*
X65793857Y-43413819D02*
X66127190Y-42937628D01*
X66365285Y-43413819D02*
X66365285Y-42413819D01*
X66365285Y-42413819D02*
X65984333Y-42413819D01*
X65984333Y-42413819D02*
X65889095Y-42461438D01*
X65889095Y-42461438D02*
X65841476Y-42509057D01*
X65841476Y-42509057D02*
X65793857Y-42604295D01*
X65793857Y-42604295D02*
X65793857Y-42747152D01*
X65793857Y-42747152D02*
X65841476Y-42842390D01*
X65841476Y-42842390D02*
X65889095Y-42890009D01*
X65889095Y-42890009D02*
X65984333Y-42937628D01*
X65984333Y-42937628D02*
X66365285Y-42937628D01*
X65412904Y-42509057D02*
X65365285Y-42461438D01*
X65365285Y-42461438D02*
X65270047Y-42413819D01*
X65270047Y-42413819D02*
X65031952Y-42413819D01*
X65031952Y-42413819D02*
X64936714Y-42461438D01*
X64936714Y-42461438D02*
X64889095Y-42509057D01*
X64889095Y-42509057D02*
X64841476Y-42604295D01*
X64841476Y-42604295D02*
X64841476Y-42699533D01*
X64841476Y-42699533D02*
X64889095Y-42842390D01*
X64889095Y-42842390D02*
X65460523Y-43413819D01*
X65460523Y-43413819D02*
X64841476Y-43413819D01*
X64508142Y-42413819D02*
X63889095Y-42413819D01*
X63889095Y-42413819D02*
X64222428Y-42794771D01*
X64222428Y-42794771D02*
X64079571Y-42794771D01*
X64079571Y-42794771D02*
X63984333Y-42842390D01*
X63984333Y-42842390D02*
X63936714Y-42890009D01*
X63936714Y-42890009D02*
X63889095Y-42985247D01*
X63889095Y-42985247D02*
X63889095Y-43223342D01*
X63889095Y-43223342D02*
X63936714Y-43318580D01*
X63936714Y-43318580D02*
X63984333Y-43366200D01*
X63984333Y-43366200D02*
X64079571Y-43413819D01*
X64079571Y-43413819D02*
X64365285Y-43413819D01*
X64365285Y-43413819D02*
X64460523Y-43366200D01*
X64460523Y-43366200D02*
X64508142Y-43318580D01*
X30884019Y-37101542D02*
X30407828Y-36768209D01*
X30884019Y-36530114D02*
X29884019Y-36530114D01*
X29884019Y-36530114D02*
X29884019Y-36911066D01*
X29884019Y-36911066D02*
X29931638Y-37006304D01*
X29931638Y-37006304D02*
X29979257Y-37053923D01*
X29979257Y-37053923D02*
X30074495Y-37101542D01*
X30074495Y-37101542D02*
X30217352Y-37101542D01*
X30217352Y-37101542D02*
X30312590Y-37053923D01*
X30312590Y-37053923D02*
X30360209Y-37006304D01*
X30360209Y-37006304D02*
X30407828Y-36911066D01*
X30407828Y-36911066D02*
X30407828Y-36530114D01*
X30884019Y-38053923D02*
X30884019Y-37482495D01*
X30884019Y-37768209D02*
X29884019Y-37768209D01*
X29884019Y-37768209D02*
X30026876Y-37672971D01*
X30026876Y-37672971D02*
X30122114Y-37577733D01*
X30122114Y-37577733D02*
X30169733Y-37482495D01*
X30884019Y-38530114D02*
X30884019Y-38720590D01*
X30884019Y-38720590D02*
X30836400Y-38815828D01*
X30836400Y-38815828D02*
X30788780Y-38863447D01*
X30788780Y-38863447D02*
X30645923Y-38958685D01*
X30645923Y-38958685D02*
X30455447Y-39006304D01*
X30455447Y-39006304D02*
X30074495Y-39006304D01*
X30074495Y-39006304D02*
X29979257Y-38958685D01*
X29979257Y-38958685D02*
X29931638Y-38911066D01*
X29931638Y-38911066D02*
X29884019Y-38815828D01*
X29884019Y-38815828D02*
X29884019Y-38625352D01*
X29884019Y-38625352D02*
X29931638Y-38530114D01*
X29931638Y-38530114D02*
X29979257Y-38482495D01*
X29979257Y-38482495D02*
X30074495Y-38434876D01*
X30074495Y-38434876D02*
X30312590Y-38434876D01*
X30312590Y-38434876D02*
X30407828Y-38482495D01*
X30407828Y-38482495D02*
X30455447Y-38530114D01*
X30455447Y-38530114D02*
X30503066Y-38625352D01*
X30503066Y-38625352D02*
X30503066Y-38815828D01*
X30503066Y-38815828D02*
X30455447Y-38911066D01*
X30455447Y-38911066D02*
X30407828Y-38958685D01*
X30407828Y-38958685D02*
X30312590Y-39006304D01*
X41130457Y-46581219D02*
X41463790Y-46105028D01*
X41701885Y-46581219D02*
X41701885Y-45581219D01*
X41701885Y-45581219D02*
X41320933Y-45581219D01*
X41320933Y-45581219D02*
X41225695Y-45628838D01*
X41225695Y-45628838D02*
X41178076Y-45676457D01*
X41178076Y-45676457D02*
X41130457Y-45771695D01*
X41130457Y-45771695D02*
X41130457Y-45914552D01*
X41130457Y-45914552D02*
X41178076Y-46009790D01*
X41178076Y-46009790D02*
X41225695Y-46057409D01*
X41225695Y-46057409D02*
X41320933Y-46105028D01*
X41320933Y-46105028D02*
X41701885Y-46105028D01*
X40749504Y-45676457D02*
X40701885Y-45628838D01*
X40701885Y-45628838D02*
X40606647Y-45581219D01*
X40606647Y-45581219D02*
X40368552Y-45581219D01*
X40368552Y-45581219D02*
X40273314Y-45628838D01*
X40273314Y-45628838D02*
X40225695Y-45676457D01*
X40225695Y-45676457D02*
X40178076Y-45771695D01*
X40178076Y-45771695D02*
X40178076Y-45866933D01*
X40178076Y-45866933D02*
X40225695Y-46009790D01*
X40225695Y-46009790D02*
X40797123Y-46581219D01*
X40797123Y-46581219D02*
X40178076Y-46581219D01*
X39559028Y-45581219D02*
X39463790Y-45581219D01*
X39463790Y-45581219D02*
X39368552Y-45628838D01*
X39368552Y-45628838D02*
X39320933Y-45676457D01*
X39320933Y-45676457D02*
X39273314Y-45771695D01*
X39273314Y-45771695D02*
X39225695Y-45962171D01*
X39225695Y-45962171D02*
X39225695Y-46200266D01*
X39225695Y-46200266D02*
X39273314Y-46390742D01*
X39273314Y-46390742D02*
X39320933Y-46485980D01*
X39320933Y-46485980D02*
X39368552Y-46533600D01*
X39368552Y-46533600D02*
X39463790Y-46581219D01*
X39463790Y-46581219D02*
X39559028Y-46581219D01*
X39559028Y-46581219D02*
X39654266Y-46533600D01*
X39654266Y-46533600D02*
X39701885Y-46485980D01*
X39701885Y-46485980D02*
X39749504Y-46390742D01*
X39749504Y-46390742D02*
X39797123Y-46200266D01*
X39797123Y-46200266D02*
X39797123Y-45962171D01*
X39797123Y-45962171D02*
X39749504Y-45771695D01*
X39749504Y-45771695D02*
X39701885Y-45676457D01*
X39701885Y-45676457D02*
X39654266Y-45628838D01*
X39654266Y-45628838D02*
X39559028Y-45581219D01*
X36456857Y-45057219D02*
X36790190Y-44581028D01*
X37028285Y-45057219D02*
X37028285Y-44057219D01*
X37028285Y-44057219D02*
X36647333Y-44057219D01*
X36647333Y-44057219D02*
X36552095Y-44104838D01*
X36552095Y-44104838D02*
X36504476Y-44152457D01*
X36504476Y-44152457D02*
X36456857Y-44247695D01*
X36456857Y-44247695D02*
X36456857Y-44390552D01*
X36456857Y-44390552D02*
X36504476Y-44485790D01*
X36504476Y-44485790D02*
X36552095Y-44533409D01*
X36552095Y-44533409D02*
X36647333Y-44581028D01*
X36647333Y-44581028D02*
X37028285Y-44581028D01*
X35504476Y-45057219D02*
X36075904Y-45057219D01*
X35790190Y-45057219D02*
X35790190Y-44057219D01*
X35790190Y-44057219D02*
X35885428Y-44200076D01*
X35885428Y-44200076D02*
X35980666Y-44295314D01*
X35980666Y-44295314D02*
X36075904Y-44342933D01*
X34599714Y-44057219D02*
X35075904Y-44057219D01*
X35075904Y-44057219D02*
X35123523Y-44533409D01*
X35123523Y-44533409D02*
X35075904Y-44485790D01*
X35075904Y-44485790D02*
X34980666Y-44438171D01*
X34980666Y-44438171D02*
X34742571Y-44438171D01*
X34742571Y-44438171D02*
X34647333Y-44485790D01*
X34647333Y-44485790D02*
X34599714Y-44533409D01*
X34599714Y-44533409D02*
X34552095Y-44628647D01*
X34552095Y-44628647D02*
X34552095Y-44866742D01*
X34552095Y-44866742D02*
X34599714Y-44961980D01*
X34599714Y-44961980D02*
X34647333Y-45009600D01*
X34647333Y-45009600D02*
X34742571Y-45057219D01*
X34742571Y-45057219D02*
X34980666Y-45057219D01*
X34980666Y-45057219D02*
X35075904Y-45009600D01*
X35075904Y-45009600D02*
X35123523Y-44961980D01*
X21108894Y-31188819D02*
X21108894Y-30188819D01*
X21108894Y-30188819D02*
X20870799Y-30188819D01*
X20870799Y-30188819D02*
X20727942Y-30236438D01*
X20727942Y-30236438D02*
X20632704Y-30331676D01*
X20632704Y-30331676D02*
X20585085Y-30426914D01*
X20585085Y-30426914D02*
X20537466Y-30617390D01*
X20537466Y-30617390D02*
X20537466Y-30760247D01*
X20537466Y-30760247D02*
X20585085Y-30950723D01*
X20585085Y-30950723D02*
X20632704Y-31045961D01*
X20632704Y-31045961D02*
X20727942Y-31141200D01*
X20727942Y-31141200D02*
X20870799Y-31188819D01*
X20870799Y-31188819D02*
X21108894Y-31188819D01*
X20156513Y-30284057D02*
X20108894Y-30236438D01*
X20108894Y-30236438D02*
X20013656Y-30188819D01*
X20013656Y-30188819D02*
X19775561Y-30188819D01*
X19775561Y-30188819D02*
X19680323Y-30236438D01*
X19680323Y-30236438D02*
X19632704Y-30284057D01*
X19632704Y-30284057D02*
X19585085Y-30379295D01*
X19585085Y-30379295D02*
X19585085Y-30474533D01*
X19585085Y-30474533D02*
X19632704Y-30617390D01*
X19632704Y-30617390D02*
X20204132Y-31188819D01*
X20204132Y-31188819D02*
X19585085Y-31188819D01*
X31159319Y-31331286D02*
X31159319Y-31902714D01*
X32159319Y-31617000D02*
X31159319Y-31617000D01*
X32159319Y-32236048D02*
X31159319Y-32236048D01*
X31635509Y-32236048D02*
X31635509Y-32807476D01*
X32159319Y-32807476D02*
X31159319Y-32807476D01*
X32159319Y-33807476D02*
X32159319Y-33236048D01*
X32159319Y-33521762D02*
X31159319Y-33521762D01*
X31159319Y-33521762D02*
X31302176Y-33426524D01*
X31302176Y-33426524D02*
X31397414Y-33331286D01*
X31397414Y-33331286D02*
X31445033Y-33236048D01*
X44953085Y-35659219D02*
X44953085Y-34659219D01*
X44953085Y-34659219D02*
X44714990Y-34659219D01*
X44714990Y-34659219D02*
X44572133Y-34706838D01*
X44572133Y-34706838D02*
X44476895Y-34802076D01*
X44476895Y-34802076D02*
X44429276Y-34897314D01*
X44429276Y-34897314D02*
X44381657Y-35087790D01*
X44381657Y-35087790D02*
X44381657Y-35230647D01*
X44381657Y-35230647D02*
X44429276Y-35421123D01*
X44429276Y-35421123D02*
X44476895Y-35516361D01*
X44476895Y-35516361D02*
X44572133Y-35611600D01*
X44572133Y-35611600D02*
X44714990Y-35659219D01*
X44714990Y-35659219D02*
X44953085Y-35659219D01*
X43429276Y-35659219D02*
X44000704Y-35659219D01*
X43714990Y-35659219D02*
X43714990Y-34659219D01*
X43714990Y-34659219D02*
X43810228Y-34802076D01*
X43810228Y-34802076D02*
X43905466Y-34897314D01*
X43905466Y-34897314D02*
X44000704Y-34944933D01*
X43048323Y-34754457D02*
X43000704Y-34706838D01*
X43000704Y-34706838D02*
X42905466Y-34659219D01*
X42905466Y-34659219D02*
X42667371Y-34659219D01*
X42667371Y-34659219D02*
X42572133Y-34706838D01*
X42572133Y-34706838D02*
X42524514Y-34754457D01*
X42524514Y-34754457D02*
X42476895Y-34849695D01*
X42476895Y-34849695D02*
X42476895Y-34944933D01*
X42476895Y-34944933D02*
X42524514Y-35087790D01*
X42524514Y-35087790D02*
X43095942Y-35659219D01*
X43095942Y-35659219D02*
X42476895Y-35659219D01*
X31509619Y-36865086D02*
X31509619Y-37436514D01*
X32509619Y-37150800D02*
X31509619Y-37150800D01*
X32509619Y-37769848D02*
X31509619Y-37769848D01*
X31985809Y-37769848D02*
X31985809Y-38341276D01*
X32509619Y-38341276D02*
X31509619Y-38341276D01*
X31509619Y-38722229D02*
X31509619Y-39341276D01*
X31509619Y-39341276D02*
X31890571Y-39007943D01*
X31890571Y-39007943D02*
X31890571Y-39150800D01*
X31890571Y-39150800D02*
X31938190Y-39246038D01*
X31938190Y-39246038D02*
X31985809Y-39293657D01*
X31985809Y-39293657D02*
X32081047Y-39341276D01*
X32081047Y-39341276D02*
X32319142Y-39341276D01*
X32319142Y-39341276D02*
X32414380Y-39293657D01*
X32414380Y-39293657D02*
X32462000Y-39246038D01*
X32462000Y-39246038D02*
X32509619Y-39150800D01*
X32509619Y-39150800D02*
X32509619Y-38865086D01*
X32509619Y-38865086D02*
X32462000Y-38769848D01*
X32462000Y-38769848D02*
X32414380Y-38722229D01*
X25697457Y-27060761D02*
X25649838Y-26965523D01*
X25649838Y-26965523D02*
X25554600Y-26870285D01*
X25554600Y-26870285D02*
X25411742Y-26727428D01*
X25411742Y-26727428D02*
X25364123Y-26632190D01*
X25364123Y-26632190D02*
X25364123Y-26536952D01*
X25602219Y-26584571D02*
X25554600Y-26489333D01*
X25554600Y-26489333D02*
X25459361Y-26394095D01*
X25459361Y-26394095D02*
X25268885Y-26346476D01*
X25268885Y-26346476D02*
X24935552Y-26346476D01*
X24935552Y-26346476D02*
X24745076Y-26394095D01*
X24745076Y-26394095D02*
X24649838Y-26489333D01*
X24649838Y-26489333D02*
X24602219Y-26584571D01*
X24602219Y-26584571D02*
X24602219Y-26775047D01*
X24602219Y-26775047D02*
X24649838Y-26870285D01*
X24649838Y-26870285D02*
X24745076Y-26965523D01*
X24745076Y-26965523D02*
X24935552Y-27013142D01*
X24935552Y-27013142D02*
X25268885Y-27013142D01*
X25268885Y-27013142D02*
X25459361Y-26965523D01*
X25459361Y-26965523D02*
X25554600Y-26870285D01*
X25554600Y-26870285D02*
X25602219Y-26775047D01*
X25602219Y-26775047D02*
X25602219Y-26584571D01*
X25602219Y-27965523D02*
X25602219Y-27394095D01*
X25602219Y-27679809D02*
X24602219Y-27679809D01*
X24602219Y-27679809D02*
X24745076Y-27584571D01*
X24745076Y-27584571D02*
X24840314Y-27489333D01*
X24840314Y-27489333D02*
X24887933Y-27394095D01*
X72946419Y-42543505D02*
X71946419Y-42543505D01*
X71946419Y-42543505D02*
X71946419Y-42781600D01*
X71946419Y-42781600D02*
X71994038Y-42924457D01*
X71994038Y-42924457D02*
X72089276Y-43019695D01*
X72089276Y-43019695D02*
X72184514Y-43067314D01*
X72184514Y-43067314D02*
X72374990Y-43114933D01*
X72374990Y-43114933D02*
X72517847Y-43114933D01*
X72517847Y-43114933D02*
X72708323Y-43067314D01*
X72708323Y-43067314D02*
X72803561Y-43019695D01*
X72803561Y-43019695D02*
X72898800Y-42924457D01*
X72898800Y-42924457D02*
X72946419Y-42781600D01*
X72946419Y-42781600D02*
X72946419Y-42543505D01*
X72374990Y-43686362D02*
X72327371Y-43591124D01*
X72327371Y-43591124D02*
X72279752Y-43543505D01*
X72279752Y-43543505D02*
X72184514Y-43495886D01*
X72184514Y-43495886D02*
X72136895Y-43495886D01*
X72136895Y-43495886D02*
X72041657Y-43543505D01*
X72041657Y-43543505D02*
X71994038Y-43591124D01*
X71994038Y-43591124D02*
X71946419Y-43686362D01*
X71946419Y-43686362D02*
X71946419Y-43876838D01*
X71946419Y-43876838D02*
X71994038Y-43972076D01*
X71994038Y-43972076D02*
X72041657Y-44019695D01*
X72041657Y-44019695D02*
X72136895Y-44067314D01*
X72136895Y-44067314D02*
X72184514Y-44067314D01*
X72184514Y-44067314D02*
X72279752Y-44019695D01*
X72279752Y-44019695D02*
X72327371Y-43972076D01*
X72327371Y-43972076D02*
X72374990Y-43876838D01*
X72374990Y-43876838D02*
X72374990Y-43686362D01*
X72374990Y-43686362D02*
X72422609Y-43591124D01*
X72422609Y-43591124D02*
X72470228Y-43543505D01*
X72470228Y-43543505D02*
X72565466Y-43495886D01*
X72565466Y-43495886D02*
X72755942Y-43495886D01*
X72755942Y-43495886D02*
X72851180Y-43543505D01*
X72851180Y-43543505D02*
X72898800Y-43591124D01*
X72898800Y-43591124D02*
X72946419Y-43686362D01*
X72946419Y-43686362D02*
X72946419Y-43876838D01*
X72946419Y-43876838D02*
X72898800Y-43972076D01*
X72898800Y-43972076D02*
X72851180Y-44019695D01*
X72851180Y-44019695D02*
X72755942Y-44067314D01*
X72755942Y-44067314D02*
X72565466Y-44067314D01*
X72565466Y-44067314D02*
X72470228Y-44019695D01*
X72470228Y-44019695D02*
X72422609Y-43972076D01*
X72422609Y-43972076D02*
X72374990Y-43876838D01*
X33267638Y-26153257D02*
X33362876Y-26105638D01*
X33362876Y-26105638D02*
X33458114Y-26010400D01*
X33458114Y-26010400D02*
X33600971Y-25867542D01*
X33600971Y-25867542D02*
X33696209Y-25819923D01*
X33696209Y-25819923D02*
X33791447Y-25819923D01*
X33743828Y-26058019D02*
X33839066Y-26010400D01*
X33839066Y-26010400D02*
X33934304Y-25915161D01*
X33934304Y-25915161D02*
X33981923Y-25724685D01*
X33981923Y-25724685D02*
X33981923Y-25391352D01*
X33981923Y-25391352D02*
X33934304Y-25200876D01*
X33934304Y-25200876D02*
X33839066Y-25105638D01*
X33839066Y-25105638D02*
X33743828Y-25058019D01*
X33743828Y-25058019D02*
X33553352Y-25058019D01*
X33553352Y-25058019D02*
X33458114Y-25105638D01*
X33458114Y-25105638D02*
X33362876Y-25200876D01*
X33362876Y-25200876D02*
X33315257Y-25391352D01*
X33315257Y-25391352D02*
X33315257Y-25724685D01*
X33315257Y-25724685D02*
X33362876Y-25915161D01*
X33362876Y-25915161D02*
X33458114Y-26010400D01*
X33458114Y-26010400D02*
X33553352Y-26058019D01*
X33553352Y-26058019D02*
X33743828Y-26058019D01*
X32981923Y-25058019D02*
X32362876Y-25058019D01*
X32362876Y-25058019D02*
X32696209Y-25438971D01*
X32696209Y-25438971D02*
X32553352Y-25438971D01*
X32553352Y-25438971D02*
X32458114Y-25486590D01*
X32458114Y-25486590D02*
X32410495Y-25534209D01*
X32410495Y-25534209D02*
X32362876Y-25629447D01*
X32362876Y-25629447D02*
X32362876Y-25867542D01*
X32362876Y-25867542D02*
X32410495Y-25962780D01*
X32410495Y-25962780D02*
X32458114Y-26010400D01*
X32458114Y-26010400D02*
X32553352Y-26058019D01*
X32553352Y-26058019D02*
X32839066Y-26058019D01*
X32839066Y-26058019D02*
X32934304Y-26010400D01*
X32934304Y-26010400D02*
X32981923Y-25962780D01*
X75374571Y-37930942D02*
X75279333Y-37978561D01*
X75279333Y-37978561D02*
X75184095Y-38073800D01*
X75184095Y-38073800D02*
X75041238Y-38216657D01*
X75041238Y-38216657D02*
X74946000Y-38264276D01*
X74946000Y-38264276D02*
X74850762Y-38264276D01*
X74898381Y-38026180D02*
X74803143Y-38073800D01*
X74803143Y-38073800D02*
X74707905Y-38169038D01*
X74707905Y-38169038D02*
X74660286Y-38359514D01*
X74660286Y-38359514D02*
X74660286Y-38692847D01*
X74660286Y-38692847D02*
X74707905Y-38883323D01*
X74707905Y-38883323D02*
X74803143Y-38978561D01*
X74803143Y-38978561D02*
X74898381Y-39026180D01*
X74898381Y-39026180D02*
X75088857Y-39026180D01*
X75088857Y-39026180D02*
X75184095Y-38978561D01*
X75184095Y-38978561D02*
X75279333Y-38883323D01*
X75279333Y-38883323D02*
X75326952Y-38692847D01*
X75326952Y-38692847D02*
X75326952Y-38359514D01*
X75326952Y-38359514D02*
X75279333Y-38169038D01*
X75279333Y-38169038D02*
X75184095Y-38073800D01*
X75184095Y-38073800D02*
X75088857Y-38026180D01*
X75088857Y-38026180D02*
X74898381Y-38026180D01*
X76279333Y-38026180D02*
X75707905Y-38026180D01*
X75993619Y-38026180D02*
X75993619Y-39026180D01*
X75993619Y-39026180D02*
X75898381Y-38883323D01*
X75898381Y-38883323D02*
X75803143Y-38788085D01*
X75803143Y-38788085D02*
X75707905Y-38740466D01*
X77231714Y-38026180D02*
X76660286Y-38026180D01*
X76946000Y-38026180D02*
X76946000Y-39026180D01*
X76946000Y-39026180D02*
X76850762Y-38883323D01*
X76850762Y-38883323D02*
X76755524Y-38788085D01*
X76755524Y-38788085D02*
X76660286Y-38740466D01*
X26907238Y-46016057D02*
X27002476Y-45968438D01*
X27002476Y-45968438D02*
X27097714Y-45873200D01*
X27097714Y-45873200D02*
X27240571Y-45730342D01*
X27240571Y-45730342D02*
X27335809Y-45682723D01*
X27335809Y-45682723D02*
X27431047Y-45682723D01*
X27383428Y-45920819D02*
X27478666Y-45873200D01*
X27478666Y-45873200D02*
X27573904Y-45777961D01*
X27573904Y-45777961D02*
X27621523Y-45587485D01*
X27621523Y-45587485D02*
X27621523Y-45254152D01*
X27621523Y-45254152D02*
X27573904Y-45063676D01*
X27573904Y-45063676D02*
X27478666Y-44968438D01*
X27478666Y-44968438D02*
X27383428Y-44920819D01*
X27383428Y-44920819D02*
X27192952Y-44920819D01*
X27192952Y-44920819D02*
X27097714Y-44968438D01*
X27097714Y-44968438D02*
X27002476Y-45063676D01*
X27002476Y-45063676D02*
X26954857Y-45254152D01*
X26954857Y-45254152D02*
X26954857Y-45587485D01*
X26954857Y-45587485D02*
X27002476Y-45777961D01*
X27002476Y-45777961D02*
X27097714Y-45873200D01*
X27097714Y-45873200D02*
X27192952Y-45920819D01*
X27192952Y-45920819D02*
X27383428Y-45920819D01*
X26383428Y-45349390D02*
X26478666Y-45301771D01*
X26478666Y-45301771D02*
X26526285Y-45254152D01*
X26526285Y-45254152D02*
X26573904Y-45158914D01*
X26573904Y-45158914D02*
X26573904Y-45111295D01*
X26573904Y-45111295D02*
X26526285Y-45016057D01*
X26526285Y-45016057D02*
X26478666Y-44968438D01*
X26478666Y-44968438D02*
X26383428Y-44920819D01*
X26383428Y-44920819D02*
X26192952Y-44920819D01*
X26192952Y-44920819D02*
X26097714Y-44968438D01*
X26097714Y-44968438D02*
X26050095Y-45016057D01*
X26050095Y-45016057D02*
X26002476Y-45111295D01*
X26002476Y-45111295D02*
X26002476Y-45158914D01*
X26002476Y-45158914D02*
X26050095Y-45254152D01*
X26050095Y-45254152D02*
X26097714Y-45301771D01*
X26097714Y-45301771D02*
X26192952Y-45349390D01*
X26192952Y-45349390D02*
X26383428Y-45349390D01*
X26383428Y-45349390D02*
X26478666Y-45397009D01*
X26478666Y-45397009D02*
X26526285Y-45444628D01*
X26526285Y-45444628D02*
X26573904Y-45539866D01*
X26573904Y-45539866D02*
X26573904Y-45730342D01*
X26573904Y-45730342D02*
X26526285Y-45825580D01*
X26526285Y-45825580D02*
X26478666Y-45873200D01*
X26478666Y-45873200D02*
X26383428Y-45920819D01*
X26383428Y-45920819D02*
X26192952Y-45920819D01*
X26192952Y-45920819D02*
X26097714Y-45873200D01*
X26097714Y-45873200D02*
X26050095Y-45825580D01*
X26050095Y-45825580D02*
X26002476Y-45730342D01*
X26002476Y-45730342D02*
X26002476Y-45539866D01*
X26002476Y-45539866D02*
X26050095Y-45444628D01*
X26050095Y-45444628D02*
X26097714Y-45397009D01*
X26097714Y-45397009D02*
X26192952Y-45349390D01*
X21289319Y-37633833D02*
X20813128Y-37300500D01*
X21289319Y-37062405D02*
X20289319Y-37062405D01*
X20289319Y-37062405D02*
X20289319Y-37443357D01*
X20289319Y-37443357D02*
X20336938Y-37538595D01*
X20336938Y-37538595D02*
X20384557Y-37586214D01*
X20384557Y-37586214D02*
X20479795Y-37633833D01*
X20479795Y-37633833D02*
X20622652Y-37633833D01*
X20622652Y-37633833D02*
X20717890Y-37586214D01*
X20717890Y-37586214D02*
X20765509Y-37538595D01*
X20765509Y-37538595D02*
X20813128Y-37443357D01*
X20813128Y-37443357D02*
X20813128Y-37062405D01*
X20622652Y-38490976D02*
X21289319Y-38490976D01*
X20241700Y-38252881D02*
X20955985Y-38014786D01*
X20955985Y-38014786D02*
X20955985Y-38633833D01*
X31493619Y-40200342D02*
X31017428Y-39867009D01*
X31493619Y-39628914D02*
X30493619Y-39628914D01*
X30493619Y-39628914D02*
X30493619Y-40009866D01*
X30493619Y-40009866D02*
X30541238Y-40105104D01*
X30541238Y-40105104D02*
X30588857Y-40152723D01*
X30588857Y-40152723D02*
X30684095Y-40200342D01*
X30684095Y-40200342D02*
X30826952Y-40200342D01*
X30826952Y-40200342D02*
X30922190Y-40152723D01*
X30922190Y-40152723D02*
X30969809Y-40105104D01*
X30969809Y-40105104D02*
X31017428Y-40009866D01*
X31017428Y-40009866D02*
X31017428Y-39628914D01*
X30588857Y-40581295D02*
X30541238Y-40628914D01*
X30541238Y-40628914D02*
X30493619Y-40724152D01*
X30493619Y-40724152D02*
X30493619Y-40962247D01*
X30493619Y-40962247D02*
X30541238Y-41057485D01*
X30541238Y-41057485D02*
X30588857Y-41105104D01*
X30588857Y-41105104D02*
X30684095Y-41152723D01*
X30684095Y-41152723D02*
X30779333Y-41152723D01*
X30779333Y-41152723D02*
X30922190Y-41105104D01*
X30922190Y-41105104D02*
X31493619Y-40533676D01*
X31493619Y-40533676D02*
X31493619Y-41152723D01*
X30588857Y-41533676D02*
X30541238Y-41581295D01*
X30541238Y-41581295D02*
X30493619Y-41676533D01*
X30493619Y-41676533D02*
X30493619Y-41914628D01*
X30493619Y-41914628D02*
X30541238Y-42009866D01*
X30541238Y-42009866D02*
X30588857Y-42057485D01*
X30588857Y-42057485D02*
X30684095Y-42105104D01*
X30684095Y-42105104D02*
X30779333Y-42105104D01*
X30779333Y-42105104D02*
X30922190Y-42057485D01*
X30922190Y-42057485D02*
X31493619Y-41486057D01*
X31493619Y-41486057D02*
X31493619Y-42105104D01*
X66788819Y-37964905D02*
X65788819Y-37964905D01*
X65788819Y-37964905D02*
X65788819Y-38203000D01*
X65788819Y-38203000D02*
X65836438Y-38345857D01*
X65836438Y-38345857D02*
X65931676Y-38441095D01*
X65931676Y-38441095D02*
X66026914Y-38488714D01*
X66026914Y-38488714D02*
X66217390Y-38536333D01*
X66217390Y-38536333D02*
X66360247Y-38536333D01*
X66360247Y-38536333D02*
X66550723Y-38488714D01*
X66550723Y-38488714D02*
X66645961Y-38441095D01*
X66645961Y-38441095D02*
X66741200Y-38345857D01*
X66741200Y-38345857D02*
X66788819Y-38203000D01*
X66788819Y-38203000D02*
X66788819Y-37964905D01*
X65788819Y-38869667D02*
X65788819Y-39536333D01*
X65788819Y-39536333D02*
X66788819Y-39107762D01*
X40485219Y-30414933D02*
X40009028Y-30081600D01*
X40485219Y-29843505D02*
X39485219Y-29843505D01*
X39485219Y-29843505D02*
X39485219Y-30224457D01*
X39485219Y-30224457D02*
X39532838Y-30319695D01*
X39532838Y-30319695D02*
X39580457Y-30367314D01*
X39580457Y-30367314D02*
X39675695Y-30414933D01*
X39675695Y-30414933D02*
X39818552Y-30414933D01*
X39818552Y-30414933D02*
X39913790Y-30367314D01*
X39913790Y-30367314D02*
X39961409Y-30319695D01*
X39961409Y-30319695D02*
X40009028Y-30224457D01*
X40009028Y-30224457D02*
X40009028Y-29843505D01*
X39485219Y-31319695D02*
X39485219Y-30843505D01*
X39485219Y-30843505D02*
X39961409Y-30795886D01*
X39961409Y-30795886D02*
X39913790Y-30843505D01*
X39913790Y-30843505D02*
X39866171Y-30938743D01*
X39866171Y-30938743D02*
X39866171Y-31176838D01*
X39866171Y-31176838D02*
X39913790Y-31272076D01*
X39913790Y-31272076D02*
X39961409Y-31319695D01*
X39961409Y-31319695D02*
X40056647Y-31367314D01*
X40056647Y-31367314D02*
X40294742Y-31367314D01*
X40294742Y-31367314D02*
X40389980Y-31319695D01*
X40389980Y-31319695D02*
X40437600Y-31272076D01*
X40437600Y-31272076D02*
X40485219Y-31176838D01*
X40485219Y-31176838D02*
X40485219Y-30938743D01*
X40485219Y-30938743D02*
X40437600Y-30843505D01*
X40437600Y-30843505D02*
X40389980Y-30795886D01*
D12*
%TO.C,R16*%
X40752500Y-42567724D02*
X40752500Y-42058276D01*
X41797500Y-42567724D02*
X41797500Y-42058276D01*
%TO.C,R25*%
X75518499Y-34566776D02*
X75518499Y-35076224D01*
X74473499Y-34566776D02*
X74473499Y-35076224D01*
D13*
%TO.C,Q9*%
X63528101Y-39624000D02*
X63528101Y-37846000D01*
X64562361Y-39624000D02*
X63528101Y-39624000D01*
X64845840Y-37846000D02*
X65512362Y-37846000D01*
X66830101Y-37846000D02*
X66830101Y-39624000D01*
X66830101Y-39624000D02*
X65795841Y-39624000D01*
X64305301Y-36264101D02*
G75*
G03*
X64152901Y-36264101I-76200J0D01*
G01*
X64152901Y-36264101D02*
G75*
G03*
X64305301Y-36264101I76200J0D01*
G01*
D12*
%TO.C,R3*%
X27330000Y-38031724D02*
X27330000Y-37522276D01*
X28375000Y-38031724D02*
X28375000Y-37522276D01*
%TO.C,R2*%
X21830900Y-27349723D02*
X21830900Y-26840275D01*
X22875900Y-27349723D02*
X22875900Y-26840275D01*
%TO.C,R29*%
X69610500Y-30970776D02*
X69610500Y-31480224D01*
X68565500Y-30970776D02*
X68565500Y-31480224D01*
%TO.C,R1*%
X27418900Y-27476723D02*
X27418900Y-26967275D01*
X28463900Y-27476723D02*
X28463900Y-26967275D01*
%TO.C,R18*%
X27043224Y-43194500D02*
X26533776Y-43194500D01*
X27043224Y-42149500D02*
X26533776Y-42149500D01*
%TO.C,R27*%
X75653775Y-40752500D02*
X76163223Y-40752500D01*
X75653775Y-41797500D02*
X76163223Y-41797500D01*
%TO.C,D11*%
X34939000Y-37085000D02*
X40449000Y-37085000D01*
X34939000Y-40385000D02*
X34939000Y-37085000D01*
X34939000Y-40385000D02*
X40449000Y-40385000D01*
%TO.C,R17*%
X26580776Y-47737500D02*
X27090224Y-47737500D01*
X26580776Y-48782500D02*
X27090224Y-48782500D01*
%TO.C,R6*%
X35204000Y-28675724D02*
X35204000Y-28166276D01*
X36249000Y-28675724D02*
X36249000Y-28166276D01*
%TO.C,D10*%
X35177000Y-46924500D02*
X31917000Y-46924500D01*
X35177000Y-45224500D02*
X35177000Y-46924500D01*
X35177000Y-45224500D02*
X31917000Y-45224500D01*
%TO.C,J3*%
X40966000Y-24996000D02*
X40966000Y-24173530D01*
X49791000Y-24996000D02*
X40966000Y-24996000D01*
X49791000Y-24996000D02*
X49791000Y-24429471D01*
X50551000Y-24996000D02*
X51311000Y-24996000D01*
X51311000Y-24996000D02*
X51311000Y-23866000D01*
X40966000Y-23558470D02*
X40966000Y-22903530D01*
X49791000Y-23302529D02*
X49791000Y-23159471D01*
X49844471Y-23106000D02*
X49987529Y-23106000D01*
X51114471Y-23106000D02*
X51246000Y-23106000D01*
X51246000Y-23106000D02*
X51246000Y-22903530D01*
X40966000Y-22288470D02*
X40966000Y-21466000D01*
X51246000Y-22288470D02*
X51246000Y-21466000D01*
X51246000Y-21466000D02*
X40966000Y-21466000D01*
%TO.C,D3*%
X28600500Y-35918000D02*
X23090500Y-35918000D01*
X28600500Y-32618000D02*
X28600500Y-35918000D01*
X28600500Y-32618000D02*
X23090500Y-32618000D01*
%TO.C,R7*%
X31169000Y-27917276D02*
X31169000Y-28426724D01*
X30124000Y-27917276D02*
X30124000Y-28426724D01*
D13*
%TO.C,Q7*%
X39370000Y-43964000D02*
X37592000Y-43964000D01*
X39370000Y-42929740D02*
X39370000Y-43964000D01*
X37592000Y-42646261D02*
X37592000Y-41979739D01*
X37592000Y-40662000D02*
X39370000Y-40662000D01*
X39370000Y-40662000D02*
X39370000Y-41696260D01*
X36086301Y-43263000D02*
G75*
G03*
X35933901Y-43263000I-76200J0D01*
G01*
X35933901Y-43263000D02*
G75*
G03*
X36086301Y-43263000I76200J0D01*
G01*
D12*
%TO.C,R28*%
X61072500Y-31306224D02*
X61072500Y-30796776D01*
X62117500Y-31306224D02*
X62117500Y-30796776D01*
%TO.C,D5*%
X62523000Y-33105000D02*
X62523000Y-29845000D01*
X64223000Y-33105000D02*
X62523000Y-33105000D01*
X64223000Y-33105000D02*
X64223000Y-29845000D01*
%TO.C,D1*%
X31156500Y-30497000D02*
X34416500Y-30497000D01*
X31156500Y-32197000D02*
X31156500Y-30497000D01*
X31156500Y-32197000D02*
X34416500Y-32197000D01*
%TO.C,Q10*%
X34707000Y-43026500D02*
X34707000Y-42376500D01*
X34707000Y-43026500D02*
X34707000Y-43676500D01*
X31587000Y-43026500D02*
X31587000Y-41351500D01*
X31587000Y-43026500D02*
X31587000Y-43676500D01*
D13*
%TO.C,Q2*%
X24169500Y-36187001D02*
X25947500Y-36187001D01*
X24169500Y-37221261D02*
X24169500Y-36187001D01*
X25947500Y-37504740D02*
X25947500Y-38171262D01*
X25947500Y-39489001D02*
X24169500Y-39489001D01*
X24169500Y-39489001D02*
X24169500Y-38454741D01*
X27605599Y-36888001D02*
G75*
G03*
X27453199Y-36888001I-76200J0D01*
G01*
X27453199Y-36888001D02*
G75*
G03*
X27605599Y-36888001I76200J0D01*
G01*
D12*
%TO.C,R23*%
X64896276Y-41006500D02*
X65405724Y-41006500D01*
X64896276Y-42051500D02*
X65405724Y-42051500D01*
%TO.C,TH5*%
X71339064Y-34946000D02*
X69884936Y-34946000D01*
X71339064Y-33126000D02*
X69884936Y-33126000D01*
%TO.C,R19*%
X30367500Y-40766276D02*
X30367500Y-41275724D01*
X29322500Y-40766276D02*
X29322500Y-41275724D01*
%TO.C,R21*%
X63739500Y-35283224D02*
X63739500Y-34773776D01*
X64784500Y-35283224D02*
X64784500Y-34773776D01*
%TO.C,R20*%
X36956276Y-45552000D02*
X37465724Y-45552000D01*
X36956276Y-46597000D02*
X37465724Y-46597000D01*
%TO.C,R15*%
X36209500Y-42058276D02*
X36209500Y-42567724D01*
X35164500Y-42058276D02*
X35164500Y-42567724D01*
%TO.C,D2*%
X28600500Y-32384000D02*
X23090500Y-32384000D01*
X28600500Y-29084000D02*
X28600500Y-32384000D01*
X28600500Y-29084000D02*
X23090500Y-29084000D01*
%TO.C,TH1*%
X28974500Y-33344064D02*
X28974500Y-31889936D01*
X30794500Y-33344064D02*
X30794500Y-31889936D01*
%TO.C,D12*%
X34939000Y-33551000D02*
X40449000Y-33551000D01*
X34939000Y-36851000D02*
X34939000Y-33551000D01*
X34939000Y-36851000D02*
X40449000Y-36851000D01*
%TO.C,TH3*%
X34692000Y-36124936D02*
X34692000Y-37579064D01*
X32872000Y-36124936D02*
X32872000Y-37579064D01*
D13*
%TO.C,Q1*%
X24258400Y-25505000D02*
X26036400Y-25505000D01*
X24258400Y-26539260D02*
X24258400Y-25505000D01*
X26036400Y-26822739D02*
X26036400Y-27489261D01*
X26036400Y-28807000D02*
X24258400Y-28807000D01*
X24258400Y-28807000D02*
X24258400Y-27772740D01*
X27694499Y-26206000D02*
G75*
G03*
X27542099Y-26206000I-76200J0D01*
G01*
X27542099Y-26206000D02*
G75*
G03*
X27694499Y-26206000I76200J0D01*
G01*
D12*
%TO.C,D8*%
X74040000Y-35193000D02*
X74040000Y-40703000D01*
X70740000Y-35193000D02*
X74040000Y-35193000D01*
X70740000Y-35193000D02*
X70740000Y-40703000D01*
%TO.C,Q3*%
X34746500Y-28299000D02*
X34746500Y-27649000D01*
X34746500Y-28299000D02*
X34746500Y-28949000D01*
X31626500Y-28299000D02*
X31626500Y-26624000D01*
X31626500Y-28299000D02*
X31626500Y-28949000D01*
D13*
%TO.C,Q11*%
X74295000Y-39370000D02*
X74295000Y-37592000D01*
X75329260Y-39370000D02*
X74295000Y-39370000D01*
X75612739Y-37592000D02*
X76279261Y-37592000D01*
X77597000Y-37592000D02*
X77597000Y-39370000D01*
X77597000Y-39370000D02*
X76562740Y-39370000D01*
X75072200Y-36010101D02*
G75*
G03*
X74919800Y-36010101I-76200J0D01*
G01*
X74919800Y-36010101D02*
G75*
G03*
X75072200Y-36010101I76200J0D01*
G01*
%TO.C,Q8*%
X28463000Y-44577000D02*
X28463000Y-46355000D01*
X27428740Y-44577000D02*
X28463000Y-44577000D01*
X27145261Y-46355000D02*
X26478739Y-46355000D01*
X25161000Y-46355000D02*
X25161000Y-44577000D01*
X25161000Y-44577000D02*
X26195260Y-44577000D01*
X27838200Y-47936899D02*
G75*
G03*
X27685800Y-47936899I-76200J0D01*
G01*
X27685800Y-47936899D02*
G75*
G03*
X27838200Y-47936899I76200J0D01*
G01*
D12*
%TO.C,R4*%
X22787000Y-37545776D02*
X22787000Y-38055224D01*
X21742000Y-37545776D02*
X21742000Y-38055224D01*
%TO.C,R22*%
X32868776Y-39837000D02*
X33378224Y-39837000D01*
X32868776Y-40882000D02*
X33378224Y-40882000D01*
%TO.C,D7*%
X70484000Y-35193000D02*
X70484000Y-40703000D01*
X67184000Y-35193000D02*
X70484000Y-35193000D01*
X67184000Y-35193000D02*
X67184000Y-40703000D01*
%TO.C,R26*%
X64134276Y-27758500D02*
X64643724Y-27758500D01*
X64134276Y-28803500D02*
X64643724Y-28803500D01*
%TO.C,Q12*%
X66421000Y-32762000D02*
X67071000Y-32762000D01*
X66421000Y-32762000D02*
X65771000Y-32762000D01*
X66421000Y-29642000D02*
X68096000Y-29642000D01*
X66421000Y-29642000D02*
X65771000Y-29642000D01*
%TO.C,R5*%
X37196500Y-30607724D02*
X37196500Y-30098276D01*
X38241500Y-30607724D02*
X38241500Y-30098276D01*
%TD*%
M02*
