%TF.GenerationSoftware,KiCad,Pcbnew,7.0.10*%
%TF.CreationDate,2025-06-08T09:49:36+02:00*%
%TF.ProjectId,DIC_Addon,4449435f-4164-4646-9f6e-2e6b69636164,rev?*%
%TF.SameCoordinates,Original*%
%TF.FileFunction,Copper,L4,Bot*%
%TF.FilePolarity,Positive*%
%FSLAX46Y46*%
G04 Gerber Fmt 4.6, Leading zero omitted, Abs format (unit mm)*
G04 Created by KiCad (PCBNEW 7.0.10) date 2025-06-08 09:49:36*
%MOMM*%
%LPD*%
G01*
G04 APERTURE LIST*
G04 Aperture macros list*
%AMRoundRect*
0 Rectangle with rounded corners*
0 $1 Rounding radius*
0 $2 $3 $4 $5 $6 $7 $8 $9 X,Y pos of 4 corners*
0 Add a 4 corners polygon primitive as box body*
4,1,4,$2,$3,$4,$5,$6,$7,$8,$9,$2,$3,0*
0 Add four circle primitives for the rounded corners*
1,1,$1+$1,$2,$3*
1,1,$1+$1,$4,$5*
1,1,$1+$1,$6,$7*
1,1,$1+$1,$8,$9*
0 Add four rect primitives between the rounded corners*
20,1,$1+$1,$2,$3,$4,$5,0*
20,1,$1+$1,$4,$5,$6,$7,0*
20,1,$1+$1,$6,$7,$8,$9,0*
20,1,$1+$1,$8,$9,$2,$3,0*%
G04 Aperture macros list end*
%TA.AperFunction,ComponentPad*%
%ADD10R,1.000000X1.000000*%
%TD*%
%TA.AperFunction,ComponentPad*%
%ADD11O,1.000000X1.000000*%
%TD*%
%TA.AperFunction,SMDPad,CuDef*%
%ADD12RoundRect,0.237500X0.237500X-0.250000X0.237500X0.250000X-0.237500X0.250000X-0.237500X-0.250000X0*%
%TD*%
%TA.AperFunction,SMDPad,CuDef*%
%ADD13RoundRect,0.237500X-0.237500X0.250000X-0.237500X-0.250000X0.237500X-0.250000X0.237500X0.250000X0*%
%TD*%
%TA.AperFunction,SMDPad,CuDef*%
%ADD14R,0.568000X1.131799*%
%TD*%
%TA.AperFunction,SMDPad,CuDef*%
%ADD15RoundRect,0.237500X0.250000X0.237500X-0.250000X0.237500X-0.250000X-0.237500X0.250000X-0.237500X0*%
%TD*%
%TA.AperFunction,SMDPad,CuDef*%
%ADD16RoundRect,0.237500X-0.250000X-0.237500X0.250000X-0.237500X0.250000X0.237500X-0.250000X0.237500X0*%
%TD*%
%TA.AperFunction,SMDPad,CuDef*%
%ADD17RoundRect,0.250000X-1.000000X-0.650000X1.000000X-0.650000X1.000000X0.650000X-1.000000X0.650000X0*%
%TD*%
%TA.AperFunction,SMDPad,CuDef*%
%ADD18RoundRect,0.250000X0.250000X0.250000X-0.250000X0.250000X-0.250000X-0.250000X0.250000X-0.250000X0*%
%TD*%
%TA.AperFunction,SMDPad,CuDef*%
%ADD19RoundRect,0.250000X1.000000X0.650000X-1.000000X0.650000X-1.000000X-0.650000X1.000000X-0.650000X0*%
%TD*%
%TA.AperFunction,SMDPad,CuDef*%
%ADD20R,1.131799X0.568000*%
%TD*%
%TA.AperFunction,SMDPad,CuDef*%
%ADD21RoundRect,0.250000X0.250000X-0.250000X0.250000X0.250000X-0.250000X0.250000X-0.250000X-0.250000X0*%
%TD*%
%TA.AperFunction,SMDPad,CuDef*%
%ADD22RoundRect,0.250000X-0.250000X-0.250000X0.250000X-0.250000X0.250000X0.250000X-0.250000X0.250000X0*%
%TD*%
%TA.AperFunction,SMDPad,CuDef*%
%ADD23RoundRect,0.150000X-0.150000X0.587500X-0.150000X-0.587500X0.150000X-0.587500X0.150000X0.587500X0*%
%TD*%
%TA.AperFunction,SMDPad,CuDef*%
%ADD24RoundRect,0.250000X0.400000X0.625000X-0.400000X0.625000X-0.400000X-0.625000X0.400000X-0.625000X0*%
%TD*%
%TA.AperFunction,SMDPad,CuDef*%
%ADD25RoundRect,0.250000X0.625000X-0.400000X0.625000X0.400000X-0.625000X0.400000X-0.625000X-0.400000X0*%
%TD*%
%TA.AperFunction,SMDPad,CuDef*%
%ADD26RoundRect,0.250000X-0.625000X0.400000X-0.625000X-0.400000X0.625000X-0.400000X0.625000X0.400000X0*%
%TD*%
%TA.AperFunction,SMDPad,CuDef*%
%ADD27RoundRect,0.250000X-0.650000X1.000000X-0.650000X-1.000000X0.650000X-1.000000X0.650000X1.000000X0*%
%TD*%
%TA.AperFunction,SMDPad,CuDef*%
%ADD28RoundRect,0.150000X0.587500X0.150000X-0.587500X0.150000X-0.587500X-0.150000X0.587500X-0.150000X0*%
%TD*%
%TA.AperFunction,ViaPad*%
%ADD29C,0.800000*%
%TD*%
%TA.AperFunction,ViaPad*%
%ADD30C,7.400000*%
%TD*%
%TA.AperFunction,Conductor*%
%ADD31C,0.500000*%
%TD*%
%TA.AperFunction,Conductor*%
%ADD32C,0.750000*%
%TD*%
%TA.AperFunction,Conductor*%
%ADD33C,0.250000*%
%TD*%
G04 APERTURE END LIST*
D10*
%TO.P,J6,1,Pin_1*%
%TO.N,GPIO5_5VOut*%
X16891000Y-54483000D03*
D11*
%TO.P,J6,2,Pin_2*%
%TO.N,GPIO4_12VOut*%
X15621000Y-54483000D03*
%TO.P,J6,3,Pin_3*%
%TO.N,GPIO6_12VOut*%
X16891000Y-55753000D03*
%TO.P,J6,4,Pin_4*%
%TO.N,GPIO4_5VOut*%
X15621000Y-55753000D03*
%TO.P,J6,5,Pin_5*%
%TO.N,GPIO6_5VOut*%
X16891000Y-57023000D03*
%TO.P,J6,6,Pin_6*%
%TO.N,GPIO5_12VOut*%
X15621000Y-57023000D03*
%TO.P,J6,7,Pin_7*%
%TO.N,GPIO6_In*%
X16891000Y-58293000D03*
%TO.P,J6,8,Pin_8*%
%TO.N,GPIO4_In*%
X15621000Y-58293000D03*
%TO.P,J6,9,Pin_9*%
%TO.N,GPIO5_In*%
X16891000Y-59563000D03*
%TO.P,J6,10,Pin_10*%
%TO.N,GND*%
X15621000Y-59563000D03*
%TD*%
D10*
%TO.P,J2,1,Pin_1*%
%TO.N,CAN1_N*%
X76200000Y-14859000D03*
D11*
%TO.P,J2,2,Pin_2*%
%TO.N,CAN1_P*%
X74930000Y-14859000D03*
%TO.P,J2,3,Pin_3*%
%TO.N,Analog0_In*%
X76200000Y-16129000D03*
%TO.P,J2,4,Pin_4*%
%TO.N,GND*%
X74930000Y-16129000D03*
%TO.P,J2,5,Pin_5*%
X76200000Y-17399000D03*
%TO.P,J2,6,Pin_6*%
%TO.N,Analog1_In*%
X74930000Y-17399000D03*
%TO.P,J2,7,Pin_7*%
%TO.N,GND*%
X76200000Y-18669000D03*
%TO.P,J2,8,Pin_8*%
%TO.N,Analog2_In*%
X74930000Y-18669000D03*
%TO.P,J2,9,Pin_9*%
%TO.N,GND*%
X76200000Y-19939000D03*
%TO.P,J2,10,Pin_10*%
%TO.N,Analog3_In*%
X74930000Y-19939000D03*
%TD*%
D10*
%TO.P,J5,1,Pin_1*%
%TO.N,GPIO2_In*%
X16129000Y-20701000D03*
D11*
%TO.P,J5,2,Pin_2*%
%TO.N,GPIO2_5VOut*%
X17399000Y-20701000D03*
%TO.P,J5,3,Pin_3*%
%TO.N,GPIO3_12VOut*%
X16129000Y-19431000D03*
%TO.P,J5,4,Pin_4*%
%TO.N,GPIO2_12VOut*%
X17399000Y-19431000D03*
%TO.P,J5,5,Pin_5*%
%TO.N,GPIO3_5VOut*%
X16129000Y-18161000D03*
%TO.P,J5,6,Pin_6*%
%TO.N,GPIO1_In*%
X17399000Y-18161000D03*
%TO.P,J5,7,Pin_7*%
%TO.N,GPIO3_In*%
X16129000Y-16891000D03*
%TO.P,J5,8,Pin_8*%
%TO.N,GPIO1_5VOut*%
X17399000Y-16891000D03*
%TO.P,J5,9,Pin_9*%
%TO.N,GND*%
X16129000Y-15621000D03*
%TO.P,J5,10,Pin_10*%
%TO.N,GPIO1_12VOut*%
X17399000Y-15621000D03*
%TD*%
D10*
%TO.P,J4,1,Pin_1*%
%TO.N,+BATT*%
X75819000Y-54473000D03*
D11*
%TO.P,J4,2,Pin_2*%
X74549000Y-54473000D03*
%TO.P,J4,3,Pin_3*%
%TO.N,+12V*%
X75819000Y-55743000D03*
%TO.P,J4,4,Pin_4*%
X74549000Y-55743000D03*
%TO.P,J4,5,Pin_5*%
%TO.N,GND*%
X75819000Y-57013000D03*
%TO.P,J4,6,Pin_6*%
X74549000Y-57013000D03*
%TO.P,J4,7,Pin_7*%
%TO.N,+3.3V*%
X75819000Y-58283000D03*
%TO.P,J4,8,Pin_8*%
X74549000Y-58283000D03*
%TO.P,J4,9,Pin_9*%
%TO.N,+5V*%
X75819000Y-59553000D03*
%TO.P,J4,10,Pin_10*%
X74549000Y-59553000D03*
%TD*%
D12*
%TO.P,R16,1*%
%TO.N,GND*%
X41275000Y-43225500D03*
%TO.P,R16,2*%
%TO.N,Net-(D11-A)*%
X41275000Y-41400500D03*
%TD*%
D13*
%TO.P,R25,1*%
%TO.N,GPIO1_5VOut*%
X74995999Y-33909000D03*
%TO.P,R25,2*%
%TO.N,Net-(Q11-G)*%
X74995999Y-35734000D03*
%TD*%
D14*
%TO.P,Q9,1,G*%
%TO.N,Net-(Q9-G)*%
X64229100Y-37592000D03*
%TO.P,Q9,2,S*%
%TO.N,+12V*%
X66129102Y-37592000D03*
%TO.P,Q9,3,D*%
%TO.N,Net-(D7-A)*%
X65179101Y-39878000D03*
%TD*%
D12*
%TO.P,R3,1*%
%TO.N,GPIO2_5VOut*%
X27852500Y-38689500D03*
%TO.P,R3,2*%
%TO.N,Net-(Q2-G)*%
X27852500Y-36864500D03*
%TD*%
%TO.P,R2,1*%
%TO.N,GND*%
X22353400Y-28007499D03*
%TO.P,R2,2*%
%TO.N,Net-(D2-A)*%
X22353400Y-26182499D03*
%TD*%
D13*
%TO.P,R29,1*%
%TO.N,Net-(Q12-G)*%
X69088000Y-30313000D03*
%TO.P,R29,2*%
%TO.N,Net-(D7-K)*%
X69088000Y-32138000D03*
%TD*%
D12*
%TO.P,R1,1*%
%TO.N,GPIO2_12VOut*%
X27941400Y-28134499D03*
%TO.P,R1,2*%
%TO.N,Net-(Q1-G)*%
X27941400Y-26309499D03*
%TD*%
D15*
%TO.P,R18,1*%
%TO.N,GND*%
X27701000Y-42672000D03*
%TO.P,R18,2*%
%TO.N,Net-(D12-A)*%
X25876000Y-42672000D03*
%TD*%
D16*
%TO.P,R27,1*%
%TO.N,GND*%
X74995999Y-41275000D03*
%TO.P,R27,2*%
%TO.N,Net-(D8-A)*%
X76820999Y-41275000D03*
%TD*%
D17*
%TO.P,D11,1,K*%
%TO.N,Net-(D11-K)*%
X36449000Y-38735000D03*
%TO.P,D11,2,A*%
%TO.N,Net-(D11-A)*%
X40449000Y-38735000D03*
%TD*%
D16*
%TO.P,R17,1*%
%TO.N,GPIO4_5VOut*%
X25923000Y-48260000D03*
%TO.P,R17,2*%
%TO.N,Net-(Q8-G)*%
X27748000Y-48260000D03*
%TD*%
D12*
%TO.P,R6,1*%
%TO.N,GPIO2_In*%
X35726500Y-29333500D03*
%TO.P,R6,2*%
%TO.N,+3.3V*%
X35726500Y-27508500D03*
%TD*%
D18*
%TO.P,D10,1,K*%
%TO.N,GPIO4_In*%
X34417000Y-46074500D03*
%TO.P,D10,2,A*%
%TO.N,Net-(D10-A)*%
X31917000Y-46074500D03*
%TD*%
D10*
%TO.P,J3,1,Pin_1*%
%TO.N,Analog0_In*%
X50551000Y-23866000D03*
D11*
%TO.P,J3,2,Pin_2*%
%TO.N,Analog1_In*%
X50551000Y-22596000D03*
%TO.P,J3,3,Pin_3*%
%TO.N,Analog2_In*%
X49281000Y-23866000D03*
%TO.P,J3,4,Pin_4*%
%TO.N,Analog3_In*%
X49281000Y-22596000D03*
%TO.P,J3,5,Pin_5*%
%TO.N,GND*%
X48011000Y-23866000D03*
%TO.P,J3,6,Pin_6*%
%TO.N,GPIO1_out{slash}in*%
X48011000Y-22596000D03*
%TO.P,J3,7,Pin_7*%
%TO.N,GPIO2_out{slash}in*%
X46741000Y-23866000D03*
%TO.P,J3,8,Pin_8*%
%TO.N,GPIO3_out{slash}in*%
X46741000Y-22596000D03*
%TO.P,J3,9,Pin_9*%
%TO.N,GPIO4_out{slash}in*%
X45471000Y-23866000D03*
%TO.P,J3,10,Pin_10*%
%TO.N,GPIO5_out{slash}in*%
X45471000Y-22596000D03*
%TO.P,J3,11,Pin_11*%
%TO.N,GPIO6_out{slash}in*%
X44201000Y-23866000D03*
%TO.P,J3,12,Pin_12*%
%TO.N,+BATT*%
X44201000Y-22596000D03*
%TO.P,J3,13,Pin_13*%
X42931000Y-23866000D03*
%TO.P,J3,14,Pin_14*%
%TO.N,CAN1_P*%
X42931000Y-22596000D03*
%TO.P,J3,15,Pin_15*%
%TO.N,CAN1_N*%
X41661000Y-23866000D03*
%TO.P,J3,16,Pin_16*%
%TO.N,GND*%
X41661000Y-22596000D03*
%TD*%
D19*
%TO.P,D3,1,K*%
%TO.N,Net-(D2-K)*%
X27090500Y-34268000D03*
%TO.P,D3,2,A*%
%TO.N,Net-(D3-A)*%
X23090500Y-34268000D03*
%TD*%
D13*
%TO.P,R7,1*%
%TO.N,Net-(Q3-G)*%
X30646500Y-27259500D03*
%TO.P,R7,2*%
%TO.N,Net-(D2-K)*%
X30646500Y-29084500D03*
%TD*%
D20*
%TO.P,Q7,1,G*%
%TO.N,Net-(Q7-G)*%
X37338000Y-43263001D03*
%TO.P,Q7,2,S*%
%TO.N,+12V*%
X37338000Y-41362999D03*
%TO.P,Q7,3,D*%
%TO.N,Net-(D11-A)*%
X39624000Y-42313000D03*
%TD*%
D12*
%TO.P,R28,1*%
%TO.N,GPIO1_In*%
X61595000Y-31964000D03*
%TO.P,R28,2*%
%TO.N,+3.3V*%
X61595000Y-30139000D03*
%TD*%
D21*
%TO.P,D5,1,K*%
%TO.N,GPIO1_In*%
X63373000Y-32345000D03*
%TO.P,D5,2,A*%
%TO.N,Net-(D5-A)*%
X63373000Y-29845000D03*
%TD*%
D22*
%TO.P,D1,1,K*%
%TO.N,GPIO2_In*%
X31916500Y-31347000D03*
%TO.P,D1,2,A*%
%TO.N,Net-(D1-A)*%
X34416500Y-31347000D03*
%TD*%
D23*
%TO.P,Q10,1,G*%
%TO.N,Net-(Q10-G)*%
X32197000Y-42089000D03*
%TO.P,Q10,2,S*%
%TO.N,GND*%
X34097000Y-42089000D03*
%TO.P,Q10,3,D*%
%TO.N,GPIO4_In*%
X33147000Y-43964000D03*
%TD*%
D20*
%TO.P,Q2,1,G*%
%TO.N,Net-(Q2-G)*%
X26201500Y-36888000D03*
%TO.P,Q2,2,S*%
%TO.N,+5V*%
X26201500Y-38788002D03*
%TO.P,Q2,3,D*%
%TO.N,Net-(D3-A)*%
X23915500Y-37838001D03*
%TD*%
D16*
%TO.P,R23,1*%
%TO.N,GND*%
X64238500Y-41529000D03*
%TO.P,R23,2*%
%TO.N,Net-(D7-A)*%
X66063500Y-41529000D03*
%TD*%
D24*
%TO.P,TH5,1*%
%TO.N,GPIO1_out{slash}in*%
X72162000Y-34036000D03*
%TO.P,TH5,2*%
%TO.N,Net-(D7-K)*%
X69062000Y-34036000D03*
%TD*%
D13*
%TO.P,R19,1*%
%TO.N,Net-(D10-A)*%
X29845000Y-40108500D03*
%TO.P,R19,2*%
%TO.N,GND*%
X29845000Y-41933500D03*
%TD*%
D12*
%TO.P,R21,1*%
%TO.N,GPIO1_12VOut*%
X64262000Y-35941000D03*
%TO.P,R21,2*%
%TO.N,Net-(Q9-G)*%
X64262000Y-34116000D03*
%TD*%
D16*
%TO.P,R20,1*%
%TO.N,GPIO4_In*%
X36298500Y-46074500D03*
%TO.P,R20,2*%
%TO.N,+3.3V*%
X38123500Y-46074500D03*
%TD*%
D13*
%TO.P,R15,1*%
%TO.N,GPIO4_12VOut*%
X35687000Y-41400500D03*
%TO.P,R15,2*%
%TO.N,Net-(Q7-G)*%
X35687000Y-43225500D03*
%TD*%
D19*
%TO.P,D2,1,K*%
%TO.N,Net-(D2-K)*%
X27090500Y-30734000D03*
%TO.P,D2,2,A*%
%TO.N,Net-(D2-A)*%
X23090500Y-30734000D03*
%TD*%
D25*
%TO.P,TH1,1*%
%TO.N,GPIO2_out{slash}in*%
X29884500Y-34167000D03*
%TO.P,TH1,2*%
%TO.N,Net-(D2-K)*%
X29884500Y-31067000D03*
%TD*%
D17*
%TO.P,D12,1,K*%
%TO.N,Net-(D11-K)*%
X36449000Y-35201000D03*
%TO.P,D12,2,A*%
%TO.N,Net-(D12-A)*%
X40449000Y-35201000D03*
%TD*%
D26*
%TO.P,TH3,1*%
%TO.N,GPIO4_out{slash}in*%
X33782000Y-35302000D03*
%TO.P,TH3,2*%
%TO.N,Net-(D11-K)*%
X33782000Y-38402000D03*
%TD*%
D20*
%TO.P,Q1,1,G*%
%TO.N,Net-(Q1-G)*%
X26290400Y-26205999D03*
%TO.P,Q1,2,S*%
%TO.N,+12V*%
X26290400Y-28106001D03*
%TO.P,Q1,3,D*%
%TO.N,Net-(D2-A)*%
X24004400Y-27156000D03*
%TD*%
D27*
%TO.P,D8,1,K*%
%TO.N,Net-(D7-K)*%
X72390000Y-36703000D03*
%TO.P,D8,2,A*%
%TO.N,Net-(D8-A)*%
X72390000Y-40703000D03*
%TD*%
D23*
%TO.P,Q3,1,G*%
%TO.N,Net-(Q3-G)*%
X32236500Y-27361500D03*
%TO.P,Q3,2,S*%
%TO.N,GND*%
X34136500Y-27361500D03*
%TO.P,Q3,3,D*%
%TO.N,GPIO2_In*%
X33186500Y-29236500D03*
%TD*%
D14*
%TO.P,Q11,1,G*%
%TO.N,Net-(Q11-G)*%
X74995999Y-37338000D03*
%TO.P,Q11,2,S*%
%TO.N,+5V*%
X76896001Y-37338000D03*
%TO.P,Q11,3,D*%
%TO.N,Net-(D8-A)*%
X75946000Y-39624000D03*
%TD*%
%TO.P,Q8,1,G*%
%TO.N,Net-(Q8-G)*%
X27762001Y-46609000D03*
%TO.P,Q8,2,S*%
%TO.N,+5V*%
X25861999Y-46609000D03*
%TO.P,Q8,3,D*%
%TO.N,Net-(D12-A)*%
X26812000Y-44323000D03*
%TD*%
D13*
%TO.P,R4,1*%
%TO.N,GND*%
X22264500Y-36888000D03*
%TO.P,R4,2*%
%TO.N,Net-(D3-A)*%
X22264500Y-38713000D03*
%TD*%
D16*
%TO.P,R22,1*%
%TO.N,Net-(Q10-G)*%
X32211000Y-40359500D03*
%TO.P,R22,2*%
%TO.N,Net-(D11-K)*%
X34036000Y-40359500D03*
%TD*%
D27*
%TO.P,D7,1,K*%
%TO.N,Net-(D7-K)*%
X68834000Y-36703000D03*
%TO.P,D7,2,A*%
%TO.N,Net-(D7-A)*%
X68834000Y-40703000D03*
%TD*%
D16*
%TO.P,R26,1*%
%TO.N,Net-(D5-A)*%
X63476500Y-28281000D03*
%TO.P,R26,2*%
%TO.N,GND*%
X65301500Y-28281000D03*
%TD*%
D28*
%TO.P,Q12,1,G*%
%TO.N,Net-(Q12-G)*%
X67358500Y-30252000D03*
%TO.P,Q12,2,S*%
%TO.N,GND*%
X67358500Y-32152000D03*
%TO.P,Q12,3,D*%
%TO.N,GPIO1_In*%
X65483500Y-31202000D03*
%TD*%
D12*
%TO.P,R5,1*%
%TO.N,Net-(D1-A)*%
X37719000Y-31265500D03*
%TO.P,R5,2*%
%TO.N,GND*%
X37719000Y-29440500D03*
%TD*%
D29*
%TO.N,GPIO2_In*%
X19147459Y-23651541D03*
X23476846Y-23676464D03*
%TO.N,GPIO3_In*%
X29718000Y-19913000D03*
%TO.N,GPIO1_In*%
X41909594Y-30606594D03*
X39173877Y-27882131D03*
%TO.N,GND*%
X28368820Y-42320680D03*
X62280800Y-15189200D03*
X40005000Y-18389000D03*
X14859000Y-33909000D03*
X35306000Y-14198000D03*
X54906000Y-35082000D03*
X74168000Y-42132000D03*
X33402400Y-27475999D03*
X43191625Y-33052903D03*
X42164000Y-42418000D03*
X27635200Y-15036800D03*
D30*
X67945000Y-16891000D03*
D29*
X36957000Y-30353000D03*
D30*
X74422000Y-47752000D03*
D29*
X17601000Y-40184000D03*
X34163000Y-43561000D03*
X66421000Y-28448000D03*
D30*
X16510000Y-47879000D03*
D29*
X48048000Y-36098000D03*
X54906000Y-47655000D03*
X22876642Y-35767668D03*
X62484000Y-39084000D03*
X23115400Y-29126999D03*
X28769499Y-32960499D03*
D30*
X16383000Y-27178000D03*
D29*
X67437000Y-33242000D03*
%TO.N,+3.3V*%
X60442959Y-33673041D03*
X65668070Y-48015070D03*
X34925000Y-28386500D03*
X33894801Y-17428108D03*
X33291135Y-48047947D03*
X40576094Y-31940094D03*
X60325000Y-30988000D03*
X29251000Y-44399200D03*
X34417000Y-19558000D03*
X67418860Y-49022000D03*
X30861000Y-47778000D03*
X44411871Y-33339674D03*
%TO.N,+5V*%
X24892000Y-46736000D03*
X26036400Y-40048999D03*
X42164000Y-14198000D03*
X51943000Y-49022000D03*
X39894541Y-19701541D03*
X30607000Y-35941000D03*
X31623000Y-34163000D03*
X32066409Y-49271613D03*
%TO.N,GPIO4_In*%
X14525312Y-52468724D03*
X18739012Y-53410012D03*
%TO.N,GPIO5_In*%
X45212000Y-47078000D03*
%TO.N,GPIO1_out{slash}in*%
X73406000Y-33561000D03*
X72644000Y-31861000D03*
%TO.N,GPIO4_out{slash}in*%
X35560000Y-36701000D03*
X38793074Y-31318949D03*
%TO.N,GPIO5_out{slash}in*%
X46739000Y-42291000D03*
X44339000Y-41910000D03*
%TO.N,GPIO6_out{slash}in*%
X38836471Y-30073470D03*
%TO.N,GPIO1_5VOut*%
X42616703Y-29899486D03*
X39880482Y-27174519D03*
X70866000Y-35147000D03*
%TO.N,GPIO1_12VOut*%
X57404000Y-32814000D03*
X62992000Y-35020000D03*
X56802959Y-30386959D03*
X43434000Y-29210000D03*
X40703500Y-26606500D03*
%TO.N,GPIO3_5VOut*%
X50419000Y-13436000D03*
%TO.N,GPIO3_12VOut*%
X61148001Y-18262000D03*
X14459294Y-17311000D03*
%TO.N,GPIO4_5VOut*%
X19887947Y-52167387D03*
X16042595Y-52153524D03*
%TO.N,GPIO4_12VOut*%
X35285274Y-40219087D03*
X31343600Y-44196000D03*
%TO.N,GPIO5_12VOut*%
X47122248Y-38999500D03*
X46101959Y-44068041D03*
X49932396Y-38142313D03*
%TO.N,GPIO5_5VOut*%
X48006000Y-46228000D03*
X52366000Y-46766000D03*
%TO.N,GPIO6_12VOut*%
X13716000Y-40386000D03*
X20737947Y-48662375D03*
%TO.N,GPIO6_5VOut*%
X27229032Y-40056032D03*
X21404435Y-45702366D03*
X22852783Y-44746550D03*
X20993474Y-47695570D03*
%TO.N,+12V*%
X68189930Y-48250930D03*
X40561500Y-44164701D03*
X30099000Y-32639000D03*
X61849000Y-28185000D03*
X66802000Y-46863000D03*
X32571082Y-36381082D03*
X25185601Y-29210800D03*
X63246000Y-20232000D03*
X37465000Y-37211000D03*
X61509000Y-38680141D03*
%TO.N,Analog3_In*%
X64770000Y-21746000D03*
X66808506Y-22150576D03*
%TO.N,Analog2_In*%
X72009000Y-24892000D03*
%TD*%
D31*
%TO.N,GPIO2_In*%
X35629500Y-29236500D02*
X35726500Y-29333500D01*
X19147459Y-23651541D02*
X19006038Y-23651541D01*
X25073382Y-25273000D02*
X28702000Y-25273000D01*
X36651500Y-28408500D02*
X35726500Y-29333500D01*
X16129000Y-20774503D02*
X16129000Y-20701000D01*
X33186500Y-29236500D02*
X35629500Y-29236500D01*
X36651500Y-26967146D02*
X36651500Y-28408500D01*
X29603000Y-26174000D02*
X35858354Y-26174000D01*
X28702000Y-25273000D02*
X29603000Y-26174000D01*
X35858354Y-26174000D02*
X36651500Y-26967146D01*
X19006038Y-23651541D02*
X16129000Y-20774503D01*
X31916500Y-31347000D02*
X31916500Y-30506500D01*
X23476846Y-23676464D02*
X25073382Y-25273000D01*
X31916500Y-30506500D02*
X33186500Y-29236500D01*
%TO.N,Net-(D1-A)*%
X37637500Y-31347000D02*
X37719000Y-31265500D01*
X34416500Y-31347000D02*
X37637500Y-31347000D01*
%TO.N,Net-(D2-K)*%
X27090500Y-34268000D02*
X27090500Y-30734000D01*
X27090500Y-30734000D02*
X29551500Y-30734000D01*
X29884500Y-29846500D02*
X30646500Y-29084500D01*
X29884500Y-31067000D02*
X29884500Y-29846500D01*
X29551500Y-30734000D02*
X29884500Y-31067000D01*
%TO.N,Net-(D2-A)*%
X23030899Y-26182499D02*
X24004400Y-27156000D01*
X23090500Y-30734000D02*
X24004400Y-29820100D01*
X24004400Y-29820100D02*
X24004400Y-27156000D01*
X22353400Y-26182499D02*
X23030899Y-26182499D01*
%TO.N,Net-(D3-A)*%
X23040501Y-38713000D02*
X23915500Y-37838001D01*
X23915500Y-37838001D02*
X23915500Y-35093000D01*
X22264500Y-38713000D02*
X23040501Y-38713000D01*
X23915500Y-35093000D02*
X23090500Y-34268000D01*
%TO.N,GPIO1_In*%
X61976000Y-32345000D02*
X61595000Y-31964000D01*
X39173877Y-27870877D02*
X35306000Y-24003000D01*
X35306000Y-24003000D02*
X29083000Y-24003000D01*
X63373000Y-32345000D02*
X61976000Y-32345000D01*
X41909594Y-30606594D02*
X43267000Y-31964000D01*
X43267000Y-31964000D02*
X61595000Y-31964000D01*
X65483500Y-31202000D02*
X64516000Y-31202000D01*
X64516000Y-31202000D02*
X63373000Y-32345000D01*
X29083000Y-24003000D02*
X23241000Y-18161000D01*
X39173877Y-27882131D02*
X39173877Y-27870877D01*
X23241000Y-18161000D02*
X17399000Y-18161000D01*
%TO.N,GND*%
X33516899Y-27361500D02*
X33402400Y-27475999D01*
X74995999Y-41304001D02*
X74168000Y-42132000D01*
D32*
X37719000Y-29591000D02*
X36957000Y-30353000D01*
D31*
X62484000Y-39084000D02*
X64238500Y-40838500D01*
X22353400Y-28007499D02*
X22353400Y-28364999D01*
D32*
X34097000Y-42089000D02*
X34097000Y-43495000D01*
X66254000Y-28281000D02*
X66421000Y-28448000D01*
D31*
X67358500Y-33163500D02*
X67437000Y-33242000D01*
D32*
X41275000Y-43225500D02*
X41356500Y-43225500D01*
D31*
X22876642Y-35767668D02*
X22264500Y-36379810D01*
D32*
X28756000Y-41933500D02*
X29845000Y-41933500D01*
X28017500Y-42672000D02*
X28756000Y-41933500D01*
D31*
X22353400Y-28364999D02*
X23115400Y-29126999D01*
D32*
X28368820Y-42320680D02*
X28756000Y-41933500D01*
D31*
X67358500Y-32152000D02*
X67358500Y-33163500D01*
X64238500Y-40838500D02*
X64238500Y-41529000D01*
D32*
X65301500Y-28281000D02*
X66254000Y-28281000D01*
D31*
X34136500Y-27361500D02*
X33516899Y-27361500D01*
D32*
X37719000Y-29440500D02*
X37719000Y-29591000D01*
D31*
X22264500Y-36379810D02*
X22264500Y-36888000D01*
X74995999Y-41275000D02*
X74995999Y-41304001D01*
D32*
X34097000Y-43495000D02*
X34163000Y-43561000D01*
X27701000Y-42672000D02*
X28017500Y-42672000D01*
X41356500Y-43225500D02*
X42164000Y-42418000D01*
%TO.N,+3.3V*%
X71247000Y-56642000D02*
X71247000Y-52850140D01*
X60327000Y-33789000D02*
X60442959Y-33673041D01*
X29251000Y-44399200D02*
X29159200Y-44491000D01*
X60746000Y-30988000D02*
X61595000Y-30139000D01*
X71247000Y-52850140D02*
X67418860Y-49022000D01*
X72888000Y-58283000D02*
X71247000Y-56642000D01*
X34417000Y-19558000D02*
X34417000Y-17950307D01*
X43023545Y-34387545D02*
X40576094Y-31940094D01*
X44861197Y-33789000D02*
X60327000Y-33789000D01*
X38123500Y-46074500D02*
X36150053Y-48047947D01*
X60442959Y-42789959D02*
X60442959Y-33673041D01*
X35726500Y-27585000D02*
X34925000Y-28386500D01*
X60325000Y-30988000D02*
X60746000Y-30988000D01*
X75819000Y-58283000D02*
X72888000Y-58283000D01*
X65668070Y-48015070D02*
X60442959Y-42789959D01*
X38123500Y-46074500D02*
X40069130Y-46074500D01*
X35726500Y-27508500D02*
X35726500Y-27585000D01*
X43364000Y-42779630D02*
X43364000Y-34387545D01*
X36150053Y-48047947D02*
X33291135Y-48047947D01*
X44411871Y-33339674D02*
X44861197Y-33789000D01*
X34417000Y-17950307D02*
X33894801Y-17428108D01*
X43364000Y-34387545D02*
X43023545Y-34387545D01*
X43364000Y-34387545D02*
X44411871Y-33339674D01*
X29159200Y-44491000D02*
X29159200Y-46076200D01*
X40069130Y-46074500D02*
X43364000Y-42779630D01*
X29159200Y-46076200D02*
X30861000Y-47778000D01*
%TO.N,+5V*%
X32316022Y-49022000D02*
X51943000Y-49022000D01*
X77016000Y-43107000D02*
X77089000Y-43180000D01*
X24892000Y-46736000D02*
X25734999Y-46736000D01*
X31623000Y-34925000D02*
X30607000Y-35941000D01*
D31*
X26036400Y-40048999D02*
X26036400Y-38953102D01*
D32*
X25734999Y-46736000D02*
X25861999Y-46609000D01*
X77883499Y-42385501D02*
X77883499Y-38325498D01*
X77089000Y-43180000D02*
X77883499Y-42385501D01*
X77883499Y-38325498D02*
X76896001Y-37338000D01*
X71955000Y-43107000D02*
X77016000Y-43107000D01*
X69975504Y-52957504D02*
X66040000Y-49022000D01*
X72814498Y-59553000D02*
X69975504Y-56714006D01*
X32066409Y-49271613D02*
X32316022Y-49022000D01*
D31*
X26036400Y-38953102D02*
X26201500Y-38788002D01*
D32*
X66040000Y-49022000D02*
X51943000Y-49022000D01*
X75819000Y-59553000D02*
X72814498Y-59553000D01*
X69975504Y-56714006D02*
X69975504Y-52957504D01*
X66040000Y-49022000D02*
X71955000Y-43107000D01*
X31623000Y-34163000D02*
X31623000Y-34925000D01*
D31*
%TO.N,Net-(D5-A)*%
X63373000Y-29845000D02*
X63373000Y-28384500D01*
X63373000Y-28384500D02*
X63476500Y-28281000D01*
%TO.N,Net-(D7-K)*%
X68834000Y-36703000D02*
X68834000Y-32392000D01*
X72390000Y-36703000D02*
X68834000Y-36703000D01*
X68834000Y-32392000D02*
X69088000Y-32138000D01*
%TO.N,Net-(D7-A)*%
X66063500Y-40762399D02*
X65179101Y-39878000D01*
X66889500Y-40703000D02*
X66063500Y-41529000D01*
X68834000Y-40703000D02*
X66889500Y-40703000D01*
X66063500Y-41529000D02*
X66063500Y-40762399D01*
%TO.N,Net-(D8-A)*%
X75946000Y-39624000D02*
X75946000Y-40400001D01*
X73469000Y-39624000D02*
X72390000Y-40703000D01*
X75946000Y-40400001D02*
X76820999Y-41275000D01*
X75946000Y-39624000D02*
X73469000Y-39624000D01*
%TO.N,GPIO4_In*%
X30913900Y-49185000D02*
X34024400Y-46074500D01*
X25432564Y-49185000D02*
X30913900Y-49185000D01*
X18920274Y-53228750D02*
X21388814Y-53228750D01*
X13971000Y-53023036D02*
X14525312Y-52468724D01*
X34417000Y-46074500D02*
X36298500Y-46074500D01*
X13971000Y-57350106D02*
X13971000Y-53023036D01*
X33147000Y-43964000D02*
X33147000Y-44804500D01*
X18739012Y-53410012D02*
X18920274Y-53228750D01*
X15621000Y-58293000D02*
X14913894Y-58293000D01*
X34024400Y-46074500D02*
X34417000Y-46074500D01*
X33147000Y-44804500D02*
X34417000Y-46074500D01*
X21388814Y-53228750D02*
X25432564Y-49185000D01*
X14913894Y-58293000D02*
X13971000Y-57350106D01*
%TO.N,Net-(D10-A)*%
X31447000Y-42929184D02*
X31447000Y-41710500D01*
X31917000Y-46074500D02*
X32258000Y-45733500D01*
X32258000Y-43740184D02*
X31447000Y-42929184D01*
X32258000Y-45733500D02*
X32258000Y-43740184D01*
X31447000Y-41710500D02*
X29845000Y-40108500D01*
%TO.N,Net-(D11-K)*%
X36449000Y-35201000D02*
X36449000Y-38735000D01*
X34036000Y-40359500D02*
X34036000Y-38656000D01*
X34036000Y-38656000D02*
X33782000Y-38402000D01*
X36116000Y-38402000D02*
X36449000Y-38735000D01*
X33782000Y-38402000D02*
X36116000Y-38402000D01*
%TO.N,Net-(D11-A)*%
X40449000Y-40574500D02*
X41275000Y-41400500D01*
X39624000Y-42313000D02*
X40362500Y-42313000D01*
X40362500Y-42313000D02*
X41275000Y-41400500D01*
X40449000Y-38735000D02*
X40449000Y-40574500D01*
%TO.N,Net-(D12-A)*%
X32448000Y-35302082D02*
X31115000Y-36635082D01*
X25876000Y-42672000D02*
X25876000Y-43387000D01*
X25876000Y-43387000D02*
X26812000Y-44323000D01*
X39099000Y-33851000D02*
X33211122Y-33851000D01*
X32448000Y-34614122D02*
X32448000Y-35302082D01*
X40449000Y-35201000D02*
X39099000Y-33851000D01*
X25876000Y-42611146D02*
X25876000Y-42672000D01*
X31115000Y-37372146D02*
X25876000Y-42611146D01*
X33211122Y-33851000D02*
X32448000Y-34614122D01*
X31115000Y-36635082D02*
X31115000Y-37372146D01*
%TO.N,GPIO1_out{slash}in*%
X48011000Y-22596000D02*
X48011000Y-22522497D01*
X55968503Y-26670000D02*
X60732050Y-26670000D01*
X67866303Y-26635000D02*
X72644000Y-31412696D01*
X48887497Y-21646000D02*
X50944503Y-21646000D01*
X48011000Y-22522497D02*
X48887497Y-21646000D01*
X72644000Y-31412696D02*
X72644000Y-31861000D01*
X73406000Y-33561000D02*
X72931000Y-34036000D01*
X50944503Y-21646000D02*
X55968503Y-26670000D01*
X60732050Y-26670000D02*
X60767051Y-26635000D01*
X60767051Y-26635000D02*
X67866303Y-26635000D01*
X72931000Y-34036000D02*
X72162000Y-34036000D01*
%TO.N,GPIO2_out{slash}in*%
X30900500Y-33151000D02*
X38163106Y-33151000D01*
X29884500Y-34167000D02*
X30900500Y-33151000D01*
X38163106Y-33151000D02*
X46741000Y-24573106D01*
X46741000Y-24573106D02*
X46741000Y-23866000D01*
%TO.N,GPIO4_out{slash}in*%
X45471000Y-24641023D02*
X38793074Y-31318949D01*
X35560000Y-36701000D02*
X35181000Y-36701000D01*
X45471000Y-23866000D02*
X45471000Y-24641023D01*
X35181000Y-36701000D02*
X33782000Y-35302000D01*
%TO.N,GPIO5_out{slash}in*%
X46358000Y-41910000D02*
X46739000Y-42291000D01*
X44339000Y-41910000D02*
X46358000Y-41910000D01*
%TO.N,Net-(Q1-G)*%
X26290400Y-26205999D02*
X27837900Y-26205999D01*
X27837900Y-26205999D02*
X27941400Y-26309499D01*
%TO.N,GPIO6_out{slash}in*%
X44201000Y-23866000D02*
X44201000Y-24708941D01*
X44201000Y-24708941D02*
X38836471Y-30073470D01*
%TO.N,Net-(Q2-G)*%
X27829000Y-36888000D02*
X27852500Y-36864500D01*
X26201500Y-36888000D02*
X27829000Y-36888000D01*
%TO.N,GPIO1_5VOut*%
X67576354Y-27335000D02*
X71465122Y-31223768D01*
X71465122Y-32711000D02*
X73797999Y-32711000D01*
X42726486Y-29899486D02*
X44091000Y-31264000D01*
X36014409Y-23303000D02*
X29526000Y-23303000D01*
X61057000Y-27335000D02*
X67576354Y-27335000D01*
X39880482Y-27169073D02*
X36014409Y-23303000D01*
X71465122Y-31223768D02*
X71465122Y-32711000D01*
X23114000Y-16891000D02*
X17399000Y-16891000D01*
X73797999Y-32711000D02*
X74995999Y-33909000D01*
X44091000Y-31264000D02*
X57128000Y-31264000D01*
X70866000Y-33310122D02*
X71465122Y-32711000D01*
X39880482Y-27174519D02*
X39880482Y-27169073D01*
X29526000Y-23303000D02*
X23114000Y-16891000D01*
X70866000Y-35147000D02*
X70866000Y-33310122D01*
X57128000Y-31264000D02*
X61057000Y-27335000D01*
X42616703Y-29899486D02*
X42726486Y-29899486D01*
%TO.N,Net-(Q3-G)*%
X32236500Y-27361500D02*
X30748500Y-27361500D01*
X30748500Y-27361500D02*
X30646500Y-27259500D01*
%TO.N,GPIO1_12VOut*%
X43434000Y-29210000D02*
X44610959Y-30386959D01*
X57404000Y-32814000D02*
X60786000Y-32814000D01*
X29815950Y-22603000D02*
X22833950Y-15621000D01*
X63341000Y-35020000D02*
X64262000Y-35941000D01*
X22833950Y-15621000D02*
X17399000Y-15621000D01*
X62992000Y-35020000D02*
X63341000Y-35020000D01*
X60786000Y-32814000D02*
X62992000Y-35020000D01*
X36700000Y-22603000D02*
X29815950Y-22603000D01*
X44610959Y-30386959D02*
X56802959Y-30386959D01*
X40703500Y-26606500D02*
X36700000Y-22603000D01*
%TO.N,GPIO2_5VOut*%
X20533000Y-31328000D02*
X20533000Y-23835000D01*
X25019000Y-35052000D02*
X25019000Y-33147000D01*
X25654000Y-35687000D02*
X25019000Y-35052000D01*
X28321000Y-35687000D02*
X25654000Y-35687000D01*
X28891000Y-36257000D02*
X28321000Y-35687000D01*
X28891000Y-37651000D02*
X28891000Y-36257000D01*
X25019000Y-33147000D02*
X24384000Y-32512000D01*
X21717000Y-32512000D02*
X20533000Y-31328000D01*
X24384000Y-32512000D02*
X21717000Y-32512000D01*
X20533000Y-23835000D02*
X17399000Y-20701000D01*
X27852500Y-38689500D02*
X28891000Y-37651000D01*
D32*
%TO.N,Net-(Q7-G)*%
X37338000Y-43263001D02*
X35724501Y-43263001D01*
X35724501Y-43263001D02*
X35687000Y-43225500D01*
D31*
%TO.N,Net-(Q8-G)*%
X27748000Y-46623001D02*
X27762001Y-46609000D01*
X27748000Y-48260000D02*
X27748000Y-46623001D01*
%TO.N,Net-(Q9-G)*%
X65187000Y-36634100D02*
X65187000Y-35041000D01*
X65187000Y-35041000D02*
X64262000Y-34116000D01*
X64229100Y-37592000D02*
X65187000Y-36634100D01*
%TO.N,GPIO2_12VOut*%
X18029299Y-19431000D02*
X17399000Y-19431000D01*
X25717299Y-27119000D02*
X18029299Y-19431000D01*
X26925901Y-27119000D02*
X25717299Y-27119000D01*
X27941400Y-28134499D02*
X26925901Y-27119000D01*
%TO.N,Net-(Q10-G)*%
X32211000Y-40359500D02*
X32211000Y-42075000D01*
X32211000Y-42075000D02*
X32197000Y-42089000D01*
%TO.N,GPIO3_5VOut*%
X13563600Y-14529451D02*
X14264251Y-13828800D01*
X26651168Y-13828800D02*
X26993169Y-13486800D01*
X13563600Y-17617388D02*
X13563600Y-14529451D01*
X33953918Y-14348000D02*
X34953918Y-13348000D01*
X14107212Y-18161000D02*
X13563600Y-17617388D01*
X34953918Y-13348000D02*
X50331000Y-13348000D01*
X28319750Y-13486800D02*
X29180950Y-14348000D01*
X26993169Y-13486800D02*
X28319750Y-13486800D01*
X16129000Y-18161000D02*
X14107212Y-18161000D01*
X29180950Y-14348000D02*
X33953918Y-14348000D01*
X50331000Y-13348000D02*
X50419000Y-13436000D01*
X14264251Y-13828800D02*
X26651168Y-13828800D01*
%TO.N,Net-(Q11-G)*%
X74995999Y-37338000D02*
X74995999Y-35734000D01*
%TO.N,GPIO3_12VOut*%
X26941118Y-14528800D02*
X27283118Y-14186800D01*
X28891000Y-15048000D02*
X58101000Y-15048000D01*
X14554200Y-14528800D02*
X26941118Y-14528800D01*
X14459294Y-17311000D02*
X14459294Y-14623706D01*
X28029800Y-14186800D02*
X28891000Y-15048000D01*
X27283118Y-14186800D02*
X28029800Y-14186800D01*
X14459294Y-14623706D02*
X14554200Y-14528800D01*
X61148001Y-18095001D02*
X61148001Y-18262000D01*
X58101000Y-15048000D02*
X61148001Y-18095001D01*
%TO.N,Net-(Q12-G)*%
X67358500Y-30252000D02*
X69027000Y-30252000D01*
X69027000Y-30252000D02*
X69088000Y-30313000D01*
%TO.N,GPIO4_5VOut*%
X15621000Y-55753000D02*
X14913894Y-55753000D01*
X14671000Y-53525119D02*
X16042595Y-52153524D01*
X25367614Y-48260000D02*
X25923000Y-48260000D01*
X14671000Y-55510106D02*
X14671000Y-53525119D01*
X19887947Y-52167387D02*
X21460227Y-52167387D01*
X21460227Y-52167387D02*
X25367614Y-48260000D01*
X14913894Y-55753000D02*
X14671000Y-55510106D01*
%TO.N,GPIO4_12VOut*%
X31343600Y-44196000D02*
X30581600Y-43434000D01*
X27546000Y-45338899D02*
X27291798Y-45593101D01*
X35285274Y-40998774D02*
X35687000Y-41400500D01*
X27291798Y-45593101D02*
X24510899Y-45593101D01*
X35285274Y-40219087D02*
X35285274Y-40998774D01*
X21336000Y-49657000D02*
X20600987Y-49657000D01*
X23622000Y-47371000D02*
X21336000Y-49657000D01*
X28651200Y-43434000D02*
X27546000Y-44539200D01*
X16393370Y-53003524D02*
X15621000Y-53775894D01*
X20600987Y-49657000D02*
X17254463Y-53003524D01*
X24510899Y-45593101D02*
X23622000Y-46482000D01*
X15621000Y-53775894D02*
X15621000Y-54483000D01*
X30581600Y-43434000D02*
X28651200Y-43434000D01*
X23622000Y-46482000D02*
X23622000Y-47371000D01*
X27546000Y-44539200D02*
X27546000Y-45338899D01*
X17254463Y-53003524D02*
X16393370Y-53003524D01*
%TO.N,GPIO5_12VOut*%
X47122248Y-38999500D02*
X49075209Y-38999500D01*
X49075209Y-38999500D02*
X49932396Y-38142313D01*
%TO.N,GPIO6_12VOut*%
X22606000Y-45701849D02*
X20633151Y-43729000D01*
X16424000Y-43729000D02*
X13716000Y-41021000D01*
X20737947Y-48662375D02*
X20854752Y-48545570D01*
X13716000Y-41021000D02*
X13716000Y-40386000D01*
X22606000Y-47285126D02*
X22606000Y-45701849D01*
X21345556Y-48545570D02*
X22606000Y-47285126D01*
X20633151Y-43729000D02*
X16424000Y-43729000D01*
X20854752Y-48545570D02*
X21345556Y-48545570D01*
%TO.N,GPIO6_5VOut*%
X26388482Y-40898999D02*
X27229032Y-40058449D01*
X21590000Y-47099044D02*
X20993474Y-47695570D01*
X22852783Y-43949217D02*
X25903001Y-40898999D01*
X22852783Y-44746550D02*
X22852783Y-43949217D01*
X27229032Y-40058449D02*
X27229032Y-40056032D01*
X25903001Y-40898999D02*
X26388482Y-40898999D01*
X21590000Y-45887931D02*
X21590000Y-47099044D01*
X21404435Y-45702366D02*
X21590000Y-45887931D01*
D32*
%TO.N,+12V*%
X62080141Y-38109000D02*
X62887859Y-38109000D01*
X38478899Y-42503898D02*
X38478899Y-42923899D01*
X37338000Y-41362999D02*
X38274000Y-40426999D01*
X72197000Y-54098106D02*
X72197000Y-52258000D01*
X61509000Y-38680141D02*
X62080141Y-38109000D01*
X75819000Y-55743000D02*
X74549000Y-55743000D01*
X37809000Y-37211000D02*
X37465000Y-37211000D01*
X38274000Y-37676000D02*
X37809000Y-37211000D01*
X66802000Y-46863000D02*
X61509000Y-41570000D01*
X39719701Y-44164701D02*
X40561500Y-44164701D01*
X61509000Y-41570000D02*
X61509000Y-38680141D01*
X37338000Y-41362999D02*
X38478899Y-42503898D01*
X38274000Y-40426999D02*
X38274000Y-37676000D01*
X63515960Y-38737101D02*
X64984001Y-38737101D01*
X74549000Y-55743000D02*
X73841894Y-55743000D01*
D31*
X26290400Y-28106001D02*
X26290400Y-27819000D01*
X26290400Y-28106001D02*
X25185601Y-29210800D01*
D32*
X72197000Y-52258000D02*
X68189930Y-48250930D01*
X38478899Y-42923899D02*
X39719701Y-44164701D01*
X64984001Y-38737101D02*
X66129102Y-37592000D01*
X73841894Y-55743000D02*
X72197000Y-54098106D01*
X62887859Y-38109000D02*
X63515960Y-38737101D01*
D31*
%TO.N,Analog3_In*%
X66808506Y-22150576D02*
X66421000Y-21763070D01*
X66421000Y-21763070D02*
X64787070Y-21763070D01*
X64787070Y-21763070D02*
X64770000Y-21746000D01*
%TO.N,Analog2_In*%
X72009000Y-24892000D02*
X73025000Y-23876000D01*
X73025000Y-23876000D02*
X73025000Y-19866894D01*
X74222894Y-18669000D02*
X74930000Y-18669000D01*
X73025000Y-19866894D02*
X74222894Y-18669000D01*
D33*
%TO.N,CAN1_N*%
X41319273Y-21771000D02*
X42618000Y-21771000D01*
X74588273Y-14034000D02*
X75375000Y-14034000D01*
X75375000Y-14034000D02*
X76200000Y-14859000D01*
X44725783Y-19663217D02*
X47857217Y-19663217D01*
X42618000Y-21771000D02*
X44725783Y-19663217D01*
X72000000Y-21239000D02*
X72000000Y-16622273D01*
X72000000Y-16622273D02*
X74588273Y-14034000D01*
X41661000Y-23866000D02*
X40836000Y-23041000D01*
X69940000Y-23299000D02*
X72000000Y-21239000D01*
X51483396Y-20621000D02*
X54161396Y-23299000D01*
X48815000Y-20621000D02*
X51483396Y-20621000D01*
X54161396Y-23299000D02*
X69940000Y-23299000D01*
X40836000Y-22254273D02*
X41319273Y-21771000D01*
X47857217Y-19663217D02*
X48815000Y-20621000D01*
X40836000Y-23041000D02*
X40836000Y-22254273D01*
%TO.N,CAN1_P*%
X48056000Y-21071000D02*
X49329692Y-21071000D01*
X45956000Y-21071000D02*
X45956000Y-20422385D01*
X46556000Y-20422385D02*
X46556000Y-21071000D01*
X74399669Y-14859000D02*
X74930000Y-14859000D01*
X44756000Y-20771000D02*
X44756000Y-20422385D01*
X72450000Y-21425396D02*
X72450000Y-16808669D01*
X46556000Y-21071000D02*
X46556000Y-21419610D01*
X45956000Y-21419610D02*
X45956000Y-21071000D01*
X49329692Y-21071000D02*
X51297000Y-21071000D01*
X45356000Y-20422385D02*
X45356000Y-20771000D01*
X47156000Y-21071000D02*
X47156000Y-20422385D01*
X47156000Y-21419610D02*
X47156000Y-21071000D01*
X42931000Y-22596000D02*
X44456000Y-21071000D01*
X70126396Y-23749000D02*
X72450000Y-21425396D01*
X53975000Y-23749000D02*
X70126396Y-23749000D01*
X51297000Y-21071000D02*
X53975000Y-23749000D01*
X47756000Y-20422385D02*
X47756000Y-20771000D01*
X45356000Y-20771000D02*
X45356000Y-21419610D01*
X72450000Y-16808669D02*
X74399669Y-14859000D01*
X47756015Y-20422385D02*
G75*
G03*
X47456000Y-20122385I-300015J-15D01*
G01*
X46556015Y-20422385D02*
G75*
G03*
X46256000Y-20122385I-300015J-15D01*
G01*
X45056000Y-20122400D02*
G75*
G03*
X44756000Y-20422385I0J-300000D01*
G01*
X47756000Y-20771000D02*
G75*
G03*
X48056000Y-21071000I300000J0D01*
G01*
X44456000Y-21071000D02*
G75*
G03*
X44756000Y-20771000I0J300000D01*
G01*
X45656000Y-21719600D02*
G75*
G03*
X45956000Y-21419610I0J300000D01*
G01*
X45356015Y-20422385D02*
G75*
G03*
X45056000Y-20122385I-300015J-15D01*
G01*
X46856000Y-21719600D02*
G75*
G03*
X47156000Y-21419610I0J300000D01*
G01*
X47456000Y-20122400D02*
G75*
G03*
X47156000Y-20422385I0J-300000D01*
G01*
X46256000Y-20122400D02*
G75*
G03*
X45956000Y-20422385I0J-300000D01*
G01*
X45355990Y-21419610D02*
G75*
G03*
X45656000Y-21719610I300010J10D01*
G01*
X46555990Y-21419610D02*
G75*
G03*
X46856000Y-21719610I300010J10D01*
G01*
%TD*%
M02*
