%TF.GenerationSoftware,KiCad,Pcbnew,7.0.10*%
%TF.CreationDate,2025-03-26T19:50:54+01:00*%
%TF.ProjectId,DIC_Addon,4449435f-4164-4646-9f6e-2e6b69636164,rev?*%
%TF.SameCoordinates,Original*%
%TF.FileFunction,Copper,L2,Inr*%
%TF.FilePolarity,Positive*%
%FSLAX46Y46*%
G04 Gerber Fmt 4.6, Leading zero omitted, Abs format (unit mm)*
G04 Created by KiCad (PCBNEW 7.0.10) date 2025-03-26 19:50:54*
%MOMM*%
%LPD*%
G01*
G04 APERTURE LIST*
%TA.AperFunction,ComponentPad*%
%ADD10R,1.000000X1.000000*%
%TD*%
%TA.AperFunction,ComponentPad*%
%ADD11O,1.000000X1.000000*%
%TD*%
%TA.AperFunction,ViaPad*%
%ADD12C,0.800000*%
%TD*%
%TA.AperFunction,ViaPad*%
%ADD13C,7.400000*%
%TD*%
%TA.AperFunction,Conductor*%
%ADD14C,0.750000*%
%TD*%
%TA.AperFunction,Conductor*%
%ADD15C,0.500000*%
%TD*%
G04 APERTURE END LIST*
D10*
%TO.N,GPIO5_5VOut*%
%TO.C,J6*%
X16891000Y-54483000D03*
D11*
%TO.N,GPIO4_12VOut*%
X15621000Y-54483000D03*
%TO.N,GPIO6_12VOut*%
X16891000Y-55753000D03*
%TO.N,GPIO4_5VOut*%
X15621000Y-55753000D03*
%TO.N,GPIO6_5VOut*%
X16891000Y-57023000D03*
%TO.N,GPIO5_12VOut*%
X15621000Y-57023000D03*
%TO.N,GPIO6_In*%
X16891000Y-58293000D03*
%TO.N,GPIO4_In*%
X15621000Y-58293000D03*
%TO.N,GPIO5_In*%
X16891000Y-59563000D03*
%TO.N,GND*%
X15621000Y-59563000D03*
%TD*%
D10*
%TO.N,CAN1_N*%
%TO.C,J2*%
X76200000Y-14859000D03*
D11*
%TO.N,CAN1_P*%
X74930000Y-14859000D03*
%TO.N,Analog0_In*%
X76200000Y-16129000D03*
%TO.N,GND*%
X74930000Y-16129000D03*
X76200000Y-17399000D03*
%TO.N,Analog1_In*%
X74930000Y-17399000D03*
%TO.N,GND*%
X76200000Y-18669000D03*
%TO.N,Analog2_In*%
X74930000Y-18669000D03*
%TO.N,GND*%
X76200000Y-19939000D03*
%TO.N,Analog3_In*%
X74930000Y-19939000D03*
%TD*%
D10*
%TO.N,GPIO2_In*%
%TO.C,J5*%
X16129000Y-20701000D03*
D11*
%TO.N,GPIO2_5VOut*%
X17399000Y-20701000D03*
%TO.N,GPIO3_12VOut*%
X16129000Y-19431000D03*
%TO.N,GPIO2_12VOut*%
X17399000Y-19431000D03*
%TO.N,GPIO3_5VOut*%
X16129000Y-18161000D03*
%TO.N,GPIO1_In*%
X17399000Y-18161000D03*
%TO.N,GPIO3_In*%
X16129000Y-16891000D03*
%TO.N,GPIO1_5VOut*%
X17399000Y-16891000D03*
%TO.N,GND*%
X16129000Y-15621000D03*
%TO.N,GPIO1_12VOut*%
X17399000Y-15621000D03*
%TD*%
D10*
%TO.N,+BATT*%
%TO.C,J4*%
X75819000Y-54473000D03*
D11*
X74549000Y-54473000D03*
%TO.N,+12V*%
X75819000Y-55743000D03*
X74549000Y-55743000D03*
%TO.N,GND*%
X75819000Y-57013000D03*
X74549000Y-57013000D03*
%TO.N,+3.3V*%
X75819000Y-58283000D03*
X74549000Y-58283000D03*
%TO.N,+5V*%
X75819000Y-59553000D03*
X74549000Y-59553000D03*
%TD*%
D10*
%TO.N,Analog0_In*%
%TO.C,J3*%
X50551000Y-23866000D03*
D11*
%TO.N,Analog1_In*%
X50551000Y-22596000D03*
%TO.N,Analog2_In*%
X49281000Y-23866000D03*
%TO.N,Analog3_In*%
X49281000Y-22596000D03*
%TO.N,GND*%
X48011000Y-23866000D03*
%TO.N,GPIO1_out{slash}in*%
X48011000Y-22596000D03*
%TO.N,GPIO2_out{slash}in*%
X46741000Y-23866000D03*
%TO.N,GPIO3_out{slash}in*%
X46741000Y-22596000D03*
%TO.N,GPIO4_out{slash}in*%
X45471000Y-23866000D03*
%TO.N,GPIO5_out{slash}in*%
X45471000Y-22596000D03*
%TO.N,GPIO6_out{slash}in*%
X44201000Y-23866000D03*
%TO.N,+BATT*%
X44201000Y-22596000D03*
X42931000Y-23866000D03*
%TO.N,CAN1_P*%
X42931000Y-22596000D03*
%TO.N,CAN1_N*%
X41661000Y-23866000D03*
%TO.N,GND*%
X41661000Y-22596000D03*
%TD*%
D12*
%TO.N,GPIO2_In*%
X19147459Y-23651541D03*
X23476846Y-23676464D03*
%TO.N,GPIO3_In*%
X29718000Y-19913000D03*
%TO.N,GPIO1_In*%
X41909594Y-30606594D03*
X39173877Y-27882131D03*
%TO.N,GND*%
X28368820Y-42320680D03*
X62280800Y-15189200D03*
X40005000Y-18389000D03*
X14859000Y-33909000D03*
X35306000Y-14198000D03*
X54906000Y-35082000D03*
X74168000Y-42132000D03*
X33402400Y-27475999D03*
X43191625Y-33052903D03*
X42164000Y-42418000D03*
X27635200Y-15036800D03*
D13*
X67945000Y-16891000D03*
D12*
X36957000Y-30353000D03*
D13*
X74422000Y-47752000D03*
D12*
X17601000Y-40184000D03*
X34163000Y-43561000D03*
X66421000Y-28448000D03*
D13*
X16510000Y-47879000D03*
D12*
X48048000Y-36098000D03*
X54906000Y-47655000D03*
X22876642Y-35767668D03*
X62484000Y-39084000D03*
X23115400Y-29126999D03*
X28769499Y-32960499D03*
D13*
X16383000Y-27178000D03*
D12*
X67437000Y-33242000D03*
%TO.N,+3.3V*%
X60442959Y-33673041D03*
X65668070Y-48015070D03*
X34925000Y-28386500D03*
X33894801Y-17428108D03*
X33291135Y-48047947D03*
X40576094Y-31940094D03*
X60325000Y-30988000D03*
X29251000Y-44399200D03*
X34417000Y-19558000D03*
X67418860Y-49022000D03*
X30861000Y-47778000D03*
X44411871Y-33339674D03*
%TO.N,+5V*%
X24892000Y-46736000D03*
X26036400Y-40048999D03*
X42164000Y-14198000D03*
X51943000Y-49022000D03*
X39894541Y-19701541D03*
X30607000Y-35941000D03*
X31623000Y-34163000D03*
X32066409Y-49271613D03*
%TO.N,GPIO4_In*%
X14525312Y-52468724D03*
X18739012Y-53410012D03*
%TO.N,GPIO5_In*%
X45212000Y-47078000D03*
%TO.N,GPIO1_out{slash}in*%
X73406000Y-33561000D03*
X72644000Y-31861000D03*
%TO.N,GPIO4_out{slash}in*%
X35560000Y-36701000D03*
X38793074Y-31318949D03*
%TO.N,GPIO5_out{slash}in*%
X46739000Y-42291000D03*
X44339000Y-41910000D03*
%TO.N,GPIO6_out{slash}in*%
X38836471Y-30073470D03*
%TO.N,GPIO1_5VOut*%
X42616703Y-29899486D03*
X39880482Y-27174519D03*
X70866000Y-35147000D03*
%TO.N,GPIO1_12VOut*%
X57404000Y-32814000D03*
X62992000Y-35020000D03*
X56802959Y-30386959D03*
X43434000Y-29210000D03*
X40703500Y-26606500D03*
%TO.N,GPIO3_5VOut*%
X50419000Y-13436000D03*
%TO.N,GPIO3_12VOut*%
X61148001Y-18262000D03*
X14459294Y-17311000D03*
%TO.N,GPIO4_5VOut*%
X19887947Y-52167387D03*
X16042595Y-52153524D03*
%TO.N,GPIO4_12VOut*%
X35285274Y-40219087D03*
X31343600Y-44196000D03*
%TO.N,GPIO5_12VOut*%
X47122248Y-38999500D03*
X46101959Y-44068041D03*
X49932396Y-38142313D03*
%TO.N,GPIO5_5VOut*%
X48006000Y-46228000D03*
X52366000Y-46766000D03*
%TO.N,GPIO6_12VOut*%
X13716000Y-40386000D03*
X20737947Y-48662375D03*
%TO.N,GPIO6_5VOut*%
X27229032Y-40056032D03*
X21404435Y-45702366D03*
X22852783Y-44746550D03*
X20993474Y-47695570D03*
%TO.N,+12V*%
X68189930Y-48250930D03*
X40561500Y-44164701D03*
X30099000Y-32639000D03*
X61849000Y-28185000D03*
X66802000Y-46863000D03*
X32571082Y-36381082D03*
X25185601Y-29210800D03*
X63246000Y-20232000D03*
X37465000Y-37211000D03*
X61509000Y-38680141D03*
%TO.N,Analog3_In*%
X64770000Y-21746000D03*
X66808506Y-22150576D03*
%TO.N,Analog2_In*%
X72009000Y-24892000D03*
%TD*%
D14*
%TO.N,+3.3V*%
X40576094Y-30434234D02*
X38998991Y-28857131D01*
X40576094Y-31940094D02*
X40576094Y-30434234D01*
X38998991Y-28857131D02*
X35395631Y-28857131D01*
X35395631Y-28857131D02*
X34925000Y-28386500D01*
%TO.N,+5V*%
X40071318Y-19701541D02*
X39894541Y-19701541D01*
X42164000Y-17608859D02*
X40071318Y-19701541D01*
X42164000Y-14198000D02*
X42164000Y-17608859D01*
D15*
%TO.N,GPIO5_In*%
X17841000Y-57468891D02*
X28381891Y-46928000D01*
X31496000Y-46928000D02*
X45062000Y-46928000D01*
X17841000Y-59320106D02*
X17841000Y-57468891D01*
X16891000Y-59563000D02*
X17598106Y-59563000D01*
X45062000Y-46928000D02*
X45212000Y-47078000D01*
X28381891Y-46928000D02*
X31496000Y-46928000D01*
X17598106Y-59563000D02*
X17841000Y-59320106D01*
%TO.N,GPIO5_12VOut*%
X15703476Y-53003524D02*
X14671000Y-54036000D01*
X14671000Y-54036000D02*
X14671000Y-56780106D01*
X27396051Y-45528000D02*
X23267050Y-49657000D01*
X46101959Y-44068041D02*
X44642000Y-45528000D01*
X44642000Y-45528000D02*
X27396051Y-45528000D01*
X20600987Y-49657000D02*
X17254463Y-53003524D01*
X23267050Y-49657000D02*
X20600987Y-49657000D01*
X14913894Y-57023000D02*
X15621000Y-57023000D01*
X17254463Y-53003524D02*
X15703476Y-53003524D01*
X14671000Y-56780106D02*
X14913894Y-57023000D01*
%TO.N,GPIO5_5VOut*%
X27686000Y-46228000D02*
X48006000Y-46228000D01*
X19431000Y-54483000D02*
X27686000Y-46228000D01*
X16891000Y-54483000D02*
X19431000Y-54483000D01*
D14*
%TO.N,+12V*%
X32462223Y-36381082D02*
X30099000Y-34017859D01*
X63246000Y-20232000D02*
X63246000Y-26788000D01*
X63246000Y-26788000D02*
X61849000Y-28185000D01*
X30099000Y-34017859D02*
X30099000Y-32639000D01*
X32571082Y-36381082D02*
X32462223Y-36381082D01*
%TO.N,+BATT*%
X70147000Y-48829141D02*
X70147000Y-50071000D01*
X42931000Y-23866000D02*
X42931000Y-24573106D01*
X44201000Y-21888894D02*
X44568894Y-21521000D01*
X53086000Y-31768141D02*
X70147000Y-48829141D01*
X74549000Y-54473000D02*
X75819000Y-54473000D01*
X44568894Y-21521000D02*
X50996280Y-21521000D01*
X70147000Y-50071000D02*
X74549000Y-54473000D01*
X53086000Y-26162000D02*
X53086000Y-31768141D01*
X50996280Y-21521000D02*
X53086000Y-23610720D01*
X44201000Y-22596000D02*
X44201000Y-21888894D01*
X42931000Y-24573106D02*
X50126035Y-31768141D01*
X53086000Y-23610720D02*
X53086000Y-26162000D01*
X50126035Y-31768141D02*
X53086000Y-31768141D01*
%TD*%
%TA.AperFunction,Conductor*%
%TO.N,GND*%
G36*
X75521940Y-56818921D02*
G01*
X75475018Y-56925892D01*
X75465372Y-57042302D01*
X75494047Y-57155538D01*
X75557936Y-57253327D01*
X75570364Y-57263000D01*
X74794581Y-57263000D01*
X74846060Y-57207079D01*
X74892982Y-57100108D01*
X74902628Y-56983698D01*
X74873953Y-56870462D01*
X74810064Y-56772673D01*
X74797636Y-56763000D01*
X75573419Y-56763000D01*
X75521940Y-56818921D01*
G37*
%TD.AperFunction*%
%TA.AperFunction,Conductor*%
G36*
X51756702Y-23520012D02*
G01*
X51763180Y-23526044D01*
X52174181Y-23937045D01*
X52207666Y-23998368D01*
X52210500Y-24024726D01*
X52210500Y-30768641D01*
X52190815Y-30835680D01*
X52138011Y-30881435D01*
X52086500Y-30892641D01*
X50540041Y-30892641D01*
X50473002Y-30872956D01*
X50452360Y-30856322D01*
X44576956Y-24980918D01*
X44543471Y-24919595D01*
X44548455Y-24849903D01*
X44590327Y-24793970D01*
X44606179Y-24783882D01*
X44759538Y-24701910D01*
X44759542Y-24701906D01*
X44764607Y-24698523D01*
X44765703Y-24700164D01*
X44821639Y-24676405D01*
X44890507Y-24688194D01*
X44907148Y-24698888D01*
X44907393Y-24698523D01*
X44912458Y-24701907D01*
X44912462Y-24701910D01*
X45056545Y-24778924D01*
X45084147Y-24793678D01*
X45086273Y-24794814D01*
X45274868Y-24852024D01*
X45471000Y-24871341D01*
X45667132Y-24852024D01*
X45855727Y-24794814D01*
X46029538Y-24701910D01*
X46029544Y-24701904D01*
X46034607Y-24698523D01*
X46035703Y-24700164D01*
X46091639Y-24676405D01*
X46160507Y-24688194D01*
X46177148Y-24698888D01*
X46177393Y-24698523D01*
X46182458Y-24701907D01*
X46182462Y-24701910D01*
X46326545Y-24778924D01*
X46354147Y-24793678D01*
X46356273Y-24794814D01*
X46544868Y-24852024D01*
X46741000Y-24871341D01*
X46937132Y-24852024D01*
X47125727Y-24794814D01*
X47299538Y-24701910D01*
X47299544Y-24701904D01*
X47304607Y-24698523D01*
X47305624Y-24700045D01*
X47362021Y-24676084D01*
X47430890Y-24687866D01*
X47447424Y-24698489D01*
X47447678Y-24698110D01*
X47452738Y-24701491D01*
X47626465Y-24794349D01*
X47761000Y-24835159D01*
X47761000Y-24073672D01*
X47798871Y-24118805D01*
X47898129Y-24176112D01*
X47982564Y-24191000D01*
X48039436Y-24191000D01*
X48123871Y-24176112D01*
X48223129Y-24118805D01*
X48261000Y-24073672D01*
X48261000Y-24835159D01*
X48395534Y-24794349D01*
X48569259Y-24701492D01*
X48574320Y-24698111D01*
X48575444Y-24699793D01*
X48631203Y-24676086D01*
X48700075Y-24687851D01*
X48717186Y-24698843D01*
X48717399Y-24698526D01*
X48722457Y-24701906D01*
X48722462Y-24701910D01*
X48860594Y-24775743D01*
X48894147Y-24793678D01*
X48896273Y-24794814D01*
X49084868Y-24852024D01*
X49281000Y-24871341D01*
X49477132Y-24852024D01*
X49665727Y-24794814D01*
X49667853Y-24793677D01*
X49669095Y-24793418D01*
X49671355Y-24792483D01*
X49671532Y-24792911D01*
X49736254Y-24779435D01*
X49800615Y-24803767D01*
X49808669Y-24809796D01*
X49876671Y-24835159D01*
X49943517Y-24860091D01*
X49943516Y-24860091D01*
X49950444Y-24860835D01*
X50003127Y-24866500D01*
X51098872Y-24866499D01*
X51158483Y-24860091D01*
X51293331Y-24809796D01*
X51408546Y-24723546D01*
X51494796Y-24608331D01*
X51545091Y-24473483D01*
X51551500Y-24413873D01*
X51551499Y-23613724D01*
X51571183Y-23546686D01*
X51623987Y-23500931D01*
X51693146Y-23490987D01*
X51756702Y-23520012D01*
G37*
%TD.AperFunction*%
%TA.AperFunction,Conductor*%
G36*
X49530173Y-12958185D02*
G01*
X49575928Y-13010989D01*
X49585872Y-13080147D01*
X49581065Y-13100818D01*
X49533326Y-13247744D01*
X49513540Y-13436000D01*
X49533326Y-13624256D01*
X49533327Y-13624259D01*
X49591818Y-13804277D01*
X49591821Y-13804284D01*
X49686467Y-13968216D01*
X49735876Y-14023090D01*
X49813127Y-14108886D01*
X49813129Y-14108888D01*
X49966265Y-14220148D01*
X49966270Y-14220151D01*
X50139192Y-14297142D01*
X50139197Y-14297144D01*
X50324354Y-14336500D01*
X50324355Y-14336500D01*
X50513644Y-14336500D01*
X50513646Y-14336500D01*
X50698803Y-14297144D01*
X50871730Y-14220151D01*
X51024871Y-14108888D01*
X51151533Y-13968216D01*
X51246179Y-13804284D01*
X51304674Y-13624256D01*
X51324460Y-13436000D01*
X51304674Y-13247744D01*
X51256935Y-13100818D01*
X51254940Y-13030977D01*
X51291020Y-12971144D01*
X51353721Y-12940316D01*
X51374866Y-12938500D01*
X78634343Y-12938500D01*
X78701382Y-12958185D01*
X78747137Y-13010989D01*
X78758343Y-13062186D01*
X78879649Y-60978186D01*
X78860134Y-61045275D01*
X78807446Y-61091164D01*
X78755649Y-61102500D01*
X69706775Y-61102500D01*
X69639736Y-61082815D01*
X69593981Y-61030011D01*
X69582775Y-60978249D01*
X69583624Y-60558340D01*
X69593086Y-55875739D01*
X69593114Y-55873398D01*
X69597870Y-55654859D01*
X69573221Y-55196549D01*
X69514175Y-54741391D01*
X69421066Y-54291962D01*
X69294422Y-53850809D01*
X69134959Y-53420428D01*
X69120278Y-53388427D01*
X69043818Y-53221756D01*
X68943582Y-53003259D01*
X68721373Y-52601664D01*
X68721370Y-52601660D01*
X68721362Y-52601646D01*
X68469595Y-52217921D01*
X68420034Y-52153524D01*
X68189664Y-51854192D01*
X68140243Y-51799103D01*
X67980743Y-51621308D01*
X67883175Y-51512549D01*
X67551861Y-51194922D01*
X67474290Y-51131026D01*
X67197601Y-50903113D01*
X66822390Y-50638767D01*
X66642219Y-50531139D01*
X66428372Y-50403393D01*
X66428365Y-50403389D01*
X66428361Y-50403387D01*
X66221707Y-50300175D01*
X66017764Y-50198316D01*
X65592905Y-50024701D01*
X65592895Y-50024697D01*
X65156169Y-49883523D01*
X65156166Y-49883522D01*
X64710069Y-49775593D01*
X64257131Y-49701520D01*
X63799893Y-49661718D01*
X63799880Y-49661717D01*
X63799876Y-49661717D01*
X63791825Y-49661625D01*
X63677889Y-49660333D01*
X63666516Y-49659122D01*
X63666464Y-49659641D01*
X63660205Y-49659007D01*
X63660204Y-49659007D01*
X63660155Y-49659007D01*
X63565080Y-49659042D01*
X63563605Y-49659034D01*
X63477701Y-49658043D01*
X63477700Y-49658043D01*
X63477699Y-49658043D01*
X63471985Y-49658506D01*
X63471954Y-49658133D01*
X63461035Y-49659083D01*
X52827457Y-49663157D01*
X52760410Y-49643498D01*
X52714634Y-49590712D01*
X52704664Y-49521557D01*
X52720020Y-49477161D01*
X52770179Y-49390284D01*
X52828674Y-49210256D01*
X52848460Y-49022000D01*
X52828674Y-48833744D01*
X52774112Y-48665823D01*
X52770181Y-48653722D01*
X52770180Y-48653721D01*
X52770179Y-48653716D01*
X52675533Y-48489784D01*
X52548871Y-48349112D01*
X52518548Y-48327081D01*
X52395734Y-48237851D01*
X52395729Y-48237848D01*
X52222807Y-48160857D01*
X52222802Y-48160855D01*
X52077001Y-48129865D01*
X52037646Y-48121500D01*
X51848354Y-48121500D01*
X51815897Y-48128398D01*
X51663197Y-48160855D01*
X51663192Y-48160857D01*
X51490270Y-48237848D01*
X51490265Y-48237851D01*
X51337129Y-48349111D01*
X51210466Y-48489785D01*
X51115821Y-48653715D01*
X51115818Y-48653722D01*
X51057861Y-48832098D01*
X51057326Y-48833744D01*
X51037540Y-49022000D01*
X51057326Y-49210256D01*
X51057327Y-49210259D01*
X51115818Y-49390277D01*
X51115821Y-49390284D01*
X51166368Y-49477834D01*
X51182841Y-49545734D01*
X51159988Y-49611761D01*
X51105067Y-49654952D01*
X51059029Y-49663834D01*
X33054287Y-49670734D01*
X32987240Y-49651075D01*
X32941464Y-49598289D01*
X32931494Y-49529134D01*
X32936307Y-49508421D01*
X32952083Y-49459869D01*
X32971869Y-49271613D01*
X32952083Y-49083357D01*
X32952080Y-49083350D01*
X32950731Y-49076996D01*
X32952936Y-49076527D01*
X32951239Y-49017050D01*
X32987322Y-48957219D01*
X33050024Y-48926393D01*
X33096942Y-48927287D01*
X33196489Y-48948447D01*
X33196490Y-48948447D01*
X33385779Y-48948447D01*
X33385781Y-48948447D01*
X33570938Y-48909091D01*
X33743865Y-48832098D01*
X33897006Y-48720835D01*
X34023668Y-48580163D01*
X34118314Y-48416231D01*
X34176809Y-48236203D01*
X34196595Y-48047947D01*
X34176809Y-47859691D01*
X34174377Y-47852207D01*
X34170677Y-47840817D01*
X34168682Y-47770976D01*
X34204763Y-47711143D01*
X34267464Y-47680316D01*
X34288608Y-47678500D01*
X44485742Y-47678500D01*
X44552781Y-47698185D01*
X44577891Y-47719527D01*
X44606128Y-47750887D01*
X44606135Y-47750893D01*
X44759265Y-47862148D01*
X44759270Y-47862151D01*
X44932192Y-47939142D01*
X44932197Y-47939144D01*
X45117354Y-47978500D01*
X45117355Y-47978500D01*
X45306644Y-47978500D01*
X45306646Y-47978500D01*
X45491803Y-47939144D01*
X45664730Y-47862151D01*
X45817871Y-47750888D01*
X45944533Y-47610216D01*
X46039179Y-47446284D01*
X46097674Y-47266256D01*
X46116247Y-47089536D01*
X46142832Y-47024924D01*
X46200129Y-46984939D01*
X46239568Y-46978500D01*
X47466663Y-46978500D01*
X47533702Y-46998185D01*
X47539548Y-47002182D01*
X47553265Y-47012148D01*
X47553270Y-47012151D01*
X47726192Y-47089142D01*
X47726197Y-47089144D01*
X47911354Y-47128500D01*
X47911355Y-47128500D01*
X48100644Y-47128500D01*
X48100646Y-47128500D01*
X48285803Y-47089144D01*
X48458730Y-47012151D01*
X48611871Y-46900888D01*
X48733325Y-46766000D01*
X51460540Y-46766000D01*
X51480326Y-46954256D01*
X51480327Y-46954259D01*
X51538818Y-47134277D01*
X51538821Y-47134284D01*
X51633467Y-47298216D01*
X51733117Y-47408888D01*
X51760129Y-47438888D01*
X51913265Y-47550148D01*
X51913270Y-47550151D01*
X52086192Y-47627142D01*
X52086197Y-47627144D01*
X52271354Y-47666500D01*
X52271355Y-47666500D01*
X52460644Y-47666500D01*
X52460646Y-47666500D01*
X52645803Y-47627144D01*
X52818730Y-47550151D01*
X52971871Y-47438888D01*
X53098533Y-47298216D01*
X53193179Y-47134284D01*
X53251674Y-46954256D01*
X53271460Y-46766000D01*
X53251674Y-46577744D01*
X53193179Y-46397716D01*
X53098533Y-46233784D01*
X52971871Y-46093112D01*
X52940955Y-46070650D01*
X52818734Y-45981851D01*
X52818729Y-45981848D01*
X52645807Y-45904857D01*
X52645802Y-45904855D01*
X52500001Y-45873865D01*
X52460646Y-45865500D01*
X52271354Y-45865500D01*
X52238897Y-45872398D01*
X52086197Y-45904855D01*
X52086192Y-45904857D01*
X51913270Y-45981848D01*
X51913265Y-45981851D01*
X51760129Y-46093111D01*
X51633466Y-46233785D01*
X51538821Y-46397715D01*
X51538818Y-46397722D01*
X51484951Y-46563510D01*
X51480326Y-46577744D01*
X51460540Y-46766000D01*
X48733325Y-46766000D01*
X48738533Y-46760216D01*
X48833179Y-46596284D01*
X48891674Y-46416256D01*
X48911460Y-46228000D01*
X48891674Y-46039744D01*
X48833179Y-45859716D01*
X48738533Y-45695784D01*
X48611871Y-45555112D01*
X48611870Y-45555111D01*
X48458734Y-45443851D01*
X48458729Y-45443848D01*
X48285807Y-45366857D01*
X48285802Y-45366855D01*
X48131607Y-45334081D01*
X48100646Y-45327500D01*
X47911354Y-45327500D01*
X47880393Y-45334081D01*
X47726197Y-45366855D01*
X47726192Y-45366857D01*
X47553270Y-45443848D01*
X47553265Y-45443851D01*
X47539548Y-45453818D01*
X47473742Y-45477298D01*
X47466663Y-45477500D01*
X46053230Y-45477500D01*
X45986191Y-45457815D01*
X45940436Y-45405011D01*
X45930492Y-45335853D01*
X45959517Y-45272297D01*
X45965539Y-45265827D01*
X46254731Y-44976635D01*
X46316050Y-44943153D01*
X46316382Y-44943081D01*
X46381762Y-44929185D01*
X46554689Y-44852192D01*
X46707830Y-44740929D01*
X46834492Y-44600257D01*
X46929138Y-44436325D01*
X46987633Y-44256297D01*
X47007419Y-44068041D01*
X46987633Y-43879785D01*
X46929138Y-43699757D01*
X46834492Y-43535825D01*
X46710817Y-43398470D01*
X46680588Y-43335481D01*
X46689213Y-43266146D01*
X46733954Y-43212480D01*
X46800607Y-43191522D01*
X46802968Y-43191500D01*
X46833644Y-43191500D01*
X46833646Y-43191500D01*
X47018803Y-43152144D01*
X47191730Y-43075151D01*
X47344871Y-42963888D01*
X47471533Y-42823216D01*
X47566179Y-42659284D01*
X47624674Y-42479256D01*
X47644460Y-42291000D01*
X47624674Y-42102744D01*
X47566179Y-41922716D01*
X47471533Y-41758784D01*
X47344871Y-41618112D01*
X47344870Y-41618111D01*
X47191734Y-41506851D01*
X47191729Y-41506848D01*
X47018807Y-41429857D01*
X47018802Y-41429855D01*
X46873001Y-41398865D01*
X46833646Y-41390500D01*
X46644354Y-41390500D01*
X46611897Y-41397398D01*
X46459197Y-41429855D01*
X46459192Y-41429857D01*
X46286270Y-41506848D01*
X46286265Y-41506851D01*
X46133129Y-41618111D01*
X46006466Y-41758785D01*
X45911821Y-41922715D01*
X45911818Y-41922722D01*
X45854784Y-42098256D01*
X45853326Y-42102744D01*
X45833540Y-42291000D01*
X45853326Y-42479256D01*
X45853327Y-42479259D01*
X45911818Y-42659277D01*
X45911821Y-42659284D01*
X46006467Y-42823216D01*
X46130141Y-42960569D01*
X46160371Y-43023560D01*
X46151746Y-43092895D01*
X46107005Y-43146561D01*
X46040352Y-43167519D01*
X46037991Y-43167541D01*
X46007313Y-43167541D01*
X45974856Y-43174439D01*
X45822156Y-43206896D01*
X45822151Y-43206898D01*
X45649229Y-43283889D01*
X45649224Y-43283892D01*
X45496088Y-43395152D01*
X45369425Y-43535826D01*
X45274780Y-43699756D01*
X45274778Y-43699760D01*
X45219437Y-43870082D01*
X45189187Y-43919444D01*
X44367451Y-44741181D01*
X44306128Y-44774666D01*
X44279770Y-44777500D01*
X41462282Y-44777500D01*
X41395243Y-44757815D01*
X41349488Y-44705011D01*
X41339544Y-44635853D01*
X41354895Y-44591500D01*
X41388679Y-44532985D01*
X41447174Y-44352957D01*
X41466960Y-44164701D01*
X41447174Y-43976445D01*
X41388679Y-43796417D01*
X41294033Y-43632485D01*
X41167371Y-43491813D01*
X41167370Y-43491812D01*
X41014234Y-43380552D01*
X41014229Y-43380549D01*
X40841307Y-43303558D01*
X40841302Y-43303556D01*
X40695501Y-43272566D01*
X40656146Y-43264201D01*
X40466854Y-43264201D01*
X40434397Y-43271099D01*
X40281697Y-43303556D01*
X40281692Y-43303558D01*
X40108770Y-43380549D01*
X40108765Y-43380552D01*
X39955629Y-43491812D01*
X39828966Y-43632486D01*
X39734321Y-43796416D01*
X39734318Y-43796423D01*
X39680389Y-43962401D01*
X39675826Y-43976445D01*
X39656040Y-44164701D01*
X39675826Y-44352957D01*
X39675827Y-44352960D01*
X39734318Y-44532978D01*
X39734321Y-44532985D01*
X39765770Y-44587457D01*
X39768105Y-44591500D01*
X39784578Y-44659400D01*
X39761725Y-44725427D01*
X39706804Y-44768618D01*
X39660718Y-44777500D01*
X32262453Y-44777500D01*
X32195414Y-44757815D01*
X32149659Y-44705011D01*
X32139715Y-44635853D01*
X32155065Y-44591501D01*
X32157400Y-44587457D01*
X32170779Y-44564284D01*
X32229274Y-44384256D01*
X32249060Y-44196000D01*
X32229274Y-44007744D01*
X32170779Y-43827716D01*
X32076133Y-43663784D01*
X31949471Y-43523112D01*
X31915871Y-43498700D01*
X31796334Y-43411851D01*
X31796329Y-43411848D01*
X31623407Y-43334857D01*
X31623402Y-43334855D01*
X31476156Y-43303558D01*
X31438246Y-43295500D01*
X31248954Y-43295500D01*
X31216497Y-43302398D01*
X31063797Y-43334855D01*
X31063792Y-43334857D01*
X30890870Y-43411848D01*
X30890865Y-43411851D01*
X30737729Y-43523111D01*
X30611066Y-43663785D01*
X30516421Y-43827715D01*
X30516418Y-43827722D01*
X30457927Y-44007740D01*
X30457926Y-44007744D01*
X30438140Y-44196000D01*
X30457926Y-44384256D01*
X30457927Y-44384259D01*
X30516418Y-44564277D01*
X30516420Y-44564281D01*
X30516421Y-44564284D01*
X30529800Y-44587457D01*
X30532135Y-44591501D01*
X30548606Y-44659402D01*
X30525754Y-44725428D01*
X30470832Y-44768618D01*
X30424747Y-44777500D01*
X30245596Y-44777500D01*
X30178557Y-44757815D01*
X30132802Y-44705011D01*
X30122858Y-44635853D01*
X30127663Y-44615186D01*
X30136674Y-44587456D01*
X30156460Y-44399200D01*
X30136674Y-44210944D01*
X30078179Y-44030916D01*
X29983533Y-43866984D01*
X29856871Y-43726312D01*
X29856870Y-43726311D01*
X29703734Y-43615051D01*
X29703729Y-43615048D01*
X29530807Y-43538057D01*
X29530802Y-43538055D01*
X29385001Y-43507065D01*
X29345646Y-43498700D01*
X29156354Y-43498700D01*
X29123897Y-43505598D01*
X28971197Y-43538055D01*
X28971192Y-43538057D01*
X28798270Y-43615048D01*
X28798265Y-43615051D01*
X28645129Y-43726311D01*
X28518466Y-43866985D01*
X28423821Y-44030915D01*
X28423818Y-44030922D01*
X28365327Y-44210940D01*
X28365326Y-44210944D01*
X28360559Y-44256300D01*
X28345540Y-44399200D01*
X28362890Y-44564284D01*
X28365326Y-44587456D01*
X28374335Y-44615182D01*
X28376330Y-44685022D01*
X28340250Y-44744855D01*
X28277550Y-44775684D01*
X28256404Y-44777500D01*
X27459759Y-44777500D01*
X27441788Y-44776191D01*
X27418030Y-44772711D01*
X27418024Y-44772710D01*
X27371030Y-44776822D01*
X27368681Y-44777028D01*
X27357875Y-44777500D01*
X27352335Y-44777500D01*
X27321552Y-44781098D01*
X27317967Y-44781464D01*
X27243250Y-44788001D01*
X27236183Y-44789460D01*
X27236171Y-44789404D01*
X27228814Y-44791035D01*
X27228828Y-44791092D01*
X27221791Y-44792760D01*
X27151282Y-44818421D01*
X27147905Y-44819595D01*
X27108899Y-44832521D01*
X27076719Y-44843185D01*
X27070177Y-44846236D01*
X27070152Y-44846183D01*
X27063359Y-44849471D01*
X27063385Y-44849523D01*
X27056931Y-44852764D01*
X26994272Y-44893975D01*
X26991232Y-44895912D01*
X26927399Y-44935285D01*
X26921734Y-44939765D01*
X26921698Y-44939719D01*
X26915849Y-44944484D01*
X26915886Y-44944528D01*
X26910361Y-44949164D01*
X26858883Y-45003726D01*
X26856371Y-45006311D01*
X25733211Y-46129470D01*
X25671888Y-46162955D01*
X25602196Y-46157971D01*
X25553380Y-46124761D01*
X25497870Y-46063111D01*
X25344734Y-45951851D01*
X25344729Y-45951848D01*
X25171807Y-45874857D01*
X25171802Y-45874855D01*
X25026001Y-45843865D01*
X24986646Y-45835500D01*
X24797354Y-45835500D01*
X24764897Y-45842398D01*
X24612197Y-45874855D01*
X24612192Y-45874857D01*
X24439270Y-45951848D01*
X24439265Y-45951851D01*
X24286129Y-46063111D01*
X24159466Y-46203785D01*
X24064821Y-46367715D01*
X24064818Y-46367722D01*
X24006327Y-46547740D01*
X24006326Y-46547744D01*
X23986540Y-46736000D01*
X24006326Y-46924256D01*
X24006327Y-46924259D01*
X24064818Y-47104277D01*
X24064821Y-47104284D01*
X24159467Y-47268216D01*
X24286129Y-47408888D01*
X24286830Y-47409666D01*
X24317060Y-47472657D01*
X24308435Y-47541992D01*
X24282361Y-47580319D01*
X22992501Y-48870181D01*
X22931178Y-48903666D01*
X22904820Y-48906500D01*
X21755464Y-48906500D01*
X21688425Y-48886815D01*
X21642670Y-48834011D01*
X21632143Y-48769541D01*
X21643407Y-48662375D01*
X21623621Y-48474119D01*
X21614078Y-48444752D01*
X21612082Y-48374914D01*
X21639856Y-48323465D01*
X21726007Y-48227786D01*
X21820653Y-48063854D01*
X21879148Y-47883826D01*
X21898934Y-47695570D01*
X21879148Y-47507314D01*
X21820653Y-47327286D01*
X21726007Y-47163354D01*
X21599345Y-47022682D01*
X21599344Y-47022681D01*
X21446208Y-46911421D01*
X21446203Y-46911418D01*
X21286123Y-46840145D01*
X21232886Y-46794895D01*
X21212565Y-46728046D01*
X21231611Y-46660822D01*
X21283977Y-46614567D01*
X21336559Y-46602866D01*
X21499079Y-46602866D01*
X21499081Y-46602866D01*
X21684238Y-46563510D01*
X21857165Y-46486517D01*
X22010306Y-46375254D01*
X22136968Y-46234582D01*
X22231614Y-46070650D01*
X22290109Y-45890622D01*
X22309895Y-45702366D01*
X22308990Y-45693758D01*
X22321559Y-45625030D01*
X22369291Y-45574006D01*
X22437031Y-45556888D01*
X22482745Y-45567518D01*
X22572980Y-45607694D01*
X22758137Y-45647050D01*
X22758138Y-45647050D01*
X22947427Y-45647050D01*
X22947429Y-45647050D01*
X23132586Y-45607694D01*
X23305513Y-45530701D01*
X23458654Y-45419438D01*
X23585316Y-45278766D01*
X23679962Y-45114834D01*
X23738457Y-44934806D01*
X23758243Y-44746550D01*
X23738457Y-44558294D01*
X23679962Y-44378266D01*
X23585316Y-44214334D01*
X23458654Y-44073662D01*
X23458653Y-44073661D01*
X23305517Y-43962401D01*
X23305512Y-43962398D01*
X23132590Y-43885407D01*
X23132585Y-43885405D01*
X22986784Y-43854415D01*
X22947429Y-43846050D01*
X22758137Y-43846050D01*
X22725680Y-43852948D01*
X22572980Y-43885405D01*
X22572975Y-43885407D01*
X22400053Y-43962398D01*
X22400048Y-43962401D01*
X22246912Y-44073661D01*
X22120249Y-44214335D01*
X22025604Y-44378265D01*
X22025601Y-44378272D01*
X21975332Y-44532985D01*
X21967109Y-44558294D01*
X21947501Y-44744855D01*
X21947323Y-44746552D01*
X21947323Y-44746556D01*
X21948227Y-44755162D01*
X21935655Y-44823891D01*
X21887920Y-44874912D01*
X21820179Y-44892027D01*
X21774470Y-44881396D01*
X21684242Y-44841223D01*
X21684237Y-44841221D01*
X21538436Y-44810231D01*
X21499081Y-44801866D01*
X21309789Y-44801866D01*
X21277332Y-44808764D01*
X21124632Y-44841221D01*
X21124627Y-44841223D01*
X20951705Y-44918214D01*
X20951700Y-44918217D01*
X20798564Y-45029477D01*
X20671901Y-45170151D01*
X20577256Y-45334081D01*
X20577253Y-45334088D01*
X20538351Y-45453818D01*
X20518761Y-45514110D01*
X20498975Y-45702366D01*
X20518761Y-45890622D01*
X20518762Y-45890625D01*
X20577253Y-46070643D01*
X20577256Y-46070650D01*
X20671902Y-46234582D01*
X20758523Y-46330784D01*
X20798564Y-46375254D01*
X20951700Y-46486514D01*
X20951705Y-46486517D01*
X21111786Y-46557791D01*
X21165023Y-46603041D01*
X21185344Y-46669890D01*
X21166298Y-46737114D01*
X21113932Y-46783369D01*
X21061350Y-46795070D01*
X20898828Y-46795070D01*
X20866371Y-46801968D01*
X20713671Y-46834425D01*
X20713666Y-46834427D01*
X20540744Y-46911418D01*
X20540739Y-46911421D01*
X20387603Y-47022681D01*
X20260940Y-47163355D01*
X20166295Y-47327285D01*
X20166292Y-47327292D01*
X20115747Y-47482855D01*
X20107800Y-47507314D01*
X20088014Y-47695570D01*
X20107800Y-47883826D01*
X20107801Y-47883829D01*
X20117342Y-47913193D01*
X20119337Y-47983034D01*
X20091561Y-48034483D01*
X20005413Y-48130160D01*
X19910768Y-48294090D01*
X19910765Y-48294097D01*
X19857068Y-48459361D01*
X19852273Y-48474119D01*
X19832487Y-48662375D01*
X19852273Y-48850631D01*
X19852274Y-48850634D01*
X19910767Y-49030658D01*
X19956600Y-49110044D01*
X19973072Y-49177944D01*
X19950219Y-49243971D01*
X19936893Y-49259724D01*
X17140921Y-52055697D01*
X17079598Y-52089182D01*
X17009906Y-52084198D01*
X16953973Y-52042326D01*
X16929920Y-51980977D01*
X16928269Y-51965268D01*
X16869774Y-51785240D01*
X16775128Y-51621308D01*
X16648466Y-51480636D01*
X16648465Y-51480635D01*
X16495329Y-51369375D01*
X16495324Y-51369372D01*
X16322402Y-51292381D01*
X16322397Y-51292379D01*
X16176596Y-51261389D01*
X16137241Y-51253024D01*
X15947949Y-51253024D01*
X15915492Y-51259922D01*
X15762792Y-51292379D01*
X15762787Y-51292381D01*
X15589865Y-51369372D01*
X15589860Y-51369375D01*
X15436724Y-51480635D01*
X15310060Y-51621309D01*
X15255072Y-51716553D01*
X15204505Y-51764769D01*
X15135898Y-51777992D01*
X15074800Y-51754871D01*
X14978046Y-51684575D01*
X14978041Y-51684572D01*
X14805119Y-51607581D01*
X14805114Y-51607579D01*
X14659313Y-51576589D01*
X14619958Y-51568224D01*
X14430666Y-51568224D01*
X14398209Y-51575122D01*
X14245509Y-51607579D01*
X14245504Y-51607581D01*
X14072582Y-51684572D01*
X14072577Y-51684575D01*
X13919441Y-51795835D01*
X13792778Y-51936509D01*
X13698133Y-52100439D01*
X13698130Y-52100446D01*
X13648555Y-52253024D01*
X13639638Y-52280468D01*
X13619852Y-52468724D01*
X13639638Y-52656980D01*
X13639639Y-52656983D01*
X13698130Y-52837001D01*
X13698133Y-52837008D01*
X13792779Y-53000940D01*
X13851708Y-53066387D01*
X13919441Y-53141612D01*
X14072577Y-53252872D01*
X14072578Y-53252872D01*
X14072582Y-53252875D01*
X14125258Y-53276328D01*
X14178495Y-53321578D01*
X14198816Y-53388427D01*
X14179771Y-53455651D01*
X14156815Y-53480482D01*
X14157718Y-53481439D01*
X14152469Y-53486390D01*
X14120632Y-53524331D01*
X14113346Y-53532284D01*
X14109407Y-53536224D01*
X14090176Y-53560545D01*
X14087902Y-53563337D01*
X14039694Y-53620790D01*
X14035729Y-53626819D01*
X14035682Y-53626788D01*
X14031630Y-53633147D01*
X14031679Y-53633177D01*
X14027889Y-53639321D01*
X13996192Y-53707294D01*
X13994623Y-53710536D01*
X13960957Y-53777572D01*
X13958488Y-53784357D01*
X13958432Y-53784336D01*
X13955960Y-53791450D01*
X13956015Y-53791469D01*
X13953743Y-53798325D01*
X13938573Y-53871788D01*
X13937793Y-53875304D01*
X13920499Y-53948279D01*
X13919661Y-53955454D01*
X13919601Y-53955447D01*
X13918835Y-53962945D01*
X13918895Y-53962951D01*
X13918265Y-53970140D01*
X13920448Y-54045128D01*
X13920500Y-54048735D01*
X13920500Y-56716400D01*
X13919191Y-56734369D01*
X13915710Y-56758131D01*
X13920028Y-56807474D01*
X13920500Y-56818282D01*
X13920500Y-56823817D01*
X13924098Y-56854601D01*
X13924464Y-56858189D01*
X13931000Y-56932897D01*
X13932461Y-56939973D01*
X13932403Y-56939984D01*
X13934034Y-56947343D01*
X13934092Y-56947330D01*
X13935757Y-56954355D01*
X13935758Y-56954360D01*
X13935759Y-56954361D01*
X13946436Y-56983698D01*
X13961400Y-57024811D01*
X13962582Y-57028213D01*
X13986182Y-57099432D01*
X13989236Y-57105980D01*
X13989182Y-57106004D01*
X13992470Y-57112794D01*
X13992521Y-57112769D01*
X13995761Y-57119220D01*
X14036979Y-57181890D01*
X14038889Y-57184888D01*
X14069972Y-57235280D01*
X14078289Y-57248764D01*
X14082766Y-57254425D01*
X14082719Y-57254462D01*
X14087482Y-57260308D01*
X14087528Y-57260270D01*
X14092173Y-57265805D01*
X14146707Y-57317255D01*
X14149295Y-57319769D01*
X14338164Y-57508638D01*
X14349945Y-57522270D01*
X14364282Y-57541528D01*
X14402231Y-57573372D01*
X14410204Y-57580679D01*
X14414111Y-57584586D01*
X14414117Y-57584591D01*
X14438431Y-57603816D01*
X14441212Y-57606080D01*
X14468850Y-57629271D01*
X14498683Y-57654305D01*
X14504712Y-57658270D01*
X14504679Y-57658319D01*
X14511041Y-57662372D01*
X14511073Y-57662321D01*
X14517213Y-57666108D01*
X14517217Y-57666111D01*
X14555871Y-57684135D01*
X14585214Y-57697819D01*
X14588453Y-57699387D01*
X14644588Y-57727579D01*
X14695662Y-57775256D01*
X14712852Y-57842978D01*
X14698296Y-57896840D01*
X14692188Y-57908266D01*
X14634975Y-58096870D01*
X14615659Y-58293000D01*
X14634975Y-58489129D01*
X14634976Y-58489132D01*
X14689154Y-58667733D01*
X14692188Y-58677733D01*
X14785086Y-58851532D01*
X14788473Y-58856601D01*
X14786955Y-58857615D01*
X14810918Y-58914042D01*
X14799124Y-58982909D01*
X14788515Y-58999420D01*
X14788893Y-58999673D01*
X14785505Y-59004742D01*
X14692652Y-59178458D01*
X14651839Y-59312999D01*
X14651840Y-59313000D01*
X15375419Y-59313000D01*
X15323940Y-59368921D01*
X15277018Y-59475892D01*
X15267372Y-59592302D01*
X15296047Y-59705538D01*
X15359936Y-59803327D01*
X15452115Y-59875072D01*
X15562595Y-59913000D01*
X15650005Y-59913000D01*
X15736216Y-59898614D01*
X15838947Y-59843019D01*
X15871000Y-59808200D01*
X15871000Y-60532159D01*
X16005534Y-60491349D01*
X16179259Y-60398492D01*
X16184320Y-60395111D01*
X16185444Y-60396793D01*
X16241203Y-60373086D01*
X16310075Y-60384851D01*
X16327186Y-60395843D01*
X16327399Y-60395526D01*
X16332457Y-60398906D01*
X16332462Y-60398910D01*
X16470594Y-60472743D01*
X16487560Y-60481812D01*
X16506273Y-60491814D01*
X16694868Y-60549024D01*
X16891000Y-60568341D01*
X17087132Y-60549024D01*
X17275727Y-60491814D01*
X17449538Y-60398910D01*
X17514742Y-60345397D01*
X17579048Y-60318085D01*
X17582593Y-60317723D01*
X17625475Y-60313972D01*
X17636282Y-60313500D01*
X17641810Y-60313500D01*
X17641815Y-60313500D01*
X17672662Y-60309893D01*
X17676136Y-60309539D01*
X17750903Y-60302999D01*
X17750911Y-60302996D01*
X17757972Y-60301539D01*
X17757984Y-60301598D01*
X17765349Y-60299965D01*
X17765335Y-60299906D01*
X17772355Y-60298241D01*
X17772361Y-60298241D01*
X17842885Y-60272572D01*
X17846223Y-60271412D01*
X17917440Y-60247814D01*
X17917448Y-60247808D01*
X17923988Y-60244760D01*
X17924014Y-60244816D01*
X17930796Y-60241532D01*
X17930769Y-60241478D01*
X17937219Y-60238238D01*
X17937223Y-60238237D01*
X17999943Y-60196984D01*
X18002838Y-60195140D01*
X18066762Y-60155712D01*
X18066768Y-60155705D01*
X18072431Y-60151229D01*
X18072469Y-60151277D01*
X18078306Y-60146522D01*
X18078267Y-60146475D01*
X18083797Y-60141833D01*
X18083802Y-60141830D01*
X18135290Y-60087254D01*
X18137737Y-60084735D01*
X18326642Y-59895830D01*
X18340271Y-59884053D01*
X18359530Y-59869716D01*
X18391360Y-59831782D01*
X18398677Y-59823797D01*
X18402587Y-59819887D01*
X18402587Y-59819886D01*
X18402591Y-59819883D01*
X18421833Y-59795544D01*
X18424069Y-59792799D01*
X18472302Y-59735320D01*
X18472307Y-59735309D01*
X18476274Y-59729281D01*
X18476325Y-59729314D01*
X18480372Y-59722962D01*
X18480320Y-59722930D01*
X18484108Y-59716786D01*
X18484111Y-59716783D01*
X18515821Y-59648779D01*
X18517362Y-59645594D01*
X18551040Y-59578539D01*
X18551043Y-59578523D01*
X18553509Y-59571752D01*
X18553567Y-59571773D01*
X18556043Y-59564652D01*
X18555986Y-59564634D01*
X18558256Y-59557783D01*
X18558257Y-59557779D01*
X18573447Y-59484208D01*
X18574179Y-59480904D01*
X18591500Y-59407827D01*
X18591500Y-59407818D01*
X18592338Y-59400654D01*
X18592398Y-59400661D01*
X18593164Y-59393161D01*
X18593105Y-59393156D01*
X18593734Y-59385966D01*
X18591552Y-59310976D01*
X18591500Y-59307369D01*
X18591500Y-57831120D01*
X18611185Y-57764081D01*
X18627814Y-57743444D01*
X22429054Y-53942203D01*
X22490375Y-53908720D01*
X22560067Y-53913704D01*
X22616000Y-53955576D01*
X22640417Y-54021040D01*
X22636000Y-54063819D01*
X22539740Y-54402153D01*
X22446471Y-54856414D01*
X22446471Y-54856417D01*
X22387356Y-55316361D01*
X22387355Y-55316381D01*
X22362724Y-55779462D01*
X22362724Y-55779484D01*
X22367494Y-56000311D01*
X22367523Y-56002738D01*
X22374327Y-59368921D01*
X22377807Y-61091164D01*
X22377836Y-61105249D01*
X22358287Y-61172328D01*
X22305575Y-61218190D01*
X22253836Y-61229500D01*
X13062500Y-61229500D01*
X12995461Y-61209815D01*
X12949706Y-61157011D01*
X12938500Y-61105500D01*
X12938500Y-59813000D01*
X14651840Y-59813000D01*
X14692652Y-59947541D01*
X14785503Y-60121253D01*
X14785507Y-60121260D01*
X14910471Y-60273528D01*
X15062739Y-60398491D01*
X15236465Y-60491349D01*
X15371000Y-60532159D01*
X15371000Y-59813000D01*
X14651840Y-59813000D01*
X12938500Y-59813000D01*
X12938500Y-41910000D01*
X43433540Y-41910000D01*
X43453326Y-42098256D01*
X43453327Y-42098259D01*
X43511818Y-42278277D01*
X43511821Y-42278284D01*
X43606467Y-42442216D01*
X43639821Y-42479259D01*
X43733129Y-42582888D01*
X43886265Y-42694148D01*
X43886270Y-42694151D01*
X44059192Y-42771142D01*
X44059197Y-42771144D01*
X44244354Y-42810500D01*
X44244355Y-42810500D01*
X44433644Y-42810500D01*
X44433646Y-42810500D01*
X44618803Y-42771144D01*
X44791730Y-42694151D01*
X44944871Y-42582888D01*
X45071533Y-42442216D01*
X45166179Y-42278284D01*
X45224674Y-42098256D01*
X45244460Y-41910000D01*
X45224674Y-41721744D01*
X45166179Y-41541716D01*
X45071533Y-41377784D01*
X44944871Y-41237112D01*
X44944870Y-41237111D01*
X44791734Y-41125851D01*
X44791729Y-41125848D01*
X44618807Y-41048857D01*
X44618802Y-41048855D01*
X44473001Y-41017865D01*
X44433646Y-41009500D01*
X44244354Y-41009500D01*
X44211897Y-41016398D01*
X44059197Y-41048855D01*
X44059192Y-41048857D01*
X43886270Y-41125848D01*
X43886265Y-41125851D01*
X43733129Y-41237111D01*
X43606466Y-41377785D01*
X43511821Y-41541715D01*
X43511818Y-41541722D01*
X43486998Y-41618112D01*
X43453326Y-41721744D01*
X43433540Y-41910000D01*
X12938500Y-41910000D01*
X12938500Y-41177555D01*
X12958185Y-41110516D01*
X13010989Y-41064761D01*
X13080147Y-41054817D01*
X13135382Y-41077235D01*
X13263266Y-41170148D01*
X13263270Y-41170151D01*
X13436192Y-41247142D01*
X13436197Y-41247144D01*
X13621354Y-41286500D01*
X13621355Y-41286500D01*
X13810644Y-41286500D01*
X13810646Y-41286500D01*
X13995803Y-41247144D01*
X14168730Y-41170151D01*
X14321871Y-41058888D01*
X14448533Y-40918216D01*
X14543179Y-40754284D01*
X14601674Y-40574256D01*
X14621460Y-40386000D01*
X14601674Y-40197744D01*
X14553344Y-40048999D01*
X25130940Y-40048999D01*
X25150726Y-40237255D01*
X25150727Y-40237258D01*
X25209218Y-40417276D01*
X25209221Y-40417283D01*
X25303867Y-40581215D01*
X25310200Y-40588248D01*
X25430529Y-40721887D01*
X25583665Y-40833147D01*
X25583670Y-40833150D01*
X25756592Y-40910141D01*
X25756597Y-40910143D01*
X25941754Y-40949499D01*
X25941755Y-40949499D01*
X26131044Y-40949499D01*
X26131046Y-40949499D01*
X26316203Y-40910143D01*
X26489130Y-40833150D01*
X26554990Y-40785299D01*
X26620794Y-40761819D01*
X26688848Y-40777644D01*
X26700760Y-40785299D01*
X26776297Y-40840180D01*
X26776302Y-40840183D01*
X26949224Y-40917174D01*
X26949229Y-40917176D01*
X27134386Y-40956532D01*
X27134387Y-40956532D01*
X27323676Y-40956532D01*
X27323678Y-40956532D01*
X27508835Y-40917176D01*
X27681762Y-40840183D01*
X27834903Y-40728920D01*
X27961565Y-40588248D01*
X28056211Y-40424316D01*
X28114706Y-40244288D01*
X28117355Y-40219087D01*
X34379814Y-40219087D01*
X34399600Y-40407343D01*
X34399601Y-40407346D01*
X34458092Y-40587364D01*
X34458095Y-40587371D01*
X34552741Y-40751303D01*
X34632769Y-40840183D01*
X34679403Y-40891975D01*
X34832539Y-41003235D01*
X34832544Y-41003238D01*
X35005466Y-41080229D01*
X35005471Y-41080231D01*
X35190628Y-41119587D01*
X35190629Y-41119587D01*
X35379918Y-41119587D01*
X35379920Y-41119587D01*
X35565077Y-41080231D01*
X35738004Y-41003238D01*
X35891145Y-40891975D01*
X36017807Y-40751303D01*
X36112453Y-40587371D01*
X36170948Y-40407343D01*
X36190734Y-40219087D01*
X36170948Y-40030831D01*
X36112453Y-39850803D01*
X36017807Y-39686871D01*
X35891145Y-39546199D01*
X35871211Y-39531716D01*
X35738008Y-39434938D01*
X35738003Y-39434935D01*
X35565081Y-39357944D01*
X35565076Y-39357942D01*
X35419275Y-39326952D01*
X35379920Y-39318587D01*
X35190628Y-39318587D01*
X35158171Y-39325485D01*
X35005471Y-39357942D01*
X35005466Y-39357944D01*
X34832544Y-39434935D01*
X34832539Y-39434938D01*
X34679403Y-39546198D01*
X34552740Y-39686872D01*
X34458095Y-39850802D01*
X34458092Y-39850809D01*
X34403861Y-40017716D01*
X34399600Y-40030831D01*
X34379814Y-40219087D01*
X28117355Y-40219087D01*
X28134492Y-40056032D01*
X28114706Y-39867776D01*
X28056211Y-39687748D01*
X27961565Y-39523816D01*
X27834903Y-39383144D01*
X27825223Y-39376111D01*
X27681766Y-39271883D01*
X27681761Y-39271880D01*
X27508839Y-39194889D01*
X27508834Y-39194887D01*
X27363033Y-39163897D01*
X27323678Y-39155532D01*
X27134386Y-39155532D01*
X27101929Y-39162430D01*
X26949229Y-39194887D01*
X26949224Y-39194889D01*
X26776302Y-39271880D01*
X26776297Y-39271883D01*
X26710441Y-39319731D01*
X26644635Y-39343211D01*
X26576581Y-39327385D01*
X26564671Y-39319731D01*
X26489134Y-39264850D01*
X26489129Y-39264847D01*
X26316207Y-39187856D01*
X26316202Y-39187854D01*
X26164134Y-39155532D01*
X26131046Y-39148499D01*
X25941754Y-39148499D01*
X25909297Y-39155397D01*
X25756597Y-39187854D01*
X25756592Y-39187856D01*
X25583670Y-39264847D01*
X25583665Y-39264850D01*
X25430529Y-39376110D01*
X25303866Y-39516784D01*
X25209221Y-39680714D01*
X25209218Y-39680721D01*
X25150759Y-39860642D01*
X25150726Y-39860743D01*
X25130940Y-40048999D01*
X14553344Y-40048999D01*
X14543179Y-40017716D01*
X14448533Y-39853784D01*
X14321871Y-39713112D01*
X14321870Y-39713111D01*
X14168734Y-39601851D01*
X14168729Y-39601848D01*
X13995807Y-39524857D01*
X13995802Y-39524855D01*
X13850001Y-39493865D01*
X13810646Y-39485500D01*
X13621354Y-39485500D01*
X13588897Y-39492398D01*
X13436197Y-39524855D01*
X13436192Y-39524857D01*
X13263270Y-39601848D01*
X13263265Y-39601851D01*
X13135385Y-39694762D01*
X13069579Y-39718242D01*
X13001525Y-39702416D01*
X12952830Y-39652311D01*
X12938500Y-39594444D01*
X12938500Y-38999500D01*
X46216788Y-38999500D01*
X46236574Y-39187756D01*
X46238540Y-39193809D01*
X46295066Y-39367777D01*
X46295069Y-39367784D01*
X46389715Y-39531716D01*
X46452865Y-39601851D01*
X46516377Y-39672388D01*
X46669513Y-39783648D01*
X46669518Y-39783651D01*
X46842440Y-39860642D01*
X46842445Y-39860644D01*
X47027602Y-39900000D01*
X47027603Y-39900000D01*
X47216892Y-39900000D01*
X47216894Y-39900000D01*
X47402051Y-39860644D01*
X47574978Y-39783651D01*
X47728119Y-39672388D01*
X47854781Y-39531716D01*
X47949427Y-39367784D01*
X48007922Y-39187756D01*
X48027708Y-38999500D01*
X48007922Y-38811244D01*
X47949427Y-38631216D01*
X47854781Y-38467284D01*
X47728119Y-38326612D01*
X47707819Y-38311863D01*
X47574982Y-38215351D01*
X47574977Y-38215348D01*
X47410940Y-38142313D01*
X49026936Y-38142313D01*
X49046722Y-38330569D01*
X49046723Y-38330572D01*
X49105214Y-38510590D01*
X49105217Y-38510597D01*
X49199863Y-38674529D01*
X49322962Y-38811244D01*
X49326525Y-38815201D01*
X49479661Y-38926461D01*
X49479666Y-38926464D01*
X49652588Y-39003455D01*
X49652593Y-39003457D01*
X49837750Y-39042813D01*
X49837751Y-39042813D01*
X50027040Y-39042813D01*
X50027042Y-39042813D01*
X50212199Y-39003457D01*
X50385126Y-38926464D01*
X50538267Y-38815201D01*
X50664929Y-38674529D01*
X50759575Y-38510597D01*
X50818070Y-38330569D01*
X50837856Y-38142313D01*
X50818070Y-37954057D01*
X50759575Y-37774029D01*
X50664929Y-37610097D01*
X50538267Y-37469425D01*
X50538266Y-37469424D01*
X50385130Y-37358164D01*
X50385125Y-37358161D01*
X50212203Y-37281170D01*
X50212198Y-37281168D01*
X50066397Y-37250178D01*
X50027042Y-37241813D01*
X49837750Y-37241813D01*
X49805293Y-37248711D01*
X49652593Y-37281168D01*
X49652588Y-37281170D01*
X49479666Y-37358161D01*
X49479661Y-37358164D01*
X49326525Y-37469424D01*
X49199862Y-37610098D01*
X49105217Y-37774028D01*
X49105214Y-37774035D01*
X49046723Y-37954053D01*
X49046722Y-37954057D01*
X49026936Y-38142313D01*
X47410940Y-38142313D01*
X47402055Y-38138357D01*
X47402050Y-38138355D01*
X47256249Y-38107365D01*
X47216894Y-38099000D01*
X47027602Y-38099000D01*
X46995145Y-38105898D01*
X46842445Y-38138355D01*
X46842440Y-38138357D01*
X46669518Y-38215348D01*
X46669513Y-38215351D01*
X46516377Y-38326611D01*
X46389714Y-38467285D01*
X46295069Y-38631215D01*
X46295066Y-38631222D01*
X46236575Y-38811240D01*
X46236574Y-38811244D01*
X46216788Y-38999500D01*
X12938500Y-38999500D01*
X12938500Y-32639000D01*
X29193540Y-32639000D01*
X29213326Y-32827256D01*
X29213326Y-32827258D01*
X29213327Y-32827260D01*
X29217430Y-32839887D01*
X29223500Y-32878207D01*
X29223500Y-33977237D01*
X29223091Y-33987301D01*
X29218660Y-34041704D01*
X29229688Y-34122649D01*
X29230096Y-34125979D01*
X29238927Y-34207175D01*
X29238929Y-34207186D01*
X29238990Y-34207365D01*
X29244340Y-34230190D01*
X29244366Y-34230384D01*
X29244369Y-34230396D01*
X29272540Y-34307078D01*
X29273655Y-34310244D01*
X29299731Y-34387635D01*
X29299734Y-34387641D01*
X29299832Y-34387804D01*
X29309969Y-34408958D01*
X29310036Y-34409142D01*
X29310040Y-34409149D01*
X29354046Y-34477998D01*
X29355809Y-34480840D01*
X29387906Y-34534185D01*
X29397912Y-34550814D01*
X29398042Y-34550951D01*
X29412492Y-34569434D01*
X29412600Y-34569603D01*
X29470395Y-34627398D01*
X29472702Y-34629769D01*
X29528866Y-34689062D01*
X29528868Y-34689063D01*
X29528871Y-34689066D01*
X29529028Y-34689173D01*
X29547121Y-34704124D01*
X29970030Y-35127033D01*
X30003515Y-35188356D01*
X29998531Y-35258048D01*
X29974499Y-35297686D01*
X29874466Y-35408784D01*
X29779821Y-35572715D01*
X29779818Y-35572722D01*
X29735801Y-35708194D01*
X29721326Y-35752744D01*
X29701540Y-35941000D01*
X29721326Y-36129256D01*
X29721327Y-36129259D01*
X29779818Y-36309277D01*
X29779821Y-36309284D01*
X29874467Y-36473216D01*
X29961016Y-36569338D01*
X30001129Y-36613888D01*
X30154265Y-36725148D01*
X30154270Y-36725151D01*
X30327192Y-36802142D01*
X30327197Y-36802144D01*
X30512354Y-36841500D01*
X30512355Y-36841500D01*
X30701644Y-36841500D01*
X30701646Y-36841500D01*
X30886803Y-36802144D01*
X31059730Y-36725151D01*
X31212871Y-36613888D01*
X31241050Y-36582591D01*
X31300534Y-36545944D01*
X31370391Y-36547273D01*
X31420880Y-36577883D01*
X31814422Y-36971425D01*
X31821249Y-36978831D01*
X31856584Y-37020432D01*
X31856591Y-37020437D01*
X31856592Y-37020439D01*
X31921651Y-37069895D01*
X31924235Y-37071914D01*
X31951322Y-37093688D01*
X31987925Y-37123112D01*
X31988095Y-37123196D01*
X32008037Y-37135565D01*
X32008194Y-37135684D01*
X32082366Y-37169999D01*
X32085343Y-37171426D01*
X32158530Y-37207723D01*
X32158704Y-37207766D01*
X32180849Y-37215562D01*
X32181026Y-37215644D01*
X32260817Y-37233207D01*
X32264048Y-37233964D01*
X32273134Y-37236223D01*
X32285057Y-37240326D01*
X32285093Y-37240216D01*
X32291276Y-37242225D01*
X32291277Y-37242225D01*
X32291279Y-37242226D01*
X32330445Y-37250550D01*
X32334570Y-37251501D01*
X32343334Y-37253682D01*
X32343339Y-37253682D01*
X32343907Y-37253760D01*
X32352949Y-37255334D01*
X32476436Y-37281582D01*
X32476437Y-37281582D01*
X32665726Y-37281582D01*
X32665728Y-37281582D01*
X32850885Y-37242226D01*
X33023812Y-37165233D01*
X33176953Y-37053970D01*
X33303615Y-36913298D01*
X33398261Y-36749366D01*
X33413976Y-36701000D01*
X34654540Y-36701000D01*
X34674326Y-36889256D01*
X34674327Y-36889259D01*
X34732818Y-37069277D01*
X34732821Y-37069284D01*
X34827467Y-37233216D01*
X34939968Y-37358161D01*
X34954129Y-37373888D01*
X35107265Y-37485148D01*
X35107270Y-37485151D01*
X35280192Y-37562142D01*
X35280197Y-37562144D01*
X35465354Y-37601500D01*
X35465355Y-37601500D01*
X35654644Y-37601500D01*
X35654646Y-37601500D01*
X35839803Y-37562144D01*
X36012730Y-37485151D01*
X36165871Y-37373888D01*
X36292533Y-37233216D01*
X36329577Y-37169052D01*
X36380142Y-37120837D01*
X36448749Y-37107613D01*
X36513614Y-37133580D01*
X36554143Y-37190494D01*
X36560285Y-37218090D01*
X36579326Y-37399256D01*
X36579327Y-37399259D01*
X36637818Y-37579277D01*
X36637821Y-37579284D01*
X36732467Y-37743216D01*
X36800700Y-37818996D01*
X36859129Y-37883888D01*
X37012265Y-37995148D01*
X37012270Y-37995151D01*
X37185192Y-38072142D01*
X37185197Y-38072144D01*
X37370354Y-38111500D01*
X37370355Y-38111500D01*
X37559644Y-38111500D01*
X37559646Y-38111500D01*
X37744803Y-38072144D01*
X37917730Y-37995151D01*
X38070871Y-37883888D01*
X38197533Y-37743216D01*
X38292179Y-37579284D01*
X38350674Y-37399256D01*
X38370460Y-37211000D01*
X38350674Y-37022744D01*
X38292179Y-36842716D01*
X38197533Y-36678784D01*
X38070871Y-36538112D01*
X38035955Y-36512744D01*
X37917734Y-36426851D01*
X37917729Y-36426848D01*
X37744807Y-36349857D01*
X37744802Y-36349855D01*
X37599001Y-36318865D01*
X37559646Y-36310500D01*
X37370354Y-36310500D01*
X37337897Y-36317398D01*
X37185197Y-36349855D01*
X37185192Y-36349857D01*
X37012270Y-36426848D01*
X37012265Y-36426851D01*
X36859129Y-36538111D01*
X36732465Y-36678785D01*
X36695422Y-36742947D01*
X36644855Y-36791163D01*
X36576248Y-36804385D01*
X36511383Y-36778417D01*
X36470855Y-36721503D01*
X36464715Y-36693913D01*
X36445674Y-36512744D01*
X36387179Y-36332716D01*
X36292533Y-36168784D01*
X36165871Y-36028112D01*
X36165870Y-36028111D01*
X36012734Y-35916851D01*
X36012729Y-35916848D01*
X35839807Y-35839857D01*
X35839802Y-35839855D01*
X35694001Y-35808865D01*
X35654646Y-35800500D01*
X35465354Y-35800500D01*
X35432897Y-35807398D01*
X35280197Y-35839855D01*
X35280192Y-35839857D01*
X35107270Y-35916848D01*
X35107265Y-35916851D01*
X34954129Y-36028111D01*
X34827466Y-36168785D01*
X34732821Y-36332715D01*
X34732818Y-36332722D01*
X34683182Y-36485487D01*
X34674326Y-36512744D01*
X34654540Y-36701000D01*
X33413976Y-36701000D01*
X33456756Y-36569338D01*
X33476542Y-36381082D01*
X33456756Y-36192826D01*
X33398261Y-36012798D01*
X33303615Y-35848866D01*
X33176953Y-35708194D01*
X33176952Y-35708193D01*
X33023816Y-35596933D01*
X33023811Y-35596930D01*
X32850856Y-35519924D01*
X32813611Y-35494326D01*
X32277159Y-34957874D01*
X32243674Y-34896551D01*
X32248658Y-34826859D01*
X32272688Y-34787223D01*
X32355533Y-34695216D01*
X32450179Y-34531284D01*
X32508674Y-34351256D01*
X32528460Y-34163000D01*
X32508674Y-33974744D01*
X32450179Y-33794716D01*
X32355533Y-33630784D01*
X32228871Y-33490112D01*
X32221539Y-33484785D01*
X32075734Y-33378851D01*
X32075729Y-33378848D01*
X31987744Y-33339674D01*
X43506411Y-33339674D01*
X43526197Y-33527930D01*
X43526198Y-33527933D01*
X43584689Y-33707951D01*
X43584692Y-33707958D01*
X43679338Y-33871890D01*
X43774193Y-33977237D01*
X43806000Y-34012562D01*
X43959136Y-34123822D01*
X43959141Y-34123825D01*
X44132063Y-34200816D01*
X44132068Y-34200818D01*
X44317225Y-34240174D01*
X44317226Y-34240174D01*
X44506515Y-34240174D01*
X44506517Y-34240174D01*
X44691674Y-34200818D01*
X44864601Y-34123825D01*
X45017742Y-34012562D01*
X45144404Y-33871890D01*
X45239050Y-33707958D01*
X45297545Y-33527930D01*
X45317331Y-33339674D01*
X45297545Y-33151418D01*
X45239050Y-32971390D01*
X45144404Y-32807458D01*
X45017742Y-32666786D01*
X45009090Y-32660500D01*
X44864605Y-32555525D01*
X44864600Y-32555522D01*
X44691678Y-32478531D01*
X44691673Y-32478529D01*
X44537290Y-32445715D01*
X44506517Y-32439174D01*
X44317225Y-32439174D01*
X44286452Y-32445715D01*
X44132068Y-32478529D01*
X44132063Y-32478531D01*
X43959141Y-32555522D01*
X43959136Y-32555525D01*
X43806000Y-32666785D01*
X43679337Y-32807459D01*
X43584692Y-32971389D01*
X43584689Y-32971396D01*
X43526198Y-33151414D01*
X43526197Y-33151418D01*
X43506411Y-33339674D01*
X31987744Y-33339674D01*
X31902807Y-33301857D01*
X31902802Y-33301855D01*
X31757001Y-33270865D01*
X31717646Y-33262500D01*
X31528354Y-33262500D01*
X31495897Y-33269398D01*
X31343197Y-33301855D01*
X31343192Y-33301857D01*
X31170270Y-33378848D01*
X31164637Y-33382101D01*
X31163845Y-33380729D01*
X31105572Y-33401518D01*
X31037519Y-33385689D01*
X30988827Y-33335581D01*
X30974500Y-33277720D01*
X30974500Y-32878207D01*
X30980570Y-32839887D01*
X30982486Y-32833989D01*
X30984674Y-32827256D01*
X31004460Y-32639000D01*
X30984674Y-32450744D01*
X30926179Y-32270716D01*
X30831533Y-32106784D01*
X30704871Y-31966112D01*
X30686626Y-31952856D01*
X30551734Y-31854851D01*
X30551729Y-31854848D01*
X30378807Y-31777857D01*
X30378802Y-31777855D01*
X30233001Y-31746865D01*
X30193646Y-31738500D01*
X30004354Y-31738500D01*
X29971897Y-31745398D01*
X29819197Y-31777855D01*
X29819192Y-31777857D01*
X29646270Y-31854848D01*
X29646265Y-31854851D01*
X29493129Y-31966111D01*
X29366466Y-32106785D01*
X29271821Y-32270715D01*
X29271818Y-32270722D01*
X29213327Y-32450740D01*
X29213326Y-32450744D01*
X29193540Y-32639000D01*
X12938500Y-32639000D01*
X12938500Y-29210800D01*
X24280141Y-29210800D01*
X24299927Y-29399056D01*
X24299928Y-29399059D01*
X24358419Y-29579077D01*
X24358422Y-29579084D01*
X24453068Y-29743016D01*
X24553668Y-29854743D01*
X24579730Y-29883688D01*
X24732866Y-29994948D01*
X24732871Y-29994951D01*
X24905793Y-30071942D01*
X24905798Y-30071944D01*
X25090955Y-30111300D01*
X25090956Y-30111300D01*
X25280245Y-30111300D01*
X25280247Y-30111300D01*
X25465404Y-30071944D01*
X25638331Y-29994951D01*
X25791472Y-29883688D01*
X25918134Y-29743016D01*
X26012780Y-29579084D01*
X26071275Y-29399056D01*
X26091061Y-29210800D01*
X26071275Y-29022544D01*
X26012780Y-28842516D01*
X25918134Y-28678584D01*
X25791472Y-28537912D01*
X25790370Y-28537111D01*
X25638335Y-28426651D01*
X25638330Y-28426648D01*
X25548157Y-28386500D01*
X34019540Y-28386500D01*
X34039326Y-28574756D01*
X34039327Y-28574759D01*
X34097818Y-28754777D01*
X34097821Y-28754784D01*
X34192467Y-28918716D01*
X34319129Y-29059388D01*
X34459763Y-29161564D01*
X34474552Y-29174196D01*
X34747830Y-29447474D01*
X34754657Y-29454880D01*
X34789992Y-29496481D01*
X34789999Y-29496486D01*
X34790000Y-29496488D01*
X34855059Y-29545944D01*
X34857643Y-29547963D01*
X34884730Y-29569737D01*
X34921333Y-29599161D01*
X34921503Y-29599245D01*
X34941445Y-29611614D01*
X34941602Y-29611733D01*
X35015774Y-29646048D01*
X35018751Y-29647475D01*
X35091938Y-29683772D01*
X35092112Y-29683815D01*
X35114257Y-29691611D01*
X35114434Y-29691693D01*
X35194210Y-29709252D01*
X35197458Y-29710013D01*
X35276742Y-29729731D01*
X35276915Y-29729735D01*
X35300233Y-29732591D01*
X35300415Y-29732631D01*
X35382094Y-29732631D01*
X35385452Y-29732676D01*
X35467104Y-29734888D01*
X35467286Y-29734852D01*
X35490654Y-29732631D01*
X37830102Y-29732631D01*
X37897141Y-29752316D01*
X37942896Y-29805120D01*
X37952840Y-29874278D01*
X37951394Y-29882402D01*
X37950798Y-29885203D01*
X37939264Y-29994948D01*
X37931011Y-30073470D01*
X37950797Y-30261726D01*
X37950798Y-30261729D01*
X38009289Y-30441747D01*
X38009292Y-30441754D01*
X38105626Y-30608610D01*
X38122099Y-30676511D01*
X38099246Y-30742537D01*
X38090390Y-30753581D01*
X38060542Y-30786731D01*
X38060538Y-30786736D01*
X37965895Y-30950664D01*
X37965892Y-30950671D01*
X37949911Y-30999857D01*
X37907400Y-31130693D01*
X37887614Y-31318949D01*
X37907400Y-31507205D01*
X37907401Y-31507208D01*
X37965892Y-31687226D01*
X37965895Y-31687233D01*
X38060541Y-31851165D01*
X38152104Y-31952856D01*
X38187203Y-31991837D01*
X38340339Y-32103097D01*
X38340344Y-32103100D01*
X38513266Y-32180091D01*
X38513271Y-32180093D01*
X38698428Y-32219449D01*
X38698429Y-32219449D01*
X38887718Y-32219449D01*
X38887720Y-32219449D01*
X39072877Y-32180093D01*
X39245804Y-32103100D01*
X39398945Y-31991837D01*
X39460746Y-31923199D01*
X39520233Y-31886551D01*
X39590090Y-31887882D01*
X39648138Y-31926768D01*
X39675948Y-31990865D01*
X39676211Y-31993165D01*
X39690420Y-32128350D01*
X39690421Y-32128353D01*
X39748912Y-32308371D01*
X39748915Y-32308378D01*
X39843561Y-32472310D01*
X39947739Y-32588011D01*
X39970223Y-32612982D01*
X40123359Y-32724242D01*
X40123364Y-32724245D01*
X40296286Y-32801236D01*
X40296291Y-32801238D01*
X40481448Y-32840594D01*
X40481449Y-32840594D01*
X40670738Y-32840594D01*
X40670740Y-32840594D01*
X40855897Y-32801238D01*
X41028824Y-32724245D01*
X41181965Y-32612982D01*
X41308627Y-32472310D01*
X41403273Y-32308378D01*
X41461768Y-32128350D01*
X41481554Y-31940094D01*
X41461768Y-31751838D01*
X41457661Y-31739199D01*
X41451594Y-31700886D01*
X41451594Y-31579343D01*
X41471279Y-31512304D01*
X41524083Y-31466549D01*
X41593241Y-31456605D01*
X41626031Y-31466064D01*
X41629791Y-31467738D01*
X41814948Y-31507094D01*
X41814949Y-31507094D01*
X42004238Y-31507094D01*
X42004240Y-31507094D01*
X42189397Y-31467738D01*
X42362324Y-31390745D01*
X42515465Y-31279482D01*
X42642127Y-31138810D01*
X42736773Y-30974878D01*
X42777578Y-30849292D01*
X42817015Y-30791618D01*
X42869727Y-30766321D01*
X42896506Y-30760630D01*
X42896510Y-30760628D01*
X42896511Y-30760628D01*
X42954761Y-30734692D01*
X43069433Y-30683637D01*
X43222574Y-30572374D01*
X43349236Y-30431702D01*
X43443882Y-30267770D01*
X43470363Y-30186269D01*
X43509797Y-30128599D01*
X43562505Y-30103302D01*
X43713803Y-30071144D01*
X43713807Y-30071142D01*
X43713808Y-30071142D01*
X43831635Y-30018681D01*
X43886730Y-29994151D01*
X44039871Y-29882888D01*
X44166533Y-29742216D01*
X44261179Y-29578284D01*
X44319674Y-29398256D01*
X44339460Y-29210000D01*
X44319674Y-29021744D01*
X44261179Y-28841716D01*
X44166533Y-28677784D01*
X44039871Y-28537112D01*
X44039870Y-28537111D01*
X43886734Y-28425851D01*
X43886729Y-28425848D01*
X43713807Y-28348857D01*
X43713802Y-28348855D01*
X43568001Y-28317865D01*
X43528646Y-28309500D01*
X43339354Y-28309500D01*
X43306897Y-28316398D01*
X43154197Y-28348855D01*
X43154192Y-28348857D01*
X42981270Y-28425848D01*
X42981265Y-28425851D01*
X42828129Y-28537111D01*
X42701466Y-28677785D01*
X42606821Y-28841715D01*
X42606818Y-28841722D01*
X42580341Y-28923212D01*
X42540904Y-28980888D01*
X42488191Y-29006184D01*
X42336900Y-29038341D01*
X42336895Y-29038343D01*
X42163973Y-29115334D01*
X42163968Y-29115337D01*
X42010832Y-29226597D01*
X41884169Y-29367271D01*
X41789524Y-29531201D01*
X41789522Y-29531205D01*
X41748718Y-29656786D01*
X41709280Y-29714461D01*
X41656572Y-29739756D01*
X41629795Y-29745448D01*
X41629786Y-29745451D01*
X41456864Y-29822442D01*
X41456860Y-29822445D01*
X41395185Y-29867254D01*
X41329379Y-29890733D01*
X41261325Y-29874907D01*
X41234620Y-29854616D01*
X41204752Y-29824748D01*
X41202410Y-29822343D01*
X41202033Y-29821945D01*
X41146223Y-29763027D01*
X41146064Y-29762919D01*
X41127971Y-29747967D01*
X39932673Y-28552669D01*
X39899188Y-28491346D01*
X39904172Y-28421654D01*
X39912962Y-28402998D01*
X40001056Y-28250415D01*
X40042074Y-28124172D01*
X40081511Y-28066499D01*
X40134222Y-28041202D01*
X40160285Y-28035663D01*
X40160289Y-28035661D01*
X40160290Y-28035661D01*
X40296103Y-27975192D01*
X40333212Y-27958670D01*
X40486353Y-27847407D01*
X40613015Y-27706735D01*
X40644164Y-27652784D01*
X40692537Y-27569000D01*
X40743104Y-27520784D01*
X40791813Y-27508967D01*
X40791678Y-27507680D01*
X40798144Y-27507000D01*
X40798146Y-27507000D01*
X40983303Y-27467644D01*
X41156230Y-27390651D01*
X41309371Y-27279388D01*
X41436033Y-27138716D01*
X41530679Y-26974784D01*
X41589174Y-26794756D01*
X41608960Y-26606500D01*
X41589174Y-26418244D01*
X41530679Y-26238216D01*
X41436033Y-26074284D01*
X41309371Y-25933612D01*
X41309370Y-25933611D01*
X41156234Y-25822351D01*
X41156229Y-25822348D01*
X40983307Y-25745357D01*
X40983302Y-25745355D01*
X40837501Y-25714365D01*
X40798146Y-25706000D01*
X40608854Y-25706000D01*
X40576397Y-25712898D01*
X40423697Y-25745355D01*
X40423692Y-25745357D01*
X40250770Y-25822348D01*
X40250765Y-25822351D01*
X40097629Y-25933611D01*
X39970965Y-26074285D01*
X39891445Y-26212019D01*
X39840878Y-26260235D01*
X39792168Y-26272051D01*
X39792304Y-26273339D01*
X39785837Y-26274018D01*
X39600679Y-26313374D01*
X39600674Y-26313376D01*
X39427752Y-26390367D01*
X39427747Y-26390370D01*
X39274611Y-26501630D01*
X39147948Y-26642304D01*
X39053303Y-26806234D01*
X39053301Y-26806238D01*
X39012284Y-26932476D01*
X38972846Y-26990151D01*
X38920136Y-27015447D01*
X38894071Y-27020987D01*
X38894069Y-27020988D01*
X38721147Y-27097979D01*
X38721142Y-27097982D01*
X38568006Y-27209242D01*
X38441343Y-27349916D01*
X38346698Y-27513846D01*
X38346695Y-27513853D01*
X38301554Y-27652784D01*
X38288203Y-27693875D01*
X38275292Y-27816722D01*
X38269630Y-27870593D01*
X38243045Y-27935207D01*
X38185748Y-27975192D01*
X38146309Y-27981631D01*
X35809637Y-27981631D01*
X35742598Y-27961946D01*
X35721956Y-27945312D01*
X35705418Y-27928774D01*
X35685711Y-27903091D01*
X35657534Y-27854285D01*
X35530870Y-27713611D01*
X35377734Y-27602351D01*
X35377729Y-27602348D01*
X35204807Y-27525357D01*
X35204802Y-27525355D01*
X35059001Y-27494365D01*
X35019646Y-27486000D01*
X34830354Y-27486000D01*
X34797897Y-27492898D01*
X34645197Y-27525355D01*
X34645192Y-27525357D01*
X34472270Y-27602348D01*
X34472265Y-27602351D01*
X34319129Y-27713611D01*
X34192466Y-27854285D01*
X34097821Y-28018215D01*
X34097818Y-28018222D01*
X34043629Y-28185000D01*
X34039326Y-28198244D01*
X34019540Y-28386500D01*
X25548157Y-28386500D01*
X25465408Y-28349657D01*
X25465403Y-28349655D01*
X25319602Y-28318665D01*
X25280247Y-28310300D01*
X25090955Y-28310300D01*
X25058498Y-28317198D01*
X24905798Y-28349655D01*
X24905793Y-28349657D01*
X24732871Y-28426648D01*
X24732866Y-28426651D01*
X24579730Y-28537911D01*
X24453067Y-28678585D01*
X24358422Y-28842515D01*
X24358419Y-28842522D01*
X24300188Y-29021740D01*
X24299927Y-29022544D01*
X24280141Y-29210800D01*
X12938500Y-29210800D01*
X12938500Y-23651541D01*
X18241999Y-23651541D01*
X18261785Y-23839797D01*
X18261786Y-23839800D01*
X18320277Y-24019818D01*
X18320280Y-24019825D01*
X18414926Y-24183757D01*
X18475232Y-24250733D01*
X18541588Y-24324429D01*
X18694724Y-24435689D01*
X18694729Y-24435692D01*
X18867651Y-24512683D01*
X18867656Y-24512685D01*
X19052813Y-24552041D01*
X19052814Y-24552041D01*
X19242103Y-24552041D01*
X19242105Y-24552041D01*
X19427262Y-24512685D01*
X19600189Y-24435692D01*
X19753330Y-24324429D01*
X19879992Y-24183757D01*
X19974638Y-24019825D01*
X20033133Y-23839797D01*
X20050300Y-23676464D01*
X22571386Y-23676464D01*
X22591172Y-23864720D01*
X22591173Y-23864723D01*
X22649664Y-24044741D01*
X22649667Y-24044748D01*
X22744313Y-24208680D01*
X22782178Y-24250733D01*
X22870975Y-24349352D01*
X23024111Y-24460612D01*
X23024116Y-24460615D01*
X23197038Y-24537606D01*
X23197043Y-24537608D01*
X23382200Y-24576964D01*
X23382201Y-24576964D01*
X23571490Y-24576964D01*
X23571492Y-24576964D01*
X23756649Y-24537608D01*
X23929576Y-24460615D01*
X24082717Y-24349352D01*
X24209379Y-24208680D01*
X24304025Y-24044748D01*
X24362104Y-23866000D01*
X40655659Y-23866000D01*
X40674975Y-24062129D01*
X40732188Y-24250733D01*
X40825086Y-24424532D01*
X40825090Y-24424539D01*
X40950116Y-24576883D01*
X41102460Y-24701909D01*
X41102467Y-24701913D01*
X41276266Y-24794811D01*
X41276269Y-24794811D01*
X41276273Y-24794814D01*
X41464868Y-24852024D01*
X41661000Y-24871341D01*
X41857132Y-24852024D01*
X41963392Y-24819789D01*
X42033259Y-24819166D01*
X42092372Y-24856413D01*
X42116897Y-24898856D01*
X42131731Y-24942882D01*
X42131734Y-24942888D01*
X42131832Y-24943051D01*
X42141969Y-24964205D01*
X42142036Y-24964389D01*
X42142040Y-24964396D01*
X42186046Y-25033245D01*
X42187815Y-25036096D01*
X42229912Y-25106061D01*
X42230042Y-25106198D01*
X42244492Y-25124681D01*
X42244600Y-25124850D01*
X42302395Y-25182645D01*
X42304702Y-25185016D01*
X42360866Y-25244309D01*
X42360868Y-25244310D01*
X42360871Y-25244313D01*
X42361028Y-25244420D01*
X42379121Y-25259371D01*
X49478234Y-32358484D01*
X49485061Y-32365890D01*
X49520396Y-32407491D01*
X49520403Y-32407496D01*
X49520404Y-32407498D01*
X49585463Y-32456954D01*
X49588047Y-32458973D01*
X49612377Y-32478531D01*
X49651737Y-32510171D01*
X49651907Y-32510255D01*
X49671849Y-32522624D01*
X49672006Y-32522743D01*
X49746178Y-32557058D01*
X49749155Y-32558485D01*
X49822342Y-32594782D01*
X49822516Y-32594825D01*
X49844661Y-32602621D01*
X49844838Y-32602703D01*
X49924614Y-32620262D01*
X49927862Y-32621023D01*
X50007146Y-32640741D01*
X50007319Y-32640745D01*
X50030637Y-32643601D01*
X50030819Y-32643641D01*
X50112498Y-32643641D01*
X50115856Y-32643686D01*
X50197508Y-32645898D01*
X50197690Y-32645862D01*
X50221058Y-32643641D01*
X52671994Y-32643641D01*
X52739033Y-32663326D01*
X52759675Y-32679960D01*
X66147840Y-46068125D01*
X66181325Y-46129448D01*
X66176341Y-46199140D01*
X66152309Y-46238778D01*
X66069466Y-46330784D01*
X65974821Y-46494715D01*
X65974818Y-46494722D01*
X65917903Y-46669890D01*
X65916326Y-46674744D01*
X65903698Y-46794895D01*
X65896540Y-46863000D01*
X65908803Y-46979678D01*
X65896233Y-47048408D01*
X65848501Y-47099431D01*
X65780761Y-47116549D01*
X65769187Y-47115109D01*
X65769173Y-47115249D01*
X65762716Y-47114570D01*
X65573424Y-47114570D01*
X65540967Y-47121468D01*
X65388267Y-47153925D01*
X65388262Y-47153927D01*
X65215340Y-47230918D01*
X65215335Y-47230921D01*
X65062199Y-47342181D01*
X64935536Y-47482855D01*
X64840891Y-47646785D01*
X64840888Y-47646792D01*
X64789320Y-47805504D01*
X64782396Y-47826814D01*
X64762610Y-48015070D01*
X64782396Y-48203326D01*
X64782397Y-48203329D01*
X64840888Y-48383347D01*
X64840891Y-48383354D01*
X64935537Y-48547286D01*
X65031367Y-48653716D01*
X65062199Y-48687958D01*
X65215335Y-48799218D01*
X65215340Y-48799221D01*
X65388262Y-48876212D01*
X65388267Y-48876214D01*
X65573424Y-48915570D01*
X65573425Y-48915570D01*
X65762714Y-48915570D01*
X65762716Y-48915570D01*
X65947873Y-48876214D01*
X66120800Y-48799221D01*
X66273941Y-48687958D01*
X66363316Y-48588696D01*
X66422803Y-48552048D01*
X66492660Y-48553379D01*
X66550708Y-48592265D01*
X66578518Y-48656362D01*
X66573397Y-48709987D01*
X66533721Y-48832098D01*
X66533186Y-48833744D01*
X66513400Y-49022000D01*
X66533186Y-49210256D01*
X66533187Y-49210259D01*
X66591678Y-49390277D01*
X66591681Y-49390284D01*
X66686327Y-49554216D01*
X66802602Y-49683352D01*
X66812989Y-49694888D01*
X66966125Y-49806148D01*
X66966130Y-49806151D01*
X67139052Y-49883142D01*
X67139057Y-49883144D01*
X67324214Y-49922500D01*
X67324215Y-49922500D01*
X67513504Y-49922500D01*
X67513506Y-49922500D01*
X67698663Y-49883144D01*
X67871590Y-49806151D01*
X68024731Y-49694888D01*
X68151393Y-49554216D01*
X68246039Y-49390284D01*
X68304424Y-49210592D01*
X68343860Y-49152920D01*
X68396568Y-49127625D01*
X68469733Y-49112074D01*
X68469737Y-49112072D01*
X68469738Y-49112072D01*
X68534245Y-49083351D01*
X68642660Y-49035081D01*
X68795801Y-48923818D01*
X68806788Y-48911615D01*
X68866273Y-48874966D01*
X68936130Y-48876295D01*
X68986620Y-48906905D01*
X69235181Y-49155466D01*
X69268666Y-49216789D01*
X69271500Y-49243147D01*
X69271500Y-50030378D01*
X69271091Y-50040442D01*
X69266660Y-50094845D01*
X69277688Y-50175790D01*
X69278096Y-50179120D01*
X69286927Y-50260316D01*
X69286929Y-50260327D01*
X69286990Y-50260506D01*
X69292340Y-50283331D01*
X69292366Y-50283525D01*
X69292369Y-50283537D01*
X69320540Y-50360219D01*
X69321655Y-50363385D01*
X69347731Y-50440776D01*
X69347734Y-50440782D01*
X69347832Y-50440945D01*
X69357969Y-50462099D01*
X69358036Y-50462283D01*
X69358040Y-50462290D01*
X69402046Y-50531139D01*
X69403815Y-50533990D01*
X69445912Y-50603955D01*
X69446042Y-50604092D01*
X69460492Y-50622575D01*
X69460600Y-50622744D01*
X69518395Y-50680539D01*
X69520702Y-50682910D01*
X69576866Y-50742203D01*
X69576868Y-50742204D01*
X69576871Y-50742207D01*
X69577028Y-50742314D01*
X69595121Y-50757265D01*
X73565392Y-54727536D01*
X73596370Y-54779218D01*
X73607478Y-54815834D01*
X73620188Y-54857733D01*
X73713086Y-55031532D01*
X73716473Y-55036601D01*
X73714836Y-55037694D01*
X73738596Y-55093663D01*
X73726795Y-55162529D01*
X73716109Y-55179156D01*
X73716473Y-55179399D01*
X73713086Y-55184467D01*
X73620188Y-55358266D01*
X73562975Y-55546870D01*
X73543659Y-55743000D01*
X73562975Y-55939129D01*
X73620188Y-56127733D01*
X73713086Y-56301532D01*
X73716473Y-56306601D01*
X73714955Y-56307615D01*
X73738918Y-56364042D01*
X73727124Y-56432909D01*
X73716515Y-56449420D01*
X73716893Y-56449673D01*
X73713505Y-56454742D01*
X73620652Y-56628458D01*
X73579839Y-56762999D01*
X73579840Y-56763000D01*
X74303419Y-56763000D01*
X74251940Y-56818921D01*
X74205018Y-56925892D01*
X74195372Y-57042302D01*
X74224047Y-57155538D01*
X74287936Y-57253327D01*
X74300364Y-57263000D01*
X73579840Y-57263000D01*
X73620652Y-57397541D01*
X73713503Y-57571253D01*
X73716890Y-57576322D01*
X73715215Y-57577440D01*
X73738918Y-57633259D01*
X73727123Y-57702125D01*
X73716158Y-57719188D01*
X73716473Y-57719399D01*
X73713086Y-57724467D01*
X73620188Y-57898266D01*
X73562975Y-58086870D01*
X73543659Y-58283000D01*
X73562975Y-58479129D01*
X73620188Y-58667733D01*
X73713086Y-58841532D01*
X73716473Y-58846601D01*
X73714836Y-58847694D01*
X73738596Y-58903663D01*
X73726795Y-58972529D01*
X73716109Y-58989156D01*
X73716473Y-58989399D01*
X73713086Y-58994467D01*
X73620188Y-59168266D01*
X73562975Y-59356870D01*
X73543659Y-59553000D01*
X73562975Y-59749129D01*
X73562976Y-59749132D01*
X73599553Y-59869711D01*
X73620188Y-59937733D01*
X73713086Y-60111532D01*
X73713090Y-60111539D01*
X73838116Y-60263883D01*
X73990460Y-60388909D01*
X73990467Y-60388913D01*
X74164266Y-60481811D01*
X74164269Y-60481811D01*
X74164273Y-60481814D01*
X74352868Y-60539024D01*
X74549000Y-60558341D01*
X74745132Y-60539024D01*
X74933727Y-60481814D01*
X75107538Y-60388910D01*
X75107544Y-60388904D01*
X75112607Y-60385523D01*
X75113703Y-60387164D01*
X75169639Y-60363405D01*
X75238507Y-60375194D01*
X75255148Y-60385888D01*
X75255393Y-60385523D01*
X75260458Y-60388907D01*
X75260462Y-60388910D01*
X75434273Y-60481814D01*
X75622868Y-60539024D01*
X75819000Y-60558341D01*
X76015132Y-60539024D01*
X76203727Y-60481814D01*
X76377538Y-60388910D01*
X76529883Y-60263883D01*
X76654910Y-60111538D01*
X76747814Y-59937727D01*
X76805024Y-59749132D01*
X76824341Y-59553000D01*
X76805024Y-59356868D01*
X76747814Y-59168273D01*
X76654910Y-58994462D01*
X76654907Y-58994458D01*
X76651523Y-58989393D01*
X76653164Y-58988296D01*
X76629405Y-58932361D01*
X76641194Y-58863493D01*
X76651888Y-58846851D01*
X76651523Y-58846607D01*
X76654904Y-58841544D01*
X76654910Y-58841538D01*
X76747814Y-58667727D01*
X76805024Y-58479132D01*
X76824341Y-58283000D01*
X76805024Y-58086868D01*
X76747814Y-57898273D01*
X76654910Y-57724462D01*
X76654906Y-57724457D01*
X76651526Y-57719399D01*
X76653044Y-57718384D01*
X76629081Y-57661962D01*
X76640872Y-57593094D01*
X76651492Y-57576574D01*
X76651111Y-57576320D01*
X76654497Y-57571252D01*
X76747347Y-57397541D01*
X76788160Y-57263000D01*
X76064581Y-57263000D01*
X76116060Y-57207079D01*
X76162982Y-57100108D01*
X76172628Y-56983698D01*
X76143953Y-56870462D01*
X76080064Y-56772673D01*
X76067636Y-56763000D01*
X76788160Y-56763000D01*
X76788160Y-56762999D01*
X76747347Y-56628458D01*
X76654496Y-56454746D01*
X76651110Y-56449678D01*
X76652784Y-56448559D01*
X76629081Y-56392746D01*
X76640874Y-56323879D01*
X76651839Y-56306818D01*
X76651523Y-56306607D01*
X76654904Y-56301544D01*
X76654910Y-56301538D01*
X76747814Y-56127727D01*
X76805024Y-55939132D01*
X76824341Y-55743000D01*
X76805024Y-55546868D01*
X76747814Y-55358273D01*
X76746677Y-55356146D01*
X76746418Y-55354904D01*
X76745483Y-55352645D01*
X76745911Y-55352467D01*
X76732435Y-55287746D01*
X76756771Y-55223379D01*
X76762796Y-55215331D01*
X76813091Y-55080483D01*
X76819500Y-55020873D01*
X76819499Y-53925128D01*
X76813091Y-53865517D01*
X76807609Y-53850820D01*
X76762797Y-53730671D01*
X76762793Y-53730664D01*
X76676547Y-53615455D01*
X76676544Y-53615452D01*
X76561335Y-53529206D01*
X76561328Y-53529202D01*
X76426482Y-53478908D01*
X76426483Y-53478908D01*
X76366883Y-53472501D01*
X76366881Y-53472500D01*
X76366873Y-53472500D01*
X76366864Y-53472500D01*
X75271129Y-53472500D01*
X75271123Y-53472501D01*
X75211516Y-53478908D01*
X75076671Y-53529202D01*
X75076666Y-53529205D01*
X75068614Y-53535233D01*
X75003149Y-53559648D01*
X74939530Y-53546104D01*
X74939359Y-53546518D01*
X74937123Y-53545592D01*
X74935850Y-53545321D01*
X74933729Y-53544187D01*
X74933728Y-53544186D01*
X74933727Y-53544186D01*
X74855218Y-53520370D01*
X74803536Y-53489392D01*
X71058819Y-49744675D01*
X71025334Y-49683352D01*
X71022500Y-49656994D01*
X71022500Y-48869770D01*
X71022909Y-48859705D01*
X71025023Y-48833744D01*
X71027340Y-48805293D01*
X71016302Y-48724286D01*
X71015899Y-48720990D01*
X71015882Y-48720835D01*
X71007073Y-48639825D01*
X71007014Y-48639650D01*
X71001656Y-48616790D01*
X71001631Y-48616604D01*
X70973462Y-48539931D01*
X70972346Y-48536761D01*
X70946269Y-48459364D01*
X70946266Y-48459359D01*
X70946172Y-48459202D01*
X70936025Y-48438028D01*
X70935960Y-48437851D01*
X70891959Y-48369012D01*
X70890188Y-48366157D01*
X70887903Y-48362360D01*
X70848089Y-48296187D01*
X70847955Y-48296045D01*
X70833504Y-48277560D01*
X70833400Y-48277397D01*
X70775658Y-48219655D01*
X70773316Y-48217250D01*
X70760126Y-48203326D01*
X70717129Y-48157934D01*
X70716970Y-48157826D01*
X70698877Y-48142874D01*
X62098312Y-39542309D01*
X62064827Y-39480986D01*
X62069811Y-39411294D01*
X62110113Y-39357458D01*
X62110041Y-39357378D01*
X62110446Y-39357013D01*
X62111683Y-39355361D01*
X62113111Y-39354308D01*
X62113813Y-39353797D01*
X62114871Y-39353029D01*
X62241533Y-39212357D01*
X62336179Y-39048425D01*
X62394674Y-38868397D01*
X62414460Y-38680141D01*
X62394674Y-38491885D01*
X62336179Y-38311857D01*
X62241533Y-38147925D01*
X62114871Y-38007253D01*
X62041653Y-37954057D01*
X61961734Y-37895992D01*
X61961729Y-37895989D01*
X61788807Y-37818998D01*
X61788802Y-37818996D01*
X61643001Y-37788006D01*
X61603646Y-37779641D01*
X61414354Y-37779641D01*
X61381897Y-37786539D01*
X61229197Y-37818996D01*
X61229192Y-37818998D01*
X61056270Y-37895989D01*
X61056265Y-37895992D01*
X60903129Y-38007252D01*
X60903128Y-38007253D01*
X60829531Y-38088990D01*
X60770044Y-38125638D01*
X60700187Y-38124307D01*
X60649701Y-38093698D01*
X57576003Y-35020000D01*
X62086540Y-35020000D01*
X62106326Y-35208256D01*
X62106327Y-35208259D01*
X62164818Y-35388277D01*
X62164821Y-35388284D01*
X62259467Y-35552216D01*
X62373817Y-35679214D01*
X62386129Y-35692888D01*
X62539265Y-35804148D01*
X62539270Y-35804151D01*
X62712192Y-35881142D01*
X62712197Y-35881144D01*
X62897354Y-35920500D01*
X62897355Y-35920500D01*
X63086644Y-35920500D01*
X63086646Y-35920500D01*
X63271803Y-35881144D01*
X63444730Y-35804151D01*
X63597871Y-35692888D01*
X63724533Y-35552216D01*
X63819179Y-35388284D01*
X63877674Y-35208256D01*
X63884112Y-35147000D01*
X69960540Y-35147000D01*
X69980326Y-35335256D01*
X69980327Y-35335259D01*
X70038818Y-35515277D01*
X70038821Y-35515284D01*
X70133467Y-35679216D01*
X70199672Y-35752744D01*
X70260129Y-35819888D01*
X70413265Y-35931148D01*
X70413270Y-35931151D01*
X70586192Y-36008142D01*
X70586197Y-36008144D01*
X70771354Y-36047500D01*
X70771355Y-36047500D01*
X70960644Y-36047500D01*
X70960646Y-36047500D01*
X71145803Y-36008144D01*
X71318730Y-35931151D01*
X71471871Y-35819888D01*
X71598533Y-35679216D01*
X71693179Y-35515284D01*
X71751674Y-35335256D01*
X71771460Y-35147000D01*
X71751674Y-34958744D01*
X71693179Y-34778716D01*
X71598533Y-34614784D01*
X71471871Y-34474112D01*
X71448583Y-34457192D01*
X71318734Y-34362851D01*
X71318729Y-34362848D01*
X71145807Y-34285857D01*
X71145802Y-34285855D01*
X71000001Y-34254865D01*
X70960646Y-34246500D01*
X70771354Y-34246500D01*
X70738897Y-34253398D01*
X70586197Y-34285855D01*
X70586192Y-34285857D01*
X70413270Y-34362848D01*
X70413265Y-34362851D01*
X70260129Y-34474111D01*
X70133466Y-34614785D01*
X70038821Y-34778715D01*
X70038818Y-34778722D01*
X69980327Y-34958740D01*
X69980326Y-34958744D01*
X69960540Y-35147000D01*
X63884112Y-35147000D01*
X63897460Y-35020000D01*
X63877674Y-34831744D01*
X63819179Y-34651716D01*
X63724533Y-34487784D01*
X63597871Y-34347112D01*
X63595168Y-34345148D01*
X63444734Y-34235851D01*
X63444729Y-34235848D01*
X63271807Y-34158857D01*
X63271802Y-34158855D01*
X63126001Y-34127865D01*
X63086646Y-34119500D01*
X62897354Y-34119500D01*
X62864897Y-34126398D01*
X62712197Y-34158855D01*
X62712192Y-34158857D01*
X62539270Y-34235848D01*
X62539265Y-34235851D01*
X62386129Y-34347111D01*
X62259466Y-34487785D01*
X62164821Y-34651715D01*
X62164818Y-34651722D01*
X62107913Y-34826859D01*
X62106326Y-34831744D01*
X62086540Y-35020000D01*
X57576003Y-35020000D01*
X55370003Y-32814000D01*
X56498540Y-32814000D01*
X56518326Y-33002256D01*
X56518327Y-33002259D01*
X56576818Y-33182277D01*
X56576821Y-33182284D01*
X56671467Y-33346216D01*
X56796232Y-33484781D01*
X56798129Y-33486888D01*
X56951265Y-33598148D01*
X56951270Y-33598151D01*
X57124192Y-33675142D01*
X57124197Y-33675144D01*
X57309354Y-33714500D01*
X57309355Y-33714500D01*
X57498644Y-33714500D01*
X57498646Y-33714500D01*
X57683803Y-33675144D01*
X57688526Y-33673041D01*
X59537499Y-33673041D01*
X59557285Y-33861297D01*
X59557286Y-33861300D01*
X59615777Y-34041318D01*
X59615780Y-34041325D01*
X59710426Y-34205257D01*
X59803524Y-34308652D01*
X59837088Y-34345929D01*
X59990224Y-34457189D01*
X59990229Y-34457192D01*
X60163151Y-34534183D01*
X60163156Y-34534185D01*
X60348313Y-34573541D01*
X60348314Y-34573541D01*
X60537603Y-34573541D01*
X60537605Y-34573541D01*
X60722762Y-34534185D01*
X60895689Y-34457192D01*
X61048830Y-34345929D01*
X61175492Y-34205257D01*
X61270138Y-34041325D01*
X61328633Y-33861297D01*
X61348419Y-33673041D01*
X61328633Y-33484785D01*
X61270138Y-33304757D01*
X61175492Y-33140825D01*
X61048830Y-33000153D01*
X61048829Y-33000152D01*
X60895693Y-32888892D01*
X60895688Y-32888889D01*
X60722766Y-32811898D01*
X60722761Y-32811896D01*
X60557882Y-32776851D01*
X60537605Y-32772541D01*
X60348313Y-32772541D01*
X60328036Y-32776851D01*
X60163156Y-32811896D01*
X60163151Y-32811898D01*
X59990229Y-32888889D01*
X59990224Y-32888892D01*
X59837088Y-33000152D01*
X59710425Y-33140826D01*
X59615780Y-33304756D01*
X59615777Y-33304763D01*
X59590649Y-33382101D01*
X59557285Y-33484785D01*
X59537499Y-33673041D01*
X57688526Y-33673041D01*
X57856730Y-33598151D01*
X58009871Y-33486888D01*
X58136533Y-33346216D01*
X58231179Y-33182284D01*
X58289674Y-33002256D01*
X58309460Y-32814000D01*
X58289674Y-32625744D01*
X58231179Y-32445716D01*
X58136533Y-32281784D01*
X58009871Y-32141112D01*
X57962624Y-32106785D01*
X57856734Y-32029851D01*
X57856729Y-32029848D01*
X57683807Y-31952857D01*
X57683802Y-31952855D01*
X57538001Y-31921865D01*
X57498646Y-31913500D01*
X57309354Y-31913500D01*
X57276897Y-31920398D01*
X57124197Y-31952855D01*
X57124192Y-31952857D01*
X56951270Y-32029848D01*
X56951265Y-32029851D01*
X56798129Y-32141111D01*
X56671466Y-32281785D01*
X56576821Y-32445715D01*
X56576818Y-32445722D01*
X56520108Y-32620260D01*
X56518326Y-32625744D01*
X56498540Y-32814000D01*
X55370003Y-32814000D01*
X53997819Y-31441816D01*
X53964334Y-31380493D01*
X53961500Y-31354135D01*
X53961500Y-30386959D01*
X55897499Y-30386959D01*
X55917285Y-30575215D01*
X55917286Y-30575217D01*
X55975777Y-30755236D01*
X55975780Y-30755243D01*
X56070426Y-30919175D01*
X56143071Y-30999855D01*
X56197088Y-31059847D01*
X56350224Y-31171107D01*
X56350229Y-31171110D01*
X56523151Y-31248101D01*
X56523156Y-31248103D01*
X56708313Y-31287459D01*
X56708314Y-31287459D01*
X56897603Y-31287459D01*
X56897605Y-31287459D01*
X57082762Y-31248103D01*
X57255689Y-31171110D01*
X57408830Y-31059847D01*
X57473522Y-30988000D01*
X59419540Y-30988000D01*
X59439326Y-31176256D01*
X59439327Y-31176259D01*
X59497818Y-31356277D01*
X59497821Y-31356284D01*
X59592467Y-31520216D01*
X59719129Y-31660888D01*
X59872265Y-31772148D01*
X59872270Y-31772151D01*
X60045192Y-31849142D01*
X60045197Y-31849144D01*
X60230354Y-31888500D01*
X60230355Y-31888500D01*
X60419644Y-31888500D01*
X60419646Y-31888500D01*
X60549024Y-31861000D01*
X71738540Y-31861000D01*
X71758326Y-32049256D01*
X71758327Y-32049259D01*
X71816818Y-32229277D01*
X71816821Y-32229284D01*
X71911467Y-32393216D01*
X72016774Y-32510171D01*
X72038129Y-32533888D01*
X72191265Y-32645148D01*
X72191270Y-32645151D01*
X72364192Y-32722142D01*
X72364197Y-32722144D01*
X72549354Y-32761500D01*
X72549355Y-32761500D01*
X72635622Y-32761500D01*
X72702661Y-32781185D01*
X72748416Y-32833989D01*
X72758360Y-32903147D01*
X72729335Y-32966703D01*
X72727772Y-32968472D01*
X72673466Y-33028785D01*
X72578821Y-33192715D01*
X72578818Y-33192722D01*
X72520327Y-33372740D01*
X72520326Y-33372744D01*
X72500540Y-33561000D01*
X72520326Y-33749256D01*
X72520327Y-33749259D01*
X72578818Y-33929277D01*
X72578821Y-33929284D01*
X72673467Y-34093216D01*
X72776086Y-34207186D01*
X72800129Y-34233888D01*
X72953265Y-34345148D01*
X72953270Y-34345151D01*
X73126192Y-34422142D01*
X73126197Y-34422144D01*
X73311354Y-34461500D01*
X73311355Y-34461500D01*
X73500644Y-34461500D01*
X73500646Y-34461500D01*
X73685803Y-34422144D01*
X73858730Y-34345151D01*
X74011871Y-34233888D01*
X74138533Y-34093216D01*
X74233179Y-33929284D01*
X74291674Y-33749256D01*
X74311460Y-33561000D01*
X74291674Y-33372744D01*
X74233179Y-33192716D01*
X74138533Y-33028784D01*
X74011871Y-32888112D01*
X73998238Y-32878207D01*
X73858734Y-32776851D01*
X73858729Y-32776848D01*
X73685807Y-32699857D01*
X73685802Y-32699855D01*
X73540001Y-32668865D01*
X73500646Y-32660500D01*
X73414378Y-32660500D01*
X73347339Y-32640815D01*
X73301584Y-32588011D01*
X73291640Y-32518853D01*
X73320665Y-32455297D01*
X73322228Y-32453528D01*
X73335152Y-32439174D01*
X73376533Y-32393216D01*
X73471179Y-32229284D01*
X73529674Y-32049256D01*
X73549460Y-31861000D01*
X73529674Y-31672744D01*
X73471179Y-31492716D01*
X73376533Y-31328784D01*
X73249871Y-31188112D01*
X73226466Y-31171107D01*
X73096734Y-31076851D01*
X73096729Y-31076848D01*
X72923807Y-30999857D01*
X72923802Y-30999855D01*
X72778001Y-30968865D01*
X72738646Y-30960500D01*
X72549354Y-30960500D01*
X72516897Y-30967398D01*
X72364197Y-30999855D01*
X72364192Y-30999857D01*
X72191270Y-31076848D01*
X72191265Y-31076851D01*
X72038129Y-31188111D01*
X71911466Y-31328785D01*
X71816821Y-31492715D01*
X71816818Y-31492722D01*
X71762178Y-31660888D01*
X71758326Y-31672744D01*
X71738540Y-31861000D01*
X60549024Y-31861000D01*
X60604803Y-31849144D01*
X60777730Y-31772151D01*
X60930871Y-31660888D01*
X61057533Y-31520216D01*
X61152179Y-31356284D01*
X61210674Y-31176256D01*
X61230460Y-30988000D01*
X61210674Y-30799744D01*
X61152179Y-30619716D01*
X61057533Y-30455784D01*
X60930871Y-30315112D01*
X60930870Y-30315111D01*
X60777734Y-30203851D01*
X60777729Y-30203848D01*
X60604807Y-30126857D01*
X60604802Y-30126855D01*
X60459001Y-30095865D01*
X60419646Y-30087500D01*
X60230354Y-30087500D01*
X60197897Y-30094398D01*
X60045197Y-30126855D01*
X60045192Y-30126857D01*
X59872270Y-30203848D01*
X59872265Y-30203851D01*
X59719129Y-30315111D01*
X59592466Y-30455785D01*
X59497821Y-30619715D01*
X59497818Y-30619722D01*
X59439327Y-30799740D01*
X59439326Y-30799744D01*
X59419540Y-30988000D01*
X57473522Y-30988000D01*
X57535492Y-30919175D01*
X57630138Y-30755243D01*
X57688633Y-30575215D01*
X57708419Y-30386959D01*
X57688633Y-30198703D01*
X57630138Y-30018675D01*
X57535492Y-29854743D01*
X57408830Y-29714071D01*
X57403249Y-29710016D01*
X57255693Y-29602810D01*
X57255688Y-29602807D01*
X57082766Y-29525816D01*
X57082761Y-29525814D01*
X56936960Y-29494824D01*
X56897605Y-29486459D01*
X56708313Y-29486459D01*
X56675856Y-29493357D01*
X56523156Y-29525814D01*
X56523151Y-29525816D01*
X56350229Y-29602807D01*
X56350224Y-29602810D01*
X56197088Y-29714070D01*
X56070425Y-29854744D01*
X55975780Y-30018674D01*
X55975777Y-30018681D01*
X55940629Y-30126857D01*
X55917285Y-30198703D01*
X55897499Y-30386959D01*
X53961500Y-30386959D01*
X53961500Y-28185000D01*
X60943540Y-28185000D01*
X60963326Y-28373256D01*
X60963327Y-28373259D01*
X61021818Y-28553277D01*
X61021821Y-28553284D01*
X61116467Y-28717216D01*
X61228567Y-28841715D01*
X61243129Y-28857888D01*
X61396265Y-28969148D01*
X61396270Y-28969151D01*
X61569192Y-29046142D01*
X61569197Y-29046144D01*
X61754354Y-29085500D01*
X61754355Y-29085500D01*
X61943644Y-29085500D01*
X61943646Y-29085500D01*
X62128803Y-29046144D01*
X62301730Y-28969151D01*
X62454871Y-28857888D01*
X62581533Y-28717216D01*
X62609716Y-28668399D01*
X62629416Y-28642726D01*
X63836360Y-27435782D01*
X63843740Y-27428979D01*
X63885357Y-27393631D01*
X63934841Y-27328533D01*
X63936863Y-27325949D01*
X63974291Y-27279388D01*
X63988030Y-27262297D01*
X63988109Y-27262138D01*
X64000489Y-27242177D01*
X64000602Y-27242029D01*
X64034905Y-27167883D01*
X64036331Y-27164903D01*
X64072641Y-27091693D01*
X64072685Y-27091514D01*
X64080484Y-27069363D01*
X64080562Y-27069197D01*
X64098139Y-26989340D01*
X64098865Y-26986239D01*
X64118600Y-26906890D01*
X64118604Y-26906714D01*
X64121461Y-26883391D01*
X64121500Y-26883216D01*
X64121500Y-26801536D01*
X64121545Y-26798178D01*
X64121638Y-26794756D01*
X64123757Y-26716527D01*
X64123720Y-26716334D01*
X64121500Y-26692975D01*
X64121500Y-24892000D01*
X71103540Y-24892000D01*
X71123326Y-25080256D01*
X71123327Y-25080259D01*
X71181818Y-25260277D01*
X71181821Y-25260284D01*
X71276467Y-25424216D01*
X71403129Y-25564888D01*
X71556265Y-25676148D01*
X71556270Y-25676151D01*
X71729192Y-25753142D01*
X71729197Y-25753144D01*
X71914354Y-25792500D01*
X71914355Y-25792500D01*
X72103644Y-25792500D01*
X72103646Y-25792500D01*
X72288803Y-25753144D01*
X72461730Y-25676151D01*
X72614871Y-25564888D01*
X72741533Y-25424216D01*
X72836179Y-25260284D01*
X72894674Y-25080256D01*
X72914460Y-24892000D01*
X72894674Y-24703744D01*
X72836179Y-24523716D01*
X72741533Y-24359784D01*
X72614871Y-24219112D01*
X72600510Y-24208678D01*
X72461734Y-24107851D01*
X72461729Y-24107848D01*
X72288807Y-24030857D01*
X72288802Y-24030855D01*
X72143001Y-23999865D01*
X72103646Y-23991500D01*
X71914354Y-23991500D01*
X71882042Y-23998368D01*
X71729197Y-24030855D01*
X71729192Y-24030857D01*
X71556270Y-24107848D01*
X71556265Y-24107851D01*
X71403129Y-24219111D01*
X71276466Y-24359785D01*
X71181821Y-24523715D01*
X71181818Y-24523722D01*
X71123923Y-24701907D01*
X71123326Y-24703744D01*
X71103540Y-24892000D01*
X64121500Y-24892000D01*
X64121500Y-22631279D01*
X64141185Y-22564240D01*
X64193989Y-22518485D01*
X64263147Y-22508541D01*
X64311016Y-22527973D01*
X64311637Y-22526899D01*
X64317270Y-22530151D01*
X64490192Y-22607142D01*
X64490197Y-22607144D01*
X64675354Y-22646500D01*
X64675355Y-22646500D01*
X64864644Y-22646500D01*
X64864646Y-22646500D01*
X65049803Y-22607144D01*
X65222730Y-22530151D01*
X65375871Y-22418888D01*
X65502533Y-22278216D01*
X65576226Y-22150576D01*
X65903046Y-22150576D01*
X65922832Y-22338832D01*
X65922833Y-22338835D01*
X65981324Y-22518853D01*
X65981327Y-22518860D01*
X66075973Y-22682792D01*
X66195301Y-22815319D01*
X66202635Y-22823464D01*
X66355771Y-22934724D01*
X66355776Y-22934727D01*
X66528698Y-23011718D01*
X66528703Y-23011720D01*
X66713860Y-23051076D01*
X66713861Y-23051076D01*
X66903150Y-23051076D01*
X66903152Y-23051076D01*
X67088309Y-23011720D01*
X67261236Y-22934727D01*
X67414377Y-22823464D01*
X67541039Y-22682792D01*
X67635685Y-22518860D01*
X67694180Y-22338832D01*
X67713966Y-22150576D01*
X67694180Y-21962320D01*
X67635685Y-21782292D01*
X67541039Y-21618360D01*
X67414377Y-21477688D01*
X67414376Y-21477687D01*
X67261240Y-21366427D01*
X67261235Y-21366424D01*
X67088313Y-21289433D01*
X67088308Y-21289431D01*
X66942507Y-21258441D01*
X66903152Y-21250076D01*
X66713860Y-21250076D01*
X66681403Y-21256974D01*
X66528703Y-21289431D01*
X66528698Y-21289433D01*
X66355776Y-21366424D01*
X66355771Y-21366427D01*
X66202635Y-21477687D01*
X66075972Y-21618361D01*
X65981327Y-21782291D01*
X65981324Y-21782298D01*
X65922833Y-21962316D01*
X65922832Y-21962320D01*
X65903046Y-22150576D01*
X65576226Y-22150576D01*
X65597179Y-22114284D01*
X65655674Y-21934256D01*
X65675460Y-21746000D01*
X65655674Y-21557744D01*
X65597179Y-21377716D01*
X65502533Y-21213784D01*
X65375871Y-21073112D01*
X65375870Y-21073111D01*
X65222734Y-20961851D01*
X65222729Y-20961848D01*
X65049807Y-20884857D01*
X65049802Y-20884855D01*
X64904001Y-20853865D01*
X64864646Y-20845500D01*
X64675354Y-20845500D01*
X64642897Y-20852398D01*
X64490197Y-20884855D01*
X64490192Y-20884857D01*
X64317270Y-20961848D01*
X64311637Y-20965101D01*
X64310845Y-20963729D01*
X64252572Y-20984518D01*
X64184519Y-20968689D01*
X64135827Y-20918581D01*
X64121500Y-20860720D01*
X64121500Y-20471207D01*
X64127570Y-20432887D01*
X64128113Y-20431215D01*
X64131674Y-20420256D01*
X64151460Y-20232000D01*
X64131674Y-20043744D01*
X64097640Y-19939000D01*
X73924659Y-19939000D01*
X73943975Y-20135129D01*
X74001188Y-20323733D01*
X74094086Y-20497532D01*
X74094090Y-20497539D01*
X74219116Y-20649883D01*
X74371460Y-20774909D01*
X74371467Y-20774913D01*
X74545266Y-20867811D01*
X74545269Y-20867811D01*
X74545273Y-20867814D01*
X74733868Y-20925024D01*
X74930000Y-20944341D01*
X75126132Y-20925024D01*
X75314727Y-20867814D01*
X75488538Y-20774910D01*
X75488544Y-20774904D01*
X75493607Y-20771523D01*
X75494624Y-20773045D01*
X75551021Y-20749084D01*
X75619890Y-20760866D01*
X75636424Y-20771489D01*
X75636678Y-20771110D01*
X75641738Y-20774491D01*
X75815465Y-20867349D01*
X75950000Y-20908159D01*
X75950000Y-20187938D01*
X76031115Y-20251072D01*
X76141595Y-20289000D01*
X76229005Y-20289000D01*
X76315216Y-20274614D01*
X76417947Y-20219019D01*
X76445581Y-20189000D01*
X76450000Y-20189000D01*
X76450000Y-20908159D01*
X76584534Y-20867349D01*
X76758260Y-20774491D01*
X76910528Y-20649528D01*
X77035492Y-20497260D01*
X77035496Y-20497253D01*
X77128347Y-20323541D01*
X77169160Y-20189000D01*
X76450000Y-20189000D01*
X76445581Y-20189000D01*
X76497060Y-20133079D01*
X76543982Y-20026108D01*
X76553628Y-19909698D01*
X76524953Y-19796462D01*
X76461064Y-19698673D01*
X76368885Y-19626928D01*
X76258405Y-19589000D01*
X76170995Y-19589000D01*
X76084784Y-19603386D01*
X75982053Y-19658981D01*
X75950000Y-19693799D01*
X75950000Y-18917938D01*
X76031115Y-18981072D01*
X76141595Y-19019000D01*
X76229005Y-19019000D01*
X76315216Y-19004614D01*
X76417947Y-18949019D01*
X76445581Y-18919000D01*
X76450000Y-18919000D01*
X76450000Y-19689000D01*
X77169160Y-19689000D01*
X77169160Y-19688999D01*
X77128347Y-19554458D01*
X77035497Y-19380747D01*
X77032111Y-19375680D01*
X77033665Y-19374641D01*
X77009759Y-19318361D01*
X77021547Y-19249493D01*
X77032441Y-19232540D01*
X77032111Y-19232320D01*
X77035497Y-19227252D01*
X77128347Y-19053541D01*
X77169160Y-18919000D01*
X76450000Y-18919000D01*
X76445581Y-18919000D01*
X76497060Y-18863079D01*
X76543982Y-18756108D01*
X76553628Y-18639698D01*
X76524953Y-18526462D01*
X76461064Y-18428673D01*
X76368885Y-18356928D01*
X76258405Y-18319000D01*
X76170995Y-18319000D01*
X76084784Y-18333386D01*
X75982053Y-18388981D01*
X75950000Y-18423799D01*
X75950000Y-17647938D01*
X76031115Y-17711072D01*
X76141595Y-17749000D01*
X76229005Y-17749000D01*
X76315216Y-17734614D01*
X76417947Y-17679019D01*
X76445581Y-17649000D01*
X76450000Y-17649000D01*
X76450000Y-18419000D01*
X77169160Y-18419000D01*
X77169160Y-18418999D01*
X77128347Y-18284458D01*
X77035497Y-18110747D01*
X77032111Y-18105680D01*
X77033665Y-18104641D01*
X77009759Y-18048361D01*
X77021547Y-17979493D01*
X77032441Y-17962540D01*
X77032111Y-17962320D01*
X77035497Y-17957252D01*
X77128347Y-17783541D01*
X77169160Y-17649000D01*
X76450000Y-17649000D01*
X76445581Y-17649000D01*
X76497060Y-17593079D01*
X76543982Y-17486108D01*
X76553628Y-17369698D01*
X76524953Y-17256462D01*
X76461064Y-17158673D01*
X76448636Y-17149000D01*
X77169160Y-17149000D01*
X77169160Y-17148999D01*
X77128347Y-17014458D01*
X77035496Y-16840746D01*
X77032110Y-16835678D01*
X77033784Y-16834559D01*
X77010081Y-16778746D01*
X77021874Y-16709879D01*
X77032839Y-16692818D01*
X77032523Y-16692607D01*
X77035904Y-16687544D01*
X77035910Y-16687538D01*
X77128814Y-16513727D01*
X77186024Y-16325132D01*
X77205341Y-16129000D01*
X77186024Y-15932868D01*
X77128814Y-15744273D01*
X77127677Y-15742146D01*
X77127418Y-15740904D01*
X77126483Y-15738645D01*
X77126911Y-15738467D01*
X77113435Y-15673746D01*
X77137771Y-15609379D01*
X77143796Y-15601331D01*
X77194091Y-15466483D01*
X77200500Y-15406873D01*
X77200499Y-14311128D01*
X77194091Y-14251517D01*
X77182392Y-14220151D01*
X77143797Y-14116671D01*
X77143793Y-14116664D01*
X77057547Y-14001455D01*
X77057544Y-14001452D01*
X76942335Y-13915206D01*
X76942328Y-13915202D01*
X76807482Y-13864908D01*
X76807483Y-13864908D01*
X76747883Y-13858501D01*
X76747881Y-13858500D01*
X76747873Y-13858500D01*
X76747864Y-13858500D01*
X75652129Y-13858500D01*
X75652123Y-13858501D01*
X75592516Y-13864908D01*
X75457671Y-13915202D01*
X75457666Y-13915205D01*
X75449614Y-13921233D01*
X75384149Y-13945648D01*
X75320530Y-13932104D01*
X75320359Y-13932518D01*
X75318123Y-13931592D01*
X75316850Y-13931321D01*
X75314729Y-13930187D01*
X75314728Y-13930186D01*
X75314727Y-13930186D01*
X75126132Y-13872976D01*
X75126129Y-13872975D01*
X74930000Y-13853659D01*
X74733870Y-13872975D01*
X74545266Y-13930188D01*
X74371467Y-14023086D01*
X74371460Y-14023090D01*
X74219116Y-14148116D01*
X74094090Y-14300460D01*
X74094086Y-14300467D01*
X74001188Y-14474266D01*
X73943975Y-14662870D01*
X73924659Y-14859000D01*
X73943975Y-15055129D01*
X74001188Y-15243733D01*
X74094086Y-15417532D01*
X74097473Y-15422601D01*
X74095955Y-15423615D01*
X74119918Y-15480042D01*
X74108124Y-15548909D01*
X74097515Y-15565420D01*
X74097893Y-15565673D01*
X74094505Y-15570742D01*
X74001652Y-15744458D01*
X73960839Y-15878999D01*
X73960840Y-15879000D01*
X74684419Y-15879000D01*
X74632940Y-15934921D01*
X74586018Y-16041892D01*
X74576372Y-16158302D01*
X74605047Y-16271538D01*
X74668936Y-16369327D01*
X74681364Y-16379000D01*
X73960840Y-16379000D01*
X74001652Y-16513541D01*
X74094503Y-16687253D01*
X74097890Y-16692322D01*
X74096215Y-16693440D01*
X74119918Y-16749259D01*
X74108123Y-16818125D01*
X74097158Y-16835188D01*
X74097473Y-16835399D01*
X74094086Y-16840467D01*
X74001188Y-17014266D01*
X73943975Y-17202870D01*
X73924659Y-17399000D01*
X73943975Y-17595129D01*
X73951732Y-17620699D01*
X73984822Y-17729784D01*
X74001188Y-17783733D01*
X74094086Y-17957532D01*
X74097473Y-17962601D01*
X74095836Y-17963694D01*
X74119596Y-18019663D01*
X74107795Y-18088529D01*
X74097109Y-18105156D01*
X74097473Y-18105399D01*
X74094086Y-18110467D01*
X74001188Y-18284266D01*
X73943975Y-18472870D01*
X73924659Y-18669000D01*
X73943975Y-18865129D01*
X73946201Y-18872467D01*
X74000618Y-19051856D01*
X74001188Y-19053733D01*
X74094086Y-19227532D01*
X74097473Y-19232601D01*
X74095836Y-19233694D01*
X74119596Y-19289663D01*
X74107795Y-19358529D01*
X74097109Y-19375156D01*
X74097473Y-19375399D01*
X74094086Y-19380467D01*
X74001188Y-19554266D01*
X73943975Y-19742870D01*
X73924659Y-19939000D01*
X64097640Y-19939000D01*
X64073179Y-19863716D01*
X63978533Y-19699784D01*
X63851871Y-19559112D01*
X63851870Y-19559111D01*
X63698734Y-19447851D01*
X63698729Y-19447848D01*
X63525807Y-19370857D01*
X63525802Y-19370855D01*
X63348940Y-19333263D01*
X63340646Y-19331500D01*
X63151354Y-19331500D01*
X63143060Y-19333263D01*
X62966197Y-19370855D01*
X62966192Y-19370857D01*
X62793270Y-19447848D01*
X62793265Y-19447851D01*
X62640129Y-19559111D01*
X62513466Y-19699785D01*
X62418821Y-19863715D01*
X62418818Y-19863722D01*
X62376212Y-19994851D01*
X62360326Y-20043744D01*
X62340540Y-20232000D01*
X62360326Y-20420256D01*
X62360326Y-20420258D01*
X62360327Y-20420260D01*
X62364430Y-20432887D01*
X62370500Y-20471207D01*
X62370500Y-26373993D01*
X62350815Y-26441032D01*
X62334181Y-26461674D01*
X61398554Y-27397300D01*
X61383759Y-27409936D01*
X61243132Y-27512109D01*
X61243123Y-27512116D01*
X61116466Y-27652785D01*
X61021821Y-27816715D01*
X61021818Y-27816722D01*
X60963327Y-27996740D01*
X60963326Y-27996744D01*
X60943540Y-28185000D01*
X53961500Y-28185000D01*
X53961500Y-23651337D01*
X53961909Y-23641272D01*
X53962364Y-23635685D01*
X53966339Y-23586872D01*
X53955309Y-23505921D01*
X53954901Y-23502586D01*
X53952583Y-23481273D01*
X53946073Y-23421404D01*
X53946014Y-23421229D01*
X53940656Y-23398369D01*
X53940631Y-23398183D01*
X53912427Y-23321415D01*
X53911386Y-23318460D01*
X53885267Y-23240940D01*
X53885164Y-23240769D01*
X53875026Y-23219610D01*
X53874961Y-23219435D01*
X53874960Y-23219432D01*
X53830939Y-23150562D01*
X53829205Y-23147764D01*
X53787089Y-23077766D01*
X53786955Y-23077624D01*
X53772504Y-23059139D01*
X53772400Y-23058976D01*
X53714658Y-23001234D01*
X53712316Y-22998829D01*
X53711939Y-22998431D01*
X53656129Y-22939513D01*
X53655970Y-22939405D01*
X53637877Y-22924453D01*
X51644073Y-20930649D01*
X51637259Y-20923258D01*
X51601911Y-20881643D01*
X51601910Y-20881642D01*
X51536887Y-20832213D01*
X51534241Y-20830144D01*
X51470582Y-20778973D01*
X51470574Y-20778968D01*
X51470400Y-20778882D01*
X51450462Y-20766514D01*
X51450309Y-20766398D01*
X51376177Y-20732100D01*
X51373152Y-20730650D01*
X51299980Y-20694362D01*
X51299976Y-20694360D01*
X51299973Y-20694359D01*
X51299967Y-20694357D01*
X51299960Y-20694355D01*
X51299768Y-20694307D01*
X51277665Y-20686525D01*
X51277478Y-20686438D01*
X51277475Y-20686437D01*
X51197692Y-20668875D01*
X51194425Y-20668109D01*
X51115167Y-20648399D01*
X51114969Y-20648394D01*
X51091693Y-20645543D01*
X51091502Y-20645501D01*
X51091499Y-20645500D01*
X51091496Y-20645500D01*
X51091492Y-20645500D01*
X51009817Y-20645500D01*
X51006459Y-20645455D01*
X50924807Y-20643243D01*
X50924625Y-20643278D01*
X50901257Y-20645500D01*
X44609525Y-20645500D01*
X44599460Y-20645091D01*
X44545048Y-20640659D01*
X44464084Y-20651690D01*
X44460754Y-20652098D01*
X44379574Y-20660927D01*
X44379384Y-20660992D01*
X44356559Y-20666341D01*
X44356363Y-20666367D01*
X44356357Y-20666368D01*
X44356357Y-20666369D01*
X44349536Y-20668875D01*
X44279672Y-20694541D01*
X44276508Y-20695654D01*
X44199120Y-20721730D01*
X44199111Y-20721734D01*
X44198934Y-20721841D01*
X44177805Y-20731965D01*
X44177607Y-20732037D01*
X44108786Y-20776026D01*
X44105936Y-20777794D01*
X44035940Y-20819910D01*
X44035935Y-20819914D01*
X44035784Y-20820058D01*
X44017330Y-20834485D01*
X44017154Y-20834597D01*
X44017149Y-20834601D01*
X43959388Y-20892361D01*
X43956984Y-20894701D01*
X43897686Y-20950872D01*
X43897575Y-20951036D01*
X43882631Y-20969117D01*
X43610653Y-21241095D01*
X43603250Y-21247920D01*
X43561641Y-21283264D01*
X43512203Y-21348299D01*
X43510135Y-21350944D01*
X43458970Y-21414595D01*
X43458968Y-21414598D01*
X43458879Y-21414779D01*
X43446529Y-21434690D01*
X43446400Y-21434858D01*
X43446400Y-21434859D01*
X43412093Y-21509011D01*
X43410643Y-21512035D01*
X43377986Y-21577885D01*
X43330566Y-21629199D01*
X43262931Y-21646730D01*
X43230902Y-21641454D01*
X43127130Y-21609975D01*
X42931000Y-21590659D01*
X42734870Y-21609975D01*
X42546266Y-21667188D01*
X42372467Y-21760086D01*
X42367399Y-21763473D01*
X42366386Y-21761958D01*
X42309936Y-21785920D01*
X42241071Y-21774115D01*
X42224574Y-21763511D01*
X42224322Y-21763890D01*
X42219253Y-21760503D01*
X42045541Y-21667652D01*
X41911000Y-21626839D01*
X41911000Y-22388327D01*
X41873129Y-22343195D01*
X41773871Y-22285888D01*
X41689436Y-22271000D01*
X41632564Y-22271000D01*
X41548129Y-22285888D01*
X41448871Y-22343195D01*
X41375199Y-22430993D01*
X41336000Y-22538694D01*
X41336000Y-22653306D01*
X41375199Y-22761007D01*
X41446517Y-22846000D01*
X40691840Y-22846000D01*
X40732652Y-22980541D01*
X40825503Y-23154253D01*
X40828890Y-23159322D01*
X40827215Y-23160440D01*
X40850918Y-23216259D01*
X40839123Y-23285125D01*
X40828158Y-23302188D01*
X40828473Y-23302399D01*
X40825086Y-23307467D01*
X40732188Y-23481266D01*
X40674975Y-23669870D01*
X40655659Y-23866000D01*
X24362104Y-23866000D01*
X24362520Y-23864720D01*
X24382306Y-23676464D01*
X24362520Y-23488208D01*
X24307257Y-23318128D01*
X24304027Y-23308186D01*
X24304026Y-23308185D01*
X24304025Y-23308180D01*
X24209379Y-23144248D01*
X24082717Y-23003576D01*
X24077827Y-23000023D01*
X23929580Y-22892315D01*
X23929575Y-22892312D01*
X23756653Y-22815321D01*
X23756648Y-22815319D01*
X23610847Y-22784329D01*
X23571492Y-22775964D01*
X23382200Y-22775964D01*
X23349743Y-22782862D01*
X23197043Y-22815319D01*
X23197038Y-22815321D01*
X23024116Y-22892312D01*
X23024111Y-22892315D01*
X22870975Y-23003575D01*
X22744312Y-23144249D01*
X22649667Y-23308179D01*
X22649664Y-23308186D01*
X22593425Y-23481273D01*
X22591172Y-23488208D01*
X22571386Y-23676464D01*
X20050300Y-23676464D01*
X20052919Y-23651541D01*
X20033133Y-23463285D01*
X19974638Y-23283257D01*
X19879992Y-23119325D01*
X19753330Y-22978653D01*
X19753329Y-22978652D01*
X19600193Y-22867392D01*
X19600188Y-22867389D01*
X19427266Y-22790398D01*
X19427261Y-22790396D01*
X19281460Y-22759406D01*
X19242105Y-22751041D01*
X19052813Y-22751041D01*
X19020356Y-22757939D01*
X18867656Y-22790396D01*
X18867651Y-22790398D01*
X18694729Y-22867389D01*
X18694724Y-22867392D01*
X18541588Y-22978652D01*
X18414925Y-23119326D01*
X18320280Y-23283256D01*
X18320277Y-23283263D01*
X18275393Y-23421404D01*
X18261785Y-23463285D01*
X18241999Y-23651541D01*
X12938500Y-23651541D01*
X12938500Y-22345999D01*
X40691839Y-22345999D01*
X40691840Y-22346000D01*
X41411000Y-22346000D01*
X41411000Y-21626839D01*
X41410999Y-21626839D01*
X41276458Y-21667652D01*
X41102746Y-21760503D01*
X41102739Y-21760507D01*
X40950471Y-21885471D01*
X40825507Y-22037739D01*
X40825503Y-22037746D01*
X40732652Y-22211458D01*
X40691839Y-22345999D01*
X12938500Y-22345999D01*
X12938500Y-17311000D01*
X13553834Y-17311000D01*
X13573620Y-17499256D01*
X13573621Y-17499259D01*
X13632112Y-17679277D01*
X13632115Y-17679284D01*
X13726761Y-17843216D01*
X13829440Y-17957252D01*
X13853423Y-17983888D01*
X14006559Y-18095148D01*
X14006564Y-18095151D01*
X14179486Y-18172142D01*
X14179491Y-18172144D01*
X14364648Y-18211500D01*
X14364649Y-18211500D01*
X14553938Y-18211500D01*
X14553940Y-18211500D01*
X14739097Y-18172144D01*
X14912024Y-18095151D01*
X14928395Y-18083256D01*
X14994200Y-18059775D01*
X15062254Y-18075599D01*
X15110950Y-18125703D01*
X15124685Y-18171419D01*
X15142975Y-18357129D01*
X15200188Y-18545733D01*
X15293086Y-18719532D01*
X15296473Y-18724601D01*
X15294836Y-18725694D01*
X15318596Y-18781663D01*
X15306795Y-18850529D01*
X15296109Y-18867156D01*
X15296473Y-18867399D01*
X15293086Y-18872467D01*
X15200188Y-19046266D01*
X15142975Y-19234870D01*
X15123659Y-19431000D01*
X15142975Y-19627129D01*
X15142976Y-19627132D01*
X15178084Y-19742868D01*
X15200187Y-19815729D01*
X15201321Y-19817850D01*
X15201580Y-19819094D01*
X15202518Y-19821359D01*
X15202088Y-19821536D01*
X15215564Y-19886253D01*
X15191233Y-19950614D01*
X15185205Y-19958666D01*
X15185202Y-19958671D01*
X15134908Y-20093517D01*
X15128501Y-20153116D01*
X15128500Y-20153135D01*
X15128500Y-21248870D01*
X15128501Y-21248876D01*
X15134908Y-21308483D01*
X15185202Y-21443328D01*
X15185206Y-21443335D01*
X15271452Y-21558544D01*
X15271455Y-21558547D01*
X15386664Y-21644793D01*
X15386671Y-21644797D01*
X15521517Y-21695091D01*
X15521516Y-21695091D01*
X15528444Y-21695835D01*
X15581127Y-21701500D01*
X16676872Y-21701499D01*
X16736483Y-21695091D01*
X16871331Y-21644796D01*
X16879379Y-21638770D01*
X16944842Y-21614351D01*
X17008474Y-21627895D01*
X17008645Y-21627483D01*
X17010875Y-21628406D01*
X17012146Y-21628677D01*
X17014273Y-21629814D01*
X17202868Y-21687024D01*
X17399000Y-21706341D01*
X17595132Y-21687024D01*
X17783727Y-21629814D01*
X17785853Y-21628678D01*
X17917060Y-21558546D01*
X17957538Y-21536910D01*
X18109883Y-21411883D01*
X18234910Y-21259538D01*
X18327814Y-21085727D01*
X18385024Y-20897132D01*
X18404341Y-20701000D01*
X18385024Y-20504868D01*
X18327814Y-20316273D01*
X18234910Y-20142462D01*
X18234907Y-20142458D01*
X18231523Y-20137393D01*
X18233164Y-20136296D01*
X18209405Y-20080361D01*
X18221194Y-20011493D01*
X18231888Y-19994851D01*
X18231523Y-19994607D01*
X18234904Y-19989544D01*
X18234910Y-19989538D01*
X18275820Y-19913000D01*
X28812540Y-19913000D01*
X28832326Y-20101256D01*
X28832327Y-20101259D01*
X28890818Y-20281277D01*
X28890821Y-20281284D01*
X28985467Y-20445216D01*
X29090223Y-20561559D01*
X29112129Y-20585888D01*
X29265265Y-20697148D01*
X29265270Y-20697151D01*
X29438192Y-20774142D01*
X29438197Y-20774144D01*
X29623354Y-20813500D01*
X29623355Y-20813500D01*
X29812644Y-20813500D01*
X29812646Y-20813500D01*
X29997803Y-20774144D01*
X30170730Y-20697151D01*
X30323871Y-20585888D01*
X30450533Y-20445216D01*
X30545179Y-20281284D01*
X30603674Y-20101256D01*
X30623460Y-19913000D01*
X30603674Y-19724744D01*
X30549495Y-19558000D01*
X33511540Y-19558000D01*
X33531326Y-19746256D01*
X33531327Y-19746259D01*
X33589818Y-19926277D01*
X33589821Y-19926284D01*
X33684467Y-20090216D01*
X33741120Y-20153135D01*
X33811129Y-20230888D01*
X33964265Y-20342148D01*
X33964270Y-20342151D01*
X34137192Y-20419142D01*
X34137197Y-20419144D01*
X34322354Y-20458500D01*
X34322355Y-20458500D01*
X34511644Y-20458500D01*
X34511646Y-20458500D01*
X34696803Y-20419144D01*
X34869730Y-20342151D01*
X35022871Y-20230888D01*
X35149533Y-20090216D01*
X35244179Y-19926284D01*
X35302674Y-19746256D01*
X35307374Y-19701541D01*
X38989081Y-19701541D01*
X39008867Y-19889797D01*
X39008868Y-19889800D01*
X39067359Y-20069818D01*
X39067362Y-20069825D01*
X39162008Y-20233757D01*
X39247755Y-20328988D01*
X39288670Y-20374429D01*
X39441806Y-20485689D01*
X39441811Y-20485692D01*
X39614733Y-20562683D01*
X39614738Y-20562685D01*
X39799895Y-20602041D01*
X39799896Y-20602041D01*
X39989186Y-20602041D01*
X39989187Y-20602041D01*
X40071321Y-20584582D01*
X40093749Y-20581918D01*
X40095157Y-20581879D01*
X40095166Y-20581880D01*
X40176124Y-20570848D01*
X40179441Y-20570443D01*
X40260634Y-20561614D01*
X40260799Y-20561558D01*
X40283675Y-20556196D01*
X40283855Y-20556172D01*
X40360578Y-20527983D01*
X40363624Y-20526910D01*
X40441098Y-20500808D01*
X40441246Y-20500719D01*
X40462434Y-20490565D01*
X40462606Y-20490502D01*
X40531468Y-20446485D01*
X40534269Y-20444748D01*
X40604272Y-20402630D01*
X40604401Y-20402507D01*
X40622915Y-20388035D01*
X40622920Y-20388031D01*
X40623062Y-20387941D01*
X40680856Y-20330145D01*
X40683151Y-20327910D01*
X40742525Y-20271670D01*
X40742624Y-20271524D01*
X40757582Y-20253419D01*
X42749001Y-18262000D01*
X60242541Y-18262000D01*
X60262327Y-18450256D01*
X60262328Y-18450259D01*
X60320819Y-18630277D01*
X60320822Y-18630284D01*
X60415468Y-18794216D01*
X60527824Y-18919000D01*
X60542130Y-18934888D01*
X60695266Y-19046148D01*
X60695271Y-19046151D01*
X60868193Y-19123142D01*
X60868198Y-19123144D01*
X61053355Y-19162500D01*
X61053356Y-19162500D01*
X61242645Y-19162500D01*
X61242647Y-19162500D01*
X61427804Y-19123144D01*
X61600731Y-19046151D01*
X61753872Y-18934888D01*
X61880534Y-18794216D01*
X61975180Y-18630284D01*
X62033675Y-18450256D01*
X62053461Y-18262000D01*
X62033675Y-18073744D01*
X61975180Y-17893716D01*
X61880534Y-17729784D01*
X61753872Y-17589112D01*
X61686772Y-17540361D01*
X61600735Y-17477851D01*
X61600730Y-17477848D01*
X61427808Y-17400857D01*
X61427803Y-17400855D01*
X61281216Y-17369698D01*
X61242647Y-17361500D01*
X61053355Y-17361500D01*
X61020898Y-17368398D01*
X60868198Y-17400855D01*
X60868193Y-17400857D01*
X60695271Y-17477848D01*
X60695266Y-17477851D01*
X60542130Y-17589111D01*
X60415467Y-17729785D01*
X60320822Y-17893715D01*
X60320819Y-17893722D01*
X60262328Y-18073740D01*
X60262327Y-18073744D01*
X60242541Y-18262000D01*
X42749001Y-18262000D01*
X42754360Y-18256641D01*
X42761740Y-18249838D01*
X42803357Y-18214490D01*
X42852841Y-18149392D01*
X42854863Y-18146808D01*
X42906030Y-18083156D01*
X42906109Y-18082997D01*
X42918489Y-18063036D01*
X42918602Y-18062888D01*
X42920043Y-18059775D01*
X42952905Y-17988742D01*
X42954331Y-17985762D01*
X42990641Y-17912552D01*
X42990685Y-17912373D01*
X42998484Y-17890222D01*
X42998562Y-17890056D01*
X43016139Y-17810199D01*
X43016865Y-17807098D01*
X43036600Y-17727749D01*
X43036604Y-17727573D01*
X43039461Y-17704250D01*
X43039500Y-17704075D01*
X43039500Y-17622395D01*
X43039545Y-17619037D01*
X43040161Y-17596296D01*
X43041757Y-17537386D01*
X43041720Y-17537193D01*
X43039500Y-17513834D01*
X43039500Y-14437207D01*
X43045570Y-14398887D01*
X43046113Y-14397215D01*
X43049674Y-14386256D01*
X43069460Y-14198000D01*
X43049674Y-14009744D01*
X42991179Y-13829716D01*
X42896533Y-13665784D01*
X42769871Y-13525112D01*
X42769870Y-13525111D01*
X42616734Y-13413851D01*
X42616729Y-13413848D01*
X42443807Y-13336857D01*
X42443802Y-13336855D01*
X42298001Y-13305865D01*
X42258646Y-13297500D01*
X42069354Y-13297500D01*
X42036897Y-13304398D01*
X41884197Y-13336855D01*
X41884192Y-13336857D01*
X41711270Y-13413848D01*
X41711265Y-13413851D01*
X41558129Y-13525111D01*
X41431466Y-13665785D01*
X41336821Y-13829715D01*
X41336818Y-13829722D01*
X41281019Y-14001455D01*
X41278326Y-14009744D01*
X41258540Y-14198000D01*
X41278326Y-14386256D01*
X41278326Y-14386258D01*
X41278327Y-14386260D01*
X41282430Y-14398887D01*
X41288500Y-14437207D01*
X41288500Y-17194852D01*
X41268815Y-17261891D01*
X41252181Y-17282533D01*
X39741770Y-18792943D01*
X39680447Y-18826428D01*
X39679871Y-18826552D01*
X39614737Y-18840397D01*
X39614733Y-18840398D01*
X39441811Y-18917389D01*
X39441806Y-18917392D01*
X39288670Y-19028652D01*
X39162007Y-19169326D01*
X39067362Y-19333256D01*
X39067359Y-19333263D01*
X39008868Y-19513281D01*
X39008867Y-19513285D01*
X38989081Y-19701541D01*
X35307374Y-19701541D01*
X35322460Y-19558000D01*
X35302674Y-19369744D01*
X35244179Y-19189716D01*
X35149533Y-19025784D01*
X35022871Y-18885112D01*
X35005460Y-18872462D01*
X34869734Y-18773851D01*
X34869729Y-18773848D01*
X34696807Y-18696857D01*
X34696802Y-18696855D01*
X34551001Y-18665865D01*
X34511646Y-18657500D01*
X34322354Y-18657500D01*
X34289897Y-18664398D01*
X34137197Y-18696855D01*
X34137192Y-18696857D01*
X33964270Y-18773848D01*
X33964265Y-18773851D01*
X33811129Y-18885111D01*
X33684466Y-19025785D01*
X33589821Y-19189715D01*
X33589818Y-19189722D01*
X33543181Y-19333257D01*
X33531326Y-19369744D01*
X33511540Y-19558000D01*
X30549495Y-19558000D01*
X30545179Y-19544716D01*
X30450533Y-19380784D01*
X30323871Y-19240112D01*
X30316656Y-19234870D01*
X30170734Y-19128851D01*
X30170729Y-19128848D01*
X29997807Y-19051857D01*
X29997802Y-19051855D01*
X29843226Y-19019000D01*
X29812646Y-19012500D01*
X29623354Y-19012500D01*
X29592774Y-19019000D01*
X29438197Y-19051855D01*
X29438192Y-19051857D01*
X29265270Y-19128848D01*
X29265265Y-19128851D01*
X29112129Y-19240111D01*
X28985466Y-19380785D01*
X28890821Y-19544715D01*
X28890818Y-19544722D01*
X28839865Y-19701541D01*
X28832326Y-19724744D01*
X28812540Y-19913000D01*
X18275820Y-19913000D01*
X18327814Y-19815727D01*
X18385024Y-19627132D01*
X18404341Y-19431000D01*
X18385024Y-19234868D01*
X18327814Y-19046273D01*
X18234910Y-18872462D01*
X18234907Y-18872458D01*
X18231523Y-18867393D01*
X18233164Y-18866296D01*
X18209405Y-18810361D01*
X18221194Y-18741493D01*
X18231888Y-18724851D01*
X18231523Y-18724607D01*
X18234904Y-18719544D01*
X18234910Y-18719538D01*
X18327814Y-18545727D01*
X18385024Y-18357132D01*
X18404341Y-18161000D01*
X18385024Y-17964868D01*
X18327814Y-17776273D01*
X18234910Y-17602462D01*
X18234907Y-17602458D01*
X18231523Y-17597393D01*
X18233164Y-17596296D01*
X18209405Y-17540361D01*
X18221194Y-17471493D01*
X18231888Y-17454851D01*
X18231523Y-17454607D01*
X18234904Y-17449544D01*
X18234910Y-17449538D01*
X18246365Y-17428108D01*
X32989341Y-17428108D01*
X33009127Y-17616364D01*
X33009128Y-17616367D01*
X33067619Y-17796385D01*
X33067622Y-17796392D01*
X33162268Y-17960324D01*
X33272724Y-18082997D01*
X33288930Y-18100996D01*
X33442066Y-18212256D01*
X33442071Y-18212259D01*
X33614993Y-18289250D01*
X33614998Y-18289252D01*
X33800155Y-18328608D01*
X33800156Y-18328608D01*
X33989445Y-18328608D01*
X33989447Y-18328608D01*
X34174604Y-18289252D01*
X34347531Y-18212259D01*
X34500672Y-18100996D01*
X34627334Y-17960324D01*
X34721980Y-17796392D01*
X34780475Y-17616364D01*
X34800261Y-17428108D01*
X34780475Y-17239852D01*
X34721980Y-17059824D01*
X34627334Y-16895892D01*
X34500672Y-16755220D01*
X34500671Y-16755219D01*
X34347535Y-16643959D01*
X34347530Y-16643956D01*
X34174608Y-16566965D01*
X34174603Y-16566963D01*
X34028802Y-16535973D01*
X33989447Y-16527608D01*
X33800155Y-16527608D01*
X33767698Y-16534506D01*
X33614998Y-16566963D01*
X33614993Y-16566965D01*
X33442071Y-16643956D01*
X33442066Y-16643959D01*
X33288930Y-16755219D01*
X33162267Y-16895893D01*
X33067622Y-17059823D01*
X33067619Y-17059830D01*
X33009128Y-17239848D01*
X33009127Y-17239852D01*
X32989341Y-17428108D01*
X18246365Y-17428108D01*
X18327814Y-17275727D01*
X18385024Y-17087132D01*
X18404341Y-16891000D01*
X18385024Y-16694868D01*
X18327814Y-16506273D01*
X18234910Y-16332462D01*
X18234907Y-16332458D01*
X18231523Y-16327393D01*
X18233164Y-16326296D01*
X18209405Y-16270361D01*
X18221194Y-16201493D01*
X18231888Y-16184851D01*
X18231523Y-16184607D01*
X18234904Y-16179544D01*
X18234910Y-16179538D01*
X18327814Y-16005727D01*
X18385024Y-15817132D01*
X18404341Y-15621000D01*
X18385024Y-15424868D01*
X18327814Y-15236273D01*
X18327811Y-15236269D01*
X18327811Y-15236266D01*
X18234913Y-15062467D01*
X18234909Y-15062460D01*
X18109883Y-14910116D01*
X17957539Y-14785090D01*
X17957532Y-14785086D01*
X17783733Y-14692188D01*
X17783727Y-14692186D01*
X17595132Y-14634976D01*
X17595129Y-14634975D01*
X17399000Y-14615659D01*
X17202870Y-14634975D01*
X17014266Y-14692188D01*
X16840467Y-14785086D01*
X16835399Y-14788473D01*
X16834386Y-14786958D01*
X16777936Y-14810920D01*
X16709071Y-14799115D01*
X16692574Y-14788511D01*
X16692322Y-14788890D01*
X16687253Y-14785503D01*
X16513541Y-14692652D01*
X16379000Y-14651839D01*
X16379000Y-15372061D01*
X16297885Y-15308928D01*
X16187405Y-15271000D01*
X16099995Y-15271000D01*
X16013784Y-15285386D01*
X15911053Y-15340981D01*
X15831940Y-15426921D01*
X15785018Y-15533892D01*
X15775372Y-15650302D01*
X15804047Y-15763538D01*
X15867936Y-15861327D01*
X15880364Y-15871000D01*
X15159840Y-15871000D01*
X15200652Y-16005541D01*
X15293503Y-16179253D01*
X15296890Y-16184322D01*
X15295215Y-16185440D01*
X15318918Y-16241259D01*
X15307123Y-16310125D01*
X15296158Y-16327188D01*
X15296473Y-16327399D01*
X15293086Y-16332467D01*
X15200187Y-16506269D01*
X15193611Y-16527947D01*
X15155312Y-16586385D01*
X15091499Y-16614840D01*
X15022432Y-16604278D01*
X15002066Y-16592267D01*
X14912028Y-16526851D01*
X14912023Y-16526848D01*
X14739101Y-16449857D01*
X14739096Y-16449855D01*
X14593295Y-16418865D01*
X14553940Y-16410500D01*
X14364648Y-16410500D01*
X14332191Y-16417398D01*
X14179491Y-16449855D01*
X14179486Y-16449857D01*
X14006564Y-16526848D01*
X14006559Y-16526851D01*
X13853423Y-16638111D01*
X13726760Y-16778785D01*
X13632115Y-16942715D01*
X13632112Y-16942722D01*
X13573621Y-17122740D01*
X13573620Y-17122744D01*
X13553834Y-17311000D01*
X12938500Y-17311000D01*
X12938500Y-15370999D01*
X15159839Y-15370999D01*
X15159840Y-15371000D01*
X15879000Y-15371000D01*
X15879000Y-14651839D01*
X15878999Y-14651839D01*
X15744458Y-14692652D01*
X15570746Y-14785503D01*
X15570739Y-14785507D01*
X15418471Y-14910471D01*
X15293507Y-15062739D01*
X15293503Y-15062746D01*
X15200652Y-15236458D01*
X15159839Y-15370999D01*
X12938500Y-15370999D01*
X12938500Y-13062500D01*
X12958185Y-12995461D01*
X13010989Y-12949706D01*
X13062500Y-12938500D01*
X49463134Y-12938500D01*
X49530173Y-12958185D01*
G37*
%TD.AperFunction*%
%TD*%
M02*
