  0
SECTION
  2
HEADER
  9
$ANGBASE
  50
0.0
  9
$ANGDIR
  70
1
  9
$MEASUREMENT
  70
1
  0
ENDSEC
  0
SECTION
  2
TABLES
  0
TABLE
  2
LTYPE
  70
4
  0
LTYPE
  5
40F
  2
CONTINUOUS
  70
0
  3
Solid line
  72
65
  73
0
  40
0.0
  0
LTYPE
  5
410
  2
DASHDOT
 70
0
  3
Dash Dot ____ _ ____ _
 72
65
 73
4
 40
2.0
 49
1.25
 49
-0.25
 49
0.25
 49
-0.25
  0
LTYPE
  5
411
  2
DASHED
 70
0
  3
Dashed __ __ __ __ __
 72
65
 73
2
 40
0.75
 49
0.5
 49
-0.25
  0
LTYPE
  5
43B
  2
DOTTED
 70
0
  3
Dotted .  .  .  .
 72
65
 73
2
 40
0.2
 49
0.0
 49
-0.2
  0
ENDTAB
  0
TABLE
  2
STYLE
  70
4
  0
STYLE
  2
KICAD
  70
0
  40
0
  41
1
  42
1
  50
0
  71
0
  3
isocp.shx
  0
STYLE
  2
KICADB
  70
0
  40
0
  41
1
  42
1
  50
0
  71
0
  3
isocp.shx
  0
STYLE
  2
KICADI
  70
0
  40
0
  41
1
  42
1
  50
15
  71
0
  3
isocp.shx
  0
STYLE
  2
KICADBI
  70
0
  40
0
  41
1
  42
1
  50
15
  71
0
  3
isocp.shx
  0
ENDTAB
  0
TABLE
  2
LAYER
  70
1
  0
LAYER
  2
BLACK
  70
0
  62
7
  6
CONTINUOUS
  0
ENDTAB
  0
ENDSEC
  0
SECTION
  2
ENTITIES
0
LINE
8
BLACK
6
CONTINUOUS
10
79.7655790000000025
20
-11.8646879999999992
11
79.7688369999999907
21
-11.8641059999999996
0
LINE
8
BLACK
6
CONTINUOUS
10
79.7688369999999907
20
-11.8641059999999996
11
79.7717469999999906
21
-11.8657760000000003
0
LINE
8
BLACK
6
CONTINUOUS
10
79.7717469999999906
20
-11.8657760000000003
11
79.781651999999994
21
-11.8675230000000003
0
LINE
8
BLACK
6
CONTINUOUS
10
79.781651999999994
20
-11.8675230000000003
11
79.7965099999999978
21
-11.8799899999999994
0
LINE
8
BLACK
6
CONTINUOUS
10
79.7965099999999978
20
-11.8799899999999994
11
79.8133309999999909
21
-11.889645999999999
0
LINE
8
BLACK
6
CONTINUOUS
10
79.8133309999999909
20
-11.889645999999999
11
79.8156939999999935
21
-11.8960879999999989
0
LINE
8
BLACK
6
CONTINUOUS
10
79.8156939999999935
20
-11.8960879999999989
11
79.8209519999999912
21
-11.9004999999999992
0
LINE
8
BLACK
6
CONTINUOUS
10
79.8209519999999912
20
-11.9004999999999992
11
79.8243200000000002
21
-11.9196010000000001
0
LINE
8
BLACK
6
CONTINUOUS
10
79.8243200000000002
20
-11.9196010000000001
11
79.8310000000000031
21
-11.9378099999999989
0
LINE
8
BLACK
6
CONTINUOUS
10
79.8310000000000031
20
-11.9378099999999989
11
79.9579999999999984
21
-62.1028099999999981
0
LINE
8
BLACK
6
CONTINUOUS
10
79.9579999999999984
20
-62.1028099999999981
11
79.9562779999999975
21
-62.1127199999999959
0
LINE
8
BLACK
6
CONTINUOUS
10
79.9562779999999975
20
-62.1127199999999959
11
79.9568609999999893
21
-62.1160239999999959
0
LINE
8
BLACK
6
CONTINUOUS
10
79.9568609999999893
20
-62.1160239999999959
11
79.9552070000000015
21
-62.1188879999999983
0
LINE
8
BLACK
6
CONTINUOUS
10
79.9552070000000015
20
-62.1188879999999983
11
79.9535419999999988
21
-62.1284739999999971
0
LINE
8
BLACK
6
CONTINUOUS
10
79.9535419999999988
20
-62.1284739999999971
11
79.9409950000000009
21
-62.143501999999998
0
LINE
8
BLACK
6
CONTINUOUS
10
79.9409950000000009
20
-62.143501999999998
11
79.9312089999999955
21
-62.1604529999999968
0
LINE
8
BLACK
6
CONTINUOUS
10
79.9312089999999955
20
-62.1604529999999968
11
79.9249399999999923
21
-62.1627340000000004
0
LINE
8
BLACK
6
CONTINUOUS
10
79.9249399999999923
20
-62.1627340000000004
11
79.9206640000000021
21
-62.1678569999999979
0
LINE
8
BLACK
6
CONTINUOUS
10
79.9206640000000021
20
-62.1678569999999979
11
79.9013920000000013
21
-62.1713049999999967
0
LINE
8
BLACK
6
CONTINUOUS
10
79.9013920000000013
20
-62.1713049999999967
11
79.8829999999999956
21
-62.1779999999999973
0
LINE
8
BLACK
6
CONTINUOUS
10
79.8829999999999956
20
-62.1779999999999973
11
68.5799999999999983
21
-62.1779999999999973
0
LINE
8
BLACK
6
CONTINUOUS
10
68.5799999999999983
20
-62.1779999999999973
11
68.5701289999999943
21
-62.1762589999999946
0
LINE
8
BLACK
6
CONTINUOUS
10
68.5701289999999943
20
-62.1762589999999946
11
68.5668270000000035
21
-62.176834999999997
0
LINE
8
BLACK
6
CONTINUOUS
10
68.5668270000000035
20
-62.176834999999997
11
68.563958999999997
21
-62.1751709999999989
0
LINE
8
BLACK
6
CONTINUOUS
10
68.563958999999997
20
-62.1751709999999989
11
68.5543479999999903
21
-62.1734769999999983
0
LINE
8
BLACK
6
CONTINUOUS
10
68.5543479999999903
20
-62.1734769999999983
11
68.5393660000000011
21
-62.1609049999999996
0
LINE
8
BLACK
6
CONTINUOUS
10
68.5393660000000011
20
-62.1609049999999996
11
68.5224499999999921
21
-62.1510929999999959
0
LINE
8
BLACK
6
CONTINUOUS
10
68.5224499999999921
20
-62.1510929999999959
11
68.5201739999999972
21
-62.144800999999994
0
LINE
8
BLACK
6
CONTINUOUS
10
68.5201739999999972
20
-62.144800999999994
11
68.5150479999999931
21
-62.1404999999999959
0
LINE
8
BLACK
6
CONTINUOUS
10
68.5150479999999931
20
-62.1404999999999959
11
68.5116510000000005
21
-62.1212370000000007
0
LINE
8
BLACK
6
CONTINUOUS
10
68.5116510000000005
20
-62.1212370000000007
11
68.5049999999999955
21
-62.1028479999999945
0
LINE
8
BLACK
6
CONTINUOUS
10
68.5049999999999955
20
-62.1028479999999945
11
68.5176110000000023
21
-55.8625849999999957
0
LINE
8
BLACK
6
CONTINUOUS
10
68.5176110000000023
20
-55.8625849999999957
11
68.5177809999999994
21
-55.8616299999999981
0
LINE
8
BLACK
6
CONTINUOUS
10
68.5177809999999994
20
-55.8616299999999981
11
68.517628000000002
21
-55.8611209999999971
0
LINE
8
BLACK
6
CONTINUOUS
10
68.517628000000002
20
-55.8611209999999971
11
68.5176269999999903
21
-55.8611209999999971
0
LINE
8
BLACK
6
CONTINUOUS
10
68.5176269999999903
20
-55.8611209999999971
11
68.5220729999999918
21
-55.6522699999999944
0
LINE
8
BLACK
6
CONTINUOUS
10
68.5220729999999918
20
-55.6522699999999944
11
68.4963300000000004
21
-55.2352670000000003
0
LINE
8
BLACK
6
CONTINUOUS
10
68.4963300000000004
20
-55.2352670000000003
11
68.4360219999999941
21
-54.8218460000000007
0
LINE
8
BLACK
6
CONTINUOUS
10
68.4360219999999941
20
-54.8218460000000007
11
68.3415660000000003
21
-54.4148659999999964
0
LINE
8
BLACK
6
CONTINUOUS
10
68.3415660000000003
20
-54.4148659999999964
11
68.2136149999999901
21
-54.0171439999999947
0
LINE
8
BLACK
6
CONTINUOUS
10
68.2136149999999901
20
-54.0171439999999947
11
68.0530550000000005
21
-53.6314309999999992
0
LINE
8
BLACK
6
CONTINUOUS
10
68.0530550000000005
20
-53.6314309999999992
11
67.8609960000000001
21
-53.2603949999999955
0
LINE
8
BLACK
6
CONTINUOUS
10
67.8609960000000001
20
-53.2603949999999955
11
67.6387670000000014
21
-52.9066029999999969
0
LINE
8
BLACK
6
CONTINUOUS
10
67.6387670000000014
20
-52.9066029999999969
11
67.3879050000000035
21
-52.5725029999999975
0
LINE
8
BLACK
6
CONTINUOUS
10
67.3879050000000035
20
-52.5725029999999975
11
67.1101460000000003
21
-52.2604070000000007
0
LINE
8
BLACK
6
CONTINUOUS
10
67.1101460000000003
20
-52.2604070000000007
11
66.8074119999999994
21
-51.9724719999999962
0
LINE
8
BLACK
6
CONTINUOUS
10
66.8074119999999994
20
-51.9724719999999962
11
66.4817960000000028
21
-51.7106919999999946
0
LINE
8
BLACK
6
CONTINUOUS
10
66.4817960000000028
20
-51.7106919999999946
11
66.1355519999999899
21
-51.4768769999999947
0
LINE
8
BLACK
6
CONTINUOUS
10
66.1355519999999899
20
-51.4768769999999947
11
65.7710749999999962
21
-51.2726449999999971
0
LINE
8
BLACK
6
CONTINUOUS
10
65.7710749999999962
20
-51.2726449999999971
11
65.3908869999999922
21
-51.0994089999999943
0
LINE
8
BLACK
6
CONTINUOUS
10
65.3908869999999922
20
-51.0994089999999943
11
64.9976159999999936
21
-50.9583669999999955
0
LINE
8
BLACK
6
CONTINUOUS
10
64.9976159999999936
20
-50.9583669999999955
11
64.593986000000001
21
-50.8504949999999951
0
LINE
8
BLACK
6
CONTINUOUS
10
64.593986000000001
20
-50.8504949999999951
11
64.182785999999993
21
-50.7765389999999996
0
LINE
8
BLACK
6
CONTINUOUS
10
64.182785999999993
20
-50.7765389999999996
11
63.7668629999999936
21
-50.7370109999999954
0
LINE
8
BLACK
6
CONTINUOUS
10
63.7668629999999936
20
-50.7370109999999954
11
63.558253999999998
21
-50.7345459999999946
0
LINE
8
BLACK
6
CONTINUOUS
10
63.558253999999998
20
-50.7345459999999946
11
28.4488929999999982
21
-50.7479990000000001
0
LINE
8
BLACK
6
CONTINUOUS
10
28.4488929999999982
20
-50.7479990000000001
11
28.2379660000000001
21
-50.7530469999999951
0
LINE
8
BLACK
6
CONTINUOUS
10
28.2379660000000001
20
-50.7530469999999951
11
27.8165829999999978
21
-50.7981089999999966
0
LINE
8
BLACK
6
CONTINUOUS
10
27.8165829999999978
20
-50.7981089999999966
11
27.4003489999999985
21
-50.877759999999995
0
LINE
8
BLACK
6
CONTINUOUS
10
27.4003489999999985
20
-50.877759999999995
11
26.9920999999999971
21
-50.9914599999999965
0
LINE
8
BLACK
6
CONTINUOUS
10
26.9920999999999971
20
-50.9914599999999965
11
26.5946159999999985
21
-51.1384329999999991
0
LINE
8
BLACK
6
CONTINUOUS
10
26.5946159999999985
20
-51.1384329999999991
11
26.210602999999999
21
-51.3176789999999983
0
LINE
8
BLACK
6
CONTINUOUS
10
26.210602999999999
20
-51.3176789999999983
11
25.8426769999999983
21
-51.5279769999999999
0
LINE
8
BLACK
6
CONTINUOUS
10
25.8426769999999983
20
-51.5279769999999999
11
25.4933429999999994
21
-51.7678949999999958
0
LINE
8
BLACK
6
CONTINUOUS
10
25.4933429999999994
20
-51.7678949999999958
11
25.1649799999999999
21
-52.0357979999999998
0
LINE
8
BLACK
6
CONTINUOUS
10
25.1649799999999999
20
-52.0357979999999998
11
24.8598239999999997
21
-52.3298640000000006
0
LINE
8
BLACK
6
CONTINUOUS
10
24.8598239999999997
20
-52.3298640000000006
11
24.5799529999999997
21
-52.6480889999999988
0
LINE
8
BLACK
6
CONTINUOUS
10
24.5799529999999997
20
-52.6480889999999988
11
24.3272729999999981
21
-52.9883059999999944
0
LINE
8
BLACK
6
CONTINUOUS
10
24.3272729999999981
20
-52.9883059999999944
11
24.1035039999999974
21
-53.3481979999999965
0
LINE
8
BLACK
6
CONTINUOUS
10
24.1035039999999974
20
-53.3481979999999965
11
23.9101719999999993
21
-53.7253149999999948
0
LINE
8
BLACK
6
CONTINUOUS
10
23.9101719999999993
20
-53.7253149999999948
11
23.7485909999999976
21
-54.117089
0
LINE
8
BLACK
6
CONTINUOUS
10
23.7485909999999976
20
-54.117089
11
23.6198619999999977
21
-54.5208510000000004
0
LINE
8
BLACK
6
CONTINUOUS
10
23.6198619999999977
20
-54.5208510000000004
11
23.5248629999999999
21
-54.9338519999999946
0
LINE
8
BLACK
6
CONTINUOUS
10
23.5248629999999999
20
-54.9338519999999946
11
23.4642389999999992
21
-55.3532790000000006
0
LINE
8
BLACK
6
CONTINUOUS
10
23.4642389999999992
20
-55.3532790000000006
11
23.4384039999999985
21
-55.7762779999999978
0
LINE
8
BLACK
6
CONTINUOUS
10
23.4384039999999985
20
-55.7762779999999978
11
23.4429829999999981
21
-55.9881209999999996
0
LINE
8
BLACK
6
CONTINUOUS
10
23.4429829999999981
20
-55.9881209999999996
11
23.4427479999999981
21
-55.9888979999999989
0
LINE
8
BLACK
6
CONTINUOUS
10
23.4427479999999981
20
-55.9888979999999989
11
23.4429999999999978
21
-55.9895849999999982
0
LINE
8
BLACK
6
CONTINUOUS
10
23.4429999999999978
20
-55.9895849999999982
11
23.4556109999999975
21
-62.2298489999999944
0
LINE
8
BLACK
6
CONTINUOUS
10
23.4556109999999975
20
-62.2298489999999944
11
23.4538899999999977
21
-62.2397239999999954
0
LINE
8
BLACK
6
CONTINUOUS
10
23.4538899999999977
20
-62.2397239999999954
11
23.4544719999999991
21
-62.2430239999999984
0
LINE
8
BLACK
6
CONTINUOUS
10
23.4544719999999991
20
-62.2430239999999984
11
23.4528149999999975
21
-62.2458919999999978
0
LINE
8
BLACK
6
CONTINUOUS
10
23.4528149999999975
20
-62.2458919999999978
11
23.4511399999999988
21
-62.2555099999999939
0
LINE
8
BLACK
6
CONTINUOUS
10
23.4511399999999988
20
-62.2555099999999939
11
23.4385969999999979
21
-62.2705179999999956
0
LINE
8
BLACK
6
CONTINUOUS
10
23.4385969999999979
20
-62.2705179999999956
11
23.4288199999999982
21
-62.2874529999999993
0
LINE
8
BLACK
6
CONTINUOUS
10
23.4288199999999982
20
-62.2874529999999993
11
23.4225329999999978
21
-62.2897409999999994
0
LINE
8
BLACK
6
CONTINUOUS
10
23.4225329999999978
20
-62.2897409999999994
11
23.4182419999999993
21
-62.294875999999995
0
LINE
8
BLACK
6
CONTINUOUS
10
23.4182419999999993
20
-62.294875999999995
11
23.3989869999999982
21
-62.2983109999999982
0
LINE
8
BLACK
6
CONTINUOUS
10
23.3989869999999982
20
-62.2983109999999982
11
23.3806109999999983
21
-62.3049999999999997
0
LINE
8
BLACK
6
CONTINUOUS
10
23.3806109999999983
20
-62.3049999999999997
11
11.9379999999999988
21
-62.3049999999999997
0
LINE
8
BLACK
6
CONTINUOUS
10
11.9379999999999988
20
-62.3049999999999997
11
11.9282579999999996
21
-62.3032819999999958
0
LINE
8
BLACK
6
CONTINUOUS
10
11.9282579999999996
20
-62.3032819999999958
11
11.9249759999999991
21
-62.3038609999999977
0
LINE
8
BLACK
6
CONTINUOUS
10
11.9249759999999991
20
-62.3038609999999977
11
11.922089999999999
21
-62.3021940000000001
0
LINE
8
BLACK
6
CONTINUOUS
10
11.922089999999999
20
-62.3021940000000001
11
11.9123479999999997
21
-62.3004769999999937
0
LINE
8
BLACK
6
CONTINUOUS
10
11.9123479999999997
20
-62.3004769999999937
11
11.8974200000000003
21
-62.2879509999999996
0
LINE
8
BLACK
6
CONTINUOUS
10
11.8974200000000003
20
-62.2879509999999996
11
11.880547
21
-62.2782089999999968
0
LINE
8
BLACK
6
CONTINUOUS
10
11.880547
20
-62.2782089999999968
11
11.8782319999999988
21
-62.2718500000000006
0
LINE
8
BLACK
6
CONTINUOUS
10
11.8782319999999988
20
-62.2718500000000006
11
11.8730479999999989
21
-62.2674999999999983
0
LINE
8
BLACK
6
CONTINUOUS
10
11.8730479999999989
20
-62.2674999999999983
11
11.8696629999999992
21
-62.2483079999999944
0
LINE
8
BLACK
6
CONTINUOUS
10
11.8696629999999992
20
-62.2483079999999944
11
11.8629999999999995
21
-62.2299999999999969
0
LINE
8
BLACK
6
CONTINUOUS
10
11.8629999999999995
20
-62.2299999999999969
11
11.8629999999999995
21
-11.9379999999999988
0
LINE
8
BLACK
6
CONTINUOUS
10
11.8629999999999995
20
-11.9379999999999988
11
11.8647169999999988
21
-11.9282579999999996
0
LINE
8
BLACK
6
CONTINUOUS
10
11.8647169999999988
20
-11.9282579999999996
11
11.8641389999999998
21
-11.9249759999999991
0
LINE
8
BLACK
6
CONTINUOUS
10
11.8641389999999998
20
-11.9249759999999991
11
11.8658049999999999
21
-11.922089999999999
0
LINE
8
BLACK
6
CONTINUOUS
10
11.8658049999999999
20
-11.922089999999999
11
11.8675230000000003
21
-11.9123479999999997
0
LINE
8
BLACK
6
CONTINUOUS
10
11.8675230000000003
20
-11.9123479999999997
11
11.8800479999999986
21
-11.8974200000000003
0
LINE
8
BLACK
6
CONTINUOUS
10
11.8800479999999986
20
-11.8974200000000003
11
11.8897909999999989
21
-11.880547
0
LINE
8
BLACK
6
CONTINUOUS
10
11.8897909999999989
20
-11.880547
11
11.8961489999999994
21
-11.8782319999999988
0
LINE
8
BLACK
6
CONTINUOUS
10
11.8961489999999994
20
-11.8782319999999988
11
11.9004999999999992
21
-11.8730479999999989
0
LINE
8
BLACK
6
CONTINUOUS
10
11.9004999999999992
20
-11.8730479999999989
11
11.9196910000000003
21
-11.8696629999999992
0
LINE
8
BLACK
6
CONTINUOUS
10
11.9196910000000003
20
-11.8696629999999992
11
11.9379999999999988
21
-11.8629999999999995
0
LINE
8
BLACK
6
CONTINUOUS
10
11.9379999999999988
20
-11.8629999999999995
11
79.7560000000000002
21
-11.8629999999999995
0
LINE
8
BLACK
6
CONTINUOUS
10
79.7560000000000002
20
-11.8629999999999995
11
79.7655790000000025
21
-11.8646879999999992
0
LINE
8
BLACK
6
CONTINUOUS
10
12.0129999999999999
20
-12.0129999999999999
11
12.0129999999999999
21
-62.154999999999994
0
LINE
8
BLACK
6
CONTINUOUS
10
12.0129999999999999
20
-62.154999999999994
11
23.305458999999999
21
-62.154999999999994
0
LINE
8
BLACK
6
CONTINUOUS
10
23.305458999999999
20
-62.154999999999994
11
23.2929999999999993
21
-55.989888999999998
0
LINE
8
BLACK
6
CONTINUOUS
10
23.2929999999999993
20
-55.989888999999998
11
23.2930519999999994
21
-55.9895849999999982
0
LINE
8
BLACK
6
CONTINUOUS
10
23.2930519999999994
20
-55.9895849999999982
11
23.3016140000000007
21
-55.5556349999999952
0
LINE
8
BLACK
6
CONTINUOUS
10
23.3016140000000007
20
-55.5556349999999952
11
23.3461069999999999
21
-55.1221099999999993
0
LINE
8
BLACK
6
CONTINUOUS
10
23.3461069999999999
20
-55.1221099999999993
11
23.4261929999999978
21
-54.6937289999999976
0
LINE
8
BLACK
6
CONTINUOUS
10
23.4261929999999978
20
-54.6937289999999976
11
23.541326999999999
21
-54.2734099999999984
0
LINE
8
BLACK
6
CONTINUOUS
10
23.541326999999999
20
-54.2734099999999984
11
23.6907250000000005
21
-53.8640149999999949
0
LINE
8
BLACK
6
CONTINUOUS
10
23.6907250000000005
20
-53.8640149999999949
11
23.8733690000000003
21
-53.4683319999999966
0
LINE
8
BLACK
6
CONTINUOUS
10
23.8733690000000003
20
-53.4683319999999966
11
24.0880159999999997
21
-53.0890559999999994
0
LINE
8
BLACK
6
CONTINUOUS
10
24.0880159999999997
20
-53.0890559999999994
11
24.3332029999999975
21
-52.7287689999999998
0
LINE
8
BLACK
6
CONTINUOUS
10
24.3332029999999975
20
-52.7287689999999998
11
24.6072619999999986
21
-52.3899249999999981
0
LINE
8
BLACK
6
CONTINUOUS
10
24.6072619999999986
20
-52.3899249999999981
11
24.9083259999999989
21
-52.0748299999999986
0
LINE
8
BLACK
6
CONTINUOUS
10
24.9083259999999989
20
-52.0748299999999986
11
25.2343449999999976
21
-51.7856319999999997
0
LINE
8
BLACK
6
CONTINUOUS
10
25.2343449999999976
20
-51.7856319999999997
11
25.5830979999999997
21
-51.5242999999999967
0
LINE
8
BLACK
6
CONTINUOUS
10
25.5830979999999997
20
-51.5242999999999967
11
25.9522119999999994
21
-51.2926119999999983
0
LINE
8
BLACK
6
CONTINUOUS
10
25.9522119999999994
20
-51.2926119999999983
11
26.3391710000000003
21
-51.0921469999999971
0
LINE
8
BLACK
6
CONTINUOUS
10
26.3391710000000003
20
-51.0921469999999971
11
26.7413409999999985
21
-50.9242689999999953
0
LINE
8
BLACK
6
CONTINUOUS
10
26.7413409999999985
20
-50.9242689999999953
11
27.1559840000000001
21
-50.7901230000000012
0
LINE
8
BLACK
6
CONTINUOUS
10
27.1559840000000001
20
-50.7901230000000012
11
27.5802750000000003
21
-50.6906210000000002
0
LINE
8
BLACK
6
CONTINUOUS
10
27.5802750000000003
20
-50.6906210000000002
11
28.0113260000000004
21
-50.6264419999999973
0
LINE
8
BLACK
6
CONTINUOUS
10
28.0113260000000004
20
-50.6264419999999973
11
28.4462009999999985
21
-50.5980209999999957
0
LINE
8
BLACK
6
CONTINUOUS
10
28.4462009999999985
20
-50.5980209999999957
11
28.4462009999999985
21
-50.5980220000000003
0
LINE
8
BLACK
6
CONTINUOUS
10
28.4462009999999985
20
-50.5980220000000003
11
28.4471399999999974
21
-50.5983019999999968
0
LINE
8
BLACK
6
CONTINUOUS
10
28.4471399999999974
20
-50.5983019999999968
11
28.447970999999999
21
-50.597999999999999
0
LINE
8
BLACK
6
CONTINUOUS
10
28.447970999999999
20
-50.597999999999999
11
63.5588179999999952
21
-50.584545999999996
0
LINE
8
BLACK
6
CONTINUOUS
10
63.5588179999999952
20
-50.584545999999996
11
63.5594019999999986
21
-50.5846479999999943
0
LINE
8
BLACK
6
CONTINUOUS
10
63.5594019999999986
20
-50.5846479999999943
11
63.5597119999999975
21
-50.5845519999999951
0
LINE
8
BLACK
6
CONTINUOUS
10
63.5597119999999975
20
-50.5845519999999951
11
63.5597119999999975
21
-50.5845529999999997
0
LINE
8
BLACK
6
CONTINUOUS
10
63.5597119999999975
20
-50.5845529999999997
11
63.9890219999999985
21
-50.6073929999999947
0
LINE
8
BLACK
6
CONTINUOUS
10
63.9890219999999985
20
-50.6073929999999947
11
64.4149479999999954
21
-50.6658319999999947
0
LINE
8
BLACK
6
CONTINUOUS
10
64.4149479999999954
20
-50.6658319999999947
11
64.834543999999994
21
-50.7594640000000012
0
LINE
8
BLACK
6
CONTINUOUS
10
64.834543999999994
20
-50.7594640000000012
11
65.2449079999999952
21
-50.8876419999999996
0
LINE
8
BLACK
6
CONTINUOUS
10
65.2449079999999952
20
-50.8876419999999996
11
65.6431999999999931
21
-51.0494799999999955
0
LINE
8
BLACK
6
CONTINUOUS
10
65.6431999999999931
20
-51.0494799999999955
11
66.0266649999999942
21
-51.2438569999999984
0
LINE
8
BLACK
6
CONTINUOUS
10
66.0266649999999942
20
-51.2438569999999984
11
66.3926510000000007
21
-51.4694289999999981
0
LINE
8
BLACK
6
CONTINUOUS
10
66.3926510000000007
20
-51.4694289999999981
11
66.7386240000000015
21
-51.7246349999999993
0
LINE
8
BLACK
6
CONTINUOUS
10
66.7386240000000015
20
-51.7246349999999993
11
67.0621929999999935
21
-52.0077099999999959
0
LINE
8
BLACK
6
CONTINUOUS
10
67.0621929999999935
20
-52.0077099999999959
11
67.361116999999993
21
-52.3166960000000003
0
LINE
8
BLACK
6
CONTINUOUS
10
67.361116999999993
20
-52.3166960000000003
11
67.6333300000000008
21
-52.6494549999999961
0
LINE
8
BLACK
6
CONTINUOUS
10
67.6333300000000008
20
-52.6494549999999961
11
67.8769479999999987
21
-53.0036839999999998
0
LINE
8
BLACK
6
CONTINUOUS
10
67.8769479999999987
20
-53.0036839999999998
11
68.0902849999999944
21
-53.3769339999999985
0
LINE
8
BLACK
6
CONTINUOUS
10
68.0902849999999944
20
-53.3769339999999985
11
68.2718660000000028
21
-53.7666210000000007
0
LINE
8
BLACK
6
CONTINUOUS
10
68.2718660000000028
20
-53.7666210000000007
11
68.4204349999999977
21
-54.1700510000000008
0
LINE
8
BLACK
6
CONTINUOUS
10
68.4204349999999977
20
-54.1700510000000008
11
68.5349640000000022
21
-54.584430999999995
0
LINE
8
BLACK
6
CONTINUOUS
10
68.5349640000000022
20
-54.584430999999995
11
68.6146590000000032
21
-55.0068959999999976
0
LINE
8
BLACK
6
CONTINUOUS
10
68.6146590000000032
20
-55.0068959999999976
11
68.658970999999994
21
-55.4345229999999987
0
LINE
8
BLACK
6
CONTINUOUS
10
68.658970999999994
20
-55.4345229999999987
11
68.6675589999999971
21
-55.8627459999999942
0
LINE
8
BLACK
6
CONTINUOUS
10
68.6675589999999971
20
-55.8627459999999942
11
68.6676109999999937
21
-55.8628879999999981
0
LINE
8
BLACK
6
CONTINUOUS
10
68.6676109999999937
20
-55.8628879999999981
11
68.6551520000000011
21
-62.0279999999999987
0
LINE
8
BLACK
6
CONTINUOUS
10
68.6551520000000011
20
-62.0279999999999987
11
79.8078100000000035
21
-62.0279999999999987
0
LINE
8
BLACK
6
CONTINUOUS
10
79.8078100000000035
20
-62.0279999999999987
11
79.6811890000000034
21
-12.0129999999999999
0
LINE
8
BLACK
6
CONTINUOUS
10
79.6811890000000034
20
-12.0129999999999999
11
12.0129999999999999
21
-12.0129999999999999
  0
ENDSEC
  0
EOF
