%TF.GenerationSoftware,KiCad,Pcbnew,7.0.10*%
%TF.CreationDate,2024-04-14T19:08:20+02:00*%
%TF.ProjectId,DIC_Addon,4449435f-4164-4646-9f6e-2e6b69636164,rev?*%
%TF.SameCoordinates,Original*%
%TF.FileFunction,Legend,Bot*%
%TF.FilePolarity,Positive*%
%FSLAX46Y46*%
G04 Gerber Fmt 4.6, Leading zero omitted, Abs format (unit mm)*
G04 Created by KiCad (PCBNEW 7.0.10) date 2024-04-14 19:08:20*
%MOMM*%
%LPD*%
G01*
G04 APERTURE LIST*
%ADD10C,0.150000*%
%ADD11C,0.120000*%
%ADD12C,0.152400*%
G04 APERTURE END LIST*
D10*
X33543713Y-28960819D02*
X32972285Y-28960819D01*
X33257999Y-29960819D02*
X33257999Y-28960819D01*
X32638951Y-29960819D02*
X32638951Y-28960819D01*
X32638951Y-29437009D02*
X32067523Y-29437009D01*
X32067523Y-29960819D02*
X32067523Y-28960819D01*
X31638951Y-29056057D02*
X31591332Y-29008438D01*
X31591332Y-29008438D02*
X31496094Y-28960819D01*
X31496094Y-28960819D02*
X31257999Y-28960819D01*
X31257999Y-28960819D02*
X31162761Y-29008438D01*
X31162761Y-29008438D02*
X31115142Y-29056057D01*
X31115142Y-29056057D02*
X31067523Y-29151295D01*
X31067523Y-29151295D02*
X31067523Y-29246533D01*
X31067523Y-29246533D02*
X31115142Y-29389390D01*
X31115142Y-29389390D02*
X31686570Y-29960819D01*
X31686570Y-29960819D02*
X31067523Y-29960819D01*
X23347819Y-36773642D02*
X22871628Y-36440309D01*
X23347819Y-36202214D02*
X22347819Y-36202214D01*
X22347819Y-36202214D02*
X22347819Y-36583166D01*
X22347819Y-36583166D02*
X22395438Y-36678404D01*
X22395438Y-36678404D02*
X22443057Y-36726023D01*
X22443057Y-36726023D02*
X22538295Y-36773642D01*
X22538295Y-36773642D02*
X22681152Y-36773642D01*
X22681152Y-36773642D02*
X22776390Y-36726023D01*
X22776390Y-36726023D02*
X22824009Y-36678404D01*
X22824009Y-36678404D02*
X22871628Y-36583166D01*
X22871628Y-36583166D02*
X22871628Y-36202214D01*
X23347819Y-37726023D02*
X23347819Y-37154595D01*
X23347819Y-37440309D02*
X22347819Y-37440309D01*
X22347819Y-37440309D02*
X22490676Y-37345071D01*
X22490676Y-37345071D02*
X22585914Y-37249833D01*
X22585914Y-37249833D02*
X22633533Y-37154595D01*
X22347819Y-38059357D02*
X22347819Y-38726023D01*
X22347819Y-38726023D02*
X23347819Y-38297452D01*
X37808819Y-25709666D02*
X38523104Y-25709666D01*
X38523104Y-25709666D02*
X38665961Y-25662047D01*
X38665961Y-25662047D02*
X38761200Y-25566809D01*
X38761200Y-25566809D02*
X38808819Y-25423952D01*
X38808819Y-25423952D02*
X38808819Y-25328714D01*
X38808819Y-26185857D02*
X37808819Y-26185857D01*
X37808819Y-26185857D02*
X37808819Y-26566809D01*
X37808819Y-26566809D02*
X37856438Y-26662047D01*
X37856438Y-26662047D02*
X37904057Y-26709666D01*
X37904057Y-26709666D02*
X37999295Y-26757285D01*
X37999295Y-26757285D02*
X38142152Y-26757285D01*
X38142152Y-26757285D02*
X38237390Y-26709666D01*
X38237390Y-26709666D02*
X38285009Y-26662047D01*
X38285009Y-26662047D02*
X38332628Y-26566809D01*
X38332628Y-26566809D02*
X38332628Y-26185857D01*
X37904057Y-27138238D02*
X37856438Y-27185857D01*
X37856438Y-27185857D02*
X37808819Y-27281095D01*
X37808819Y-27281095D02*
X37808819Y-27519190D01*
X37808819Y-27519190D02*
X37856438Y-27614428D01*
X37856438Y-27614428D02*
X37904057Y-27662047D01*
X37904057Y-27662047D02*
X37999295Y-27709666D01*
X37999295Y-27709666D02*
X38094533Y-27709666D01*
X38094533Y-27709666D02*
X38237390Y-27662047D01*
X38237390Y-27662047D02*
X38808819Y-27090619D01*
X38808819Y-27090619D02*
X38808819Y-27709666D01*
X36903819Y-24415714D02*
X36903819Y-23844286D01*
X36903819Y-24130000D02*
X35903819Y-24130000D01*
X35903819Y-24130000D02*
X36046676Y-24034762D01*
X36046676Y-24034762D02*
X36141914Y-23939524D01*
X36141914Y-23939524D02*
X36189533Y-23844286D01*
X35903819Y-28809667D02*
X35903819Y-29428714D01*
X35903819Y-29428714D02*
X36284771Y-29095381D01*
X36284771Y-29095381D02*
X36284771Y-29238238D01*
X36284771Y-29238238D02*
X36332390Y-29333476D01*
X36332390Y-29333476D02*
X36380009Y-29381095D01*
X36380009Y-29381095D02*
X36475247Y-29428714D01*
X36475247Y-29428714D02*
X36713342Y-29428714D01*
X36713342Y-29428714D02*
X36808580Y-29381095D01*
X36808580Y-29381095D02*
X36856200Y-29333476D01*
X36856200Y-29333476D02*
X36903819Y-29238238D01*
X36903819Y-29238238D02*
X36903819Y-28952524D01*
X36903819Y-28952524D02*
X36856200Y-28857286D01*
X36856200Y-28857286D02*
X36808580Y-28809667D01*
X27124819Y-37203142D02*
X26648628Y-36869809D01*
X27124819Y-36631714D02*
X26124819Y-36631714D01*
X26124819Y-36631714D02*
X26124819Y-37012666D01*
X26124819Y-37012666D02*
X26172438Y-37107904D01*
X26172438Y-37107904D02*
X26220057Y-37155523D01*
X26220057Y-37155523D02*
X26315295Y-37203142D01*
X26315295Y-37203142D02*
X26458152Y-37203142D01*
X26458152Y-37203142D02*
X26553390Y-37155523D01*
X26553390Y-37155523D02*
X26601009Y-37107904D01*
X26601009Y-37107904D02*
X26648628Y-37012666D01*
X26648628Y-37012666D02*
X26648628Y-36631714D01*
X27124819Y-38155523D02*
X27124819Y-37584095D01*
X27124819Y-37869809D02*
X26124819Y-37869809D01*
X26124819Y-37869809D02*
X26267676Y-37774571D01*
X26267676Y-37774571D02*
X26362914Y-37679333D01*
X26362914Y-37679333D02*
X26410533Y-37584095D01*
X26124819Y-38488857D02*
X26124819Y-39107904D01*
X26124819Y-39107904D02*
X26505771Y-38774571D01*
X26505771Y-38774571D02*
X26505771Y-38917428D01*
X26505771Y-38917428D02*
X26553390Y-39012666D01*
X26553390Y-39012666D02*
X26601009Y-39060285D01*
X26601009Y-39060285D02*
X26696247Y-39107904D01*
X26696247Y-39107904D02*
X26934342Y-39107904D01*
X26934342Y-39107904D02*
X27029580Y-39060285D01*
X27029580Y-39060285D02*
X27077200Y-39012666D01*
X27077200Y-39012666D02*
X27124819Y-38917428D01*
X27124819Y-38917428D02*
X27124819Y-38631714D01*
X27124819Y-38631714D02*
X27077200Y-38536476D01*
X27077200Y-38536476D02*
X27029580Y-38488857D01*
X51651819Y-25328666D02*
X52366104Y-25328666D01*
X52366104Y-25328666D02*
X52508961Y-25281047D01*
X52508961Y-25281047D02*
X52604200Y-25185809D01*
X52604200Y-25185809D02*
X52651819Y-25042952D01*
X52651819Y-25042952D02*
X52651819Y-24947714D01*
X52651819Y-25804857D02*
X51651819Y-25804857D01*
X51651819Y-25804857D02*
X51651819Y-26185809D01*
X51651819Y-26185809D02*
X51699438Y-26281047D01*
X51699438Y-26281047D02*
X51747057Y-26328666D01*
X51747057Y-26328666D02*
X51842295Y-26376285D01*
X51842295Y-26376285D02*
X51985152Y-26376285D01*
X51985152Y-26376285D02*
X52080390Y-26328666D01*
X52080390Y-26328666D02*
X52128009Y-26281047D01*
X52128009Y-26281047D02*
X52175628Y-26185809D01*
X52175628Y-26185809D02*
X52175628Y-25804857D01*
X51985152Y-27233428D02*
X52651819Y-27233428D01*
X51604200Y-26995333D02*
X52318485Y-26757238D01*
X52318485Y-26757238D02*
X52318485Y-27376285D01*
X49746819Y-28428667D02*
X49746819Y-29047714D01*
X49746819Y-29047714D02*
X50127771Y-28714381D01*
X50127771Y-28714381D02*
X50127771Y-28857238D01*
X50127771Y-28857238D02*
X50175390Y-28952476D01*
X50175390Y-28952476D02*
X50223009Y-29000095D01*
X50223009Y-29000095D02*
X50318247Y-29047714D01*
X50318247Y-29047714D02*
X50556342Y-29047714D01*
X50556342Y-29047714D02*
X50651580Y-29000095D01*
X50651580Y-29000095D02*
X50699200Y-28952476D01*
X50699200Y-28952476D02*
X50746819Y-28857238D01*
X50746819Y-28857238D02*
X50746819Y-28571524D01*
X50746819Y-28571524D02*
X50699200Y-28476286D01*
X50699200Y-28476286D02*
X50651580Y-28428667D01*
X50746819Y-24034714D02*
X50746819Y-23463286D01*
X50746819Y-23749000D02*
X49746819Y-23749000D01*
X49746819Y-23749000D02*
X49889676Y-23653762D01*
X49889676Y-23653762D02*
X49984914Y-23558524D01*
X49984914Y-23558524D02*
X50032533Y-23463286D01*
X57888094Y-24584819D02*
X57888094Y-23584819D01*
X57888094Y-23584819D02*
X57649999Y-23584819D01*
X57649999Y-23584819D02*
X57507142Y-23632438D01*
X57507142Y-23632438D02*
X57411904Y-23727676D01*
X57411904Y-23727676D02*
X57364285Y-23822914D01*
X57364285Y-23822914D02*
X57316666Y-24013390D01*
X57316666Y-24013390D02*
X57316666Y-24156247D01*
X57316666Y-24156247D02*
X57364285Y-24346723D01*
X57364285Y-24346723D02*
X57411904Y-24441961D01*
X57411904Y-24441961D02*
X57507142Y-24537200D01*
X57507142Y-24537200D02*
X57649999Y-24584819D01*
X57649999Y-24584819D02*
X57888094Y-24584819D01*
X56459523Y-23918152D02*
X56459523Y-24584819D01*
X56697618Y-23537200D02*
X56935713Y-24251485D01*
X56935713Y-24251485D02*
X56316666Y-24251485D01*
G36*
X60848621Y-39322672D02*
G01*
X60877142Y-39379714D01*
X60877142Y-39460999D01*
X60550952Y-39395761D01*
X60550952Y-39379714D01*
X60579472Y-39322672D01*
X60636514Y-39294152D01*
X60791580Y-39294152D01*
X60848621Y-39322672D01*
G37*
G36*
X62764858Y-39328410D02*
G01*
X62795265Y-39358817D01*
X62829523Y-39427333D01*
X62829523Y-39677637D01*
X62795264Y-39746153D01*
X62764857Y-39776561D01*
X62696342Y-39810819D01*
X62588895Y-39810819D01*
X62520379Y-39776561D01*
X62489972Y-39746153D01*
X62455714Y-39677637D01*
X62455714Y-39427333D01*
X62489972Y-39358817D01*
X62520379Y-39328410D01*
X62588895Y-39294152D01*
X62696342Y-39294152D01*
X62764858Y-39328410D01*
G37*
G36*
X63781904Y-39334628D02*
G01*
X63493657Y-39334628D01*
X63425141Y-39300370D01*
X63394734Y-39269963D01*
X63360476Y-39201447D01*
X63360476Y-39094000D01*
X63394734Y-39025484D01*
X63425141Y-38995077D01*
X63493657Y-38960819D01*
X63781904Y-38960819D01*
X63781904Y-39334628D01*
G37*
G36*
X67455714Y-40198914D02*
G01*
X58687805Y-40198914D01*
X58687805Y-39968033D01*
X64021139Y-39968033D01*
X64030048Y-40018557D01*
X64069348Y-40051534D01*
X64095000Y-40056057D01*
X64856905Y-40056057D01*
X64905114Y-40038510D01*
X64930766Y-39994081D01*
X64921857Y-39943557D01*
X64882557Y-39910580D01*
X64856905Y-39906057D01*
X64095000Y-39906057D01*
X64046791Y-39923604D01*
X64021139Y-39968033D01*
X58687805Y-39968033D01*
X58687805Y-39872795D01*
X58830662Y-39872795D01*
X58839571Y-39923319D01*
X58878871Y-39956296D01*
X58904523Y-39960819D01*
X59475951Y-39960819D01*
X59524160Y-39943272D01*
X59549812Y-39898843D01*
X59540903Y-39848319D01*
X59501603Y-39815342D01*
X59475951Y-39810819D01*
X59265237Y-39810819D01*
X59265237Y-39114504D01*
X59327680Y-39176947D01*
X59329161Y-39177637D01*
X59347172Y-39190996D01*
X59442410Y-39238615D01*
X59493376Y-39244480D01*
X59536189Y-39216214D01*
X59539189Y-39206128D01*
X59687805Y-39206128D01*
X59696714Y-39256652D01*
X59736014Y-39289629D01*
X59761666Y-39294152D01*
X59839199Y-39294152D01*
X59907715Y-39328410D01*
X59938122Y-39358817D01*
X59972380Y-39427333D01*
X59972380Y-39885819D01*
X59989927Y-39934028D01*
X60034356Y-39959680D01*
X60084880Y-39950771D01*
X60117857Y-39911471D01*
X60122380Y-39885819D01*
X60122380Y-39457247D01*
X60400952Y-39457247D01*
X60405190Y-39468891D01*
X60404907Y-39481281D01*
X60413693Y-39492251D01*
X60418499Y-39505456D01*
X60429228Y-39511650D01*
X60436976Y-39521325D01*
X60461243Y-39530791D01*
X60877142Y-39613969D01*
X60877142Y-39725256D01*
X60848621Y-39782298D01*
X60791580Y-39810819D01*
X60636514Y-39810819D01*
X60557112Y-39771118D01*
X60506145Y-39765253D01*
X60463332Y-39793519D01*
X60448706Y-39842694D01*
X60469109Y-39889765D01*
X60490030Y-39905282D01*
X60585268Y-39952901D01*
X60589721Y-39953413D01*
X60593157Y-39956296D01*
X60618809Y-39960819D01*
X60809285Y-39960819D01*
X60813498Y-39959285D01*
X60817859Y-39960327D01*
X60842826Y-39952901D01*
X60938064Y-39905282D01*
X60945783Y-39897128D01*
X60956088Y-39892662D01*
X60971605Y-39871741D01*
X61019224Y-39776502D01*
X61019736Y-39772048D01*
X61022619Y-39768613D01*
X61027142Y-39742961D01*
X61027142Y-39362009D01*
X61025608Y-39357795D01*
X61026650Y-39353434D01*
X61019224Y-39328468D01*
X60971605Y-39233230D01*
X60963451Y-39225510D01*
X60958985Y-39215206D01*
X60957154Y-39213848D01*
X61210664Y-39213848D01*
X61213362Y-39239756D01*
X61403838Y-39906423D01*
X61404752Y-39907684D01*
X61404704Y-39909242D01*
X61419714Y-39928318D01*
X61433954Y-39947957D01*
X61435464Y-39948335D01*
X61436428Y-39949560D01*
X61460183Y-39954523D01*
X61483720Y-39960416D01*
X61485121Y-39959734D01*
X61486647Y-39960053D01*
X61508035Y-39948585D01*
X61529853Y-39937970D01*
X61530488Y-39936547D01*
X61531861Y-39935811D01*
X61545588Y-39913673D01*
X61666428Y-39611572D01*
X61787268Y-39913673D01*
X61788307Y-39914835D01*
X61788418Y-39916390D01*
X61805292Y-39933831D01*
X61821464Y-39951917D01*
X61823005Y-39952139D01*
X61824090Y-39953260D01*
X61848232Y-39955774D01*
X61872243Y-39959234D01*
X61873567Y-39958412D01*
X61875117Y-39958574D01*
X61895227Y-39944981D01*
X61915844Y-39932198D01*
X61916330Y-39930719D01*
X61917622Y-39929846D01*
X61929018Y-39906423D01*
X61989327Y-39695342D01*
X62305714Y-39695342D01*
X62307247Y-39699555D01*
X62306206Y-39703916D01*
X62313632Y-39728883D01*
X62361251Y-39824121D01*
X62362439Y-39825246D01*
X62375299Y-39843612D01*
X62422918Y-39891232D01*
X62424399Y-39891922D01*
X62442411Y-39905282D01*
X62537649Y-39952901D01*
X62542102Y-39953413D01*
X62545538Y-39956296D01*
X62571190Y-39960819D01*
X62714047Y-39960819D01*
X62718260Y-39959285D01*
X62722621Y-39960327D01*
X62747588Y-39952901D01*
X62842826Y-39905282D01*
X62843950Y-39904094D01*
X62862319Y-39891232D01*
X62909937Y-39843613D01*
X62910627Y-39842131D01*
X62923986Y-39824121D01*
X62971605Y-39728883D01*
X62972117Y-39724429D01*
X62975000Y-39720994D01*
X62979523Y-39695342D01*
X62979523Y-39409628D01*
X62977989Y-39405414D01*
X62979031Y-39401053D01*
X62971605Y-39376087D01*
X62923986Y-39280849D01*
X62922796Y-39279723D01*
X62909937Y-39261357D01*
X62867732Y-39219152D01*
X63210476Y-39219152D01*
X63212009Y-39223365D01*
X63210968Y-39227726D01*
X63218394Y-39252693D01*
X63266013Y-39347931D01*
X63267202Y-39349056D01*
X63280062Y-39367423D01*
X63327681Y-39415042D01*
X63329162Y-39415733D01*
X63347173Y-39429091D01*
X63442411Y-39476710D01*
X63446864Y-39477222D01*
X63450300Y-39480105D01*
X63475952Y-39484628D01*
X63781904Y-39484628D01*
X63781904Y-39885819D01*
X63799451Y-39934028D01*
X63843880Y-39959680D01*
X63894404Y-39950771D01*
X63927381Y-39911471D01*
X63931904Y-39885819D01*
X63931904Y-38885819D01*
X63927164Y-38872795D01*
X64878282Y-38872795D01*
X64887191Y-38923319D01*
X64926491Y-38956296D01*
X64952143Y-38960819D01*
X65162857Y-38960819D01*
X65162857Y-39885819D01*
X65180404Y-39934028D01*
X65224833Y-39959680D01*
X65275357Y-39950771D01*
X65308334Y-39911471D01*
X65311404Y-39894062D01*
X65687122Y-39894062D01*
X65709860Y-39940051D01*
X65756840Y-39960664D01*
X65806078Y-39946256D01*
X65824071Y-39927421D01*
X66095000Y-39521027D01*
X66365929Y-39927421D01*
X66407271Y-39957800D01*
X66458467Y-39954499D01*
X66495564Y-39919061D01*
X66500680Y-39872795D01*
X66687806Y-39872795D01*
X66696715Y-39923319D01*
X66736015Y-39956296D01*
X66761667Y-39960819D01*
X67237857Y-39960819D01*
X67256165Y-39954155D01*
X67275357Y-39950771D01*
X67279707Y-39945586D01*
X67286066Y-39943272D01*
X67295808Y-39926398D01*
X67308334Y-39911471D01*
X67310051Y-39901728D01*
X67311718Y-39898843D01*
X67311139Y-39895560D01*
X67312857Y-39885819D01*
X67312857Y-38885819D01*
X67306193Y-38867510D01*
X67302809Y-38848319D01*
X67297624Y-38843968D01*
X67295310Y-38837610D01*
X67278436Y-38827867D01*
X67263509Y-38815342D01*
X67253766Y-38813624D01*
X67250881Y-38811958D01*
X67247598Y-38812536D01*
X67237857Y-38810819D01*
X66761667Y-38810819D01*
X66713458Y-38828366D01*
X66687806Y-38872795D01*
X66696715Y-38923319D01*
X66736015Y-38956296D01*
X66761667Y-38960819D01*
X67162857Y-38960819D01*
X67162857Y-39287009D01*
X66904524Y-39287009D01*
X66856315Y-39304556D01*
X66830663Y-39348985D01*
X66839572Y-39399509D01*
X66878872Y-39432486D01*
X66904524Y-39437009D01*
X67162857Y-39437009D01*
X67162857Y-39810819D01*
X66761667Y-39810819D01*
X66713458Y-39828366D01*
X66687806Y-39872795D01*
X66500680Y-39872795D01*
X66501203Y-39868069D01*
X66490737Y-39844216D01*
X66185139Y-39385819D01*
X66490737Y-38927422D01*
X66502878Y-38877576D01*
X66480140Y-38831587D01*
X66433160Y-38810974D01*
X66383922Y-38825382D01*
X66365929Y-38844217D01*
X66095000Y-39250610D01*
X65824071Y-38844217D01*
X65782729Y-38813838D01*
X65731533Y-38817139D01*
X65694436Y-38852577D01*
X65688797Y-38903569D01*
X65699263Y-38927421D01*
X66004861Y-39385819D01*
X65699263Y-39844217D01*
X65687122Y-39894062D01*
X65311404Y-39894062D01*
X65312857Y-39885819D01*
X65312857Y-38960819D01*
X65523571Y-38960819D01*
X65571780Y-38943272D01*
X65597432Y-38898843D01*
X65588523Y-38848319D01*
X65549223Y-38815342D01*
X65523571Y-38810819D01*
X64952143Y-38810819D01*
X64903934Y-38828366D01*
X64878282Y-38872795D01*
X63927164Y-38872795D01*
X63925240Y-38867510D01*
X63921856Y-38848319D01*
X63916671Y-38843968D01*
X63914357Y-38837610D01*
X63897483Y-38827867D01*
X63882556Y-38815342D01*
X63872813Y-38813624D01*
X63869928Y-38811958D01*
X63866645Y-38812536D01*
X63856904Y-38810819D01*
X63475952Y-38810819D01*
X63471738Y-38812352D01*
X63467377Y-38811311D01*
X63442411Y-38818737D01*
X63347173Y-38866356D01*
X63346047Y-38867545D01*
X63327681Y-38880405D01*
X63280062Y-38928024D01*
X63279371Y-38929505D01*
X63266013Y-38947516D01*
X63218394Y-39042754D01*
X63217881Y-39047207D01*
X63214999Y-39050643D01*
X63210476Y-39076295D01*
X63210476Y-39219152D01*
X62867732Y-39219152D01*
X62862318Y-39213738D01*
X62860836Y-39213047D01*
X62842826Y-39199689D01*
X62747588Y-39152070D01*
X62743134Y-39151557D01*
X62739699Y-39148675D01*
X62714047Y-39144152D01*
X62571190Y-39144152D01*
X62566976Y-39145685D01*
X62562615Y-39144644D01*
X62537649Y-39152070D01*
X62442411Y-39199689D01*
X62441285Y-39200878D01*
X62422919Y-39213738D01*
X62375300Y-39261357D01*
X62374609Y-39262838D01*
X62361251Y-39280849D01*
X62313632Y-39376087D01*
X62313119Y-39380540D01*
X62310237Y-39383976D01*
X62305714Y-39409628D01*
X62305714Y-39695342D01*
X61989327Y-39695342D01*
X62119494Y-39239756D01*
X62115866Y-39188581D01*
X62080194Y-39151711D01*
X62029166Y-39146397D01*
X61986662Y-39175126D01*
X61975266Y-39198548D01*
X61845060Y-39654266D01*
X61736064Y-39381774D01*
X61720447Y-39364309D01*
X61705952Y-39345887D01*
X61703520Y-39345378D01*
X61701867Y-39343530D01*
X61678673Y-39340187D01*
X61655733Y-39335395D01*
X61653546Y-39336567D01*
X61651089Y-39336213D01*
X61631171Y-39348563D01*
X61610519Y-39359636D01*
X61608772Y-39362452D01*
X61607488Y-39363249D01*
X61606595Y-39365963D01*
X61596792Y-39381774D01*
X61487795Y-39654266D01*
X61357590Y-39198548D01*
X61327474Y-39157014D01*
X61277708Y-39144555D01*
X61231575Y-39167001D01*
X61210664Y-39213848D01*
X60957154Y-39213848D01*
X60938064Y-39199689D01*
X60842826Y-39152070D01*
X60838372Y-39151557D01*
X60834937Y-39148675D01*
X60809285Y-39144152D01*
X60618809Y-39144152D01*
X60614595Y-39145685D01*
X60610234Y-39144644D01*
X60585268Y-39152070D01*
X60490030Y-39199689D01*
X60482310Y-39207842D01*
X60472006Y-39212309D01*
X60456489Y-39233230D01*
X60408870Y-39328468D01*
X60408357Y-39332921D01*
X60405475Y-39336357D01*
X60400952Y-39362009D01*
X60400952Y-39457247D01*
X60122380Y-39457247D01*
X60122380Y-39219152D01*
X60104833Y-39170943D01*
X60060404Y-39145291D01*
X60009880Y-39154200D01*
X59976903Y-39193500D01*
X59976611Y-39195153D01*
X59890445Y-39152070D01*
X59885991Y-39151557D01*
X59882556Y-39148675D01*
X59856904Y-39144152D01*
X59761666Y-39144152D01*
X59713457Y-39161699D01*
X59687805Y-39206128D01*
X59539189Y-39206128D01*
X59550816Y-39167039D01*
X59530413Y-39119968D01*
X59509492Y-39104451D01*
X59425140Y-39062275D01*
X59343759Y-38980894D01*
X59252641Y-38844216D01*
X59249164Y-38841661D01*
X59247690Y-38837610D01*
X59228840Y-38826726D01*
X59211299Y-38813837D01*
X59206996Y-38814114D01*
X59203261Y-38811958D01*
X59181823Y-38815738D01*
X59160103Y-38817139D01*
X59156984Y-38820118D01*
X59152737Y-38820867D01*
X59138744Y-38837542D01*
X59123006Y-38852577D01*
X59122531Y-38856863D01*
X59119760Y-38860167D01*
X59115237Y-38885819D01*
X59115237Y-39810819D01*
X58904523Y-39810819D01*
X58856314Y-39828366D01*
X58830662Y-39872795D01*
X58687805Y-39872795D01*
X58687805Y-38667962D01*
X67455714Y-38667962D01*
X67455714Y-40198914D01*
G37*
X25153857Y-27886819D02*
X25487190Y-27410628D01*
X25725285Y-27886819D02*
X25725285Y-26886819D01*
X25725285Y-26886819D02*
X25344333Y-26886819D01*
X25344333Y-26886819D02*
X25249095Y-26934438D01*
X25249095Y-26934438D02*
X25201476Y-26982057D01*
X25201476Y-26982057D02*
X25153857Y-27077295D01*
X25153857Y-27077295D02*
X25153857Y-27220152D01*
X25153857Y-27220152D02*
X25201476Y-27315390D01*
X25201476Y-27315390D02*
X25249095Y-27363009D01*
X25249095Y-27363009D02*
X25344333Y-27410628D01*
X25344333Y-27410628D02*
X25725285Y-27410628D01*
X24772904Y-26982057D02*
X24725285Y-26934438D01*
X24725285Y-26934438D02*
X24630047Y-26886819D01*
X24630047Y-26886819D02*
X24391952Y-26886819D01*
X24391952Y-26886819D02*
X24296714Y-26934438D01*
X24296714Y-26934438D02*
X24249095Y-26982057D01*
X24249095Y-26982057D02*
X24201476Y-27077295D01*
X24201476Y-27077295D02*
X24201476Y-27172533D01*
X24201476Y-27172533D02*
X24249095Y-27315390D01*
X24249095Y-27315390D02*
X24820523Y-27886819D01*
X24820523Y-27886819D02*
X24201476Y-27886819D01*
X23249095Y-27886819D02*
X23820523Y-27886819D01*
X23534809Y-27886819D02*
X23534809Y-26886819D01*
X23534809Y-26886819D02*
X23630047Y-27029676D01*
X23630047Y-27029676D02*
X23725285Y-27124914D01*
X23725285Y-27124914D02*
X23820523Y-27172533D01*
X53252666Y-14424819D02*
X53585999Y-13948628D01*
X53824094Y-14424819D02*
X53824094Y-13424819D01*
X53824094Y-13424819D02*
X53443142Y-13424819D01*
X53443142Y-13424819D02*
X53347904Y-13472438D01*
X53347904Y-13472438D02*
X53300285Y-13520057D01*
X53300285Y-13520057D02*
X53252666Y-13615295D01*
X53252666Y-13615295D02*
X53252666Y-13758152D01*
X53252666Y-13758152D02*
X53300285Y-13853390D01*
X53300285Y-13853390D02*
X53347904Y-13901009D01*
X53347904Y-13901009D02*
X53443142Y-13948628D01*
X53443142Y-13948628D02*
X53824094Y-13948628D01*
X52919332Y-13424819D02*
X52300285Y-13424819D01*
X52300285Y-13424819D02*
X52633618Y-13805771D01*
X52633618Y-13805771D02*
X52490761Y-13805771D01*
X52490761Y-13805771D02*
X52395523Y-13853390D01*
X52395523Y-13853390D02*
X52347904Y-13901009D01*
X52347904Y-13901009D02*
X52300285Y-13996247D01*
X52300285Y-13996247D02*
X52300285Y-14234342D01*
X52300285Y-14234342D02*
X52347904Y-14329580D01*
X52347904Y-14329580D02*
X52395523Y-14377200D01*
X52395523Y-14377200D02*
X52490761Y-14424819D01*
X52490761Y-14424819D02*
X52776475Y-14424819D01*
X52776475Y-14424819D02*
X52871713Y-14377200D01*
X52871713Y-14377200D02*
X52919332Y-14329580D01*
X26773094Y-29410819D02*
X26773094Y-28410819D01*
X26773094Y-28410819D02*
X26534999Y-28410819D01*
X26534999Y-28410819D02*
X26392142Y-28458438D01*
X26392142Y-28458438D02*
X26296904Y-28553676D01*
X26296904Y-28553676D02*
X26249285Y-28648914D01*
X26249285Y-28648914D02*
X26201666Y-28839390D01*
X26201666Y-28839390D02*
X26201666Y-28982247D01*
X26201666Y-28982247D02*
X26249285Y-29172723D01*
X26249285Y-29172723D02*
X26296904Y-29267961D01*
X26296904Y-29267961D02*
X26392142Y-29363200D01*
X26392142Y-29363200D02*
X26534999Y-29410819D01*
X26534999Y-29410819D02*
X26773094Y-29410819D01*
X25249285Y-29410819D02*
X25820713Y-29410819D01*
X25534999Y-29410819D02*
X25534999Y-28410819D01*
X25534999Y-28410819D02*
X25630237Y-28553676D01*
X25630237Y-28553676D02*
X25725475Y-28648914D01*
X25725475Y-28648914D02*
X25820713Y-28696533D01*
G36*
X23942668Y-25678410D02*
G01*
X23973075Y-25708817D01*
X24007333Y-25777333D01*
X24007333Y-26027637D01*
X23973074Y-26096153D01*
X23942667Y-26126561D01*
X23874152Y-26160819D01*
X23766705Y-26160819D01*
X23698189Y-26126561D01*
X23667782Y-26096153D01*
X23633524Y-26027637D01*
X23633524Y-25777333D01*
X23667782Y-25708817D01*
X23698189Y-25678410D01*
X23766705Y-25644152D01*
X23874152Y-25644152D01*
X23942668Y-25678410D01*
G37*
G36*
X25323620Y-25678410D02*
G01*
X25354027Y-25708817D01*
X25388285Y-25777333D01*
X25388285Y-26027637D01*
X25354026Y-26096153D01*
X25323619Y-26126561D01*
X25255104Y-26160819D01*
X25100038Y-26160819D01*
X25062095Y-26141847D01*
X25062095Y-25663123D01*
X25100038Y-25644152D01*
X25255104Y-25644152D01*
X25323620Y-25678410D01*
G37*
G36*
X25987095Y-25929866D02*
G01*
X26207485Y-25929866D01*
X26264526Y-25958386D01*
X26293047Y-26015428D01*
X26293047Y-26075256D01*
X26264526Y-26132298D01*
X26207485Y-26160819D01*
X26004800Y-26160819D01*
X25966857Y-26141847D01*
X25966857Y-25926297D01*
X25987095Y-25929866D01*
G37*
G36*
X27245428Y-25684628D02*
G01*
X26957181Y-25684628D01*
X26888665Y-25650370D01*
X26858258Y-25619963D01*
X26824000Y-25551447D01*
X26824000Y-25444000D01*
X26858258Y-25375484D01*
X26888665Y-25345077D01*
X26957181Y-25310819D01*
X27245428Y-25310819D01*
X27245428Y-25684628D01*
G37*
G36*
X27538285Y-26548914D02*
G01*
X19913234Y-26548914D01*
X19913234Y-26318033D01*
X22532282Y-26318033D01*
X22541191Y-26368557D01*
X22580491Y-26401534D01*
X22606143Y-26406057D01*
X23368048Y-26406057D01*
X23416257Y-26388510D01*
X23441909Y-26344081D01*
X23433000Y-26293557D01*
X23393700Y-26260580D01*
X23368048Y-26256057D01*
X22606143Y-26256057D01*
X22557934Y-26273604D01*
X22532282Y-26318033D01*
X19913234Y-26318033D01*
X19913234Y-26222795D01*
X20056091Y-26222795D01*
X20065000Y-26273319D01*
X20104300Y-26306296D01*
X20129952Y-26310819D01*
X20701380Y-26310819D01*
X20749589Y-26293272D01*
X20775241Y-26248843D01*
X20774398Y-26244062D01*
X20960169Y-26244062D01*
X20982907Y-26290051D01*
X21029887Y-26310664D01*
X21079125Y-26296256D01*
X21097118Y-26277421D01*
X21368047Y-25871027D01*
X21638976Y-26277421D01*
X21680318Y-26307800D01*
X21731514Y-26304499D01*
X21768611Y-26269061D01*
X21774250Y-26218069D01*
X21763784Y-26194216D01*
X21458186Y-25735819D01*
X21763784Y-25277422D01*
X21775925Y-25227576D01*
X21773561Y-25222795D01*
X21865615Y-25222795D01*
X21874524Y-25273319D01*
X21913824Y-25306296D01*
X21939476Y-25310819D01*
X22150190Y-25310819D01*
X22150190Y-26235819D01*
X22167737Y-26284028D01*
X22212166Y-26309680D01*
X22262690Y-26300771D01*
X22295667Y-26261471D01*
X22300190Y-26235819D01*
X22300190Y-26045342D01*
X23483524Y-26045342D01*
X23485057Y-26049555D01*
X23484016Y-26053916D01*
X23491442Y-26078883D01*
X23539061Y-26174121D01*
X23540249Y-26175246D01*
X23553109Y-26193612D01*
X23600728Y-26241232D01*
X23602209Y-26241922D01*
X23620221Y-26255282D01*
X23715459Y-26302901D01*
X23719912Y-26303413D01*
X23723348Y-26306296D01*
X23749000Y-26310819D01*
X23891857Y-26310819D01*
X23896070Y-26309285D01*
X23900431Y-26310327D01*
X23925398Y-26302901D01*
X24020636Y-26255282D01*
X24021760Y-26254094D01*
X24040129Y-26241232D01*
X24045542Y-26235819D01*
X24435904Y-26235819D01*
X24453451Y-26284028D01*
X24497880Y-26309680D01*
X24548404Y-26300771D01*
X24581381Y-26261471D01*
X24585904Y-26235819D01*
X24912095Y-26235819D01*
X24929642Y-26284028D01*
X24974071Y-26309680D01*
X25024595Y-26300771D01*
X25030487Y-26293748D01*
X25048792Y-26302901D01*
X25053245Y-26303413D01*
X25056681Y-26306296D01*
X25082333Y-26310819D01*
X25272809Y-26310819D01*
X25277022Y-26309285D01*
X25281383Y-26310327D01*
X25306350Y-26302901D01*
X25401588Y-26255282D01*
X25402712Y-26254094D01*
X25421081Y-26241232D01*
X25426494Y-26235819D01*
X25816857Y-26235819D01*
X25834404Y-26284028D01*
X25878833Y-26309680D01*
X25929357Y-26300771D01*
X25935249Y-26293748D01*
X25953554Y-26302901D01*
X25958007Y-26303413D01*
X25961443Y-26306296D01*
X25987095Y-26310819D01*
X26225190Y-26310819D01*
X26229403Y-26309285D01*
X26233764Y-26310327D01*
X26258731Y-26302901D01*
X26353969Y-26255282D01*
X26361688Y-26247128D01*
X26371993Y-26242662D01*
X26387510Y-26221741D01*
X26435129Y-26126502D01*
X26435641Y-26122048D01*
X26438524Y-26118613D01*
X26443047Y-26092961D01*
X26443047Y-25997723D01*
X26441513Y-25993509D01*
X26442555Y-25989148D01*
X26435129Y-25964182D01*
X26387510Y-25868944D01*
X26379356Y-25861224D01*
X26374890Y-25850920D01*
X26353969Y-25835403D01*
X26258731Y-25787784D01*
X26254277Y-25787271D01*
X26250842Y-25784389D01*
X26225190Y-25779866D01*
X26004800Y-25779866D01*
X25966857Y-25760894D01*
X25966857Y-25729714D01*
X25995377Y-25672672D01*
X26052419Y-25644152D01*
X26207485Y-25644152D01*
X26286887Y-25683853D01*
X26337853Y-25689718D01*
X26380666Y-25661452D01*
X26395293Y-25612277D01*
X26376600Y-25569152D01*
X26674000Y-25569152D01*
X26675533Y-25573365D01*
X26674492Y-25577726D01*
X26681918Y-25602693D01*
X26729537Y-25697931D01*
X26730726Y-25699056D01*
X26743586Y-25717423D01*
X26791205Y-25765042D01*
X26792686Y-25765733D01*
X26810697Y-25779091D01*
X26905935Y-25826710D01*
X26910388Y-25827222D01*
X26913824Y-25830105D01*
X26938415Y-25834440D01*
X26687558Y-26192809D01*
X26674287Y-26242366D01*
X26695974Y-26288860D01*
X26742474Y-26310535D01*
X26792027Y-26297250D01*
X26810442Y-26278829D01*
X27121382Y-25834628D01*
X27245428Y-25834628D01*
X27245428Y-26235819D01*
X27262975Y-26284028D01*
X27307404Y-26309680D01*
X27357928Y-26300771D01*
X27390905Y-26261471D01*
X27395428Y-26235819D01*
X27395428Y-25235819D01*
X27388764Y-25217510D01*
X27385380Y-25198319D01*
X27380195Y-25193968D01*
X27377881Y-25187610D01*
X27361007Y-25177867D01*
X27346080Y-25165342D01*
X27336337Y-25163624D01*
X27333452Y-25161958D01*
X27330169Y-25162536D01*
X27320428Y-25160819D01*
X26939476Y-25160819D01*
X26935262Y-25162352D01*
X26930901Y-25161311D01*
X26905935Y-25168737D01*
X26810697Y-25216356D01*
X26809571Y-25217545D01*
X26791205Y-25230405D01*
X26743586Y-25278024D01*
X26742895Y-25279505D01*
X26729537Y-25297516D01*
X26681918Y-25392754D01*
X26681405Y-25397207D01*
X26678523Y-25400643D01*
X26674000Y-25426295D01*
X26674000Y-25569152D01*
X26376600Y-25569152D01*
X26374890Y-25565206D01*
X26353969Y-25549689D01*
X26258731Y-25502070D01*
X26254277Y-25501557D01*
X26250842Y-25498675D01*
X26225190Y-25494152D01*
X26034714Y-25494152D01*
X26030500Y-25495685D01*
X26026139Y-25494644D01*
X26001173Y-25502070D01*
X25905935Y-25549689D01*
X25898215Y-25557842D01*
X25887911Y-25562309D01*
X25872394Y-25583230D01*
X25824775Y-25678468D01*
X25824262Y-25682921D01*
X25821380Y-25686357D01*
X25816857Y-25712009D01*
X25816857Y-26235819D01*
X25426494Y-26235819D01*
X25468699Y-26193613D01*
X25469389Y-26192131D01*
X25482748Y-26174121D01*
X25530367Y-26078883D01*
X25530879Y-26074429D01*
X25533762Y-26070994D01*
X25538285Y-26045342D01*
X25538285Y-25759628D01*
X25536751Y-25755414D01*
X25537793Y-25751053D01*
X25530367Y-25726087D01*
X25482748Y-25630849D01*
X25481558Y-25629723D01*
X25468699Y-25611357D01*
X25421080Y-25563738D01*
X25419598Y-25563047D01*
X25401588Y-25549689D01*
X25306350Y-25502070D01*
X25301896Y-25501557D01*
X25298461Y-25498675D01*
X25272809Y-25494152D01*
X25082333Y-25494152D01*
X25078119Y-25495685D01*
X25073758Y-25494644D01*
X25062095Y-25498113D01*
X25062095Y-25235819D01*
X25044548Y-25187610D01*
X25000119Y-25161958D01*
X24949595Y-25170867D01*
X24916618Y-25210167D01*
X24912095Y-25235819D01*
X24912095Y-26235819D01*
X24585904Y-26235819D01*
X24585904Y-25569152D01*
X24568357Y-25520943D01*
X24523928Y-25495291D01*
X24473404Y-25504200D01*
X24440427Y-25543500D01*
X24435904Y-25569152D01*
X24435904Y-26235819D01*
X24045542Y-26235819D01*
X24087747Y-26193613D01*
X24088437Y-26192131D01*
X24101796Y-26174121D01*
X24149415Y-26078883D01*
X24149927Y-26074429D01*
X24152810Y-26070994D01*
X24157333Y-26045342D01*
X24157333Y-25759628D01*
X24155799Y-25755414D01*
X24156841Y-25751053D01*
X24149415Y-25726087D01*
X24101796Y-25630849D01*
X24100606Y-25629723D01*
X24087747Y-25611357D01*
X24040128Y-25563738D01*
X24038646Y-25563047D01*
X24020636Y-25549689D01*
X23925398Y-25502070D01*
X23920944Y-25501557D01*
X23917509Y-25498675D01*
X23891857Y-25494152D01*
X23749000Y-25494152D01*
X23744786Y-25495685D01*
X23740425Y-25494644D01*
X23715459Y-25502070D01*
X23620221Y-25549689D01*
X23619095Y-25550878D01*
X23600729Y-25563738D01*
X23553110Y-25611357D01*
X23552419Y-25612838D01*
X23539061Y-25630849D01*
X23491442Y-25726087D01*
X23490929Y-25730540D01*
X23488047Y-25733976D01*
X23483524Y-25759628D01*
X23483524Y-26045342D01*
X22300190Y-26045342D01*
X22300190Y-25310819D01*
X22510904Y-25310819D01*
X22559113Y-25293272D01*
X22568565Y-25276902D01*
X24388571Y-25276902D01*
X24393613Y-25295721D01*
X24395312Y-25315134D01*
X24400985Y-25323236D01*
X24401848Y-25326456D01*
X24404578Y-25328367D01*
X24410252Y-25336471D01*
X24457871Y-25384090D01*
X24475529Y-25392323D01*
X24491493Y-25403502D01*
X24494909Y-25403203D01*
X24497880Y-25404918D01*
X24501259Y-25404322D01*
X24504367Y-25405771D01*
X24523186Y-25400728D01*
X24542600Y-25399030D01*
X24546413Y-25396360D01*
X24548404Y-25396009D01*
X24550525Y-25393480D01*
X24550702Y-25393356D01*
X24553922Y-25392494D01*
X24555833Y-25389764D01*
X24563937Y-25384090D01*
X24611556Y-25336471D01*
X24619791Y-25318810D01*
X24630967Y-25302849D01*
X24630377Y-25296107D01*
X24633237Y-25289975D01*
X24628194Y-25271153D01*
X24626496Y-25251742D01*
X24620822Y-25243639D01*
X24619960Y-25240420D01*
X24617230Y-25238508D01*
X24611556Y-25230405D01*
X24563937Y-25182786D01*
X24546276Y-25174551D01*
X24530315Y-25163375D01*
X24526899Y-25163673D01*
X24523928Y-25161958D01*
X24520547Y-25162554D01*
X24517440Y-25161105D01*
X24498618Y-25166147D01*
X24479208Y-25167846D01*
X24475394Y-25170515D01*
X24473404Y-25170867D01*
X24471282Y-25173395D01*
X24471105Y-25173519D01*
X24467886Y-25174382D01*
X24465974Y-25177112D01*
X24457871Y-25182786D01*
X24410252Y-25230405D01*
X24402018Y-25248062D01*
X24390840Y-25264027D01*
X24391430Y-25270770D01*
X24388571Y-25276902D01*
X22568565Y-25276902D01*
X22584765Y-25248843D01*
X22575856Y-25198319D01*
X22536556Y-25165342D01*
X22510904Y-25160819D01*
X21939476Y-25160819D01*
X21891267Y-25178366D01*
X21865615Y-25222795D01*
X21773561Y-25222795D01*
X21753187Y-25181587D01*
X21706207Y-25160974D01*
X21656969Y-25175382D01*
X21638976Y-25194217D01*
X21368047Y-25600610D01*
X21097118Y-25194217D01*
X21055776Y-25163838D01*
X21004580Y-25167139D01*
X20967483Y-25202577D01*
X20961844Y-25253569D01*
X20972310Y-25277421D01*
X21277908Y-25735819D01*
X20972310Y-26194217D01*
X20960169Y-26244062D01*
X20774398Y-26244062D01*
X20766332Y-26198319D01*
X20727032Y-26165342D01*
X20701380Y-26160819D01*
X20490666Y-26160819D01*
X20490666Y-25464504D01*
X20553109Y-25526947D01*
X20554590Y-25527637D01*
X20572601Y-25540996D01*
X20667839Y-25588615D01*
X20718805Y-25594480D01*
X20761618Y-25566214D01*
X20776245Y-25517039D01*
X20755842Y-25469968D01*
X20734921Y-25454451D01*
X20650569Y-25412275D01*
X20569188Y-25330894D01*
X20478070Y-25194216D01*
X20474593Y-25191661D01*
X20473119Y-25187610D01*
X20454269Y-25176726D01*
X20436728Y-25163837D01*
X20432425Y-25164114D01*
X20428690Y-25161958D01*
X20407252Y-25165738D01*
X20385532Y-25167139D01*
X20382413Y-25170118D01*
X20378166Y-25170867D01*
X20364173Y-25187542D01*
X20348435Y-25202577D01*
X20347960Y-25206863D01*
X20345189Y-25210167D01*
X20340666Y-25235819D01*
X20340666Y-26160819D01*
X20129952Y-26160819D01*
X20081743Y-26178366D01*
X20056091Y-26222795D01*
X19913234Y-26222795D01*
X19913234Y-25017962D01*
X27538285Y-25017962D01*
X27538285Y-26548914D01*
G37*
X50966666Y-21884819D02*
X51299999Y-21408628D01*
X51538094Y-21884819D02*
X51538094Y-20884819D01*
X51538094Y-20884819D02*
X51157142Y-20884819D01*
X51157142Y-20884819D02*
X51061904Y-20932438D01*
X51061904Y-20932438D02*
X51014285Y-20980057D01*
X51014285Y-20980057D02*
X50966666Y-21075295D01*
X50966666Y-21075295D02*
X50966666Y-21218152D01*
X50966666Y-21218152D02*
X51014285Y-21313390D01*
X51014285Y-21313390D02*
X51061904Y-21361009D01*
X51061904Y-21361009D02*
X51157142Y-21408628D01*
X51157142Y-21408628D02*
X51538094Y-21408628D01*
X50109523Y-21218152D02*
X50109523Y-21884819D01*
X50347618Y-20837200D02*
X50585713Y-21551485D01*
X50585713Y-21551485D02*
X49966666Y-21551485D01*
X47466238Y-39285057D02*
X47561476Y-39237438D01*
X47561476Y-39237438D02*
X47656714Y-39142200D01*
X47656714Y-39142200D02*
X47799571Y-38999342D01*
X47799571Y-38999342D02*
X47894809Y-38951723D01*
X47894809Y-38951723D02*
X47990047Y-38951723D01*
X47942428Y-39189819D02*
X48037666Y-39142200D01*
X48037666Y-39142200D02*
X48132904Y-39046961D01*
X48132904Y-39046961D02*
X48180523Y-38856485D01*
X48180523Y-38856485D02*
X48180523Y-38523152D01*
X48180523Y-38523152D02*
X48132904Y-38332676D01*
X48132904Y-38332676D02*
X48037666Y-38237438D01*
X48037666Y-38237438D02*
X47942428Y-38189819D01*
X47942428Y-38189819D02*
X47751952Y-38189819D01*
X47751952Y-38189819D02*
X47656714Y-38237438D01*
X47656714Y-38237438D02*
X47561476Y-38332676D01*
X47561476Y-38332676D02*
X47513857Y-38523152D01*
X47513857Y-38523152D02*
X47513857Y-38856485D01*
X47513857Y-38856485D02*
X47561476Y-39046961D01*
X47561476Y-39046961D02*
X47656714Y-39142200D01*
X47656714Y-39142200D02*
X47751952Y-39189819D01*
X47751952Y-39189819D02*
X47942428Y-39189819D01*
X46656714Y-38189819D02*
X46847190Y-38189819D01*
X46847190Y-38189819D02*
X46942428Y-38237438D01*
X46942428Y-38237438D02*
X46990047Y-38285057D01*
X46990047Y-38285057D02*
X47085285Y-38427914D01*
X47085285Y-38427914D02*
X47132904Y-38618390D01*
X47132904Y-38618390D02*
X47132904Y-38999342D01*
X47132904Y-38999342D02*
X47085285Y-39094580D01*
X47085285Y-39094580D02*
X47037666Y-39142200D01*
X47037666Y-39142200D02*
X46942428Y-39189819D01*
X46942428Y-39189819D02*
X46751952Y-39189819D01*
X46751952Y-39189819D02*
X46656714Y-39142200D01*
X46656714Y-39142200D02*
X46609095Y-39094580D01*
X46609095Y-39094580D02*
X46561476Y-38999342D01*
X46561476Y-38999342D02*
X46561476Y-38761247D01*
X46561476Y-38761247D02*
X46609095Y-38666009D01*
X46609095Y-38666009D02*
X46656714Y-38618390D01*
X46656714Y-38618390D02*
X46751952Y-38570771D01*
X46751952Y-38570771D02*
X46942428Y-38570771D01*
X46942428Y-38570771D02*
X47037666Y-38618390D01*
X47037666Y-38618390D02*
X47085285Y-38666009D01*
X47085285Y-38666009D02*
X47132904Y-38761247D01*
X51524819Y-16438666D02*
X52239104Y-16438666D01*
X52239104Y-16438666D02*
X52381961Y-16391047D01*
X52381961Y-16391047D02*
X52477200Y-16295809D01*
X52477200Y-16295809D02*
X52524819Y-16152952D01*
X52524819Y-16152952D02*
X52524819Y-16057714D01*
X52524819Y-16914857D02*
X51524819Y-16914857D01*
X51524819Y-16914857D02*
X51524819Y-17295809D01*
X51524819Y-17295809D02*
X51572438Y-17391047D01*
X51572438Y-17391047D02*
X51620057Y-17438666D01*
X51620057Y-17438666D02*
X51715295Y-17486285D01*
X51715295Y-17486285D02*
X51858152Y-17486285D01*
X51858152Y-17486285D02*
X51953390Y-17438666D01*
X51953390Y-17438666D02*
X52001009Y-17391047D01*
X52001009Y-17391047D02*
X52048628Y-17295809D01*
X52048628Y-17295809D02*
X52048628Y-16914857D01*
X51524819Y-17819619D02*
X51524819Y-18438666D01*
X51524819Y-18438666D02*
X51905771Y-18105333D01*
X51905771Y-18105333D02*
X51905771Y-18248190D01*
X51905771Y-18248190D02*
X51953390Y-18343428D01*
X51953390Y-18343428D02*
X52001009Y-18391047D01*
X52001009Y-18391047D02*
X52096247Y-18438666D01*
X52096247Y-18438666D02*
X52334342Y-18438666D01*
X52334342Y-18438666D02*
X52429580Y-18391047D01*
X52429580Y-18391047D02*
X52477200Y-18343428D01*
X52477200Y-18343428D02*
X52524819Y-18248190D01*
X52524819Y-18248190D02*
X52524819Y-17962476D01*
X52524819Y-17962476D02*
X52477200Y-17867238D01*
X52477200Y-17867238D02*
X52429580Y-17819619D01*
X49708719Y-19538667D02*
X49708719Y-20157714D01*
X49708719Y-20157714D02*
X50089671Y-19824381D01*
X50089671Y-19824381D02*
X50089671Y-19967238D01*
X50089671Y-19967238D02*
X50137290Y-20062476D01*
X50137290Y-20062476D02*
X50184909Y-20110095D01*
X50184909Y-20110095D02*
X50280147Y-20157714D01*
X50280147Y-20157714D02*
X50518242Y-20157714D01*
X50518242Y-20157714D02*
X50613480Y-20110095D01*
X50613480Y-20110095D02*
X50661100Y-20062476D01*
X50661100Y-20062476D02*
X50708719Y-19967238D01*
X50708719Y-19967238D02*
X50708719Y-19681524D01*
X50708719Y-19681524D02*
X50661100Y-19586286D01*
X50661100Y-19586286D02*
X50613480Y-19538667D01*
X50708719Y-15144714D02*
X50708719Y-14573286D01*
X50708719Y-14859000D02*
X49708719Y-14859000D01*
X49708719Y-14859000D02*
X49851576Y-14763762D01*
X49851576Y-14763762D02*
X49946814Y-14668524D01*
X49946814Y-14668524D02*
X49994433Y-14573286D01*
X58208057Y-27034261D02*
X58160438Y-26939023D01*
X58160438Y-26939023D02*
X58065200Y-26843785D01*
X58065200Y-26843785D02*
X57922342Y-26700928D01*
X57922342Y-26700928D02*
X57874723Y-26605690D01*
X57874723Y-26605690D02*
X57874723Y-26510452D01*
X58112819Y-26558071D02*
X58065200Y-26462833D01*
X58065200Y-26462833D02*
X57969961Y-26367595D01*
X57969961Y-26367595D02*
X57779485Y-26319976D01*
X57779485Y-26319976D02*
X57446152Y-26319976D01*
X57446152Y-26319976D02*
X57255676Y-26367595D01*
X57255676Y-26367595D02*
X57160438Y-26462833D01*
X57160438Y-26462833D02*
X57112819Y-26558071D01*
X57112819Y-26558071D02*
X57112819Y-26748547D01*
X57112819Y-26748547D02*
X57160438Y-26843785D01*
X57160438Y-26843785D02*
X57255676Y-26939023D01*
X57255676Y-26939023D02*
X57446152Y-26986642D01*
X57446152Y-26986642D02*
X57779485Y-26986642D01*
X57779485Y-26986642D02*
X57969961Y-26939023D01*
X57969961Y-26939023D02*
X58065200Y-26843785D01*
X58065200Y-26843785D02*
X58112819Y-26748547D01*
X58112819Y-26748547D02*
X58112819Y-26558071D01*
X57541390Y-27558071D02*
X57493771Y-27462833D01*
X57493771Y-27462833D02*
X57446152Y-27415214D01*
X57446152Y-27415214D02*
X57350914Y-27367595D01*
X57350914Y-27367595D02*
X57303295Y-27367595D01*
X57303295Y-27367595D02*
X57208057Y-27415214D01*
X57208057Y-27415214D02*
X57160438Y-27462833D01*
X57160438Y-27462833D02*
X57112819Y-27558071D01*
X57112819Y-27558071D02*
X57112819Y-27748547D01*
X57112819Y-27748547D02*
X57160438Y-27843785D01*
X57160438Y-27843785D02*
X57208057Y-27891404D01*
X57208057Y-27891404D02*
X57303295Y-27939023D01*
X57303295Y-27939023D02*
X57350914Y-27939023D01*
X57350914Y-27939023D02*
X57446152Y-27891404D01*
X57446152Y-27891404D02*
X57493771Y-27843785D01*
X57493771Y-27843785D02*
X57541390Y-27748547D01*
X57541390Y-27748547D02*
X57541390Y-27558071D01*
X57541390Y-27558071D02*
X57589009Y-27462833D01*
X57589009Y-27462833D02*
X57636628Y-27415214D01*
X57636628Y-27415214D02*
X57731866Y-27367595D01*
X57731866Y-27367595D02*
X57922342Y-27367595D01*
X57922342Y-27367595D02*
X58017580Y-27415214D01*
X58017580Y-27415214D02*
X58065200Y-27462833D01*
X58065200Y-27462833D02*
X58112819Y-27558071D01*
X58112819Y-27558071D02*
X58112819Y-27748547D01*
X58112819Y-27748547D02*
X58065200Y-27843785D01*
X58065200Y-27843785D02*
X58017580Y-27891404D01*
X58017580Y-27891404D02*
X57922342Y-27939023D01*
X57922342Y-27939023D02*
X57731866Y-27939023D01*
X57731866Y-27939023D02*
X57636628Y-27891404D01*
X57636628Y-27891404D02*
X57589009Y-27843785D01*
X57589009Y-27843785D02*
X57541390Y-27748547D01*
X64843819Y-28948142D02*
X64367628Y-28614809D01*
X64843819Y-28376714D02*
X63843819Y-28376714D01*
X63843819Y-28376714D02*
X63843819Y-28757666D01*
X63843819Y-28757666D02*
X63891438Y-28852904D01*
X63891438Y-28852904D02*
X63939057Y-28900523D01*
X63939057Y-28900523D02*
X64034295Y-28948142D01*
X64034295Y-28948142D02*
X64177152Y-28948142D01*
X64177152Y-28948142D02*
X64272390Y-28900523D01*
X64272390Y-28900523D02*
X64320009Y-28852904D01*
X64320009Y-28852904D02*
X64367628Y-28757666D01*
X64367628Y-28757666D02*
X64367628Y-28376714D01*
X64843819Y-29900523D02*
X64843819Y-29329095D01*
X64843819Y-29614809D02*
X63843819Y-29614809D01*
X63843819Y-29614809D02*
X63986676Y-29519571D01*
X63986676Y-29519571D02*
X64081914Y-29424333D01*
X64081914Y-29424333D02*
X64129533Y-29329095D01*
X63843819Y-30757666D02*
X63843819Y-30567190D01*
X63843819Y-30567190D02*
X63891438Y-30471952D01*
X63891438Y-30471952D02*
X63939057Y-30424333D01*
X63939057Y-30424333D02*
X64081914Y-30329095D01*
X64081914Y-30329095D02*
X64272390Y-30281476D01*
X64272390Y-30281476D02*
X64653342Y-30281476D01*
X64653342Y-30281476D02*
X64748580Y-30329095D01*
X64748580Y-30329095D02*
X64796200Y-30376714D01*
X64796200Y-30376714D02*
X64843819Y-30471952D01*
X64843819Y-30471952D02*
X64843819Y-30662428D01*
X64843819Y-30662428D02*
X64796200Y-30757666D01*
X64796200Y-30757666D02*
X64748580Y-30805285D01*
X64748580Y-30805285D02*
X64653342Y-30852904D01*
X64653342Y-30852904D02*
X64415247Y-30852904D01*
X64415247Y-30852904D02*
X64320009Y-30805285D01*
X64320009Y-30805285D02*
X64272390Y-30757666D01*
X64272390Y-30757666D02*
X64224771Y-30662428D01*
X64224771Y-30662428D02*
X64224771Y-30471952D01*
X64224771Y-30471952D02*
X64272390Y-30376714D01*
X64272390Y-30376714D02*
X64320009Y-30329095D01*
X64320009Y-30329095D02*
X64415247Y-30281476D01*
X28775819Y-31202333D02*
X28299628Y-30869000D01*
X28775819Y-30630905D02*
X27775819Y-30630905D01*
X27775819Y-30630905D02*
X27775819Y-31011857D01*
X27775819Y-31011857D02*
X27823438Y-31107095D01*
X27823438Y-31107095D02*
X27871057Y-31154714D01*
X27871057Y-31154714D02*
X27966295Y-31202333D01*
X27966295Y-31202333D02*
X28109152Y-31202333D01*
X28109152Y-31202333D02*
X28204390Y-31154714D01*
X28204390Y-31154714D02*
X28252009Y-31107095D01*
X28252009Y-31107095D02*
X28299628Y-31011857D01*
X28299628Y-31011857D02*
X28299628Y-30630905D01*
X28775819Y-31678524D02*
X28775819Y-31869000D01*
X28775819Y-31869000D02*
X28728200Y-31964238D01*
X28728200Y-31964238D02*
X28680580Y-32011857D01*
X28680580Y-32011857D02*
X28537723Y-32107095D01*
X28537723Y-32107095D02*
X28347247Y-32154714D01*
X28347247Y-32154714D02*
X27966295Y-32154714D01*
X27966295Y-32154714D02*
X27871057Y-32107095D01*
X27871057Y-32107095D02*
X27823438Y-32059476D01*
X27823438Y-32059476D02*
X27775819Y-31964238D01*
X27775819Y-31964238D02*
X27775819Y-31773762D01*
X27775819Y-31773762D02*
X27823438Y-31678524D01*
X27823438Y-31678524D02*
X27871057Y-31630905D01*
X27871057Y-31630905D02*
X27966295Y-31583286D01*
X27966295Y-31583286D02*
X28204390Y-31583286D01*
X28204390Y-31583286D02*
X28299628Y-31630905D01*
X28299628Y-31630905D02*
X28347247Y-31678524D01*
X28347247Y-31678524D02*
X28394866Y-31773762D01*
X28394866Y-31773762D02*
X28394866Y-31964238D01*
X28394866Y-31964238D02*
X28347247Y-32059476D01*
X28347247Y-32059476D02*
X28299628Y-32107095D01*
X28299628Y-32107095D02*
X28204390Y-32154714D01*
X43703713Y-17869819D02*
X43132285Y-17869819D01*
X43417999Y-18869819D02*
X43417999Y-17869819D01*
X42798951Y-18869819D02*
X42798951Y-17869819D01*
X42798951Y-18346009D02*
X42227523Y-18346009D01*
X42227523Y-18869819D02*
X42227523Y-17869819D01*
X41846570Y-17869819D02*
X41227523Y-17869819D01*
X41227523Y-17869819D02*
X41560856Y-18250771D01*
X41560856Y-18250771D02*
X41417999Y-18250771D01*
X41417999Y-18250771D02*
X41322761Y-18298390D01*
X41322761Y-18298390D02*
X41275142Y-18346009D01*
X41275142Y-18346009D02*
X41227523Y-18441247D01*
X41227523Y-18441247D02*
X41227523Y-18679342D01*
X41227523Y-18679342D02*
X41275142Y-18774580D01*
X41275142Y-18774580D02*
X41322761Y-18822200D01*
X41322761Y-18822200D02*
X41417999Y-18869819D01*
X41417999Y-18869819D02*
X41703713Y-18869819D01*
X41703713Y-18869819D02*
X41798951Y-18822200D01*
X41798951Y-18822200D02*
X41846570Y-18774580D01*
X45903357Y-32331819D02*
X46236690Y-31855628D01*
X46474785Y-32331819D02*
X46474785Y-31331819D01*
X46474785Y-31331819D02*
X46093833Y-31331819D01*
X46093833Y-31331819D02*
X45998595Y-31379438D01*
X45998595Y-31379438D02*
X45950976Y-31427057D01*
X45950976Y-31427057D02*
X45903357Y-31522295D01*
X45903357Y-31522295D02*
X45903357Y-31665152D01*
X45903357Y-31665152D02*
X45950976Y-31760390D01*
X45950976Y-31760390D02*
X45998595Y-31808009D01*
X45998595Y-31808009D02*
X46093833Y-31855628D01*
X46093833Y-31855628D02*
X46474785Y-31855628D01*
X44950976Y-32331819D02*
X45522404Y-32331819D01*
X45236690Y-32331819D02*
X45236690Y-31331819D01*
X45236690Y-31331819D02*
X45331928Y-31474676D01*
X45331928Y-31474676D02*
X45427166Y-31569914D01*
X45427166Y-31569914D02*
X45522404Y-31617533D01*
X44331928Y-31331819D02*
X44236690Y-31331819D01*
X44236690Y-31331819D02*
X44141452Y-31379438D01*
X44141452Y-31379438D02*
X44093833Y-31427057D01*
X44093833Y-31427057D02*
X44046214Y-31522295D01*
X44046214Y-31522295D02*
X43998595Y-31712771D01*
X43998595Y-31712771D02*
X43998595Y-31950866D01*
X43998595Y-31950866D02*
X44046214Y-32141342D01*
X44046214Y-32141342D02*
X44093833Y-32236580D01*
X44093833Y-32236580D02*
X44141452Y-32284200D01*
X44141452Y-32284200D02*
X44236690Y-32331819D01*
X44236690Y-32331819D02*
X44331928Y-32331819D01*
X44331928Y-32331819D02*
X44427166Y-32284200D01*
X44427166Y-32284200D02*
X44474785Y-32236580D01*
X44474785Y-32236580D02*
X44522404Y-32141342D01*
X44522404Y-32141342D02*
X44570023Y-31950866D01*
X44570023Y-31950866D02*
X44570023Y-31712771D01*
X44570023Y-31712771D02*
X44522404Y-31522295D01*
X44522404Y-31522295D02*
X44474785Y-31427057D01*
X44474785Y-31427057D02*
X44427166Y-31379438D01*
X44427166Y-31379438D02*
X44331928Y-31331819D01*
X60652857Y-31823819D02*
X60986190Y-31347628D01*
X61224285Y-31823819D02*
X61224285Y-30823819D01*
X61224285Y-30823819D02*
X60843333Y-30823819D01*
X60843333Y-30823819D02*
X60748095Y-30871438D01*
X60748095Y-30871438D02*
X60700476Y-30919057D01*
X60700476Y-30919057D02*
X60652857Y-31014295D01*
X60652857Y-31014295D02*
X60652857Y-31157152D01*
X60652857Y-31157152D02*
X60700476Y-31252390D01*
X60700476Y-31252390D02*
X60748095Y-31300009D01*
X60748095Y-31300009D02*
X60843333Y-31347628D01*
X60843333Y-31347628D02*
X61224285Y-31347628D01*
X60271904Y-30919057D02*
X60224285Y-30871438D01*
X60224285Y-30871438D02*
X60129047Y-30823819D01*
X60129047Y-30823819D02*
X59890952Y-30823819D01*
X59890952Y-30823819D02*
X59795714Y-30871438D01*
X59795714Y-30871438D02*
X59748095Y-30919057D01*
X59748095Y-30919057D02*
X59700476Y-31014295D01*
X59700476Y-31014295D02*
X59700476Y-31109533D01*
X59700476Y-31109533D02*
X59748095Y-31252390D01*
X59748095Y-31252390D02*
X60319523Y-31823819D01*
X60319523Y-31823819D02*
X59700476Y-31823819D01*
X59081428Y-30823819D02*
X58986190Y-30823819D01*
X58986190Y-30823819D02*
X58890952Y-30871438D01*
X58890952Y-30871438D02*
X58843333Y-30919057D01*
X58843333Y-30919057D02*
X58795714Y-31014295D01*
X58795714Y-31014295D02*
X58748095Y-31204771D01*
X58748095Y-31204771D02*
X58748095Y-31442866D01*
X58748095Y-31442866D02*
X58795714Y-31633342D01*
X58795714Y-31633342D02*
X58843333Y-31728580D01*
X58843333Y-31728580D02*
X58890952Y-31776200D01*
X58890952Y-31776200D02*
X58986190Y-31823819D01*
X58986190Y-31823819D02*
X59081428Y-31823819D01*
X59081428Y-31823819D02*
X59176666Y-31776200D01*
X59176666Y-31776200D02*
X59224285Y-31728580D01*
X59224285Y-31728580D02*
X59271904Y-31633342D01*
X59271904Y-31633342D02*
X59319523Y-31442866D01*
X59319523Y-31442866D02*
X59319523Y-31204771D01*
X59319523Y-31204771D02*
X59271904Y-31014295D01*
X59271904Y-31014295D02*
X59224285Y-30919057D01*
X59224285Y-30919057D02*
X59176666Y-30871438D01*
X59176666Y-30871438D02*
X59081428Y-30823819D01*
G36*
X27187617Y-20172817D02*
G01*
X27259561Y-20244760D01*
X27293819Y-20313276D01*
X27293819Y-20468342D01*
X27259561Y-20536857D01*
X27187617Y-20608800D01*
X27026251Y-20649142D01*
X26711386Y-20649142D01*
X26550019Y-20608800D01*
X26478077Y-20536858D01*
X26443819Y-20468342D01*
X26443819Y-20313276D01*
X26478077Y-20244760D01*
X26550019Y-20172817D01*
X26711386Y-20132476D01*
X27026251Y-20132476D01*
X27187617Y-20172817D01*
G37*
G36*
X26817628Y-19468342D02*
G01*
X26783370Y-19536858D01*
X26752963Y-19567265D01*
X26684447Y-19601523D01*
X26577000Y-19601523D01*
X26508484Y-19567265D01*
X26478077Y-19536858D01*
X26443819Y-19468342D01*
X26443819Y-19180095D01*
X26817628Y-19180095D01*
X26817628Y-19468342D01*
G37*
G36*
X27586676Y-21893241D02*
G01*
X26150962Y-21893241D01*
X26150962Y-21377785D01*
X26294958Y-21377785D01*
X26298738Y-21399222D01*
X26300139Y-21420943D01*
X26303118Y-21424061D01*
X26303867Y-21428309D01*
X26320542Y-21442301D01*
X26335577Y-21458040D01*
X26339863Y-21458514D01*
X26343167Y-21461286D01*
X26368819Y-21465809D01*
X27293819Y-21465809D01*
X27293819Y-21676523D01*
X27311366Y-21724732D01*
X27355795Y-21750384D01*
X27406319Y-21741475D01*
X27439296Y-21702175D01*
X27443819Y-21676523D01*
X27443819Y-21105095D01*
X27426272Y-21056886D01*
X27381843Y-21031234D01*
X27331319Y-21040143D01*
X27298342Y-21079443D01*
X27293819Y-21105095D01*
X27293819Y-21315809D01*
X26597504Y-21315809D01*
X26659947Y-21253366D01*
X26660637Y-21251884D01*
X26673996Y-21233874D01*
X26721615Y-21138636D01*
X26727480Y-21087670D01*
X26699214Y-21044857D01*
X26650039Y-21030230D01*
X26602968Y-21050633D01*
X26587451Y-21071554D01*
X26545275Y-21155906D01*
X26463894Y-21237286D01*
X26327216Y-21328405D01*
X26324661Y-21331881D01*
X26320610Y-21333356D01*
X26309726Y-21352205D01*
X26296837Y-21369747D01*
X26297114Y-21374049D01*
X26294958Y-21377785D01*
X26150962Y-21377785D01*
X26150962Y-20486047D01*
X26293819Y-20486047D01*
X26295352Y-20490260D01*
X26294311Y-20494621D01*
X26301737Y-20519588D01*
X26349356Y-20614826D01*
X26350545Y-20615951D01*
X26363405Y-20634318D01*
X26458643Y-20729556D01*
X26465350Y-20732683D01*
X26469697Y-20738674D01*
X26493486Y-20749284D01*
X26683962Y-20796903D01*
X26687410Y-20796542D01*
X26702152Y-20799142D01*
X27035485Y-20799142D01*
X27038742Y-20797956D01*
X27053675Y-20796903D01*
X27244151Y-20749284D01*
X27250283Y-20745141D01*
X27257657Y-20744497D01*
X27278994Y-20729556D01*
X27374233Y-20634318D01*
X27374924Y-20632835D01*
X27388282Y-20614826D01*
X27435901Y-20519588D01*
X27436413Y-20515134D01*
X27439296Y-20511699D01*
X27443819Y-20486047D01*
X27443819Y-20295571D01*
X27442285Y-20291357D01*
X27443327Y-20286996D01*
X27435901Y-20262030D01*
X27388282Y-20166792D01*
X27387095Y-20165668D01*
X27374233Y-20147300D01*
X27278994Y-20052062D01*
X27272286Y-20048934D01*
X27267940Y-20042944D01*
X27244151Y-20032334D01*
X27053675Y-19984715D01*
X27050226Y-19985075D01*
X27035485Y-19982476D01*
X26702152Y-19982476D01*
X26698894Y-19983661D01*
X26683962Y-19984715D01*
X26493486Y-20032334D01*
X26487353Y-20036475D01*
X26479980Y-20037121D01*
X26458643Y-20052062D01*
X26363405Y-20147300D01*
X26362714Y-20148781D01*
X26349356Y-20166792D01*
X26301737Y-20262030D01*
X26301224Y-20266483D01*
X26298342Y-20269919D01*
X26293819Y-20295571D01*
X26293819Y-20486047D01*
X26150962Y-20486047D01*
X26150962Y-19486047D01*
X26293819Y-19486047D01*
X26295352Y-19490260D01*
X26294311Y-19494621D01*
X26301737Y-19519588D01*
X26349356Y-19614826D01*
X26350545Y-19615951D01*
X26363405Y-19634318D01*
X26411024Y-19681937D01*
X26412505Y-19682628D01*
X26430516Y-19695986D01*
X26525754Y-19743605D01*
X26530207Y-19744117D01*
X26533643Y-19747000D01*
X26559295Y-19751523D01*
X26702152Y-19751523D01*
X26706365Y-19749989D01*
X26710726Y-19751031D01*
X26735693Y-19743605D01*
X26830931Y-19695986D01*
X26832056Y-19694796D01*
X26850423Y-19681937D01*
X26898042Y-19634318D01*
X26898733Y-19632836D01*
X26912091Y-19614826D01*
X26959710Y-19519588D01*
X26960222Y-19515134D01*
X26963105Y-19511699D01*
X26967628Y-19486047D01*
X26967628Y-19180095D01*
X27368819Y-19180095D01*
X27417028Y-19162548D01*
X27442680Y-19118119D01*
X27433771Y-19067595D01*
X27394471Y-19034618D01*
X27368819Y-19030095D01*
X26368819Y-19030095D01*
X26350510Y-19036758D01*
X26331319Y-19040143D01*
X26326968Y-19045327D01*
X26320610Y-19047642D01*
X26310867Y-19064515D01*
X26298342Y-19079443D01*
X26296624Y-19089185D01*
X26294958Y-19092071D01*
X26295536Y-19095353D01*
X26293819Y-19105095D01*
X26293819Y-19486047D01*
X26150962Y-19486047D01*
X26150962Y-18533666D01*
X26293819Y-18533666D01*
X26295352Y-18537879D01*
X26294311Y-18542240D01*
X26301737Y-18567207D01*
X26349356Y-18662445D01*
X26386610Y-18697717D01*
X26437820Y-18700792D01*
X26479026Y-18670228D01*
X26490946Y-18620329D01*
X26483520Y-18595363D01*
X26443819Y-18515961D01*
X26443819Y-18402979D01*
X26481990Y-18288465D01*
X26556103Y-18214353D01*
X26633090Y-18175859D01*
X26806624Y-18132476D01*
X26931013Y-18132476D01*
X27104547Y-18175859D01*
X27181534Y-18214353D01*
X27255648Y-18288466D01*
X27293819Y-18402979D01*
X27293819Y-18473877D01*
X27255648Y-18588389D01*
X27242514Y-18601523D01*
X27015247Y-18601523D01*
X27015247Y-18486047D01*
X26997700Y-18437838D01*
X26953271Y-18412186D01*
X26902747Y-18421095D01*
X26869770Y-18460395D01*
X26865247Y-18486047D01*
X26865247Y-18676523D01*
X26871910Y-18694831D01*
X26875295Y-18714023D01*
X26880479Y-18718373D01*
X26882794Y-18724732D01*
X26899667Y-18734474D01*
X26914595Y-18747000D01*
X26924337Y-18748717D01*
X26927223Y-18750384D01*
X26930505Y-18749805D01*
X26940247Y-18751523D01*
X27273580Y-18751523D01*
X27288963Y-18745923D01*
X27305275Y-18744497D01*
X27318689Y-18735104D01*
X27321789Y-18733976D01*
X27322798Y-18732226D01*
X27326612Y-18729557D01*
X27374232Y-18681938D01*
X27376127Y-18677873D01*
X27379948Y-18675526D01*
X27392351Y-18652621D01*
X27439970Y-18509765D01*
X27439925Y-18508129D01*
X27443819Y-18486047D01*
X27443819Y-18390809D01*
X27443259Y-18389271D01*
X27439970Y-18367091D01*
X27392351Y-18224235D01*
X27389564Y-18220724D01*
X27389174Y-18216256D01*
X27374233Y-18194919D01*
X27278994Y-18099681D01*
X27277512Y-18098990D01*
X27259502Y-18085632D01*
X27164264Y-18038013D01*
X27160735Y-18037606D01*
X27148913Y-18032334D01*
X26958437Y-17984715D01*
X26954988Y-17985075D01*
X26940247Y-17982476D01*
X26797390Y-17982476D01*
X26794132Y-17983661D01*
X26779200Y-17984715D01*
X26588724Y-18032334D01*
X26585779Y-18034322D01*
X26573373Y-18038013D01*
X26478135Y-18085632D01*
X26477011Y-18086818D01*
X26458643Y-18099681D01*
X26363405Y-18194919D01*
X26361510Y-18198982D01*
X26357689Y-18201330D01*
X26345287Y-18224235D01*
X26297668Y-18367092D01*
X26297712Y-18368726D01*
X26293819Y-18390809D01*
X26293819Y-18533666D01*
X26150962Y-18533666D01*
X26150962Y-17839619D01*
X27586676Y-17839619D01*
X27586676Y-21893241D01*
G37*
X33581813Y-19901819D02*
X33010385Y-19901819D01*
X33296099Y-20901819D02*
X33296099Y-19901819D01*
X32677051Y-20901819D02*
X32677051Y-19901819D01*
X32677051Y-20378009D02*
X32105623Y-20378009D01*
X32105623Y-20901819D02*
X32105623Y-19901819D01*
X31105623Y-20901819D02*
X31677051Y-20901819D01*
X31391337Y-20901819D02*
X31391337Y-19901819D01*
X31391337Y-19901819D02*
X31486575Y-20044676D01*
X31486575Y-20044676D02*
X31581813Y-20139914D01*
X31581813Y-20139914D02*
X31677051Y-20187533D01*
X42364819Y-14946333D02*
X41888628Y-14613000D01*
X42364819Y-14374905D02*
X41364819Y-14374905D01*
X41364819Y-14374905D02*
X41364819Y-14755857D01*
X41364819Y-14755857D02*
X41412438Y-14851095D01*
X41412438Y-14851095D02*
X41460057Y-14898714D01*
X41460057Y-14898714D02*
X41555295Y-14946333D01*
X41555295Y-14946333D02*
X41698152Y-14946333D01*
X41698152Y-14946333D02*
X41793390Y-14898714D01*
X41793390Y-14898714D02*
X41841009Y-14851095D01*
X41841009Y-14851095D02*
X41888628Y-14755857D01*
X41888628Y-14755857D02*
X41888628Y-14374905D01*
X41364819Y-15279667D02*
X41364819Y-15946333D01*
X41364819Y-15946333D02*
X42364819Y-15517762D01*
X46777113Y-28664819D02*
X46205685Y-28664819D01*
X46491399Y-29664819D02*
X46491399Y-28664819D01*
X45872351Y-29664819D02*
X45872351Y-28664819D01*
X45872351Y-29141009D02*
X45300923Y-29141009D01*
X45300923Y-29664819D02*
X45300923Y-28664819D01*
X44396161Y-28998152D02*
X44396161Y-29664819D01*
X44634256Y-28617200D02*
X44872351Y-29331485D01*
X44872351Y-29331485D02*
X44253304Y-29331485D01*
G36*
X33388239Y-38295648D02*
G01*
X33418646Y-38326055D01*
X33452904Y-38394571D01*
X33452904Y-38549637D01*
X33418645Y-38618153D01*
X33388238Y-38648561D01*
X33319723Y-38682819D01*
X33164657Y-38682819D01*
X33096141Y-38648561D01*
X33065734Y-38618153D01*
X33031476Y-38549637D01*
X33031476Y-38394571D01*
X33065734Y-38326055D01*
X33096141Y-38295648D01*
X33164657Y-38261390D01*
X33319723Y-38261390D01*
X33388239Y-38295648D01*
G37*
G36*
X33388239Y-37867077D02*
G01*
X33418646Y-37897484D01*
X33452904Y-37966000D01*
X33452904Y-37978209D01*
X33418646Y-38046725D01*
X33388239Y-38077132D01*
X33319723Y-38111390D01*
X33164657Y-38111390D01*
X33096141Y-38077132D01*
X33065734Y-38046725D01*
X33031476Y-37978209D01*
X33031476Y-37966000D01*
X33065734Y-37897484D01*
X33096141Y-37867077D01*
X33164657Y-37832819D01*
X33319723Y-37832819D01*
X33388239Y-37867077D01*
G37*
G36*
X34340620Y-38248029D02*
G01*
X34371027Y-38278436D01*
X34405285Y-38346952D01*
X34405285Y-38549637D01*
X34371026Y-38618153D01*
X34340619Y-38648561D01*
X34272104Y-38682819D01*
X34117038Y-38682819D01*
X34048522Y-38648561D01*
X34018115Y-38618153D01*
X33983857Y-38549637D01*
X33983857Y-38346952D01*
X34018115Y-38278436D01*
X34048522Y-38248029D01*
X34117038Y-38213771D01*
X34272104Y-38213771D01*
X34340620Y-38248029D01*
G37*
G36*
X35293001Y-38295648D02*
G01*
X35323408Y-38326055D01*
X35357666Y-38394571D01*
X35357666Y-38549637D01*
X35323407Y-38618153D01*
X35293000Y-38648561D01*
X35224485Y-38682819D01*
X35069419Y-38682819D01*
X35000903Y-38648561D01*
X34970496Y-38618153D01*
X34936238Y-38549637D01*
X34936238Y-38394571D01*
X34970496Y-38326055D01*
X35000903Y-38295648D01*
X35069419Y-38261390D01*
X35224485Y-38261390D01*
X35293001Y-38295648D01*
G37*
G36*
X35293001Y-37867077D02*
G01*
X35323408Y-37897484D01*
X35357666Y-37966000D01*
X35357666Y-37978209D01*
X35323408Y-38046725D01*
X35293001Y-38077132D01*
X35224485Y-38111390D01*
X35069419Y-38111390D01*
X35000903Y-38077132D01*
X34970496Y-38046725D01*
X34936238Y-37978209D01*
X34936238Y-37966000D01*
X34970496Y-37897484D01*
X35000903Y-37867077D01*
X35069419Y-37832819D01*
X35224485Y-37832819D01*
X35293001Y-37867077D01*
G37*
G36*
X35650523Y-38975676D02*
G01*
X29834996Y-38975676D01*
X29834996Y-38744795D01*
X29977853Y-38744795D01*
X29986762Y-38795319D01*
X30026062Y-38828296D01*
X30051714Y-38832819D01*
X30575523Y-38832819D01*
X30592756Y-38826546D01*
X30610915Y-38823944D01*
X30616237Y-38817999D01*
X30623732Y-38815272D01*
X30632901Y-38799390D01*
X30645139Y-38785724D01*
X30645395Y-38777750D01*
X30649384Y-38770843D01*
X30647088Y-38757819D01*
X30881476Y-38757819D01*
X30899023Y-38806028D01*
X30943452Y-38831680D01*
X30993976Y-38822771D01*
X31026953Y-38783471D01*
X31031476Y-38757819D01*
X31031476Y-38251714D01*
X31059996Y-38194672D01*
X31117038Y-38166152D01*
X31224485Y-38166152D01*
X31293001Y-38200410D01*
X31310047Y-38217456D01*
X31310047Y-38757819D01*
X31327594Y-38806028D01*
X31372023Y-38831680D01*
X31422547Y-38822771D01*
X31455524Y-38783471D01*
X31460047Y-38757819D01*
X31786238Y-38757819D01*
X31803785Y-38806028D01*
X31848214Y-38831680D01*
X31898738Y-38822771D01*
X31931715Y-38783471D01*
X31936238Y-38757819D01*
X31936238Y-38095886D01*
X32126607Y-38503821D01*
X32140373Y-38517579D01*
X32151534Y-38533528D01*
X32158093Y-38535287D01*
X32162895Y-38540086D01*
X32182284Y-38541777D01*
X32201086Y-38546821D01*
X32207239Y-38543953D01*
X32214004Y-38544544D01*
X32229946Y-38533372D01*
X32247588Y-38525153D01*
X32253287Y-38517018D01*
X32256020Y-38515104D01*
X32256879Y-38511891D01*
X32262535Y-38503820D01*
X32452904Y-38095886D01*
X32452904Y-38757819D01*
X32470451Y-38806028D01*
X32514880Y-38831680D01*
X32565404Y-38822771D01*
X32598381Y-38783471D01*
X32602904Y-38757819D01*
X32602904Y-38567342D01*
X32881476Y-38567342D01*
X32883009Y-38571555D01*
X32881968Y-38575916D01*
X32889394Y-38600883D01*
X32937013Y-38696121D01*
X32938201Y-38697246D01*
X32951061Y-38715612D01*
X32998680Y-38763232D01*
X33000161Y-38763922D01*
X33018173Y-38777282D01*
X33113411Y-38824901D01*
X33117864Y-38825413D01*
X33121300Y-38828296D01*
X33146952Y-38832819D01*
X33337428Y-38832819D01*
X33341641Y-38831285D01*
X33346002Y-38832327D01*
X33370969Y-38824901D01*
X33466207Y-38777282D01*
X33467331Y-38776094D01*
X33485700Y-38763232D01*
X33533318Y-38715613D01*
X33534008Y-38714131D01*
X33547367Y-38696121D01*
X33594986Y-38600883D01*
X33595498Y-38596429D01*
X33598381Y-38592994D01*
X33602904Y-38567342D01*
X33833857Y-38567342D01*
X33835390Y-38571555D01*
X33834349Y-38575916D01*
X33841775Y-38600883D01*
X33889394Y-38696121D01*
X33890582Y-38697246D01*
X33903442Y-38715612D01*
X33951061Y-38763232D01*
X33952542Y-38763922D01*
X33970554Y-38777282D01*
X34065792Y-38824901D01*
X34070245Y-38825413D01*
X34073681Y-38828296D01*
X34099333Y-38832819D01*
X34289809Y-38832819D01*
X34294022Y-38831285D01*
X34298383Y-38832327D01*
X34323350Y-38824901D01*
X34418588Y-38777282D01*
X34419712Y-38776094D01*
X34438081Y-38763232D01*
X34485699Y-38715613D01*
X34486389Y-38714131D01*
X34499748Y-38696121D01*
X34547367Y-38600883D01*
X34547879Y-38596429D01*
X34550762Y-38592994D01*
X34555285Y-38567342D01*
X34786238Y-38567342D01*
X34787771Y-38571555D01*
X34786730Y-38575916D01*
X34794156Y-38600883D01*
X34841775Y-38696121D01*
X34842963Y-38697246D01*
X34855823Y-38715612D01*
X34903442Y-38763232D01*
X34904923Y-38763922D01*
X34922935Y-38777282D01*
X35018173Y-38824901D01*
X35022626Y-38825413D01*
X35026062Y-38828296D01*
X35051714Y-38832819D01*
X35242190Y-38832819D01*
X35246403Y-38831285D01*
X35250764Y-38832327D01*
X35275731Y-38824901D01*
X35370969Y-38777282D01*
X35372093Y-38776094D01*
X35390462Y-38763232D01*
X35438080Y-38715613D01*
X35438770Y-38714131D01*
X35452129Y-38696121D01*
X35499748Y-38600883D01*
X35500260Y-38596429D01*
X35503143Y-38592994D01*
X35507666Y-38567342D01*
X35507666Y-38376866D01*
X35506132Y-38372652D01*
X35507174Y-38368291D01*
X35499748Y-38343325D01*
X35452129Y-38248087D01*
X35450939Y-38246961D01*
X35438080Y-38228595D01*
X35395875Y-38186390D01*
X35438080Y-38144185D01*
X35438771Y-38142703D01*
X35452129Y-38124693D01*
X35499748Y-38029455D01*
X35500260Y-38025001D01*
X35503143Y-38021566D01*
X35507666Y-37995914D01*
X35507666Y-37948295D01*
X35506132Y-37944081D01*
X35507174Y-37939720D01*
X35499748Y-37914754D01*
X35452129Y-37819516D01*
X35450939Y-37818390D01*
X35438080Y-37800024D01*
X35390461Y-37752405D01*
X35388979Y-37751714D01*
X35370969Y-37738356D01*
X35275731Y-37690737D01*
X35271277Y-37690224D01*
X35267842Y-37687342D01*
X35242190Y-37682819D01*
X35051714Y-37682819D01*
X35047500Y-37684352D01*
X35043139Y-37683311D01*
X35018173Y-37690737D01*
X34922935Y-37738356D01*
X34921809Y-37739545D01*
X34903443Y-37752405D01*
X34855824Y-37800024D01*
X34855133Y-37801505D01*
X34841775Y-37819516D01*
X34794156Y-37914754D01*
X34793643Y-37919207D01*
X34790761Y-37922643D01*
X34786238Y-37948295D01*
X34786238Y-37995914D01*
X34787771Y-38000127D01*
X34786730Y-38004488D01*
X34794156Y-38029455D01*
X34841775Y-38124693D01*
X34842964Y-38125818D01*
X34855824Y-38144185D01*
X34898029Y-38186390D01*
X34855824Y-38228595D01*
X34855133Y-38230076D01*
X34841775Y-38248087D01*
X34794156Y-38343325D01*
X34793643Y-38347778D01*
X34790761Y-38351214D01*
X34786238Y-38376866D01*
X34786238Y-38567342D01*
X34555285Y-38567342D01*
X34555285Y-38186390D01*
X34554099Y-38183132D01*
X34553046Y-38168200D01*
X34505427Y-37977724D01*
X34505187Y-37977368D01*
X34495070Y-37954312D01*
X34399832Y-37811454D01*
X34397014Y-37809383D01*
X34390461Y-37800024D01*
X34342842Y-37752405D01*
X34341360Y-37751714D01*
X34323350Y-37738356D01*
X34228112Y-37690737D01*
X34223658Y-37690224D01*
X34220223Y-37687342D01*
X34194571Y-37682819D01*
X34004095Y-37682819D01*
X33955886Y-37700366D01*
X33930234Y-37744795D01*
X33939143Y-37795319D01*
X33978443Y-37828296D01*
X34004095Y-37832819D01*
X34176866Y-37832819D01*
X34245382Y-37867077D01*
X34279142Y-37900837D01*
X34363056Y-38026708D01*
X34381580Y-38100804D01*
X34323350Y-38071689D01*
X34318896Y-38071176D01*
X34315461Y-38068294D01*
X34289809Y-38063771D01*
X34099333Y-38063771D01*
X34095119Y-38065304D01*
X34090758Y-38064263D01*
X34065792Y-38071689D01*
X33970554Y-38119308D01*
X33969428Y-38120497D01*
X33951062Y-38133357D01*
X33903443Y-38180976D01*
X33902752Y-38182457D01*
X33889394Y-38200468D01*
X33841775Y-38295706D01*
X33841262Y-38300159D01*
X33838380Y-38303595D01*
X33833857Y-38329247D01*
X33833857Y-38567342D01*
X33602904Y-38567342D01*
X33602904Y-38376866D01*
X33601370Y-38372652D01*
X33602412Y-38368291D01*
X33594986Y-38343325D01*
X33547367Y-38248087D01*
X33546177Y-38246961D01*
X33533318Y-38228595D01*
X33491113Y-38186390D01*
X33533318Y-38144185D01*
X33534009Y-38142703D01*
X33547367Y-38124693D01*
X33594986Y-38029455D01*
X33595498Y-38025001D01*
X33598381Y-38021566D01*
X33602904Y-37995914D01*
X33602904Y-37948295D01*
X33601370Y-37944081D01*
X33602412Y-37939720D01*
X33594986Y-37914754D01*
X33547367Y-37819516D01*
X33546177Y-37818390D01*
X33533318Y-37800024D01*
X33485699Y-37752405D01*
X33484217Y-37751714D01*
X33466207Y-37738356D01*
X33370969Y-37690737D01*
X33366515Y-37690224D01*
X33363080Y-37687342D01*
X33337428Y-37682819D01*
X33146952Y-37682819D01*
X33142738Y-37684352D01*
X33138377Y-37683311D01*
X33113411Y-37690737D01*
X33018173Y-37738356D01*
X33017047Y-37739545D01*
X32998681Y-37752405D01*
X32951062Y-37800024D01*
X32950371Y-37801505D01*
X32937013Y-37819516D01*
X32889394Y-37914754D01*
X32888881Y-37919207D01*
X32885999Y-37922643D01*
X32881476Y-37948295D01*
X32881476Y-37995914D01*
X32883009Y-38000127D01*
X32881968Y-38004488D01*
X32889394Y-38029455D01*
X32937013Y-38124693D01*
X32938202Y-38125818D01*
X32951062Y-38144185D01*
X32993267Y-38186390D01*
X32951062Y-38228595D01*
X32950371Y-38230076D01*
X32937013Y-38248087D01*
X32889394Y-38343325D01*
X32888881Y-38347778D01*
X32885999Y-38351214D01*
X32881476Y-38376866D01*
X32881476Y-38567342D01*
X32602904Y-38567342D01*
X32602904Y-37757819D01*
X32599478Y-37748406D01*
X32600354Y-37738429D01*
X32590960Y-37725004D01*
X32585357Y-37709610D01*
X32576684Y-37704602D01*
X32570941Y-37696395D01*
X32555115Y-37692149D01*
X32540928Y-37683958D01*
X32531064Y-37685697D01*
X32521390Y-37683102D01*
X32506538Y-37690021D01*
X32490404Y-37692867D01*
X32483965Y-37700539D01*
X32474887Y-37704770D01*
X32459940Y-37726102D01*
X32194570Y-38294750D01*
X31929202Y-37726103D01*
X31922116Y-37719022D01*
X31918691Y-37709610D01*
X31904501Y-37701417D01*
X31892914Y-37689837D01*
X31882937Y-37688966D01*
X31874262Y-37683958D01*
X31858126Y-37686803D01*
X31841805Y-37685380D01*
X31833601Y-37691127D01*
X31823738Y-37692867D01*
X31813206Y-37705417D01*
X31799789Y-37714819D01*
X31797199Y-37724493D01*
X31790761Y-37732167D01*
X31786238Y-37757819D01*
X31786238Y-38757819D01*
X31460047Y-38757819D01*
X31460047Y-37757819D01*
X31442500Y-37709610D01*
X31398071Y-37683958D01*
X31347547Y-37692867D01*
X31314570Y-37732167D01*
X31310047Y-37757819D01*
X31310047Y-38041228D01*
X31275731Y-38024070D01*
X31271277Y-38023557D01*
X31267842Y-38020675D01*
X31242190Y-38016152D01*
X31099333Y-38016152D01*
X31095119Y-38017685D01*
X31090758Y-38016644D01*
X31065792Y-38024070D01*
X30970554Y-38071689D01*
X30962834Y-38079842D01*
X30952530Y-38084309D01*
X30937013Y-38105230D01*
X30889394Y-38200468D01*
X30888881Y-38204921D01*
X30885999Y-38208357D01*
X30881476Y-38234009D01*
X30881476Y-38757819D01*
X30647088Y-38757819D01*
X30646199Y-38752780D01*
X30646789Y-38734447D01*
X30641088Y-38723796D01*
X30640475Y-38720319D01*
X30638209Y-38718417D01*
X30634497Y-38711482D01*
X30206024Y-38166152D01*
X30575523Y-38166152D01*
X30623732Y-38148605D01*
X30649384Y-38104176D01*
X30640475Y-38053652D01*
X30601175Y-38020675D01*
X30575523Y-38016152D01*
X30051714Y-38016152D01*
X30034480Y-38022424D01*
X30016322Y-38025027D01*
X30010999Y-38030971D01*
X30003505Y-38033699D01*
X29994335Y-38049580D01*
X29982098Y-38063247D01*
X29981841Y-38071220D01*
X29977853Y-38078128D01*
X29981037Y-38096190D01*
X29980448Y-38114524D01*
X29986148Y-38125174D01*
X29986762Y-38128652D01*
X29989027Y-38130553D01*
X29992740Y-38137489D01*
X30421213Y-38682819D01*
X30051714Y-38682819D01*
X30003505Y-38700366D01*
X29977853Y-38744795D01*
X29834996Y-38744795D01*
X29834996Y-37539962D01*
X35650523Y-37539962D01*
X35650523Y-38975676D01*
G37*
X52397819Y-35600642D02*
X51921628Y-35267309D01*
X52397819Y-35029214D02*
X51397819Y-35029214D01*
X51397819Y-35029214D02*
X51397819Y-35410166D01*
X51397819Y-35410166D02*
X51445438Y-35505404D01*
X51445438Y-35505404D02*
X51493057Y-35553023D01*
X51493057Y-35553023D02*
X51588295Y-35600642D01*
X51588295Y-35600642D02*
X51731152Y-35600642D01*
X51731152Y-35600642D02*
X51826390Y-35553023D01*
X51826390Y-35553023D02*
X51874009Y-35505404D01*
X51874009Y-35505404D02*
X51921628Y-35410166D01*
X51921628Y-35410166D02*
X51921628Y-35029214D01*
X52397819Y-36553023D02*
X52397819Y-35981595D01*
X52397819Y-36267309D02*
X51397819Y-36267309D01*
X51397819Y-36267309D02*
X51540676Y-36172071D01*
X51540676Y-36172071D02*
X51635914Y-36076833D01*
X51635914Y-36076833D02*
X51683533Y-35981595D01*
X51826390Y-37124452D02*
X51778771Y-37029214D01*
X51778771Y-37029214D02*
X51731152Y-36981595D01*
X51731152Y-36981595D02*
X51635914Y-36933976D01*
X51635914Y-36933976D02*
X51588295Y-36933976D01*
X51588295Y-36933976D02*
X51493057Y-36981595D01*
X51493057Y-36981595D02*
X51445438Y-37029214D01*
X51445438Y-37029214D02*
X51397819Y-37124452D01*
X51397819Y-37124452D02*
X51397819Y-37314928D01*
X51397819Y-37314928D02*
X51445438Y-37410166D01*
X51445438Y-37410166D02*
X51493057Y-37457785D01*
X51493057Y-37457785D02*
X51588295Y-37505404D01*
X51588295Y-37505404D02*
X51635914Y-37505404D01*
X51635914Y-37505404D02*
X51731152Y-37457785D01*
X51731152Y-37457785D02*
X51778771Y-37410166D01*
X51778771Y-37410166D02*
X51826390Y-37314928D01*
X51826390Y-37314928D02*
X51826390Y-37124452D01*
X51826390Y-37124452D02*
X51874009Y-37029214D01*
X51874009Y-37029214D02*
X51921628Y-36981595D01*
X51921628Y-36981595D02*
X52016866Y-36933976D01*
X52016866Y-36933976D02*
X52207342Y-36933976D01*
X52207342Y-36933976D02*
X52302580Y-36981595D01*
X52302580Y-36981595D02*
X52350200Y-37029214D01*
X52350200Y-37029214D02*
X52397819Y-37124452D01*
X52397819Y-37124452D02*
X52397819Y-37314928D01*
X52397819Y-37314928D02*
X52350200Y-37410166D01*
X52350200Y-37410166D02*
X52302580Y-37457785D01*
X52302580Y-37457785D02*
X52207342Y-37505404D01*
X52207342Y-37505404D02*
X52016866Y-37505404D01*
X52016866Y-37505404D02*
X51921628Y-37457785D01*
X51921628Y-37457785D02*
X51874009Y-37410166D01*
X51874009Y-37410166D02*
X51826390Y-37314928D01*
X64716819Y-24249142D02*
X64240628Y-23915809D01*
X64716819Y-23677714D02*
X63716819Y-23677714D01*
X63716819Y-23677714D02*
X63716819Y-24058666D01*
X63716819Y-24058666D02*
X63764438Y-24153904D01*
X63764438Y-24153904D02*
X63812057Y-24201523D01*
X63812057Y-24201523D02*
X63907295Y-24249142D01*
X63907295Y-24249142D02*
X64050152Y-24249142D01*
X64050152Y-24249142D02*
X64145390Y-24201523D01*
X64145390Y-24201523D02*
X64193009Y-24153904D01*
X64193009Y-24153904D02*
X64240628Y-24058666D01*
X64240628Y-24058666D02*
X64240628Y-23677714D01*
X64716819Y-25201523D02*
X64716819Y-24630095D01*
X64716819Y-24915809D02*
X63716819Y-24915809D01*
X63716819Y-24915809D02*
X63859676Y-24820571D01*
X63859676Y-24820571D02*
X63954914Y-24725333D01*
X63954914Y-24725333D02*
X64002533Y-24630095D01*
X63812057Y-25582476D02*
X63764438Y-25630095D01*
X63764438Y-25630095D02*
X63716819Y-25725333D01*
X63716819Y-25725333D02*
X63716819Y-25963428D01*
X63716819Y-25963428D02*
X63764438Y-26058666D01*
X63764438Y-26058666D02*
X63812057Y-26106285D01*
X63812057Y-26106285D02*
X63907295Y-26153904D01*
X63907295Y-26153904D02*
X64002533Y-26153904D01*
X64002533Y-26153904D02*
X64145390Y-26106285D01*
X64145390Y-26106285D02*
X64716819Y-25534857D01*
X64716819Y-25534857D02*
X64716819Y-26153904D01*
X36996666Y-22265819D02*
X37329999Y-21789628D01*
X37568094Y-22265819D02*
X37568094Y-21265819D01*
X37568094Y-21265819D02*
X37187142Y-21265819D01*
X37187142Y-21265819D02*
X37091904Y-21313438D01*
X37091904Y-21313438D02*
X37044285Y-21361057D01*
X37044285Y-21361057D02*
X36996666Y-21456295D01*
X36996666Y-21456295D02*
X36996666Y-21599152D01*
X36996666Y-21599152D02*
X37044285Y-21694390D01*
X37044285Y-21694390D02*
X37091904Y-21742009D01*
X37091904Y-21742009D02*
X37187142Y-21789628D01*
X37187142Y-21789628D02*
X37568094Y-21789628D01*
X36615713Y-21361057D02*
X36568094Y-21313438D01*
X36568094Y-21313438D02*
X36472856Y-21265819D01*
X36472856Y-21265819D02*
X36234761Y-21265819D01*
X36234761Y-21265819D02*
X36139523Y-21313438D01*
X36139523Y-21313438D02*
X36091904Y-21361057D01*
X36091904Y-21361057D02*
X36044285Y-21456295D01*
X36044285Y-21456295D02*
X36044285Y-21551533D01*
X36044285Y-21551533D02*
X36091904Y-21694390D01*
X36091904Y-21694390D02*
X36663332Y-22265819D01*
X36663332Y-22265819D02*
X36044285Y-22265819D01*
X42458819Y-23836333D02*
X41982628Y-23503000D01*
X42458819Y-23264905D02*
X41458819Y-23264905D01*
X41458819Y-23264905D02*
X41458819Y-23645857D01*
X41458819Y-23645857D02*
X41506438Y-23741095D01*
X41506438Y-23741095D02*
X41554057Y-23788714D01*
X41554057Y-23788714D02*
X41649295Y-23836333D01*
X41649295Y-23836333D02*
X41792152Y-23836333D01*
X41792152Y-23836333D02*
X41887390Y-23788714D01*
X41887390Y-23788714D02*
X41935009Y-23741095D01*
X41935009Y-23741095D02*
X41982628Y-23645857D01*
X41982628Y-23645857D02*
X41982628Y-23264905D01*
X41887390Y-24407762D02*
X41839771Y-24312524D01*
X41839771Y-24312524D02*
X41792152Y-24264905D01*
X41792152Y-24264905D02*
X41696914Y-24217286D01*
X41696914Y-24217286D02*
X41649295Y-24217286D01*
X41649295Y-24217286D02*
X41554057Y-24264905D01*
X41554057Y-24264905D02*
X41506438Y-24312524D01*
X41506438Y-24312524D02*
X41458819Y-24407762D01*
X41458819Y-24407762D02*
X41458819Y-24598238D01*
X41458819Y-24598238D02*
X41506438Y-24693476D01*
X41506438Y-24693476D02*
X41554057Y-24741095D01*
X41554057Y-24741095D02*
X41649295Y-24788714D01*
X41649295Y-24788714D02*
X41696914Y-24788714D01*
X41696914Y-24788714D02*
X41792152Y-24741095D01*
X41792152Y-24741095D02*
X41839771Y-24693476D01*
X41839771Y-24693476D02*
X41887390Y-24598238D01*
X41887390Y-24598238D02*
X41887390Y-24407762D01*
X41887390Y-24407762D02*
X41935009Y-24312524D01*
X41935009Y-24312524D02*
X41982628Y-24264905D01*
X41982628Y-24264905D02*
X42077866Y-24217286D01*
X42077866Y-24217286D02*
X42268342Y-24217286D01*
X42268342Y-24217286D02*
X42363580Y-24264905D01*
X42363580Y-24264905D02*
X42411200Y-24312524D01*
X42411200Y-24312524D02*
X42458819Y-24407762D01*
X42458819Y-24407762D02*
X42458819Y-24598238D01*
X42458819Y-24598238D02*
X42411200Y-24693476D01*
X42411200Y-24693476D02*
X42363580Y-24741095D01*
X42363580Y-24741095D02*
X42268342Y-24788714D01*
X42268342Y-24788714D02*
X42077866Y-24788714D01*
X42077866Y-24788714D02*
X41982628Y-24741095D01*
X41982628Y-24741095D02*
X41935009Y-24693476D01*
X41935009Y-24693476D02*
X41887390Y-24598238D01*
X43380819Y-35378405D02*
X42380819Y-35378405D01*
X42380819Y-35378405D02*
X42380819Y-35616500D01*
X42380819Y-35616500D02*
X42428438Y-35759357D01*
X42428438Y-35759357D02*
X42523676Y-35854595D01*
X42523676Y-35854595D02*
X42618914Y-35902214D01*
X42618914Y-35902214D02*
X42809390Y-35949833D01*
X42809390Y-35949833D02*
X42952247Y-35949833D01*
X42952247Y-35949833D02*
X43142723Y-35902214D01*
X43142723Y-35902214D02*
X43237961Y-35854595D01*
X43237961Y-35854595D02*
X43333200Y-35759357D01*
X43333200Y-35759357D02*
X43380819Y-35616500D01*
X43380819Y-35616500D02*
X43380819Y-35378405D01*
X42476057Y-36330786D02*
X42428438Y-36378405D01*
X42428438Y-36378405D02*
X42380819Y-36473643D01*
X42380819Y-36473643D02*
X42380819Y-36711738D01*
X42380819Y-36711738D02*
X42428438Y-36806976D01*
X42428438Y-36806976D02*
X42476057Y-36854595D01*
X42476057Y-36854595D02*
X42571295Y-36902214D01*
X42571295Y-36902214D02*
X42666533Y-36902214D01*
X42666533Y-36902214D02*
X42809390Y-36854595D01*
X42809390Y-36854595D02*
X43380819Y-36283167D01*
X43380819Y-36283167D02*
X43380819Y-36902214D01*
X58173857Y-14297819D02*
X58507190Y-13821628D01*
X58745285Y-14297819D02*
X58745285Y-13297819D01*
X58745285Y-13297819D02*
X58364333Y-13297819D01*
X58364333Y-13297819D02*
X58269095Y-13345438D01*
X58269095Y-13345438D02*
X58221476Y-13393057D01*
X58221476Y-13393057D02*
X58173857Y-13488295D01*
X58173857Y-13488295D02*
X58173857Y-13631152D01*
X58173857Y-13631152D02*
X58221476Y-13726390D01*
X58221476Y-13726390D02*
X58269095Y-13774009D01*
X58269095Y-13774009D02*
X58364333Y-13821628D01*
X58364333Y-13821628D02*
X58745285Y-13821628D01*
X57221476Y-14297819D02*
X57792904Y-14297819D01*
X57507190Y-14297819D02*
X57507190Y-13297819D01*
X57507190Y-13297819D02*
X57602428Y-13440676D01*
X57602428Y-13440676D02*
X57697666Y-13535914D01*
X57697666Y-13535914D02*
X57792904Y-13583533D01*
X56269095Y-14297819D02*
X56840523Y-14297819D01*
X56554809Y-14297819D02*
X56554809Y-13297819D01*
X56554809Y-13297819D02*
X56650047Y-13440676D01*
X56650047Y-13440676D02*
X56745285Y-13535914D01*
X56745285Y-13535914D02*
X56840523Y-13583533D01*
X63595238Y-19854057D02*
X63690476Y-19806438D01*
X63690476Y-19806438D02*
X63785714Y-19711200D01*
X63785714Y-19711200D02*
X63928571Y-19568342D01*
X63928571Y-19568342D02*
X64023809Y-19520723D01*
X64023809Y-19520723D02*
X64119047Y-19520723D01*
X64071428Y-19758819D02*
X64166666Y-19711200D01*
X64166666Y-19711200D02*
X64261904Y-19615961D01*
X64261904Y-19615961D02*
X64309523Y-19425485D01*
X64309523Y-19425485D02*
X64309523Y-19092152D01*
X64309523Y-19092152D02*
X64261904Y-18901676D01*
X64261904Y-18901676D02*
X64166666Y-18806438D01*
X64166666Y-18806438D02*
X64071428Y-18758819D01*
X64071428Y-18758819D02*
X63880952Y-18758819D01*
X63880952Y-18758819D02*
X63785714Y-18806438D01*
X63785714Y-18806438D02*
X63690476Y-18901676D01*
X63690476Y-18901676D02*
X63642857Y-19092152D01*
X63642857Y-19092152D02*
X63642857Y-19425485D01*
X63642857Y-19425485D02*
X63690476Y-19615961D01*
X63690476Y-19615961D02*
X63785714Y-19711200D01*
X63785714Y-19711200D02*
X63880952Y-19758819D01*
X63880952Y-19758819D02*
X64071428Y-19758819D01*
X63309523Y-18758819D02*
X62642857Y-18758819D01*
X62642857Y-18758819D02*
X63071428Y-19758819D01*
X30903057Y-13366761D02*
X30855438Y-13271523D01*
X30855438Y-13271523D02*
X30760200Y-13176285D01*
X30760200Y-13176285D02*
X30617342Y-13033428D01*
X30617342Y-13033428D02*
X30569723Y-12938190D01*
X30569723Y-12938190D02*
X30569723Y-12842952D01*
X30807819Y-12890571D02*
X30760200Y-12795333D01*
X30760200Y-12795333D02*
X30664961Y-12700095D01*
X30664961Y-12700095D02*
X30474485Y-12652476D01*
X30474485Y-12652476D02*
X30141152Y-12652476D01*
X30141152Y-12652476D02*
X29950676Y-12700095D01*
X29950676Y-12700095D02*
X29855438Y-12795333D01*
X29855438Y-12795333D02*
X29807819Y-12890571D01*
X29807819Y-12890571D02*
X29807819Y-13081047D01*
X29807819Y-13081047D02*
X29855438Y-13176285D01*
X29855438Y-13176285D02*
X29950676Y-13271523D01*
X29950676Y-13271523D02*
X30141152Y-13319142D01*
X30141152Y-13319142D02*
X30474485Y-13319142D01*
X30474485Y-13319142D02*
X30664961Y-13271523D01*
X30664961Y-13271523D02*
X30760200Y-13176285D01*
X30760200Y-13176285D02*
X30807819Y-13081047D01*
X30807819Y-13081047D02*
X30807819Y-12890571D01*
X30807819Y-14271523D02*
X30807819Y-13700095D01*
X30807819Y-13985809D02*
X29807819Y-13985809D01*
X29807819Y-13985809D02*
X29950676Y-13890571D01*
X29950676Y-13890571D02*
X30045914Y-13795333D01*
X30045914Y-13795333D02*
X30093533Y-13700095D01*
G36*
X19616715Y-50824410D02*
G01*
X19647122Y-50854817D01*
X19681380Y-50923333D01*
X19681380Y-51173637D01*
X19647121Y-51242153D01*
X19616714Y-51272561D01*
X19548199Y-51306819D01*
X19440752Y-51306819D01*
X19372236Y-51272561D01*
X19341829Y-51242153D01*
X19307571Y-51173637D01*
X19307571Y-50923333D01*
X19341829Y-50854817D01*
X19372236Y-50824410D01*
X19440752Y-50790152D01*
X19548199Y-50790152D01*
X19616715Y-50824410D01*
G37*
G36*
X20997667Y-50824410D02*
G01*
X21028074Y-50854817D01*
X21062332Y-50923333D01*
X21062332Y-51173637D01*
X21028073Y-51242153D01*
X20997666Y-51272561D01*
X20929151Y-51306819D01*
X20774085Y-51306819D01*
X20736142Y-51287847D01*
X20736142Y-50809123D01*
X20774085Y-50790152D01*
X20929151Y-50790152D01*
X20997667Y-50824410D01*
G37*
G36*
X21661142Y-51075866D02*
G01*
X21881532Y-51075866D01*
X21938573Y-51104386D01*
X21967094Y-51161428D01*
X21967094Y-51221256D01*
X21938573Y-51278298D01*
X21881532Y-51306819D01*
X21678847Y-51306819D01*
X21640904Y-51287847D01*
X21640904Y-51072297D01*
X21661142Y-51075866D01*
G37*
G36*
X17967094Y-50830628D02*
G01*
X17678847Y-50830628D01*
X17610331Y-50796370D01*
X17579924Y-50765963D01*
X17545666Y-50697447D01*
X17545666Y-50590000D01*
X17579924Y-50521484D01*
X17610331Y-50491077D01*
X17678847Y-50456819D01*
X17967094Y-50456819D01*
X17967094Y-50830628D01*
G37*
G36*
X22919475Y-50830628D02*
G01*
X22631228Y-50830628D01*
X22562712Y-50796370D01*
X22532305Y-50765963D01*
X22498047Y-50697447D01*
X22498047Y-50590000D01*
X22532305Y-50521484D01*
X22562712Y-50491077D01*
X22631228Y-50456819D01*
X22919475Y-50456819D01*
X22919475Y-50830628D01*
G37*
G36*
X23212332Y-51694914D02*
G01*
X15349186Y-51694914D01*
X15349186Y-51464033D01*
X18206329Y-51464033D01*
X18215238Y-51514557D01*
X18254538Y-51547534D01*
X18280190Y-51552057D01*
X19042095Y-51552057D01*
X19090304Y-51534510D01*
X19115956Y-51490081D01*
X19107047Y-51439557D01*
X19067747Y-51406580D01*
X19042095Y-51402057D01*
X18280190Y-51402057D01*
X18231981Y-51419604D01*
X18206329Y-51464033D01*
X15349186Y-51464033D01*
X15349186Y-51368795D01*
X15492043Y-51368795D01*
X15500952Y-51419319D01*
X15540252Y-51452296D01*
X15565904Y-51456819D01*
X16137332Y-51456819D01*
X16185541Y-51439272D01*
X16211193Y-51394843D01*
X16210350Y-51390062D01*
X16396121Y-51390062D01*
X16418859Y-51436051D01*
X16465839Y-51456664D01*
X16515077Y-51442256D01*
X16533070Y-51423421D01*
X16803999Y-51017027D01*
X17074928Y-51423421D01*
X17116270Y-51453800D01*
X17167466Y-51450499D01*
X17204563Y-51415061D01*
X17210202Y-51364069D01*
X17199736Y-51340216D01*
X16894138Y-50881819D01*
X17005249Y-50715152D01*
X17395666Y-50715152D01*
X17397199Y-50719365D01*
X17396158Y-50723726D01*
X17403584Y-50748693D01*
X17451203Y-50843931D01*
X17452392Y-50845056D01*
X17465252Y-50863423D01*
X17512871Y-50911042D01*
X17514352Y-50911733D01*
X17532363Y-50925091D01*
X17627601Y-50972710D01*
X17632054Y-50973222D01*
X17635490Y-50976105D01*
X17660081Y-50980440D01*
X17409224Y-51338809D01*
X17395953Y-51388366D01*
X17417640Y-51434860D01*
X17464140Y-51456535D01*
X17513693Y-51443250D01*
X17532108Y-51424829D01*
X17843048Y-50980628D01*
X17967094Y-50980628D01*
X17967094Y-51381819D01*
X17984641Y-51430028D01*
X18029070Y-51455680D01*
X18079594Y-51446771D01*
X18112571Y-51407471D01*
X18117094Y-51381819D01*
X18117094Y-51191342D01*
X19157571Y-51191342D01*
X19159104Y-51195555D01*
X19158063Y-51199916D01*
X19165489Y-51224883D01*
X19213108Y-51320121D01*
X19214296Y-51321246D01*
X19227156Y-51339612D01*
X19274775Y-51387232D01*
X19276256Y-51387922D01*
X19294268Y-51401282D01*
X19389506Y-51448901D01*
X19393959Y-51449413D01*
X19397395Y-51452296D01*
X19423047Y-51456819D01*
X19565904Y-51456819D01*
X19570117Y-51455285D01*
X19574478Y-51456327D01*
X19599445Y-51448901D01*
X19694683Y-51401282D01*
X19695807Y-51400094D01*
X19714176Y-51387232D01*
X19719589Y-51381819D01*
X20109951Y-51381819D01*
X20127498Y-51430028D01*
X20171927Y-51455680D01*
X20222451Y-51446771D01*
X20255428Y-51407471D01*
X20259951Y-51381819D01*
X20586142Y-51381819D01*
X20603689Y-51430028D01*
X20648118Y-51455680D01*
X20698642Y-51446771D01*
X20704534Y-51439748D01*
X20722839Y-51448901D01*
X20727292Y-51449413D01*
X20730728Y-51452296D01*
X20756380Y-51456819D01*
X20946856Y-51456819D01*
X20951069Y-51455285D01*
X20955430Y-51456327D01*
X20980397Y-51448901D01*
X21075635Y-51401282D01*
X21076759Y-51400094D01*
X21095128Y-51387232D01*
X21100541Y-51381819D01*
X21490904Y-51381819D01*
X21508451Y-51430028D01*
X21552880Y-51455680D01*
X21603404Y-51446771D01*
X21609296Y-51439748D01*
X21627601Y-51448901D01*
X21632054Y-51449413D01*
X21635490Y-51452296D01*
X21661142Y-51456819D01*
X21899237Y-51456819D01*
X21903450Y-51455285D01*
X21907811Y-51456327D01*
X21932778Y-51448901D01*
X22028016Y-51401282D01*
X22035735Y-51393128D01*
X22046040Y-51388662D01*
X22061557Y-51367741D01*
X22109176Y-51272502D01*
X22109688Y-51268048D01*
X22112571Y-51264613D01*
X22117094Y-51238961D01*
X22117094Y-51143723D01*
X22115560Y-51139509D01*
X22116602Y-51135148D01*
X22109176Y-51110182D01*
X22061557Y-51014944D01*
X22053403Y-51007224D01*
X22048937Y-50996920D01*
X22028016Y-50981403D01*
X21932778Y-50933784D01*
X21928324Y-50933271D01*
X21924889Y-50930389D01*
X21899237Y-50925866D01*
X21678847Y-50925866D01*
X21640904Y-50906894D01*
X21640904Y-50875714D01*
X21669424Y-50818672D01*
X21726466Y-50790152D01*
X21881532Y-50790152D01*
X21960934Y-50829853D01*
X22011900Y-50835718D01*
X22054713Y-50807452D01*
X22069340Y-50758277D01*
X22050647Y-50715152D01*
X22348047Y-50715152D01*
X22349580Y-50719365D01*
X22348539Y-50723726D01*
X22355965Y-50748693D01*
X22403584Y-50843931D01*
X22404773Y-50845056D01*
X22417633Y-50863423D01*
X22465252Y-50911042D01*
X22466733Y-50911733D01*
X22484744Y-50925091D01*
X22579982Y-50972710D01*
X22584435Y-50973222D01*
X22587871Y-50976105D01*
X22612462Y-50980440D01*
X22361605Y-51338809D01*
X22348334Y-51388366D01*
X22370021Y-51434860D01*
X22416521Y-51456535D01*
X22466074Y-51443250D01*
X22484489Y-51424829D01*
X22795429Y-50980628D01*
X22919475Y-50980628D01*
X22919475Y-51381819D01*
X22937022Y-51430028D01*
X22981451Y-51455680D01*
X23031975Y-51446771D01*
X23064952Y-51407471D01*
X23069475Y-51381819D01*
X23069475Y-50381819D01*
X23062811Y-50363510D01*
X23059427Y-50344319D01*
X23054242Y-50339968D01*
X23051928Y-50333610D01*
X23035054Y-50323867D01*
X23020127Y-50311342D01*
X23010384Y-50309624D01*
X23007499Y-50307958D01*
X23004216Y-50308536D01*
X22994475Y-50306819D01*
X22613523Y-50306819D01*
X22609309Y-50308352D01*
X22604948Y-50307311D01*
X22579982Y-50314737D01*
X22484744Y-50362356D01*
X22483618Y-50363545D01*
X22465252Y-50376405D01*
X22417633Y-50424024D01*
X22416942Y-50425505D01*
X22403584Y-50443516D01*
X22355965Y-50538754D01*
X22355452Y-50543207D01*
X22352570Y-50546643D01*
X22348047Y-50572295D01*
X22348047Y-50715152D01*
X22050647Y-50715152D01*
X22048937Y-50711206D01*
X22028016Y-50695689D01*
X21932778Y-50648070D01*
X21928324Y-50647557D01*
X21924889Y-50644675D01*
X21899237Y-50640152D01*
X21708761Y-50640152D01*
X21704547Y-50641685D01*
X21700186Y-50640644D01*
X21675220Y-50648070D01*
X21579982Y-50695689D01*
X21572262Y-50703842D01*
X21561958Y-50708309D01*
X21546441Y-50729230D01*
X21498822Y-50824468D01*
X21498309Y-50828921D01*
X21495427Y-50832357D01*
X21490904Y-50858009D01*
X21490904Y-51381819D01*
X21100541Y-51381819D01*
X21142746Y-51339613D01*
X21143436Y-51338131D01*
X21156795Y-51320121D01*
X21204414Y-51224883D01*
X21204926Y-51220429D01*
X21207809Y-51216994D01*
X21212332Y-51191342D01*
X21212332Y-50905628D01*
X21210798Y-50901414D01*
X21211840Y-50897053D01*
X21204414Y-50872087D01*
X21156795Y-50776849D01*
X21155605Y-50775723D01*
X21142746Y-50757357D01*
X21095127Y-50709738D01*
X21093645Y-50709047D01*
X21075635Y-50695689D01*
X20980397Y-50648070D01*
X20975943Y-50647557D01*
X20972508Y-50644675D01*
X20946856Y-50640152D01*
X20756380Y-50640152D01*
X20752166Y-50641685D01*
X20747805Y-50640644D01*
X20736142Y-50644113D01*
X20736142Y-50381819D01*
X20718595Y-50333610D01*
X20674166Y-50307958D01*
X20623642Y-50316867D01*
X20590665Y-50356167D01*
X20586142Y-50381819D01*
X20586142Y-51381819D01*
X20259951Y-51381819D01*
X20259951Y-50715152D01*
X20242404Y-50666943D01*
X20197975Y-50641291D01*
X20147451Y-50650200D01*
X20114474Y-50689500D01*
X20109951Y-50715152D01*
X20109951Y-51381819D01*
X19719589Y-51381819D01*
X19761794Y-51339613D01*
X19762484Y-51338131D01*
X19775843Y-51320121D01*
X19823462Y-51224883D01*
X19823974Y-51220429D01*
X19826857Y-51216994D01*
X19831380Y-51191342D01*
X19831380Y-50905628D01*
X19829846Y-50901414D01*
X19830888Y-50897053D01*
X19823462Y-50872087D01*
X19775843Y-50776849D01*
X19774653Y-50775723D01*
X19761794Y-50757357D01*
X19714175Y-50709738D01*
X19712693Y-50709047D01*
X19694683Y-50695689D01*
X19599445Y-50648070D01*
X19594991Y-50647557D01*
X19591556Y-50644675D01*
X19565904Y-50640152D01*
X19423047Y-50640152D01*
X19418833Y-50641685D01*
X19414472Y-50640644D01*
X19389506Y-50648070D01*
X19294268Y-50695689D01*
X19293142Y-50696878D01*
X19274776Y-50709738D01*
X19227157Y-50757357D01*
X19226466Y-50758838D01*
X19213108Y-50776849D01*
X19165489Y-50872087D01*
X19164976Y-50876540D01*
X19162094Y-50879976D01*
X19157571Y-50905628D01*
X19157571Y-51191342D01*
X18117094Y-51191342D01*
X18117094Y-50422902D01*
X20062618Y-50422902D01*
X20067660Y-50441721D01*
X20069359Y-50461134D01*
X20075032Y-50469236D01*
X20075895Y-50472456D01*
X20078625Y-50474367D01*
X20084299Y-50482471D01*
X20131918Y-50530090D01*
X20149576Y-50538323D01*
X20165540Y-50549502D01*
X20168956Y-50549203D01*
X20171927Y-50550918D01*
X20175306Y-50550322D01*
X20178414Y-50551771D01*
X20197233Y-50546728D01*
X20216647Y-50545030D01*
X20220460Y-50542360D01*
X20222451Y-50542009D01*
X20224572Y-50539480D01*
X20224749Y-50539356D01*
X20227969Y-50538494D01*
X20229880Y-50535764D01*
X20237984Y-50530090D01*
X20285603Y-50482471D01*
X20293838Y-50464810D01*
X20305014Y-50448849D01*
X20304424Y-50442107D01*
X20307284Y-50435975D01*
X20302241Y-50417153D01*
X20300543Y-50397742D01*
X20294869Y-50389639D01*
X20294007Y-50386420D01*
X20291277Y-50384508D01*
X20285603Y-50376405D01*
X20237984Y-50328786D01*
X20220323Y-50320551D01*
X20204362Y-50309375D01*
X20200946Y-50309673D01*
X20197975Y-50307958D01*
X20194594Y-50308554D01*
X20191487Y-50307105D01*
X20172665Y-50312147D01*
X20153255Y-50313846D01*
X20149441Y-50316515D01*
X20147451Y-50316867D01*
X20145329Y-50319395D01*
X20145152Y-50319519D01*
X20141933Y-50320382D01*
X20140021Y-50323112D01*
X20131918Y-50328786D01*
X20084299Y-50376405D01*
X20076065Y-50394062D01*
X20064887Y-50410027D01*
X20065477Y-50416770D01*
X20062618Y-50422902D01*
X18117094Y-50422902D01*
X18117094Y-50381819D01*
X18110430Y-50363510D01*
X18107046Y-50344319D01*
X18101861Y-50339968D01*
X18099547Y-50333610D01*
X18082673Y-50323867D01*
X18067746Y-50311342D01*
X18058003Y-50309624D01*
X18055118Y-50307958D01*
X18051835Y-50308536D01*
X18042094Y-50306819D01*
X17661142Y-50306819D01*
X17656928Y-50308352D01*
X17652567Y-50307311D01*
X17627601Y-50314737D01*
X17532363Y-50362356D01*
X17531237Y-50363545D01*
X17512871Y-50376405D01*
X17465252Y-50424024D01*
X17464561Y-50425505D01*
X17451203Y-50443516D01*
X17403584Y-50538754D01*
X17403071Y-50543207D01*
X17400189Y-50546643D01*
X17395666Y-50572295D01*
X17395666Y-50715152D01*
X17005249Y-50715152D01*
X17199736Y-50423422D01*
X17211877Y-50373576D01*
X17189139Y-50327587D01*
X17142159Y-50306974D01*
X17092921Y-50321382D01*
X17074928Y-50340217D01*
X16803999Y-50746610D01*
X16533070Y-50340217D01*
X16491728Y-50309838D01*
X16440532Y-50313139D01*
X16403435Y-50348577D01*
X16397796Y-50399569D01*
X16408262Y-50423421D01*
X16713860Y-50881819D01*
X16408262Y-51340217D01*
X16396121Y-51390062D01*
X16210350Y-51390062D01*
X16202284Y-51344319D01*
X16162984Y-51311342D01*
X16137332Y-51306819D01*
X15926618Y-51306819D01*
X15926618Y-50610504D01*
X15989061Y-50672947D01*
X15990542Y-50673637D01*
X16008553Y-50686996D01*
X16103791Y-50734615D01*
X16154757Y-50740480D01*
X16197570Y-50712214D01*
X16212197Y-50663039D01*
X16191794Y-50615968D01*
X16170873Y-50600451D01*
X16086521Y-50558275D01*
X16005140Y-50476894D01*
X15914022Y-50340216D01*
X15910545Y-50337661D01*
X15909071Y-50333610D01*
X15890221Y-50322726D01*
X15872680Y-50309837D01*
X15868377Y-50310114D01*
X15864642Y-50307958D01*
X15843204Y-50311738D01*
X15821484Y-50313139D01*
X15818365Y-50316118D01*
X15814118Y-50316867D01*
X15800125Y-50333542D01*
X15784387Y-50348577D01*
X15783912Y-50352863D01*
X15781141Y-50356167D01*
X15776618Y-50381819D01*
X15776618Y-51306819D01*
X15565904Y-51306819D01*
X15517695Y-51324366D01*
X15492043Y-51368795D01*
X15349186Y-51368795D01*
X15349186Y-50163962D01*
X23212332Y-50163962D01*
X23212332Y-51694914D01*
G37*
X60017819Y-20089905D02*
X59017819Y-20089905D01*
X59017819Y-20089905D02*
X59017819Y-20328000D01*
X59017819Y-20328000D02*
X59065438Y-20470857D01*
X59065438Y-20470857D02*
X59160676Y-20566095D01*
X59160676Y-20566095D02*
X59255914Y-20613714D01*
X59255914Y-20613714D02*
X59446390Y-20661333D01*
X59446390Y-20661333D02*
X59589247Y-20661333D01*
X59589247Y-20661333D02*
X59779723Y-20613714D01*
X59779723Y-20613714D02*
X59874961Y-20566095D01*
X59874961Y-20566095D02*
X59970200Y-20470857D01*
X59970200Y-20470857D02*
X60017819Y-20328000D01*
X60017819Y-20328000D02*
X60017819Y-20089905D01*
X59017819Y-20994667D02*
X59017819Y-21613714D01*
X59017819Y-21613714D02*
X59398771Y-21280381D01*
X59398771Y-21280381D02*
X59398771Y-21423238D01*
X59398771Y-21423238D02*
X59446390Y-21518476D01*
X59446390Y-21518476D02*
X59494009Y-21566095D01*
X59494009Y-21566095D02*
X59589247Y-21613714D01*
X59589247Y-21613714D02*
X59827342Y-21613714D01*
X59827342Y-21613714D02*
X59922580Y-21566095D01*
X59922580Y-21566095D02*
X59970200Y-21518476D01*
X59970200Y-21518476D02*
X60017819Y-21423238D01*
X60017819Y-21423238D02*
X60017819Y-21137524D01*
X60017819Y-21137524D02*
X59970200Y-21042286D01*
X59970200Y-21042286D02*
X59922580Y-20994667D01*
X28145919Y-14946333D02*
X27669728Y-14613000D01*
X28145919Y-14374905D02*
X27145919Y-14374905D01*
X27145919Y-14374905D02*
X27145919Y-14755857D01*
X27145919Y-14755857D02*
X27193538Y-14851095D01*
X27193538Y-14851095D02*
X27241157Y-14898714D01*
X27241157Y-14898714D02*
X27336395Y-14946333D01*
X27336395Y-14946333D02*
X27479252Y-14946333D01*
X27479252Y-14946333D02*
X27574490Y-14898714D01*
X27574490Y-14898714D02*
X27622109Y-14851095D01*
X27622109Y-14851095D02*
X27669728Y-14755857D01*
X27669728Y-14755857D02*
X27669728Y-14374905D01*
X27145919Y-15851095D02*
X27145919Y-15374905D01*
X27145919Y-15374905D02*
X27622109Y-15327286D01*
X27622109Y-15327286D02*
X27574490Y-15374905D01*
X27574490Y-15374905D02*
X27526871Y-15470143D01*
X27526871Y-15470143D02*
X27526871Y-15708238D01*
X27526871Y-15708238D02*
X27574490Y-15803476D01*
X27574490Y-15803476D02*
X27622109Y-15851095D01*
X27622109Y-15851095D02*
X27717347Y-15898714D01*
X27717347Y-15898714D02*
X27955442Y-15898714D01*
X27955442Y-15898714D02*
X28050680Y-15851095D01*
X28050680Y-15851095D02*
X28098300Y-15803476D01*
X28098300Y-15803476D02*
X28145919Y-15708238D01*
X28145919Y-15708238D02*
X28145919Y-15470143D01*
X28145919Y-15470143D02*
X28098300Y-15374905D01*
X28098300Y-15374905D02*
X28050680Y-15327286D01*
X67698857Y-14297819D02*
X68032190Y-13821628D01*
X68270285Y-14297819D02*
X68270285Y-13297819D01*
X68270285Y-13297819D02*
X67889333Y-13297819D01*
X67889333Y-13297819D02*
X67794095Y-13345438D01*
X67794095Y-13345438D02*
X67746476Y-13393057D01*
X67746476Y-13393057D02*
X67698857Y-13488295D01*
X67698857Y-13488295D02*
X67698857Y-13631152D01*
X67698857Y-13631152D02*
X67746476Y-13726390D01*
X67746476Y-13726390D02*
X67794095Y-13774009D01*
X67794095Y-13774009D02*
X67889333Y-13821628D01*
X67889333Y-13821628D02*
X68270285Y-13821628D01*
X66746476Y-14297819D02*
X67317904Y-14297819D01*
X67032190Y-14297819D02*
X67032190Y-13297819D01*
X67032190Y-13297819D02*
X67127428Y-13440676D01*
X67127428Y-13440676D02*
X67222666Y-13535914D01*
X67222666Y-13535914D02*
X67317904Y-13583533D01*
X65841714Y-13297819D02*
X66317904Y-13297819D01*
X66317904Y-13297819D02*
X66365523Y-13774009D01*
X66365523Y-13774009D02*
X66317904Y-13726390D01*
X66317904Y-13726390D02*
X66222666Y-13678771D01*
X66222666Y-13678771D02*
X65984571Y-13678771D01*
X65984571Y-13678771D02*
X65889333Y-13726390D01*
X65889333Y-13726390D02*
X65841714Y-13774009D01*
X65841714Y-13774009D02*
X65794095Y-13869247D01*
X65794095Y-13869247D02*
X65794095Y-14107342D01*
X65794095Y-14107342D02*
X65841714Y-14202580D01*
X65841714Y-14202580D02*
X65889333Y-14250200D01*
X65889333Y-14250200D02*
X65984571Y-14297819D01*
X65984571Y-14297819D02*
X66222666Y-14297819D01*
X66222666Y-14297819D02*
X66317904Y-14250200D01*
X66317904Y-14250200D02*
X66365523Y-14202580D01*
X39332819Y-16565666D02*
X40047104Y-16565666D01*
X40047104Y-16565666D02*
X40189961Y-16518047D01*
X40189961Y-16518047D02*
X40285200Y-16422809D01*
X40285200Y-16422809D02*
X40332819Y-16279952D01*
X40332819Y-16279952D02*
X40332819Y-16184714D01*
X40332819Y-17041857D02*
X39332819Y-17041857D01*
X39332819Y-17041857D02*
X39332819Y-17422809D01*
X39332819Y-17422809D02*
X39380438Y-17518047D01*
X39380438Y-17518047D02*
X39428057Y-17565666D01*
X39428057Y-17565666D02*
X39523295Y-17613285D01*
X39523295Y-17613285D02*
X39666152Y-17613285D01*
X39666152Y-17613285D02*
X39761390Y-17565666D01*
X39761390Y-17565666D02*
X39809009Y-17518047D01*
X39809009Y-17518047D02*
X39856628Y-17422809D01*
X39856628Y-17422809D02*
X39856628Y-17041857D01*
X40332819Y-18565666D02*
X40332819Y-17994238D01*
X40332819Y-18279952D02*
X39332819Y-18279952D01*
X39332819Y-18279952D02*
X39475676Y-18184714D01*
X39475676Y-18184714D02*
X39570914Y-18089476D01*
X39570914Y-18089476D02*
X39618533Y-17994238D01*
X36776819Y-15271714D02*
X36776819Y-14700286D01*
X36776819Y-14986000D02*
X35776819Y-14986000D01*
X35776819Y-14986000D02*
X35919676Y-14890762D01*
X35919676Y-14890762D02*
X36014914Y-14795524D01*
X36014914Y-14795524D02*
X36062533Y-14700286D01*
X35814919Y-19665667D02*
X35814919Y-20284714D01*
X35814919Y-20284714D02*
X36195871Y-19951381D01*
X36195871Y-19951381D02*
X36195871Y-20094238D01*
X36195871Y-20094238D02*
X36243490Y-20189476D01*
X36243490Y-20189476D02*
X36291109Y-20237095D01*
X36291109Y-20237095D02*
X36386347Y-20284714D01*
X36386347Y-20284714D02*
X36624442Y-20284714D01*
X36624442Y-20284714D02*
X36719680Y-20237095D01*
X36719680Y-20237095D02*
X36767300Y-20189476D01*
X36767300Y-20189476D02*
X36814919Y-20094238D01*
X36814919Y-20094238D02*
X36814919Y-19808524D01*
X36814919Y-19808524D02*
X36767300Y-19713286D01*
X36767300Y-19713286D02*
X36719680Y-19665667D01*
X39028666Y-14551819D02*
X39361999Y-14075628D01*
X39600094Y-14551819D02*
X39600094Y-13551819D01*
X39600094Y-13551819D02*
X39219142Y-13551819D01*
X39219142Y-13551819D02*
X39123904Y-13599438D01*
X39123904Y-13599438D02*
X39076285Y-13647057D01*
X39076285Y-13647057D02*
X39028666Y-13742295D01*
X39028666Y-13742295D02*
X39028666Y-13885152D01*
X39028666Y-13885152D02*
X39076285Y-13980390D01*
X39076285Y-13980390D02*
X39123904Y-14028009D01*
X39123904Y-14028009D02*
X39219142Y-14075628D01*
X39219142Y-14075628D02*
X39600094Y-14075628D01*
X38076285Y-14551819D02*
X38647713Y-14551819D01*
X38361999Y-14551819D02*
X38361999Y-13551819D01*
X38361999Y-13551819D02*
X38457237Y-13694676D01*
X38457237Y-13694676D02*
X38552475Y-13789914D01*
X38552475Y-13789914D02*
X38647713Y-13837533D01*
G36*
X50765189Y-39283628D02*
G01*
X50476942Y-39283628D01*
X50408426Y-39249370D01*
X50378019Y-39218963D01*
X50343761Y-39150447D01*
X50343761Y-39043000D01*
X50378019Y-38974484D01*
X50408426Y-38944077D01*
X50476942Y-38909819D01*
X50765189Y-38909819D01*
X50765189Y-39283628D01*
G37*
G36*
X52105665Y-40052676D02*
G01*
X48623472Y-40052676D01*
X48623472Y-39821795D01*
X48766329Y-39821795D01*
X48775238Y-39872319D01*
X48814538Y-39905296D01*
X48840190Y-39909819D01*
X49411618Y-39909819D01*
X49459827Y-39892272D01*
X49485479Y-39847843D01*
X49483182Y-39834819D01*
X49765189Y-39834819D01*
X49782736Y-39883028D01*
X49827165Y-39908680D01*
X49877689Y-39899771D01*
X49910666Y-39860471D01*
X49915189Y-39834819D01*
X49915189Y-39168152D01*
X50193761Y-39168152D01*
X50195294Y-39172365D01*
X50194253Y-39176726D01*
X50201679Y-39201693D01*
X50249298Y-39296931D01*
X50250487Y-39298056D01*
X50263347Y-39316423D01*
X50310966Y-39364042D01*
X50312447Y-39364733D01*
X50330458Y-39378091D01*
X50425696Y-39425710D01*
X50430149Y-39426222D01*
X50433585Y-39429105D01*
X50459237Y-39433628D01*
X50765189Y-39433628D01*
X50765189Y-39834819D01*
X50782736Y-39883028D01*
X50827165Y-39908680D01*
X50877689Y-39899771D01*
X50910666Y-39860471D01*
X50915189Y-39834819D01*
X50915189Y-39739580D01*
X51193761Y-39739580D01*
X51199360Y-39754963D01*
X51200787Y-39771275D01*
X51210179Y-39784689D01*
X51211308Y-39787789D01*
X51213057Y-39788798D01*
X51215727Y-39792612D01*
X51263346Y-39840232D01*
X51267410Y-39842127D01*
X51269758Y-39845948D01*
X51292663Y-39858351D01*
X51435519Y-39905970D01*
X51437154Y-39905925D01*
X51459237Y-39909819D01*
X51554475Y-39909819D01*
X51556013Y-39909258D01*
X51578192Y-39905970D01*
X51721049Y-39858351D01*
X51724561Y-39855563D01*
X51729028Y-39855173D01*
X51750365Y-39840233D01*
X51845604Y-39744993D01*
X51846295Y-39743510D01*
X51859652Y-39725502D01*
X51907271Y-39630264D01*
X51907677Y-39626735D01*
X51912950Y-39614913D01*
X51960569Y-39424437D01*
X51960208Y-39420988D01*
X51962808Y-39406247D01*
X51962808Y-39263390D01*
X51961622Y-39260132D01*
X51960569Y-39245200D01*
X51912950Y-39054724D01*
X51910961Y-39051779D01*
X51907271Y-39039373D01*
X51859652Y-38944135D01*
X51858465Y-38943011D01*
X51845603Y-38924643D01*
X51750365Y-38829405D01*
X51746301Y-38827510D01*
X51743954Y-38823689D01*
X51721049Y-38811287D01*
X51578192Y-38763668D01*
X51576557Y-38763712D01*
X51554475Y-38759819D01*
X51411618Y-38759819D01*
X51407404Y-38761352D01*
X51403043Y-38760311D01*
X51378077Y-38767737D01*
X51282839Y-38815356D01*
X51247567Y-38852610D01*
X51244492Y-38903821D01*
X51275056Y-38945026D01*
X51324954Y-38956946D01*
X51349921Y-38949520D01*
X51429323Y-38909819D01*
X51542305Y-38909819D01*
X51656818Y-38947990D01*
X51730931Y-39022103D01*
X51769424Y-39099090D01*
X51812808Y-39272624D01*
X51812808Y-39397013D01*
X51769424Y-39570547D01*
X51730930Y-39647534D01*
X51656818Y-39721647D01*
X51542305Y-39759819D01*
X51471407Y-39759819D01*
X51356894Y-39721648D01*
X51343761Y-39708514D01*
X51343761Y-39481247D01*
X51459237Y-39481247D01*
X51507446Y-39463700D01*
X51533098Y-39419271D01*
X51524189Y-39368747D01*
X51484889Y-39335770D01*
X51459237Y-39331247D01*
X51268761Y-39331247D01*
X51250452Y-39337910D01*
X51231261Y-39341295D01*
X51226910Y-39346479D01*
X51220552Y-39348794D01*
X51210809Y-39365667D01*
X51198284Y-39380595D01*
X51196566Y-39390337D01*
X51194900Y-39393223D01*
X51195478Y-39396505D01*
X51193761Y-39406247D01*
X51193761Y-39739580D01*
X50915189Y-39739580D01*
X50915189Y-38834819D01*
X50908525Y-38816510D01*
X50905141Y-38797319D01*
X50899956Y-38792968D01*
X50897642Y-38786610D01*
X50880768Y-38776867D01*
X50865841Y-38764342D01*
X50856098Y-38762624D01*
X50853213Y-38760958D01*
X50849930Y-38761536D01*
X50840189Y-38759819D01*
X50459237Y-38759819D01*
X50455023Y-38761352D01*
X50450662Y-38760311D01*
X50425696Y-38767737D01*
X50330458Y-38815356D01*
X50329332Y-38816545D01*
X50310966Y-38829405D01*
X50263347Y-38877024D01*
X50262656Y-38878505D01*
X50249298Y-38896516D01*
X50201679Y-38991754D01*
X50201166Y-38996207D01*
X50198284Y-38999643D01*
X50193761Y-39025295D01*
X50193761Y-39168152D01*
X49915189Y-39168152D01*
X49915189Y-38834819D01*
X49897642Y-38786610D01*
X49853213Y-38760958D01*
X49802689Y-38769867D01*
X49769712Y-38809167D01*
X49765189Y-38834819D01*
X49765189Y-39834819D01*
X49483182Y-39834819D01*
X49476570Y-39797319D01*
X49437270Y-39764342D01*
X49411618Y-39759819D01*
X49200904Y-39759819D01*
X49200904Y-39063504D01*
X49263347Y-39125947D01*
X49264828Y-39126637D01*
X49282839Y-39139996D01*
X49378077Y-39187615D01*
X49429043Y-39193480D01*
X49471856Y-39165214D01*
X49486483Y-39116039D01*
X49466080Y-39068968D01*
X49445159Y-39053451D01*
X49360807Y-39011275D01*
X49279426Y-38929894D01*
X49188308Y-38793216D01*
X49184831Y-38790661D01*
X49183357Y-38786610D01*
X49164507Y-38775726D01*
X49146966Y-38762837D01*
X49142663Y-38763114D01*
X49138928Y-38760958D01*
X49117490Y-38764738D01*
X49095770Y-38766139D01*
X49092651Y-38769118D01*
X49088404Y-38769867D01*
X49074411Y-38786542D01*
X49058673Y-38801577D01*
X49058198Y-38805863D01*
X49055427Y-38809167D01*
X49050904Y-38834819D01*
X49050904Y-39759819D01*
X48840190Y-39759819D01*
X48791981Y-39777366D01*
X48766329Y-39821795D01*
X48623472Y-39821795D01*
X48623472Y-38616962D01*
X52105665Y-38616962D01*
X52105665Y-40052676D01*
G37*
X66240819Y-19296142D02*
X65764628Y-18962809D01*
X66240819Y-18724714D02*
X65240819Y-18724714D01*
X65240819Y-18724714D02*
X65240819Y-19105666D01*
X65240819Y-19105666D02*
X65288438Y-19200904D01*
X65288438Y-19200904D02*
X65336057Y-19248523D01*
X65336057Y-19248523D02*
X65431295Y-19296142D01*
X65431295Y-19296142D02*
X65574152Y-19296142D01*
X65574152Y-19296142D02*
X65669390Y-19248523D01*
X65669390Y-19248523D02*
X65717009Y-19200904D01*
X65717009Y-19200904D02*
X65764628Y-19105666D01*
X65764628Y-19105666D02*
X65764628Y-18724714D01*
X66240819Y-20248523D02*
X66240819Y-19677095D01*
X66240819Y-19962809D02*
X65240819Y-19962809D01*
X65240819Y-19962809D02*
X65383676Y-19867571D01*
X65383676Y-19867571D02*
X65478914Y-19772333D01*
X65478914Y-19772333D02*
X65526533Y-19677095D01*
X66240819Y-20724714D02*
X66240819Y-20915190D01*
X66240819Y-20915190D02*
X66193200Y-21010428D01*
X66193200Y-21010428D02*
X66145580Y-21058047D01*
X66145580Y-21058047D02*
X66002723Y-21153285D01*
X66002723Y-21153285D02*
X65812247Y-21200904D01*
X65812247Y-21200904D02*
X65431295Y-21200904D01*
X65431295Y-21200904D02*
X65336057Y-21153285D01*
X65336057Y-21153285D02*
X65288438Y-21105666D01*
X65288438Y-21105666D02*
X65240819Y-21010428D01*
X65240819Y-21010428D02*
X65240819Y-20819952D01*
X65240819Y-20819952D02*
X65288438Y-20724714D01*
X65288438Y-20724714D02*
X65336057Y-20677095D01*
X65336057Y-20677095D02*
X65431295Y-20629476D01*
X65431295Y-20629476D02*
X65669390Y-20629476D01*
X65669390Y-20629476D02*
X65764628Y-20677095D01*
X65764628Y-20677095D02*
X65812247Y-20724714D01*
X65812247Y-20724714D02*
X65859866Y-20819952D01*
X65859866Y-20819952D02*
X65859866Y-21010428D01*
X65859866Y-21010428D02*
X65812247Y-21105666D01*
X65812247Y-21105666D02*
X65764628Y-21153285D01*
X65764628Y-21153285D02*
X65669390Y-21200904D01*
X45127057Y-13239761D02*
X45079438Y-13144523D01*
X45079438Y-13144523D02*
X44984200Y-13049285D01*
X44984200Y-13049285D02*
X44841342Y-12906428D01*
X44841342Y-12906428D02*
X44793723Y-12811190D01*
X44793723Y-12811190D02*
X44793723Y-12715952D01*
X45031819Y-12763571D02*
X44984200Y-12668333D01*
X44984200Y-12668333D02*
X44888961Y-12573095D01*
X44888961Y-12573095D02*
X44698485Y-12525476D01*
X44698485Y-12525476D02*
X44365152Y-12525476D01*
X44365152Y-12525476D02*
X44174676Y-12573095D01*
X44174676Y-12573095D02*
X44079438Y-12668333D01*
X44079438Y-12668333D02*
X44031819Y-12763571D01*
X44031819Y-12763571D02*
X44031819Y-12954047D01*
X44031819Y-12954047D02*
X44079438Y-13049285D01*
X44079438Y-13049285D02*
X44174676Y-13144523D01*
X44174676Y-13144523D02*
X44365152Y-13192142D01*
X44365152Y-13192142D02*
X44698485Y-13192142D01*
X44698485Y-13192142D02*
X44888961Y-13144523D01*
X44888961Y-13144523D02*
X44984200Y-13049285D01*
X44984200Y-13049285D02*
X45031819Y-12954047D01*
X45031819Y-12954047D02*
X45031819Y-12763571D01*
X44031819Y-13525476D02*
X44031819Y-14144523D01*
X44031819Y-14144523D02*
X44412771Y-13811190D01*
X44412771Y-13811190D02*
X44412771Y-13954047D01*
X44412771Y-13954047D02*
X44460390Y-14049285D01*
X44460390Y-14049285D02*
X44508009Y-14096904D01*
X44508009Y-14096904D02*
X44603247Y-14144523D01*
X44603247Y-14144523D02*
X44841342Y-14144523D01*
X44841342Y-14144523D02*
X44936580Y-14096904D01*
X44936580Y-14096904D02*
X44984200Y-14049285D01*
X44984200Y-14049285D02*
X45031819Y-13954047D01*
X45031819Y-13954047D02*
X45031819Y-13668333D01*
X45031819Y-13668333D02*
X44984200Y-13573095D01*
X44984200Y-13573095D02*
X44936580Y-13525476D01*
X49332357Y-32458819D02*
X49665690Y-31982628D01*
X49903785Y-32458819D02*
X49903785Y-31458819D01*
X49903785Y-31458819D02*
X49522833Y-31458819D01*
X49522833Y-31458819D02*
X49427595Y-31506438D01*
X49427595Y-31506438D02*
X49379976Y-31554057D01*
X49379976Y-31554057D02*
X49332357Y-31649295D01*
X49332357Y-31649295D02*
X49332357Y-31792152D01*
X49332357Y-31792152D02*
X49379976Y-31887390D01*
X49379976Y-31887390D02*
X49427595Y-31935009D01*
X49427595Y-31935009D02*
X49522833Y-31982628D01*
X49522833Y-31982628D02*
X49903785Y-31982628D01*
X48379976Y-32458819D02*
X48951404Y-32458819D01*
X48665690Y-32458819D02*
X48665690Y-31458819D01*
X48665690Y-31458819D02*
X48760928Y-31601676D01*
X48760928Y-31601676D02*
X48856166Y-31696914D01*
X48856166Y-31696914D02*
X48951404Y-31744533D01*
X47522833Y-31792152D02*
X47522833Y-32458819D01*
X47760928Y-31411200D02*
X47999023Y-32125485D01*
X47999023Y-32125485D02*
X47379976Y-32125485D01*
X46930457Y-21240761D02*
X46882838Y-21145523D01*
X46882838Y-21145523D02*
X46787600Y-21050285D01*
X46787600Y-21050285D02*
X46644742Y-20907428D01*
X46644742Y-20907428D02*
X46597123Y-20812190D01*
X46597123Y-20812190D02*
X46597123Y-20716952D01*
X46835219Y-20764571D02*
X46787600Y-20669333D01*
X46787600Y-20669333D02*
X46692361Y-20574095D01*
X46692361Y-20574095D02*
X46501885Y-20526476D01*
X46501885Y-20526476D02*
X46168552Y-20526476D01*
X46168552Y-20526476D02*
X45978076Y-20574095D01*
X45978076Y-20574095D02*
X45882838Y-20669333D01*
X45882838Y-20669333D02*
X45835219Y-20764571D01*
X45835219Y-20764571D02*
X45835219Y-20955047D01*
X45835219Y-20955047D02*
X45882838Y-21050285D01*
X45882838Y-21050285D02*
X45978076Y-21145523D01*
X45978076Y-21145523D02*
X46168552Y-21193142D01*
X46168552Y-21193142D02*
X46501885Y-21193142D01*
X46501885Y-21193142D02*
X46692361Y-21145523D01*
X46692361Y-21145523D02*
X46787600Y-21050285D01*
X46787600Y-21050285D02*
X46835219Y-20955047D01*
X46835219Y-20955047D02*
X46835219Y-20764571D01*
X46168552Y-22050285D02*
X46835219Y-22050285D01*
X45787600Y-21812190D02*
X46501885Y-21574095D01*
X46501885Y-21574095D02*
X46501885Y-22193142D01*
X21851857Y-47317819D02*
X22185190Y-46841628D01*
X22423285Y-47317819D02*
X22423285Y-46317819D01*
X22423285Y-46317819D02*
X22042333Y-46317819D01*
X22042333Y-46317819D02*
X21947095Y-46365438D01*
X21947095Y-46365438D02*
X21899476Y-46413057D01*
X21899476Y-46413057D02*
X21851857Y-46508295D01*
X21851857Y-46508295D02*
X21851857Y-46651152D01*
X21851857Y-46651152D02*
X21899476Y-46746390D01*
X21899476Y-46746390D02*
X21947095Y-46794009D01*
X21947095Y-46794009D02*
X22042333Y-46841628D01*
X22042333Y-46841628D02*
X22423285Y-46841628D01*
X21470904Y-46413057D02*
X21423285Y-46365438D01*
X21423285Y-46365438D02*
X21328047Y-46317819D01*
X21328047Y-46317819D02*
X21089952Y-46317819D01*
X21089952Y-46317819D02*
X20994714Y-46365438D01*
X20994714Y-46365438D02*
X20947095Y-46413057D01*
X20947095Y-46413057D02*
X20899476Y-46508295D01*
X20899476Y-46508295D02*
X20899476Y-46603533D01*
X20899476Y-46603533D02*
X20947095Y-46746390D01*
X20947095Y-46746390D02*
X21518523Y-47317819D01*
X21518523Y-47317819D02*
X20899476Y-47317819D01*
X20518523Y-46413057D02*
X20470904Y-46365438D01*
X20470904Y-46365438D02*
X20375666Y-46317819D01*
X20375666Y-46317819D02*
X20137571Y-46317819D01*
X20137571Y-46317819D02*
X20042333Y-46365438D01*
X20042333Y-46365438D02*
X19994714Y-46413057D01*
X19994714Y-46413057D02*
X19947095Y-46508295D01*
X19947095Y-46508295D02*
X19947095Y-46603533D01*
X19947095Y-46603533D02*
X19994714Y-46746390D01*
X19994714Y-46746390D02*
X20566142Y-47317819D01*
X20566142Y-47317819D02*
X19947095Y-47317819D01*
X28871057Y-33813761D02*
X28823438Y-33718523D01*
X28823438Y-33718523D02*
X28728200Y-33623285D01*
X28728200Y-33623285D02*
X28585342Y-33480428D01*
X28585342Y-33480428D02*
X28537723Y-33385190D01*
X28537723Y-33385190D02*
X28537723Y-33289952D01*
X28775819Y-33337571D02*
X28728200Y-33242333D01*
X28728200Y-33242333D02*
X28632961Y-33147095D01*
X28632961Y-33147095D02*
X28442485Y-33099476D01*
X28442485Y-33099476D02*
X28109152Y-33099476D01*
X28109152Y-33099476D02*
X27918676Y-33147095D01*
X27918676Y-33147095D02*
X27823438Y-33242333D01*
X27823438Y-33242333D02*
X27775819Y-33337571D01*
X27775819Y-33337571D02*
X27775819Y-33528047D01*
X27775819Y-33528047D02*
X27823438Y-33623285D01*
X27823438Y-33623285D02*
X27918676Y-33718523D01*
X27918676Y-33718523D02*
X28109152Y-33766142D01*
X28109152Y-33766142D02*
X28442485Y-33766142D01*
X28442485Y-33766142D02*
X28632961Y-33718523D01*
X28632961Y-33718523D02*
X28728200Y-33623285D01*
X28728200Y-33623285D02*
X28775819Y-33528047D01*
X28775819Y-33528047D02*
X28775819Y-33337571D01*
X27775819Y-34670904D02*
X27775819Y-34194714D01*
X27775819Y-34194714D02*
X28252009Y-34147095D01*
X28252009Y-34147095D02*
X28204390Y-34194714D01*
X28204390Y-34194714D02*
X28156771Y-34289952D01*
X28156771Y-34289952D02*
X28156771Y-34528047D01*
X28156771Y-34528047D02*
X28204390Y-34623285D01*
X28204390Y-34623285D02*
X28252009Y-34670904D01*
X28252009Y-34670904D02*
X28347247Y-34718523D01*
X28347247Y-34718523D02*
X28585342Y-34718523D01*
X28585342Y-34718523D02*
X28680580Y-34670904D01*
X28680580Y-34670904D02*
X28728200Y-34623285D01*
X28728200Y-34623285D02*
X28775819Y-34528047D01*
X28775819Y-34528047D02*
X28775819Y-34289952D01*
X28775819Y-34289952D02*
X28728200Y-34194714D01*
X28728200Y-34194714D02*
X28680580Y-34147095D01*
X34840057Y-21875761D02*
X34792438Y-21780523D01*
X34792438Y-21780523D02*
X34697200Y-21685285D01*
X34697200Y-21685285D02*
X34554342Y-21542428D01*
X34554342Y-21542428D02*
X34506723Y-21447190D01*
X34506723Y-21447190D02*
X34506723Y-21351952D01*
X34744819Y-21399571D02*
X34697200Y-21304333D01*
X34697200Y-21304333D02*
X34601961Y-21209095D01*
X34601961Y-21209095D02*
X34411485Y-21161476D01*
X34411485Y-21161476D02*
X34078152Y-21161476D01*
X34078152Y-21161476D02*
X33887676Y-21209095D01*
X33887676Y-21209095D02*
X33792438Y-21304333D01*
X33792438Y-21304333D02*
X33744819Y-21399571D01*
X33744819Y-21399571D02*
X33744819Y-21590047D01*
X33744819Y-21590047D02*
X33792438Y-21685285D01*
X33792438Y-21685285D02*
X33887676Y-21780523D01*
X33887676Y-21780523D02*
X34078152Y-21828142D01*
X34078152Y-21828142D02*
X34411485Y-21828142D01*
X34411485Y-21828142D02*
X34601961Y-21780523D01*
X34601961Y-21780523D02*
X34697200Y-21685285D01*
X34697200Y-21685285D02*
X34744819Y-21590047D01*
X34744819Y-21590047D02*
X34744819Y-21399571D01*
X33840057Y-22209095D02*
X33792438Y-22256714D01*
X33792438Y-22256714D02*
X33744819Y-22351952D01*
X33744819Y-22351952D02*
X33744819Y-22590047D01*
X33744819Y-22590047D02*
X33792438Y-22685285D01*
X33792438Y-22685285D02*
X33840057Y-22732904D01*
X33840057Y-22732904D02*
X33935295Y-22780523D01*
X33935295Y-22780523D02*
X34030533Y-22780523D01*
X34030533Y-22780523D02*
X34173390Y-22732904D01*
X34173390Y-22732904D02*
X34744819Y-22161476D01*
X34744819Y-22161476D02*
X34744819Y-22780523D01*
X28488819Y-24217333D02*
X28012628Y-23884000D01*
X28488819Y-23645905D02*
X27488819Y-23645905D01*
X27488819Y-23645905D02*
X27488819Y-24026857D01*
X27488819Y-24026857D02*
X27536438Y-24122095D01*
X27536438Y-24122095D02*
X27584057Y-24169714D01*
X27584057Y-24169714D02*
X27679295Y-24217333D01*
X27679295Y-24217333D02*
X27822152Y-24217333D01*
X27822152Y-24217333D02*
X27917390Y-24169714D01*
X27917390Y-24169714D02*
X27965009Y-24122095D01*
X27965009Y-24122095D02*
X28012628Y-24026857D01*
X28012628Y-24026857D02*
X28012628Y-23645905D01*
X27488819Y-25074476D02*
X27488819Y-24884000D01*
X27488819Y-24884000D02*
X27536438Y-24788762D01*
X27536438Y-24788762D02*
X27584057Y-24741143D01*
X27584057Y-24741143D02*
X27726914Y-24645905D01*
X27726914Y-24645905D02*
X27917390Y-24598286D01*
X27917390Y-24598286D02*
X28298342Y-24598286D01*
X28298342Y-24598286D02*
X28393580Y-24645905D01*
X28393580Y-24645905D02*
X28441200Y-24693524D01*
X28441200Y-24693524D02*
X28488819Y-24788762D01*
X28488819Y-24788762D02*
X28488819Y-24979238D01*
X28488819Y-24979238D02*
X28441200Y-25074476D01*
X28441200Y-25074476D02*
X28393580Y-25122095D01*
X28393580Y-25122095D02*
X28298342Y-25169714D01*
X28298342Y-25169714D02*
X28060247Y-25169714D01*
X28060247Y-25169714D02*
X27965009Y-25122095D01*
X27965009Y-25122095D02*
X27917390Y-25074476D01*
X27917390Y-25074476D02*
X27869771Y-24979238D01*
X27869771Y-24979238D02*
X27869771Y-24788762D01*
X27869771Y-24788762D02*
X27917390Y-24693524D01*
X27917390Y-24693524D02*
X27965009Y-24645905D01*
X27965009Y-24645905D02*
X28060247Y-24598286D01*
D11*
%TO.C,TH2*%
X31530936Y-26776000D02*
X32985064Y-26776000D01*
X31530936Y-28596000D02*
X32985064Y-28596000D01*
%TO.C,R17*%
X24845500Y-37161776D02*
X24845500Y-37671224D01*
X23800500Y-37161776D02*
X23800500Y-37671224D01*
%TO.C,JP2*%
X36749000Y-24493000D02*
X36149000Y-24493000D01*
X35449000Y-25143000D02*
X35449000Y-27943000D01*
X37449000Y-27943000D02*
X37449000Y-25143000D01*
X36149000Y-28593000D02*
X36749000Y-28593000D01*
X37449000Y-25193000D02*
G75*
G03*
X36749000Y-24493000I-699999J1D01*
G01*
X36149000Y-24493000D02*
G75*
G03*
X35449000Y-25193000I-1J-699999D01*
G01*
X36749000Y-28593000D02*
G75*
G03*
X37449000Y-27893000I0J700000D01*
G01*
X35449000Y-27893000D02*
G75*
G03*
X36149000Y-28593000I700000J0D01*
G01*
%TO.C,R13*%
X27131500Y-34494776D02*
X27131500Y-35004224D01*
X26086500Y-34494776D02*
X26086500Y-35004224D01*
%TO.C,JP4*%
X50592000Y-24112000D02*
X49992000Y-24112000D01*
X49292000Y-24762000D02*
X49292000Y-27562000D01*
X51292000Y-27562000D02*
X51292000Y-24762000D01*
X49992000Y-28212000D02*
X50592000Y-28212000D01*
X51292000Y-24812000D02*
G75*
G03*
X50592000Y-24112000I-699999J1D01*
G01*
X49992000Y-24112000D02*
G75*
G03*
X49292000Y-24812000I-1J-699999D01*
G01*
X50592000Y-28212000D02*
G75*
G03*
X51292000Y-27512000I0J700000D01*
G01*
X49292000Y-27512000D02*
G75*
G03*
X49992000Y-28212000I700000J0D01*
G01*
%TO.C,D4*%
X58127000Y-23231500D02*
X61387000Y-23231500D01*
X58127000Y-24931500D02*
X58127000Y-23231500D01*
X58127000Y-24931500D02*
X61387000Y-24931500D01*
%TO.C,EXT_Power1*%
X68280000Y-48111000D02*
X57910000Y-48111000D01*
X68280000Y-47811000D02*
X68280000Y-48111000D01*
X68280000Y-46271000D02*
X68280000Y-40521000D01*
X68280000Y-40521000D02*
X66860000Y-40521000D01*
X66860000Y-41021000D02*
X59330000Y-41021000D01*
X66860000Y-40521000D02*
X66860000Y-41021000D01*
X59330000Y-41021000D02*
X59330000Y-40521000D01*
X59330000Y-40521000D02*
X57910000Y-40521000D01*
X57910000Y-48111000D02*
X57910000Y-47811000D01*
X57910000Y-40521000D02*
X57910000Y-46271000D01*
%TO.C,R21*%
X21335276Y-26909500D02*
X21844724Y-26909500D01*
X21335276Y-27954500D02*
X21844724Y-27954500D01*
%TO.C,R3*%
X50889624Y-14492500D02*
X50380176Y-14492500D01*
X50889624Y-13447500D02*
X50380176Y-13447500D01*
%TO.C,D1*%
X21551000Y-29581500D02*
X24811000Y-29581500D01*
X21551000Y-31281500D02*
X21551000Y-29581500D01*
X21551000Y-31281500D02*
X24811000Y-31281500D01*
%TO.C,Radio_TX1*%
X19767000Y-28138000D02*
X16907000Y-28138000D01*
X19767000Y-26218000D02*
X19767000Y-28138000D01*
X16907000Y-26218000D02*
X19767000Y-26218000D01*
%TO.C,R4*%
X51054724Y-23382500D02*
X50545276Y-23382500D01*
X51054724Y-22337500D02*
X50545276Y-22337500D01*
%TO.C,Q6*%
X47546500Y-37882000D02*
X48196500Y-37882000D01*
X47546500Y-37882000D02*
X46896500Y-37882000D01*
X47546500Y-34762000D02*
X49221500Y-34762000D01*
X47546500Y-34762000D02*
X46896500Y-34762000D01*
%TO.C,JP3*%
X50553900Y-15222000D02*
X49953900Y-15222000D01*
X49253900Y-15872000D02*
X49253900Y-18672000D01*
X51253900Y-18672000D02*
X51253900Y-15872000D01*
X49953900Y-19322000D02*
X50553900Y-19322000D01*
X51253900Y-15922000D02*
G75*
G03*
X50553900Y-15222000I-699999J1D01*
G01*
X49953900Y-15222000D02*
G75*
G03*
X49253900Y-15922000I-1J-699999D01*
G01*
X50553900Y-19322000D02*
G75*
G03*
X51253900Y-18622000I0J700000D01*
G01*
X49253900Y-18622000D02*
G75*
G03*
X49953900Y-19322000I700000J0D01*
G01*
%TO.C,Q8*%
X58450000Y-27129500D02*
X58450000Y-27779500D01*
X58450000Y-27129500D02*
X58450000Y-26479500D01*
X61570000Y-27129500D02*
X61570000Y-28804500D01*
X61570000Y-27129500D02*
X61570000Y-26479500D01*
%TO.C,R16*%
X63580500Y-28144776D02*
X63580500Y-28654224D01*
X62535500Y-28144776D02*
X62535500Y-28654224D01*
%TO.C,R9*%
X27131500Y-30938776D02*
X27131500Y-31448224D01*
X26086500Y-30938776D02*
X26086500Y-31448224D01*
%TO.C,TH3*%
X46916964Y-19325000D02*
X45462836Y-19325000D01*
X46916964Y-17505000D02*
X45462836Y-17505000D01*
%TO.C,R10*%
X45005776Y-32673000D02*
X45515224Y-32673000D01*
X45005776Y-33718000D02*
X45515224Y-33718000D01*
%TO.C,R20*%
X60264724Y-30573000D02*
X59755276Y-30573000D01*
X60264724Y-29528000D02*
X59755276Y-29528000D01*
%TO.C,GPO1*%
X18234000Y-25052000D02*
X18234000Y-14682000D01*
X18534000Y-25052000D02*
X18234000Y-25052000D01*
X20074000Y-25052000D02*
X25824000Y-25052000D01*
X25824000Y-25052000D02*
X25824000Y-23632000D01*
X25324000Y-23632000D02*
X25324000Y-16102000D01*
X25824000Y-23632000D02*
X25324000Y-23632000D01*
X25324000Y-16102000D02*
X25824000Y-16102000D01*
X25824000Y-16102000D02*
X25824000Y-14682000D01*
X18234000Y-14682000D02*
X18534000Y-14682000D01*
X25824000Y-14682000D02*
X20074000Y-14682000D01*
%TO.C,TH1*%
X33023164Y-19452000D02*
X31569036Y-19452000D01*
X33023164Y-17632000D02*
X31569036Y-17632000D01*
%TO.C,R7*%
X42619400Y-15367724D02*
X42619400Y-14858276D01*
X43664400Y-15367724D02*
X43664400Y-14858276D01*
%TO.C,TH4*%
X46218464Y-28342000D02*
X44764336Y-28342000D01*
X46218464Y-26522000D02*
X44764336Y-26522000D01*
%TO.C,868Mhz*%
X36446000Y-41253000D02*
X36446000Y-44853000D01*
X34566000Y-46733000D02*
X30966000Y-46733000D01*
X34566000Y-39373000D02*
X30966000Y-39373000D01*
X29086000Y-41253000D02*
X29086000Y-44853000D01*
%TO.C,R18*%
X50990000Y-35988776D02*
X50990000Y-36498224D01*
X49945000Y-35988776D02*
X49945000Y-36498224D01*
%TO.C,R12*%
X63580500Y-24588776D02*
X63580500Y-25098224D01*
X62535500Y-24588776D02*
X62535500Y-25098224D01*
%TO.C,R2*%
X37084724Y-23763500D02*
X36575276Y-23763500D01*
X37084724Y-22718500D02*
X36575276Y-22718500D01*
%TO.C,R8*%
X43956500Y-23748276D02*
X43956500Y-24257724D01*
X42911500Y-23748276D02*
X42911500Y-24257724D01*
%TO.C,D2*%
X43648500Y-38126500D02*
X43648500Y-34866500D01*
X45348500Y-38126500D02*
X43648500Y-38126500D01*
X45348500Y-38126500D02*
X45348500Y-34866500D01*
%TO.C,R11*%
X60245776Y-13369000D02*
X60755224Y-13369000D01*
X60245776Y-14414000D02*
X60755224Y-14414000D01*
%TO.C,Q7*%
X62786500Y-18451000D02*
X63436500Y-18451000D01*
X62786500Y-18451000D02*
X62136500Y-18451000D01*
X62786500Y-15331000D02*
X64461500Y-15331000D01*
X62786500Y-15331000D02*
X62136500Y-15331000D01*
D12*
%TO.C,Q1*%
X31242000Y-13335000D02*
X33020000Y-13335000D01*
X31242000Y-14369260D02*
X31242000Y-13335000D01*
X33020000Y-14652739D02*
X33020000Y-15319261D01*
X33020000Y-16637000D02*
X31242000Y-16637000D01*
X31242000Y-16637000D02*
X31242000Y-15602740D01*
X34678099Y-14036000D02*
G75*
G03*
X34525699Y-14036000I-76200J0D01*
G01*
X34525699Y-14036000D02*
G75*
G03*
X34678099Y-14036000I76200J0D01*
G01*
D11*
%TO.C,Radio_RX1*%
X19894000Y-49728000D02*
X17034000Y-49728000D01*
X19894000Y-47808000D02*
X19894000Y-49728000D01*
X17034000Y-47808000D02*
X19894000Y-47808000D01*
%TO.C,D3*%
X58761500Y-18822500D02*
X58761500Y-15562500D01*
X60461500Y-18822500D02*
X58761500Y-18822500D01*
X60461500Y-18822500D02*
X60461500Y-15562500D01*
%TO.C,R5*%
X29643600Y-14858276D02*
X29643600Y-15367724D01*
X28598600Y-14858276D02*
X28598600Y-15367724D01*
%TO.C,R15*%
X63801776Y-13369000D02*
X64311224Y-13369000D01*
X63801776Y-14414000D02*
X64311224Y-14414000D01*
%TO.C,JP1*%
X36660100Y-15349000D02*
X36060100Y-15349000D01*
X35360100Y-15999000D02*
X35360100Y-18799000D01*
X37360100Y-18799000D02*
X37360100Y-15999000D01*
X36060100Y-19449000D02*
X36660100Y-19449000D01*
X37360100Y-16049000D02*
G75*
G03*
X36660100Y-15349000I-699999J1D01*
G01*
X36060100Y-15349000D02*
G75*
G03*
X35360100Y-16049000I-1J-699999D01*
G01*
X36660100Y-19449000D02*
G75*
G03*
X37360100Y-18749000I0J700000D01*
G01*
X35360100Y-18749000D02*
G75*
G03*
X36060100Y-19449000I700000J0D01*
G01*
%TO.C,R1*%
X36741824Y-14619500D02*
X36232376Y-14619500D01*
X36741824Y-13574500D02*
X36232376Y-13574500D01*
%TO.C,GPI1*%
X55549000Y-48060000D02*
X45179000Y-48060000D01*
X55549000Y-47760000D02*
X55549000Y-48060000D01*
X55549000Y-46220000D02*
X55549000Y-40470000D01*
X55549000Y-40470000D02*
X54129000Y-40470000D01*
X54129000Y-40970000D02*
X46599000Y-40970000D01*
X54129000Y-40470000D02*
X54129000Y-40970000D01*
X46599000Y-40970000D02*
X46599000Y-40470000D01*
X46599000Y-40470000D02*
X45179000Y-40470000D01*
X45179000Y-48060000D02*
X45179000Y-47760000D01*
X45179000Y-40470000D02*
X45179000Y-46220000D01*
%TO.C,R19*%
X66230000Y-16684776D02*
X66230000Y-17194224D01*
X65185000Y-16684776D02*
X65185000Y-17194224D01*
D12*
%TO.C,Q3*%
X45300900Y-13335000D02*
X47078900Y-13335000D01*
X45300900Y-14369260D02*
X45300900Y-13335000D01*
X47078900Y-14652739D02*
X47078900Y-15319261D01*
X47078900Y-16637000D02*
X45300900Y-16637000D01*
X45300900Y-16637000D02*
X45300900Y-15602740D01*
X48736999Y-14036000D02*
G75*
G03*
X48584599Y-14036000I-76200J0D01*
G01*
X48584599Y-14036000D02*
G75*
G03*
X48736999Y-14036000I76200J0D01*
G01*
D11*
%TO.C,R14*%
X48434776Y-32800000D02*
X48944224Y-32800000D01*
X48434776Y-33845000D02*
X48944224Y-33845000D01*
D12*
%TO.C,Q4*%
X45491400Y-22479000D02*
X47269400Y-22479000D01*
X45491400Y-23513260D02*
X45491400Y-22479000D01*
X47269400Y-23796739D02*
X47269400Y-24463261D01*
X47269400Y-25781000D02*
X45491400Y-25781000D01*
X45491400Y-25781000D02*
X45491400Y-24746740D01*
X48927499Y-23180000D02*
G75*
G03*
X48775099Y-23180000I-76200J0D01*
G01*
X48775099Y-23180000D02*
G75*
G03*
X48927499Y-23180000I76200J0D01*
G01*
D11*
%TO.C,R22*%
X17906276Y-46340500D02*
X18415724Y-46340500D01*
X17906276Y-47385500D02*
X18415724Y-47385500D01*
%TO.C,Q5*%
X21874000Y-33606500D02*
X21874000Y-34256500D01*
X21874000Y-33606500D02*
X21874000Y-32956500D01*
X24994000Y-33606500D02*
X24994000Y-35281500D01*
X24994000Y-33606500D02*
X24994000Y-32956500D01*
D12*
%TO.C,Q2*%
X31623000Y-22798999D02*
X33401000Y-22798999D01*
X31623000Y-23833259D02*
X31623000Y-22798999D01*
X33401000Y-24116738D02*
X33401000Y-24783260D01*
X33401000Y-26100999D02*
X31623000Y-26100999D01*
X31623000Y-26100999D02*
X31623000Y-25066739D01*
X35059099Y-23499999D02*
G75*
G03*
X34906699Y-23499999I-76200J0D01*
G01*
X34906699Y-23499999D02*
G75*
G03*
X35059099Y-23499999I76200J0D01*
G01*
D11*
%TO.C,R6*%
X29986500Y-24129276D02*
X29986500Y-24638724D01*
X28941500Y-24129276D02*
X28941500Y-24638724D01*
%TD*%
M02*
