M48
; DRILL file {KiCad 7.0.10} date Sun Jun  8 09:49:40 2025
; FORMAT={-:-/ absolute / inch / decimal}
; #@! TF.CreationDate,2025-06-08T09:49:40+02:00
; #@! TF.GenerationSoftware,Kicad,Pcbnew,7.0.10
; #@! TF.FileFunction,Plated,1,4,PTH
FMAT,2
INCH
; #@! TA.AperFunction,Plated,PTH,ViaDrill
T1C0.0157
; #@! TA.AperFunction,Plated,PTH,ComponentDrill
T2C0.0256
; #@! TA.AperFunction,Plated,PTH,ComponentDrill
T3C0.0276
; #@! TA.AperFunction,Plated,PTH,ViaDrill
T4C0.1772
%
G90
G05
T1
X0.54Y-1.59
X0.5693Y-0.6815
X0.5719Y-2.0657
X0.585Y-1.335
X0.6316Y-2.0533
X0.693Y-1.582
X0.7378Y-2.1028
X0.7538Y-0.9312
X0.783Y-2.0538
X0.8165Y-1.9158
X0.8265Y-1.8778
X0.8427Y-1.7993
X0.8997Y-1.7617
X0.9007Y-1.4082
X0.9101Y-1.1467
X0.9243Y-0.9321
X0.98Y-1.84
X0.9916Y-1.15
X1.0251Y-1.5767
X1.072Y-1.577
X1.088Y-0.592
X1.1169Y-1.6662
X1.1327Y-1.2977
X1.1516Y-1.748
X1.17Y-0.784
X1.185Y-1.285
X1.205Y-1.415
X1.215Y-1.881
X1.234Y-1.74
X1.245Y-1.345
X1.2625Y-1.9398
X1.2823Y-1.4323
X1.3107Y-1.8917
X1.3151Y-1.0817
X1.3344Y-0.6861
X1.345Y-1.715
X1.355Y-0.77
X1.375Y-1.1176
X1.3892Y-1.5834
X1.39Y-0.559
X1.4Y-1.4449
X1.455Y-1.195
X1.475Y-1.465
X1.5273Y-1.233
X1.529Y-1.184
X1.5423Y-1.0977
X1.5701Y-1.0699
X1.5707Y-0.7757
X1.575Y-0.724
X1.5969Y-1.7388
X1.5975Y-1.2575
X1.6025Y-1.0475
X1.65Y-1.205
X1.66Y-0.559
X1.66Y-1.67
X1.6778Y-1.1771
X1.7005Y-1.3013
X1.71Y-1.15
X1.7456Y-1.65
X1.7485Y-1.3126
X1.78Y-1.8535
X1.815Y-1.735
X1.8401Y-1.665
X1.8552Y-1.5354
X1.89Y-1.82
X1.8917Y-1.4212
X1.9658Y-1.5017
X1.985Y-0.529
X2.045Y-1.93
X2.0617Y-1.8412
X2.1617Y-1.3812
X2.1617Y-1.8762
X2.2363Y-1.1963
X2.26Y-1.2919
X2.375Y-1.22
X2.3796Y-1.3257
X2.4074Y-0.719
X2.4216Y-1.5228
X2.435Y-1.1096
X2.452Y-0.598
X2.46Y-1.5387
X2.48Y-1.3787
X2.49Y-0.7965
X2.55Y-0.8561
X2.5854Y-1.8904
X2.615Y-1.12
X2.63Y-1.845
X2.6303Y-0.8721
X2.6543Y-1.93
X2.655Y-1.3087
X2.6846Y-1.8996
X2.79Y-1.3837
X2.835Y-0.98
X2.86Y-1.2544
X2.89Y-1.3213
X2.92Y-1.6587
T2
X1.6402Y-0.8896
X1.6402Y-0.9396
X1.6902Y-0.8896
X1.6902Y-0.9396
X1.7402Y-0.8896
X1.7402Y-0.9396
X1.7902Y-0.8896
X1.7902Y-0.9396
X1.8402Y-0.8896
X1.8402Y-0.9396
X1.8902Y-0.8896
X1.8902Y-0.9396
X1.9402Y-0.8896
X1.9402Y-0.9396
X1.9902Y-0.8896
X1.9902Y-0.9396
T3
X0.615Y-2.145
X0.615Y-2.195
X0.615Y-2.245
X0.615Y-2.295
X0.615Y-2.345
X0.635Y-0.615
X0.635Y-0.665
X0.635Y-0.715
X0.635Y-0.765
X0.635Y-0.815
X0.665Y-2.145
X0.665Y-2.195
X0.665Y-2.245
X0.665Y-2.295
X0.665Y-2.345
X0.685Y-0.615
X0.685Y-0.665
X0.685Y-0.715
X0.685Y-0.765
X0.685Y-0.815
X2.935Y-2.1446
X2.935Y-2.1946
X2.935Y-2.2446
X2.935Y-2.2946
X2.935Y-2.3446
X2.95Y-0.585
X2.95Y-0.635
X2.95Y-0.685
X2.95Y-0.735
X2.95Y-0.785
X2.985Y-2.1446
X2.985Y-2.1946
X2.985Y-2.2446
X2.985Y-2.2946
X2.985Y-2.3446
X3.0Y-0.585
X3.0Y-0.635
X3.0Y-0.685
X3.0Y-0.735
X3.0Y-0.785
T4
X0.645Y-1.07
X0.65Y-1.885
X2.675Y-0.665
X2.93Y-1.88
M30
