%TF.GenerationSoftware,KiCad,Pcbnew,7.0.10*%
%TF.CreationDate,2024-04-14T19:08:20+02:00*%
%TF.ProjectId,DIC_Addon,4449435f-4164-4646-9f6e-2e6b69636164,rev?*%
%TF.SameCoordinates,Original*%
%TF.FileFunction,Paste,Bot*%
%TF.FilePolarity,Positive*%
%FSLAX46Y46*%
G04 Gerber Fmt 4.6, Leading zero omitted, Abs format (unit mm)*
G04 Created by KiCad (PCBNEW 7.0.10) date 2024-04-14 19:08:20*
%MOMM*%
%LPD*%
G01*
G04 APERTURE LIST*
G04 Aperture macros list*
%AMRoundRect*
0 Rectangle with rounded corners*
0 $1 Rounding radius*
0 $2 $3 $4 $5 $6 $7 $8 $9 X,Y pos of 4 corners*
0 Add a 4 corners polygon primitive as box body*
4,1,4,$2,$3,$4,$5,$6,$7,$8,$9,$2,$3,0*
0 Add four circle primitives for the rounded corners*
1,1,$1+$1,$2,$3*
1,1,$1+$1,$4,$5*
1,1,$1+$1,$6,$7*
1,1,$1+$1,$8,$9*
0 Add four rect primitives between the rounded corners*
20,1,$1+$1,$2,$3,$4,$5,0*
20,1,$1+$1,$4,$5,$6,$7,0*
20,1,$1+$1,$6,$7,$8,$9,0*
20,1,$1+$1,$8,$9,$2,$3,0*%
G04 Aperture macros list end*
%ADD10RoundRect,0.250000X-0.400000X-0.625000X0.400000X-0.625000X0.400000X0.625000X-0.400000X0.625000X0*%
%ADD11RoundRect,0.237500X-0.237500X0.250000X-0.237500X-0.250000X0.237500X-0.250000X0.237500X0.250000X0*%
%ADD12RoundRect,0.250000X-0.250000X-0.250000X0.250000X-0.250000X0.250000X0.250000X-0.250000X0.250000X0*%
%ADD13RoundRect,0.237500X-0.250000X-0.237500X0.250000X-0.237500X0.250000X0.237500X-0.250000X0.237500X0*%
%ADD14RoundRect,0.237500X0.250000X0.237500X-0.250000X0.237500X-0.250000X-0.237500X0.250000X-0.237500X0*%
%ADD15RoundRect,0.250000X0.325000X0.450000X-0.325000X0.450000X-0.325000X-0.450000X0.325000X-0.450000X0*%
%ADD16RoundRect,0.150000X0.587500X0.150000X-0.587500X0.150000X-0.587500X-0.150000X0.587500X-0.150000X0*%
%ADD17RoundRect,0.150000X0.150000X-0.587500X0.150000X0.587500X-0.150000X0.587500X-0.150000X-0.587500X0*%
%ADD18RoundRect,0.250000X0.400000X0.625000X-0.400000X0.625000X-0.400000X-0.625000X0.400000X-0.625000X0*%
%ADD19RoundRect,0.237500X0.237500X-0.250000X0.237500X0.250000X-0.237500X0.250000X-0.237500X-0.250000X0*%
%ADD20RoundRect,0.250000X0.250000X-0.250000X0.250000X0.250000X-0.250000X0.250000X-0.250000X-0.250000X0*%
%ADD21R,1.131799X0.568000*%
G04 APERTURE END LIST*
D10*
%TO.C,TH2*%
X30708000Y-27686000D03*
X33808000Y-27686000D03*
%TD*%
D11*
%TO.C,R17*%
X24323000Y-36504000D03*
X24323000Y-38329000D03*
%TD*%
%TO.C,R13*%
X26609000Y-33837000D03*
X26609000Y-35662000D03*
%TD*%
D12*
%TO.C,D4*%
X58887000Y-24081500D03*
X61387000Y-24081500D03*
%TD*%
D13*
%TO.C,R21*%
X20677500Y-27432000D03*
X22502500Y-27432000D03*
%TD*%
D14*
%TO.C,R3*%
X51547400Y-13970000D03*
X49722400Y-13970000D03*
%TD*%
D12*
%TO.C,D1*%
X22311000Y-30431500D03*
X24811000Y-30431500D03*
%TD*%
D15*
%TO.C,Radio_TX1*%
X18932000Y-27178000D03*
X16882000Y-27178000D03*
%TD*%
D14*
%TO.C,R4*%
X51712500Y-22860000D03*
X49887500Y-22860000D03*
%TD*%
D16*
%TO.C,Q6*%
X48484000Y-35372000D03*
X48484000Y-37272000D03*
X46609000Y-36322000D03*
%TD*%
D17*
%TO.C,Q8*%
X60960000Y-28067000D03*
X59060000Y-28067000D03*
X60010000Y-26192000D03*
%TD*%
D11*
%TO.C,R16*%
X63058000Y-27487000D03*
X63058000Y-29312000D03*
%TD*%
%TO.C,R9*%
X26609000Y-30281000D03*
X26609000Y-32106000D03*
%TD*%
D18*
%TO.C,TH3*%
X47739900Y-18415000D03*
X44639900Y-18415000D03*
%TD*%
D13*
%TO.C,R10*%
X44348000Y-33195500D03*
X46173000Y-33195500D03*
%TD*%
D14*
%TO.C,R20*%
X60922500Y-30050500D03*
X59097500Y-30050500D03*
%TD*%
D18*
%TO.C,TH1*%
X33846100Y-18542000D03*
X30746100Y-18542000D03*
%TD*%
D19*
%TO.C,R7*%
X43141900Y-16025500D03*
X43141900Y-14200500D03*
%TD*%
D18*
%TO.C,TH4*%
X47041400Y-27432000D03*
X43941400Y-27432000D03*
%TD*%
D11*
%TO.C,R18*%
X50467500Y-35331000D03*
X50467500Y-37156000D03*
%TD*%
%TO.C,R12*%
X63058000Y-23931000D03*
X63058000Y-25756000D03*
%TD*%
D14*
%TO.C,R2*%
X37742500Y-23241000D03*
X35917500Y-23241000D03*
%TD*%
D11*
%TO.C,R8*%
X43434000Y-23090500D03*
X43434000Y-24915500D03*
%TD*%
D20*
%TO.C,D2*%
X44498500Y-37366500D03*
X44498500Y-34866500D03*
%TD*%
D13*
%TO.C,R11*%
X59588000Y-13891500D03*
X61413000Y-13891500D03*
%TD*%
D16*
%TO.C,Q7*%
X63724000Y-15941000D03*
X63724000Y-17841000D03*
X61849000Y-16891000D03*
%TD*%
D21*
%TO.C,Q1*%
X33274000Y-14035999D03*
X33274000Y-15936001D03*
X30988000Y-14986000D03*
%TD*%
D15*
%TO.C,Radio_RX1*%
X19059000Y-48768000D03*
X17009000Y-48768000D03*
%TD*%
D20*
%TO.C,D3*%
X59611500Y-18062500D03*
X59611500Y-15562500D03*
%TD*%
D11*
%TO.C,R5*%
X29121100Y-14200500D03*
X29121100Y-16025500D03*
%TD*%
D13*
%TO.C,R15*%
X63144000Y-13891500D03*
X64969000Y-13891500D03*
%TD*%
D14*
%TO.C,R1*%
X37399600Y-14097000D03*
X35574600Y-14097000D03*
%TD*%
D11*
%TO.C,R19*%
X65707500Y-16027000D03*
X65707500Y-17852000D03*
%TD*%
D21*
%TO.C,Q3*%
X47332900Y-14035999D03*
X47332900Y-15936001D03*
X45046900Y-14986000D03*
%TD*%
D13*
%TO.C,R14*%
X47777000Y-33322500D03*
X49602000Y-33322500D03*
%TD*%
D21*
%TO.C,Q4*%
X47523400Y-23179999D03*
X47523400Y-25080001D03*
X45237400Y-24130000D03*
%TD*%
D13*
%TO.C,R22*%
X17248500Y-46863000D03*
X19073500Y-46863000D03*
%TD*%
D17*
%TO.C,Q5*%
X24384000Y-34544000D03*
X22484000Y-34544000D03*
X23434000Y-32669000D03*
%TD*%
D21*
%TO.C,Q2*%
X33655000Y-23499998D03*
X33655000Y-25400000D03*
X31369000Y-24449999D03*
%TD*%
D11*
%TO.C,R6*%
X29464000Y-23471500D03*
X29464000Y-25296500D03*
%TD*%
M02*
